<?xml version="1.0" encoding="UTF-8" standalone="no"?>
<!DOCTYPE svg PUBLIC "-//W3C//DTD SVG 1.1//EN" "http://www.w3.org/Graphics/SVG/1.1/DTD/svg11.dtd">
<svg width="100%" height="100%" viewBox="0 0 191 234" version="1.1" xmlns="http://www.w3.org/2000/svg" xmlns:xlink="http://www.w3.org/1999/xlink" xml:space="preserve" xmlns:serif="http://www.serif.com/" style="fill-rule:evenodd;clip-rule:evenodd;stroke-linejoin:round;stroke-miterlimit:2;">
    <g transform="matrix(1,0,0,1,-19.5304,-23.0091)">
        <g transform="matrix(6.40247,-1.02626,1.02626,6.40247,-12.2729,24.5937)">
            <path d="M20.49,3.51C19.93,2.95 18.34,2.54 16.33,2.54C13.25,2.54 9.18,3.5 6.35,6.33C1.66,11.03 2.1,19.07 3.51,20.49C4.07,21.05 5.66,21.46 7.67,21.46C10.75,21.46 14.82,20.5 17.65,17.67C22.34,12.97 21.9,4.93 20.49,3.51ZM7.76,7.76C10.4,5.12 14.11,4.64 15.79,4.57C13.74,5.51 11.33,7.02 9.18,9.18C7.268,11.106 5.705,13.349 4.56,15.81C4.66,13.33 5.44,10.07 7.76,7.76ZM16.24,16.24C13.6,18.88 9.89,19.36 8.21,19.43C10.26,18.49 12.67,16.98 14.82,14.82C16.98,12.66 18.49,10.24 19.44,8.19C19.34,10.67 18.56,13.93 16.24,16.24Z" style="fill:url(#_Linear1);fill-rule:nonzero;"/>
        </g>
        <g transform="matrix(0.670525,0,0,0.670525,-66.4934,-57.7935)">
            <g>
                <g transform="matrix(1,0,0,1,128.54,381.087)">
                    <path d="M31.197,-0.003L21.852,-14.802C25.749,-16.351 27.897,-19.598 27.897,-24.55C27.897,-30.75 24.6,-34.847 15.8,-34.847L3.553,-34.847L3.553,-0.003L11.347,-0.003L11.347,-13.853L14.049,-13.853L22.101,-0.003L31.197,-0.003ZM11.347,-21.047L11.347,-27.653L14.999,-27.653C17.451,-27.653 20.053,-27.653 20.053,-24.45C20.053,-21.197 17.501,-21.047 14.999,-21.047L11.347,-21.047Z" style="fill:white;fill-rule:nonzero;"/>
                    <path d="M47.3,0.897C56.401,0.897 61.097,-3.599 61.097,-12.847L61.097,-34.847L53.253,-34.847L53.253,-13.397C53.253,-8.697 52.303,-6.297 47.3,-6.297C42.247,-6.297 41.347,-8.647 41.347,-13.497L41.347,-34.847L33.503,-34.847L33.503,-12.597C33.503,-3.499 38.149,0.897 47.3,0.897Z" style="fill:white;fill-rule:nonzero;"/>
                    <path d="M83.101,-19.347L83.101,-12.353L90.553,-12.353L90.553,-11.853C90.553,-9.1 88.002,-6.597 82.8,-6.597C76.948,-6.597 72.747,-9.8 72.747,-17.349C72.747,-24.551 76.598,-28.353 82.3,-28.353C86.302,-28.353 89.753,-26.402 91.153,-22.399L98.397,-25.251C95.699,-32.2 89.353,-35.847 82.4,-35.847C72.147,-35.847 64.903,-27.953 64.903,-17.099C64.903,-6.697 71.548,0.897 82.15,0.897C86.452,0.897 90.003,-0.352 92.152,-3.35L93.051,-0.003L98.447,-0.003L98.447,-19.347L83.101,-19.347Z" style="fill:white;fill-rule:nonzero;"/>
                    <path d="M104.353,-0.003L119.201,-0.003C126.3,-0.003 130.697,-4 130.697,-10.45C130.697,-14.503 129.048,-17.351 125.401,-18.949C127.548,-20.448 128.797,-22.948 128.797,-26.001C128.797,-31.5 124.5,-34.847 117.351,-34.847L104.353,-34.847L104.353,-0.003ZM112.197,-21.797L112.197,-27.653L117.351,-27.653C119.552,-27.653 120.953,-26.852 120.953,-24.9C120.953,-22.748 119.552,-21.797 117.351,-21.797L112.197,-21.797ZM112.197,-7.197L112.197,-14.453L118.551,-14.453C119.751,-14.453 122.853,-14.453 122.853,-10.8C122.853,-8.598 121.702,-7.197 118.551,-7.197L112.197,-7.197Z" style="fill:white;fill-rule:nonzero;"/>
                </g>
                <g transform="matrix(1,0,0,1,259.59,381.087)">
                    <path d="M12.153,-0.003L19.997,-0.003L19.997,-13.751L33.047,-34.847L23.797,-34.847L15.9,-21.299L8.203,-34.847L-1.047,-34.847L12.153,-13.751L12.153,-0.003Z" style="fill:white;fill-rule:nonzero;"/>
                </g>
            </g>
            <g>
                <g transform="matrix(1,0,0,1,128.54,423.114)">
                    <path d="M8.366,-0.003L15.043,-0.003L15.043,-23.244L23.575,-23.244L23.575,-29.29L-0.208,-29.29L-0.208,-23.244L8.366,-23.244L8.366,-0.003Z" style="fill:white;fill-rule:nonzero;"/>
                    <path d="M49.589,-0.003L41.734,-12.442C45.01,-13.744 46.815,-16.473 46.815,-20.635C46.815,-25.847 44.044,-29.29 36.648,-29.29L26.354,-29.29L26.354,-0.003L32.905,-0.003L32.905,-11.644L35.176,-11.644L41.944,-0.003L49.589,-0.003ZM32.905,-17.691L32.905,-23.244L35.975,-23.244C38.035,-23.244 40.222,-23.244 40.222,-20.551C40.222,-17.817 38.078,-17.691 35.975,-17.691L32.905,-17.691Z" style="fill:white;fill-rule:nonzero;"/>
                </g>
                <g transform="matrix(1,0,0,1,177.501,423.114)">
                    <path d="M15.214,0.754C23.705,0.754 29.584,-5.377 29.584,-14.625C29.584,-23.916 23.789,-30.047 15.214,-30.047C6.722,-30.047 0.885,-23.874 0.885,-14.625C0.885,-5.419 6.722,0.754 15.214,0.754ZM15.214,-5.545C10.505,-5.545 7.478,-8.95 7.478,-14.625C7.478,-20.343 10.505,-23.748 15.214,-23.748C19.964,-23.748 22.949,-20.259 22.949,-14.625C22.949,-9.034 19.964,-5.545 15.214,-5.545Z" style="fill:white;fill-rule:nonzero;"/>
                    <path d="M33.456,-0.003L40.007,-0.003L40.007,-11.77L43.75,-11.77C50.433,-11.77 53.918,-14.835 53.918,-20.677C53.918,-26.477 50.517,-29.29 43.75,-29.29L33.456,-29.29L33.456,-0.003ZM40.007,-17.817L40.007,-23.244L43.077,-23.244C45.979,-23.244 47.325,-22.823 47.325,-20.593C47.325,-18.238 45.769,-17.817 43.077,-17.817L40.007,-17.817Z" style="fill:white;fill-rule:nonzero;"/>
                    <rect x="57.538" y="-29.29" width="6.593" height="29.288" style="fill:white;fill-rule:nonzero;"/>
                    <path d="M82.749,0.754C89.263,0.754 94.18,-2.48 96.239,-8.32L90.061,-10.674C89.053,-7.269 86.405,-5.545 82.749,-5.545C77.663,-5.545 74.595,-8.866 74.595,-14.709C74.595,-20.553 77.579,-23.832 82.622,-23.832C86.195,-23.832 88.927,-22.15 90.061,-18.829L96.155,-21.226C94.012,-26.771 89.179,-30.131 82.622,-30.131C73.839,-30.131 68.002,-24 68.002,-14.625C68.002,-5.335 73.881,0.754 82.749,0.754Z" style="fill:white;fill-rule:nonzero;"/>
                    <path d="M116.539,-0.003L123.725,-0.003L111.581,-29.29L106.749,-29.29L94.563,-0.003L101.749,-0.003L103.64,-4.962L114.649,-4.962L116.539,-0.003ZM105.951,-11.008L109.186,-19.456L112.38,-11.008L105.951,-11.008Z" style="fill:white;fill-rule:nonzero;"/>
                    <path d="M126.084,-0.003L144.696,-0.003L144.696,-6.049L132.677,-6.049L132.677,-29.29L126.084,-29.29L126.084,-0.003Z" style="fill:white;fill-rule:nonzero;"/>
                    <path d="M170.333,0.754C176.847,0.754 181.764,-2.48 183.823,-8.32L177.646,-10.674C176.637,-7.269 173.989,-5.545 170.333,-5.545C165.248,-5.545 162.18,-8.866 162.18,-14.709C162.18,-20.553 165.163,-23.832 170.207,-23.832C173.779,-23.832 176.511,-22.15 177.646,-18.829L183.739,-21.226C181.596,-26.771 176.763,-30.131 170.207,-30.131C161.424,-30.131 155.587,-24 155.587,-14.625C155.587,-5.335 161.466,0.754 170.333,0.754Z" style="fill:white;fill-rule:nonzero;"/>
                </g>
                <g transform="matrix(1,0,0,1,361.243,423.114)">
                    <path d="M13.953,0.754C21.602,0.754 25.55,-3.025 25.55,-10.798L25.55,-29.29L18.957,-29.29L18.957,-11.261C18.957,-7.31 18.158,-5.293 13.953,-5.293C9.706,-5.293 8.949,-7.268 8.949,-11.345L8.949,-29.29L2.356,-29.29L2.356,-10.588C2.356,-2.941 6.262,0.754 13.953,0.754Z" style="fill:white;fill-rule:nonzero;"/>
                    <path d="M30.892,-0.003L37.443,-0.003L37.443,-11.77L41.187,-11.77C47.869,-11.77 51.354,-14.835 51.354,-20.677C51.354,-26.477 47.953,-29.29 41.187,-29.29L30.892,-29.29L30.892,-0.003ZM37.443,-17.817L37.443,-23.244L40.514,-23.244C43.416,-23.244 44.761,-22.823 44.761,-20.593C44.761,-18.238 43.205,-17.817 40.514,-17.817L37.443,-17.817Z" style="fill:white;fill-rule:nonzero;"/>
                </g>
            </g>
            <g transform="matrix(1,0,0,1,128.54,468.962)">
                <path d="M11.11,-4.852C18.07,-9.207 25.172,-16.416 25.172,-24.626C25.172,-31.183 20.723,-35.332 14.365,-35.332C6.805,-35.332 2.706,-29.432 2.706,-22.874L7.755,-22.474C7.855,-26.579 9.607,-30.383 14.314,-30.383C18.12,-30.383 20.023,-27.93 20.023,-24.326C20.023,-15.815 9.157,-8.556 2.355,-4.352L2.355,-0.003L26.674,-0.003L26.674,-4.852L11.11,-4.852Z" style="fill:white;fill-rule:nonzero;"/>
                <path d="M43.794,0.497C52.652,0.497 55.152,-8.456 55.152,-17.367C55.152,-26.379 52.602,-35.432 43.443,-35.432C33.385,-35.432 31.985,-25.177 31.985,-17.417C31.985,-9.758 33.485,0.497 43.794,0.497ZM43.644,-4.451C37.735,-4.451 37.284,-11.16 37.284,-17.417C37.284,-23.875 37.735,-30.484 43.443,-30.484C49.002,-30.484 49.653,-24.076 49.653,-17.467C49.653,-11.06 49.052,-4.451 43.644,-4.451Z" style="fill:white;fill-rule:nonzero;"/>
                <path d="M69.168,-4.852C76.128,-9.207 83.23,-16.416 83.23,-24.626C83.23,-31.183 78.781,-35.332 72.423,-35.332C64.863,-35.332 60.764,-29.432 60.764,-22.874L65.813,-22.474C65.913,-26.579 67.665,-30.383 72.372,-30.383C76.178,-30.383 78.081,-27.93 78.081,-24.326C78.081,-15.815 67.215,-8.556 60.413,-4.352L60.413,-0.003L84.732,-0.003L84.732,-4.852L69.168,-4.852Z" style="fill:white;fill-rule:nonzero;"/>
                <path d="M98.197,-4.852C105.157,-9.207 112.259,-16.416 112.259,-24.626C112.259,-31.183 107.81,-35.332 101.452,-35.332C93.892,-35.332 89.793,-29.432 89.793,-22.874L94.842,-22.474C94.942,-26.579 96.694,-30.383 101.401,-30.383C105.207,-30.383 107.11,-27.93 107.11,-24.326C107.11,-15.815 96.244,-8.556 89.442,-4.352L89.442,-0.003L113.761,-0.003L113.761,-4.852L98.197,-4.852Z" style="fill:white;fill-rule:nonzero;"/>
            </g>
        </g>
    </g>
    <defs>
        <linearGradient id="_Linear1" x1="0" y1="0" x2="1" y2="0" gradientUnits="userSpaceOnUse" gradientTransform="matrix(14.2445,-13.8054,13.8054,14.2445,4.88906,18.32)"><stop offset="0" style="stop-color:rgb(64,224,208);stop-opacity:1"/><stop offset="0.5" style="stop-color:rgb(255,140,0);stop-opacity:1"/><stop offset="1" style="stop-color:rgb(255,0,128);stop-opacity:1"/></linearGradient>
    </defs>
</svg>
