<?xml version="1.0" encoding="UTF-8" standalone="no"?>
<!DOCTYPE svg PUBLIC "-//W3C//DTD SVG 1.1//EN" "http://www.w3.org/Graphics/SVG/1.1/DTD/svg11.dtd">
<svg width="100%" height="100%" viewBox="0 0 1000 280" version="1.1" xmlns="http://www.w3.org/2000/svg" xmlns:xlink="http://www.w3.org/1999/xlink" xml:space="preserve" xmlns:serif="http://www.serif.com/" style="fill-rule:evenodd;clip-rule:evenodd;stroke-linecap:square;stroke-linejoin:round;stroke-miterlimit:1.5;">
    <g transform="matrix(1.09375,0,0,0.546875,220,0)">
        <rect x="0" y="0" width="512" height="512" style="fill:rgb(41,46,53);"/>
    </g>
    <g transform="matrix(0.85197,0,0,0.85197,227.682,23.7153)">
        <rect x="41.766" y="58.989" width="185" height="172" style="fill:rgb(100,178,241);"/>
        <clipPath id="_clip1">
            <rect x="41.766" y="58.989" width="185" height="172"/>
        </clipPath>
        <g clip-path="url(#_clip1)">
            <g transform="matrix(1.61121,0,0,1.61121,-121.708,-160.125)">
                <circle cx="209.235" cy="239.566" r="24.712" style="fill:none;stroke:rgb(175,218,252);stroke-width:2.19px;"/>
            </g>
        </g>
        <rect x="41.766" y="58.989" width="185" height="172" style="fill:none;stroke:rgb(25,118,210);stroke-width:5.87px;"/>
    </g>
    <g transform="matrix(0.750991,0,0,0.750991,241.24,38.3562)">
        <rect x="41.766" y="58.989" width="185" height="172" style="fill:none;stroke:rgb(175,218,252);stroke-width:2.66px;"/>
    </g>
    <g transform="matrix(0.85197,0,0,0.85197,220.297,19.446)">
        <g transform="matrix(1.73168,0,0,1.73168,75.4274,81.5047)">
            <path d="M65.047,52L66,52C68.209,52 70,50.209 70,48L70,46C70,39.373 64.627,34 58,34L17,34C13.134,34 10,37.134 10,41L10,48C10,50.209 11.791,52 14,52L14.953,52M48.953,52L31.047,52" style="fill:none;fill-rule:nonzero;stroke:rgb(175,218,252);stroke-width:2.89px;stroke-linecap:round;stroke-miterlimit:4;"/>
        </g>
        <g transform="matrix(1.73168,0,0,1.73168,75.4274,81.5047)">
            <path d="M19.482,45.694C21.705,44.623 24.295,44.623 26.518,45.694C28.741,46.765 30.356,48.79 30.905,51.196C31.454,53.601 30.878,56.126 29.34,58.056C27.801,59.985 25.468,61.109 23,61.109C20.532,61.109 18.199,59.985 16.66,58.056C15.122,56.126 14.545,53.601 15.095,51.196C15.644,48.79 17.258,46.765 19.482,45.694Z" style="fill:none;fill-rule:nonzero;stroke:rgb(175,218,252);stroke-width:2.89px;stroke-linecap:round;stroke-miterlimit:4;"/>
        </g>
        <g transform="matrix(1.73168,0,0,1.73168,75.4274,81.5047)">
            <path d="M53.482,45.694C55.705,44.623 58.295,44.623 60.518,45.694C62.742,46.765 64.356,48.79 64.905,51.196C65.454,53.601 64.878,56.126 63.34,58.056C61.801,59.985 59.468,61.109 57,61.109C54.532,61.109 52.199,59.985 50.66,58.056C49.122,56.126 48.545,53.601 49.094,51.196C49.644,48.79 51.258,46.765 53.482,45.694Z" style="fill:none;fill-rule:nonzero;stroke:rgb(175,218,252);stroke-width:2.89px;stroke-linecap:round;stroke-miterlimit:4;"/>
        </g>
        <g transform="matrix(1.73168,0,0,1.73168,75.4274,81.5047)">
            <path d="M58.5,34C58.716,34 58.847,33.761 58.73,33.579L51.13,21.691C49.66,19.391 47.119,18 44.39,18L28.722,18C25.429,18 22.472,20.018 21.272,23.084L17.182,33.534C17.094,33.758 17.259,34 17.5,34" style="fill:none;fill-rule:nonzero;stroke:rgb(175,218,252);stroke-width:2.89px;stroke-linecap:round;stroke-miterlimit:4;"/>
        </g>
        <g transform="matrix(1.73168,0,0,1.73168,75.4274,81.5047)">
            <path d="M33,34L33,18" style="fill:none;fill-rule:nonzero;stroke:rgb(175,218,252);stroke-width:2.89px;stroke-linecap:round;stroke-miterlimit:4;"/>
        </g>
    </g>
    <g transform="matrix(0.85197,0,0,0.85197,226.612,12.9684)">
        <path d="M60.834,93.306L99.172,93.306" style="fill:none;stroke:rgb(175,218,252);stroke-width:3.52px;"/>
    </g>
    <g transform="matrix(5.21681e-17,0.85197,-0.85197,5.21681e-17,361.982,36.0271)">
        <path d="M60.834,93.306L99.172,93.306" style="fill:none;stroke:rgb(175,218,252);stroke-width:3.52px;"/>
    </g>
    <g transform="matrix(0.85197,0,0,0.85197,229.125,11.5725)">
        <g transform="matrix(1.17375,-0,-0,1.17375,-268.935,-13.5832)">
            <path d="M311.729,194.187L317.385,185.865L320.649,195.384L311.729,194.187Z" style="fill:rgb(175,218,252);"/>
            <path d="M294.772,205.407C294.772,205.407 312.124,207.367 316.428,193.001" style="fill:none;stroke:rgb(175,218,252);stroke-width:3px;"/>
        </g>
    </g>
    <g transform="matrix(2.17987,0,0,2.17987,246.663,-167.46)">
        <g transform="matrix(12,0,0,12,24.5497,96.4205)">
            <path d="M0.705,-0.473C0.685,-0.641 0.558,-0.737 0.389,-0.737C0.197,-0.737 0.05,-0.602 0.05,-0.364C0.05,-0.126 0.195,0.01 0.389,0.01C0.576,0.01 0.688,-0.114 0.705,-0.248L0.549,-0.249C0.535,-0.171 0.474,-0.126 0.392,-0.126C0.281,-0.126 0.206,-0.208 0.206,-0.364C0.206,-0.515 0.28,-0.601 0.393,-0.601C0.477,-0.601 0.538,-0.553 0.549,-0.473L0.705,-0.473Z" style="fill:white;fill-rule:nonzero;"/>
        </g>
        <g transform="matrix(12,0,0,12,33.5753,96.4205)">
            <rect x="0.06" y="-0.727" width="0.151" height="0.727" style="fill:white;fill-rule:nonzero;"/>
        </g>
        <g transform="matrix(12,0,0,12,36.8395,96.4205)">
            <path d="M0.216,0.01C0.297,0.01 0.349,-0.025 0.375,-0.076L0.38,-0.076L0.38,-0L0.523,-0L0.523,-0.368C0.523,-0.498 0.413,-0.553 0.292,-0.553C0.161,-0.553 0.075,-0.49 0.054,-0.391L0.194,-0.379C0.204,-0.415 0.237,-0.442 0.291,-0.442C0.342,-0.442 0.372,-0.416 0.372,-0.371L0.372,-0.369C0.372,-0.334 0.335,-0.33 0.24,-0.32C0.132,-0.31 0.035,-0.274 0.035,-0.152C0.035,-0.044 0.112,0.01 0.216,0.01ZM0.259,-0.094C0.213,-0.094 0.179,-0.116 0.179,-0.157C0.179,-0.2 0.214,-0.221 0.268,-0.228C0.301,-0.233 0.355,-0.241 0.373,-0.253L0.373,-0.195C0.373,-0.138 0.326,-0.094 0.259,-0.094Z" style="fill:white;fill-rule:nonzero;"/>
        </g>
        <g transform="matrix(12,0,0,12,43.8026,96.4205)">
            <path d="M0.514,-0.39C0.501,-0.49 0.42,-0.553 0.282,-0.553C0.142,-0.553 0.05,-0.488 0.051,-0.383C0.05,-0.301 0.102,-0.248 0.208,-0.227L0.303,-0.208C0.35,-0.199 0.372,-0.181 0.373,-0.154C0.372,-0.121 0.337,-0.098 0.284,-0.098C0.23,-0.098 0.194,-0.121 0.185,-0.166L0.036,-0.158C0.05,-0.054 0.139,0.011 0.284,0.011C0.425,0.011 0.526,-0.061 0.527,-0.169C0.526,-0.248 0.475,-0.295 0.369,-0.317L0.27,-0.337C0.219,-0.348 0.201,-0.365 0.201,-0.391C0.201,-0.424 0.238,-0.445 0.284,-0.445C0.337,-0.445 0.368,-0.417 0.376,-0.381L0.514,-0.39Z" style="fill:white;fill-rule:nonzero;"/>
        </g>
        <g transform="matrix(12,0,0,12,50.544,96.4205)">
            <path d="M0.514,-0.39C0.501,-0.49 0.42,-0.553 0.282,-0.553C0.142,-0.553 0.05,-0.488 0.051,-0.383C0.05,-0.301 0.102,-0.248 0.208,-0.227L0.303,-0.208C0.35,-0.199 0.372,-0.181 0.373,-0.154C0.372,-0.121 0.337,-0.098 0.284,-0.098C0.23,-0.098 0.194,-0.121 0.185,-0.166L0.036,-0.158C0.05,-0.054 0.139,0.011 0.284,0.011C0.425,0.011 0.526,-0.061 0.527,-0.169C0.526,-0.248 0.475,-0.295 0.369,-0.317L0.27,-0.337C0.219,-0.348 0.201,-0.365 0.201,-0.391C0.201,-0.424 0.238,-0.445 0.284,-0.445C0.337,-0.445 0.368,-0.417 0.376,-0.381L0.514,-0.39Z" style="fill:white;fill-rule:nonzero;"/>
        </g>
        <g transform="matrix(12,0,0,12,57.2855,96.4205)">
            <path d="M0.309,0.011C0.444,0.011 0.535,-0.055 0.556,-0.156L0.416,-0.165C0.401,-0.124 0.362,-0.102 0.311,-0.102C0.236,-0.102 0.188,-0.152 0.188,-0.234L0.188,-0.234L0.559,-0.234L0.559,-0.276C0.559,-0.461 0.447,-0.553 0.303,-0.553C0.142,-0.553 0.038,-0.439 0.038,-0.27C0.038,-0.097 0.141,0.011 0.309,0.011ZM0.188,-0.328C0.191,-0.39 0.238,-0.44 0.305,-0.44C0.371,-0.44 0.417,-0.393 0.417,-0.328L0.188,-0.328Z" style="fill:white;fill-rule:nonzero;"/>
        </g>
    </g>
    <g transform="matrix(2.17987,0,0,2.17987,495.137,-167.46)">
        <g transform="matrix(12,0,0,12,24.5497,96.4205)">
            <rect x="0.063" y="-0.727" width="0.154" height="0.727" style="fill:white;fill-rule:nonzero;"/>
        </g>
        <g transform="matrix(12,0,0,12,27.9162,96.4205)">
            <path d="M0.212,-0.315C0.212,-0.386 0.254,-0.427 0.315,-0.427C0.376,-0.427 0.412,-0.387 0.412,-0.32L0.412,-0L0.563,-0L0.563,-0.347C0.563,-0.474 0.489,-0.553 0.375,-0.553C0.294,-0.553 0.235,-0.513 0.211,-0.449L0.205,-0.449L0.205,-0.545L0.06,-0.545L0.06,-0L0.212,-0L0.212,-0.315Z" style="fill:white;fill-rule:nonzero;"/>
        </g>
        <g transform="matrix(12,0,0,12,35.3778,96.4205)">
            <path d="M0.514,-0.39C0.501,-0.49 0.42,-0.553 0.282,-0.553C0.142,-0.553 0.05,-0.488 0.051,-0.383C0.05,-0.301 0.102,-0.248 0.208,-0.227L0.303,-0.208C0.35,-0.199 0.372,-0.181 0.373,-0.154C0.372,-0.121 0.337,-0.098 0.284,-0.098C0.23,-0.098 0.194,-0.121 0.185,-0.166L0.036,-0.158C0.05,-0.054 0.139,0.011 0.284,0.011C0.425,0.011 0.526,-0.061 0.527,-0.169C0.526,-0.248 0.475,-0.295 0.369,-0.317L0.27,-0.337C0.219,-0.348 0.201,-0.365 0.201,-0.391C0.201,-0.424 0.238,-0.445 0.284,-0.445C0.337,-0.445 0.368,-0.417 0.376,-0.381L0.514,-0.39Z" style="fill:white;fill-rule:nonzero;"/>
        </g>
        <g transform="matrix(12,0,0,12,42.1193,96.4205)">
            <path d="M0.35,-0.545L0.248,-0.545L0.248,-0.676L0.097,-0.676L0.097,-0.545L0.022,-0.545L0.022,-0.432L0.097,-0.432L0.097,-0.148C0.096,-0.041 0.169,0.012 0.278,0.007C0.317,0.006 0.345,-0.002 0.36,-0.007L0.337,-0.119C0.329,-0.118 0.313,-0.114 0.299,-0.114C0.269,-0.114 0.248,-0.126 0.248,-0.168L0.248,-0.432L0.35,-0.432L0.35,-0.545Z" style="fill:white;fill-rule:nonzero;"/>
        </g>
        <g transform="matrix(12,0,0,12,46.7812,96.4205)">
            <path d="M0.216,0.01C0.297,0.01 0.349,-0.025 0.375,-0.076L0.38,-0.076L0.38,-0L0.523,-0L0.523,-0.368C0.523,-0.498 0.413,-0.553 0.292,-0.553C0.161,-0.553 0.075,-0.49 0.054,-0.391L0.194,-0.379C0.204,-0.415 0.237,-0.442 0.291,-0.442C0.342,-0.442 0.372,-0.416 0.372,-0.371L0.372,-0.369C0.372,-0.334 0.335,-0.33 0.24,-0.32C0.132,-0.31 0.035,-0.274 0.035,-0.152C0.035,-0.044 0.112,0.01 0.216,0.01ZM0.259,-0.094C0.213,-0.094 0.179,-0.116 0.179,-0.157C0.179,-0.2 0.214,-0.221 0.268,-0.228C0.301,-0.233 0.355,-0.241 0.373,-0.253L0.373,-0.195C0.373,-0.138 0.326,-0.094 0.259,-0.094Z" style="fill:white;fill-rule:nonzero;"/>
        </g>
        <g transform="matrix(12,0,0,12,53.7443,96.4205)">
            <path d="M0.212,-0.315C0.212,-0.386 0.254,-0.427 0.315,-0.427C0.376,-0.427 0.412,-0.387 0.412,-0.32L0.412,-0L0.563,-0L0.563,-0.347C0.563,-0.474 0.489,-0.553 0.375,-0.553C0.294,-0.553 0.235,-0.513 0.211,-0.449L0.205,-0.449L0.205,-0.545L0.06,-0.545L0.06,-0L0.212,-0L0.212,-0.315Z" style="fill:white;fill-rule:nonzero;"/>
        </g>
        <g transform="matrix(12,0,0,12,61.206,96.4205)">
            <path d="M0.307,0.011C0.452,0.011 0.543,-0.075 0.55,-0.2L0.408,-0.2C0.399,-0.142 0.36,-0.109 0.309,-0.109C0.238,-0.109 0.192,-0.168 0.192,-0.273C0.192,-0.376 0.238,-0.435 0.309,-0.435C0.364,-0.435 0.399,-0.398 0.408,-0.344L0.55,-0.344C0.544,-0.47 0.449,-0.553 0.306,-0.553C0.141,-0.553 0.038,-0.438 0.038,-0.271C0.038,-0.105 0.139,0.011 0.307,0.011Z" style="fill:white;fill-rule:nonzero;"/>
        </g>
        <g transform="matrix(12,0,0,12,68.2543,96.4205)">
            <path d="M0.309,0.011C0.444,0.011 0.535,-0.055 0.556,-0.156L0.416,-0.165C0.401,-0.124 0.362,-0.102 0.311,-0.102C0.236,-0.102 0.188,-0.152 0.188,-0.234L0.188,-0.234L0.559,-0.234L0.559,-0.276C0.559,-0.461 0.447,-0.553 0.303,-0.553C0.142,-0.553 0.038,-0.439 0.038,-0.27C0.038,-0.097 0.141,0.011 0.309,0.011ZM0.188,-0.328C0.191,-0.39 0.238,-0.44 0.305,-0.44C0.371,-0.44 0.417,-0.393 0.417,-0.328L0.188,-0.328Z" style="fill:white;fill-rule:nonzero;"/>
        </g>
        <g transform="matrix(12,0,0,12,75.4261,96.4205)">
            <path d="M0.514,-0.39C0.501,-0.49 0.42,-0.553 0.282,-0.553C0.142,-0.553 0.05,-0.488 0.051,-0.383C0.05,-0.301 0.102,-0.248 0.208,-0.227L0.303,-0.208C0.35,-0.199 0.372,-0.181 0.373,-0.154C0.372,-0.121 0.337,-0.098 0.284,-0.098C0.23,-0.098 0.194,-0.121 0.185,-0.166L0.036,-0.158C0.05,-0.054 0.139,0.011 0.284,0.011C0.425,0.011 0.526,-0.061 0.527,-0.169C0.526,-0.248 0.475,-0.295 0.369,-0.317L0.27,-0.337C0.219,-0.348 0.201,-0.365 0.201,-0.391C0.201,-0.424 0.238,-0.445 0.284,-0.445C0.337,-0.445 0.368,-0.417 0.376,-0.381L0.514,-0.39Z" style="fill:white;fill-rule:nonzero;"/>
        </g>
    </g>
    <g transform="matrix(1,0,0,1,391.452,-2.75843)">
        <g transform="matrix(1.73168,0,0,1.73168,75.4274,81.5047)">
            <path d="M65.047,52L66,52C68.209,52 70,50.209 70,48L70,46C70,39.373 64.627,34 58,34L17,34C13.134,34 10,37.134 10,41L10,48C10,50.209 11.791,52 14,52L14.953,52M48.953,52L31.047,52" style="fill:rgb(197,197,197);fill-rule:nonzero;stroke:white;stroke-width:1.15px;stroke-linecap:round;stroke-miterlimit:4;"/>
        </g>
        <g transform="matrix(1.73168,0,0,1.73168,75.4274,81.5047)">
            <path d="M19.482,45.694C21.705,44.623 24.295,44.623 26.518,45.694C28.741,46.765 30.356,48.79 30.905,51.196C31.454,53.601 30.878,56.126 29.34,58.056C27.801,59.985 25.468,61.109 23,61.109C20.532,61.109 18.199,59.985 16.66,58.056C15.122,56.126 14.545,53.601 15.095,51.196C15.644,48.79 17.258,46.765 19.482,45.694Z" style="fill:rgb(39,39,39);fill-rule:nonzero;stroke:white;stroke-width:1.15px;stroke-linecap:round;stroke-miterlimit:4;"/>
        </g>
        <g transform="matrix(1.73168,0,0,1.73168,75.4274,81.5047)">
            <path d="M53.482,45.694C55.705,44.623 58.295,44.623 60.518,45.694C62.742,46.765 64.356,48.79 64.905,51.196C65.454,53.601 64.878,56.126 63.34,58.056C61.801,59.985 59.468,61.109 57,61.109C54.532,61.109 52.199,59.985 50.66,58.056C49.122,56.126 48.545,53.601 49.094,51.196C49.644,48.79 51.258,46.765 53.482,45.694Z" style="fill:rgb(39,39,39);fill-rule:nonzero;stroke:white;stroke-width:1.15px;stroke-linecap:round;stroke-miterlimit:4;"/>
        </g>
        <g transform="matrix(1.73168,0,0,1.73168,75.4274,81.5047)">
            <path d="M58.5,34C58.716,34 58.847,33.761 58.73,33.579L51.13,21.691C49.66,19.391 47.119,18 44.39,18L28.722,18C25.429,18 22.472,20.018 21.272,23.084L17.182,33.534C17.094,33.758 17.259,34 17.5,34" style="fill:rgb(113,113,113);fill-rule:nonzero;stroke:white;stroke-width:1.15px;stroke-linecap:round;stroke-miterlimit:4;"/>
        </g>
        <g transform="matrix(1.73168,0,0,1.73168,75.4274,81.5047)">
            <path d="M33,34L33,18" style="fill:none;fill-rule:nonzero;stroke:white;stroke-width:1.15px;stroke-linecap:round;stroke-miterlimit:4;"/>
        </g>
    </g>
    <g transform="matrix(1,0,0,1,540.167,-2.75843)">
        <g transform="matrix(1.96634,0,0,1.73168,73.0807,81.5047)">
            <path d="M65.047,52L66,52C68.209,52 70,50.209 70,48L70,46C70,39.373 64.627,34 58,34L17,34C13.134,34 10,37.134 10,41L10,48C10,50.209 11.791,52 14,52L14.953,52M48.953,52L31.047,52" style="fill:rgb(231,75,53);fill-rule:nonzero;stroke:white;stroke-width:1.15px;stroke-linecap:round;stroke-miterlimit:4;"/>
        </g>
        <g transform="matrix(1.73168,0,0,1.73168,78.4274,81.5047)">
            <path d="M19.482,45.694C21.705,44.623 24.295,44.623 26.518,45.694C28.741,46.765 30.356,48.79 30.905,51.196C31.454,53.601 30.878,56.126 29.34,58.056C27.801,59.985 25.468,61.109 23,61.109C20.532,61.109 18.199,59.985 16.66,58.056C15.122,56.126 14.545,53.601 15.095,51.196C15.644,48.79 17.258,46.765 19.482,45.694Z" style="fill:rgb(39,39,39);fill-rule:nonzero;stroke:white;stroke-width:1.15px;stroke-linecap:round;stroke-miterlimit:4;"/>
        </g>
        <g transform="matrix(1.73168,0,0,1.73168,86.4274,81.5047)">
            <path d="M53.482,45.694C55.705,44.623 58.295,44.623 60.518,45.694C62.742,46.765 64.356,48.79 64.905,51.196C65.454,53.601 64.878,56.126 63.34,58.056C61.801,59.985 59.468,61.109 57,61.109C54.532,61.109 52.199,59.985 50.66,58.056C49.122,56.126 48.545,53.601 49.094,51.196C49.644,48.79 51.258,46.765 53.482,45.694Z" style="fill:rgb(39,39,39);fill-rule:nonzero;stroke:white;stroke-width:1.15px;stroke-linecap:round;stroke-miterlimit:4;"/>
        </g>
        <g transform="matrix(1.73168,0,0,1.3016,75.4274,96.1274)">
            <path d="M58.5,34C58.716,34 58.847,33.761 58.73,33.579L51.13,21.691C49.66,19.391 47.119,18 44.39,18L28.722,18C25.429,18 22.472,20.018 21.272,23.084L17.182,33.534C17.094,33.758 17.259,34 17.5,34" style="fill:rgb(113,113,113);fill-rule:nonzero;stroke:white;stroke-width:1.15px;stroke-linecap:round;stroke-miterlimit:4;"/>
        </g>
        <g transform="matrix(1.73168,0,0,1.3016,75.4274,96.1274)">
            <path d="M33,34L33,18" style="fill:none;fill-rule:nonzero;stroke:white;stroke-width:1.15px;stroke-linecap:round;stroke-miterlimit:4;"/>
        </g>
    </g>
    <g transform="matrix(1.60089,0,0,1.60089,257.487,96.525)">
        <g transform="matrix(9.99445,0,0,9.99445,31.3841,96.4205)">
            <path d="M0.047,-0L0.244,-0L0.244,-0.216L0.354,-0.216C0.52,-0.216 0.631,-0.314 0.631,-0.47C0.631,-0.625 0.522,-0.727 0.361,-0.727L0.047,-0.727L0.047,-0ZM0.244,-0.369L0.244,-0.57L0.314,-0.57C0.383,-0.57 0.425,-0.533 0.425,-0.47C0.425,-0.408 0.383,-0.369 0.314,-0.369L0.244,-0.369Z" style="fill:rgb(172,172,172);fill-rule:nonzero;"/>
        </g>
        <g transform="matrix(9.99445,0,0,9.99445,37.9429,96.4205)">
            <path d="M0.047,-0L0.538,-0L0.538,-0.159L0.244,-0.159L0.244,-0.727L0.047,-0.727L0.047,-0Z" style="fill:rgb(172,172,172);fill-rule:nonzero;"/>
        </g>
        <g transform="matrix(9.99445,0,0,9.99445,43.65,96.4205)">
            <path d="M0.236,-0L0.278,-0.139L0.518,-0.139L0.56,-0L0.773,-0L0.533,-0.727L0.263,-0.727L0.023,-0L0.236,-0ZM0.322,-0.287L0.395,-0.527L0.401,-0.527L0.473,-0.287L0.322,-0.287Z" style="fill:rgb(172,172,172);fill-rule:nonzero;"/>
        </g>
        <g transform="matrix(9.99445,0,0,9.99445,51.6001,96.4205)">
            <path d="M0.676,-0.727L0.479,-0.727L0.479,-0.347L0.473,-0.347L0.214,-0.727L0.047,-0.727L0.047,-0L0.244,-0L0.244,-0.382L0.249,-0.382L0.511,-0L0.676,-0L0.676,-0.727Z" style="fill:rgb(172,172,172);fill-rule:nonzero;"/>
        </g>
        <g transform="matrix(9.99445,0,0,9.99445,60.8138,96.4205)">
            <path d="M0.327,-0C0.548,-0 0.689,-0.136 0.689,-0.364C0.689,-0.591 0.548,-0.727 0.324,-0.727L0.047,-0.727L0.047,-0L0.327,-0ZM0.244,-0.168L0.244,-0.56L0.314,-0.56C0.428,-0.56 0.49,-0.516 0.49,-0.364C0.49,-0.212 0.428,-0.168 0.32,-0.168L0.244,-0.168Z" style="fill:rgb(172,172,172);fill-rule:nonzero;"/>
        </g>
        <g transform="matrix(9.99445,0,0,9.99445,68.1392,96.4205)">
            <path d="M0.047,-0L0.57,-0L0.57,-0.159L0.244,-0.159L0.244,-0.284L0.544,-0.284L0.544,-0.443L0.244,-0.443L0.244,-0.568L0.571,-0.568L0.571,-0.727L0.047,-0.727L0.047,-0Z" style="fill:rgb(172,172,172);fill-rule:nonzero;"/>
        </g>
        <g transform="matrix(9.99445,0,0,9.99445,11.4307,106.415)">
            <path d="M0.726,-0.455C0.71,-0.635 0.578,-0.737 0.395,-0.737C0.199,-0.737 0.044,-0.607 0.044,-0.364C0.044,-0.122 0.195,0.01 0.395,0.01C0.608,0.01 0.716,-0.138 0.726,-0.261L0.526,-0.263C0.516,-0.201 0.472,-0.162 0.399,-0.162C0.303,-0.162 0.247,-0.23 0.247,-0.364C0.247,-0.49 0.301,-0.565 0.401,-0.565C0.477,-0.565 0.52,-0.521 0.526,-0.455L0.726,-0.455Z" style="fill:rgb(172,172,172);fill-rule:nonzero;"/>
        </g>
        <g transform="matrix(9.99445,0,0,9.99445,19.1111,106.415)">
            <path d="M0.751,-0.364C0.751,-0.607 0.595,-0.737 0.398,-0.737C0.199,-0.737 0.044,-0.607 0.044,-0.364C0.044,-0.122 0.199,0.01 0.398,0.01C0.595,0.01 0.751,-0.121 0.751,-0.364ZM0.548,-0.364C0.548,-0.233 0.496,-0.162 0.398,-0.162C0.3,-0.162 0.247,-0.233 0.247,-0.364C0.247,-0.494 0.3,-0.565 0.398,-0.565C0.496,-0.565 0.548,-0.494 0.548,-0.364Z" style="fill:rgb(172,172,172);fill-rule:nonzero;"/>
        </g>
        <g transform="matrix(9.99445,0,0,9.99445,27.0612,106.415)">
            <path d="M0.676,-0.727L0.479,-0.727L0.479,-0.347L0.473,-0.347L0.214,-0.727L0.047,-0.727L0.047,-0L0.244,-0L0.244,-0.382L0.249,-0.382L0.511,-0L0.676,-0L0.676,-0.727Z" style="fill:rgb(172,172,172);fill-rule:nonzero;"/>
        </g>
        <g transform="matrix(9.99445,0,0,9.99445,34.2873,106.415)">
            <path d="M0.439,-0.5L0.628,-0.5C0.627,-0.643 0.517,-0.737 0.341,-0.737C0.168,-0.737 0.046,-0.644 0.047,-0.506C0.047,-0.392 0.125,-0.329 0.254,-0.301L0.327,-0.286C0.408,-0.268 0.435,-0.248 0.436,-0.214C0.435,-0.179 0.403,-0.153 0.339,-0.153C0.264,-0.153 0.219,-0.189 0.216,-0.256L0.028,-0.256C0.029,-0.073 0.153,0.009 0.342,0.009C0.527,0.009 0.637,-0.071 0.638,-0.214C0.637,-0.325 0.571,-0.403 0.411,-0.437L0.351,-0.45C0.282,-0.465 0.251,-0.485 0.253,-0.52C0.253,-0.552 0.28,-0.575 0.341,-0.575C0.405,-0.575 0.435,-0.547 0.439,-0.5Z" style="fill:rgb(172,172,172);fill-rule:nonzero;"/>
        </g>
        <g transform="matrix(9.99445,0,0,9.99445,40.9455,106.415)">
            <path d="M0.027,-0.568L0.246,-0.568L0.246,-0L0.44,-0L0.44,-0.568L0.659,-0.568L0.659,-0.727L0.027,-0.727L0.027,-0.568Z" style="fill:rgb(172,172,172);fill-rule:nonzero;"/>
        </g>
        <g transform="matrix(9.99445,0,0,9.99445,47.8025,106.415)">
            <path d="M0.047,-0L0.244,-0L0.244,-0.24L0.312,-0.24L0.44,-0L0.655,-0L0.507,-0.271C0.585,-0.309 0.631,-0.379 0.631,-0.48C0.631,-0.635 0.522,-0.727 0.361,-0.727L0.047,-0.727L0.047,-0ZM0.244,-0.393L0.244,-0.57L0.314,-0.57C0.383,-0.57 0.425,-0.543 0.425,-0.48C0.425,-0.418 0.383,-0.393 0.314,-0.393L0.244,-0.393Z" style="fill:rgb(172,172,172);fill-rule:nonzero;"/>
        </g>
        <g transform="matrix(9.99445,0,0,9.99445,54.475,106.415)">
            <path d="M0.477,-0.727L0.477,-0.278C0.477,-0.211 0.429,-0.162 0.361,-0.162C0.293,-0.162 0.244,-0.211 0.244,-0.278L0.244,-0.727L0.047,-0.727L0.047,-0.261C0.047,-0.095 0.173,0.009 0.361,0.009C0.548,0.009 0.675,-0.095 0.675,-0.261L0.675,-0.727L0.477,-0.727Z" style="fill:rgb(172,172,172);fill-rule:nonzero;"/>
        </g>
        <g transform="matrix(9.99445,0,0,9.99445,61.6869,106.415)">
            <path d="M0.726,-0.455C0.71,-0.635 0.578,-0.737 0.395,-0.737C0.199,-0.737 0.044,-0.607 0.044,-0.364C0.044,-0.122 0.195,0.01 0.395,0.01C0.608,0.01 0.716,-0.138 0.726,-0.261L0.526,-0.263C0.516,-0.201 0.472,-0.162 0.399,-0.162C0.303,-0.162 0.247,-0.23 0.247,-0.364C0.247,-0.49 0.301,-0.565 0.401,-0.565C0.477,-0.565 0.52,-0.521 0.526,-0.455L0.726,-0.455Z" style="fill:rgb(172,172,172);fill-rule:nonzero;"/>
        </g>
        <g transform="matrix(9.99445,0,0,9.99445,69.3673,106.415)">
            <path d="M0.027,-0.568L0.246,-0.568L0.246,-0L0.44,-0L0.44,-0.568L0.659,-0.568L0.659,-0.727L0.027,-0.727L0.027,-0.568Z" style="fill:rgb(172,172,172);fill-rule:nonzero;"/>
        </g>
        <g transform="matrix(9.99445,0,0,9.99445,76.2243,106.415)">
            <rect x="0.047" y="-0.727" width="0.197" height="0.727" style="fill:rgb(172,172,172);fill-rule:nonzero;"/>
        </g>
        <g transform="matrix(9.99445,0,0,9.99445,79.1346,106.415)">
            <path d="M0.751,-0.364C0.751,-0.607 0.595,-0.737 0.398,-0.737C0.199,-0.737 0.044,-0.607 0.044,-0.364C0.044,-0.122 0.199,0.01 0.398,0.01C0.595,0.01 0.751,-0.121 0.751,-0.364ZM0.548,-0.364C0.548,-0.233 0.496,-0.162 0.398,-0.162C0.3,-0.162 0.247,-0.233 0.247,-0.364C0.247,-0.494 0.3,-0.565 0.398,-0.565C0.496,-0.565 0.548,-0.494 0.548,-0.364Z" style="fill:rgb(172,172,172);fill-rule:nonzero;"/>
        </g>
        <g transform="matrix(9.99445,0,0,9.99445,87.0847,106.415)">
            <path d="M0.676,-0.727L0.479,-0.727L0.479,-0.347L0.473,-0.347L0.214,-0.727L0.047,-0.727L0.047,-0L0.244,-0L0.244,-0.382L0.249,-0.382L0.511,-0L0.676,-0L0.676,-0.727Z" style="fill:rgb(172,172,172);fill-rule:nonzero;"/>
        </g>
    </g>
    <g transform="matrix(1.60089,0,0,1.60089,454.451,58.6955)">
        <g transform="matrix(9.99445,0,0,9.99445,27.984,96.4205)">
            <path d="M0.047,-0.727L0.047,-0L0.24,-0L0.24,-0.423L0.246,-0.423L0.408,-0.006L0.524,-0.006L0.686,-0.42L0.692,-0.42L0.692,-0L0.885,-0L0.885,-0.727L0.639,-0.727L0.47,-0.315L0.462,-0.315L0.293,-0.727L0.047,-0.727Z" style="fill:rgb(172,172,172);fill-rule:nonzero;"/>
        </g>
        <g transform="matrix(9.99445,0,0,9.99445,37.297,96.4205)">
            <path d="M0.751,-0.364C0.751,-0.607 0.595,-0.737 0.398,-0.737C0.199,-0.737 0.044,-0.607 0.044,-0.364C0.044,-0.122 0.199,0.01 0.398,0.01C0.595,0.01 0.751,-0.121 0.751,-0.364ZM0.548,-0.364C0.548,-0.233 0.496,-0.162 0.398,-0.162C0.3,-0.162 0.247,-0.233 0.247,-0.364C0.247,-0.494 0.3,-0.565 0.398,-0.565C0.496,-0.565 0.548,-0.494 0.548,-0.364Z" style="fill:rgb(172,172,172);fill-rule:nonzero;"/>
        </g>
        <g transform="matrix(9.99445,0,0,9.99445,45.2471,96.4205)">
            <path d="M0.327,-0C0.548,-0 0.689,-0.136 0.689,-0.364C0.689,-0.591 0.548,-0.727 0.324,-0.727L0.047,-0.727L0.047,-0L0.327,-0ZM0.244,-0.168L0.244,-0.56L0.314,-0.56C0.428,-0.56 0.49,-0.516 0.49,-0.364C0.49,-0.212 0.428,-0.168 0.32,-0.168L0.244,-0.168Z" style="fill:rgb(172,172,172);fill-rule:nonzero;"/>
        </g>
        <g transform="matrix(9.99445,0,0,9.99445,52.5726,96.4205)">
            <path d="M0.047,-0L0.57,-0L0.57,-0.159L0.244,-0.159L0.244,-0.284L0.544,-0.284L0.544,-0.443L0.244,-0.443L0.244,-0.568L0.571,-0.568L0.571,-0.727L0.047,-0.727L0.047,-0ZM0.247,-0.795L0.376,-0.795L0.308,-0.955L0.141,-0.955L0.247,-0.795Z" style="fill:rgb(172,172,172);fill-rule:nonzero;"/>
        </g>
        <g transform="matrix(9.99445,0,0,9.99445,58.7907,96.4205)">
            <path d="M0.047,-0L0.538,-0L0.538,-0.159L0.244,-0.159L0.244,-0.727L0.047,-0.727L0.047,-0Z" style="fill:rgb(172,172,172);fill-rule:nonzero;"/>
        </g>
        <g transform="matrix(9.99445,0,0,9.99445,64.4978,96.4205)">
            <path d="M0.047,-0L0.57,-0L0.57,-0.159L0.244,-0.159L0.244,-0.284L0.544,-0.284L0.544,-0.443L0.244,-0.443L0.244,-0.568L0.571,-0.568L0.571,-0.727L0.047,-0.727L0.047,-0Z" style="fill:rgb(172,172,172);fill-rule:nonzero;"/>
        </g>
        <g transform="matrix(9.99445,0,0,9.99445,72.7035,96.4205)">
            <path d="M0.405,-0.727L0.223,-0.727L0.044,-0.618L0.044,-0.45L0.203,-0.545L0.207,-0.545L0.207,-0L0.405,-0L0.405,-0.727Z" style="fill:rgb(172,172,172);fill-rule:nonzero;"/>
        </g>
    </g>
    <g transform="matrix(1.60089,0,0,1.60089,605.255,58.6955)">
        <g transform="matrix(9.99445,0,0,9.99445,27.2812,96.4205)">
            <path d="M0.047,-0.727L0.047,-0L0.24,-0L0.24,-0.423L0.246,-0.423L0.408,-0.006L0.524,-0.006L0.686,-0.42L0.692,-0.42L0.692,-0L0.885,-0L0.885,-0.727L0.639,-0.727L0.47,-0.315L0.462,-0.315L0.293,-0.727L0.047,-0.727Z" style="fill:rgb(172,172,172);fill-rule:nonzero;"/>
        </g>
        <g transform="matrix(9.99445,0,0,9.99445,36.5943,96.4205)">
            <path d="M0.751,-0.364C0.751,-0.607 0.595,-0.737 0.398,-0.737C0.199,-0.737 0.044,-0.607 0.044,-0.364C0.044,-0.122 0.199,0.01 0.398,0.01C0.595,0.01 0.751,-0.121 0.751,-0.364ZM0.548,-0.364C0.548,-0.233 0.496,-0.162 0.398,-0.162C0.3,-0.162 0.247,-0.233 0.247,-0.364C0.247,-0.494 0.3,-0.565 0.398,-0.565C0.496,-0.565 0.548,-0.494 0.548,-0.364Z" style="fill:rgb(172,172,172);fill-rule:nonzero;"/>
        </g>
        <g transform="matrix(9.99445,0,0,9.99445,44.5444,96.4205)">
            <path d="M0.327,-0C0.548,-0 0.689,-0.136 0.689,-0.364C0.689,-0.591 0.548,-0.727 0.324,-0.727L0.047,-0.727L0.047,-0L0.327,-0ZM0.244,-0.168L0.244,-0.56L0.314,-0.56C0.428,-0.56 0.49,-0.516 0.49,-0.364C0.49,-0.212 0.428,-0.168 0.32,-0.168L0.244,-0.168Z" style="fill:rgb(172,172,172);fill-rule:nonzero;"/>
        </g>
        <g transform="matrix(9.99445,0,0,9.99445,51.8699,96.4205)">
            <path d="M0.047,-0L0.57,-0L0.57,-0.159L0.244,-0.159L0.244,-0.284L0.544,-0.284L0.544,-0.443L0.244,-0.443L0.244,-0.568L0.571,-0.568L0.571,-0.727L0.047,-0.727L0.047,-0ZM0.247,-0.795L0.376,-0.795L0.308,-0.955L0.141,-0.955L0.247,-0.795Z" style="fill:rgb(172,172,172);fill-rule:nonzero;"/>
        </g>
        <g transform="matrix(9.99445,0,0,9.99445,58.088,96.4205)">
            <path d="M0.047,-0L0.538,-0L0.538,-0.159L0.244,-0.159L0.244,-0.727L0.047,-0.727L0.047,-0Z" style="fill:rgb(172,172,172);fill-rule:nonzero;"/>
        </g>
        <g transform="matrix(9.99445,0,0,9.99445,63.7951,96.4205)">
            <path d="M0.047,-0L0.57,-0L0.57,-0.159L0.244,-0.159L0.244,-0.284L0.544,-0.284L0.544,-0.443L0.244,-0.443L0.244,-0.568L0.571,-0.568L0.571,-0.727L0.047,-0.727L0.047,-0Z" style="fill:rgb(172,172,172);fill-rule:nonzero;"/>
        </g>
        <g transform="matrix(9.99445,0,0,9.99445,72.0007,96.4205)">
            <path d="M0.048,-0L0.607,-0L0.607,-0.158L0.322,-0.158L0.322,-0.162L0.391,-0.219C0.556,-0.357 0.599,-0.429 0.599,-0.513C0.599,-0.648 0.488,-0.737 0.313,-0.737C0.144,-0.737 0.034,-0.643 0.034,-0.49L0.222,-0.49C0.221,-0.551 0.259,-0.585 0.313,-0.585C0.368,-0.585 0.406,-0.551 0.406,-0.496C0.406,-0.444 0.373,-0.411 0.32,-0.366L0.048,-0.142L0.048,-0Z" style="fill:rgb(172,172,172);fill-rule:nonzero;"/>
        </g>
    </g>
</svg>
