<?xml version="1.0" encoding="UTF-8" standalone="no"?>
<!DOCTYPE svg PUBLIC "-//W3C//DTD SVG 1.1//EN" "http://www.w3.org/Graphics/SVG/1.1/DTD/svg11.dtd">
<svg width="100%" height="100%" viewBox="0 0 1000 300" version="1.1" xmlns="http://www.w3.org/2000/svg" xmlns:xlink="http://www.w3.org/1999/xlink" xml:space="preserve" xmlns:serif="http://www.serif.com/" style="fill-rule:evenodd;clip-rule:evenodd;stroke-linejoin:round;stroke-miterlimit:2;">
    <g transform="matrix(1.36719,0,0,0.585938,150,0)">
        <rect x="0" y="0" width="512" height="512" style="fill:rgb(59,59,59);"/>
    </g>
    <g transform="matrix(0.136632,0,0,0.273557,486.236,183.407)">
        <path d="M462.936,109.063C462.936,98.975 446.539,90.785 426.342,90.785L161.09,90.785C140.893,90.785 124.495,98.975 124.495,109.063L124.495,185.321C124.495,195.408 140.893,203.598 161.09,203.598L426.342,203.598C446.539,203.598 462.936,195.408 462.936,185.321L462.936,109.063Z" style="fill:rgb(0,151,27);"/>
    </g>
    <g transform="matrix(0.316204,0,0,0.273557,586.149,228.893)">
        <path d="M462.936,109.063C462.936,98.975 455.851,90.785 447.124,90.785L140.308,90.785C131.581,90.785 124.495,98.975 124.495,109.063L124.495,185.321C124.495,195.408 131.581,203.598 140.308,203.598L447.124,203.598C455.851,203.598 462.936,195.408 462.936,185.321L462.936,109.063Z" style="fill:rgb(0,151,27);"/>
    </g>
    <g transform="matrix(0.098102,0,0,0.273557,428.077,183.407)">
        <path d="M462.936,109.063C462.936,98.975 440.098,90.785 411.969,90.785L175.463,90.785C147.333,90.785 124.495,98.975 124.495,109.063L124.495,185.321C124.495,195.408 147.333,203.598 175.463,203.598L411.969,203.598C440.098,203.598 462.936,195.408 462.936,185.321L462.936,109.063Z" style="fill:rgb(202,0,197);"/>
    </g>
    <g transform="matrix(0.285481,0,0,0.273557,464.459,229.407)">
        <path d="M462.936,109.063C462.936,98.975 455.088,90.785 445.422,90.785L142.01,90.785C132.343,90.785 124.495,98.975 124.495,109.063L124.495,185.321C124.495,195.408 132.343,203.598 142.01,203.598L445.422,203.598C455.088,203.598 462.936,195.408 462.936,185.321L462.936,109.063Z" style="fill:rgb(202,0,197);"/>
    </g>
    <g transform="matrix(0.125073,0,0,0.273557,351.675,183.407)">
        <path d="M462.936,109.063C462.936,98.975 445.023,90.785 422.96,90.785L164.472,90.785C142.408,90.785 124.495,98.975 124.495,109.063L124.495,185.321C124.495,195.408 142.408,203.598 164.472,203.598L422.96,203.598C445.023,203.598 462.936,195.408 462.936,185.321L462.936,109.063Z" style="fill:rgb(0,120,196);"/>
    </g>
    <g transform="matrix(0.312452,0,0,0.273557,326.666,229.407)">
        <path d="M462.936,109.063C462.936,98.975 455.766,90.785 446.934,90.785L140.498,90.785C131.666,90.785 124.495,98.975 124.495,109.063L124.495,185.321C124.495,195.408 131.666,203.598 140.498,203.598L446.934,203.598C455.766,203.598 462.936,195.408 462.936,185.321L462.936,109.063Z" style="fill:rgb(0,120,196);"/>
    </g>
    <g transform="matrix(2.17987,0,0,2.17987,127.665,22.2742)">
        <g transform="matrix(12,0,0,12,24.5497,96.4205)">
            <path d="M0.41,-0L0.41,-0.351C0.41,-0.386 0.399,-0.404 0.378,-0.404C0.355,-0.404 0.343,-0.385 0.343,-0.346L0.343,-0L0.245,-0L0.245,-0.36C0.245,-0.39 0.235,-0.404 0.214,-0.404C0.189,-0.404 0.177,-0.385 0.177,-0.346L0.177,-0L0.046,-0L0.046,-0.518L0.165,-0.518L0.172,-0.453L0.184,-0.453C0.191,-0.503 0.217,-0.527 0.262,-0.527C0.305,-0.527 0.331,-0.503 0.34,-0.453L0.352,-0.453C0.355,-0.476 0.364,-0.494 0.379,-0.508C0.394,-0.521 0.414,-0.527 0.439,-0.527C0.474,-0.527 0.499,-0.518 0.515,-0.499C0.531,-0.479 0.54,-0.448 0.54,-0.405L0.54,-0L0.41,-0Z" style="fill:rgb(255,192,0);fill-rule:nonzero;"/>
        </g>
        <g transform="matrix(12,0,0,12,31.581,96.4205)">
            <path d="M0.388,0.005L0.38,-0.109L0.368,-0.109C0.363,-0.07 0.347,-0.04 0.321,-0.02C0.294,-0 0.258,0.01 0.213,0.01C0.158,0.01 0.115,-0.004 0.084,-0.031C0.054,-0.058 0.039,-0.096 0.039,-0.146C0.039,-0.204 0.059,-0.248 0.099,-0.279C0.139,-0.31 0.195,-0.326 0.269,-0.326C0.291,-0.326 0.31,-0.325 0.326,-0.323C0.343,-0.322 0.359,-0.319 0.375,-0.315L0.375,-0.317C0.375,-0.345 0.363,-0.365 0.34,-0.378C0.316,-0.391 0.281,-0.398 0.234,-0.399L0.102,-0.402L0.112,-0.522L0.225,-0.521C0.318,-0.52 0.388,-0.501 0.434,-0.466C0.479,-0.43 0.502,-0.378 0.502,-0.31L0.502,-0.118L0.574,-0.107L0.574,-0L0.388,0.005ZM0.375,-0.207C0.356,-0.21 0.339,-0.213 0.324,-0.213C0.308,-0.214 0.292,-0.214 0.275,-0.214C0.207,-0.214 0.173,-0.195 0.173,-0.156C0.173,-0.12 0.197,-0.102 0.246,-0.102C0.274,-0.102 0.297,-0.107 0.316,-0.117C0.335,-0.127 0.35,-0.14 0.359,-0.156C0.369,-0.173 0.374,-0.189 0.375,-0.207Z" style="fill:rgb(255,192,0);fill-rule:nonzero;"/>
        </g>
        <g transform="matrix(12,0,0,12,38.6122,96.4205)">
            <rect x="0.049" y="-0" width="0.488" height="0.118" style="fill:rgb(255,192,0);fill-rule:nonzero;"/>
        </g>
        <g transform="matrix(12,0,0,12,45.6435,96.4205)">
            <path d="M0.182,-0L0.182,-0.301L0.025,-0.301L0.025,-0.415L0.182,-0.415L0.182,-0.474C0.182,-0.653 0.269,-0.742 0.441,-0.742C0.481,-0.742 0.52,-0.739 0.557,-0.732L0.544,-0.61C0.523,-0.612 0.503,-0.614 0.487,-0.615C0.47,-0.616 0.454,-0.617 0.438,-0.617C0.355,-0.617 0.314,-0.571 0.314,-0.479L0.314,-0.415L0.52,-0.415L0.52,-0.301L0.314,-0.301L0.314,-0L0.182,-0Z" style="fill:rgb(255,192,0);fill-rule:nonzero;"/>
        </g>
        <g transform="matrix(12,0,0,12,52.6747,96.4205)">
            <path d="M0.293,0.01C0.218,0.01 0.161,-0.014 0.12,-0.061C0.079,-0.107 0.058,-0.174 0.058,-0.259C0.058,-0.344 0.079,-0.411 0.12,-0.457C0.161,-0.504 0.218,-0.527 0.293,-0.527C0.368,-0.527 0.425,-0.504 0.466,-0.457C0.507,-0.411 0.528,-0.344 0.528,-0.259C0.528,-0.174 0.507,-0.107 0.466,-0.061C0.425,-0.014 0.368,0.01 0.293,0.01ZM0.293,-0.116C0.323,-0.116 0.347,-0.128 0.363,-0.153C0.379,-0.178 0.388,-0.213 0.388,-0.259C0.388,-0.305 0.379,-0.34 0.363,-0.365C0.347,-0.389 0.323,-0.402 0.293,-0.402C0.263,-0.402 0.24,-0.389 0.223,-0.365C0.207,-0.34 0.198,-0.305 0.198,-0.259C0.198,-0.213 0.207,-0.178 0.223,-0.153C0.24,-0.128 0.263,-0.116 0.293,-0.116Z" style="fill:rgb(255,192,0);fill-rule:nonzero;"/>
        </g>
        <g transform="matrix(12,0,0,12,59.706,96.4205)">
            <path d="M0.38,-0L0.38,-0.304C0.38,-0.335 0.373,-0.36 0.361,-0.376C0.348,-0.393 0.329,-0.402 0.306,-0.402C0.239,-0.402 0.206,-0.354 0.206,-0.258L0.206,-0L0.074,-0L0.074,-0.518L0.192,-0.518L0.204,-0.424L0.219,-0.424C0.224,-0.459 0.236,-0.485 0.254,-0.502C0.273,-0.519 0.302,-0.527 0.34,-0.527C0.395,-0.527 0.437,-0.511 0.467,-0.478C0.497,-0.444 0.512,-0.397 0.512,-0.337L0.512,-0L0.38,-0Z" style="fill:rgb(255,192,0);fill-rule:nonzero;"/>
        </g>
        <g transform="matrix(12,0,0,12,66.7372,96.4205)">
            <path d="M0.354,0.01C0.259,0.01 0.187,-0.013 0.135,-0.06C0.084,-0.106 0.058,-0.173 0.058,-0.26C0.058,-0.344 0.082,-0.41 0.128,-0.457C0.175,-0.504 0.242,-0.527 0.329,-0.527C0.382,-0.527 0.428,-0.517 0.467,-0.496C0.505,-0.475 0.532,-0.446 0.548,-0.408L0.452,-0.332C0.422,-0.378 0.38,-0.402 0.325,-0.402C0.285,-0.402 0.254,-0.39 0.232,-0.366C0.209,-0.342 0.198,-0.309 0.198,-0.265C0.198,-0.216 0.213,-0.179 0.242,-0.154C0.271,-0.128 0.312,-0.116 0.365,-0.116C0.389,-0.116 0.412,-0.117 0.435,-0.119C0.459,-0.121 0.481,-0.125 0.503,-0.128L0.517,-0.005C0.491,0.001 0.464,0.005 0.436,0.007C0.408,0.009 0.38,0.01 0.354,0.01Z" style="fill:rgb(255,192,0);fill-rule:nonzero;"/>
        </g>
        <g transform="matrix(12,0,0,12,73.7685,96.4205)">
            <path d="M0.403,0.01C0.314,0.01 0.249,-0.008 0.209,-0.044C0.17,-0.08 0.15,-0.137 0.15,-0.216L0.15,-0.396L0.026,-0.396L0.026,-0.518L0.15,-0.518L0.15,-0.674L0.282,-0.674L0.282,-0.518L0.511,-0.518L0.511,-0.396L0.282,-0.396L0.282,-0.229C0.282,-0.189 0.292,-0.16 0.312,-0.143C0.333,-0.125 0.366,-0.116 0.413,-0.116C0.428,-0.116 0.444,-0.117 0.461,-0.118C0.478,-0.12 0.497,-0.123 0.519,-0.125L0.531,-0.002C0.509,0.002 0.488,0.005 0.468,0.007C0.448,0.009 0.426,0.01 0.403,0.01Z" style="fill:rgb(255,192,0);fill-rule:nonzero;"/>
        </g>
        <g transform="matrix(12,0,0,12,80.7997,96.4205)">
            <path d="M0.07,-0L0.07,-0.122L0.261,-0.122L0.261,-0.396L0.099,-0.396L0.099,-0.518L0.393,-0.518L0.393,-0.122L0.546,-0.122L0.546,-0L0.07,-0ZM0.321,-0.587C0.296,-0.587 0.276,-0.595 0.26,-0.611C0.245,-0.626 0.237,-0.647 0.237,-0.672C0.237,-0.697 0.245,-0.717 0.26,-0.733C0.276,-0.749 0.296,-0.756 0.321,-0.756C0.346,-0.756 0.367,-0.749 0.382,-0.733C0.398,-0.717 0.406,-0.697 0.406,-0.672C0.406,-0.647 0.398,-0.626 0.382,-0.611C0.367,-0.595 0.346,-0.587 0.321,-0.587Z" style="fill:rgb(255,192,0);fill-rule:nonzero;"/>
        </g>
        <g transform="matrix(12,0,0,12,87.831,96.4205)">
            <path d="M0.293,0.01C0.218,0.01 0.161,-0.014 0.12,-0.061C0.079,-0.107 0.058,-0.174 0.058,-0.259C0.058,-0.344 0.079,-0.411 0.12,-0.457C0.161,-0.504 0.218,-0.527 0.293,-0.527C0.368,-0.527 0.425,-0.504 0.466,-0.457C0.507,-0.411 0.528,-0.344 0.528,-0.259C0.528,-0.174 0.507,-0.107 0.466,-0.061C0.425,-0.014 0.368,0.01 0.293,0.01ZM0.293,-0.116C0.323,-0.116 0.347,-0.128 0.363,-0.153C0.379,-0.178 0.388,-0.213 0.388,-0.259C0.388,-0.305 0.379,-0.34 0.363,-0.365C0.347,-0.389 0.323,-0.402 0.293,-0.402C0.263,-0.402 0.24,-0.389 0.223,-0.365C0.207,-0.34 0.198,-0.305 0.198,-0.259C0.198,-0.213 0.207,-0.178 0.223,-0.153C0.24,-0.128 0.263,-0.116 0.293,-0.116Z" style="fill:rgb(255,192,0);fill-rule:nonzero;"/>
        </g>
        <g transform="matrix(12,0,0,12,94.8622,96.4205)">
            <path d="M0.38,-0L0.38,-0.304C0.38,-0.335 0.373,-0.36 0.361,-0.376C0.348,-0.393 0.329,-0.402 0.306,-0.402C0.239,-0.402 0.206,-0.354 0.206,-0.258L0.206,-0L0.074,-0L0.074,-0.518L0.192,-0.518L0.204,-0.424L0.219,-0.424C0.224,-0.459 0.236,-0.485 0.254,-0.502C0.273,-0.519 0.302,-0.527 0.34,-0.527C0.395,-0.527 0.437,-0.511 0.467,-0.478C0.497,-0.444 0.512,-0.397 0.512,-0.337L0.512,-0L0.38,-0Z" style="fill:rgb(255,192,0);fill-rule:nonzero;"/>
        </g>
        <g transform="matrix(12,0,0,12,101.893,96.4205)">
            <path d="M0.474,0.098C0.362,0.098 0.275,0.059 0.214,-0.019C0.152,-0.097 0.122,-0.207 0.122,-0.35C0.122,-0.49 0.152,-0.599 0.214,-0.676C0.275,-0.753 0.362,-0.791 0.474,-0.791L0.495,-0.791L0.495,-0.668L0.474,-0.668C0.404,-0.668 0.351,-0.641 0.313,-0.585C0.276,-0.529 0.257,-0.451 0.257,-0.35C0.257,-0.247 0.276,-0.167 0.313,-0.11C0.351,-0.053 0.404,-0.025 0.474,-0.025L0.495,-0.025L0.495,0.098L0.474,0.098Z" style="fill:white;fill-rule:nonzero;"/>
        </g>
        <g transform="matrix(12,0,0,12,108.925,96.4205)">
            <path d="M0.12,-0.381L0.102,-0.693L0.256,-0.693L0.238,-0.381L0.12,-0.381ZM0.35,-0.381L0.332,-0.693L0.486,-0.693L0.468,-0.381L0.35,-0.381Z" style="fill:white;fill-rule:nonzero;"/>
        </g>
        <g transform="matrix(12,0,0,12,115.956,96.4205)">
            <path d="M0.388,0.005L0.38,-0.109L0.368,-0.109C0.363,-0.07 0.347,-0.04 0.321,-0.02C0.294,-0 0.258,0.01 0.213,0.01C0.158,0.01 0.115,-0.004 0.084,-0.031C0.054,-0.058 0.039,-0.096 0.039,-0.146C0.039,-0.204 0.059,-0.248 0.099,-0.279C0.139,-0.31 0.195,-0.326 0.269,-0.326C0.291,-0.326 0.31,-0.325 0.326,-0.323C0.343,-0.322 0.359,-0.319 0.375,-0.315L0.375,-0.317C0.375,-0.345 0.363,-0.365 0.34,-0.378C0.316,-0.391 0.281,-0.398 0.234,-0.399L0.102,-0.402L0.112,-0.522L0.225,-0.521C0.318,-0.52 0.388,-0.501 0.434,-0.466C0.479,-0.43 0.502,-0.378 0.502,-0.31L0.502,-0.118L0.574,-0.107L0.574,-0L0.388,0.005ZM0.375,-0.207C0.356,-0.21 0.339,-0.213 0.324,-0.213C0.308,-0.214 0.292,-0.214 0.275,-0.214C0.207,-0.214 0.173,-0.195 0.173,-0.156C0.173,-0.12 0.197,-0.102 0.246,-0.102C0.274,-0.102 0.297,-0.107 0.316,-0.117C0.335,-0.127 0.35,-0.14 0.359,-0.156C0.369,-0.173 0.374,-0.189 0.375,-0.207Z" style="fill:white;fill-rule:nonzero;"/>
        </g>
        <g transform="matrix(12,0,0,12,122.987,96.4205)">
            <path d="M0.12,-0.381L0.102,-0.693L0.256,-0.693L0.238,-0.381L0.12,-0.381ZM0.35,-0.381L0.332,-0.693L0.486,-0.693L0.468,-0.381L0.35,-0.381Z" style="fill:white;fill-rule:nonzero;"/>
        </g>
        <g transform="matrix(12,0,0,12,130.018,96.4205)">
            <path d="M0.185,0.213L0.224,-0.124L0.37,-0.124L0.311,0.213L0.185,0.213Z" style="fill:white;fill-rule:nonzero;"/>
        </g>
        <g transform="matrix(12,0,0,12,144.081,96.4205)">
            <path d="M0.028,-0.14L0.113,-0.654L0.245,-0.654L0.178,-0.257L0.36,-0.257L0.36,-0.693L0.488,-0.693L0.488,-0.257L0.555,-0.257L0.555,-0.14L0.488,-0.14L0.488,-0L0.36,-0L0.36,-0.14L0.028,-0.14Z" style="fill:white;fill-rule:nonzero;"/>
        </g>
        <g transform="matrix(12,0,0,12,151.112,96.4205)">
            <path d="M0.066,-0L0.066,-0.137C0.168,-0.191 0.244,-0.247 0.294,-0.305C0.344,-0.364 0.369,-0.424 0.369,-0.486C0.369,-0.549 0.338,-0.581 0.275,-0.581C0.248,-0.581 0.219,-0.573 0.189,-0.558C0.159,-0.542 0.133,-0.522 0.111,-0.497L0.036,-0.584C0.06,-0.62 0.094,-0.649 0.138,-0.67C0.182,-0.692 0.229,-0.703 0.277,-0.703C0.429,-0.703 0.504,-0.633 0.504,-0.494C0.504,-0.365 0.427,-0.246 0.271,-0.137L0.271,-0.119L0.534,-0.119L0.534,-0L0.066,-0Z" style="fill:white;fill-rule:nonzero;"/>
        </g>
        <g transform="matrix(12,0,0,12,158.143,96.4205)">
            <path d="M0.185,0.213L0.224,-0.124L0.37,-0.124L0.311,0.213L0.185,0.213Z" style="fill:white;fill-rule:nonzero;"/>
        </g>
        <g transform="matrix(12,0,0,12,172.206,96.4205)">
            <path d="M0.12,-0.381L0.102,-0.693L0.256,-0.693L0.238,-0.381L0.12,-0.381ZM0.35,-0.381L0.332,-0.693L0.486,-0.693L0.468,-0.381L0.35,-0.381Z" style="fill:white;fill-rule:nonzero;"/>
        </g>
        <g transform="matrix(12,0,0,12,179.237,96.4205)">
            <path d="M0.354,0.01C0.259,0.01 0.187,-0.013 0.135,-0.06C0.084,-0.106 0.058,-0.173 0.058,-0.26C0.058,-0.344 0.082,-0.41 0.128,-0.457C0.175,-0.504 0.242,-0.527 0.329,-0.527C0.382,-0.527 0.428,-0.517 0.467,-0.496C0.505,-0.475 0.532,-0.446 0.548,-0.408L0.452,-0.332C0.422,-0.378 0.38,-0.402 0.325,-0.402C0.285,-0.402 0.254,-0.39 0.232,-0.366C0.209,-0.342 0.198,-0.309 0.198,-0.265C0.198,-0.216 0.213,-0.179 0.242,-0.154C0.271,-0.128 0.312,-0.116 0.365,-0.116C0.389,-0.116 0.412,-0.117 0.435,-0.119C0.459,-0.121 0.481,-0.125 0.503,-0.128L0.517,-0.005C0.491,0.001 0.464,0.005 0.436,0.007C0.408,0.009 0.38,0.01 0.354,0.01Z" style="fill:white;fill-rule:nonzero;"/>
        </g>
        <g transform="matrix(12,0,0,12,186.268,96.4205)">
            <path d="M0.12,-0.381L0.102,-0.693L0.256,-0.693L0.238,-0.381L0.12,-0.381ZM0.35,-0.381L0.332,-0.693L0.486,-0.693L0.468,-0.381L0.35,-0.381Z" style="fill:white;fill-rule:nonzero;"/>
        </g>
        <g transform="matrix(12,0,0,12,193.3,96.4205)">
            <path d="M0.091,0.098L0.091,-0.025L0.112,-0.025C0.181,-0.025 0.235,-0.053 0.272,-0.11C0.31,-0.167 0.329,-0.247 0.329,-0.35C0.329,-0.451 0.31,-0.529 0.272,-0.585C0.235,-0.641 0.181,-0.668 0.112,-0.668L0.091,-0.668L0.091,-0.791L0.112,-0.791C0.224,-0.791 0.31,-0.753 0.372,-0.676C0.433,-0.599 0.464,-0.49 0.464,-0.35C0.464,-0.207 0.433,-0.097 0.372,-0.019C0.31,0.059 0.224,0.098 0.112,0.098L0.091,0.098Z" style="fill:white;fill-rule:nonzero;"/>
        </g>
    </g>
    <g transform="matrix(2.17987,0,0,2.17987,127.665,68.2742)">
        <g transform="matrix(12,0,0,12,24.5497,96.4205)">
            <path d="M0.41,-0L0.41,-0.351C0.41,-0.386 0.399,-0.404 0.378,-0.404C0.355,-0.404 0.343,-0.385 0.343,-0.346L0.343,-0L0.245,-0L0.245,-0.36C0.245,-0.39 0.235,-0.404 0.214,-0.404C0.189,-0.404 0.177,-0.385 0.177,-0.346L0.177,-0L0.046,-0L0.046,-0.518L0.165,-0.518L0.172,-0.453L0.184,-0.453C0.191,-0.503 0.217,-0.527 0.262,-0.527C0.305,-0.527 0.331,-0.503 0.34,-0.453L0.352,-0.453C0.355,-0.476 0.364,-0.494 0.379,-0.508C0.394,-0.521 0.414,-0.527 0.439,-0.527C0.474,-0.527 0.499,-0.518 0.515,-0.499C0.531,-0.479 0.54,-0.448 0.54,-0.405L0.54,-0L0.41,-0Z" style="fill:rgb(255,192,0);fill-rule:nonzero;"/>
        </g>
        <g transform="matrix(12,0,0,12,31.581,96.4205)">
            <path d="M0.388,0.005L0.38,-0.109L0.368,-0.109C0.363,-0.07 0.347,-0.04 0.321,-0.02C0.294,-0 0.258,0.01 0.213,0.01C0.158,0.01 0.115,-0.004 0.084,-0.031C0.054,-0.058 0.039,-0.096 0.039,-0.146C0.039,-0.204 0.059,-0.248 0.099,-0.279C0.139,-0.31 0.195,-0.326 0.269,-0.326C0.291,-0.326 0.31,-0.325 0.326,-0.323C0.343,-0.322 0.359,-0.319 0.375,-0.315L0.375,-0.317C0.375,-0.345 0.363,-0.365 0.34,-0.378C0.316,-0.391 0.281,-0.398 0.234,-0.399L0.102,-0.402L0.112,-0.522L0.225,-0.521C0.318,-0.52 0.388,-0.501 0.434,-0.466C0.479,-0.43 0.502,-0.378 0.502,-0.31L0.502,-0.118L0.574,-0.107L0.574,-0L0.388,0.005ZM0.375,-0.207C0.356,-0.21 0.339,-0.213 0.324,-0.213C0.308,-0.214 0.292,-0.214 0.275,-0.214C0.207,-0.214 0.173,-0.195 0.173,-0.156C0.173,-0.12 0.197,-0.102 0.246,-0.102C0.274,-0.102 0.297,-0.107 0.316,-0.117C0.335,-0.127 0.35,-0.14 0.359,-0.156C0.369,-0.173 0.374,-0.189 0.375,-0.207Z" style="fill:rgb(255,192,0);fill-rule:nonzero;"/>
        </g>
        <g transform="matrix(12,0,0,12,38.6122,96.4205)">
            <rect x="0.049" y="-0" width="0.488" height="0.118" style="fill:rgb(255,192,0);fill-rule:nonzero;"/>
        </g>
        <g transform="matrix(12,0,0,12,45.6435,96.4205)">
            <path d="M0.182,-0L0.182,-0.301L0.025,-0.301L0.025,-0.415L0.182,-0.415L0.182,-0.474C0.182,-0.653 0.269,-0.742 0.441,-0.742C0.481,-0.742 0.52,-0.739 0.557,-0.732L0.544,-0.61C0.523,-0.612 0.503,-0.614 0.487,-0.615C0.47,-0.616 0.454,-0.617 0.438,-0.617C0.355,-0.617 0.314,-0.571 0.314,-0.479L0.314,-0.415L0.52,-0.415L0.52,-0.301L0.314,-0.301L0.314,-0L0.182,-0Z" style="fill:rgb(255,192,0);fill-rule:nonzero;"/>
        </g>
        <g transform="matrix(12,0,0,12,52.6747,96.4205)">
            <path d="M0.293,0.01C0.218,0.01 0.161,-0.014 0.12,-0.061C0.079,-0.107 0.058,-0.174 0.058,-0.259C0.058,-0.344 0.079,-0.411 0.12,-0.457C0.161,-0.504 0.218,-0.527 0.293,-0.527C0.368,-0.527 0.425,-0.504 0.466,-0.457C0.507,-0.411 0.528,-0.344 0.528,-0.259C0.528,-0.174 0.507,-0.107 0.466,-0.061C0.425,-0.014 0.368,0.01 0.293,0.01ZM0.293,-0.116C0.323,-0.116 0.347,-0.128 0.363,-0.153C0.379,-0.178 0.388,-0.213 0.388,-0.259C0.388,-0.305 0.379,-0.34 0.363,-0.365C0.347,-0.389 0.323,-0.402 0.293,-0.402C0.263,-0.402 0.24,-0.389 0.223,-0.365C0.207,-0.34 0.198,-0.305 0.198,-0.259C0.198,-0.213 0.207,-0.178 0.223,-0.153C0.24,-0.128 0.263,-0.116 0.293,-0.116Z" style="fill:rgb(255,192,0);fill-rule:nonzero;"/>
        </g>
        <g transform="matrix(12,0,0,12,59.706,96.4205)">
            <path d="M0.38,-0L0.38,-0.304C0.38,-0.335 0.373,-0.36 0.361,-0.376C0.348,-0.393 0.329,-0.402 0.306,-0.402C0.239,-0.402 0.206,-0.354 0.206,-0.258L0.206,-0L0.074,-0L0.074,-0.518L0.192,-0.518L0.204,-0.424L0.219,-0.424C0.224,-0.459 0.236,-0.485 0.254,-0.502C0.273,-0.519 0.302,-0.527 0.34,-0.527C0.395,-0.527 0.437,-0.511 0.467,-0.478C0.497,-0.444 0.512,-0.397 0.512,-0.337L0.512,-0L0.38,-0Z" style="fill:rgb(255,192,0);fill-rule:nonzero;"/>
        </g>
        <g transform="matrix(12,0,0,12,66.7372,96.4205)">
            <path d="M0.354,0.01C0.259,0.01 0.187,-0.013 0.135,-0.06C0.084,-0.106 0.058,-0.173 0.058,-0.26C0.058,-0.344 0.082,-0.41 0.128,-0.457C0.175,-0.504 0.242,-0.527 0.329,-0.527C0.382,-0.527 0.428,-0.517 0.467,-0.496C0.505,-0.475 0.532,-0.446 0.548,-0.408L0.452,-0.332C0.422,-0.378 0.38,-0.402 0.325,-0.402C0.285,-0.402 0.254,-0.39 0.232,-0.366C0.209,-0.342 0.198,-0.309 0.198,-0.265C0.198,-0.216 0.213,-0.179 0.242,-0.154C0.271,-0.128 0.312,-0.116 0.365,-0.116C0.389,-0.116 0.412,-0.117 0.435,-0.119C0.459,-0.121 0.481,-0.125 0.503,-0.128L0.517,-0.005C0.491,0.001 0.464,0.005 0.436,0.007C0.408,0.009 0.38,0.01 0.354,0.01Z" style="fill:rgb(255,192,0);fill-rule:nonzero;"/>
        </g>
        <g transform="matrix(12,0,0,12,73.7685,96.4205)">
            <path d="M0.403,0.01C0.314,0.01 0.249,-0.008 0.209,-0.044C0.17,-0.08 0.15,-0.137 0.15,-0.216L0.15,-0.396L0.026,-0.396L0.026,-0.518L0.15,-0.518L0.15,-0.674L0.282,-0.674L0.282,-0.518L0.511,-0.518L0.511,-0.396L0.282,-0.396L0.282,-0.229C0.282,-0.189 0.292,-0.16 0.312,-0.143C0.333,-0.125 0.366,-0.116 0.413,-0.116C0.428,-0.116 0.444,-0.117 0.461,-0.118C0.478,-0.12 0.497,-0.123 0.519,-0.125L0.531,-0.002C0.509,0.002 0.488,0.005 0.468,0.007C0.448,0.009 0.426,0.01 0.403,0.01Z" style="fill:rgb(255,192,0);fill-rule:nonzero;"/>
        </g>
        <g transform="matrix(12,0,0,12,80.7997,96.4205)">
            <path d="M0.07,-0L0.07,-0.122L0.261,-0.122L0.261,-0.396L0.099,-0.396L0.099,-0.518L0.393,-0.518L0.393,-0.122L0.546,-0.122L0.546,-0L0.07,-0ZM0.321,-0.587C0.296,-0.587 0.276,-0.595 0.26,-0.611C0.245,-0.626 0.237,-0.647 0.237,-0.672C0.237,-0.697 0.245,-0.717 0.26,-0.733C0.276,-0.749 0.296,-0.756 0.321,-0.756C0.346,-0.756 0.367,-0.749 0.382,-0.733C0.398,-0.717 0.406,-0.697 0.406,-0.672C0.406,-0.647 0.398,-0.626 0.382,-0.611C0.367,-0.595 0.346,-0.587 0.321,-0.587Z" style="fill:rgb(255,192,0);fill-rule:nonzero;"/>
        </g>
        <g transform="matrix(12,0,0,12,87.831,96.4205)">
            <path d="M0.293,0.01C0.218,0.01 0.161,-0.014 0.12,-0.061C0.079,-0.107 0.058,-0.174 0.058,-0.259C0.058,-0.344 0.079,-0.411 0.12,-0.457C0.161,-0.504 0.218,-0.527 0.293,-0.527C0.368,-0.527 0.425,-0.504 0.466,-0.457C0.507,-0.411 0.528,-0.344 0.528,-0.259C0.528,-0.174 0.507,-0.107 0.466,-0.061C0.425,-0.014 0.368,0.01 0.293,0.01ZM0.293,-0.116C0.323,-0.116 0.347,-0.128 0.363,-0.153C0.379,-0.178 0.388,-0.213 0.388,-0.259C0.388,-0.305 0.379,-0.34 0.363,-0.365C0.347,-0.389 0.323,-0.402 0.293,-0.402C0.263,-0.402 0.24,-0.389 0.223,-0.365C0.207,-0.34 0.198,-0.305 0.198,-0.259C0.198,-0.213 0.207,-0.178 0.223,-0.153C0.24,-0.128 0.263,-0.116 0.293,-0.116Z" style="fill:rgb(255,192,0);fill-rule:nonzero;"/>
        </g>
        <g transform="matrix(12,0,0,12,94.8622,96.4205)">
            <path d="M0.38,-0L0.38,-0.304C0.38,-0.335 0.373,-0.36 0.361,-0.376C0.348,-0.393 0.329,-0.402 0.306,-0.402C0.239,-0.402 0.206,-0.354 0.206,-0.258L0.206,-0L0.074,-0L0.074,-0.518L0.192,-0.518L0.204,-0.424L0.219,-0.424C0.224,-0.459 0.236,-0.485 0.254,-0.502C0.273,-0.519 0.302,-0.527 0.34,-0.527C0.395,-0.527 0.437,-0.511 0.467,-0.478C0.497,-0.444 0.512,-0.397 0.512,-0.337L0.512,-0L0.38,-0Z" style="fill:rgb(255,192,0);fill-rule:nonzero;"/>
        </g>
        <g transform="matrix(12,0,0,12,101.893,96.4205)">
            <path d="M0.474,0.098C0.362,0.098 0.275,0.059 0.214,-0.019C0.152,-0.097 0.122,-0.207 0.122,-0.35C0.122,-0.49 0.152,-0.599 0.214,-0.676C0.275,-0.753 0.362,-0.791 0.474,-0.791L0.495,-0.791L0.495,-0.668L0.474,-0.668C0.404,-0.668 0.351,-0.641 0.313,-0.585C0.276,-0.529 0.257,-0.451 0.257,-0.35C0.257,-0.247 0.276,-0.167 0.313,-0.11C0.351,-0.053 0.404,-0.025 0.474,-0.025L0.495,-0.025L0.495,0.098L0.474,0.098Z" style="fill:white;fill-rule:nonzero;"/>
        </g>
        <g transform="matrix(12,0,0,12,108.925,96.4205)">
            <path d="M0.04,-0L0.229,-0.256L0.04,-0.518L0.197,-0.518L0.293,-0.355L0.389,-0.518L0.546,-0.518L0.354,-0.26L0.546,-0L0.389,-0L0.291,-0.162L0.197,-0L0.04,-0Z" style="fill:white;fill-rule:nonzero;"/>
        </g>
        <g transform="matrix(12,0,0,12,115.956,96.4205)">
            <path d="M0.04,-0L0.229,-0.256L0.04,-0.518L0.197,-0.518L0.293,-0.355L0.389,-0.518L0.546,-0.518L0.354,-0.26L0.546,-0L0.389,-0L0.291,-0.162L0.197,-0L0.04,-0Z" style="fill:white;fill-rule:nonzero;"/>
        </g>
        <g transform="matrix(12,0,0,12,122.987,96.4205)">
            <path d="M0.04,-0L0.229,-0.256L0.04,-0.518L0.197,-0.518L0.293,-0.355L0.389,-0.518L0.546,-0.518L0.354,-0.26L0.546,-0L0.389,-0L0.291,-0.162L0.197,-0L0.04,-0Z" style="fill:white;fill-rule:nonzero;"/>
        </g>
        <g transform="matrix(12,0,0,12,130.018,96.4205)">
            <path d="M0.041,-0.412L0.041,-0.53L0.545,-0.53L0.545,-0.412L0.041,-0.412ZM0.041,-0.163L0.041,-0.281L0.545,-0.281L0.545,-0.163L0.041,-0.163Z" style="fill:white;fill-rule:nonzero;"/>
        </g>
        <g transform="matrix(12,0,0,12,137.05,96.4205)">
            <path d="M0.12,-0.381L0.102,-0.693L0.256,-0.693L0.238,-0.381L0.12,-0.381ZM0.35,-0.381L0.332,-0.693L0.486,-0.693L0.468,-0.381L0.35,-0.381Z" style="fill:white;fill-rule:nonzero;"/>
        </g>
        <g transform="matrix(12,0,0,12,144.081,96.4205)">
            <path d="M0.388,0.005L0.38,-0.109L0.368,-0.109C0.363,-0.07 0.347,-0.04 0.321,-0.02C0.294,-0 0.258,0.01 0.213,0.01C0.158,0.01 0.115,-0.004 0.084,-0.031C0.054,-0.058 0.039,-0.096 0.039,-0.146C0.039,-0.204 0.059,-0.248 0.099,-0.279C0.139,-0.31 0.195,-0.326 0.269,-0.326C0.291,-0.326 0.31,-0.325 0.326,-0.323C0.343,-0.322 0.359,-0.319 0.375,-0.315L0.375,-0.317C0.375,-0.345 0.363,-0.365 0.34,-0.378C0.316,-0.391 0.281,-0.398 0.234,-0.399L0.102,-0.402L0.112,-0.522L0.225,-0.521C0.318,-0.52 0.388,-0.501 0.434,-0.466C0.479,-0.43 0.502,-0.378 0.502,-0.31L0.502,-0.118L0.574,-0.107L0.574,-0L0.388,0.005ZM0.375,-0.207C0.356,-0.21 0.339,-0.213 0.324,-0.213C0.308,-0.214 0.292,-0.214 0.275,-0.214C0.207,-0.214 0.173,-0.195 0.173,-0.156C0.173,-0.12 0.197,-0.102 0.246,-0.102C0.274,-0.102 0.297,-0.107 0.316,-0.117C0.335,-0.127 0.35,-0.14 0.359,-0.156C0.369,-0.173 0.374,-0.189 0.375,-0.207Z" style="fill:white;fill-rule:nonzero;"/>
        </g>
        <g transform="matrix(12,0,0,12,151.112,96.4205)">
            <path d="M0.12,-0.381L0.102,-0.693L0.256,-0.693L0.238,-0.381L0.12,-0.381ZM0.35,-0.381L0.332,-0.693L0.486,-0.693L0.468,-0.381L0.35,-0.381Z" style="fill:white;fill-rule:nonzero;"/>
        </g>
        <g transform="matrix(12,0,0,12,158.143,96.4205)">
            <path d="M0.185,0.213L0.224,-0.124L0.37,-0.124L0.311,0.213L0.185,0.213Z" style="fill:white;fill-rule:nonzero;"/>
        </g>
        <g transform="matrix(12,0,0,12,172.206,96.4205)">
            <path d="M0.028,0.234L0.023,0.12L0.113,0.11C0.149,0.106 0.178,0.096 0.202,0.079C0.226,0.062 0.246,0.035 0.262,-0L0.192,-0L0.019,-0.518L0.159,-0.518L0.287,-0.112L0.299,-0.112L0.413,-0.518L0.553,-0.518L0.407,-0.046C0.388,0.016 0.365,0.066 0.34,0.104C0.314,0.142 0.284,0.17 0.25,0.189C0.215,0.208 0.173,0.22 0.125,0.225L0.028,0.234Z" style="fill:white;fill-rule:nonzero;"/>
        </g>
        <g transform="matrix(12,0,0,12,179.237,96.4205)">
            <path d="M0.028,0.234L0.023,0.12L0.113,0.11C0.149,0.106 0.178,0.096 0.202,0.079C0.226,0.062 0.246,0.035 0.262,-0L0.192,-0L0.019,-0.518L0.159,-0.518L0.287,-0.112L0.299,-0.112L0.413,-0.518L0.553,-0.518L0.407,-0.046C0.388,0.016 0.365,0.066 0.34,0.104C0.314,0.142 0.284,0.17 0.25,0.189C0.215,0.208 0.173,0.22 0.125,0.225L0.028,0.234Z" style="fill:white;fill-rule:nonzero;"/>
        </g>
        <g transform="matrix(12,0,0,12,186.268,96.4205)">
            <path d="M0.028,0.234L0.023,0.12L0.113,0.11C0.149,0.106 0.178,0.096 0.202,0.079C0.226,0.062 0.246,0.035 0.262,-0L0.192,-0L0.019,-0.518L0.159,-0.518L0.287,-0.112L0.299,-0.112L0.413,-0.518L0.553,-0.518L0.407,-0.046C0.388,0.016 0.365,0.066 0.34,0.104C0.314,0.142 0.284,0.17 0.25,0.189C0.215,0.208 0.173,0.22 0.125,0.225L0.028,0.234Z" style="fill:white;fill-rule:nonzero;"/>
        </g>
        <g transform="matrix(12,0,0,12,193.3,96.4205)">
            <path d="M0.041,-0.412L0.041,-0.53L0.545,-0.53L0.545,-0.412L0.041,-0.412ZM0.041,-0.163L0.041,-0.281L0.545,-0.281L0.545,-0.163L0.041,-0.163Z" style="fill:white;fill-rule:nonzero;"/>
        </g>
        <g transform="matrix(12,0,0,12,200.331,96.4205)">
            <path d="M0.028,-0.14L0.113,-0.654L0.245,-0.654L0.178,-0.257L0.36,-0.257L0.36,-0.693L0.488,-0.693L0.488,-0.257L0.555,-0.257L0.555,-0.14L0.488,-0.14L0.488,-0L0.36,-0L0.36,-0.14L0.028,-0.14Z" style="fill:white;fill-rule:nonzero;"/>
        </g>
        <g transform="matrix(12,0,0,12,207.362,96.4205)">
            <path d="M0.066,-0L0.066,-0.137C0.168,-0.191 0.244,-0.247 0.294,-0.305C0.344,-0.364 0.369,-0.424 0.369,-0.486C0.369,-0.549 0.338,-0.581 0.275,-0.581C0.248,-0.581 0.219,-0.573 0.189,-0.558C0.159,-0.542 0.133,-0.522 0.111,-0.497L0.036,-0.584C0.06,-0.62 0.094,-0.649 0.138,-0.67C0.182,-0.692 0.229,-0.703 0.277,-0.703C0.429,-0.703 0.504,-0.633 0.504,-0.494C0.504,-0.365 0.427,-0.246 0.271,-0.137L0.271,-0.119L0.534,-0.119L0.534,-0L0.066,-0Z" style="fill:white;fill-rule:nonzero;"/>
        </g>
        <g transform="matrix(12,0,0,12,214.393,96.4205)">
            <path d="M0.185,0.213L0.224,-0.124L0.37,-0.124L0.311,0.213L0.185,0.213Z" style="fill:white;fill-rule:nonzero;"/>
        </g>
        <g transform="matrix(12,0,0,12,228.456,96.4205)">
            <path d="M0.078,-0L0.078,-0.114L0.347,-0.404L0.078,-0.404L0.078,-0.518L0.496,-0.518L0.496,-0.404L0.234,-0.114L0.506,-0.114L0.506,-0L0.078,-0Z" style="fill:white;fill-rule:nonzero;"/>
        </g>
        <g transform="matrix(12,0,0,12,235.487,96.4205)">
            <path d="M0.078,-0L0.078,-0.114L0.347,-0.404L0.078,-0.404L0.078,-0.518L0.496,-0.518L0.496,-0.404L0.234,-0.114L0.506,-0.114L0.506,-0L0.078,-0Z" style="fill:white;fill-rule:nonzero;"/>
        </g>
        <g transform="matrix(12,0,0,12,242.518,96.4205)">
            <path d="M0.078,-0L0.078,-0.114L0.347,-0.404L0.078,-0.404L0.078,-0.518L0.496,-0.518L0.496,-0.404L0.234,-0.114L0.506,-0.114L0.506,-0L0.078,-0Z" style="fill:white;fill-rule:nonzero;"/>
        </g>
        <g transform="matrix(12,0,0,12,249.55,96.4205)">
            <path d="M0.041,-0.412L0.041,-0.53L0.545,-0.53L0.545,-0.412L0.041,-0.412ZM0.041,-0.163L0.041,-0.281L0.545,-0.281L0.545,-0.163L0.041,-0.163Z" style="fill:white;fill-rule:nonzero;"/>
        </g>
        <g transform="matrix(12,0,0,12,256.581,96.4205)">
            <path d="M0.12,-0.381L0.102,-0.693L0.256,-0.693L0.238,-0.381L0.12,-0.381ZM0.35,-0.381L0.332,-0.693L0.486,-0.693L0.468,-0.381L0.35,-0.381Z" style="fill:white;fill-rule:nonzero;"/>
        </g>
        <g transform="matrix(12,0,0,12,263.612,96.4205)">
            <path d="M0.354,0.01C0.259,0.01 0.187,-0.013 0.135,-0.06C0.084,-0.106 0.058,-0.173 0.058,-0.26C0.058,-0.344 0.082,-0.41 0.128,-0.457C0.175,-0.504 0.242,-0.527 0.329,-0.527C0.382,-0.527 0.428,-0.517 0.467,-0.496C0.505,-0.475 0.532,-0.446 0.548,-0.408L0.452,-0.332C0.422,-0.378 0.38,-0.402 0.325,-0.402C0.285,-0.402 0.254,-0.39 0.232,-0.366C0.209,-0.342 0.198,-0.309 0.198,-0.265C0.198,-0.216 0.213,-0.179 0.242,-0.154C0.271,-0.128 0.312,-0.116 0.365,-0.116C0.389,-0.116 0.412,-0.117 0.435,-0.119C0.459,-0.121 0.481,-0.125 0.503,-0.128L0.517,-0.005C0.491,0.001 0.464,0.005 0.436,0.007C0.408,0.009 0.38,0.01 0.354,0.01Z" style="fill:white;fill-rule:nonzero;"/>
        </g>
        <g transform="matrix(12,0,0,12,270.643,96.4205)">
            <path d="M0.12,-0.381L0.102,-0.693L0.256,-0.693L0.238,-0.381L0.12,-0.381ZM0.35,-0.381L0.332,-0.693L0.486,-0.693L0.468,-0.381L0.35,-0.381Z" style="fill:white;fill-rule:nonzero;"/>
        </g>
        <g transform="matrix(12,0,0,12,277.675,96.4205)">
            <path d="M0.091,0.098L0.091,-0.025L0.112,-0.025C0.181,-0.025 0.235,-0.053 0.272,-0.11C0.31,-0.167 0.329,-0.247 0.329,-0.35C0.329,-0.451 0.31,-0.529 0.272,-0.585C0.235,-0.641 0.181,-0.668 0.112,-0.668L0.091,-0.668L0.091,-0.791L0.112,-0.791C0.224,-0.791 0.31,-0.753 0.372,-0.676C0.433,-0.599 0.464,-0.49 0.464,-0.35C0.464,-0.207 0.433,-0.097 0.372,-0.019C0.31,0.059 0.224,0.098 0.112,0.098L0.091,0.098Z" style="fill:white;fill-rule:nonzero;"/>
        </g>
    </g>
    <g transform="matrix(0.542053,0,0,0.273557,510.853,2.57972)">
        <path d="M462.936,109.063C462.936,98.975 458.803,90.785 453.712,90.785L133.72,90.785C128.629,90.785 124.495,98.975 124.495,109.063L124.495,185.321C124.495,195.408 128.629,203.598 133.72,203.598L453.712,203.598C458.803,203.598 462.936,195.408 462.936,185.321L462.936,109.063Z" style="fill:rgb(0,151,27);"/>
    </g>
    <g transform="matrix(0.151952,0,0,0.273557,480.625,2.57972)">
        <path d="M462.936,109.063C462.936,98.975 448.192,90.785 430.031,90.785L157.401,90.785C139.24,90.785 124.495,98.975 124.495,109.063L124.495,185.321C124.495,195.408 139.24,203.598 157.401,203.598L430.031,203.598C448.192,203.598 462.936,195.408 462.936,185.321L462.936,109.063Z" style="fill:rgb(202,0,197);"/>
    </g>
    <g transform="matrix(0.139789,0,0,0.273557,407.792,2.57972)">
        <path d="M462.936,109.063C462.936,98.975 446.909,90.785 427.168,90.785L160.264,90.785C140.523,90.785 124.495,98.975 124.495,109.063L124.495,185.321C124.495,195.408 140.523,203.598 160.264,203.598L427.168,203.598C446.909,203.598 462.936,195.408 462.936,185.321L462.936,109.063Z" style="fill:rgb(0,120,196);"/>
    </g>
    <g transform="matrix(1.01667,0,0,1.07654,114.908,-27.618)">
        <path d="M462.936,100.074C462.936,94.947 458.529,90.785 453.1,90.785L134.331,90.785C128.903,90.785 124.495,94.947 124.495,100.074L124.495,194.309C124.495,199.436 128.903,203.598 134.331,203.598L453.1,203.598C458.529,203.598 462.936,199.436 462.936,194.309L462.936,100.074Z" style="fill:rgb(255,192,0);fill-opacity:0.14;"/>
    </g>
    <g transform="matrix(2.17987,0,0,2.17987,199.579,-84.9921)">
        <g transform="matrix(12,0,0,12,24.5497,96.4205)">
            <rect x="0.06" y="-0.727" width="0.151" height="0.727" style="fill:white;fill-rule:nonzero;"/>
        </g>
        <g transform="matrix(12,0,0,12,27.8139,96.4205)">
            <path d="M0.06,-0L0.212,-0L0.212,-0.545L0.06,-0.545L0.06,-0ZM0.136,-0.616C0.181,-0.616 0.218,-0.65 0.218,-0.692C0.218,-0.734 0.181,-0.769 0.136,-0.769C0.092,-0.769 0.055,-0.734 0.055,-0.692C0.055,-0.65 0.092,-0.616 0.136,-0.616Z" style="fill:white;fill-rule:nonzero;"/>
        </g>
        <g transform="matrix(12,0,0,12,31.0781,96.4205)">
            <path d="M0.306,0.216C0.462,0.216 0.573,0.145 0.573,0.005L0.573,-0.545L0.423,-0.545L0.423,-0.454L0.417,-0.454C0.397,-0.498 0.352,-0.553 0.261,-0.553C0.141,-0.553 0.04,-0.46 0.04,-0.274C0.04,-0.092 0.138,-0.008 0.261,-0.008C0.348,-0.008 0.397,-0.051 0.417,-0.097L0.423,-0.097L0.423,0.003C0.423,0.078 0.375,0.107 0.31,0.107C0.243,0.107 0.209,0.078 0.197,0.045L0.057,0.064C0.075,0.15 0.159,0.216 0.306,0.216ZM0.309,-0.121C0.235,-0.121 0.195,-0.18 0.195,-0.274C0.195,-0.367 0.234,-0.432 0.309,-0.432C0.383,-0.432 0.424,-0.37 0.424,-0.274C0.424,-0.178 0.382,-0.121 0.309,-0.121Z" style="fill:white;fill-rule:nonzero;"/>
        </g>
        <g transform="matrix(12,0,0,12,38.6761,96.4205)">
            <path d="M0.212,-0.315C0.212,-0.386 0.254,-0.427 0.315,-0.427C0.376,-0.427 0.412,-0.387 0.412,-0.32L0.412,-0L0.563,-0L0.563,-0.347C0.563,-0.474 0.489,-0.553 0.375,-0.553C0.294,-0.553 0.235,-0.513 0.211,-0.449L0.205,-0.449L0.205,-0.545L0.06,-0.545L0.06,-0L0.212,-0L0.212,-0.315Z" style="fill:white;fill-rule:nonzero;"/>
        </g>
        <g transform="matrix(12,0,0,12,46.1378,96.4205)">
            <path d="M0.309,0.011C0.444,0.011 0.535,-0.055 0.556,-0.156L0.416,-0.165C0.401,-0.124 0.362,-0.102 0.311,-0.102C0.236,-0.102 0.188,-0.152 0.188,-0.234L0.188,-0.234L0.559,-0.234L0.559,-0.276C0.559,-0.461 0.447,-0.553 0.303,-0.553C0.142,-0.553 0.038,-0.439 0.038,-0.27C0.038,-0.097 0.141,0.011 0.309,0.011ZM0.188,-0.328C0.191,-0.39 0.238,-0.44 0.305,-0.44C0.371,-0.44 0.417,-0.393 0.417,-0.328L0.188,-0.328Z" style="fill:white;fill-rule:nonzero;"/>
        </g>
        <g transform="matrix(12,0,0,12,53.3097,96.4205)">
            <path d="M0.514,-0.39C0.501,-0.49 0.42,-0.553 0.282,-0.553C0.142,-0.553 0.05,-0.488 0.051,-0.383C0.05,-0.301 0.102,-0.248 0.208,-0.227L0.303,-0.208C0.35,-0.199 0.372,-0.181 0.373,-0.154C0.372,-0.121 0.337,-0.098 0.284,-0.098C0.23,-0.098 0.194,-0.121 0.185,-0.166L0.036,-0.158C0.05,-0.054 0.139,0.011 0.284,0.011C0.425,0.011 0.526,-0.061 0.527,-0.169C0.526,-0.248 0.475,-0.295 0.369,-0.317L0.27,-0.337C0.219,-0.348 0.201,-0.365 0.201,-0.391C0.201,-0.424 0.238,-0.445 0.284,-0.445C0.337,-0.445 0.368,-0.417 0.376,-0.381L0.514,-0.39Z" style="fill:white;fill-rule:nonzero;"/>
        </g>
        <g transform="matrix(12,0,0,12,62.8338,96.4205)">
            <path d="M0.261,0.009C0.349,0.009 0.395,-0.042 0.416,-0.087L0.423,-0.087L0.423,-0L0.572,-0L0.572,-0.727L0.421,-0.727L0.421,-0.454L0.416,-0.454C0.396,-0.498 0.352,-0.553 0.261,-0.553C0.141,-0.553 0.04,-0.46 0.04,-0.272C0.04,-0.089 0.137,0.009 0.261,0.009ZM0.309,-0.112C0.235,-0.112 0.195,-0.178 0.195,-0.273C0.195,-0.367 0.234,-0.432 0.309,-0.432C0.383,-0.432 0.424,-0.37 0.424,-0.273C0.424,-0.175 0.382,-0.112 0.309,-0.112Z" style="fill:white;fill-rule:nonzero;"/>
        </g>
        <g transform="matrix(12,0,0,12,70.4574,96.4205)">
            <path d="M0.309,0.011C0.444,0.011 0.535,-0.055 0.556,-0.156L0.416,-0.165C0.401,-0.124 0.362,-0.102 0.311,-0.102C0.236,-0.102 0.188,-0.152 0.188,-0.234L0.188,-0.234L0.559,-0.234L0.559,-0.276C0.559,-0.461 0.447,-0.553 0.303,-0.553C0.142,-0.553 0.038,-0.439 0.038,-0.27C0.038,-0.097 0.141,0.011 0.309,0.011ZM0.188,-0.328C0.191,-0.39 0.238,-0.44 0.305,-0.44C0.371,-0.44 0.417,-0.393 0.417,-0.328L0.188,-0.328Z" style="fill:white;fill-rule:nonzero;"/>
        </g>
        <g transform="matrix(12,0,0,12,80.4119,96.4205)">
            <path d="M0.307,0.011C0.452,0.011 0.543,-0.075 0.55,-0.2L0.408,-0.2C0.399,-0.142 0.36,-0.109 0.309,-0.109C0.238,-0.109 0.192,-0.168 0.192,-0.273C0.192,-0.376 0.238,-0.435 0.309,-0.435C0.364,-0.435 0.399,-0.398 0.408,-0.344L0.55,-0.344C0.544,-0.47 0.449,-0.553 0.306,-0.553C0.141,-0.553 0.038,-0.438 0.038,-0.271C0.038,-0.105 0.139,0.011 0.307,0.011Z" style="fill:white;fill-rule:nonzero;"/>
        </g>
        <g transform="matrix(12,0,0,12,87.4602,96.4205)">
            <path d="M0.307,0.011C0.472,0.011 0.575,-0.103 0.575,-0.271C0.575,-0.44 0.472,-0.553 0.307,-0.553C0.141,-0.553 0.038,-0.44 0.038,-0.271C0.038,-0.103 0.141,0.011 0.307,0.011ZM0.308,-0.107C0.231,-0.107 0.192,-0.176 0.192,-0.272C0.192,-0.367 0.231,-0.437 0.308,-0.437C0.382,-0.437 0.422,-0.367 0.422,-0.272C0.422,-0.176 0.382,-0.107 0.308,-0.107Z" style="fill:white;fill-rule:nonzero;"/>
        </g>
        <g transform="matrix(12,0,0,12,94.8239,96.4205)">
            <path d="M0.261,0.009C0.349,0.009 0.395,-0.042 0.416,-0.087L0.423,-0.087L0.423,-0L0.572,-0L0.572,-0.727L0.421,-0.727L0.421,-0.454L0.416,-0.454C0.396,-0.498 0.352,-0.553 0.261,-0.553C0.141,-0.553 0.04,-0.46 0.04,-0.272C0.04,-0.089 0.137,0.009 0.261,0.009ZM0.309,-0.112C0.235,-0.112 0.195,-0.178 0.195,-0.273C0.195,-0.367 0.234,-0.432 0.309,-0.432C0.383,-0.432 0.424,-0.37 0.424,-0.273C0.424,-0.175 0.382,-0.112 0.309,-0.112Z" style="fill:white;fill-rule:nonzero;"/>
        </g>
        <g transform="matrix(12,0,0,12,102.447,96.4205)">
            <path d="M0.309,0.011C0.444,0.011 0.535,-0.055 0.556,-0.156L0.416,-0.165C0.401,-0.124 0.362,-0.102 0.311,-0.102C0.236,-0.102 0.188,-0.152 0.188,-0.234L0.188,-0.234L0.559,-0.234L0.559,-0.276C0.559,-0.461 0.447,-0.553 0.303,-0.553C0.142,-0.553 0.038,-0.439 0.038,-0.27C0.038,-0.097 0.141,0.011 0.309,0.011ZM0.188,-0.328C0.191,-0.39 0.238,-0.44 0.305,-0.44C0.371,-0.44 0.417,-0.393 0.417,-0.328L0.188,-0.328Z" style="fill:white;fill-rule:nonzero;"/>
        </g>
        <g transform="matrix(12,0,0,12,109.619,96.4205)">
            <path d="M0.149,0.009C0.194,0.009 0.234,-0.029 0.234,-0.076C0.234,-0.123 0.194,-0.161 0.149,-0.161C0.102,-0.161 0.063,-0.123 0.064,-0.076C0.063,-0.029 0.102,0.009 0.149,0.009Z" style="fill:white;fill-rule:nonzero;"/>
        </g>
        <g transform="matrix(12,0,0,12,113.19,96.4205)">
            <path d="M0.149,0.009C0.194,0.009 0.234,-0.029 0.234,-0.076C0.234,-0.123 0.194,-0.161 0.149,-0.161C0.102,-0.161 0.063,-0.123 0.064,-0.076C0.063,-0.029 0.102,0.009 0.149,0.009Z" style="fill:white;fill-rule:nonzero;"/>
        </g>
        <g transform="matrix(12,0,0,12,116.761,96.4205)">
            <path d="M0.149,0.009C0.194,0.009 0.234,-0.029 0.234,-0.076C0.234,-0.123 0.194,-0.161 0.149,-0.161C0.102,-0.161 0.063,-0.123 0.064,-0.076C0.063,-0.029 0.102,0.009 0.149,0.009Z" style="fill:white;fill-rule:nonzero;"/>
        </g>
    </g>
    <g transform="matrix(2.17987,0,0,2.17987,199.579,-32.0162)">
        <g transform="matrix(12,0,0,12,24.5497,96.4205)">
            <path d="M0.272,-0.223L0.272,-0.113L0.393,-0.113L0.393,-0L0.031,-0L0.031,-0.113L0.14,-0.113L0.14,-0.404L0.05,-0.404L0.05,-0.518L0.252,-0.518L0.268,-0.401L0.286,-0.401C0.291,-0.485 0.335,-0.527 0.418,-0.527C0.468,-0.527 0.505,-0.509 0.531,-0.473C0.558,-0.437 0.571,-0.385 0.571,-0.317L0.439,-0.317C0.439,-0.347 0.434,-0.369 0.423,-0.383C0.411,-0.396 0.393,-0.403 0.368,-0.403C0.336,-0.403 0.312,-0.387 0.296,-0.356C0.28,-0.325 0.272,-0.28 0.272,-0.223Z" style="fill:white;fill-rule:nonzero;"/>
        </g>
        <g transform="matrix(12,0,0,12,31.581,96.4205)">
            <path d="M0.339,0.01C0.249,0.01 0.18,-0.013 0.131,-0.06C0.083,-0.106 0.058,-0.173 0.058,-0.26C0.058,-0.344 0.079,-0.41 0.12,-0.457C0.162,-0.504 0.22,-0.527 0.296,-0.527C0.37,-0.527 0.427,-0.506 0.467,-0.462C0.508,-0.419 0.528,-0.356 0.528,-0.273C0.528,-0.25 0.527,-0.228 0.525,-0.207L0.196,-0.207C0.216,-0.146 0.268,-0.115 0.351,-0.115C0.374,-0.115 0.397,-0.116 0.42,-0.119C0.443,-0.121 0.466,-0.125 0.49,-0.129L0.502,-0.004C0.469,0.002 0.439,0.006 0.412,0.007C0.384,0.009 0.36,0.01 0.339,0.01ZM0.19,-0.298L0.398,-0.298C0.398,-0.333 0.389,-0.36 0.371,-0.378C0.354,-0.397 0.329,-0.406 0.297,-0.406C0.267,-0.406 0.243,-0.397 0.224,-0.378C0.206,-0.359 0.194,-0.333 0.19,-0.298Z" style="fill:white;fill-rule:nonzero;"/>
        </g>
        <g transform="matrix(12,0,0,12,38.6122,96.4205)">
            <path d="M0.403,0.01C0.314,0.01 0.249,-0.008 0.209,-0.044C0.17,-0.08 0.15,-0.137 0.15,-0.216L0.15,-0.396L0.026,-0.396L0.026,-0.518L0.15,-0.518L0.15,-0.674L0.282,-0.674L0.282,-0.518L0.511,-0.518L0.511,-0.396L0.282,-0.396L0.282,-0.229C0.282,-0.189 0.292,-0.16 0.312,-0.143C0.333,-0.125 0.366,-0.116 0.413,-0.116C0.428,-0.116 0.444,-0.117 0.461,-0.118C0.478,-0.12 0.497,-0.123 0.519,-0.125L0.531,-0.002C0.509,0.002 0.488,0.005 0.468,0.007C0.448,0.009 0.426,0.01 0.403,0.01Z" style="fill:white;fill-rule:nonzero;"/>
        </g>
        <g transform="matrix(12,0,0,12,45.6435,96.4205)">
            <path d="M0.218,0.01C0.169,0.01 0.131,-0.006 0.104,-0.039C0.076,-0.071 0.063,-0.117 0.063,-0.176L0.063,-0.518L0.195,-0.518L0.195,-0.208C0.195,-0.179 0.202,-0.156 0.216,-0.14C0.229,-0.124 0.248,-0.116 0.271,-0.116C0.302,-0.116 0.326,-0.128 0.342,-0.152C0.357,-0.176 0.365,-0.216 0.365,-0.272L0.365,-0.518L0.498,-0.518L0.498,-0.118L0.569,-0.107L0.569,-0L0.374,0.005L0.367,-0.1L0.352,-0.1C0.343,-0.064 0.328,-0.037 0.304,-0.019C0.281,0 0.252,0.01 0.218,0.01Z" style="fill:white;fill-rule:nonzero;"/>
        </g>
        <g transform="matrix(12,0,0,12,52.6747,96.4205)">
            <path d="M0.272,-0.223L0.272,-0.113L0.393,-0.113L0.393,-0L0.031,-0L0.031,-0.113L0.14,-0.113L0.14,-0.404L0.05,-0.404L0.05,-0.518L0.252,-0.518L0.268,-0.401L0.286,-0.401C0.291,-0.485 0.335,-0.527 0.418,-0.527C0.468,-0.527 0.505,-0.509 0.531,-0.473C0.558,-0.437 0.571,-0.385 0.571,-0.317L0.439,-0.317C0.439,-0.347 0.434,-0.369 0.423,-0.383C0.411,-0.396 0.393,-0.403 0.368,-0.403C0.336,-0.403 0.312,-0.387 0.296,-0.356C0.28,-0.325 0.272,-0.28 0.272,-0.223Z" style="fill:white;fill-rule:nonzero;"/>
        </g>
        <g transform="matrix(12,0,0,12,59.706,96.4205)">
            <path d="M0.38,-0L0.38,-0.304C0.38,-0.335 0.373,-0.36 0.361,-0.376C0.348,-0.393 0.329,-0.402 0.306,-0.402C0.239,-0.402 0.206,-0.354 0.206,-0.258L0.206,-0L0.074,-0L0.074,-0.518L0.192,-0.518L0.204,-0.424L0.219,-0.424C0.224,-0.459 0.236,-0.485 0.254,-0.502C0.273,-0.519 0.302,-0.527 0.34,-0.527C0.395,-0.527 0.437,-0.511 0.467,-0.478C0.497,-0.444 0.512,-0.397 0.512,-0.337L0.512,-0L0.38,-0Z" style="fill:white;fill-rule:nonzero;"/>
        </g>
    </g>
    <g transform="matrix(2.17987,0,0,2.17987,188.056,-159.259)">
        <g transform="matrix(12,0,0,12,24.5497,96.4205)">
            <path d="M0.41,-0L0.41,-0.351C0.41,-0.386 0.399,-0.404 0.378,-0.404C0.355,-0.404 0.343,-0.385 0.343,-0.346L0.343,-0L0.245,-0L0.245,-0.36C0.245,-0.39 0.235,-0.404 0.214,-0.404C0.189,-0.404 0.177,-0.385 0.177,-0.346L0.177,-0L0.046,-0L0.046,-0.518L0.165,-0.518L0.172,-0.453L0.184,-0.453C0.191,-0.503 0.217,-0.527 0.262,-0.527C0.305,-0.527 0.331,-0.503 0.34,-0.453L0.352,-0.453C0.355,-0.476 0.364,-0.494 0.379,-0.508C0.394,-0.521 0.414,-0.527 0.439,-0.527C0.474,-0.527 0.499,-0.518 0.515,-0.499C0.531,-0.479 0.54,-0.448 0.54,-0.405L0.54,-0L0.41,-0Z" style="fill:rgb(255,192,0);fill-rule:nonzero;"/>
        </g>
        <g transform="matrix(12,0,0,12,31.581,96.4205)">
            <path d="M0.388,0.005L0.38,-0.109L0.368,-0.109C0.363,-0.07 0.347,-0.04 0.321,-0.02C0.294,-0 0.258,0.01 0.213,0.01C0.158,0.01 0.115,-0.004 0.084,-0.031C0.054,-0.058 0.039,-0.096 0.039,-0.146C0.039,-0.204 0.059,-0.248 0.099,-0.279C0.139,-0.31 0.195,-0.326 0.269,-0.326C0.291,-0.326 0.31,-0.325 0.326,-0.323C0.343,-0.322 0.359,-0.319 0.375,-0.315L0.375,-0.317C0.375,-0.345 0.363,-0.365 0.34,-0.378C0.316,-0.391 0.281,-0.398 0.234,-0.399L0.102,-0.402L0.112,-0.522L0.225,-0.521C0.318,-0.52 0.388,-0.501 0.434,-0.466C0.479,-0.43 0.502,-0.378 0.502,-0.31L0.502,-0.118L0.574,-0.107L0.574,-0L0.388,0.005ZM0.375,-0.207C0.356,-0.21 0.339,-0.213 0.324,-0.213C0.308,-0.214 0.292,-0.214 0.275,-0.214C0.207,-0.214 0.173,-0.195 0.173,-0.156C0.173,-0.12 0.197,-0.102 0.246,-0.102C0.274,-0.102 0.297,-0.107 0.316,-0.117C0.335,-0.127 0.35,-0.14 0.359,-0.156C0.369,-0.173 0.374,-0.189 0.375,-0.207Z" style="fill:rgb(255,192,0);fill-rule:nonzero;"/>
        </g>
        <g transform="matrix(12,0,0,12,38.6122,96.4205)">
            <rect x="0.049" y="-0" width="0.488" height="0.118" style="fill:rgb(255,192,0);fill-rule:nonzero;"/>
        </g>
        <g transform="matrix(12,0,0,12,45.6435,96.4205)">
            <path d="M0.182,-0L0.182,-0.301L0.025,-0.301L0.025,-0.415L0.182,-0.415L0.182,-0.474C0.182,-0.653 0.269,-0.742 0.441,-0.742C0.481,-0.742 0.52,-0.739 0.557,-0.732L0.544,-0.61C0.523,-0.612 0.503,-0.614 0.487,-0.615C0.47,-0.616 0.454,-0.617 0.438,-0.617C0.355,-0.617 0.314,-0.571 0.314,-0.479L0.314,-0.415L0.52,-0.415L0.52,-0.301L0.314,-0.301L0.314,-0L0.182,-0Z" style="fill:rgb(255,192,0);fill-rule:nonzero;"/>
        </g>
        <g transform="matrix(12,0,0,12,52.6747,96.4205)">
            <path d="M0.293,0.01C0.218,0.01 0.161,-0.014 0.12,-0.061C0.079,-0.107 0.058,-0.174 0.058,-0.259C0.058,-0.344 0.079,-0.411 0.12,-0.457C0.161,-0.504 0.218,-0.527 0.293,-0.527C0.368,-0.527 0.425,-0.504 0.466,-0.457C0.507,-0.411 0.528,-0.344 0.528,-0.259C0.528,-0.174 0.507,-0.107 0.466,-0.061C0.425,-0.014 0.368,0.01 0.293,0.01ZM0.293,-0.116C0.323,-0.116 0.347,-0.128 0.363,-0.153C0.379,-0.178 0.388,-0.213 0.388,-0.259C0.388,-0.305 0.379,-0.34 0.363,-0.365C0.347,-0.389 0.323,-0.402 0.293,-0.402C0.263,-0.402 0.24,-0.389 0.223,-0.365C0.207,-0.34 0.198,-0.305 0.198,-0.259C0.198,-0.213 0.207,-0.178 0.223,-0.153C0.24,-0.128 0.263,-0.116 0.293,-0.116Z" style="fill:rgb(255,192,0);fill-rule:nonzero;"/>
        </g>
        <g transform="matrix(12,0,0,12,59.706,96.4205)">
            <path d="M0.38,-0L0.38,-0.304C0.38,-0.335 0.373,-0.36 0.361,-0.376C0.348,-0.393 0.329,-0.402 0.306,-0.402C0.239,-0.402 0.206,-0.354 0.206,-0.258L0.206,-0L0.074,-0L0.074,-0.518L0.192,-0.518L0.204,-0.424L0.219,-0.424C0.224,-0.459 0.236,-0.485 0.254,-0.502C0.273,-0.519 0.302,-0.527 0.34,-0.527C0.395,-0.527 0.437,-0.511 0.467,-0.478C0.497,-0.444 0.512,-0.397 0.512,-0.337L0.512,-0L0.38,-0Z" style="fill:rgb(255,192,0);fill-rule:nonzero;"/>
        </g>
        <g transform="matrix(12,0,0,12,66.7372,96.4205)">
            <path d="M0.354,0.01C0.259,0.01 0.187,-0.013 0.135,-0.06C0.084,-0.106 0.058,-0.173 0.058,-0.26C0.058,-0.344 0.082,-0.41 0.128,-0.457C0.175,-0.504 0.242,-0.527 0.329,-0.527C0.382,-0.527 0.428,-0.517 0.467,-0.496C0.505,-0.475 0.532,-0.446 0.548,-0.408L0.452,-0.332C0.422,-0.378 0.38,-0.402 0.325,-0.402C0.285,-0.402 0.254,-0.39 0.232,-0.366C0.209,-0.342 0.198,-0.309 0.198,-0.265C0.198,-0.216 0.213,-0.179 0.242,-0.154C0.271,-0.128 0.312,-0.116 0.365,-0.116C0.389,-0.116 0.412,-0.117 0.435,-0.119C0.459,-0.121 0.481,-0.125 0.503,-0.128L0.517,-0.005C0.491,0.001 0.464,0.005 0.436,0.007C0.408,0.009 0.38,0.01 0.354,0.01Z" style="fill:rgb(255,192,0);fill-rule:nonzero;"/>
        </g>
        <g transform="matrix(12,0,0,12,73.7685,96.4205)">
            <path d="M0.403,0.01C0.314,0.01 0.249,-0.008 0.209,-0.044C0.17,-0.08 0.15,-0.137 0.15,-0.216L0.15,-0.396L0.026,-0.396L0.026,-0.518L0.15,-0.518L0.15,-0.674L0.282,-0.674L0.282,-0.518L0.511,-0.518L0.511,-0.396L0.282,-0.396L0.282,-0.229C0.282,-0.189 0.292,-0.16 0.312,-0.143C0.333,-0.125 0.366,-0.116 0.413,-0.116C0.428,-0.116 0.444,-0.117 0.461,-0.118C0.478,-0.12 0.497,-0.123 0.519,-0.125L0.531,-0.002C0.509,0.002 0.488,0.005 0.468,0.007C0.448,0.009 0.426,0.01 0.403,0.01Z" style="fill:rgb(255,192,0);fill-rule:nonzero;"/>
        </g>
        <g transform="matrix(12,0,0,12,80.7997,96.4205)">
            <path d="M0.07,-0L0.07,-0.122L0.261,-0.122L0.261,-0.396L0.099,-0.396L0.099,-0.518L0.393,-0.518L0.393,-0.122L0.546,-0.122L0.546,-0L0.07,-0ZM0.321,-0.587C0.296,-0.587 0.276,-0.595 0.26,-0.611C0.245,-0.626 0.237,-0.647 0.237,-0.672C0.237,-0.697 0.245,-0.717 0.26,-0.733C0.276,-0.749 0.296,-0.756 0.321,-0.756C0.346,-0.756 0.367,-0.749 0.382,-0.733C0.398,-0.717 0.406,-0.697 0.406,-0.672C0.406,-0.647 0.398,-0.626 0.382,-0.611C0.367,-0.595 0.346,-0.587 0.321,-0.587Z" style="fill:rgb(255,192,0);fill-rule:nonzero;"/>
        </g>
        <g transform="matrix(12,0,0,12,87.831,96.4205)">
            <path d="M0.293,0.01C0.218,0.01 0.161,-0.014 0.12,-0.061C0.079,-0.107 0.058,-0.174 0.058,-0.259C0.058,-0.344 0.079,-0.411 0.12,-0.457C0.161,-0.504 0.218,-0.527 0.293,-0.527C0.368,-0.527 0.425,-0.504 0.466,-0.457C0.507,-0.411 0.528,-0.344 0.528,-0.259C0.528,-0.174 0.507,-0.107 0.466,-0.061C0.425,-0.014 0.368,0.01 0.293,0.01ZM0.293,-0.116C0.323,-0.116 0.347,-0.128 0.363,-0.153C0.379,-0.178 0.388,-0.213 0.388,-0.259C0.388,-0.305 0.379,-0.34 0.363,-0.365C0.347,-0.389 0.323,-0.402 0.293,-0.402C0.263,-0.402 0.24,-0.389 0.223,-0.365C0.207,-0.34 0.198,-0.305 0.198,-0.259C0.198,-0.213 0.207,-0.178 0.223,-0.153C0.24,-0.128 0.263,-0.116 0.293,-0.116Z" style="fill:rgb(255,192,0);fill-rule:nonzero;"/>
        </g>
        <g transform="matrix(12,0,0,12,94.8622,96.4205)">
            <path d="M0.38,-0L0.38,-0.304C0.38,-0.335 0.373,-0.36 0.361,-0.376C0.348,-0.393 0.329,-0.402 0.306,-0.402C0.239,-0.402 0.206,-0.354 0.206,-0.258L0.206,-0L0.074,-0L0.074,-0.518L0.192,-0.518L0.204,-0.424L0.219,-0.424C0.224,-0.459 0.236,-0.485 0.254,-0.502C0.273,-0.519 0.302,-0.527 0.34,-0.527C0.395,-0.527 0.437,-0.511 0.467,-0.478C0.497,-0.444 0.512,-0.397 0.512,-0.337L0.512,-0L0.38,-0Z" style="fill:rgb(255,192,0);fill-rule:nonzero;"/>
        </g>
        <g transform="matrix(12,0,0,12,101.893,96.4205)">
            <path d="M0.474,0.098C0.362,0.098 0.275,0.059 0.214,-0.019C0.152,-0.097 0.122,-0.207 0.122,-0.35C0.122,-0.49 0.152,-0.599 0.214,-0.676C0.275,-0.753 0.362,-0.791 0.474,-0.791L0.495,-0.791L0.495,-0.668L0.474,-0.668C0.404,-0.668 0.351,-0.641 0.313,-0.585C0.276,-0.529 0.257,-0.451 0.257,-0.35C0.257,-0.247 0.276,-0.167 0.313,-0.11C0.351,-0.053 0.404,-0.025 0.474,-0.025L0.495,-0.025L0.495,0.098L0.474,0.098Z" style="fill:white;fill-rule:nonzero;"/>
        </g>
        <g transform="matrix(12,0,0,12,108.925,96.4205)">
            <path d="M0.04,-0L0.229,-0.256L0.04,-0.518L0.197,-0.518L0.293,-0.355L0.389,-0.518L0.546,-0.518L0.354,-0.26L0.546,-0L0.389,-0L0.291,-0.162L0.197,-0L0.04,-0Z" style="fill:white;fill-rule:nonzero;"/>
        </g>
        <g transform="matrix(12,0,0,12,115.956,96.4205)">
            <path d="M0.04,-0L0.229,-0.256L0.04,-0.518L0.197,-0.518L0.293,-0.355L0.389,-0.518L0.546,-0.518L0.354,-0.26L0.546,-0L0.389,-0L0.291,-0.162L0.197,-0L0.04,-0Z" style="fill:white;fill-rule:nonzero;"/>
        </g>
        <g transform="matrix(12,0,0,12,122.987,96.4205)">
            <path d="M0.04,-0L0.229,-0.256L0.04,-0.518L0.197,-0.518L0.293,-0.355L0.389,-0.518L0.546,-0.518L0.354,-0.26L0.546,-0L0.389,-0L0.291,-0.162L0.197,-0L0.04,-0Z" style="fill:white;fill-rule:nonzero;"/>
        </g>
        <g transform="matrix(12,0,0,12,130.018,96.4205)">
            <path d="M0.185,0.213L0.224,-0.124L0.37,-0.124L0.311,0.213L0.185,0.213Z" style="fill:white;fill-rule:nonzero;"/>
        </g>
        <g transform="matrix(12,0,0,12,144.081,96.4205)">
            <path d="M0.028,0.234L0.023,0.12L0.113,0.11C0.149,0.106 0.178,0.096 0.202,0.079C0.226,0.062 0.246,0.035 0.262,-0L0.192,-0L0.019,-0.518L0.159,-0.518L0.287,-0.112L0.299,-0.112L0.413,-0.518L0.553,-0.518L0.407,-0.046C0.388,0.016 0.365,0.066 0.34,0.104C0.314,0.142 0.284,0.17 0.25,0.189C0.215,0.208 0.173,0.22 0.125,0.225L0.028,0.234Z" style="fill:white;fill-rule:nonzero;"/>
        </g>
        <g transform="matrix(12,0,0,12,151.112,96.4205)">
            <path d="M0.028,0.234L0.023,0.12L0.113,0.11C0.149,0.106 0.178,0.096 0.202,0.079C0.226,0.062 0.246,0.035 0.262,-0L0.192,-0L0.019,-0.518L0.159,-0.518L0.287,-0.112L0.299,-0.112L0.413,-0.518L0.553,-0.518L0.407,-0.046C0.388,0.016 0.365,0.066 0.34,0.104C0.314,0.142 0.284,0.17 0.25,0.189C0.215,0.208 0.173,0.22 0.125,0.225L0.028,0.234Z" style="fill:white;fill-rule:nonzero;"/>
        </g>
        <g transform="matrix(12,0,0,12,158.143,96.4205)">
            <path d="M0.028,0.234L0.023,0.12L0.113,0.11C0.149,0.106 0.178,0.096 0.202,0.079C0.226,0.062 0.246,0.035 0.262,-0L0.192,-0L0.019,-0.518L0.159,-0.518L0.287,-0.112L0.299,-0.112L0.413,-0.518L0.553,-0.518L0.407,-0.046C0.388,0.016 0.365,0.066 0.34,0.104C0.314,0.142 0.284,0.17 0.25,0.189C0.215,0.208 0.173,0.22 0.125,0.225L0.028,0.234Z" style="fill:white;fill-rule:nonzero;"/>
        </g>
        <g transform="matrix(12,0,0,12,165.175,96.4205)">
            <path d="M0.185,0.213L0.224,-0.124L0.37,-0.124L0.311,0.213L0.185,0.213Z" style="fill:white;fill-rule:nonzero;"/>
        </g>
        <g transform="matrix(12,0,0,12,179.237,96.4205)">
            <path d="M0.078,-0L0.078,-0.114L0.347,-0.404L0.078,-0.404L0.078,-0.518L0.496,-0.518L0.496,-0.404L0.234,-0.114L0.506,-0.114L0.506,-0L0.078,-0Z" style="fill:white;fill-rule:nonzero;"/>
        </g>
        <g transform="matrix(12,0,0,12,186.268,96.4205)">
            <path d="M0.078,-0L0.078,-0.114L0.347,-0.404L0.078,-0.404L0.078,-0.518L0.496,-0.518L0.496,-0.404L0.234,-0.114L0.506,-0.114L0.506,-0L0.078,-0Z" style="fill:white;fill-rule:nonzero;"/>
        </g>
        <g transform="matrix(12,0,0,12,193.3,96.4205)">
            <path d="M0.078,-0L0.078,-0.114L0.347,-0.404L0.078,-0.404L0.078,-0.518L0.496,-0.518L0.496,-0.404L0.234,-0.114L0.506,-0.114L0.506,-0L0.078,-0Z" style="fill:white;fill-rule:nonzero;"/>
        </g>
        <g transform="matrix(12,0,0,12,200.331,96.4205)">
            <path d="M0.041,-0.412L0.041,-0.53L0.545,-0.53L0.545,-0.412L0.041,-0.412ZM0.041,-0.163L0.041,-0.281L0.545,-0.281L0.545,-0.163L0.041,-0.163Z" style="fill:white;fill-rule:nonzero;"/>
        </g>
        <g transform="matrix(12,0,0,12,207.362,96.4205)">
            <path d="M0.12,-0.381L0.102,-0.693L0.256,-0.693L0.238,-0.381L0.12,-0.381ZM0.35,-0.381L0.332,-0.693L0.486,-0.693L0.468,-0.381L0.35,-0.381Z" style="fill:white;fill-rule:nonzero;"/>
        </g>
        <g transform="matrix(12,0,0,12,214.393,96.4205)">
            <path d="M0.242,0.01C0.178,0.01 0.128,-0.013 0.092,-0.06C0.056,-0.106 0.039,-0.172 0.039,-0.258C0.039,-0.344 0.056,-0.41 0.092,-0.457C0.128,-0.504 0.178,-0.527 0.243,-0.527C0.28,-0.527 0.309,-0.519 0.329,-0.502C0.349,-0.485 0.361,-0.459 0.367,-0.424L0.38,-0.424L0.38,-0.732L0.512,-0.732L0.512,-0L0.399,0.005L0.38,-0.094L0.369,-0.094C0.364,-0.059 0.35,-0.033 0.329,-0.016C0.307,0.001 0.278,0.01 0.242,0.01ZM0.38,-0.258C0.38,-0.308 0.372,-0.345 0.355,-0.368C0.338,-0.391 0.313,-0.403 0.279,-0.403C0.247,-0.403 0.222,-0.39 0.204,-0.365C0.187,-0.34 0.178,-0.304 0.178,-0.258C0.178,-0.163 0.211,-0.115 0.279,-0.115C0.317,-0.115 0.343,-0.126 0.358,-0.149C0.372,-0.172 0.38,-0.208 0.38,-0.258Z" style="fill:white;fill-rule:nonzero;"/>
        </g>
        <g transform="matrix(12,0,0,12,221.425,96.4205)">
            <path d="M0.339,0.01C0.249,0.01 0.18,-0.013 0.131,-0.06C0.083,-0.106 0.058,-0.173 0.058,-0.26C0.058,-0.344 0.079,-0.41 0.12,-0.457C0.162,-0.504 0.22,-0.527 0.296,-0.527C0.37,-0.527 0.427,-0.506 0.467,-0.462C0.508,-0.419 0.528,-0.356 0.528,-0.273C0.528,-0.25 0.527,-0.228 0.525,-0.207L0.196,-0.207C0.216,-0.146 0.268,-0.115 0.351,-0.115C0.374,-0.115 0.397,-0.116 0.42,-0.119C0.443,-0.121 0.466,-0.125 0.49,-0.129L0.502,-0.004C0.469,0.002 0.439,0.006 0.412,0.007C0.384,0.009 0.36,0.01 0.339,0.01ZM0.19,-0.298L0.398,-0.298C0.398,-0.333 0.389,-0.36 0.371,-0.378C0.354,-0.397 0.329,-0.406 0.297,-0.406C0.267,-0.406 0.243,-0.397 0.224,-0.378C0.206,-0.359 0.194,-0.333 0.19,-0.298ZM0.23,-0.609L0.321,-0.795L0.461,-0.795L0.361,-0.609L0.23,-0.609Z" style="fill:white;fill-rule:nonzero;"/>
        </g>
        <g transform="matrix(12,0,0,12,228.456,96.4205)">
            <path d="M0.182,-0L0.182,-0.301L0.025,-0.301L0.025,-0.415L0.182,-0.415L0.182,-0.474C0.182,-0.653 0.269,-0.742 0.441,-0.742C0.481,-0.742 0.52,-0.739 0.557,-0.732L0.544,-0.61C0.523,-0.612 0.503,-0.614 0.487,-0.615C0.47,-0.616 0.454,-0.617 0.438,-0.617C0.355,-0.617 0.314,-0.571 0.314,-0.479L0.314,-0.415L0.52,-0.415L0.52,-0.301L0.314,-0.301L0.314,-0L0.182,-0Z" style="fill:white;fill-rule:nonzero;"/>
        </g>
        <g transform="matrix(12,0,0,12,235.487,96.4205)">
            <path d="M0.388,0.005L0.38,-0.109L0.368,-0.109C0.363,-0.07 0.347,-0.04 0.321,-0.02C0.294,-0 0.258,0.01 0.213,0.01C0.158,0.01 0.115,-0.004 0.084,-0.031C0.054,-0.058 0.039,-0.096 0.039,-0.146C0.039,-0.204 0.059,-0.248 0.099,-0.279C0.139,-0.31 0.195,-0.326 0.269,-0.326C0.291,-0.326 0.31,-0.325 0.326,-0.323C0.343,-0.322 0.359,-0.319 0.375,-0.315L0.375,-0.317C0.375,-0.345 0.363,-0.365 0.34,-0.378C0.316,-0.391 0.281,-0.398 0.234,-0.399L0.102,-0.402L0.112,-0.522L0.225,-0.521C0.318,-0.52 0.388,-0.501 0.434,-0.466C0.479,-0.43 0.502,-0.378 0.502,-0.31L0.502,-0.118L0.574,-0.107L0.574,-0L0.388,0.005ZM0.375,-0.207C0.356,-0.21 0.339,-0.213 0.324,-0.213C0.308,-0.214 0.292,-0.214 0.275,-0.214C0.207,-0.214 0.173,-0.195 0.173,-0.156C0.173,-0.12 0.197,-0.102 0.246,-0.102C0.274,-0.102 0.297,-0.107 0.316,-0.117C0.335,-0.127 0.35,-0.14 0.359,-0.156C0.369,-0.173 0.374,-0.189 0.375,-0.207Z" style="fill:white;fill-rule:nonzero;"/>
        </g>
        <g transform="matrix(12,0,0,12,242.518,96.4205)">
            <path d="M0.218,0.01C0.169,0.01 0.131,-0.006 0.104,-0.039C0.076,-0.071 0.063,-0.117 0.063,-0.176L0.063,-0.518L0.195,-0.518L0.195,-0.208C0.195,-0.179 0.202,-0.156 0.216,-0.14C0.229,-0.124 0.248,-0.116 0.271,-0.116C0.302,-0.116 0.326,-0.128 0.342,-0.152C0.357,-0.176 0.365,-0.216 0.365,-0.272L0.365,-0.518L0.498,-0.518L0.498,-0.118L0.569,-0.107L0.569,-0L0.374,0.005L0.367,-0.1L0.352,-0.1C0.343,-0.064 0.328,-0.037 0.304,-0.019C0.281,0 0.252,0.01 0.218,0.01Z" style="fill:white;fill-rule:nonzero;"/>
        </g>
        <g transform="matrix(12,0,0,12,249.55,96.4205)">
            <path d="M0.403,0.01C0.314,0.01 0.249,-0.008 0.209,-0.044C0.17,-0.08 0.15,-0.137 0.15,-0.216L0.15,-0.396L0.026,-0.396L0.026,-0.518L0.15,-0.518L0.15,-0.674L0.282,-0.674L0.282,-0.518L0.511,-0.518L0.511,-0.396L0.282,-0.396L0.282,-0.229C0.282,-0.189 0.292,-0.16 0.312,-0.143C0.333,-0.125 0.366,-0.116 0.413,-0.116C0.428,-0.116 0.444,-0.117 0.461,-0.118C0.478,-0.12 0.497,-0.123 0.519,-0.125L0.531,-0.002C0.509,0.002 0.488,0.005 0.468,0.007C0.448,0.009 0.426,0.01 0.403,0.01Z" style="fill:white;fill-rule:nonzero;"/>
        </g>
        <g transform="matrix(12,0,0,12,256.581,96.4205)">
            <path d="M0.12,-0.381L0.102,-0.693L0.256,-0.693L0.238,-0.381L0.12,-0.381ZM0.35,-0.381L0.332,-0.693L0.486,-0.693L0.468,-0.381L0.35,-0.381Z" style="fill:white;fill-rule:nonzero;"/>
        </g>
        <g transform="matrix(12,0,0,12,263.612,96.4205)">
            <path d="M0.091,0.098L0.091,-0.025L0.112,-0.025C0.181,-0.025 0.235,-0.053 0.272,-0.11C0.31,-0.167 0.329,-0.247 0.329,-0.35C0.329,-0.451 0.31,-0.529 0.272,-0.585C0.235,-0.641 0.181,-0.668 0.112,-0.668L0.091,-0.668L0.091,-0.791L0.112,-0.791C0.224,-0.791 0.31,-0.753 0.372,-0.676C0.433,-0.599 0.464,-0.49 0.464,-0.35C0.464,-0.207 0.433,-0.097 0.372,-0.019C0.31,0.059 0.224,0.098 0.112,0.098L0.091,0.098Z" style="fill:white;fill-rule:nonzero;"/>
        </g>
        <g transform="matrix(12,0,0,12,270.643,96.4205)">
            <path d="M0.293,0.01C0.266,0.01 0.243,0 0.225,-0.019C0.206,-0.037 0.196,-0.06 0.196,-0.087C0.196,-0.114 0.206,-0.137 0.225,-0.156C0.243,-0.174 0.266,-0.184 0.293,-0.184C0.32,-0.184 0.343,-0.174 0.362,-0.156C0.38,-0.137 0.39,-0.114 0.39,-0.087C0.39,-0.06 0.38,-0.037 0.362,-0.019C0.343,0 0.32,0.01 0.293,0.01ZM0.293,-0.334C0.266,-0.334 0.243,-0.343 0.225,-0.362C0.206,-0.381 0.196,-0.404 0.196,-0.431C0.196,-0.458 0.206,-0.481 0.225,-0.499C0.243,-0.518 0.266,-0.527 0.293,-0.527C0.32,-0.527 0.343,-0.518 0.362,-0.499C0.38,-0.481 0.39,-0.458 0.39,-0.431C0.39,-0.404 0.38,-0.381 0.362,-0.362C0.343,-0.343 0.32,-0.334 0.293,-0.334Z" style="fill:white;fill-rule:nonzero;"/>
        </g>
    </g>
    <g transform="matrix(2.17987,0,0,2.17987,128.852,-158.986)">
        <g transform="matrix(12,0,0,12,24.5497,96.4205)">
            <path d="M0.242,0.01C0.178,0.01 0.128,-0.013 0.092,-0.06C0.056,-0.106 0.039,-0.172 0.039,-0.258C0.039,-0.344 0.056,-0.41 0.092,-0.457C0.128,-0.504 0.178,-0.527 0.243,-0.527C0.28,-0.527 0.309,-0.519 0.329,-0.502C0.349,-0.485 0.361,-0.459 0.367,-0.424L0.38,-0.424L0.38,-0.732L0.512,-0.732L0.512,-0L0.399,0.005L0.38,-0.094L0.369,-0.094C0.364,-0.059 0.35,-0.033 0.329,-0.016C0.307,0.001 0.278,0.01 0.242,0.01ZM0.38,-0.258C0.38,-0.308 0.372,-0.345 0.355,-0.368C0.338,-0.391 0.313,-0.403 0.279,-0.403C0.247,-0.403 0.222,-0.39 0.204,-0.365C0.187,-0.34 0.178,-0.304 0.178,-0.258C0.178,-0.163 0.211,-0.115 0.279,-0.115C0.317,-0.115 0.343,-0.126 0.358,-0.149C0.372,-0.172 0.38,-0.208 0.38,-0.258Z" style="fill:white;fill-rule:nonzero;"/>
        </g>
        <g transform="matrix(12,0,0,12,31.581,96.4205)">
            <path d="M0.339,0.01C0.249,0.01 0.18,-0.013 0.131,-0.06C0.083,-0.106 0.058,-0.173 0.058,-0.26C0.058,-0.344 0.079,-0.41 0.12,-0.457C0.162,-0.504 0.22,-0.527 0.296,-0.527C0.37,-0.527 0.427,-0.506 0.467,-0.462C0.508,-0.419 0.528,-0.356 0.528,-0.273C0.528,-0.25 0.527,-0.228 0.525,-0.207L0.196,-0.207C0.216,-0.146 0.268,-0.115 0.351,-0.115C0.374,-0.115 0.397,-0.116 0.42,-0.119C0.443,-0.121 0.466,-0.125 0.49,-0.129L0.502,-0.004C0.469,0.002 0.439,0.006 0.412,0.007C0.384,0.009 0.36,0.01 0.339,0.01ZM0.19,-0.298L0.398,-0.298C0.398,-0.333 0.389,-0.36 0.371,-0.378C0.354,-0.397 0.329,-0.406 0.297,-0.406C0.267,-0.406 0.243,-0.397 0.224,-0.378C0.206,-0.359 0.194,-0.333 0.19,-0.298Z" style="fill:white;fill-rule:nonzero;"/>
        </g>
        <g transform="matrix(12,0,0,12,38.6122,96.4205)">
            <path d="M0.182,-0L0.182,-0.301L0.025,-0.301L0.025,-0.415L0.182,-0.415L0.182,-0.474C0.182,-0.653 0.269,-0.742 0.441,-0.742C0.481,-0.742 0.52,-0.739 0.557,-0.732L0.544,-0.61C0.523,-0.612 0.503,-0.614 0.487,-0.615C0.47,-0.616 0.454,-0.617 0.438,-0.617C0.355,-0.617 0.314,-0.571 0.314,-0.479L0.314,-0.415L0.52,-0.415L0.52,-0.301L0.314,-0.301L0.314,-0L0.182,-0Z" style="fill:white;fill-rule:nonzero;"/>
        </g>
    </g>
</svg>
