<?xml version="1.0" encoding="UTF-8" standalone="no"?>
<!DOCTYPE svg PUBLIC "-//W3C//DTD SVG 1.1//EN" "http://www.w3.org/Graphics/SVG/1.1/DTD/svg11.dtd">
<svg width="100%" height="100%" viewBox="0 0 750 64" version="1.1" xmlns="http://www.w3.org/2000/svg" xmlns:xlink="http://www.w3.org/1999/xlink" xml:space="preserve" xmlns:serif="http://www.serif.com/" style="fill-rule:evenodd;clip-rule:evenodd;stroke-linejoin:round;stroke-miterlimit:2;">
    <rect id="Back" x="0" y="0" width="750" height="64" style="fill:white;"/>
    <g id="Icon" transform="matrix(0.125,0,0,0.125,0,0)">
        <rect id="Basic" x="0" y="0" width="512" height="512" style="fill:url(#_Linear1);"/>
        <g transform="matrix(0.978358,0,0,0.988688,2.92794,-3.99101)">
            <rect x="35.046" y="41.678" width="447.249" height="442.576" style="fill:url(#_Linear2);"/>
        </g>
        <g transform="matrix(34.3667,0,0,34.3667,-4284.05,-9082.62)">
            <g transform="matrix(12,0,0,12,127.22,275.983)">
                <path d="M0.443,-0.193C0.443,-0.131 0.424,-0.083 0.387,-0.05C0.35,-0.017 0.301,-0 0.242,-0L0.053,-0C0.05,-0 0.047,-0.001 0.045,-0.004C0.042,-0.006 0.041,-0.009 0.041,-0.012L0.041,-0.688C0.041,-0.691 0.042,-0.694 0.045,-0.697C0.047,-0.699 0.05,-0.7 0.053,-0.7L0.22,-0.7C0.287,-0.7 0.339,-0.684 0.377,-0.652C0.414,-0.62 0.433,-0.572 0.433,-0.509C0.433,-0.443 0.41,-0.395 0.365,-0.365C0.362,-0.363 0.362,-0.361 0.364,-0.359C0.417,-0.322 0.443,-0.266 0.443,-0.193ZM0.187,-0.579C0.184,-0.579 0.182,-0.577 0.182,-0.574L0.182,-0.417C0.182,-0.414 0.184,-0.412 0.187,-0.412L0.222,-0.412C0.245,-0.412 0.263,-0.419 0.276,-0.434C0.289,-0.448 0.295,-0.468 0.295,-0.494C0.295,-0.521 0.289,-0.542 0.276,-0.557C0.263,-0.572 0.245,-0.579 0.222,-0.579L0.187,-0.579ZM0.231,-0.122C0.253,-0.122 0.27,-0.13 0.283,-0.146C0.296,-0.162 0.302,-0.185 0.302,-0.214C0.302,-0.243 0.296,-0.267 0.283,-0.284C0.27,-0.301 0.253,-0.31 0.232,-0.31L0.187,-0.31C0.184,-0.31 0.182,-0.308 0.182,-0.305L0.182,-0.127C0.182,-0.124 0.184,-0.122 0.187,-0.122L0.231,-0.122Z" style="fill:white;fill-rule:nonzero;"/>
            </g>
            <g transform="matrix(12,0,0,12,132.752,275.983)">
                <path d="M0.093,-0.052C0.092,-0.051 0.092,-0.05 0.093,-0.049C0.094,-0.048 0.095,-0.047 0.096,-0.047L0.336,-0.047C0.343,-0.047 0.346,-0.044 0.346,-0.037L0.346,-0.01C0.346,-0.003 0.343,-0 0.336,-0L0.038,-0C0.031,-0 0.028,-0.003 0.028,-0.01L0.028,-0.04C0.028,-0.045 0.029,-0.049 0.031,-0.053C0.112,-0.188 0.17,-0.285 0.204,-0.344C0.249,-0.422 0.271,-0.486 0.271,-0.537C0.271,-0.574 0.262,-0.604 0.245,-0.627C0.227,-0.65 0.203,-0.661 0.174,-0.661C0.145,-0.661 0.123,-0.65 0.106,-0.627C0.089,-0.605 0.08,-0.575 0.081,-0.538L0.081,-0.502C0.081,-0.495 0.078,-0.492 0.071,-0.492L0.037,-0.492C0.03,-0.492 0.027,-0.495 0.027,-0.502L0.027,-0.54C0.028,-0.59 0.042,-0.63 0.069,-0.662C0.096,-0.693 0.132,-0.708 0.176,-0.708C0.221,-0.708 0.257,-0.692 0.283,-0.661C0.311,-0.63 0.324,-0.588 0.324,-0.537C0.324,-0.475 0.3,-0.403 0.253,-0.321C0.218,-0.262 0.192,-0.218 0.174,-0.189C0.163,-0.17 0.15,-0.149 0.137,-0.126C0.123,-0.103 0.108,-0.079 0.093,-0.052Z" style="fill:white;fill-rule:nonzero;"/>
            </g>
        </g>
    </g>
    <g transform="matrix(4.67711,0,0,4.67711,-462.664,-122.093)">
        <g transform="matrix(12,0,0,12,116.119,37.2782)">
            <path d="M0.48,-0.365C0.476,-0.363 0.476,-0.361 0.48,-0.359C0.544,-0.326 0.576,-0.272 0.576,-0.196C0.576,-0.131 0.554,-0.083 0.51,-0.05C0.466,-0.017 0.408,-0 0.337,-0L0.078,-0C0.075,-0 0.072,-0.001 0.07,-0.004C0.067,-0.006 0.066,-0.009 0.066,-0.012L0.066,-0.688C0.066,-0.691 0.067,-0.694 0.07,-0.697C0.072,-0.699 0.075,-0.7 0.078,-0.7L0.328,-0.7C0.487,-0.7 0.566,-0.636 0.566,-0.508C0.566,-0.441 0.537,-0.394 0.48,-0.365ZM0.212,-0.579C0.209,-0.579 0.207,-0.577 0.207,-0.574L0.207,-0.418C0.207,-0.415 0.209,-0.413 0.212,-0.413L0.328,-0.413C0.359,-0.413 0.384,-0.42 0.402,-0.435C0.419,-0.45 0.428,-0.47 0.428,-0.495C0.428,-0.521 0.419,-0.542 0.402,-0.557C0.384,-0.572 0.359,-0.579 0.328,-0.579L0.212,-0.579ZM0.337,-0.122C0.368,-0.122 0.392,-0.13 0.409,-0.146C0.426,-0.161 0.435,-0.183 0.435,-0.21C0.435,-0.237 0.426,-0.259 0.408,-0.275C0.391,-0.29 0.367,-0.298 0.336,-0.298L0.212,-0.298C0.209,-0.298 0.207,-0.296 0.207,-0.293L0.207,-0.127C0.207,-0.124 0.209,-0.122 0.212,-0.122L0.337,-0.122Z" style="fill-rule:nonzero;"/>
        </g>
        <g transform="matrix(12,0,0,12,123.427,37.2782)">
            <path d="M0.26,-0.522C0.303,-0.522 0.342,-0.515 0.376,-0.5C0.41,-0.485 0.437,-0.464 0.456,-0.438C0.474,-0.412 0.484,-0.383 0.484,-0.351L0.484,-0.012C0.484,-0.009 0.483,-0.006 0.481,-0.004C0.478,-0.001 0.475,-0 0.472,-0L0.355,-0C0.352,-0 0.349,-0.001 0.346,-0.004C0.344,-0.006 0.343,-0.009 0.343,-0.012L0.343,-0.045C0.343,-0.047 0.342,-0.048 0.341,-0.049C0.34,-0.05 0.338,-0.049 0.337,-0.047C0.308,-0.01 0.263,0.008 0.201,0.008C0.15,0.008 0.108,-0.005 0.076,-0.03C0.044,-0.055 0.028,-0.093 0.028,-0.142C0.028,-0.193 0.046,-0.233 0.082,-0.262C0.118,-0.29 0.169,-0.304 0.236,-0.304L0.338,-0.304C0.341,-0.304 0.343,-0.306 0.343,-0.309L0.343,-0.331C0.343,-0.353 0.336,-0.37 0.323,-0.383C0.309,-0.395 0.289,-0.401 0.263,-0.401C0.242,-0.401 0.225,-0.397 0.212,-0.39C0.198,-0.383 0.189,-0.372 0.185,-0.359C0.183,-0.352 0.179,-0.348 0.172,-0.349L0.051,-0.365C0.043,-0.366 0.039,-0.369 0.04,-0.374C0.043,-0.402 0.054,-0.427 0.074,-0.45C0.093,-0.473 0.119,-0.49 0.152,-0.503C0.184,-0.516 0.22,-0.522 0.26,-0.522ZM0.24,-0.097C0.269,-0.097 0.293,-0.105 0.313,-0.12C0.333,-0.135 0.343,-0.155 0.343,-0.179L0.343,-0.215C0.343,-0.218 0.341,-0.22 0.338,-0.22L0.266,-0.22C0.236,-0.22 0.213,-0.214 0.196,-0.203C0.179,-0.192 0.17,-0.176 0.17,-0.155C0.17,-0.137 0.176,-0.123 0.189,-0.113C0.202,-0.102 0.219,-0.097 0.24,-0.097Z" style="fill-rule:nonzero;"/>
        </g>
        <g transform="matrix(12,0,0,12,129.811,37.2782)">
            <path d="M0.247,0.007C0.202,0.007 0.163,0.001 0.13,-0.012C0.097,-0.025 0.071,-0.042 0.053,-0.065C0.035,-0.088 0.026,-0.113 0.026,-0.142L0.026,-0.152C0.026,-0.155 0.027,-0.158 0.029,-0.161C0.032,-0.163 0.035,-0.164 0.038,-0.164L0.149,-0.164C0.152,-0.164 0.155,-0.163 0.158,-0.161C0.16,-0.158 0.161,-0.155 0.161,-0.152L0.161,-0.151C0.161,-0.136 0.169,-0.124 0.185,-0.114C0.201,-0.103 0.221,-0.098 0.246,-0.098C0.269,-0.098 0.287,-0.102 0.301,-0.111C0.315,-0.12 0.322,-0.131 0.322,-0.145C0.322,-0.157 0.316,-0.166 0.304,-0.172C0.292,-0.178 0.272,-0.184 0.245,-0.191C0.214,-0.199 0.189,-0.207 0.171,-0.214C0.128,-0.229 0.094,-0.247 0.069,-0.268C0.044,-0.289 0.031,-0.32 0.031,-0.36C0.031,-0.409 0.05,-0.449 0.089,-0.477C0.128,-0.506 0.178,-0.521 0.241,-0.521C0.284,-0.521 0.321,-0.514 0.354,-0.5C0.386,-0.487 0.411,-0.468 0.429,-0.443C0.446,-0.418 0.455,-0.39 0.455,-0.359C0.455,-0.356 0.454,-0.353 0.452,-0.35C0.449,-0.348 0.446,-0.347 0.443,-0.347L0.335,-0.347C0.332,-0.347 0.329,-0.348 0.327,-0.35C0.324,-0.353 0.323,-0.356 0.323,-0.359C0.323,-0.374 0.316,-0.386 0.301,-0.396C0.286,-0.406 0.267,-0.411 0.242,-0.411C0.219,-0.411 0.201,-0.407 0.187,-0.399C0.173,-0.391 0.166,-0.38 0.166,-0.366C0.166,-0.353 0.173,-0.343 0.187,-0.336C0.2,-0.329 0.223,-0.322 0.254,-0.315C0.273,-0.311 0.292,-0.306 0.31,-0.3C0.357,-0.286 0.395,-0.268 0.422,-0.246C0.449,-0.224 0.463,-0.192 0.463,-0.15C0.463,-0.101 0.444,-0.062 0.405,-0.035C0.366,-0.007 0.313,0.007 0.247,0.007Z" style="fill-rule:nonzero;"/>
        </g>
        <g transform="matrix(12,0,0,12,135.739,37.2782)">
            <path d="M0.132,-0.572C0.109,-0.572 0.091,-0.58 0.076,-0.595C0.061,-0.61 0.054,-0.628 0.054,-0.651C0.054,-0.674 0.061,-0.693 0.076,-0.708C0.091,-0.723 0.109,-0.73 0.132,-0.73C0.155,-0.73 0.174,-0.723 0.189,-0.708C0.204,-0.693 0.211,-0.674 0.211,-0.651C0.211,-0.628 0.203,-0.61 0.189,-0.595C0.173,-0.58 0.155,-0.572 0.132,-0.572ZM0.06,-0.503C0.06,-0.506 0.061,-0.509 0.064,-0.511C0.066,-0.514 0.069,-0.515 0.072,-0.515L0.189,-0.515C0.192,-0.515 0.195,-0.514 0.198,-0.511C0.2,-0.509 0.201,-0.506 0.201,-0.503L0.201,-0.012C0.201,-0.009 0.2,-0.006 0.198,-0.004C0.195,-0.001 0.192,-0 0.189,-0L0.072,-0C0.069,-0 0.066,-0.001 0.064,-0.004C0.061,-0.006 0.06,-0.009 0.06,-0.012L0.06,-0.503Z" style="fill-rule:nonzero;"/>
        </g>
        <g transform="matrix(12,0,0,12,138.871,37.2782)">
            <path d="M0.273,0.008C0.22,0.008 0.173,-0.005 0.135,-0.032C0.096,-0.059 0.068,-0.095 0.051,-0.142C0.04,-0.175 0.034,-0.215 0.034,-0.26C0.034,-0.305 0.04,-0.343 0.051,-0.376C0.067,-0.421 0.095,-0.457 0.135,-0.483C0.174,-0.509 0.22,-0.522 0.273,-0.522C0.326,-0.522 0.373,-0.509 0.413,-0.482C0.454,-0.455 0.481,-0.422 0.494,-0.381C0.499,-0.365 0.502,-0.353 0.502,-0.345L0.502,-0.343C0.502,-0.337 0.499,-0.333 0.492,-0.332L0.377,-0.315L0.375,-0.315C0.369,-0.315 0.365,-0.318 0.363,-0.325L0.36,-0.341C0.355,-0.358 0.345,-0.373 0.329,-0.384C0.313,-0.395 0.294,-0.401 0.272,-0.401C0.251,-0.401 0.233,-0.396 0.218,-0.385C0.203,-0.374 0.193,-0.36 0.187,-0.341C0.18,-0.321 0.176,-0.294 0.176,-0.259C0.176,-0.224 0.179,-0.197 0.186,-0.177C0.192,-0.157 0.203,-0.141 0.218,-0.13C0.233,-0.119 0.251,-0.113 0.272,-0.113C0.293,-0.113 0.312,-0.118 0.327,-0.13C0.342,-0.141 0.353,-0.156 0.359,-0.175C0.36,-0.176 0.36,-0.178 0.36,-0.181C0.361,-0.182 0.361,-0.183 0.361,-0.184C0.362,-0.192 0.366,-0.195 0.375,-0.194L0.49,-0.176C0.497,-0.175 0.5,-0.171 0.5,-0.165C0.5,-0.16 0.498,-0.15 0.494,-0.135C0.48,-0.09 0.453,-0.055 0.412,-0.03C0.372,-0.005 0.326,0.008 0.273,0.008Z" style="fill-rule:nonzero;"/>
        </g>
        <g transform="matrix(12,0,0,12,147.583,37.2782)">
            <path d="M0.167,-0.088C0.166,-0.087 0.166,-0.086 0.167,-0.085C0.168,-0.084 0.169,-0.083 0.17,-0.083L0.47,-0.083C0.477,-0.083 0.48,-0.08 0.48,-0.073L0.48,-0.01C0.48,-0.003 0.477,-0 0.47,-0L0.052,-0C0.045,-0 0.042,-0.003 0.042,-0.01L0.042,-0.071C0.042,-0.076 0.044,-0.08 0.047,-0.083C0.088,-0.131 0.137,-0.188 0.193,-0.255C0.228,-0.298 0.254,-0.329 0.271,-0.349C0.334,-0.424 0.365,-0.481 0.365,-0.521C0.365,-0.552 0.354,-0.577 0.333,-0.596C0.312,-0.615 0.284,-0.625 0.249,-0.625C0.215,-0.625 0.188,-0.615 0.167,-0.596C0.146,-0.577 0.135,-0.551 0.136,-0.52L0.136,-0.49C0.136,-0.483 0.133,-0.48 0.126,-0.48L0.049,-0.48C0.042,-0.48 0.039,-0.483 0.039,-0.49L0.039,-0.533C0.04,-0.568 0.05,-0.598 0.069,-0.625C0.087,-0.652 0.112,-0.672 0.143,-0.687C0.174,-0.701 0.21,-0.708 0.249,-0.708C0.292,-0.708 0.329,-0.7 0.362,-0.684C0.394,-0.668 0.419,-0.646 0.436,-0.618C0.453,-0.59 0.462,-0.558 0.462,-0.523C0.462,-0.468 0.432,-0.402 0.372,-0.327C0.345,-0.293 0.314,-0.255 0.277,-0.213C0.24,-0.17 0.204,-0.129 0.167,-0.088Z" style="fill-rule:nonzero;"/>
        </g>
    </g>
    <g id="Basic1" serif:id="Basic" transform="matrix(0.484412,0,0,0.723243,380.471,8.85622)">
        <rect x="-229.223" y="26.188" width="967.158" height="11.624" style="fill:url(#_Linear3);"/>
    </g>
    <defs>
        <linearGradient id="_Linear1" x1="0" y1="0" x2="1" y2="0" gradientUnits="userSpaceOnUse" gradientTransform="matrix(512,-512,512,512,0,512)"><stop offset="0" style="stop-color:rgb(0,219,222);stop-opacity:1"/><stop offset="1" style="stop-color:rgb(252,0,255);stop-opacity:1"/></linearGradient>
        <linearGradient id="_Linear2" x1="0" y1="0" x2="1" y2="0" gradientUnits="userSpaceOnUse" gradientTransform="matrix(2.73861e-14,-442.576,447.249,2.71e-14,258.67,484.254)"><stop offset="0" style="stop-color:black;stop-opacity:0.7"/><stop offset="0.5" style="stop-color:black;stop-opacity:0.53"/><stop offset="1" style="stop-color:black;stop-opacity:0"/></linearGradient>
        <linearGradient id="_Linear3" x1="0" y1="0" x2="1" y2="0" gradientUnits="userSpaceOnUse" gradientTransform="matrix(967.158,7.10543e-15,-1.43553e-14,478.713,-229.223,32)"><stop offset="0" style="stop-color:rgb(0,219,222);stop-opacity:1"/><stop offset="1" style="stop-color:rgb(252,0,255);stop-opacity:1"/></linearGradient>
    </defs>
</svg>
