<?xml version="1.0" encoding="UTF-8" standalone="no"?>
<!DOCTYPE svg PUBLIC "-//W3C//DTD SVG 1.1//EN" "http://www.w3.org/Graphics/SVG/1.1/DTD/svg11.dtd">
<svg width="100%" height="100%" viewBox="0 0 1000 230" version="1.1" xmlns="http://www.w3.org/2000/svg" xmlns:xlink="http://www.w3.org/1999/xlink" xml:space="preserve" xmlns:serif="http://www.serif.com/" style="fill-rule:evenodd;clip-rule:evenodd;stroke-linejoin:round;stroke-miterlimit:2;">
    <g id="IDE-back" serif:id="IDE back" transform="matrix(1.53548,0,0,0.449001,106.917,0.111514)">
        <rect x="0" y="0" width="512" height="512" style="fill:rgb(41,46,53);"/>
    </g>
    <g transform="matrix(0.770597,0,0,1.15509,32.4347,-65.515)">
        <path d="M462.936,99.442C462.936,94.664 457.121,90.785 449.959,90.785L137.472,90.785C130.31,90.785 124.495,94.664 124.495,99.442L124.495,194.941C124.495,199.719 130.31,203.598 137.472,203.598L449.959,203.598C457.121,203.598 462.936,199.719 462.936,194.941L462.936,99.442Z" style="fill:rgb(0,182,186);fill-opacity:0.14;"/>
    </g>
    <g transform="matrix(0.770597,0,0,1.60989,514.893,-105.885)">
        <path d="M462.936,96.996C462.936,93.568 457.121,90.785 449.959,90.785L137.472,90.785C130.31,90.785 124.495,93.568 124.495,96.996L124.495,197.387C124.495,200.815 130.31,203.598 137.472,203.598L449.959,203.598C457.121,203.598 462.936,200.815 462.936,197.387L462.936,96.996Z" style="fill:rgb(255,192,0);fill-opacity:0.14;"/>
    </g>
    <g transform="matrix(2.17987,0,0,2.17987,95.3966,-106.45)">
        <g transform="matrix(9.17486,0,0,9.17486,24.5497,96.4205)">
            <path d="M0.339,0.01C0.249,0.01 0.18,-0.013 0.131,-0.06C0.083,-0.106 0.058,-0.173 0.058,-0.26C0.058,-0.344 0.079,-0.41 0.12,-0.457C0.162,-0.504 0.22,-0.527 0.296,-0.527C0.37,-0.527 0.427,-0.506 0.467,-0.462C0.508,-0.419 0.528,-0.356 0.528,-0.273C0.528,-0.25 0.527,-0.228 0.525,-0.207L0.196,-0.207C0.216,-0.146 0.268,-0.115 0.351,-0.115C0.374,-0.115 0.397,-0.116 0.42,-0.119C0.443,-0.121 0.466,-0.125 0.49,-0.129L0.502,-0.004C0.469,0.002 0.439,0.006 0.412,0.007C0.384,0.009 0.36,0.01 0.339,0.01ZM0.19,-0.298L0.398,-0.298C0.398,-0.333 0.389,-0.36 0.371,-0.378C0.354,-0.397 0.329,-0.406 0.297,-0.406C0.267,-0.406 0.243,-0.397 0.224,-0.378C0.206,-0.359 0.194,-0.333 0.19,-0.298Z" style="fill:white;fill-rule:nonzero;"/>
        </g>
        <g transform="matrix(9.17486,0,0,9.17486,29.9256,96.4205)">
            <path d="M0.253,0.01C0.175,0.01 0.114,0.005 0.068,-0.005L0.083,-0.131C0.125,-0.126 0.159,-0.122 0.187,-0.12C0.215,-0.117 0.237,-0.116 0.253,-0.116C0.296,-0.116 0.326,-0.119 0.345,-0.125C0.365,-0.131 0.374,-0.14 0.374,-0.154C0.374,-0.168 0.364,-0.178 0.343,-0.184L0.18,-0.233C0.145,-0.243 0.119,-0.259 0.102,-0.279C0.084,-0.3 0.076,-0.327 0.076,-0.362C0.076,-0.472 0.17,-0.527 0.359,-0.527C0.382,-0.527 0.405,-0.527 0.428,-0.525C0.452,-0.523 0.478,-0.521 0.504,-0.518L0.49,-0.395C0.461,-0.398 0.435,-0.399 0.413,-0.4C0.39,-0.401 0.372,-0.402 0.356,-0.402C0.307,-0.402 0.272,-0.399 0.249,-0.393C0.227,-0.388 0.216,-0.378 0.216,-0.365C0.216,-0.351 0.226,-0.341 0.245,-0.335L0.385,-0.295C0.43,-0.283 0.463,-0.265 0.485,-0.242C0.507,-0.22 0.518,-0.19 0.518,-0.153C0.518,-0.045 0.43,0.01 0.253,0.01Z" style="fill:white;fill-rule:nonzero;"/>
        </g>
        <g transform="matrix(9.17486,0,0,9.17486,35.3015,96.4205)">
            <path d="M0.253,0.01C0.175,0.01 0.114,0.005 0.068,-0.005L0.083,-0.131C0.125,-0.126 0.159,-0.122 0.187,-0.12C0.215,-0.117 0.237,-0.116 0.253,-0.116C0.296,-0.116 0.326,-0.119 0.345,-0.125C0.365,-0.131 0.374,-0.14 0.374,-0.154C0.374,-0.168 0.364,-0.178 0.343,-0.184L0.18,-0.233C0.145,-0.243 0.119,-0.259 0.102,-0.279C0.084,-0.3 0.076,-0.327 0.076,-0.362C0.076,-0.472 0.17,-0.527 0.359,-0.527C0.382,-0.527 0.405,-0.527 0.428,-0.525C0.452,-0.523 0.478,-0.521 0.504,-0.518L0.49,-0.395C0.461,-0.398 0.435,-0.399 0.413,-0.4C0.39,-0.401 0.372,-0.402 0.356,-0.402C0.307,-0.402 0.272,-0.399 0.249,-0.393C0.227,-0.388 0.216,-0.378 0.216,-0.365C0.216,-0.351 0.226,-0.341 0.245,-0.335L0.385,-0.295C0.43,-0.283 0.463,-0.265 0.485,-0.242C0.507,-0.22 0.518,-0.19 0.518,-0.153C0.518,-0.045 0.43,0.01 0.253,0.01Z" style="fill:white;fill-rule:nonzero;"/>
        </g>
        <g transform="matrix(9.17486,0,0,9.17486,40.6774,96.4205)">
            <path d="M0.339,0.01C0.249,0.01 0.18,-0.013 0.131,-0.06C0.083,-0.106 0.058,-0.173 0.058,-0.26C0.058,-0.344 0.079,-0.41 0.12,-0.457C0.162,-0.504 0.22,-0.527 0.296,-0.527C0.37,-0.527 0.427,-0.506 0.467,-0.462C0.508,-0.419 0.528,-0.356 0.528,-0.273C0.528,-0.25 0.527,-0.228 0.525,-0.207L0.196,-0.207C0.216,-0.146 0.268,-0.115 0.351,-0.115C0.374,-0.115 0.397,-0.116 0.42,-0.119C0.443,-0.121 0.466,-0.125 0.49,-0.129L0.502,-0.004C0.469,0.002 0.439,0.006 0.412,0.007C0.384,0.009 0.36,0.01 0.339,0.01ZM0.19,-0.298L0.398,-0.298C0.398,-0.333 0.389,-0.36 0.371,-0.378C0.354,-0.397 0.329,-0.406 0.297,-0.406C0.267,-0.406 0.243,-0.397 0.224,-0.378C0.206,-0.359 0.194,-0.333 0.19,-0.298Z" style="fill:white;fill-rule:nonzero;"/>
        </g>
        <g transform="matrix(9.17486,0,0,9.17486,46.0533,96.4205)">
            <path d="M0.38,-0L0.38,-0.304C0.38,-0.335 0.373,-0.36 0.361,-0.376C0.348,-0.393 0.329,-0.402 0.306,-0.402C0.239,-0.402 0.206,-0.354 0.206,-0.258L0.206,-0L0.074,-0L0.074,-0.518L0.192,-0.518L0.204,-0.424L0.219,-0.424C0.224,-0.459 0.236,-0.485 0.254,-0.502C0.273,-0.519 0.302,-0.527 0.34,-0.527C0.395,-0.527 0.437,-0.511 0.467,-0.478C0.497,-0.444 0.512,-0.397 0.512,-0.337L0.512,-0L0.38,-0Z" style="fill:white;fill-rule:nonzero;"/>
        </g>
        <g transform="matrix(9.17486,0,0,9.17486,51.4292,96.4205)">
            <path d="M0.354,0.01C0.259,0.01 0.187,-0.013 0.135,-0.06C0.084,-0.106 0.058,-0.173 0.058,-0.26C0.058,-0.344 0.082,-0.41 0.128,-0.457C0.175,-0.504 0.242,-0.527 0.329,-0.527C0.382,-0.527 0.428,-0.517 0.467,-0.496C0.505,-0.475 0.532,-0.446 0.548,-0.408L0.452,-0.332C0.422,-0.378 0.38,-0.402 0.325,-0.402C0.285,-0.402 0.254,-0.39 0.232,-0.366C0.209,-0.342 0.198,-0.309 0.198,-0.265C0.198,-0.216 0.213,-0.179 0.242,-0.154C0.271,-0.128 0.312,-0.116 0.365,-0.116C0.389,-0.116 0.412,-0.117 0.435,-0.119C0.459,-0.121 0.481,-0.125 0.503,-0.128L0.517,-0.005C0.491,0.001 0.464,0.005 0.436,0.007C0.408,0.009 0.38,0.01 0.354,0.01Z" style="fill:white;fill-rule:nonzero;"/>
        </g>
        <g transform="matrix(9.17486,0,0,9.17486,56.8051,96.4205)">
            <path d="M0.339,0.01C0.249,0.01 0.18,-0.013 0.131,-0.06C0.083,-0.106 0.058,-0.173 0.058,-0.26C0.058,-0.344 0.079,-0.41 0.12,-0.457C0.162,-0.504 0.22,-0.527 0.296,-0.527C0.37,-0.527 0.427,-0.506 0.467,-0.462C0.508,-0.419 0.528,-0.356 0.528,-0.273C0.528,-0.25 0.527,-0.228 0.525,-0.207L0.196,-0.207C0.216,-0.146 0.268,-0.115 0.351,-0.115C0.374,-0.115 0.397,-0.116 0.42,-0.119C0.443,-0.121 0.466,-0.125 0.49,-0.129L0.502,-0.004C0.469,0.002 0.439,0.006 0.412,0.007C0.384,0.009 0.36,0.01 0.339,0.01ZM0.19,-0.298L0.398,-0.298C0.398,-0.333 0.389,-0.36 0.371,-0.378C0.354,-0.397 0.329,-0.406 0.297,-0.406C0.267,-0.406 0.243,-0.397 0.224,-0.378C0.206,-0.359 0.194,-0.333 0.19,-0.298Z" style="fill:white;fill-rule:nonzero;"/>
        </g>
        <g transform="matrix(9.17486,0,0,9.17486,24.5497,118.44)">
            <path d="M0.38,-0L0.38,-0.304C0.38,-0.335 0.373,-0.36 0.361,-0.376C0.348,-0.393 0.329,-0.402 0.306,-0.402C0.239,-0.402 0.206,-0.354 0.206,-0.258L0.206,-0L0.074,-0L0.074,-0.518L0.192,-0.518L0.204,-0.424L0.219,-0.424C0.224,-0.459 0.236,-0.485 0.254,-0.502C0.273,-0.519 0.302,-0.527 0.34,-0.527C0.395,-0.527 0.437,-0.511 0.467,-0.478C0.497,-0.444 0.512,-0.397 0.512,-0.337L0.512,-0L0.38,-0Z" style="fill:white;fill-rule:nonzero;"/>
        </g>
        <g transform="matrix(9.17486,0,0,9.17486,29.9256,118.44)">
            <path d="M0.07,-0L0.07,-0.122L0.261,-0.122L0.261,-0.396L0.099,-0.396L0.099,-0.518L0.393,-0.518L0.393,-0.122L0.546,-0.122L0.546,-0L0.07,-0ZM0.321,-0.587C0.296,-0.587 0.276,-0.595 0.26,-0.611C0.245,-0.626 0.237,-0.647 0.237,-0.672C0.237,-0.697 0.245,-0.717 0.26,-0.733C0.276,-0.749 0.296,-0.756 0.321,-0.756C0.346,-0.756 0.367,-0.749 0.382,-0.733C0.398,-0.717 0.406,-0.697 0.406,-0.672C0.406,-0.647 0.398,-0.626 0.382,-0.611C0.367,-0.595 0.346,-0.587 0.321,-0.587Z" style="fill:white;fill-rule:nonzero;"/>
        </g>
        <g transform="matrix(9.17486,0,0,9.17486,35.3015,118.44)">
            <path d="M0.208,-0L0.031,-0.518L0.166,-0.518L0.289,-0.116L0.297,-0.116L0.42,-0.518L0.555,-0.518L0.378,-0L0.208,-0Z" style="fill:white;fill-rule:nonzero;"/>
        </g>
        <g transform="matrix(9.17486,0,0,9.17486,40.6774,118.44)">
            <path d="M0.339,0.01C0.249,0.01 0.18,-0.013 0.131,-0.06C0.083,-0.106 0.058,-0.173 0.058,-0.26C0.058,-0.344 0.079,-0.41 0.12,-0.457C0.162,-0.504 0.22,-0.527 0.296,-0.527C0.37,-0.527 0.427,-0.506 0.467,-0.462C0.508,-0.419 0.528,-0.356 0.528,-0.273C0.528,-0.25 0.527,-0.228 0.525,-0.207L0.196,-0.207C0.216,-0.146 0.268,-0.115 0.351,-0.115C0.374,-0.115 0.397,-0.116 0.42,-0.119C0.443,-0.121 0.466,-0.125 0.49,-0.129L0.502,-0.004C0.469,0.002 0.439,0.006 0.412,0.007C0.384,0.009 0.36,0.01 0.339,0.01ZM0.19,-0.298L0.398,-0.298C0.398,-0.333 0.389,-0.36 0.371,-0.378C0.354,-0.397 0.329,-0.406 0.297,-0.406C0.267,-0.406 0.243,-0.397 0.224,-0.378C0.206,-0.359 0.194,-0.333 0.19,-0.298Z" style="fill:white;fill-rule:nonzero;"/>
        </g>
        <g transform="matrix(9.17486,0,0,9.17486,46.0533,118.44)">
            <path d="M0.388,0.005L0.38,-0.109L0.368,-0.109C0.363,-0.07 0.347,-0.04 0.321,-0.02C0.294,-0 0.258,0.01 0.213,0.01C0.158,0.01 0.115,-0.004 0.084,-0.031C0.054,-0.058 0.039,-0.096 0.039,-0.146C0.039,-0.204 0.059,-0.248 0.099,-0.279C0.139,-0.31 0.195,-0.326 0.269,-0.326C0.291,-0.326 0.31,-0.325 0.326,-0.323C0.343,-0.322 0.359,-0.319 0.375,-0.315L0.375,-0.317C0.375,-0.345 0.363,-0.365 0.34,-0.378C0.316,-0.391 0.281,-0.398 0.234,-0.399L0.102,-0.402L0.112,-0.522L0.225,-0.521C0.318,-0.52 0.388,-0.501 0.434,-0.466C0.479,-0.43 0.502,-0.378 0.502,-0.31L0.502,-0.118L0.574,-0.107L0.574,-0L0.388,0.005ZM0.375,-0.207C0.356,-0.21 0.339,-0.213 0.324,-0.213C0.308,-0.214 0.292,-0.214 0.275,-0.214C0.207,-0.214 0.173,-0.195 0.173,-0.156C0.173,-0.12 0.197,-0.102 0.246,-0.102C0.274,-0.102 0.297,-0.107 0.316,-0.117C0.335,-0.127 0.35,-0.14 0.359,-0.156C0.369,-0.173 0.374,-0.189 0.375,-0.207Z" style="fill:white;fill-rule:nonzero;"/>
        </g>
        <g transform="matrix(9.17486,0,0,9.17486,51.4292,118.44)">
            <path d="M0.218,0.01C0.169,0.01 0.131,-0.006 0.104,-0.039C0.076,-0.071 0.063,-0.117 0.063,-0.176L0.063,-0.518L0.195,-0.518L0.195,-0.208C0.195,-0.179 0.202,-0.156 0.216,-0.14C0.229,-0.124 0.248,-0.116 0.271,-0.116C0.302,-0.116 0.326,-0.128 0.342,-0.152C0.357,-0.176 0.365,-0.216 0.365,-0.272L0.365,-0.518L0.498,-0.518L0.498,-0.118L0.569,-0.107L0.569,-0L0.374,0.005L0.367,-0.1L0.352,-0.1C0.343,-0.064 0.328,-0.037 0.304,-0.019C0.281,0 0.252,0.01 0.218,0.01Z" style="fill:white;fill-rule:nonzero;"/>
        </g>
        <g transform="matrix(9.17486,0,0,9.17486,56.8051,118.44)">
            <rect x="0.049" y="-0" width="0.488" height="0.118" style="fill:white;fill-rule:nonzero;"/>
        </g>
        <g transform="matrix(9.17486,0,0,9.17486,62.181,118.44)">
            <path d="M0.272,-0.223L0.272,-0.113L0.393,-0.113L0.393,-0L0.031,-0L0.031,-0.113L0.14,-0.113L0.14,-0.404L0.05,-0.404L0.05,-0.518L0.252,-0.518L0.268,-0.401L0.286,-0.401C0.291,-0.485 0.335,-0.527 0.418,-0.527C0.468,-0.527 0.505,-0.509 0.531,-0.473C0.558,-0.437 0.571,-0.385 0.571,-0.317L0.439,-0.317C0.439,-0.347 0.434,-0.369 0.423,-0.383C0.411,-0.396 0.393,-0.403 0.368,-0.403C0.336,-0.403 0.312,-0.387 0.296,-0.356C0.28,-0.325 0.272,-0.28 0.272,-0.223Z" style="fill:white;fill-rule:nonzero;"/>
        </g>
        <g transform="matrix(9.17486,0,0,9.17486,67.5569,118.44)">
            <path d="M0.339,0.01C0.249,0.01 0.18,-0.013 0.131,-0.06C0.083,-0.106 0.058,-0.173 0.058,-0.26C0.058,-0.344 0.079,-0.41 0.12,-0.457C0.162,-0.504 0.22,-0.527 0.296,-0.527C0.37,-0.527 0.427,-0.506 0.467,-0.462C0.508,-0.419 0.528,-0.356 0.528,-0.273C0.528,-0.25 0.527,-0.228 0.525,-0.207L0.196,-0.207C0.216,-0.146 0.268,-0.115 0.351,-0.115C0.374,-0.115 0.397,-0.116 0.42,-0.119C0.443,-0.121 0.466,-0.125 0.49,-0.129L0.502,-0.004C0.469,0.002 0.439,0.006 0.412,0.007C0.384,0.009 0.36,0.01 0.339,0.01ZM0.19,-0.298L0.398,-0.298C0.398,-0.333 0.389,-0.36 0.371,-0.378C0.354,-0.397 0.329,-0.406 0.297,-0.406C0.267,-0.406 0.243,-0.397 0.224,-0.378C0.206,-0.359 0.194,-0.333 0.19,-0.298Z" style="fill:white;fill-rule:nonzero;"/>
        </g>
        <g transform="matrix(9.17486,0,0,9.17486,72.9328,118.44)">
            <path d="M0.253,0.01C0.175,0.01 0.114,0.005 0.068,-0.005L0.083,-0.131C0.125,-0.126 0.159,-0.122 0.187,-0.12C0.215,-0.117 0.237,-0.116 0.253,-0.116C0.296,-0.116 0.326,-0.119 0.345,-0.125C0.365,-0.131 0.374,-0.14 0.374,-0.154C0.374,-0.168 0.364,-0.178 0.343,-0.184L0.18,-0.233C0.145,-0.243 0.119,-0.259 0.102,-0.279C0.084,-0.3 0.076,-0.327 0.076,-0.362C0.076,-0.472 0.17,-0.527 0.359,-0.527C0.382,-0.527 0.405,-0.527 0.428,-0.525C0.452,-0.523 0.478,-0.521 0.504,-0.518L0.49,-0.395C0.461,-0.398 0.435,-0.399 0.413,-0.4C0.39,-0.401 0.372,-0.402 0.356,-0.402C0.307,-0.402 0.272,-0.399 0.249,-0.393C0.227,-0.388 0.216,-0.378 0.216,-0.365C0.216,-0.351 0.226,-0.341 0.245,-0.335L0.385,-0.295C0.43,-0.283 0.463,-0.265 0.485,-0.242C0.507,-0.22 0.518,-0.19 0.518,-0.153C0.518,-0.045 0.43,0.01 0.253,0.01Z" style="fill:white;fill-rule:nonzero;"/>
        </g>
        <g transform="matrix(9.17486,0,0,9.17486,78.3087,118.44)">
            <path d="M0.339,0.01C0.249,0.01 0.18,-0.013 0.131,-0.06C0.083,-0.106 0.058,-0.173 0.058,-0.26C0.058,-0.344 0.079,-0.41 0.12,-0.457C0.162,-0.504 0.22,-0.527 0.296,-0.527C0.37,-0.527 0.427,-0.506 0.467,-0.462C0.508,-0.419 0.528,-0.356 0.528,-0.273C0.528,-0.25 0.527,-0.228 0.525,-0.207L0.196,-0.207C0.216,-0.146 0.268,-0.115 0.351,-0.115C0.374,-0.115 0.397,-0.116 0.42,-0.119C0.443,-0.121 0.466,-0.125 0.49,-0.129L0.502,-0.004C0.469,0.002 0.439,0.006 0.412,0.007C0.384,0.009 0.36,0.01 0.339,0.01ZM0.19,-0.298L0.398,-0.298C0.398,-0.333 0.389,-0.36 0.371,-0.378C0.354,-0.397 0.329,-0.406 0.297,-0.406C0.267,-0.406 0.243,-0.397 0.224,-0.378C0.206,-0.359 0.194,-0.333 0.19,-0.298Z" style="fill:white;fill-rule:nonzero;"/>
        </g>
        <g transform="matrix(9.17486,0,0,9.17486,83.6846,118.44)">
            <path d="M0.272,-0.223L0.272,-0.113L0.393,-0.113L0.393,-0L0.031,-0L0.031,-0.113L0.14,-0.113L0.14,-0.404L0.05,-0.404L0.05,-0.518L0.252,-0.518L0.268,-0.401L0.286,-0.401C0.291,-0.485 0.335,-0.527 0.418,-0.527C0.468,-0.527 0.505,-0.509 0.531,-0.473C0.558,-0.437 0.571,-0.385 0.571,-0.317L0.439,-0.317C0.439,-0.347 0.434,-0.369 0.423,-0.383C0.411,-0.396 0.393,-0.403 0.368,-0.403C0.336,-0.403 0.312,-0.387 0.296,-0.356C0.28,-0.325 0.272,-0.28 0.272,-0.223Z" style="fill:white;fill-rule:nonzero;"/>
        </g>
        <g transform="matrix(9.17486,0,0,9.17486,89.0605,118.44)">
            <path d="M0.208,-0L0.031,-0.518L0.166,-0.518L0.289,-0.116L0.297,-0.116L0.42,-0.518L0.555,-0.518L0.378,-0L0.208,-0Z" style="fill:white;fill-rule:nonzero;"/>
        </g>
        <g transform="matrix(9.17486,0,0,9.17486,94.4363,118.44)">
            <path d="M0.293,0.01C0.218,0.01 0.161,-0.014 0.12,-0.061C0.079,-0.107 0.058,-0.174 0.058,-0.259C0.058,-0.344 0.079,-0.411 0.12,-0.457C0.161,-0.504 0.218,-0.527 0.293,-0.527C0.368,-0.527 0.425,-0.504 0.466,-0.457C0.507,-0.411 0.528,-0.344 0.528,-0.259C0.528,-0.174 0.507,-0.107 0.466,-0.061C0.425,-0.014 0.368,0.01 0.293,0.01ZM0.293,-0.116C0.323,-0.116 0.347,-0.128 0.363,-0.153C0.379,-0.178 0.388,-0.213 0.388,-0.259C0.388,-0.305 0.379,-0.34 0.363,-0.365C0.347,-0.389 0.323,-0.402 0.293,-0.402C0.263,-0.402 0.24,-0.389 0.223,-0.365C0.207,-0.34 0.198,-0.305 0.198,-0.259C0.198,-0.213 0.207,-0.178 0.223,-0.153C0.24,-0.128 0.263,-0.116 0.293,-0.116Z" style="fill:white;fill-rule:nonzero;"/>
        </g>
        <g transform="matrix(9.17486,0,0,9.17486,99.8122,118.44)">
            <path d="M0.07,-0L0.07,-0.122L0.261,-0.122L0.261,-0.396L0.099,-0.396L0.099,-0.518L0.393,-0.518L0.393,-0.122L0.546,-0.122L0.546,-0L0.07,-0ZM0.321,-0.587C0.296,-0.587 0.276,-0.595 0.26,-0.611C0.245,-0.626 0.237,-0.647 0.237,-0.672C0.237,-0.697 0.245,-0.717 0.26,-0.733C0.276,-0.749 0.296,-0.756 0.321,-0.756C0.346,-0.756 0.367,-0.749 0.382,-0.733C0.398,-0.717 0.406,-0.697 0.406,-0.672C0.406,-0.647 0.398,-0.626 0.382,-0.611C0.367,-0.595 0.346,-0.587 0.321,-0.587Z" style="fill:white;fill-rule:nonzero;"/>
        </g>
        <g transform="matrix(9.17486,0,0,9.17486,105.188,118.44)">
            <path d="M0.272,-0.223L0.272,-0.113L0.393,-0.113L0.393,-0L0.031,-0L0.031,-0.113L0.14,-0.113L0.14,-0.404L0.05,-0.404L0.05,-0.518L0.252,-0.518L0.268,-0.401L0.286,-0.401C0.291,-0.485 0.335,-0.527 0.418,-0.527C0.468,-0.527 0.505,-0.509 0.531,-0.473C0.558,-0.437 0.571,-0.385 0.571,-0.317L0.439,-0.317C0.439,-0.347 0.434,-0.369 0.423,-0.383C0.411,-0.396 0.393,-0.403 0.368,-0.403C0.336,-0.403 0.312,-0.387 0.296,-0.356C0.28,-0.325 0.272,-0.28 0.272,-0.223Z" style="fill:white;fill-rule:nonzero;"/>
        </g>
        <g transform="matrix(9.17486,0,0,9.17486,110.564,118.44)">
            <path d="M0.474,0.098C0.362,0.098 0.275,0.059 0.214,-0.019C0.152,-0.097 0.122,-0.207 0.122,-0.35C0.122,-0.49 0.152,-0.599 0.214,-0.676C0.275,-0.753 0.362,-0.791 0.474,-0.791L0.495,-0.791L0.495,-0.668L0.474,-0.668C0.404,-0.668 0.351,-0.641 0.313,-0.585C0.276,-0.529 0.257,-0.451 0.257,-0.35C0.257,-0.247 0.276,-0.167 0.313,-0.11C0.351,-0.053 0.404,-0.025 0.474,-0.025L0.495,-0.025L0.495,0.098L0.474,0.098Z" style="fill:white;fill-rule:nonzero;"/>
        </g>
        <g transform="matrix(9.17486,0,0,9.17486,115.94,118.44)">
            <path d="M0.091,0.098L0.091,-0.025L0.112,-0.025C0.181,-0.025 0.235,-0.053 0.272,-0.11C0.31,-0.167 0.329,-0.247 0.329,-0.35C0.329,-0.451 0.31,-0.529 0.272,-0.585C0.235,-0.641 0.181,-0.668 0.112,-0.668L0.091,-0.668L0.091,-0.791L0.112,-0.791C0.224,-0.791 0.31,-0.753 0.372,-0.676C0.433,-0.599 0.464,-0.49 0.464,-0.35C0.464,-0.207 0.433,-0.097 0.372,-0.019C0.31,0.059 0.224,0.098 0.112,0.098L0.091,0.098Z" style="fill:white;fill-rule:nonzero;"/>
        </g>
    </g>
    <g transform="matrix(2.17987,0,0,2.17987,577.854,-105.531)">
        <g transform="matrix(9.17486,0,0,9.17486,24.5497,96.4205)">
            <path d="M0.339,0.01C0.249,0.01 0.18,-0.013 0.131,-0.06C0.083,-0.106 0.058,-0.173 0.058,-0.26C0.058,-0.344 0.079,-0.41 0.12,-0.457C0.162,-0.504 0.22,-0.527 0.296,-0.527C0.37,-0.527 0.427,-0.506 0.467,-0.462C0.508,-0.419 0.528,-0.356 0.528,-0.273C0.528,-0.25 0.527,-0.228 0.525,-0.207L0.196,-0.207C0.216,-0.146 0.268,-0.115 0.351,-0.115C0.374,-0.115 0.397,-0.116 0.42,-0.119C0.443,-0.121 0.466,-0.125 0.49,-0.129L0.502,-0.004C0.469,0.002 0.439,0.006 0.412,0.007C0.384,0.009 0.36,0.01 0.339,0.01ZM0.19,-0.298L0.398,-0.298C0.398,-0.333 0.389,-0.36 0.371,-0.378C0.354,-0.397 0.329,-0.406 0.297,-0.406C0.267,-0.406 0.243,-0.397 0.224,-0.378C0.206,-0.359 0.194,-0.333 0.19,-0.298Z" style="fill:rgb(33,250,255);fill-rule:nonzero;"/>
        </g>
        <g transform="matrix(9.17486,0,0,9.17486,29.9256,96.4205)">
            <path d="M0.253,0.01C0.175,0.01 0.114,0.005 0.068,-0.005L0.083,-0.131C0.125,-0.126 0.159,-0.122 0.187,-0.12C0.215,-0.117 0.237,-0.116 0.253,-0.116C0.296,-0.116 0.326,-0.119 0.345,-0.125C0.365,-0.131 0.374,-0.14 0.374,-0.154C0.374,-0.168 0.364,-0.178 0.343,-0.184L0.18,-0.233C0.145,-0.243 0.119,-0.259 0.102,-0.279C0.084,-0.3 0.076,-0.327 0.076,-0.362C0.076,-0.472 0.17,-0.527 0.359,-0.527C0.382,-0.527 0.405,-0.527 0.428,-0.525C0.452,-0.523 0.478,-0.521 0.504,-0.518L0.49,-0.395C0.461,-0.398 0.435,-0.399 0.413,-0.4C0.39,-0.401 0.372,-0.402 0.356,-0.402C0.307,-0.402 0.272,-0.399 0.249,-0.393C0.227,-0.388 0.216,-0.378 0.216,-0.365C0.216,-0.351 0.226,-0.341 0.245,-0.335L0.385,-0.295C0.43,-0.283 0.463,-0.265 0.485,-0.242C0.507,-0.22 0.518,-0.19 0.518,-0.153C0.518,-0.045 0.43,0.01 0.253,0.01Z" style="fill:rgb(33,250,255);fill-rule:nonzero;"/>
        </g>
        <g transform="matrix(9.17486,0,0,9.17486,35.3015,96.4205)">
            <path d="M0.253,0.01C0.175,0.01 0.114,0.005 0.068,-0.005L0.083,-0.131C0.125,-0.126 0.159,-0.122 0.187,-0.12C0.215,-0.117 0.237,-0.116 0.253,-0.116C0.296,-0.116 0.326,-0.119 0.345,-0.125C0.365,-0.131 0.374,-0.14 0.374,-0.154C0.374,-0.168 0.364,-0.178 0.343,-0.184L0.18,-0.233C0.145,-0.243 0.119,-0.259 0.102,-0.279C0.084,-0.3 0.076,-0.327 0.076,-0.362C0.076,-0.472 0.17,-0.527 0.359,-0.527C0.382,-0.527 0.405,-0.527 0.428,-0.525C0.452,-0.523 0.478,-0.521 0.504,-0.518L0.49,-0.395C0.461,-0.398 0.435,-0.399 0.413,-0.4C0.39,-0.401 0.372,-0.402 0.356,-0.402C0.307,-0.402 0.272,-0.399 0.249,-0.393C0.227,-0.388 0.216,-0.378 0.216,-0.365C0.216,-0.351 0.226,-0.341 0.245,-0.335L0.385,-0.295C0.43,-0.283 0.463,-0.265 0.485,-0.242C0.507,-0.22 0.518,-0.19 0.518,-0.153C0.518,-0.045 0.43,0.01 0.253,0.01Z" style="fill:rgb(33,250,255);fill-rule:nonzero;"/>
        </g>
        <g transform="matrix(9.17486,0,0,9.17486,40.6774,96.4205)">
            <path d="M0.339,0.01C0.249,0.01 0.18,-0.013 0.131,-0.06C0.083,-0.106 0.058,-0.173 0.058,-0.26C0.058,-0.344 0.079,-0.41 0.12,-0.457C0.162,-0.504 0.22,-0.527 0.296,-0.527C0.37,-0.527 0.427,-0.506 0.467,-0.462C0.508,-0.419 0.528,-0.356 0.528,-0.273C0.528,-0.25 0.527,-0.228 0.525,-0.207L0.196,-0.207C0.216,-0.146 0.268,-0.115 0.351,-0.115C0.374,-0.115 0.397,-0.116 0.42,-0.119C0.443,-0.121 0.466,-0.125 0.49,-0.129L0.502,-0.004C0.469,0.002 0.439,0.006 0.412,0.007C0.384,0.009 0.36,0.01 0.339,0.01ZM0.19,-0.298L0.398,-0.298C0.398,-0.333 0.389,-0.36 0.371,-0.378C0.354,-0.397 0.329,-0.406 0.297,-0.406C0.267,-0.406 0.243,-0.397 0.224,-0.378C0.206,-0.359 0.194,-0.333 0.19,-0.298Z" style="fill:rgb(33,250,255);fill-rule:nonzero;"/>
        </g>
        <g transform="matrix(9.17486,0,0,9.17486,46.0533,96.4205)">
            <path d="M0.38,-0L0.38,-0.304C0.38,-0.335 0.373,-0.36 0.361,-0.376C0.348,-0.393 0.329,-0.402 0.306,-0.402C0.239,-0.402 0.206,-0.354 0.206,-0.258L0.206,-0L0.074,-0L0.074,-0.518L0.192,-0.518L0.204,-0.424L0.219,-0.424C0.224,-0.459 0.236,-0.485 0.254,-0.502C0.273,-0.519 0.302,-0.527 0.34,-0.527C0.395,-0.527 0.437,-0.511 0.467,-0.478C0.497,-0.444 0.512,-0.397 0.512,-0.337L0.512,-0L0.38,-0Z" style="fill:rgb(33,250,255);fill-rule:nonzero;"/>
        </g>
        <g transform="matrix(9.17486,0,0,9.17486,51.4292,96.4205)">
            <path d="M0.354,0.01C0.259,0.01 0.187,-0.013 0.135,-0.06C0.084,-0.106 0.058,-0.173 0.058,-0.26C0.058,-0.344 0.082,-0.41 0.128,-0.457C0.175,-0.504 0.242,-0.527 0.329,-0.527C0.382,-0.527 0.428,-0.517 0.467,-0.496C0.505,-0.475 0.532,-0.446 0.548,-0.408L0.452,-0.332C0.422,-0.378 0.38,-0.402 0.325,-0.402C0.285,-0.402 0.254,-0.39 0.232,-0.366C0.209,-0.342 0.198,-0.309 0.198,-0.265C0.198,-0.216 0.213,-0.179 0.242,-0.154C0.271,-0.128 0.312,-0.116 0.365,-0.116C0.389,-0.116 0.412,-0.117 0.435,-0.119C0.459,-0.121 0.481,-0.125 0.503,-0.128L0.517,-0.005C0.491,0.001 0.464,0.005 0.436,0.007C0.408,0.009 0.38,0.01 0.354,0.01Z" style="fill:rgb(33,250,255);fill-rule:nonzero;"/>
        </g>
        <g transform="matrix(9.17486,0,0,9.17486,56.8051,96.4205)">
            <path d="M0.339,0.01C0.249,0.01 0.18,-0.013 0.131,-0.06C0.083,-0.106 0.058,-0.173 0.058,-0.26C0.058,-0.344 0.079,-0.41 0.12,-0.457C0.162,-0.504 0.22,-0.527 0.296,-0.527C0.37,-0.527 0.427,-0.506 0.467,-0.462C0.508,-0.419 0.528,-0.356 0.528,-0.273C0.528,-0.25 0.527,-0.228 0.525,-0.207L0.196,-0.207C0.216,-0.146 0.268,-0.115 0.351,-0.115C0.374,-0.115 0.397,-0.116 0.42,-0.119C0.443,-0.121 0.466,-0.125 0.49,-0.129L0.502,-0.004C0.469,0.002 0.439,0.006 0.412,0.007C0.384,0.009 0.36,0.01 0.339,0.01ZM0.19,-0.298L0.398,-0.298C0.398,-0.333 0.389,-0.36 0.371,-0.378C0.354,-0.397 0.329,-0.406 0.297,-0.406C0.267,-0.406 0.243,-0.397 0.224,-0.378C0.206,-0.359 0.194,-0.333 0.19,-0.298Z" style="fill:rgb(33,250,255);fill-rule:nonzero;"/>
        </g>
        <g transform="matrix(9.17486,0,0,9.17486,24.5497,107.43)">
            <path d="M0.218,0.01C0.194,0.01 0.169,0.009 0.145,0.007C0.121,0.005 0.096,0.003 0.071,-0L0.071,-0.732L0.204,-0.732L0.204,-0.424L0.217,-0.424C0.226,-0.493 0.267,-0.527 0.34,-0.527C0.405,-0.527 0.456,-0.507 0.491,-0.466C0.527,-0.426 0.545,-0.368 0.545,-0.293C0.545,-0.197 0.517,-0.122 0.46,-0.07C0.403,-0.017 0.322,0.01 0.218,0.01ZM0.204,-0.291L0.204,-0.115C0.209,-0.115 0.215,-0.115 0.221,-0.115L0.239,-0.115C0.292,-0.115 0.333,-0.13 0.362,-0.161C0.391,-0.192 0.406,-0.236 0.406,-0.293C0.406,-0.328 0.398,-0.355 0.382,-0.374C0.366,-0.393 0.344,-0.403 0.315,-0.403C0.241,-0.403 0.204,-0.366 0.204,-0.291Z" style="fill:white;fill-rule:nonzero;"/>
        </g>
        <g transform="matrix(9.17486,0,0,9.17486,29.9256,107.43)">
            <path d="M0.388,0.005L0.38,-0.109L0.368,-0.109C0.363,-0.07 0.347,-0.04 0.321,-0.02C0.294,-0 0.258,0.01 0.213,0.01C0.158,0.01 0.115,-0.004 0.084,-0.031C0.054,-0.058 0.039,-0.096 0.039,-0.146C0.039,-0.204 0.059,-0.248 0.099,-0.279C0.139,-0.31 0.195,-0.326 0.269,-0.326C0.291,-0.326 0.31,-0.325 0.326,-0.323C0.343,-0.322 0.359,-0.319 0.375,-0.315L0.375,-0.317C0.375,-0.345 0.363,-0.365 0.34,-0.378C0.316,-0.391 0.281,-0.398 0.234,-0.399L0.102,-0.402L0.112,-0.522L0.225,-0.521C0.318,-0.52 0.388,-0.501 0.434,-0.466C0.479,-0.43 0.502,-0.378 0.502,-0.31L0.502,-0.118L0.574,-0.107L0.574,-0L0.388,0.005ZM0.375,-0.207C0.356,-0.21 0.339,-0.213 0.324,-0.213C0.308,-0.214 0.292,-0.214 0.275,-0.214C0.207,-0.214 0.173,-0.195 0.173,-0.156C0.173,-0.12 0.197,-0.102 0.246,-0.102C0.274,-0.102 0.297,-0.107 0.316,-0.117C0.335,-0.127 0.35,-0.14 0.359,-0.156C0.369,-0.173 0.374,-0.189 0.375,-0.207Z" style="fill:white;fill-rule:nonzero;"/>
        </g>
        <g transform="matrix(9.17486,0,0,9.17486,35.3015,107.43)">
            <path d="M0.403,0.01C0.314,0.01 0.249,-0.008 0.209,-0.044C0.17,-0.08 0.15,-0.137 0.15,-0.216L0.15,-0.396L0.026,-0.396L0.026,-0.518L0.15,-0.518L0.15,-0.674L0.282,-0.674L0.282,-0.518L0.511,-0.518L0.511,-0.396L0.282,-0.396L0.282,-0.229C0.282,-0.189 0.292,-0.16 0.312,-0.143C0.333,-0.125 0.366,-0.116 0.413,-0.116C0.428,-0.116 0.444,-0.117 0.461,-0.118C0.478,-0.12 0.497,-0.123 0.519,-0.125L0.531,-0.002C0.509,0.002 0.488,0.005 0.468,0.007C0.448,0.009 0.426,0.01 0.403,0.01Z" style="fill:white;fill-rule:nonzero;"/>
        </g>
        <g transform="matrix(9.17486,0,0,9.17486,40.6774,107.43)">
            <path d="M0.403,0.01C0.314,0.01 0.249,-0.008 0.209,-0.044C0.17,-0.08 0.15,-0.137 0.15,-0.216L0.15,-0.396L0.026,-0.396L0.026,-0.518L0.15,-0.518L0.15,-0.674L0.282,-0.674L0.282,-0.518L0.511,-0.518L0.511,-0.396L0.282,-0.396L0.282,-0.229C0.282,-0.189 0.292,-0.16 0.312,-0.143C0.333,-0.125 0.366,-0.116 0.413,-0.116C0.428,-0.116 0.444,-0.117 0.461,-0.118C0.478,-0.12 0.497,-0.123 0.519,-0.125L0.531,-0.002C0.509,0.002 0.488,0.005 0.468,0.007C0.448,0.009 0.426,0.01 0.403,0.01Z" style="fill:white;fill-rule:nonzero;"/>
        </g>
        <g transform="matrix(9.17486,0,0,9.17486,46.0533,107.43)">
            <path d="M0.339,0.01C0.249,0.01 0.18,-0.013 0.131,-0.06C0.083,-0.106 0.058,-0.173 0.058,-0.26C0.058,-0.344 0.079,-0.41 0.12,-0.457C0.162,-0.504 0.22,-0.527 0.296,-0.527C0.37,-0.527 0.427,-0.506 0.467,-0.462C0.508,-0.419 0.528,-0.356 0.528,-0.273C0.528,-0.25 0.527,-0.228 0.525,-0.207L0.196,-0.207C0.216,-0.146 0.268,-0.115 0.351,-0.115C0.374,-0.115 0.397,-0.116 0.42,-0.119C0.443,-0.121 0.466,-0.125 0.49,-0.129L0.502,-0.004C0.469,0.002 0.439,0.006 0.412,0.007C0.384,0.009 0.36,0.01 0.339,0.01ZM0.19,-0.298L0.398,-0.298C0.398,-0.333 0.389,-0.36 0.371,-0.378C0.354,-0.397 0.329,-0.406 0.297,-0.406C0.267,-0.406 0.243,-0.397 0.224,-0.378C0.206,-0.359 0.194,-0.333 0.19,-0.298Z" style="fill:white;fill-rule:nonzero;"/>
        </g>
        <g transform="matrix(9.17486,0,0,9.17486,51.4292,107.43)">
            <path d="M0.272,-0.223L0.272,-0.113L0.393,-0.113L0.393,-0L0.031,-0L0.031,-0.113L0.14,-0.113L0.14,-0.404L0.05,-0.404L0.05,-0.518L0.252,-0.518L0.268,-0.401L0.286,-0.401C0.291,-0.485 0.335,-0.527 0.418,-0.527C0.468,-0.527 0.505,-0.509 0.531,-0.473C0.558,-0.437 0.571,-0.385 0.571,-0.317L0.439,-0.317C0.439,-0.347 0.434,-0.369 0.423,-0.383C0.411,-0.396 0.393,-0.403 0.368,-0.403C0.336,-0.403 0.312,-0.387 0.296,-0.356C0.28,-0.325 0.272,-0.28 0.272,-0.223Z" style="fill:white;fill-rule:nonzero;"/>
        </g>
        <g transform="matrix(9.17486,0,0,9.17486,56.8051,107.43)">
            <path d="M0.07,-0L0.07,-0.122L0.261,-0.122L0.261,-0.396L0.099,-0.396L0.099,-0.518L0.393,-0.518L0.393,-0.122L0.546,-0.122L0.546,-0L0.07,-0ZM0.321,-0.587C0.296,-0.587 0.276,-0.595 0.26,-0.611C0.245,-0.626 0.237,-0.647 0.237,-0.672C0.237,-0.697 0.245,-0.717 0.26,-0.733C0.276,-0.749 0.296,-0.756 0.321,-0.756C0.346,-0.756 0.367,-0.749 0.382,-0.733C0.398,-0.717 0.406,-0.697 0.406,-0.672C0.406,-0.647 0.398,-0.626 0.382,-0.611C0.367,-0.595 0.346,-0.587 0.321,-0.587Z" style="fill:white;fill-rule:nonzero;"/>
        </g>
        <g transform="matrix(9.17486,0,0,9.17486,62.181,107.43)">
            <path d="M0.339,0.01C0.249,0.01 0.18,-0.013 0.131,-0.06C0.083,-0.106 0.058,-0.173 0.058,-0.26C0.058,-0.344 0.079,-0.41 0.12,-0.457C0.162,-0.504 0.22,-0.527 0.296,-0.527C0.37,-0.527 0.427,-0.506 0.467,-0.462C0.508,-0.419 0.528,-0.356 0.528,-0.273C0.528,-0.25 0.527,-0.228 0.525,-0.207L0.196,-0.207C0.216,-0.146 0.268,-0.115 0.351,-0.115C0.374,-0.115 0.397,-0.116 0.42,-0.119C0.443,-0.121 0.466,-0.125 0.49,-0.129L0.502,-0.004C0.469,0.002 0.439,0.006 0.412,0.007C0.384,0.009 0.36,0.01 0.339,0.01ZM0.19,-0.298L0.398,-0.298C0.398,-0.333 0.389,-0.36 0.371,-0.378C0.354,-0.397 0.329,-0.406 0.297,-0.406C0.267,-0.406 0.243,-0.397 0.224,-0.378C0.206,-0.359 0.194,-0.333 0.19,-0.298Z" style="fill:white;fill-rule:nonzero;"/>
        </g>
        <g transform="matrix(9.17486,0,0,9.17486,24.5497,129.45)">
            <path d="M0.38,-0L0.38,-0.304C0.38,-0.335 0.373,-0.36 0.361,-0.376C0.348,-0.393 0.329,-0.402 0.306,-0.402C0.239,-0.402 0.206,-0.354 0.206,-0.258L0.206,-0L0.074,-0L0.074,-0.518L0.192,-0.518L0.204,-0.424L0.219,-0.424C0.224,-0.459 0.236,-0.485 0.254,-0.502C0.273,-0.519 0.302,-0.527 0.34,-0.527C0.395,-0.527 0.437,-0.511 0.467,-0.478C0.497,-0.444 0.512,-0.397 0.512,-0.337L0.512,-0L0.38,-0Z" style="fill:rgb(33,250,255);fill-rule:nonzero;"/>
        </g>
        <g transform="matrix(9.17486,0,0,9.17486,29.9256,129.45)">
            <path d="M0.07,-0L0.07,-0.122L0.261,-0.122L0.261,-0.396L0.099,-0.396L0.099,-0.518L0.393,-0.518L0.393,-0.122L0.546,-0.122L0.546,-0L0.07,-0ZM0.321,-0.587C0.296,-0.587 0.276,-0.595 0.26,-0.611C0.245,-0.626 0.237,-0.647 0.237,-0.672C0.237,-0.697 0.245,-0.717 0.26,-0.733C0.276,-0.749 0.296,-0.756 0.321,-0.756C0.346,-0.756 0.367,-0.749 0.382,-0.733C0.398,-0.717 0.406,-0.697 0.406,-0.672C0.406,-0.647 0.398,-0.626 0.382,-0.611C0.367,-0.595 0.346,-0.587 0.321,-0.587Z" style="fill:rgb(33,250,255);fill-rule:nonzero;"/>
        </g>
        <g transform="matrix(9.17486,0,0,9.17486,35.3015,129.45)">
            <path d="M0.208,-0L0.031,-0.518L0.166,-0.518L0.289,-0.116L0.297,-0.116L0.42,-0.518L0.555,-0.518L0.378,-0L0.208,-0Z" style="fill:rgb(33,250,255);fill-rule:nonzero;"/>
        </g>
        <g transform="matrix(9.17486,0,0,9.17486,40.6774,129.45)">
            <path d="M0.339,0.01C0.249,0.01 0.18,-0.013 0.131,-0.06C0.083,-0.106 0.058,-0.173 0.058,-0.26C0.058,-0.344 0.079,-0.41 0.12,-0.457C0.162,-0.504 0.22,-0.527 0.296,-0.527C0.37,-0.527 0.427,-0.506 0.467,-0.462C0.508,-0.419 0.528,-0.356 0.528,-0.273C0.528,-0.25 0.527,-0.228 0.525,-0.207L0.196,-0.207C0.216,-0.146 0.268,-0.115 0.351,-0.115C0.374,-0.115 0.397,-0.116 0.42,-0.119C0.443,-0.121 0.466,-0.125 0.49,-0.129L0.502,-0.004C0.469,0.002 0.439,0.006 0.412,0.007C0.384,0.009 0.36,0.01 0.339,0.01ZM0.19,-0.298L0.398,-0.298C0.398,-0.333 0.389,-0.36 0.371,-0.378C0.354,-0.397 0.329,-0.406 0.297,-0.406C0.267,-0.406 0.243,-0.397 0.224,-0.378C0.206,-0.359 0.194,-0.333 0.19,-0.298Z" style="fill:rgb(33,250,255);fill-rule:nonzero;"/>
        </g>
        <g transform="matrix(9.17486,0,0,9.17486,46.0533,129.45)">
            <path d="M0.388,0.005L0.38,-0.109L0.368,-0.109C0.363,-0.07 0.347,-0.04 0.321,-0.02C0.294,-0 0.258,0.01 0.213,0.01C0.158,0.01 0.115,-0.004 0.084,-0.031C0.054,-0.058 0.039,-0.096 0.039,-0.146C0.039,-0.204 0.059,-0.248 0.099,-0.279C0.139,-0.31 0.195,-0.326 0.269,-0.326C0.291,-0.326 0.31,-0.325 0.326,-0.323C0.343,-0.322 0.359,-0.319 0.375,-0.315L0.375,-0.317C0.375,-0.345 0.363,-0.365 0.34,-0.378C0.316,-0.391 0.281,-0.398 0.234,-0.399L0.102,-0.402L0.112,-0.522L0.225,-0.521C0.318,-0.52 0.388,-0.501 0.434,-0.466C0.479,-0.43 0.502,-0.378 0.502,-0.31L0.502,-0.118L0.574,-0.107L0.574,-0L0.388,0.005ZM0.375,-0.207C0.356,-0.21 0.339,-0.213 0.324,-0.213C0.308,-0.214 0.292,-0.214 0.275,-0.214C0.207,-0.214 0.173,-0.195 0.173,-0.156C0.173,-0.12 0.197,-0.102 0.246,-0.102C0.274,-0.102 0.297,-0.107 0.316,-0.117C0.335,-0.127 0.35,-0.14 0.359,-0.156C0.369,-0.173 0.374,-0.189 0.375,-0.207Z" style="fill:rgb(33,250,255);fill-rule:nonzero;"/>
        </g>
        <g transform="matrix(9.17486,0,0,9.17486,51.4292,129.45)">
            <path d="M0.218,0.01C0.169,0.01 0.131,-0.006 0.104,-0.039C0.076,-0.071 0.063,-0.117 0.063,-0.176L0.063,-0.518L0.195,-0.518L0.195,-0.208C0.195,-0.179 0.202,-0.156 0.216,-0.14C0.229,-0.124 0.248,-0.116 0.271,-0.116C0.302,-0.116 0.326,-0.128 0.342,-0.152C0.357,-0.176 0.365,-0.216 0.365,-0.272L0.365,-0.518L0.498,-0.518L0.498,-0.118L0.569,-0.107L0.569,-0L0.374,0.005L0.367,-0.1L0.352,-0.1C0.343,-0.064 0.328,-0.037 0.304,-0.019C0.281,0 0.252,0.01 0.218,0.01Z" style="fill:rgb(33,250,255);fill-rule:nonzero;"/>
        </g>
        <g transform="matrix(9.17486,0,0,9.17486,56.8051,129.45)">
            <rect x="0.049" y="-0" width="0.488" height="0.118" style="fill:rgb(33,250,255);fill-rule:nonzero;"/>
        </g>
        <g transform="matrix(9.17486,0,0,9.17486,62.181,129.45)">
            <path d="M0.272,-0.223L0.272,-0.113L0.393,-0.113L0.393,-0L0.031,-0L0.031,-0.113L0.14,-0.113L0.14,-0.404L0.05,-0.404L0.05,-0.518L0.252,-0.518L0.268,-0.401L0.286,-0.401C0.291,-0.485 0.335,-0.527 0.418,-0.527C0.468,-0.527 0.505,-0.509 0.531,-0.473C0.558,-0.437 0.571,-0.385 0.571,-0.317L0.439,-0.317C0.439,-0.347 0.434,-0.369 0.423,-0.383C0.411,-0.396 0.393,-0.403 0.368,-0.403C0.336,-0.403 0.312,-0.387 0.296,-0.356C0.28,-0.325 0.272,-0.28 0.272,-0.223Z" style="fill:rgb(33,250,255);fill-rule:nonzero;"/>
        </g>
        <g transform="matrix(9.17486,0,0,9.17486,67.5569,129.45)">
            <path d="M0.339,0.01C0.249,0.01 0.18,-0.013 0.131,-0.06C0.083,-0.106 0.058,-0.173 0.058,-0.26C0.058,-0.344 0.079,-0.41 0.12,-0.457C0.162,-0.504 0.22,-0.527 0.296,-0.527C0.37,-0.527 0.427,-0.506 0.467,-0.462C0.508,-0.419 0.528,-0.356 0.528,-0.273C0.528,-0.25 0.527,-0.228 0.525,-0.207L0.196,-0.207C0.216,-0.146 0.268,-0.115 0.351,-0.115C0.374,-0.115 0.397,-0.116 0.42,-0.119C0.443,-0.121 0.466,-0.125 0.49,-0.129L0.502,-0.004C0.469,0.002 0.439,0.006 0.412,0.007C0.384,0.009 0.36,0.01 0.339,0.01ZM0.19,-0.298L0.398,-0.298C0.398,-0.333 0.389,-0.36 0.371,-0.378C0.354,-0.397 0.329,-0.406 0.297,-0.406C0.267,-0.406 0.243,-0.397 0.224,-0.378C0.206,-0.359 0.194,-0.333 0.19,-0.298Z" style="fill:rgb(33,250,255);fill-rule:nonzero;"/>
        </g>
        <g transform="matrix(9.17486,0,0,9.17486,72.9328,129.45)">
            <path d="M0.253,0.01C0.175,0.01 0.114,0.005 0.068,-0.005L0.083,-0.131C0.125,-0.126 0.159,-0.122 0.187,-0.12C0.215,-0.117 0.237,-0.116 0.253,-0.116C0.296,-0.116 0.326,-0.119 0.345,-0.125C0.365,-0.131 0.374,-0.14 0.374,-0.154C0.374,-0.168 0.364,-0.178 0.343,-0.184L0.18,-0.233C0.145,-0.243 0.119,-0.259 0.102,-0.279C0.084,-0.3 0.076,-0.327 0.076,-0.362C0.076,-0.472 0.17,-0.527 0.359,-0.527C0.382,-0.527 0.405,-0.527 0.428,-0.525C0.452,-0.523 0.478,-0.521 0.504,-0.518L0.49,-0.395C0.461,-0.398 0.435,-0.399 0.413,-0.4C0.39,-0.401 0.372,-0.402 0.356,-0.402C0.307,-0.402 0.272,-0.399 0.249,-0.393C0.227,-0.388 0.216,-0.378 0.216,-0.365C0.216,-0.351 0.226,-0.341 0.245,-0.335L0.385,-0.295C0.43,-0.283 0.463,-0.265 0.485,-0.242C0.507,-0.22 0.518,-0.19 0.518,-0.153C0.518,-0.045 0.43,0.01 0.253,0.01Z" style="fill:rgb(33,250,255);fill-rule:nonzero;"/>
        </g>
        <g transform="matrix(9.17486,0,0,9.17486,78.3087,129.45)">
            <path d="M0.339,0.01C0.249,0.01 0.18,-0.013 0.131,-0.06C0.083,-0.106 0.058,-0.173 0.058,-0.26C0.058,-0.344 0.079,-0.41 0.12,-0.457C0.162,-0.504 0.22,-0.527 0.296,-0.527C0.37,-0.527 0.427,-0.506 0.467,-0.462C0.508,-0.419 0.528,-0.356 0.528,-0.273C0.528,-0.25 0.527,-0.228 0.525,-0.207L0.196,-0.207C0.216,-0.146 0.268,-0.115 0.351,-0.115C0.374,-0.115 0.397,-0.116 0.42,-0.119C0.443,-0.121 0.466,-0.125 0.49,-0.129L0.502,-0.004C0.469,0.002 0.439,0.006 0.412,0.007C0.384,0.009 0.36,0.01 0.339,0.01ZM0.19,-0.298L0.398,-0.298C0.398,-0.333 0.389,-0.36 0.371,-0.378C0.354,-0.397 0.329,-0.406 0.297,-0.406C0.267,-0.406 0.243,-0.397 0.224,-0.378C0.206,-0.359 0.194,-0.333 0.19,-0.298Z" style="fill:rgb(33,250,255);fill-rule:nonzero;"/>
        </g>
        <g transform="matrix(9.17486,0,0,9.17486,83.6846,129.45)">
            <path d="M0.272,-0.223L0.272,-0.113L0.393,-0.113L0.393,-0L0.031,-0L0.031,-0.113L0.14,-0.113L0.14,-0.404L0.05,-0.404L0.05,-0.518L0.252,-0.518L0.268,-0.401L0.286,-0.401C0.291,-0.485 0.335,-0.527 0.418,-0.527C0.468,-0.527 0.505,-0.509 0.531,-0.473C0.558,-0.437 0.571,-0.385 0.571,-0.317L0.439,-0.317C0.439,-0.347 0.434,-0.369 0.423,-0.383C0.411,-0.396 0.393,-0.403 0.368,-0.403C0.336,-0.403 0.312,-0.387 0.296,-0.356C0.28,-0.325 0.272,-0.28 0.272,-0.223Z" style="fill:rgb(33,250,255);fill-rule:nonzero;"/>
        </g>
        <g transform="matrix(9.17486,0,0,9.17486,89.0605,129.45)">
            <path d="M0.208,-0L0.031,-0.518L0.166,-0.518L0.289,-0.116L0.297,-0.116L0.42,-0.518L0.555,-0.518L0.378,-0L0.208,-0Z" style="fill:rgb(33,250,255);fill-rule:nonzero;"/>
        </g>
        <g transform="matrix(9.17486,0,0,9.17486,94.4363,129.45)">
            <path d="M0.293,0.01C0.218,0.01 0.161,-0.014 0.12,-0.061C0.079,-0.107 0.058,-0.174 0.058,-0.259C0.058,-0.344 0.079,-0.411 0.12,-0.457C0.161,-0.504 0.218,-0.527 0.293,-0.527C0.368,-0.527 0.425,-0.504 0.466,-0.457C0.507,-0.411 0.528,-0.344 0.528,-0.259C0.528,-0.174 0.507,-0.107 0.466,-0.061C0.425,-0.014 0.368,0.01 0.293,0.01ZM0.293,-0.116C0.323,-0.116 0.347,-0.128 0.363,-0.153C0.379,-0.178 0.388,-0.213 0.388,-0.259C0.388,-0.305 0.379,-0.34 0.363,-0.365C0.347,-0.389 0.323,-0.402 0.293,-0.402C0.263,-0.402 0.24,-0.389 0.223,-0.365C0.207,-0.34 0.198,-0.305 0.198,-0.259C0.198,-0.213 0.207,-0.178 0.223,-0.153C0.24,-0.128 0.263,-0.116 0.293,-0.116Z" style="fill:rgb(33,250,255);fill-rule:nonzero;"/>
        </g>
        <g transform="matrix(9.17486,0,0,9.17486,99.8122,129.45)">
            <path d="M0.07,-0L0.07,-0.122L0.261,-0.122L0.261,-0.396L0.099,-0.396L0.099,-0.518L0.393,-0.518L0.393,-0.122L0.546,-0.122L0.546,-0L0.07,-0ZM0.321,-0.587C0.296,-0.587 0.276,-0.595 0.26,-0.611C0.245,-0.626 0.237,-0.647 0.237,-0.672C0.237,-0.697 0.245,-0.717 0.26,-0.733C0.276,-0.749 0.296,-0.756 0.321,-0.756C0.346,-0.756 0.367,-0.749 0.382,-0.733C0.398,-0.717 0.406,-0.697 0.406,-0.672C0.406,-0.647 0.398,-0.626 0.382,-0.611C0.367,-0.595 0.346,-0.587 0.321,-0.587Z" style="fill:rgb(33,250,255);fill-rule:nonzero;"/>
        </g>
        <g transform="matrix(9.17486,0,0,9.17486,105.188,129.45)">
            <path d="M0.272,-0.223L0.272,-0.113L0.393,-0.113L0.393,-0L0.031,-0L0.031,-0.113L0.14,-0.113L0.14,-0.404L0.05,-0.404L0.05,-0.518L0.252,-0.518L0.268,-0.401L0.286,-0.401C0.291,-0.485 0.335,-0.527 0.418,-0.527C0.468,-0.527 0.505,-0.509 0.531,-0.473C0.558,-0.437 0.571,-0.385 0.571,-0.317L0.439,-0.317C0.439,-0.347 0.434,-0.369 0.423,-0.383C0.411,-0.396 0.393,-0.403 0.368,-0.403C0.336,-0.403 0.312,-0.387 0.296,-0.356C0.28,-0.325 0.272,-0.28 0.272,-0.223Z" style="fill:rgb(33,250,255);fill-rule:nonzero;"/>
        </g>
        <g transform="matrix(9.17486,0,0,9.17486,110.564,129.45)">
            <path d="M0.474,0.098C0.362,0.098 0.275,0.059 0.214,-0.019C0.152,-0.097 0.122,-0.207 0.122,-0.35C0.122,-0.49 0.152,-0.599 0.214,-0.676C0.275,-0.753 0.362,-0.791 0.474,-0.791L0.495,-0.791L0.495,-0.668L0.474,-0.668C0.404,-0.668 0.351,-0.641 0.313,-0.585C0.276,-0.529 0.257,-0.451 0.257,-0.35C0.257,-0.247 0.276,-0.167 0.313,-0.11C0.351,-0.053 0.404,-0.025 0.474,-0.025L0.495,-0.025L0.495,0.098L0.474,0.098Z" style="fill:rgb(33,250,255);fill-rule:nonzero;"/>
        </g>
        <g transform="matrix(9.17486,0,0,9.17486,115.94,129.45)">
            <path d="M0.091,0.098L0.091,-0.025L0.112,-0.025C0.181,-0.025 0.235,-0.053 0.272,-0.11C0.31,-0.167 0.329,-0.247 0.329,-0.35C0.329,-0.451 0.31,-0.529 0.272,-0.585C0.235,-0.641 0.181,-0.668 0.112,-0.668L0.091,-0.668L0.091,-0.791L0.112,-0.791C0.224,-0.791 0.31,-0.753 0.372,-0.676C0.433,-0.599 0.464,-0.49 0.464,-0.35C0.464,-0.207 0.433,-0.097 0.372,-0.019C0.31,0.059 0.224,0.098 0.112,0.098L0.091,0.098Z" style="fill:rgb(33,250,255);fill-rule:nonzero;"/>
        </g>
        <g transform="matrix(9.17486,0,0,9.17486,24.5497,140.46)">
            <path d="M0.38,-0L0.38,-0.304C0.38,-0.335 0.373,-0.36 0.361,-0.376C0.348,-0.393 0.329,-0.402 0.306,-0.402C0.239,-0.402 0.206,-0.354 0.206,-0.258L0.206,-0L0.074,-0L0.074,-0.518L0.192,-0.518L0.204,-0.424L0.219,-0.424C0.224,-0.459 0.236,-0.485 0.254,-0.502C0.273,-0.519 0.302,-0.527 0.34,-0.527C0.395,-0.527 0.437,-0.511 0.467,-0.478C0.497,-0.444 0.512,-0.397 0.512,-0.337L0.512,-0L0.38,-0Z" style="fill:white;fill-rule:nonzero;"/>
        </g>
        <g transform="matrix(9.17486,0,0,9.17486,29.9256,140.46)">
            <path d="M0.07,-0L0.07,-0.122L0.261,-0.122L0.261,-0.396L0.099,-0.396L0.099,-0.518L0.393,-0.518L0.393,-0.122L0.546,-0.122L0.546,-0L0.07,-0ZM0.321,-0.587C0.296,-0.587 0.276,-0.595 0.26,-0.611C0.245,-0.626 0.237,-0.647 0.237,-0.672C0.237,-0.697 0.245,-0.717 0.26,-0.733C0.276,-0.749 0.296,-0.756 0.321,-0.756C0.346,-0.756 0.367,-0.749 0.382,-0.733C0.398,-0.717 0.406,-0.697 0.406,-0.672C0.406,-0.647 0.398,-0.626 0.382,-0.611C0.367,-0.595 0.346,-0.587 0.321,-0.587Z" style="fill:white;fill-rule:nonzero;"/>
        </g>
        <g transform="matrix(9.17486,0,0,9.17486,35.3015,140.46)">
            <path d="M0.208,-0L0.031,-0.518L0.166,-0.518L0.289,-0.116L0.297,-0.116L0.42,-0.518L0.555,-0.518L0.378,-0L0.208,-0Z" style="fill:white;fill-rule:nonzero;"/>
        </g>
        <g transform="matrix(9.17486,0,0,9.17486,40.6774,140.46)">
            <path d="M0.339,0.01C0.249,0.01 0.18,-0.013 0.131,-0.06C0.083,-0.106 0.058,-0.173 0.058,-0.26C0.058,-0.344 0.079,-0.41 0.12,-0.457C0.162,-0.504 0.22,-0.527 0.296,-0.527C0.37,-0.527 0.427,-0.506 0.467,-0.462C0.508,-0.419 0.528,-0.356 0.528,-0.273C0.528,-0.25 0.527,-0.228 0.525,-0.207L0.196,-0.207C0.216,-0.146 0.268,-0.115 0.351,-0.115C0.374,-0.115 0.397,-0.116 0.42,-0.119C0.443,-0.121 0.466,-0.125 0.49,-0.129L0.502,-0.004C0.469,0.002 0.439,0.006 0.412,0.007C0.384,0.009 0.36,0.01 0.339,0.01ZM0.19,-0.298L0.398,-0.298C0.398,-0.333 0.389,-0.36 0.371,-0.378C0.354,-0.397 0.329,-0.406 0.297,-0.406C0.267,-0.406 0.243,-0.397 0.224,-0.378C0.206,-0.359 0.194,-0.333 0.19,-0.298Z" style="fill:white;fill-rule:nonzero;"/>
        </g>
        <g transform="matrix(9.17486,0,0,9.17486,46.0533,140.46)">
            <path d="M0.388,0.005L0.38,-0.109L0.368,-0.109C0.363,-0.07 0.347,-0.04 0.321,-0.02C0.294,-0 0.258,0.01 0.213,0.01C0.158,0.01 0.115,-0.004 0.084,-0.031C0.054,-0.058 0.039,-0.096 0.039,-0.146C0.039,-0.204 0.059,-0.248 0.099,-0.279C0.139,-0.31 0.195,-0.326 0.269,-0.326C0.291,-0.326 0.31,-0.325 0.326,-0.323C0.343,-0.322 0.359,-0.319 0.375,-0.315L0.375,-0.317C0.375,-0.345 0.363,-0.365 0.34,-0.378C0.316,-0.391 0.281,-0.398 0.234,-0.399L0.102,-0.402L0.112,-0.522L0.225,-0.521C0.318,-0.52 0.388,-0.501 0.434,-0.466C0.479,-0.43 0.502,-0.378 0.502,-0.31L0.502,-0.118L0.574,-0.107L0.574,-0L0.388,0.005ZM0.375,-0.207C0.356,-0.21 0.339,-0.213 0.324,-0.213C0.308,-0.214 0.292,-0.214 0.275,-0.214C0.207,-0.214 0.173,-0.195 0.173,-0.156C0.173,-0.12 0.197,-0.102 0.246,-0.102C0.274,-0.102 0.297,-0.107 0.316,-0.117C0.335,-0.127 0.35,-0.14 0.359,-0.156C0.369,-0.173 0.374,-0.189 0.375,-0.207Z" style="fill:white;fill-rule:nonzero;"/>
        </g>
        <g transform="matrix(9.17486,0,0,9.17486,51.4292,140.46)">
            <path d="M0.218,0.01C0.169,0.01 0.131,-0.006 0.104,-0.039C0.076,-0.071 0.063,-0.117 0.063,-0.176L0.063,-0.518L0.195,-0.518L0.195,-0.208C0.195,-0.179 0.202,-0.156 0.216,-0.14C0.229,-0.124 0.248,-0.116 0.271,-0.116C0.302,-0.116 0.326,-0.128 0.342,-0.152C0.357,-0.176 0.365,-0.216 0.365,-0.272L0.365,-0.518L0.498,-0.518L0.498,-0.118L0.569,-0.107L0.569,-0L0.374,0.005L0.367,-0.1L0.352,-0.1C0.343,-0.064 0.328,-0.037 0.304,-0.019C0.281,0 0.252,0.01 0.218,0.01Z" style="fill:white;fill-rule:nonzero;"/>
        </g>
        <g transform="matrix(9.17486,0,0,9.17486,56.8051,140.46)">
            <rect x="0.049" y="-0" width="0.488" height="0.118" style="fill:white;fill-rule:nonzero;"/>
        </g>
        <g transform="matrix(9.17486,0,0,9.17486,62.181,140.46)">
            <path d="M0.218,0.01C0.194,0.01 0.169,0.009 0.145,0.007C0.121,0.005 0.096,0.003 0.071,-0L0.071,-0.732L0.204,-0.732L0.204,-0.424L0.217,-0.424C0.226,-0.493 0.267,-0.527 0.34,-0.527C0.405,-0.527 0.456,-0.507 0.491,-0.466C0.527,-0.426 0.545,-0.368 0.545,-0.293C0.545,-0.197 0.517,-0.122 0.46,-0.07C0.403,-0.017 0.322,0.01 0.218,0.01ZM0.204,-0.291L0.204,-0.115C0.209,-0.115 0.215,-0.115 0.221,-0.115L0.239,-0.115C0.292,-0.115 0.333,-0.13 0.362,-0.161C0.391,-0.192 0.406,-0.236 0.406,-0.293C0.406,-0.328 0.398,-0.355 0.382,-0.374C0.366,-0.393 0.344,-0.403 0.315,-0.403C0.241,-0.403 0.204,-0.366 0.204,-0.291Z" style="fill:white;fill-rule:nonzero;"/>
        </g>
        <g transform="matrix(9.17486,0,0,9.17486,67.5569,140.46)">
            <path d="M0.388,0.005L0.38,-0.109L0.368,-0.109C0.363,-0.07 0.347,-0.04 0.321,-0.02C0.294,-0 0.258,0.01 0.213,0.01C0.158,0.01 0.115,-0.004 0.084,-0.031C0.054,-0.058 0.039,-0.096 0.039,-0.146C0.039,-0.204 0.059,-0.248 0.099,-0.279C0.139,-0.31 0.195,-0.326 0.269,-0.326C0.291,-0.326 0.31,-0.325 0.326,-0.323C0.343,-0.322 0.359,-0.319 0.375,-0.315L0.375,-0.317C0.375,-0.345 0.363,-0.365 0.34,-0.378C0.316,-0.391 0.281,-0.398 0.234,-0.399L0.102,-0.402L0.112,-0.522L0.225,-0.521C0.318,-0.52 0.388,-0.501 0.434,-0.466C0.479,-0.43 0.502,-0.378 0.502,-0.31L0.502,-0.118L0.574,-0.107L0.574,-0L0.388,0.005ZM0.375,-0.207C0.356,-0.21 0.339,-0.213 0.324,-0.213C0.308,-0.214 0.292,-0.214 0.275,-0.214C0.207,-0.214 0.173,-0.195 0.173,-0.156C0.173,-0.12 0.197,-0.102 0.246,-0.102C0.274,-0.102 0.297,-0.107 0.316,-0.117C0.335,-0.127 0.35,-0.14 0.359,-0.156C0.369,-0.173 0.374,-0.189 0.375,-0.207Z" style="fill:white;fill-rule:nonzero;"/>
        </g>
        <g transform="matrix(9.17486,0,0,9.17486,72.9328,140.46)">
            <path d="M0.403,0.01C0.314,0.01 0.249,-0.008 0.209,-0.044C0.17,-0.08 0.15,-0.137 0.15,-0.216L0.15,-0.396L0.026,-0.396L0.026,-0.518L0.15,-0.518L0.15,-0.674L0.282,-0.674L0.282,-0.518L0.511,-0.518L0.511,-0.396L0.282,-0.396L0.282,-0.229C0.282,-0.189 0.292,-0.16 0.312,-0.143C0.333,-0.125 0.366,-0.116 0.413,-0.116C0.428,-0.116 0.444,-0.117 0.461,-0.118C0.478,-0.12 0.497,-0.123 0.519,-0.125L0.531,-0.002C0.509,0.002 0.488,0.005 0.468,0.007C0.448,0.009 0.426,0.01 0.403,0.01Z" style="fill:white;fill-rule:nonzero;"/>
        </g>
        <g transform="matrix(9.17486,0,0,9.17486,78.3087,140.46)">
            <path d="M0.403,0.01C0.314,0.01 0.249,-0.008 0.209,-0.044C0.17,-0.08 0.15,-0.137 0.15,-0.216L0.15,-0.396L0.026,-0.396L0.026,-0.518L0.15,-0.518L0.15,-0.674L0.282,-0.674L0.282,-0.518L0.511,-0.518L0.511,-0.396L0.282,-0.396L0.282,-0.229C0.282,-0.189 0.292,-0.16 0.312,-0.143C0.333,-0.125 0.366,-0.116 0.413,-0.116C0.428,-0.116 0.444,-0.117 0.461,-0.118C0.478,-0.12 0.497,-0.123 0.519,-0.125L0.531,-0.002C0.509,0.002 0.488,0.005 0.468,0.007C0.448,0.009 0.426,0.01 0.403,0.01Z" style="fill:white;fill-rule:nonzero;"/>
        </g>
        <g transform="matrix(9.17486,0,0,9.17486,83.6846,140.46)">
            <path d="M0.339,0.01C0.249,0.01 0.18,-0.013 0.131,-0.06C0.083,-0.106 0.058,-0.173 0.058,-0.26C0.058,-0.344 0.079,-0.41 0.12,-0.457C0.162,-0.504 0.22,-0.527 0.296,-0.527C0.37,-0.527 0.427,-0.506 0.467,-0.462C0.508,-0.419 0.528,-0.356 0.528,-0.273C0.528,-0.25 0.527,-0.228 0.525,-0.207L0.196,-0.207C0.216,-0.146 0.268,-0.115 0.351,-0.115C0.374,-0.115 0.397,-0.116 0.42,-0.119C0.443,-0.121 0.466,-0.125 0.49,-0.129L0.502,-0.004C0.469,0.002 0.439,0.006 0.412,0.007C0.384,0.009 0.36,0.01 0.339,0.01ZM0.19,-0.298L0.398,-0.298C0.398,-0.333 0.389,-0.36 0.371,-0.378C0.354,-0.397 0.329,-0.406 0.297,-0.406C0.267,-0.406 0.243,-0.397 0.224,-0.378C0.206,-0.359 0.194,-0.333 0.19,-0.298Z" style="fill:white;fill-rule:nonzero;"/>
        </g>
        <g transform="matrix(9.17486,0,0,9.17486,89.0605,140.46)">
            <path d="M0.272,-0.223L0.272,-0.113L0.393,-0.113L0.393,-0L0.031,-0L0.031,-0.113L0.14,-0.113L0.14,-0.404L0.05,-0.404L0.05,-0.518L0.252,-0.518L0.268,-0.401L0.286,-0.401C0.291,-0.485 0.335,-0.527 0.418,-0.527C0.468,-0.527 0.505,-0.509 0.531,-0.473C0.558,-0.437 0.571,-0.385 0.571,-0.317L0.439,-0.317C0.439,-0.347 0.434,-0.369 0.423,-0.383C0.411,-0.396 0.393,-0.403 0.368,-0.403C0.336,-0.403 0.312,-0.387 0.296,-0.356C0.28,-0.325 0.272,-0.28 0.272,-0.223Z" style="fill:white;fill-rule:nonzero;"/>
        </g>
        <g transform="matrix(9.17486,0,0,9.17486,94.4363,140.46)">
            <path d="M0.07,-0L0.07,-0.122L0.261,-0.122L0.261,-0.396L0.099,-0.396L0.099,-0.518L0.393,-0.518L0.393,-0.122L0.546,-0.122L0.546,-0L0.07,-0ZM0.321,-0.587C0.296,-0.587 0.276,-0.595 0.26,-0.611C0.245,-0.626 0.237,-0.647 0.237,-0.672C0.237,-0.697 0.245,-0.717 0.26,-0.733C0.276,-0.749 0.296,-0.756 0.321,-0.756C0.346,-0.756 0.367,-0.749 0.382,-0.733C0.398,-0.717 0.406,-0.697 0.406,-0.672C0.406,-0.647 0.398,-0.626 0.382,-0.611C0.367,-0.595 0.346,-0.587 0.321,-0.587Z" style="fill:white;fill-rule:nonzero;"/>
        </g>
        <g transform="matrix(9.17486,0,0,9.17486,99.8122,140.46)">
            <path d="M0.339,0.01C0.249,0.01 0.18,-0.013 0.131,-0.06C0.083,-0.106 0.058,-0.173 0.058,-0.26C0.058,-0.344 0.079,-0.41 0.12,-0.457C0.162,-0.504 0.22,-0.527 0.296,-0.527C0.37,-0.527 0.427,-0.506 0.467,-0.462C0.508,-0.419 0.528,-0.356 0.528,-0.273C0.528,-0.25 0.527,-0.228 0.525,-0.207L0.196,-0.207C0.216,-0.146 0.268,-0.115 0.351,-0.115C0.374,-0.115 0.397,-0.116 0.42,-0.119C0.443,-0.121 0.466,-0.125 0.49,-0.129L0.502,-0.004C0.469,0.002 0.439,0.006 0.412,0.007C0.384,0.009 0.36,0.01 0.339,0.01ZM0.19,-0.298L0.398,-0.298C0.398,-0.333 0.389,-0.36 0.371,-0.378C0.354,-0.397 0.329,-0.406 0.297,-0.406C0.267,-0.406 0.243,-0.397 0.224,-0.378C0.206,-0.359 0.194,-0.333 0.19,-0.298Z" style="fill:white;fill-rule:nonzero;"/>
        </g>
        <g transform="matrix(9.17486,0,0,9.17486,105.188,140.46)">
            <path d="M0.474,0.098C0.362,0.098 0.275,0.059 0.214,-0.019C0.152,-0.097 0.122,-0.207 0.122,-0.35C0.122,-0.49 0.152,-0.599 0.214,-0.676C0.275,-0.753 0.362,-0.791 0.474,-0.791L0.495,-0.791L0.495,-0.668L0.474,-0.668C0.404,-0.668 0.351,-0.641 0.313,-0.585C0.276,-0.529 0.257,-0.451 0.257,-0.35C0.257,-0.247 0.276,-0.167 0.313,-0.11C0.351,-0.053 0.404,-0.025 0.474,-0.025L0.495,-0.025L0.495,0.098L0.474,0.098Z" style="fill:white;fill-rule:nonzero;"/>
        </g>
        <g transform="matrix(9.17486,0,0,9.17486,110.564,140.46)">
            <path d="M0.091,0.098L0.091,-0.025L0.112,-0.025C0.181,-0.025 0.235,-0.053 0.272,-0.11C0.31,-0.167 0.329,-0.247 0.329,-0.35C0.329,-0.451 0.31,-0.529 0.272,-0.585C0.235,-0.641 0.181,-0.668 0.112,-0.668L0.091,-0.668L0.091,-0.791L0.112,-0.791C0.224,-0.791 0.31,-0.753 0.372,-0.676C0.433,-0.599 0.464,-0.49 0.464,-0.35C0.464,-0.207 0.433,-0.097 0.372,-0.019C0.31,0.059 0.224,0.098 0.112,0.098L0.091,0.098Z" style="fill:white;fill-rule:nonzero;"/>
        </g>
    </g>
    <g transform="matrix(1.60089,0,0,1.60089,73.9262,-82.0971)">
        <g transform="matrix(16.241,0,0,16.241,85.3929,96.4205)">
            <path d="M0.246,-0.727L0.023,-0.727L0.263,-0L0.533,-0L0.773,-0.727L0.55,-0.727L0.401,-0.214L0.395,-0.214L0.246,-0.727Z" style="fill:rgb(33,250,255);fill-rule:nonzero;"/>
        </g>
        <g transform="matrix(16.241,0,0,16.241,97.1814,96.4205)">
            <path d="M0.312,0.01C0.49,0.01 0.595,-0.104 0.595,-0.271C0.595,-0.439 0.49,-0.553 0.312,-0.553C0.135,-0.553 0.03,-0.439 0.03,-0.271C0.03,-0.104 0.135,0.01 0.312,0.01ZM0.314,-0.135C0.261,-0.135 0.23,-0.187 0.23,-0.273C0.23,-0.358 0.261,-0.411 0.314,-0.411C0.364,-0.411 0.395,-0.358 0.395,-0.273C0.395,-0.187 0.364,-0.135 0.314,-0.135Z" style="fill:rgb(33,250,255);fill-rule:nonzero;"/>
        </g>
        <g transform="matrix(16.241,0,0,16.241,107.332,96.4205)">
            <path d="M0.05,-0L0.246,-0L0.246,-0.545L0.05,-0.545L0.05,-0ZM0.148,-0.602C0.201,-0.602 0.244,-0.642 0.244,-0.692C0.244,-0.741 0.201,-0.781 0.148,-0.781C0.094,-0.781 0.051,-0.741 0.051,-0.692C0.051,-0.642 0.094,-0.602 0.148,-0.602Z" style="fill:rgb(33,250,255);fill-rule:nonzero;"/>
        </g>
        <g transform="matrix(16.241,0,0,16.241,112.131,96.4205)">
            <path d="M0.375,-0.545L0.281,-0.545L0.281,-0.676L0.085,-0.676L0.085,-0.545L0.016,-0.545L0.016,-0.403L0.085,-0.403L0.085,-0.157C0.084,-0.043 0.154,0.015 0.29,0.008C0.334,0.005 0.367,-0.004 0.385,-0.009L0.357,-0.147C0.349,-0.145 0.33,-0.141 0.318,-0.141C0.293,-0.141 0.281,-0.153 0.281,-0.175L0.281,-0.403L0.375,-0.403L0.375,-0.545Z" style="fill:rgb(33,250,255);fill-rule:nonzero;"/>
        </g>
        <g transform="matrix(16.241,0,0,16.241,118.705,96.4205)">
            <path d="M0.403,-0.239C0.404,-0.185 0.373,-0.152 0.324,-0.152C0.274,-0.152 0.246,-0.185 0.246,-0.239L0.246,-0.545L0.05,-0.545L0.05,-0.197C0.05,-0.078 0.125,0.007 0.24,0.007C0.321,0.007 0.384,-0.034 0.408,-0.104L0.413,-0.104L0.413,-0L0.599,-0L0.599,-0.545L0.403,-0.545L0.403,-0.239Z" style="fill:rgb(33,250,255);fill-rule:nonzero;"/>
        </g>
        <g transform="matrix(16.241,0,0,16.241,129.248,96.4205)">
            <path d="M0.05,-0L0.246,-0L0.246,-0.284C0.246,-0.347 0.289,-0.388 0.347,-0.388C0.367,-0.388 0.399,-0.385 0.419,-0.378L0.419,-0.545C0.403,-0.55 0.386,-0.553 0.369,-0.553C0.311,-0.553 0.266,-0.518 0.246,-0.442L0.24,-0.442L0.24,-0.545L0.05,-0.545L0.05,-0Z" style="fill:rgb(33,250,255);fill-rule:nonzero;"/>
        </g>
        <g transform="matrix(16.241,0,0,16.241,135.777,96.4205)">
            <path d="M0.311,0.01C0.462,0.01 0.56,-0.062 0.578,-0.176L0.399,-0.176C0.388,-0.145 0.355,-0.128 0.315,-0.128C0.257,-0.128 0.223,-0.166 0.223,-0.219L0.223,-0.227L0.578,-0.227L0.578,-0.273C0.578,-0.446 0.472,-0.553 0.307,-0.553C0.138,-0.553 0.03,-0.44 0.03,-0.271C0.03,-0.095 0.136,0.01 0.311,0.01ZM0.223,-0.335C0.224,-0.382 0.263,-0.415 0.311,-0.415C0.36,-0.415 0.397,-0.382 0.398,-0.335L0.223,-0.335Z" style="fill:rgb(33,250,255);fill-rule:nonzero;"/>
        </g>
    </g>
    <g transform="matrix(1.60089,0,0,1.60089,608.144,-82.0971)">
        <g transform="matrix(16.241,0,0,16.241,20.7288,96.4205)">
            <path d="M0.246,-0.727L0.023,-0.727L0.263,-0L0.533,-0L0.773,-0.727L0.55,-0.727L0.401,-0.214L0.395,-0.214L0.246,-0.727Z" style="fill:rgb(255,192,0);fill-rule:nonzero;"/>
        </g>
        <g transform="matrix(16.241,0,0,16.241,32.5174,96.4205)">
            <path d="M0.312,0.01C0.49,0.01 0.595,-0.104 0.595,-0.271C0.595,-0.439 0.49,-0.553 0.312,-0.553C0.135,-0.553 0.03,-0.439 0.03,-0.271C0.03,-0.104 0.135,0.01 0.312,0.01ZM0.314,-0.135C0.261,-0.135 0.23,-0.187 0.23,-0.273C0.23,-0.358 0.261,-0.411 0.314,-0.411C0.364,-0.411 0.395,-0.358 0.395,-0.273C0.395,-0.187 0.364,-0.135 0.314,-0.135Z" style="fill:rgb(255,192,0);fill-rule:nonzero;"/>
        </g>
        <g transform="matrix(16.241,0,0,16.241,42.668,96.4205)">
            <path d="M0.05,-0L0.246,-0L0.246,-0.545L0.05,-0.545L0.05,-0ZM0.148,-0.602C0.201,-0.602 0.244,-0.642 0.244,-0.692C0.244,-0.741 0.201,-0.781 0.148,-0.781C0.094,-0.781 0.051,-0.741 0.051,-0.692C0.051,-0.642 0.094,-0.602 0.148,-0.602Z" style="fill:rgb(255,192,0);fill-rule:nonzero;"/>
        </g>
        <g transform="matrix(16.241,0,0,16.241,47.4665,96.4205)">
            <path d="M0.375,-0.545L0.281,-0.545L0.281,-0.676L0.085,-0.676L0.085,-0.545L0.016,-0.545L0.016,-0.403L0.085,-0.403L0.085,-0.157C0.084,-0.043 0.154,0.015 0.29,0.008C0.334,0.005 0.367,-0.004 0.385,-0.009L0.357,-0.147C0.349,-0.145 0.33,-0.141 0.318,-0.141C0.293,-0.141 0.281,-0.153 0.281,-0.175L0.281,-0.403L0.375,-0.403L0.375,-0.545Z" style="fill:rgb(255,192,0);fill-rule:nonzero;"/>
        </g>
        <g transform="matrix(16.241,0,0,16.241,54.0413,96.4205)">
            <path d="M0.403,-0.239C0.404,-0.185 0.373,-0.152 0.324,-0.152C0.274,-0.152 0.246,-0.185 0.246,-0.239L0.246,-0.545L0.05,-0.545L0.05,-0.197C0.05,-0.078 0.125,0.007 0.24,0.007C0.321,0.007 0.384,-0.034 0.408,-0.104L0.413,-0.104L0.413,-0L0.599,-0L0.599,-0.545L0.403,-0.545L0.403,-0.239Z" style="fill:rgb(255,192,0);fill-rule:nonzero;"/>
        </g>
        <g transform="matrix(16.241,0,0,16.241,64.5841,96.4205)">
            <path d="M0.05,-0L0.246,-0L0.246,-0.284C0.246,-0.347 0.289,-0.388 0.347,-0.388C0.367,-0.388 0.399,-0.385 0.419,-0.378L0.419,-0.545C0.403,-0.55 0.386,-0.553 0.369,-0.553C0.311,-0.553 0.266,-0.518 0.246,-0.442L0.24,-0.442L0.24,-0.545L0.05,-0.545L0.05,-0Z" style="fill:rgb(255,192,0);fill-rule:nonzero;"/>
        </g>
        <g transform="matrix(16.241,0,0,16.241,71.1128,96.4205)">
            <path d="M0.311,0.01C0.462,0.01 0.56,-0.062 0.578,-0.176L0.399,-0.176C0.388,-0.145 0.355,-0.128 0.315,-0.128C0.257,-0.128 0.223,-0.166 0.223,-0.219L0.223,-0.227L0.578,-0.227L0.578,-0.273C0.578,-0.446 0.472,-0.553 0.307,-0.553C0.138,-0.553 0.03,-0.44 0.03,-0.271C0.03,-0.095 0.136,0.01 0.311,0.01ZM0.223,-0.335C0.224,-0.382 0.263,-0.415 0.311,-0.415C0.36,-0.415 0.397,-0.382 0.398,-0.335L0.223,-0.335Z" style="fill:rgb(255,192,0);fill-rule:nonzero;"/>
        </g>
        <g transform="matrix(16.241,0,0,16.241,80.9866,96.4205)">
            <path d="M0.047,-0L0.244,-0L0.244,-0.284L0.506,-0.284L0.506,-0L0.703,-0L0.703,-0.727L0.506,-0.727L0.506,-0.443L0.244,-0.443L0.244,-0.727L0.047,-0.727L0.047,-0Z" style="fill:rgb(255,192,0);fill-rule:nonzero;"/>
        </g>
        <g transform="matrix(16.241,0,0,16.241,93.1673,96.4205)">
            <path d="M0.169,0.205C0.306,0.205 0.37,0.136 0.401,0.045L0.599,-0.545L0.393,-0.545L0.304,-0.168L0.298,-0.168L0.21,-0.545L0.006,-0.545L0.197,0.024L0.193,0.034C0.18,0.064 0.142,0.063 0.094,0.046L0.051,0.185C0.082,0.197 0.124,0.205 0.169,0.205Z" style="fill:rgb(255,192,0);fill-rule:nonzero;"/>
        </g>
        <g transform="matrix(16.241,0,0,16.241,102.995,96.4205)">
            <path d="M0.047,-0L0.241,-0L0.241,-0.089L0.246,-0.089C0.268,-0.034 0.321,0.007 0.398,0.007C0.514,0.007 0.612,-0.084 0.612,-0.273C0.612,-0.47 0.507,-0.553 0.399,-0.553C0.318,-0.553 0.267,-0.506 0.246,-0.45L0.243,-0.45L0.243,-0.727L0.047,-0.727L0.047,-0ZM0.239,-0.273C0.239,-0.354 0.271,-0.402 0.325,-0.402C0.379,-0.402 0.411,-0.354 0.411,-0.273C0.411,-0.192 0.379,-0.143 0.325,-0.143C0.271,-0.143 0.239,-0.193 0.239,-0.273Z" style="fill:rgb(255,192,0);fill-rule:nonzero;"/>
        </g>
        <g transform="matrix(16.241,0,0,16.241,113.469,96.4205)">
            <path d="M0.05,-0L0.246,-0L0.246,-0.284C0.246,-0.347 0.289,-0.388 0.347,-0.388C0.367,-0.388 0.399,-0.385 0.419,-0.378L0.419,-0.545C0.403,-0.55 0.386,-0.553 0.369,-0.553C0.311,-0.553 0.266,-0.518 0.246,-0.442L0.24,-0.442L0.24,-0.545L0.05,-0.545L0.05,-0Z" style="fill:rgb(255,192,0);fill-rule:nonzero;"/>
        </g>
        <g transform="matrix(16.241,0,0,16.241,120.505,96.4205)">
            <path d="M0.05,-0L0.246,-0L0.246,-0.545L0.05,-0.545L0.05,-0ZM0.148,-0.602C0.201,-0.602 0.244,-0.642 0.244,-0.692C0.244,-0.741 0.201,-0.781 0.148,-0.781C0.094,-0.781 0.051,-0.741 0.051,-0.692C0.051,-0.642 0.094,-0.602 0.148,-0.602Z" style="fill:rgb(255,192,0);fill-rule:nonzero;"/>
        </g>
        <g transform="matrix(16.241,0,0,16.241,125.303,96.4205)">
            <path d="M0.247,0.007C0.324,0.007 0.376,-0.034 0.399,-0.089L0.403,-0.089L0.403,-0L0.598,-0L0.598,-0.727L0.402,-0.727L0.402,-0.45L0.399,-0.45C0.378,-0.506 0.327,-0.553 0.246,-0.553C0.138,-0.553 0.033,-0.47 0.033,-0.273C0.033,-0.084 0.131,0.007 0.247,0.007ZM0.32,-0.143C0.266,-0.143 0.234,-0.192 0.234,-0.273C0.234,-0.354 0.266,-0.402 0.32,-0.402C0.374,-0.402 0.406,-0.354 0.406,-0.273C0.406,-0.193 0.374,-0.143 0.32,-0.143Z" style="fill:rgb(255,192,0);fill-rule:nonzero;"/>
        </g>
        <g transform="matrix(16.241,0,0,16.241,135.777,96.4205)">
            <path d="M0.311,0.01C0.462,0.01 0.56,-0.062 0.578,-0.176L0.399,-0.176C0.388,-0.145 0.355,-0.128 0.315,-0.128C0.257,-0.128 0.223,-0.166 0.223,-0.219L0.223,-0.227L0.578,-0.227L0.578,-0.273C0.578,-0.446 0.472,-0.553 0.307,-0.553C0.138,-0.553 0.03,-0.44 0.03,-0.271C0.03,-0.095 0.136,0.01 0.311,0.01ZM0.223,-0.335C0.224,-0.382 0.263,-0.415 0.311,-0.415C0.36,-0.415 0.397,-0.382 0.398,-0.335L0.223,-0.335Z" style="fill:rgb(255,192,0);fill-rule:nonzero;"/>
        </g>
    </g>
    <g transform="matrix(1.68353,0,0,1.5105,268.256,-59.0504)">
        <path d="M71.823,110.603L71.823,98.885L190.663,98.885L190.663,90.453L203.485,104.744L190.663,119.035L190.663,110.603L71.823,110.603Z" style="fill:white;"/>
    </g>
    <g transform="matrix(1.60089,0,0,1.60089,410.857,-82.9416)">
        <g transform="matrix(12,0,0,12,25.223,96.4205)">
            <path d="M0.047,-0L0.244,-0L0.244,-0.284L0.506,-0.284L0.506,-0L0.703,-0L0.703,-0.727L0.506,-0.727L0.506,-0.443L0.244,-0.443L0.244,-0.727L0.047,-0.727L0.047,-0Z" style="fill:rgb(172,172,172);fill-rule:nonzero;"/>
        </g>
        <g transform="matrix(12,0,0,12,34.223,96.4205)">
            <path d="M0.047,-0L0.57,-0L0.57,-0.159L0.244,-0.159L0.244,-0.284L0.544,-0.284L0.544,-0.443L0.244,-0.443L0.244,-0.568L0.571,-0.568L0.571,-0.727L0.047,-0.727L0.047,-0ZM0.246,-0.795L0.375,-0.795L0.482,-0.955L0.314,-0.955L0.246,-0.795Z" style="fill:rgb(172,172,172);fill-rule:nonzero;"/>
        </g>
        <g transform="matrix(12,0,0,12,41.6889,96.4205)">
            <path d="M0.047,-0L0.244,-0L0.244,-0.24L0.312,-0.24L0.44,-0L0.655,-0L0.507,-0.271C0.585,-0.309 0.631,-0.379 0.631,-0.48C0.631,-0.635 0.522,-0.727 0.361,-0.727L0.047,-0.727L0.047,-0ZM0.244,-0.393L0.244,-0.57L0.314,-0.57C0.383,-0.57 0.425,-0.543 0.425,-0.48C0.425,-0.418 0.383,-0.393 0.314,-0.393L0.244,-0.393Z" style="fill:rgb(172,172,172);fill-rule:nonzero;"/>
        </g>
        <g transform="matrix(12,0,0,12,49.7003,96.4205)">
            <rect x="0.047" y="-0.727" width="0.197" height="0.727" style="fill:rgb(172,172,172);fill-rule:nonzero;"/>
        </g>
        <g transform="matrix(12,0,0,12,53.1946,96.4205)">
            <path d="M0.027,-0.568L0.246,-0.568L0.246,-0L0.44,-0L0.44,-0.568L0.659,-0.568L0.659,-0.727L0.027,-0.727L0.027,-0.568Z" style="fill:rgb(172,172,172);fill-rule:nonzero;"/>
        </g>
        <g transform="matrix(12,0,0,12,60.3196,96.4205)">
            <path d="M0.236,-0L0.278,-0.139L0.518,-0.139L0.56,-0L0.773,-0L0.533,-0.727L0.263,-0.727L0.023,-0L0.236,-0ZM0.322,-0.287L0.395,-0.527L0.401,-0.527L0.473,-0.287L0.322,-0.287Z" style="fill:rgb(172,172,172);fill-rule:nonzero;"/>
        </g>
        <g transform="matrix(12,0,0,12,69.456,96.4205)">
            <path d="M0.519,-0.487L0.719,-0.487C0.703,-0.633 0.571,-0.737 0.399,-0.737C0.203,-0.737 0.044,-0.602 0.044,-0.362C0.044,-0.132 0.188,0.01 0.401,0.01C0.591,0.01 0.727,-0.107 0.727,-0.305L0.727,-0.406L0.405,-0.406L0.405,-0.266L0.537,-0.266C0.535,-0.202 0.49,-0.162 0.402,-0.162C0.3,-0.162 0.247,-0.237 0.247,-0.365C0.247,-0.491 0.304,-0.565 0.403,-0.565C0.465,-0.565 0.507,-0.537 0.519,-0.487Z" style="fill:rgb(172,172,172);fill-rule:nonzero;"/>
        </g>
        <g transform="matrix(12,0,0,12,78.7287,96.4205)">
            <path d="M0.047,-0L0.57,-0L0.57,-0.159L0.244,-0.159L0.244,-0.284L0.544,-0.284L0.544,-0.443L0.244,-0.443L0.244,-0.568L0.571,-0.568L0.571,-0.727L0.047,-0.727L0.047,-0Z" style="fill:rgb(172,172,172);fill-rule:nonzero;"/>
        </g>
    </g>
    <g transform="matrix(1.60089,0,0,1.60089,164.598,-127.512)">
        <g transform="matrix(12,0,0,12,1.17187,96.4205)">
            <path d="M0.726,-0.455C0.71,-0.635 0.578,-0.737 0.395,-0.737C0.199,-0.737 0.044,-0.607 0.044,-0.364C0.044,-0.122 0.195,0.01 0.395,0.01C0.608,0.01 0.716,-0.138 0.726,-0.261L0.526,-0.263C0.516,-0.201 0.472,-0.162 0.399,-0.162C0.303,-0.162 0.247,-0.23 0.247,-0.364C0.247,-0.49 0.301,-0.565 0.401,-0.565C0.477,-0.565 0.52,-0.521 0.526,-0.455L0.726,-0.455Z" style="fill:rgb(172,172,172);fill-rule:nonzero;"/>
        </g>
        <g transform="matrix(12,0,0,12,10.3935,96.4205)">
            <path d="M0.047,-0L0.538,-0L0.538,-0.159L0.244,-0.159L0.244,-0.727L0.047,-0.727L0.047,-0Z" style="fill:rgb(172,172,172);fill-rule:nonzero;"/>
        </g>
        <g transform="matrix(12,0,0,12,17.2457,96.4205)">
            <path d="M0.236,-0L0.278,-0.139L0.518,-0.139L0.56,-0L0.773,-0L0.533,-0.727L0.263,-0.727L0.023,-0L0.236,-0ZM0.322,-0.287L0.395,-0.527L0.401,-0.527L0.473,-0.287L0.322,-0.287Z" style="fill:rgb(172,172,172);fill-rule:nonzero;"/>
        </g>
        <g transform="matrix(12,0,0,12,26.4503,96.4205)">
            <path d="M0.439,-0.5L0.628,-0.5C0.627,-0.643 0.517,-0.737 0.341,-0.737C0.168,-0.737 0.046,-0.644 0.047,-0.506C0.047,-0.392 0.125,-0.329 0.254,-0.301L0.327,-0.286C0.408,-0.268 0.435,-0.248 0.436,-0.214C0.435,-0.179 0.403,-0.153 0.339,-0.153C0.264,-0.153 0.219,-0.189 0.216,-0.256L0.028,-0.256C0.029,-0.073 0.153,0.009 0.342,0.009C0.527,0.009 0.637,-0.071 0.638,-0.214C0.637,-0.325 0.571,-0.403 0.411,-0.437L0.351,-0.45C0.282,-0.465 0.251,-0.485 0.253,-0.52C0.253,-0.552 0.28,-0.575 0.341,-0.575C0.405,-0.575 0.435,-0.547 0.439,-0.5Z" style="fill:rgb(172,172,172);fill-rule:nonzero;"/>
        </g>
        <g transform="matrix(12,0,0,12,34.4446,96.4205)">
            <path d="M0.439,-0.5L0.628,-0.5C0.627,-0.643 0.517,-0.737 0.341,-0.737C0.168,-0.737 0.046,-0.644 0.047,-0.506C0.047,-0.392 0.125,-0.329 0.254,-0.301L0.327,-0.286C0.408,-0.268 0.435,-0.248 0.436,-0.214C0.435,-0.179 0.403,-0.153 0.339,-0.153C0.264,-0.153 0.219,-0.189 0.216,-0.256L0.028,-0.256C0.029,-0.073 0.153,0.009 0.342,0.009C0.527,0.009 0.637,-0.071 0.638,-0.214C0.637,-0.325 0.571,-0.403 0.411,-0.437L0.351,-0.45C0.282,-0.465 0.251,-0.485 0.253,-0.52C0.253,-0.552 0.28,-0.575 0.341,-0.575C0.405,-0.575 0.435,-0.547 0.439,-0.5Z" style="fill:rgb(172,172,172);fill-rule:nonzero;"/>
        </g>
        <g transform="matrix(12,0,0,12,42.4389,96.4205)">
            <path d="M0.047,-0L0.57,-0L0.57,-0.159L0.244,-0.159L0.244,-0.284L0.544,-0.284L0.544,-0.443L0.244,-0.443L0.244,-0.568L0.571,-0.568L0.571,-0.727L0.047,-0.727L0.047,-0Z" style="fill:rgb(172,172,172);fill-rule:nonzero;"/>
        </g>
        <g transform="matrix(12,0,0,12,52.2912,96.4205)">
            <path d="M0.163,-0.727L0.036,-0.727L0.036,-0.433L0.163,-0.433L0.163,-0.727ZM0.348,-0.727L0.22,-0.727L0.22,-0.433L0.348,-0.433L0.348,-0.727Z" style="fill:rgb(172,172,172);fill-rule:nonzero;"/>
        </g>
        <g transform="matrix(12,0,0,12,56.9105,96.4205)">
            <path d="M0.047,-0L0.244,-0L0.244,-0.216L0.354,-0.216C0.52,-0.216 0.631,-0.314 0.631,-0.47C0.631,-0.625 0.522,-0.727 0.361,-0.727L0.047,-0.727L0.047,-0ZM0.244,-0.369L0.244,-0.57L0.314,-0.57C0.383,-0.57 0.425,-0.533 0.425,-0.47C0.425,-0.408 0.383,-0.369 0.314,-0.369L0.244,-0.369Z" style="fill:rgb(172,172,172);fill-rule:nonzero;"/>
        </g>
        <g transform="matrix(12,0,0,12,63.6946,96.4205)">
            <path d="M0.236,-0L0.278,-0.139L0.518,-0.139L0.56,-0L0.773,-0L0.533,-0.727L0.263,-0.727L0.023,-0L0.236,-0ZM0.322,-0.287L0.395,-0.527L0.401,-0.527L0.473,-0.287L0.322,-0.287Z" style="fill:rgb(172,172,172);fill-rule:nonzero;"/>
        </g>
        <g transform="matrix(12,0,0,12,73.2401,96.4205)">
            <path d="M0.047,-0L0.244,-0L0.244,-0.24L0.312,-0.24L0.44,-0L0.655,-0L0.507,-0.271C0.585,-0.309 0.631,-0.379 0.631,-0.48C0.631,-0.635 0.522,-0.727 0.361,-0.727L0.047,-0.727L0.047,-0ZM0.244,-0.393L0.244,-0.57L0.314,-0.57C0.383,-0.57 0.425,-0.543 0.425,-0.48C0.425,-0.418 0.383,-0.393 0.314,-0.393L0.244,-0.393Z" style="fill:rgb(172,172,172);fill-rule:nonzero;"/>
        </g>
        <g transform="matrix(12,0,0,12,81.2514,96.4205)">
            <path d="M0.047,-0L0.57,-0L0.57,-0.159L0.244,-0.159L0.244,-0.284L0.544,-0.284L0.544,-0.443L0.244,-0.443L0.244,-0.568L0.571,-0.568L0.571,-0.727L0.047,-0.727L0.047,-0Z" style="fill:rgb(172,172,172);fill-rule:nonzero;"/>
        </g>
        <g transform="matrix(12,0,0,12,88.7173,96.4205)">
            <path d="M0.676,-0.727L0.479,-0.727L0.479,-0.347L0.473,-0.347L0.214,-0.727L0.047,-0.727L0.047,-0L0.244,-0L0.244,-0.382L0.249,-0.382L0.511,-0L0.676,-0L0.676,-0.727Z" style="fill:rgb(172,172,172);fill-rule:nonzero;"/>
        </g>
        <g transform="matrix(12,0,0,12,97.3935,96.4205)">
            <path d="M0.027,-0.568L0.246,-0.568L0.246,-0L0.44,-0L0.44,-0.568L0.659,-0.568L0.659,-0.727L0.027,-0.727L0.027,-0.568Z" style="fill:rgb(172,172,172);fill-rule:nonzero;"/>
        </g>
        <g transform="matrix(12,0,0,12,105.626,96.4205)">
            <path d="M0.163,-0.727L0.036,-0.727L0.036,-0.433L0.163,-0.433L0.163,-0.727ZM0.348,-0.727L0.22,-0.727L0.22,-0.433L0.348,-0.433L0.348,-0.727Z" style="fill:rgb(172,172,172);fill-rule:nonzero;"/>
        </g>
    </g>
    <g transform="matrix(1.60089,0,0,1.60089,651.977,-127.512)">
        <g transform="matrix(12,0,0,12,1.27414,96.4205)">
            <path d="M0.726,-0.455C0.71,-0.635 0.578,-0.737 0.395,-0.737C0.199,-0.737 0.044,-0.607 0.044,-0.364C0.044,-0.122 0.195,0.01 0.395,0.01C0.608,0.01 0.716,-0.138 0.726,-0.261L0.526,-0.263C0.516,-0.201 0.472,-0.162 0.399,-0.162C0.303,-0.162 0.247,-0.23 0.247,-0.364C0.247,-0.49 0.301,-0.565 0.401,-0.565C0.477,-0.565 0.52,-0.521 0.526,-0.455L0.726,-0.455Z" style="fill:rgb(172,172,172);fill-rule:nonzero;"/>
        </g>
        <g transform="matrix(12,0,0,12,10.4957,96.4205)">
            <path d="M0.047,-0L0.538,-0L0.538,-0.159L0.244,-0.159L0.244,-0.727L0.047,-0.727L0.047,-0Z" style="fill:rgb(172,172,172);fill-rule:nonzero;"/>
        </g>
        <g transform="matrix(12,0,0,12,17.348,96.4205)">
            <path d="M0.236,-0L0.278,-0.139L0.518,-0.139L0.56,-0L0.773,-0L0.533,-0.727L0.263,-0.727L0.023,-0L0.236,-0ZM0.322,-0.287L0.395,-0.527L0.401,-0.527L0.473,-0.287L0.322,-0.287Z" style="fill:rgb(172,172,172);fill-rule:nonzero;"/>
        </g>
        <g transform="matrix(12,0,0,12,26.5526,96.4205)">
            <path d="M0.439,-0.5L0.628,-0.5C0.627,-0.643 0.517,-0.737 0.341,-0.737C0.168,-0.737 0.046,-0.644 0.047,-0.506C0.047,-0.392 0.125,-0.329 0.254,-0.301L0.327,-0.286C0.408,-0.268 0.435,-0.248 0.436,-0.214C0.435,-0.179 0.403,-0.153 0.339,-0.153C0.264,-0.153 0.219,-0.189 0.216,-0.256L0.028,-0.256C0.029,-0.073 0.153,0.009 0.342,0.009C0.527,0.009 0.637,-0.071 0.638,-0.214C0.637,-0.325 0.571,-0.403 0.411,-0.437L0.351,-0.45C0.282,-0.465 0.251,-0.485 0.253,-0.52C0.253,-0.552 0.28,-0.575 0.341,-0.575C0.405,-0.575 0.435,-0.547 0.439,-0.5Z" style="fill:rgb(172,172,172);fill-rule:nonzero;"/>
        </g>
        <g transform="matrix(12,0,0,12,34.5469,96.4205)">
            <path d="M0.439,-0.5L0.628,-0.5C0.627,-0.643 0.517,-0.737 0.341,-0.737C0.168,-0.737 0.046,-0.644 0.047,-0.506C0.047,-0.392 0.125,-0.329 0.254,-0.301L0.327,-0.286C0.408,-0.268 0.435,-0.248 0.436,-0.214C0.435,-0.179 0.403,-0.153 0.339,-0.153C0.264,-0.153 0.219,-0.189 0.216,-0.256L0.028,-0.256C0.029,-0.073 0.153,0.009 0.342,0.009C0.527,0.009 0.637,-0.071 0.638,-0.214C0.637,-0.325 0.571,-0.403 0.411,-0.437L0.351,-0.45C0.282,-0.465 0.251,-0.485 0.253,-0.52C0.253,-0.552 0.28,-0.575 0.341,-0.575C0.405,-0.575 0.435,-0.547 0.439,-0.5Z" style="fill:rgb(172,172,172);fill-rule:nonzero;"/>
        </g>
        <g transform="matrix(12,0,0,12,42.5412,96.4205)">
            <path d="M0.047,-0L0.57,-0L0.57,-0.159L0.244,-0.159L0.244,-0.284L0.544,-0.284L0.544,-0.443L0.244,-0.443L0.244,-0.568L0.571,-0.568L0.571,-0.727L0.047,-0.727L0.047,-0Z" style="fill:rgb(172,172,172);fill-rule:nonzero;"/>
        </g>
        <g transform="matrix(12,0,0,12,52.3935,96.4205)">
            <path d="M0.163,-0.727L0.036,-0.727L0.036,-0.433L0.163,-0.433L0.163,-0.727ZM0.348,-0.727L0.22,-0.727L0.22,-0.433L0.348,-0.433L0.348,-0.727Z" style="fill:rgb(172,172,172);fill-rule:nonzero;"/>
        </g>
        <g transform="matrix(12,0,0,12,57.0128,96.4205)">
            <path d="M0.047,-0L0.57,-0L0.57,-0.159L0.244,-0.159L0.244,-0.284L0.544,-0.284L0.544,-0.443L0.244,-0.443L0.244,-0.568L0.571,-0.568L0.571,-0.727L0.047,-0.727L0.047,-0Z" style="fill:rgb(172,172,172);fill-rule:nonzero;"/>
        </g>
        <g transform="matrix(12,0,0,12,64.4787,96.4205)">
            <path d="M0.676,-0.727L0.479,-0.727L0.479,-0.347L0.473,-0.347L0.214,-0.727L0.047,-0.727L0.047,-0L0.244,-0L0.244,-0.382L0.249,-0.382L0.511,-0L0.676,-0L0.676,-0.727Z" style="fill:rgb(172,172,172);fill-rule:nonzero;"/>
        </g>
        <g transform="matrix(12,0,0,12,73.1548,96.4205)">
            <path d="M0.047,-0L0.244,-0L0.244,-0.284L0.527,-0.284L0.527,-0.443L0.244,-0.443L0.244,-0.568L0.558,-0.568L0.558,-0.727L0.047,-0.727L0.047,-0Z" style="fill:rgb(172,172,172);fill-rule:nonzero;"/>
        </g>
        <g transform="matrix(12,0,0,12,79.0696,96.4205)">
            <path d="M0.236,-0L0.278,-0.139L0.518,-0.139L0.56,-0L0.773,-0L0.533,-0.727L0.263,-0.727L0.023,-0L0.236,-0ZM0.322,-0.287L0.395,-0.527L0.401,-0.527L0.473,-0.287L0.322,-0.287Z" style="fill:rgb(172,172,172);fill-rule:nonzero;"/>
        </g>
        <g transform="matrix(12,0,0,12,88.6151,96.4205)">
            <path d="M0.676,-0.727L0.479,-0.727L0.479,-0.347L0.473,-0.347L0.214,-0.727L0.047,-0.727L0.047,-0L0.244,-0L0.244,-0.382L0.249,-0.382L0.511,-0L0.676,-0L0.676,-0.727Z" style="fill:rgb(172,172,172);fill-rule:nonzero;"/>
        </g>
        <g transform="matrix(12,0,0,12,97.2912,96.4205)">
            <path d="M0.027,-0.568L0.246,-0.568L0.246,-0L0.44,-0L0.44,-0.568L0.659,-0.568L0.659,-0.727L0.027,-0.727L0.027,-0.568Z" style="fill:rgb(172,172,172);fill-rule:nonzero;"/>
        </g>
        <g transform="matrix(12,0,0,12,105.524,96.4205)">
            <path d="M0.163,-0.727L0.036,-0.727L0.036,-0.433L0.163,-0.433L0.163,-0.727ZM0.348,-0.727L0.22,-0.727L0.22,-0.433L0.348,-0.433L0.348,-0.727Z" style="fill:rgb(172,172,172);fill-rule:nonzero;"/>
        </g>
    </g>
</svg>
