<?xml version="1.0" encoding="UTF-8" standalone="no"?>
<!DOCTYPE svg PUBLIC "-//W3C//DTD SVG 1.1//EN" "http://www.w3.org/Graphics/SVG/1.1/DTD/svg11.dtd">
<svg width="100%" height="100%" viewBox="0 0 830 128" version="1.1" xmlns="http://www.w3.org/2000/svg" xmlns:xlink="http://www.w3.org/1999/xlink" xml:space="preserve" xmlns:serif="http://www.serif.com/" style="fill-rule:evenodd;clip-rule:evenodd;stroke-linejoin:round;stroke-miterlimit:2;">
    <g id="Back" transform="matrix(0.36852,0,0,2,-3.55271e-14,0)">
        <rect x="0" y="0" width="750" height="64" style="fill:url(#_Linear1);"/>
    </g>
    <g id="Back1" serif:id="Back" transform="matrix(0.36852,0,0,2,553.61,0)">
        <rect x="0" y="0" width="750" height="64" style="fill:url(#_Linear2);"/>
    </g>
    <g id="Back2" serif:id="Back" transform="matrix(0.369627,0,0,2,276.39,0)">
        <rect x="0" y="0" width="750" height="64" style="fill:url(#_Linear3);"/>
    </g>
    <g id="Icon" transform="matrix(0.125,0,0,0.125,74.195,11.3405)">
        <g transform="matrix(0.978358,0,0,0.988688,2.92794,-3.99101)">
            <rect x="35.046" y="41.678" width="447.249" height="442.576" style="fill:url(#_Linear4);"/>
        </g>
        <g transform="matrix(34.3667,0,0,34.3667,-4284.05,-9082.62)">
            <g transform="matrix(12,0,0,12,127.928,275.983)">
                <path d="M0.443,-0.193C0.443,-0.131 0.424,-0.083 0.387,-0.05C0.35,-0.017 0.301,-0 0.242,-0L0.053,-0C0.05,-0 0.047,-0.001 0.045,-0.004C0.042,-0.006 0.041,-0.009 0.041,-0.012L0.041,-0.688C0.041,-0.691 0.042,-0.694 0.045,-0.697C0.047,-0.699 0.05,-0.7 0.053,-0.7L0.22,-0.7C0.287,-0.7 0.339,-0.684 0.377,-0.652C0.414,-0.62 0.433,-0.572 0.433,-0.509C0.433,-0.443 0.41,-0.395 0.365,-0.365C0.362,-0.363 0.362,-0.361 0.364,-0.359C0.417,-0.322 0.443,-0.266 0.443,-0.193ZM0.187,-0.579C0.184,-0.579 0.182,-0.577 0.182,-0.574L0.182,-0.417C0.182,-0.414 0.184,-0.412 0.187,-0.412L0.222,-0.412C0.245,-0.412 0.263,-0.419 0.276,-0.434C0.289,-0.448 0.295,-0.468 0.295,-0.494C0.295,-0.521 0.289,-0.542 0.276,-0.557C0.263,-0.572 0.245,-0.579 0.222,-0.579L0.187,-0.579ZM0.231,-0.122C0.253,-0.122 0.27,-0.13 0.283,-0.146C0.296,-0.162 0.302,-0.185 0.302,-0.214C0.302,-0.243 0.296,-0.267 0.283,-0.284C0.27,-0.301 0.253,-0.31 0.232,-0.31L0.187,-0.31C0.184,-0.31 0.182,-0.308 0.182,-0.305L0.182,-0.127C0.182,-0.124 0.184,-0.122 0.187,-0.122L0.231,-0.122Z" style="fill:white;fill-rule:nonzero;"/>
            </g>
            <g transform="matrix(12,0,0,12,133.46,275.983)">
                <path d="M0.132,-0.697C0.136,-0.699 0.14,-0.7 0.145,-0.7L0.181,-0.7C0.188,-0.7 0.191,-0.697 0.191,-0.69L0.191,-0.01C0.191,-0.003 0.188,-0 0.181,-0L0.148,-0C0.141,-0 0.138,-0.003 0.138,-0.01L0.138,-0.633C0.138,-0.634 0.138,-0.635 0.137,-0.636C0.136,-0.637 0.134,-0.637 0.133,-0.636L0.036,-0.597L0.032,-0.596C0.028,-0.596 0.025,-0.599 0.024,-0.604L0.019,-0.627L0.019,-0.629C0.019,-0.634 0.021,-0.638 0.025,-0.64L0.132,-0.697Z" style="fill:white;fill-rule:nonzero;"/>
            </g>
        </g>
    </g>
    <g id="Icon1" serif:id="Icon" transform="matrix(0.125,0,0,0.125,138.195,11.3405)">
        <g transform="matrix(0.978358,0,0,0.988688,2.92794,-3.99101)">
            <rect x="35.046" y="41.678" width="447.249" height="442.576" style="fill:url(#_Linear5);"/>
        </g>
        <g transform="matrix(34.3667,0,0,34.3667,-4284.05,-9082.62)">
            <g transform="matrix(12,0,0,12,127.22,275.983)">
                <path d="M0.443,-0.193C0.443,-0.131 0.424,-0.083 0.387,-0.05C0.35,-0.017 0.301,-0 0.242,-0L0.053,-0C0.05,-0 0.047,-0.001 0.045,-0.004C0.042,-0.006 0.041,-0.009 0.041,-0.012L0.041,-0.688C0.041,-0.691 0.042,-0.694 0.045,-0.697C0.047,-0.699 0.05,-0.7 0.053,-0.7L0.22,-0.7C0.287,-0.7 0.339,-0.684 0.377,-0.652C0.414,-0.62 0.433,-0.572 0.433,-0.509C0.433,-0.443 0.41,-0.395 0.365,-0.365C0.362,-0.363 0.362,-0.361 0.364,-0.359C0.417,-0.322 0.443,-0.266 0.443,-0.193ZM0.187,-0.579C0.184,-0.579 0.182,-0.577 0.182,-0.574L0.182,-0.417C0.182,-0.414 0.184,-0.412 0.187,-0.412L0.222,-0.412C0.245,-0.412 0.263,-0.419 0.276,-0.434C0.289,-0.448 0.295,-0.468 0.295,-0.494C0.295,-0.521 0.289,-0.542 0.276,-0.557C0.263,-0.572 0.245,-0.579 0.222,-0.579L0.187,-0.579ZM0.231,-0.122C0.253,-0.122 0.27,-0.13 0.283,-0.146C0.296,-0.162 0.302,-0.185 0.302,-0.214C0.302,-0.243 0.296,-0.267 0.283,-0.284C0.27,-0.301 0.253,-0.31 0.232,-0.31L0.187,-0.31C0.184,-0.31 0.182,-0.308 0.182,-0.305L0.182,-0.127C0.182,-0.124 0.184,-0.122 0.187,-0.122L0.231,-0.122Z" style="fill:white;fill-rule:nonzero;"/>
            </g>
            <g transform="matrix(12,0,0,12,132.752,275.983)">
                <path d="M0.093,-0.052C0.092,-0.051 0.092,-0.05 0.093,-0.049C0.094,-0.048 0.095,-0.047 0.096,-0.047L0.336,-0.047C0.343,-0.047 0.346,-0.044 0.346,-0.037L0.346,-0.01C0.346,-0.003 0.343,-0 0.336,-0L0.038,-0C0.031,-0 0.028,-0.003 0.028,-0.01L0.028,-0.04C0.028,-0.045 0.029,-0.049 0.031,-0.053C0.112,-0.188 0.17,-0.285 0.204,-0.344C0.249,-0.422 0.271,-0.486 0.271,-0.537C0.271,-0.574 0.262,-0.604 0.245,-0.627C0.227,-0.65 0.203,-0.661 0.174,-0.661C0.145,-0.661 0.123,-0.65 0.106,-0.627C0.089,-0.605 0.08,-0.575 0.081,-0.538L0.081,-0.502C0.081,-0.495 0.078,-0.492 0.071,-0.492L0.037,-0.492C0.03,-0.492 0.027,-0.495 0.027,-0.502L0.027,-0.54C0.028,-0.59 0.042,-0.63 0.069,-0.662C0.096,-0.693 0.132,-0.708 0.176,-0.708C0.221,-0.708 0.257,-0.692 0.283,-0.661C0.311,-0.63 0.324,-0.588 0.324,-0.537C0.324,-0.475 0.3,-0.403 0.253,-0.321C0.218,-0.262 0.192,-0.218 0.174,-0.189C0.163,-0.17 0.15,-0.149 0.137,-0.126C0.123,-0.103 0.108,-0.079 0.093,-0.052Z" style="fill:white;fill-rule:nonzero;"/>
            </g>
        </g>
    </g>
    <g id="Icon2" serif:id="Icon" transform="matrix(0.125,0,0,0.125,319,11.3405)">
        <g transform="matrix(0.978358,0,0,0.988688,2.92794,-3.99101)">
            <rect x="35.046" y="41.678" width="447.249" height="442.576" style="fill:url(#_Linear6);"/>
        </g>
        <g transform="matrix(34.3667,0,0,34.3667,-4284.05,-9082.62)">
            <g transform="matrix(12,0,0,12,127.874,275.983)">
                <path d="M0.332,-0C0.324,-0 0.32,-0.004 0.319,-0.011L0.303,-0.107C0.303,-0.11 0.301,-0.112 0.297,-0.112L0.17,-0.112C0.166,-0.112 0.164,-0.11 0.164,-0.107L0.148,-0.011C0.147,-0.004 0.143,-0 0.135,-0L0.018,-0C0.009,-0 0.006,-0.004 0.008,-0.013L0.154,-0.689C0.155,-0.696 0.16,-0.7 0.167,-0.7L0.302,-0.7C0.309,-0.7 0.314,-0.696 0.315,-0.689L0.462,-0.013L0.463,-0.009C0.463,-0.003 0.459,-0 0.452,-0L0.332,-0ZM0.184,-0.226C0.184,-0.223 0.185,-0.221 0.188,-0.221L0.278,-0.221C0.281,-0.221 0.283,-0.223 0.282,-0.226L0.235,-0.502C0.234,-0.504 0.233,-0.505 0.232,-0.505C0.231,-0.505 0.23,-0.504 0.229,-0.502L0.184,-0.226Z" style="fill:white;fill-rule:nonzero;"/>
            </g>
            <g transform="matrix(12,0,0,12,133.514,275.983)">
                <path d="M0.132,-0.697C0.136,-0.699 0.14,-0.7 0.145,-0.7L0.181,-0.7C0.188,-0.7 0.191,-0.697 0.191,-0.69L0.191,-0.01C0.191,-0.003 0.188,-0 0.181,-0L0.148,-0C0.141,-0 0.138,-0.003 0.138,-0.01L0.138,-0.633C0.138,-0.634 0.138,-0.635 0.137,-0.636C0.136,-0.637 0.134,-0.637 0.133,-0.636L0.036,-0.597L0.032,-0.596C0.028,-0.596 0.025,-0.599 0.024,-0.604L0.019,-0.627L0.019,-0.629C0.019,-0.634 0.021,-0.638 0.025,-0.64L0.132,-0.697Z" style="fill:white;fill-rule:nonzero;"/>
            </g>
        </g>
    </g>
    <g id="Icon3" serif:id="Icon" transform="matrix(0.125,0,0,0.125,383,11.3405)">
        <g transform="matrix(0.978358,0,0,0.988688,2.92794,-3.99101)">
            <rect x="35.046" y="41.678" width="447.249" height="442.576" style="fill:url(#_Linear7);"/>
        </g>
        <g transform="matrix(34.3667,0,0,34.3667,-4284.05,-9082.62)">
            <g transform="matrix(12,0,0,12,127.166,275.983)">
                <path d="M0.332,-0C0.324,-0 0.32,-0.004 0.319,-0.011L0.303,-0.107C0.303,-0.11 0.301,-0.112 0.297,-0.112L0.17,-0.112C0.166,-0.112 0.164,-0.11 0.164,-0.107L0.148,-0.011C0.147,-0.004 0.143,-0 0.135,-0L0.018,-0C0.009,-0 0.006,-0.004 0.008,-0.013L0.154,-0.689C0.155,-0.696 0.16,-0.7 0.167,-0.7L0.302,-0.7C0.309,-0.7 0.314,-0.696 0.315,-0.689L0.462,-0.013L0.463,-0.009C0.463,-0.003 0.459,-0 0.452,-0L0.332,-0ZM0.184,-0.226C0.184,-0.223 0.185,-0.221 0.188,-0.221L0.278,-0.221C0.281,-0.221 0.283,-0.223 0.282,-0.226L0.235,-0.502C0.234,-0.504 0.233,-0.505 0.232,-0.505C0.231,-0.505 0.23,-0.504 0.229,-0.502L0.184,-0.226Z" style="fill:white;fill-rule:nonzero;"/>
            </g>
            <g transform="matrix(12,0,0,12,132.806,275.983)">
                <path d="M0.093,-0.052C0.092,-0.051 0.092,-0.05 0.093,-0.049C0.094,-0.048 0.095,-0.047 0.096,-0.047L0.336,-0.047C0.343,-0.047 0.346,-0.044 0.346,-0.037L0.346,-0.01C0.346,-0.003 0.343,-0 0.336,-0L0.038,-0C0.031,-0 0.028,-0.003 0.028,-0.01L0.028,-0.04C0.028,-0.045 0.029,-0.049 0.031,-0.053C0.112,-0.188 0.17,-0.285 0.204,-0.344C0.249,-0.422 0.271,-0.486 0.271,-0.537C0.271,-0.574 0.262,-0.604 0.245,-0.627C0.227,-0.65 0.203,-0.661 0.174,-0.661C0.145,-0.661 0.123,-0.65 0.106,-0.627C0.089,-0.605 0.08,-0.575 0.081,-0.538L0.081,-0.502C0.081,-0.495 0.078,-0.492 0.071,-0.492L0.037,-0.492C0.03,-0.492 0.027,-0.495 0.027,-0.502L0.027,-0.54C0.028,-0.59 0.042,-0.63 0.069,-0.662C0.096,-0.693 0.132,-0.708 0.176,-0.708C0.221,-0.708 0.257,-0.692 0.283,-0.661C0.311,-0.63 0.324,-0.588 0.324,-0.537C0.324,-0.475 0.3,-0.403 0.253,-0.321C0.218,-0.262 0.192,-0.218 0.174,-0.189C0.163,-0.17 0.15,-0.149 0.137,-0.126C0.123,-0.103 0.108,-0.079 0.093,-0.052Z" style="fill:white;fill-rule:nonzero;"/>
            </g>
        </g>
    </g>
    <g id="Icon4" serif:id="Icon" transform="matrix(0.125,0,0,0.125,447,11.3405)">
        <g transform="matrix(0.978358,0,0,0.988688,2.92794,-3.99101)">
            <rect x="35.046" y="41.678" width="447.249" height="442.576" style="fill:url(#_Linear8);"/>
        </g>
        <g transform="matrix(34.3667,0,0,34.3667,-4284.05,-9082.62)">
            <g transform="matrix(12,0,0,12,127.118,275.983)">
                <path d="M0.332,-0C0.324,-0 0.32,-0.004 0.319,-0.011L0.303,-0.107C0.303,-0.11 0.301,-0.112 0.297,-0.112L0.17,-0.112C0.166,-0.112 0.164,-0.11 0.164,-0.107L0.148,-0.011C0.147,-0.004 0.143,-0 0.135,-0L0.018,-0C0.009,-0 0.006,-0.004 0.008,-0.013L0.154,-0.689C0.155,-0.696 0.16,-0.7 0.167,-0.7L0.302,-0.7C0.309,-0.7 0.314,-0.696 0.315,-0.689L0.462,-0.013L0.463,-0.009C0.463,-0.003 0.459,-0 0.452,-0L0.332,-0ZM0.184,-0.226C0.184,-0.223 0.185,-0.221 0.188,-0.221L0.278,-0.221C0.281,-0.221 0.283,-0.223 0.282,-0.226L0.235,-0.502C0.234,-0.504 0.233,-0.505 0.232,-0.505C0.231,-0.505 0.23,-0.504 0.229,-0.502L0.184,-0.226Z" style="fill:white;fill-rule:nonzero;"/>
            </g>
            <g transform="matrix(12,0,0,12,132.758,275.983)">
                <path d="M0.317,-0.333C0.328,-0.302 0.334,-0.26 0.334,-0.209C0.334,-0.169 0.331,-0.136 0.324,-0.109C0.303,-0.031 0.256,0.008 0.183,0.008C0.144,0.008 0.113,-0.003 0.087,-0.025C0.063,-0.046 0.047,-0.077 0.04,-0.117C0.035,-0.142 0.032,-0.169 0.032,-0.198C0.032,-0.205 0.035,-0.208 0.042,-0.208L0.075,-0.208C0.082,-0.208 0.085,-0.205 0.085,-0.198C0.085,-0.174 0.087,-0.15 0.092,-0.127C0.098,-0.098 0.109,-0.077 0.124,-0.062C0.139,-0.047 0.159,-0.039 0.183,-0.039C0.23,-0.039 0.26,-0.065 0.273,-0.118C0.28,-0.144 0.283,-0.176 0.283,-0.213C0.283,-0.257 0.278,-0.295 0.269,-0.326C0.254,-0.372 0.225,-0.395 0.183,-0.395C0.175,-0.395 0.168,-0.394 0.163,-0.391C0.16,-0.39 0.158,-0.389 0.156,-0.39C0.153,-0.39 0.151,-0.391 0.149,-0.393L0.133,-0.41C0.13,-0.415 0.129,-0.419 0.132,-0.424L0.266,-0.648C0.267,-0.649 0.267,-0.651 0.266,-0.652C0.265,-0.653 0.264,-0.653 0.263,-0.653L0.045,-0.653C0.038,-0.653 0.035,-0.656 0.035,-0.663L0.035,-0.69C0.035,-0.697 0.038,-0.7 0.045,-0.7L0.322,-0.7C0.329,-0.7 0.332,-0.697 0.332,-0.69L0.332,-0.66C0.332,-0.655 0.331,-0.651 0.329,-0.647L0.201,-0.436C0.2,-0.435 0.2,-0.434 0.201,-0.433C0.201,-0.432 0.202,-0.431 0.203,-0.431C0.23,-0.43 0.254,-0.42 0.274,-0.403C0.293,-0.386 0.308,-0.362 0.317,-0.333Z" style="fill:white;fill-rule:nonzero;"/>
            </g>
        </g>
    </g>
    <g id="Icon5" serif:id="Icon" transform="matrix(0.125,0,0,0.125,627.805,11.3405)">
        <g transform="matrix(0.978358,0,0,0.988688,2.92794,-3.99101)">
            <rect x="35.046" y="41.678" width="447.249" height="442.576" style="fill:url(#_Linear9);"/>
        </g>
        <g transform="matrix(34.3667,0,0,34.3667,-4284.05,-9082.62)">
            <g transform="matrix(12,0,0,12,127.406,275.983)">
                <path d="M0.365,-0.692C0.368,-0.697 0.373,-0.7 0.38,-0.7L0.496,-0.7C0.499,-0.7 0.502,-0.699 0.504,-0.697C0.507,-0.694 0.508,-0.691 0.508,-0.688L0.508,-0.012C0.508,-0.009 0.507,-0.006 0.504,-0.004C0.502,-0.001 0.499,-0 0.496,-0L0.379,-0C0.376,-0 0.373,-0.001 0.371,-0.004C0.368,-0.006 0.367,-0.009 0.367,-0.012L0.367,-0.463C0.367,-0.466 0.366,-0.467 0.365,-0.467C0.364,-0.467 0.362,-0.466 0.361,-0.464L0.282,-0.324C0.279,-0.319 0.276,-0.316 0.274,-0.316C0.272,-0.316 0.269,-0.319 0.266,-0.324L0.188,-0.463C0.187,-0.465 0.185,-0.466 0.184,-0.466C0.183,-0.466 0.182,-0.465 0.182,-0.462L0.182,-0.012C0.182,-0.009 0.181,-0.006 0.179,-0.004C0.176,-0.001 0.173,-0 0.17,-0L0.053,-0C0.05,-0 0.047,-0.001 0.045,-0.004C0.042,-0.006 0.041,-0.009 0.041,-0.012L0.041,-0.688C0.041,-0.691 0.042,-0.694 0.045,-0.697C0.047,-0.699 0.05,-0.7 0.053,-0.7L0.169,-0.7C0.176,-0.7 0.181,-0.697 0.184,-0.692L0.272,-0.533C0.274,-0.53 0.276,-0.53 0.278,-0.533L0.365,-0.692Z" style="fill:white;fill-rule:nonzero;"/>
            </g>
            <g transform="matrix(12,0,0,12,133.982,275.983)">
                <path d="M0.132,-0.697C0.136,-0.699 0.14,-0.7 0.145,-0.7L0.181,-0.7C0.188,-0.7 0.191,-0.697 0.191,-0.69L0.191,-0.01C0.191,-0.003 0.188,-0 0.181,-0L0.148,-0C0.141,-0 0.138,-0.003 0.138,-0.01L0.138,-0.633C0.138,-0.634 0.138,-0.635 0.137,-0.636C0.136,-0.637 0.134,-0.637 0.133,-0.636L0.036,-0.597L0.032,-0.596C0.028,-0.596 0.025,-0.599 0.024,-0.604L0.019,-0.627L0.019,-0.629C0.019,-0.634 0.021,-0.638 0.025,-0.64L0.132,-0.697Z" style="fill:white;fill-rule:nonzero;"/>
            </g>
        </g>
    </g>
    <g id="Icon6" serif:id="Icon" transform="matrix(0.125,0,0,0.125,691.805,11.3405)">
        <g transform="matrix(0.978358,0,0,0.988688,2.92794,-3.99101)">
            <rect x="35.046" y="41.678" width="447.249" height="442.576" style="fill:url(#_Linear10);"/>
        </g>
        <g transform="matrix(34.3667,0,0,34.3667,-4284.05,-9082.62)">
            <g transform="matrix(12,0,0,12,126.698,275.983)">
                <path d="M0.365,-0.692C0.368,-0.697 0.373,-0.7 0.38,-0.7L0.496,-0.7C0.499,-0.7 0.502,-0.699 0.504,-0.697C0.507,-0.694 0.508,-0.691 0.508,-0.688L0.508,-0.012C0.508,-0.009 0.507,-0.006 0.504,-0.004C0.502,-0.001 0.499,-0 0.496,-0L0.379,-0C0.376,-0 0.373,-0.001 0.371,-0.004C0.368,-0.006 0.367,-0.009 0.367,-0.012L0.367,-0.463C0.367,-0.466 0.366,-0.467 0.365,-0.467C0.364,-0.467 0.362,-0.466 0.361,-0.464L0.282,-0.324C0.279,-0.319 0.276,-0.316 0.274,-0.316C0.272,-0.316 0.269,-0.319 0.266,-0.324L0.188,-0.463C0.187,-0.465 0.185,-0.466 0.184,-0.466C0.183,-0.466 0.182,-0.465 0.182,-0.462L0.182,-0.012C0.182,-0.009 0.181,-0.006 0.179,-0.004C0.176,-0.001 0.173,-0 0.17,-0L0.053,-0C0.05,-0 0.047,-0.001 0.045,-0.004C0.042,-0.006 0.041,-0.009 0.041,-0.012L0.041,-0.688C0.041,-0.691 0.042,-0.694 0.045,-0.697C0.047,-0.699 0.05,-0.7 0.053,-0.7L0.169,-0.7C0.176,-0.7 0.181,-0.697 0.184,-0.692L0.272,-0.533C0.274,-0.53 0.276,-0.53 0.278,-0.533L0.365,-0.692Z" style="fill:white;fill-rule:nonzero;"/>
            </g>
            <g transform="matrix(12,0,0,12,133.274,275.983)">
                <path d="M0.093,-0.052C0.092,-0.051 0.092,-0.05 0.093,-0.049C0.094,-0.048 0.095,-0.047 0.096,-0.047L0.336,-0.047C0.343,-0.047 0.346,-0.044 0.346,-0.037L0.346,-0.01C0.346,-0.003 0.343,-0 0.336,-0L0.038,-0C0.031,-0 0.028,-0.003 0.028,-0.01L0.028,-0.04C0.028,-0.045 0.029,-0.049 0.031,-0.053C0.112,-0.188 0.17,-0.285 0.204,-0.344C0.249,-0.422 0.271,-0.486 0.271,-0.537C0.271,-0.574 0.262,-0.604 0.245,-0.627C0.227,-0.65 0.203,-0.661 0.174,-0.661C0.145,-0.661 0.123,-0.65 0.106,-0.627C0.089,-0.605 0.08,-0.575 0.081,-0.538L0.081,-0.502C0.081,-0.495 0.078,-0.492 0.071,-0.492L0.037,-0.492C0.03,-0.492 0.027,-0.495 0.027,-0.502L0.027,-0.54C0.028,-0.59 0.042,-0.63 0.069,-0.662C0.096,-0.693 0.132,-0.708 0.176,-0.708C0.221,-0.708 0.257,-0.692 0.283,-0.661C0.311,-0.63 0.324,-0.588 0.324,-0.537C0.324,-0.475 0.3,-0.403 0.253,-0.321C0.218,-0.262 0.192,-0.218 0.174,-0.189C0.163,-0.17 0.15,-0.149 0.137,-0.126C0.123,-0.103 0.108,-0.079 0.093,-0.052Z" style="fill:white;fill-rule:nonzero;"/>
            </g>
        </g>
    </g>
    <g transform="matrix(4.67711,0,0,4.67711,-464.044,-55.1454)">
        <g transform="matrix(10.2627,0,0,10.2627,116.119,37.2782)">
            <path d="M0.48,-0.365C0.476,-0.363 0.476,-0.361 0.48,-0.359C0.544,-0.326 0.576,-0.272 0.576,-0.196C0.576,-0.131 0.554,-0.083 0.51,-0.05C0.466,-0.017 0.408,-0 0.337,-0L0.078,-0C0.075,-0 0.072,-0.001 0.07,-0.004C0.067,-0.006 0.066,-0.009 0.066,-0.012L0.066,-0.688C0.066,-0.691 0.067,-0.694 0.07,-0.697C0.072,-0.699 0.075,-0.7 0.078,-0.7L0.328,-0.7C0.487,-0.7 0.566,-0.636 0.566,-0.508C0.566,-0.441 0.537,-0.394 0.48,-0.365ZM0.212,-0.579C0.209,-0.579 0.207,-0.577 0.207,-0.574L0.207,-0.418C0.207,-0.415 0.209,-0.413 0.212,-0.413L0.328,-0.413C0.359,-0.413 0.384,-0.42 0.402,-0.435C0.419,-0.45 0.428,-0.47 0.428,-0.495C0.428,-0.521 0.419,-0.542 0.402,-0.557C0.384,-0.572 0.359,-0.579 0.328,-0.579L0.212,-0.579ZM0.337,-0.122C0.368,-0.122 0.392,-0.13 0.409,-0.146C0.426,-0.161 0.435,-0.183 0.435,-0.21C0.435,-0.237 0.426,-0.259 0.408,-0.275C0.391,-0.29 0.367,-0.298 0.336,-0.298L0.212,-0.298C0.209,-0.298 0.207,-0.296 0.207,-0.293L0.207,-0.127C0.207,-0.124 0.209,-0.122 0.212,-0.122L0.337,-0.122Z" style="fill:white;fill-rule:nonzero;"/>
        </g>
        <g transform="matrix(10.2627,0,0,10.2627,122.369,37.2782)">
            <path d="M0.26,-0.522C0.303,-0.522 0.342,-0.515 0.376,-0.5C0.41,-0.485 0.437,-0.464 0.456,-0.438C0.474,-0.412 0.484,-0.383 0.484,-0.351L0.484,-0.012C0.484,-0.009 0.483,-0.006 0.481,-0.004C0.478,-0.001 0.475,-0 0.472,-0L0.355,-0C0.352,-0 0.349,-0.001 0.346,-0.004C0.344,-0.006 0.343,-0.009 0.343,-0.012L0.343,-0.045C0.343,-0.047 0.342,-0.048 0.341,-0.049C0.34,-0.05 0.338,-0.049 0.337,-0.047C0.308,-0.01 0.263,0.008 0.201,0.008C0.15,0.008 0.108,-0.005 0.076,-0.03C0.044,-0.055 0.028,-0.093 0.028,-0.142C0.028,-0.193 0.046,-0.233 0.082,-0.262C0.118,-0.29 0.169,-0.304 0.236,-0.304L0.338,-0.304C0.341,-0.304 0.343,-0.306 0.343,-0.309L0.343,-0.331C0.343,-0.353 0.336,-0.37 0.323,-0.383C0.309,-0.395 0.289,-0.401 0.263,-0.401C0.242,-0.401 0.225,-0.397 0.212,-0.39C0.198,-0.383 0.189,-0.372 0.185,-0.359C0.183,-0.352 0.179,-0.348 0.172,-0.349L0.051,-0.365C0.043,-0.366 0.039,-0.369 0.04,-0.374C0.043,-0.402 0.054,-0.427 0.074,-0.45C0.093,-0.473 0.119,-0.49 0.152,-0.503C0.184,-0.516 0.22,-0.522 0.26,-0.522ZM0.24,-0.097C0.269,-0.097 0.293,-0.105 0.313,-0.12C0.333,-0.135 0.343,-0.155 0.343,-0.179L0.343,-0.215C0.343,-0.218 0.341,-0.22 0.338,-0.22L0.266,-0.22C0.236,-0.22 0.213,-0.214 0.196,-0.203C0.179,-0.192 0.17,-0.176 0.17,-0.155C0.17,-0.137 0.176,-0.123 0.189,-0.113C0.202,-0.102 0.219,-0.097 0.24,-0.097Z" style="fill:white;fill-rule:nonzero;"/>
        </g>
        <g transform="matrix(10.2627,0,0,10.2627,127.829,37.2782)">
            <path d="M0.247,0.007C0.202,0.007 0.163,0.001 0.13,-0.012C0.097,-0.025 0.071,-0.042 0.053,-0.065C0.035,-0.088 0.026,-0.113 0.026,-0.142L0.026,-0.152C0.026,-0.155 0.027,-0.158 0.029,-0.161C0.032,-0.163 0.035,-0.164 0.038,-0.164L0.149,-0.164C0.152,-0.164 0.155,-0.163 0.158,-0.161C0.16,-0.158 0.161,-0.155 0.161,-0.152L0.161,-0.151C0.161,-0.136 0.169,-0.124 0.185,-0.114C0.201,-0.103 0.221,-0.098 0.246,-0.098C0.269,-0.098 0.287,-0.102 0.301,-0.111C0.315,-0.12 0.322,-0.131 0.322,-0.145C0.322,-0.157 0.316,-0.166 0.304,-0.172C0.292,-0.178 0.272,-0.184 0.245,-0.191C0.214,-0.199 0.189,-0.207 0.171,-0.214C0.128,-0.229 0.094,-0.247 0.069,-0.268C0.044,-0.289 0.031,-0.32 0.031,-0.36C0.031,-0.409 0.05,-0.449 0.089,-0.477C0.128,-0.506 0.178,-0.521 0.241,-0.521C0.284,-0.521 0.321,-0.514 0.354,-0.5C0.386,-0.487 0.411,-0.468 0.429,-0.443C0.446,-0.418 0.455,-0.39 0.455,-0.359C0.455,-0.356 0.454,-0.353 0.452,-0.35C0.449,-0.348 0.446,-0.347 0.443,-0.347L0.335,-0.347C0.332,-0.347 0.329,-0.348 0.327,-0.35C0.324,-0.353 0.323,-0.356 0.323,-0.359C0.323,-0.374 0.316,-0.386 0.301,-0.396C0.286,-0.406 0.267,-0.411 0.242,-0.411C0.219,-0.411 0.201,-0.407 0.187,-0.399C0.173,-0.391 0.166,-0.38 0.166,-0.366C0.166,-0.353 0.173,-0.343 0.187,-0.336C0.2,-0.329 0.223,-0.322 0.254,-0.315C0.273,-0.311 0.292,-0.306 0.31,-0.3C0.357,-0.286 0.395,-0.268 0.422,-0.246C0.449,-0.224 0.463,-0.192 0.463,-0.15C0.463,-0.101 0.444,-0.062 0.405,-0.035C0.366,-0.007 0.313,0.007 0.247,0.007Z" style="fill:white;fill-rule:nonzero;"/>
        </g>
        <g transform="matrix(10.2627,0,0,10.2627,132.899,37.2782)">
            <path d="M0.132,-0.572C0.109,-0.572 0.091,-0.58 0.076,-0.595C0.061,-0.61 0.054,-0.628 0.054,-0.651C0.054,-0.674 0.061,-0.693 0.076,-0.708C0.091,-0.723 0.109,-0.73 0.132,-0.73C0.155,-0.73 0.174,-0.723 0.189,-0.708C0.204,-0.693 0.211,-0.674 0.211,-0.651C0.211,-0.628 0.203,-0.61 0.189,-0.595C0.173,-0.58 0.155,-0.572 0.132,-0.572ZM0.06,-0.503C0.06,-0.506 0.061,-0.509 0.064,-0.511C0.066,-0.514 0.069,-0.515 0.072,-0.515L0.189,-0.515C0.192,-0.515 0.195,-0.514 0.198,-0.511C0.2,-0.509 0.201,-0.506 0.201,-0.503L0.201,-0.012C0.201,-0.009 0.2,-0.006 0.198,-0.004C0.195,-0.001 0.192,-0 0.189,-0L0.072,-0C0.069,-0 0.066,-0.001 0.064,-0.004C0.061,-0.006 0.06,-0.009 0.06,-0.012L0.06,-0.503Z" style="fill:white;fill-rule:nonzero;"/>
        </g>
        <g transform="matrix(10.2627,0,0,10.2627,135.577,37.2782)">
            <path d="M0.273,0.008C0.22,0.008 0.173,-0.005 0.135,-0.032C0.096,-0.059 0.068,-0.095 0.051,-0.142C0.04,-0.175 0.034,-0.215 0.034,-0.26C0.034,-0.305 0.04,-0.343 0.051,-0.376C0.067,-0.421 0.095,-0.457 0.135,-0.483C0.174,-0.509 0.22,-0.522 0.273,-0.522C0.326,-0.522 0.373,-0.509 0.413,-0.482C0.454,-0.455 0.481,-0.422 0.494,-0.381C0.499,-0.365 0.502,-0.353 0.502,-0.345L0.502,-0.343C0.502,-0.337 0.499,-0.333 0.492,-0.332L0.377,-0.315L0.375,-0.315C0.369,-0.315 0.365,-0.318 0.363,-0.325L0.36,-0.341C0.355,-0.358 0.345,-0.373 0.329,-0.384C0.313,-0.395 0.294,-0.401 0.272,-0.401C0.251,-0.401 0.233,-0.396 0.218,-0.385C0.203,-0.374 0.193,-0.36 0.187,-0.341C0.18,-0.321 0.176,-0.294 0.176,-0.259C0.176,-0.224 0.179,-0.197 0.186,-0.177C0.192,-0.157 0.203,-0.141 0.218,-0.13C0.233,-0.119 0.251,-0.113 0.272,-0.113C0.293,-0.113 0.312,-0.118 0.327,-0.13C0.342,-0.141 0.353,-0.156 0.359,-0.175C0.36,-0.176 0.36,-0.178 0.36,-0.181C0.361,-0.182 0.361,-0.183 0.361,-0.184C0.362,-0.192 0.366,-0.195 0.375,-0.194L0.49,-0.176C0.497,-0.175 0.5,-0.171 0.5,-0.165C0.5,-0.16 0.498,-0.15 0.494,-0.135C0.48,-0.09 0.453,-0.055 0.412,-0.03C0.372,-0.005 0.326,0.008 0.273,0.008Z" style="fill:white;fill-rule:nonzero;"/>
        </g>
    </g>
    <g transform="matrix(4.67711,0,0,4.67711,-233.324,-56.5854)">
        <g transform="matrix(10.2627,0,0,10.2627,116.119,37.2782)">
            <path d="M0.492,-0C0.485,-0 0.481,-0.003 0.479,-0.01L0.449,-0.108C0.448,-0.111 0.446,-0.112 0.444,-0.112L0.198,-0.112C0.196,-0.112 0.194,-0.111 0.193,-0.108L0.164,-0.01C0.162,-0.003 0.158,-0 0.151,-0L0.024,-0C0.02,-0 0.017,-0.001 0.015,-0.004C0.013,-0.006 0.013,-0.009 0.014,-0.014L0.23,-0.69C0.232,-0.697 0.236,-0.7 0.243,-0.7L0.4,-0.7C0.407,-0.7 0.411,-0.697 0.413,-0.69L0.629,-0.014C0.63,-0.013 0.63,-0.011 0.63,-0.009C0.63,-0.003 0.626,-0 0.619,-0L0.492,-0ZM0.229,-0.227C0.228,-0.223 0.23,-0.221 0.233,-0.221L0.409,-0.221C0.413,-0.221 0.414,-0.223 0.413,-0.227L0.323,-0.524C0.322,-0.527 0.321,-0.528 0.32,-0.528C0.319,-0.527 0.318,-0.526 0.317,-0.524L0.229,-0.227Z" style="fill:white;fill-rule:nonzero;"/>
        </g>
        <g transform="matrix(10.2627,0,0,10.2627,122.718,37.2782)">
            <path d="M0.369,-0.688C0.369,-0.691 0.37,-0.694 0.373,-0.697C0.375,-0.699 0.378,-0.7 0.381,-0.7L0.498,-0.7C0.501,-0.7 0.504,-0.699 0.506,-0.697C0.509,-0.694 0.51,-0.691 0.51,-0.688L0.51,-0.012C0.51,-0.009 0.509,-0.006 0.506,-0.004C0.504,-0.001 0.501,-0 0.498,-0L0.381,-0C0.378,-0 0.375,-0.001 0.373,-0.004C0.37,-0.006 0.369,-0.009 0.369,-0.012L0.369,-0.046C0.369,-0.048 0.368,-0.049 0.367,-0.05C0.366,-0.05 0.364,-0.049 0.363,-0.048C0.335,-0.011 0.296,0.008 0.247,0.008C0.2,0.008 0.16,-0.005 0.127,-0.031C0.093,-0.057 0.069,-0.093 0.054,-0.138C0.043,-0.173 0.037,-0.213 0.037,-0.259C0.037,-0.306 0.043,-0.348 0.055,-0.383C0.07,-0.426 0.095,-0.46 0.128,-0.485C0.161,-0.509 0.201,-0.522 0.25,-0.522C0.299,-0.522 0.337,-0.505 0.363,-0.47C0.364,-0.469 0.366,-0.468 0.367,-0.469C0.368,-0.469 0.369,-0.47 0.369,-0.472L0.369,-0.688ZM0.347,-0.156C0.36,-0.181 0.367,-0.214 0.367,-0.257C0.367,-0.302 0.36,-0.337 0.345,-0.362C0.33,-0.388 0.307,-0.401 0.278,-0.401C0.247,-0.401 0.223,-0.388 0.207,-0.362C0.19,-0.336 0.182,-0.301 0.182,-0.256C0.182,-0.216 0.189,-0.183 0.203,-0.156C0.22,-0.127 0.244,-0.113 0.277,-0.113C0.307,-0.113 0.33,-0.127 0.347,-0.156Z" style="fill:white;fill-rule:nonzero;"/>
        </g>
        <g transform="matrix(10.2627,0,0,10.2627,128.527,37.2782)">
            <path d="M0.022,-0.501C0.021,-0.502 0.021,-0.504 0.021,-0.506C0.021,-0.512 0.025,-0.515 0.032,-0.515L0.161,-0.515C0.168,-0.515 0.173,-0.512 0.175,-0.505L0.257,-0.202C0.258,-0.2 0.259,-0.199 0.26,-0.199C0.261,-0.199 0.262,-0.2 0.263,-0.202L0.345,-0.505C0.347,-0.512 0.352,-0.515 0.359,-0.515L0.488,-0.513C0.492,-0.513 0.495,-0.512 0.497,-0.509C0.499,-0.507 0.499,-0.504 0.498,-0.499L0.339,-0.01C0.337,-0.003 0.333,-0 0.326,-0L0.195,-0C0.188,-0 0.184,-0.003 0.182,-0.01L0.022,-0.501Z" style="fill:white;fill-rule:nonzero;"/>
        </g>
        <g transform="matrix(10.2627,0,0,10.2627,133.679,37.2782)">
            <path d="M0.26,-0.522C0.303,-0.522 0.342,-0.515 0.376,-0.5C0.41,-0.485 0.437,-0.464 0.456,-0.438C0.474,-0.412 0.484,-0.383 0.484,-0.351L0.484,-0.012C0.484,-0.009 0.483,-0.006 0.481,-0.004C0.478,-0.001 0.475,-0 0.472,-0L0.355,-0C0.352,-0 0.349,-0.001 0.346,-0.004C0.344,-0.006 0.343,-0.009 0.343,-0.012L0.343,-0.045C0.343,-0.047 0.342,-0.048 0.341,-0.049C0.34,-0.05 0.338,-0.049 0.337,-0.047C0.308,-0.01 0.263,0.008 0.201,0.008C0.15,0.008 0.108,-0.005 0.076,-0.03C0.044,-0.055 0.028,-0.093 0.028,-0.142C0.028,-0.193 0.046,-0.233 0.082,-0.262C0.118,-0.29 0.169,-0.304 0.236,-0.304L0.338,-0.304C0.341,-0.304 0.343,-0.306 0.343,-0.309L0.343,-0.331C0.343,-0.353 0.336,-0.37 0.323,-0.383C0.309,-0.395 0.289,-0.401 0.263,-0.401C0.242,-0.401 0.225,-0.397 0.212,-0.39C0.198,-0.383 0.189,-0.372 0.185,-0.359C0.183,-0.352 0.179,-0.348 0.172,-0.349L0.051,-0.365C0.043,-0.366 0.039,-0.369 0.04,-0.374C0.043,-0.402 0.054,-0.427 0.074,-0.45C0.093,-0.473 0.119,-0.49 0.152,-0.503C0.184,-0.516 0.22,-0.522 0.26,-0.522ZM0.24,-0.097C0.269,-0.097 0.293,-0.105 0.313,-0.12C0.333,-0.135 0.343,-0.155 0.343,-0.179L0.343,-0.215C0.343,-0.218 0.341,-0.22 0.338,-0.22L0.266,-0.22C0.236,-0.22 0.213,-0.214 0.196,-0.203C0.179,-0.192 0.17,-0.176 0.17,-0.155C0.17,-0.137 0.176,-0.123 0.189,-0.113C0.202,-0.102 0.219,-0.097 0.24,-0.097Z" style="fill:white;fill-rule:nonzero;"/>
        </g>
        <g transform="matrix(10.2627,0,0,10.2627,139.169,37.2782)">
            <path d="M0.324,-0.522C0.377,-0.522 0.42,-0.506 0.453,-0.473C0.486,-0.44 0.502,-0.396 0.502,-0.34L0.502,-0.012C0.502,-0.009 0.501,-0.006 0.499,-0.004C0.496,-0.001 0.493,-0 0.49,-0L0.373,-0C0.37,-0 0.367,-0.001 0.365,-0.004C0.362,-0.006 0.361,-0.009 0.361,-0.012L0.361,-0.311C0.361,-0.338 0.354,-0.359 0.339,-0.376C0.324,-0.393 0.305,-0.401 0.28,-0.401C0.255,-0.401 0.235,-0.393 0.22,-0.376C0.205,-0.359 0.197,-0.338 0.197,-0.311L0.197,-0.012C0.197,-0.009 0.196,-0.006 0.194,-0.004C0.191,-0.001 0.188,-0 0.185,-0L0.068,-0C0.065,-0 0.062,-0.001 0.059,-0.004C0.057,-0.006 0.056,-0.009 0.056,-0.012L0.056,-0.502C0.056,-0.505 0.057,-0.508 0.059,-0.51C0.062,-0.513 0.065,-0.514 0.068,-0.514L0.185,-0.514C0.188,-0.514 0.191,-0.513 0.194,-0.51C0.196,-0.508 0.197,-0.505 0.197,-0.502L0.197,-0.467C0.197,-0.465 0.198,-0.464 0.199,-0.463C0.2,-0.462 0.201,-0.463 0.202,-0.464C0.229,-0.503 0.27,-0.522 0.324,-0.522Z" style="fill:white;fill-rule:nonzero;"/>
        </g>
        <g transform="matrix(10.2627,0,0,10.2627,144.876,37.2782)">
            <path d="M0.273,0.008C0.22,0.008 0.173,-0.005 0.135,-0.032C0.096,-0.059 0.068,-0.095 0.051,-0.142C0.04,-0.175 0.034,-0.215 0.034,-0.26C0.034,-0.305 0.04,-0.343 0.051,-0.376C0.067,-0.421 0.095,-0.457 0.135,-0.483C0.174,-0.509 0.22,-0.522 0.273,-0.522C0.326,-0.522 0.373,-0.509 0.413,-0.482C0.454,-0.455 0.481,-0.422 0.494,-0.381C0.499,-0.365 0.502,-0.353 0.502,-0.345L0.502,-0.343C0.502,-0.337 0.499,-0.333 0.492,-0.332L0.377,-0.315L0.375,-0.315C0.369,-0.315 0.365,-0.318 0.363,-0.325L0.36,-0.341C0.355,-0.358 0.345,-0.373 0.329,-0.384C0.313,-0.395 0.294,-0.401 0.272,-0.401C0.251,-0.401 0.233,-0.396 0.218,-0.385C0.203,-0.374 0.193,-0.36 0.187,-0.341C0.18,-0.321 0.176,-0.294 0.176,-0.259C0.176,-0.224 0.179,-0.197 0.186,-0.177C0.192,-0.157 0.203,-0.141 0.218,-0.13C0.233,-0.119 0.251,-0.113 0.272,-0.113C0.293,-0.113 0.312,-0.118 0.327,-0.13C0.342,-0.141 0.353,-0.156 0.359,-0.175C0.36,-0.176 0.36,-0.178 0.36,-0.181C0.361,-0.182 0.361,-0.183 0.361,-0.184C0.362,-0.192 0.366,-0.195 0.375,-0.194L0.49,-0.176C0.497,-0.175 0.5,-0.171 0.5,-0.165C0.5,-0.16 0.498,-0.15 0.494,-0.135C0.48,-0.09 0.453,-0.055 0.412,-0.03C0.372,-0.005 0.326,0.008 0.273,0.008Z" style="fill:white;fill-rule:nonzero;"/>
        </g>
        <g transform="matrix(10.2627,0,0,10.2627,150.274,37.2782)">
            <path d="M0.5,-0.31C0.504,-0.285 0.505,-0.256 0.504,-0.225C0.503,-0.217 0.499,-0.213 0.491,-0.213L0.182,-0.213C0.181,-0.213 0.179,-0.213 0.178,-0.212C0.177,-0.211 0.176,-0.209 0.177,-0.208C0.18,-0.193 0.184,-0.18 0.189,-0.168C0.206,-0.131 0.242,-0.112 0.295,-0.112C0.337,-0.113 0.37,-0.13 0.395,-0.164C0.398,-0.168 0.401,-0.17 0.404,-0.17C0.407,-0.17 0.409,-0.169 0.412,-0.166L0.483,-0.095C0.486,-0.092 0.487,-0.089 0.487,-0.086C0.487,-0.084 0.486,-0.081 0.484,-0.078C0.463,-0.051 0.435,-0.029 0.4,-0.015C0.365,0 0.327,0.008 0.286,0.008C0.229,0.008 0.18,-0.005 0.141,-0.031C0.101,-0.057 0.072,-0.093 0.055,-0.14C0.041,-0.173 0.034,-0.217 0.034,-0.272C0.034,-0.307 0.039,-0.339 0.048,-0.368C0.064,-0.415 0.091,-0.453 0.13,-0.481C0.168,-0.509 0.213,-0.523 0.266,-0.523C0.333,-0.523 0.386,-0.504 0.426,-0.465C0.466,-0.426 0.491,-0.375 0.5,-0.31ZM0.266,-0.401C0.225,-0.401 0.197,-0.381 0.184,-0.342C0.181,-0.334 0.179,-0.323 0.177,-0.31C0.177,-0.307 0.179,-0.305 0.182,-0.305L0.355,-0.305C0.359,-0.305 0.36,-0.307 0.359,-0.31C0.356,-0.329 0.354,-0.339 0.354,-0.338C0.348,-0.358 0.338,-0.374 0.323,-0.385C0.308,-0.396 0.289,-0.401 0.266,-0.401Z" style="fill:white;fill-rule:nonzero;"/>
        </g>
        <g transform="matrix(10.2627,0,0,10.2627,155.744,37.2782)">
            <path d="M0.369,-0.688C0.369,-0.691 0.37,-0.694 0.373,-0.697C0.375,-0.699 0.378,-0.7 0.381,-0.7L0.498,-0.7C0.501,-0.7 0.504,-0.699 0.506,-0.697C0.509,-0.694 0.51,-0.691 0.51,-0.688L0.51,-0.012C0.51,-0.009 0.509,-0.006 0.506,-0.004C0.504,-0.001 0.501,-0 0.498,-0L0.381,-0C0.378,-0 0.375,-0.001 0.373,-0.004C0.37,-0.006 0.369,-0.009 0.369,-0.012L0.369,-0.046C0.369,-0.048 0.368,-0.049 0.367,-0.05C0.366,-0.05 0.364,-0.049 0.363,-0.048C0.335,-0.011 0.296,0.008 0.247,0.008C0.2,0.008 0.16,-0.005 0.127,-0.031C0.093,-0.057 0.069,-0.093 0.054,-0.138C0.043,-0.173 0.037,-0.213 0.037,-0.259C0.037,-0.306 0.043,-0.348 0.055,-0.383C0.07,-0.426 0.095,-0.46 0.128,-0.485C0.161,-0.509 0.201,-0.522 0.25,-0.522C0.299,-0.522 0.337,-0.505 0.363,-0.47C0.364,-0.469 0.366,-0.468 0.367,-0.469C0.368,-0.469 0.369,-0.47 0.369,-0.472L0.369,-0.688ZM0.347,-0.156C0.36,-0.181 0.367,-0.214 0.367,-0.257C0.367,-0.302 0.36,-0.337 0.345,-0.362C0.33,-0.388 0.307,-0.401 0.278,-0.401C0.247,-0.401 0.223,-0.388 0.207,-0.362C0.19,-0.336 0.182,-0.301 0.182,-0.256C0.182,-0.216 0.189,-0.183 0.203,-0.156C0.22,-0.127 0.244,-0.113 0.277,-0.113C0.307,-0.113 0.33,-0.127 0.347,-0.156Z" style="fill:white;fill-rule:nonzero;"/>
        </g>
    </g>
    <g transform="matrix(4.67711,0,0,4.67711,74.5802,-56.5854)">
        <g transform="matrix(10.2627,0,0,10.2627,116.119,37.2782)">
            <path d="M0.515,-0.692C0.518,-0.697 0.522,-0.7 0.529,-0.7L0.646,-0.7C0.649,-0.7 0.652,-0.699 0.655,-0.697C0.657,-0.694 0.658,-0.691 0.658,-0.688L0.658,-0.012C0.658,-0.009 0.657,-0.006 0.655,-0.004C0.652,-0.001 0.649,-0 0.646,-0L0.529,-0C0.526,-0 0.523,-0.001 0.521,-0.004C0.518,-0.006 0.517,-0.009 0.517,-0.012L0.517,-0.451C0.517,-0.454 0.516,-0.455 0.515,-0.456C0.514,-0.456 0.512,-0.455 0.511,-0.453L0.405,-0.279C0.402,-0.274 0.398,-0.271 0.391,-0.271L0.333,-0.271C0.326,-0.271 0.322,-0.274 0.319,-0.279L0.212,-0.452C0.211,-0.454 0.209,-0.455 0.208,-0.455C0.207,-0.454 0.206,-0.453 0.206,-0.45L0.206,-0.012C0.206,-0.009 0.205,-0.006 0.203,-0.004C0.2,-0.001 0.197,-0 0.194,-0L0.077,-0C0.074,-0 0.071,-0.001 0.069,-0.004C0.066,-0.006 0.065,-0.009 0.065,-0.012L0.065,-0.688C0.065,-0.691 0.066,-0.694 0.069,-0.697C0.071,-0.699 0.074,-0.7 0.077,-0.7L0.194,-0.7C0.201,-0.7 0.205,-0.697 0.208,-0.692L0.359,-0.454C0.361,-0.45 0.363,-0.45 0.365,-0.454L0.515,-0.692Z" style="fill:white;fill-rule:nonzero;"/>
        </g>
        <g transform="matrix(10.2627,0,0,10.2627,123.539,37.2782)">
            <path d="M0.26,-0.522C0.303,-0.522 0.342,-0.515 0.376,-0.5C0.41,-0.485 0.437,-0.464 0.456,-0.438C0.474,-0.412 0.484,-0.383 0.484,-0.351L0.484,-0.012C0.484,-0.009 0.483,-0.006 0.481,-0.004C0.478,-0.001 0.475,-0 0.472,-0L0.355,-0C0.352,-0 0.349,-0.001 0.346,-0.004C0.344,-0.006 0.343,-0.009 0.343,-0.012L0.343,-0.045C0.343,-0.047 0.342,-0.048 0.341,-0.049C0.34,-0.05 0.338,-0.049 0.337,-0.047C0.308,-0.01 0.263,0.008 0.201,0.008C0.15,0.008 0.108,-0.005 0.076,-0.03C0.044,-0.055 0.028,-0.093 0.028,-0.142C0.028,-0.193 0.046,-0.233 0.082,-0.262C0.118,-0.29 0.169,-0.304 0.236,-0.304L0.338,-0.304C0.341,-0.304 0.343,-0.306 0.343,-0.309L0.343,-0.331C0.343,-0.353 0.336,-0.37 0.323,-0.383C0.309,-0.395 0.289,-0.401 0.263,-0.401C0.242,-0.401 0.225,-0.397 0.212,-0.39C0.198,-0.383 0.189,-0.372 0.185,-0.359C0.183,-0.352 0.179,-0.348 0.172,-0.349L0.051,-0.365C0.043,-0.366 0.039,-0.369 0.04,-0.374C0.043,-0.402 0.054,-0.427 0.074,-0.45C0.093,-0.473 0.119,-0.49 0.152,-0.503C0.184,-0.516 0.22,-0.522 0.26,-0.522ZM0.24,-0.097C0.269,-0.097 0.293,-0.105 0.313,-0.12C0.333,-0.135 0.343,-0.155 0.343,-0.179L0.343,-0.215C0.343,-0.218 0.341,-0.22 0.338,-0.22L0.266,-0.22C0.236,-0.22 0.213,-0.214 0.196,-0.203C0.179,-0.192 0.17,-0.176 0.17,-0.155C0.17,-0.137 0.176,-0.123 0.189,-0.113C0.202,-0.102 0.219,-0.097 0.24,-0.097Z" style="fill:white;fill-rule:nonzero;"/>
        </g>
        <g transform="matrix(10.2627,0,0,10.2627,128.999,37.2782)">
            <path d="M0.247,0.007C0.202,0.007 0.163,0.001 0.13,-0.012C0.097,-0.025 0.071,-0.042 0.053,-0.065C0.035,-0.088 0.026,-0.113 0.026,-0.142L0.026,-0.152C0.026,-0.155 0.027,-0.158 0.029,-0.161C0.032,-0.163 0.035,-0.164 0.038,-0.164L0.149,-0.164C0.152,-0.164 0.155,-0.163 0.158,-0.161C0.16,-0.158 0.161,-0.155 0.161,-0.152L0.161,-0.151C0.161,-0.136 0.169,-0.124 0.185,-0.114C0.201,-0.103 0.221,-0.098 0.246,-0.098C0.269,-0.098 0.287,-0.102 0.301,-0.111C0.315,-0.12 0.322,-0.131 0.322,-0.145C0.322,-0.157 0.316,-0.166 0.304,-0.172C0.292,-0.178 0.272,-0.184 0.245,-0.191C0.214,-0.199 0.189,-0.207 0.171,-0.214C0.128,-0.229 0.094,-0.247 0.069,-0.268C0.044,-0.289 0.031,-0.32 0.031,-0.36C0.031,-0.409 0.05,-0.449 0.089,-0.477C0.128,-0.506 0.178,-0.521 0.241,-0.521C0.284,-0.521 0.321,-0.514 0.354,-0.5C0.386,-0.487 0.411,-0.468 0.429,-0.443C0.446,-0.418 0.455,-0.39 0.455,-0.359C0.455,-0.356 0.454,-0.353 0.452,-0.35C0.449,-0.348 0.446,-0.347 0.443,-0.347L0.335,-0.347C0.332,-0.347 0.329,-0.348 0.327,-0.35C0.324,-0.353 0.323,-0.356 0.323,-0.359C0.323,-0.374 0.316,-0.386 0.301,-0.396C0.286,-0.406 0.267,-0.411 0.242,-0.411C0.219,-0.411 0.201,-0.407 0.187,-0.399C0.173,-0.391 0.166,-0.38 0.166,-0.366C0.166,-0.353 0.173,-0.343 0.187,-0.336C0.2,-0.329 0.223,-0.322 0.254,-0.315C0.273,-0.311 0.292,-0.306 0.31,-0.3C0.357,-0.286 0.395,-0.268 0.422,-0.246C0.449,-0.224 0.463,-0.192 0.463,-0.15C0.463,-0.101 0.444,-0.062 0.405,-0.035C0.366,-0.007 0.313,0.007 0.247,0.007Z" style="fill:white;fill-rule:nonzero;"/>
        </g>
        <g transform="matrix(10.2627,0,0,10.2627,134.048,37.2782)">
            <path d="M0.344,-0.413C0.344,-0.41 0.343,-0.407 0.341,-0.405C0.338,-0.402 0.335,-0.401 0.332,-0.401L0.236,-0.401C0.233,-0.401 0.231,-0.399 0.231,-0.396L0.231,-0.184C0.231,-0.162 0.235,-0.146 0.245,-0.135C0.254,-0.124 0.268,-0.119 0.288,-0.119L0.322,-0.119C0.325,-0.119 0.328,-0.118 0.331,-0.116C0.333,-0.113 0.334,-0.11 0.334,-0.107L0.334,-0.012C0.334,-0.005 0.33,-0 0.322,0.001C0.294,0.002 0.274,0.003 0.261,0.003C0.206,0.003 0.164,-0.006 0.137,-0.025C0.11,-0.043 0.096,-0.077 0.096,-0.128L0.096,-0.396C0.096,-0.399 0.094,-0.401 0.091,-0.401L0.033,-0.401C0.03,-0.401 0.027,-0.402 0.025,-0.405C0.022,-0.407 0.021,-0.41 0.021,-0.413L0.021,-0.502C0.021,-0.505 0.022,-0.508 0.025,-0.51C0.027,-0.513 0.03,-0.514 0.033,-0.514L0.091,-0.514C0.094,-0.514 0.096,-0.516 0.096,-0.519L0.096,-0.638C0.096,-0.641 0.097,-0.644 0.1,-0.647C0.102,-0.649 0.105,-0.65 0.108,-0.65L0.219,-0.65C0.222,-0.65 0.225,-0.649 0.228,-0.647C0.23,-0.644 0.231,-0.641 0.231,-0.638L0.231,-0.519C0.231,-0.516 0.233,-0.514 0.236,-0.514L0.332,-0.514C0.335,-0.514 0.338,-0.513 0.341,-0.51C0.343,-0.508 0.344,-0.505 0.344,-0.502L0.344,-0.413Z" style="fill:white;fill-rule:nonzero;"/>
        </g>
        <g transform="matrix(10.2627,0,0,10.2627,137.825,37.2782)">
            <path d="M0.5,-0.31C0.504,-0.285 0.505,-0.256 0.504,-0.225C0.503,-0.217 0.499,-0.213 0.491,-0.213L0.182,-0.213C0.181,-0.213 0.179,-0.213 0.178,-0.212C0.177,-0.211 0.176,-0.209 0.177,-0.208C0.18,-0.193 0.184,-0.18 0.189,-0.168C0.206,-0.131 0.242,-0.112 0.295,-0.112C0.337,-0.113 0.37,-0.13 0.395,-0.164C0.398,-0.168 0.401,-0.17 0.404,-0.17C0.407,-0.17 0.409,-0.169 0.412,-0.166L0.483,-0.095C0.486,-0.092 0.487,-0.089 0.487,-0.086C0.487,-0.084 0.486,-0.081 0.484,-0.078C0.463,-0.051 0.435,-0.029 0.4,-0.015C0.365,0 0.327,0.008 0.286,0.008C0.229,0.008 0.18,-0.005 0.141,-0.031C0.101,-0.057 0.072,-0.093 0.055,-0.14C0.041,-0.173 0.034,-0.217 0.034,-0.272C0.034,-0.307 0.039,-0.339 0.048,-0.368C0.064,-0.415 0.091,-0.453 0.13,-0.481C0.168,-0.509 0.213,-0.523 0.266,-0.523C0.333,-0.523 0.386,-0.504 0.426,-0.465C0.466,-0.426 0.491,-0.375 0.5,-0.31ZM0.266,-0.401C0.225,-0.401 0.197,-0.381 0.184,-0.342C0.181,-0.334 0.179,-0.323 0.177,-0.31C0.177,-0.307 0.179,-0.305 0.182,-0.305L0.355,-0.305C0.359,-0.305 0.36,-0.307 0.359,-0.31C0.356,-0.329 0.354,-0.339 0.354,-0.338C0.348,-0.358 0.338,-0.374 0.323,-0.385C0.308,-0.396 0.289,-0.401 0.266,-0.401Z" style="fill:white;fill-rule:nonzero;"/>
        </g>
        <g transform="matrix(10.2627,0,0,10.2627,143.295,37.2782)">
            <path d="M0.313,-0.521C0.336,-0.521 0.355,-0.516 0.369,-0.507C0.374,-0.504 0.376,-0.499 0.375,-0.492L0.355,-0.378C0.354,-0.37 0.35,-0.368 0.341,-0.371C0.331,-0.374 0.319,-0.376 0.305,-0.376C0.301,-0.376 0.294,-0.375 0.283,-0.374C0.259,-0.372 0.239,-0.363 0.222,-0.347C0.205,-0.332 0.197,-0.311 0.197,-0.285L0.197,-0.012C0.197,-0.009 0.196,-0.006 0.194,-0.004C0.191,-0.001 0.188,-0 0.185,-0L0.068,-0C0.065,-0 0.062,-0.001 0.059,-0.004C0.057,-0.006 0.056,-0.009 0.056,-0.012L0.056,-0.502C0.056,-0.505 0.057,-0.508 0.059,-0.51C0.062,-0.513 0.065,-0.514 0.068,-0.514L0.185,-0.514C0.188,-0.514 0.191,-0.513 0.194,-0.51C0.196,-0.508 0.197,-0.505 0.197,-0.502L0.197,-0.464C0.197,-0.462 0.198,-0.461 0.199,-0.46C0.2,-0.459 0.201,-0.46 0.202,-0.461C0.229,-0.501 0.266,-0.521 0.313,-0.521Z" style="fill:white;fill-rule:nonzero;"/>
        </g>
    </g>
    <defs>
        <linearGradient id="_Linear1" x1="0" y1="0" x2="1" y2="0" gradientUnits="userSpaceOnUse" gradientTransform="matrix(750,0,0,138.195,9.64049e-14,32)"><stop offset="0" style="stop-color:rgb(0,219,222);stop-opacity:1"/><stop offset="1" style="stop-color:rgb(252,0,255);stop-opacity:1"/></linearGradient>
        <linearGradient id="_Linear2" x1="0" y1="0" x2="1" y2="0" gradientUnits="userSpaceOnUse" gradientTransform="matrix(750,0,0,138.195,0,32)"><stop offset="0" style="stop-color:rgb(220,36,48);stop-opacity:1"/><stop offset="1" style="stop-color:rgb(242,113,33);stop-opacity:1"/></linearGradient>
        <linearGradient id="_Linear3" x1="0" y1="0" x2="1" y2="0" gradientUnits="userSpaceOnUse" gradientTransform="matrix(750,0,0,138.61,0,32)"><stop offset="0" style="stop-color:rgb(252,0,255);stop-opacity:1"/><stop offset="1" style="stop-color:rgb(220,36,48);stop-opacity:1"/></linearGradient>
        <linearGradient id="_Linear4" x1="0" y1="0" x2="1" y2="0" gradientUnits="userSpaceOnUse" gradientTransform="matrix(2.73861e-14,-442.576,447.249,2.71e-14,258.67,484.254)"><stop offset="0" style="stop-color:black;stop-opacity:0.7"/><stop offset="0.5" style="stop-color:black;stop-opacity:0.53"/><stop offset="1" style="stop-color:black;stop-opacity:0"/></linearGradient>
        <linearGradient id="_Linear5" x1="0" y1="0" x2="1" y2="0" gradientUnits="userSpaceOnUse" gradientTransform="matrix(2.73861e-14,-442.576,447.249,2.71e-14,258.67,484.254)"><stop offset="0" style="stop-color:black;stop-opacity:0.7"/><stop offset="0.5" style="stop-color:black;stop-opacity:0.53"/><stop offset="1" style="stop-color:black;stop-opacity:0"/></linearGradient>
        <linearGradient id="_Linear6" x1="0" y1="0" x2="1" y2="0" gradientUnits="userSpaceOnUse" gradientTransform="matrix(2.73861e-14,-442.576,447.249,2.71e-14,258.67,484.254)"><stop offset="0" style="stop-color:black;stop-opacity:0.7"/><stop offset="0.5" style="stop-color:black;stop-opacity:0.53"/><stop offset="1" style="stop-color:black;stop-opacity:0"/></linearGradient>
        <linearGradient id="_Linear7" x1="0" y1="0" x2="1" y2="0" gradientUnits="userSpaceOnUse" gradientTransform="matrix(2.73861e-14,-442.576,447.249,2.71e-14,258.67,484.254)"><stop offset="0" style="stop-color:black;stop-opacity:0.7"/><stop offset="0.5" style="stop-color:black;stop-opacity:0.53"/><stop offset="1" style="stop-color:black;stop-opacity:0"/></linearGradient>
        <linearGradient id="_Linear8" x1="0" y1="0" x2="1" y2="0" gradientUnits="userSpaceOnUse" gradientTransform="matrix(2.73861e-14,-442.576,447.249,2.71e-14,258.67,484.254)"><stop offset="0" style="stop-color:black;stop-opacity:0.7"/><stop offset="0.5" style="stop-color:black;stop-opacity:0.53"/><stop offset="1" style="stop-color:black;stop-opacity:0"/></linearGradient>
        <linearGradient id="_Linear9" x1="0" y1="0" x2="1" y2="0" gradientUnits="userSpaceOnUse" gradientTransform="matrix(2.73861e-14,-442.576,447.249,2.71e-14,258.67,484.254)"><stop offset="0" style="stop-color:black;stop-opacity:0.7"/><stop offset="0.5" style="stop-color:black;stop-opacity:0.53"/><stop offset="1" style="stop-color:black;stop-opacity:0"/></linearGradient>
        <linearGradient id="_Linear10" x1="0" y1="0" x2="1" y2="0" gradientUnits="userSpaceOnUse" gradientTransform="matrix(2.73861e-14,-442.576,447.249,2.71e-14,258.67,484.254)"><stop offset="0" style="stop-color:black;stop-opacity:0.7"/><stop offset="0.5" style="stop-color:black;stop-opacity:0.53"/><stop offset="1" style="stop-color:black;stop-opacity:0"/></linearGradient>
    </defs>
</svg>
