<?xml version="1.0" encoding="UTF-8" standalone="no"?>
<!DOCTYPE svg PUBLIC "-//W3C//DTD SVG 1.1//EN" "http://www.w3.org/Graphics/SVG/1.1/DTD/svg11.dtd">
<svg width="100%" height="100%" viewBox="0 0 1000 400" version="1.1" xmlns="http://www.w3.org/2000/svg" xmlns:xlink="http://www.w3.org/1999/xlink" xml:space="preserve" xmlns:serif="http://www.serif.com/" style="fill-rule:evenodd;clip-rule:evenodd;stroke-linecap:square;stroke-linejoin:round;stroke-miterlimit:1.5;">
    <g id="IDE-back" serif:id="IDE back" transform="matrix(1.53548,0,0,0.78125,106.917,-5.41234e-16)">
        <rect x="0" y="0" width="512" height="512" style="fill:rgb(41,46,53);"/>
    </g>
    <g transform="matrix(1.60089,0,0,1.60089,191.215,14.077)">
        <g transform="matrix(16.241,0,0,16.241,24.5497,96.4205)">
            <path d="M0.154,0.205C0.266,0.205 0.326,0.147 0.357,0.059L0.569,-0.545L0.409,-0.545L0.295,-0.145L0.289,-0.145L0.176,-0.545L0.017,-0.545L0.213,0.016L0.204,0.039C0.184,0.09 0.146,0.092 0.093,0.076L0.059,0.189C0.08,0.198 0.115,0.205 0.154,0.205Z" style="fill:rgb(255,200,33);fill-rule:nonzero;"/>
        </g>
    </g>
    <g transform="matrix(1.60089,0,0,1.60089,251.565,-19.7758)">
        <g transform="matrix(16.241,0,0,16.241,24.5497,96.4205)">
            <path d="M0.187,-0.545L0.031,-0.545L0.187,-0.273L0.025,-0L0.181,-0L0.287,-0.189L0.395,-0L0.549,-0L0.387,-0.273L0.545,-0.545L0.39,-0.545L0.287,-0.355L0.187,-0.545Z" style="fill:rgb(33,250,255);fill-rule:nonzero;"/>
        </g>
    </g>
    <g transform="matrix(0.826526,0,0,0.980392,239.942,52.4878)">
        <rect x="51.219" y="98.758" width="483.954" height="204" style="fill:white;"/>
    </g>
    <g transform="matrix(0.206631,0,0,0.441176,371.474,205.269)">
        <rect x="51.219" y="98.758" width="483.954" height="204" style="fill:rgb(173,201,240);"/>
    </g>
    <g transform="matrix(1.60089,0,0,1.60089,184.548,-10.2389)">
        <g transform="matrix(14.9917,0,0,14.9917,24.5497,96.4205)">
            <path d="M0.094,-0.364C0.094,-0.187 0.14,-0.04 0.237,0.086L0.382,0.086C0.308,-0.008 0.251,-0.195 0.251,-0.364C0.251,-0.532 0.308,-0.719 0.382,-0.813L0.237,-0.813C0.14,-0.686 0.094,-0.54 0.094,-0.364Z" style="fill:white;fill-rule:nonzero;"/>
        </g>
        <g transform="matrix(14.9917,0,0,14.9917,30.6827,96.4205)">
            <path d="M0.344,0.016C0.527,0.016 0.637,-0.123 0.638,-0.363C0.638,-0.601 0.526,-0.737 0.344,-0.737C0.162,-0.737 0.051,-0.601 0.05,-0.363C0.05,-0.124 0.161,0.016 0.344,0.016ZM0.344,-0.112C0.261,-0.112 0.207,-0.195 0.207,-0.363C0.207,-0.528 0.261,-0.611 0.344,-0.611C0.427,-0.611 0.481,-0.528 0.481,-0.363C0.481,-0.195 0.427,-0.112 0.344,-0.112Z" style="fill:white;fill-rule:nonzero;"/>
        </g>
        <g transform="matrix(14.9917,0,0,14.9917,40.5529,96.4205)">
            <path d="M0.225,-0.099L0.1,-0.099L0.098,-0.06C0.094,0.037 0.066,0.136 0.056,0.178L0.154,0.178C0.171,0.135 0.211,0.034 0.221,-0.06L0.225,-0.099Z" style="fill:white;fill-rule:nonzero;"/>
        </g>
        <g transform="matrix(14.9917,0,0,14.9917,44.6469,96.4205)">
            <path d="M0.344,0.016C0.527,0.016 0.637,-0.123 0.638,-0.363C0.638,-0.601 0.526,-0.737 0.344,-0.737C0.162,-0.737 0.051,-0.601 0.05,-0.363C0.05,-0.124 0.161,0.016 0.344,0.016ZM0.344,-0.112C0.261,-0.112 0.207,-0.195 0.207,-0.363C0.207,-0.528 0.261,-0.611 0.344,-0.611C0.427,-0.611 0.481,-0.528 0.481,-0.363C0.481,-0.195 0.427,-0.112 0.344,-0.112Z" style="fill:white;fill-rule:nonzero;"/>
        </g>
        <g transform="matrix(14.9917,0,0,14.9917,54.9643,96.4205)">
            <path d="M0.315,-0.364C0.315,-0.54 0.269,-0.687 0.172,-0.813L0.027,-0.813C0.102,-0.719 0.158,-0.532 0.158,-0.364C0.158,-0.196 0.102,-0.008 0.027,0.086L0.172,0.086C0.269,-0.041 0.315,-0.187 0.315,-0.364Z" style="fill:white;fill-rule:nonzero;"/>
        </g>
    </g>
    <g transform="matrix(1.60089,0,0,1.60089,645.034,-9.30991)">
        <g transform="matrix(14.9917,0,0,14.9917,24.5497,96.4205)">
            <path d="M0.094,-0.364C0.094,-0.187 0.14,-0.04 0.237,0.086L0.382,0.086C0.308,-0.008 0.251,-0.195 0.251,-0.364C0.251,-0.532 0.308,-0.719 0.382,-0.813L0.237,-0.813C0.14,-0.686 0.094,-0.54 0.094,-0.364Z" style="fill:white;fill-rule:nonzero;"/>
        </g>
        <g transform="matrix(14.9917,0,0,14.9917,30.6827,96.4205)">
            <path d="M0.048,-0.128L0.397,-0.128L0.397,-0L0.544,-0L0.544,-0.128L0.634,-0.128L0.634,-0.251L0.544,-0.251L0.544,-0.727L0.352,-0.727L0.048,-0.249L0.048,-0.128ZM0.4,-0.251L0.203,-0.251L0.203,-0.257L0.394,-0.56L0.4,-0.56L0.4,-0.251Z" style="fill:white;fill-rule:nonzero;"/>
        </g>
        <g transform="matrix(14.9917,0,0,14.9917,40.8457,96.4205)">
            <path d="M0.344,0.016C0.527,0.016 0.637,-0.123 0.638,-0.363C0.638,-0.601 0.526,-0.737 0.344,-0.737C0.162,-0.737 0.051,-0.601 0.05,-0.363C0.05,-0.124 0.161,0.016 0.344,0.016ZM0.344,-0.112C0.261,-0.112 0.207,-0.195 0.207,-0.363C0.207,-0.528 0.261,-0.611 0.344,-0.611C0.427,-0.611 0.481,-0.528 0.481,-0.363C0.481,-0.195 0.427,-0.112 0.344,-0.112Z" style="fill:white;fill-rule:nonzero;"/>
        </g>
        <g transform="matrix(14.9917,0,0,14.9917,51.1631,96.4205)">
            <path d="M0.344,0.016C0.527,0.016 0.637,-0.123 0.638,-0.363C0.638,-0.601 0.526,-0.737 0.344,-0.737C0.162,-0.737 0.051,-0.601 0.05,-0.363C0.05,-0.124 0.161,0.016 0.344,0.016ZM0.344,-0.112C0.261,-0.112 0.207,-0.195 0.207,-0.363C0.207,-0.528 0.261,-0.611 0.344,-0.611C0.427,-0.611 0.481,-0.528 0.481,-0.363C0.481,-0.195 0.427,-0.112 0.344,-0.112Z" style="fill:white;fill-rule:nonzero;"/>
        </g>
        <g transform="matrix(14.9917,0,0,14.9917,61.0334,96.4205)">
            <path d="M0.225,-0.099L0.1,-0.099L0.098,-0.06C0.094,0.037 0.066,0.136 0.056,0.178L0.154,0.178C0.171,0.135 0.211,0.034 0.221,-0.06L0.225,-0.099Z" style="fill:white;fill-rule:nonzero;"/>
        </g>
        <g transform="matrix(14.9917,0,0,14.9917,65.1273,96.4205)">
            <path d="M0.344,0.016C0.527,0.016 0.637,-0.123 0.638,-0.363C0.638,-0.601 0.526,-0.737 0.344,-0.737C0.162,-0.737 0.051,-0.601 0.05,-0.363C0.05,-0.124 0.161,0.016 0.344,0.016ZM0.344,-0.112C0.261,-0.112 0.207,-0.195 0.207,-0.363C0.207,-0.528 0.261,-0.611 0.344,-0.611C0.427,-0.611 0.481,-0.528 0.481,-0.363C0.481,-0.195 0.427,-0.112 0.344,-0.112Z" style="fill:white;fill-rule:nonzero;"/>
        </g>
        <g transform="matrix(14.9917,0,0,14.9917,75.4448,96.4205)">
            <path d="M0.315,-0.364C0.315,-0.54 0.269,-0.687 0.172,-0.813L0.027,-0.813C0.102,-0.719 0.158,-0.532 0.158,-0.364C0.158,-0.196 0.102,-0.008 0.027,0.086L0.172,0.086C0.269,-0.041 0.315,-0.187 0.315,-0.364Z" style="fill:white;fill-rule:nonzero;"/>
        </g>
    </g>
    <g transform="matrix(1.60089,0,0,1.60089,642.034,215.468)">
        <g transform="matrix(14.9917,0,0,14.9917,24.5497,96.4205)">
            <path d="M0.094,-0.364C0.094,-0.187 0.14,-0.04 0.237,0.086L0.382,0.086C0.308,-0.008 0.251,-0.195 0.251,-0.364C0.251,-0.532 0.308,-0.719 0.382,-0.813L0.237,-0.813C0.14,-0.686 0.094,-0.54 0.094,-0.364Z" style="fill:white;fill-rule:nonzero;"/>
        </g>
        <g transform="matrix(14.9917,0,0,14.9917,30.6827,96.4205)">
            <path d="M0.048,-0.128L0.397,-0.128L0.397,-0L0.544,-0L0.544,-0.128L0.634,-0.128L0.634,-0.251L0.544,-0.251L0.544,-0.727L0.352,-0.727L0.048,-0.249L0.048,-0.128ZM0.4,-0.251L0.203,-0.251L0.203,-0.257L0.394,-0.56L0.4,-0.56L0.4,-0.251Z" style="fill:white;fill-rule:nonzero;"/>
        </g>
        <g transform="matrix(14.9917,0,0,14.9917,40.8457,96.4205)">
            <path d="M0.344,0.016C0.527,0.016 0.637,-0.123 0.638,-0.363C0.638,-0.601 0.526,-0.737 0.344,-0.737C0.162,-0.737 0.051,-0.601 0.05,-0.363C0.05,-0.124 0.161,0.016 0.344,0.016ZM0.344,-0.112C0.261,-0.112 0.207,-0.195 0.207,-0.363C0.207,-0.528 0.261,-0.611 0.344,-0.611C0.427,-0.611 0.481,-0.528 0.481,-0.363C0.481,-0.195 0.427,-0.112 0.344,-0.112Z" style="fill:white;fill-rule:nonzero;"/>
        </g>
        <g transform="matrix(14.9917,0,0,14.9917,51.1631,96.4205)">
            <path d="M0.344,0.016C0.527,0.016 0.637,-0.123 0.638,-0.363C0.638,-0.601 0.526,-0.737 0.344,-0.737C0.162,-0.737 0.051,-0.601 0.05,-0.363C0.05,-0.124 0.161,0.016 0.344,0.016ZM0.344,-0.112C0.261,-0.112 0.207,-0.195 0.207,-0.363C0.207,-0.528 0.261,-0.611 0.344,-0.611C0.427,-0.611 0.481,-0.528 0.481,-0.363C0.481,-0.195 0.427,-0.112 0.344,-0.112Z" style="fill:white;fill-rule:nonzero;"/>
        </g>
        <g transform="matrix(14.9917,0,0,14.9917,61.0334,96.4205)">
            <path d="M0.225,-0.099L0.1,-0.099L0.098,-0.06C0.094,0.037 0.066,0.136 0.056,0.178L0.154,0.178C0.171,0.135 0.211,0.034 0.221,-0.06L0.225,-0.099Z" style="fill:white;fill-rule:nonzero;"/>
        </g>
        <g transform="matrix(14.9917,0,0,14.9917,65.5745,96.4205)">
            <path d="M0.059,-0L0.577,-0L0.577,-0.126L0.272,-0.126L0.272,-0.131L0.378,-0.235C0.528,-0.371 0.568,-0.439 0.568,-0.522C0.568,-0.648 0.465,-0.737 0.309,-0.737C0.156,-0.737 0.051,-0.646 0.052,-0.503L0.198,-0.503C0.197,-0.573 0.241,-0.615 0.308,-0.615C0.372,-0.615 0.419,-0.576 0.419,-0.512C0.419,-0.454 0.384,-0.414 0.318,-0.35L0.059,-0.111L0.059,-0Z" style="fill:white;fill-rule:nonzero;"/>
        </g>
        <g transform="matrix(14.9917,0,0,14.9917,75.0189,96.4205)">
            <path d="M0.344,0.016C0.527,0.016 0.637,-0.123 0.638,-0.363C0.638,-0.601 0.526,-0.737 0.344,-0.737C0.162,-0.737 0.051,-0.601 0.05,-0.363C0.05,-0.124 0.161,0.016 0.344,0.016ZM0.344,-0.112C0.261,-0.112 0.207,-0.195 0.207,-0.363C0.207,-0.528 0.261,-0.611 0.344,-0.611C0.427,-0.611 0.481,-0.528 0.481,-0.363C0.481,-0.195 0.427,-0.112 0.344,-0.112Z" style="fill:white;fill-rule:nonzero;"/>
        </g>
        <g transform="matrix(14.9917,0,0,14.9917,85.3363,96.4205)">
            <path d="M0.344,0.016C0.527,0.016 0.637,-0.123 0.638,-0.363C0.638,-0.601 0.526,-0.737 0.344,-0.737C0.162,-0.737 0.051,-0.601 0.05,-0.363C0.05,-0.124 0.161,0.016 0.344,0.016ZM0.344,-0.112C0.261,-0.112 0.207,-0.195 0.207,-0.363C0.207,-0.528 0.261,-0.611 0.344,-0.611C0.427,-0.611 0.481,-0.528 0.481,-0.363C0.481,-0.195 0.427,-0.112 0.344,-0.112Z" style="fill:white;fill-rule:nonzero;"/>
        </g>
        <g transform="matrix(14.9917,0,0,14.9917,95.6537,96.4205)">
            <path d="M0.315,-0.364C0.315,-0.54 0.269,-0.687 0.172,-0.813L0.027,-0.813C0.102,-0.719 0.158,-0.532 0.158,-0.364C0.158,-0.196 0.102,-0.008 0.027,0.086L0.172,0.086C0.269,-0.041 0.315,-0.187 0.315,-0.364Z" style="fill:white;fill-rule:nonzero;"/>
        </g>
    </g>
    <g transform="matrix(1.60089,0,0,1.60089,155.716,214.468)">
        <g transform="matrix(14.9917,0,0,14.9917,24.5497,96.4205)">
            <path d="M0.094,-0.364C0.094,-0.187 0.14,-0.04 0.237,0.086L0.382,0.086C0.308,-0.008 0.251,-0.195 0.251,-0.364C0.251,-0.532 0.308,-0.719 0.382,-0.813L0.237,-0.813C0.14,-0.686 0.094,-0.54 0.094,-0.364Z" style="fill:white;fill-rule:nonzero;"/>
        </g>
        <g transform="matrix(14.9917,0,0,14.9917,30.6827,96.4205)">
            <path d="M0.344,0.016C0.527,0.016 0.637,-0.123 0.638,-0.363C0.638,-0.601 0.526,-0.737 0.344,-0.737C0.162,-0.737 0.051,-0.601 0.05,-0.363C0.05,-0.124 0.161,0.016 0.344,0.016ZM0.344,-0.112C0.261,-0.112 0.207,-0.195 0.207,-0.363C0.207,-0.528 0.261,-0.611 0.344,-0.611C0.427,-0.611 0.481,-0.528 0.481,-0.363C0.481,-0.195 0.427,-0.112 0.344,-0.112Z" style="fill:white;fill-rule:nonzero;"/>
        </g>
        <g transform="matrix(14.9917,0,0,14.9917,40.5529,96.4205)">
            <path d="M0.225,-0.099L0.1,-0.099L0.098,-0.06C0.094,0.037 0.066,0.136 0.056,0.178L0.154,0.178C0.171,0.135 0.211,0.034 0.221,-0.06L0.225,-0.099Z" style="fill:white;fill-rule:nonzero;"/>
        </g>
        <g transform="matrix(14.9917,0,0,14.9917,45.0941,96.4205)">
            <path d="M0.059,-0L0.577,-0L0.577,-0.126L0.272,-0.126L0.272,-0.131L0.378,-0.235C0.528,-0.371 0.568,-0.439 0.568,-0.522C0.568,-0.648 0.465,-0.737 0.309,-0.737C0.156,-0.737 0.051,-0.646 0.052,-0.503L0.198,-0.503C0.197,-0.573 0.241,-0.615 0.308,-0.615C0.372,-0.615 0.419,-0.576 0.419,-0.512C0.419,-0.454 0.384,-0.414 0.318,-0.35L0.059,-0.111L0.059,-0Z" style="fill:white;fill-rule:nonzero;"/>
        </g>
        <g transform="matrix(14.9917,0,0,14.9917,54.5384,96.4205)">
            <path d="M0.344,0.016C0.527,0.016 0.637,-0.123 0.638,-0.363C0.638,-0.601 0.526,-0.737 0.344,-0.737C0.162,-0.737 0.051,-0.601 0.05,-0.363C0.05,-0.124 0.161,0.016 0.344,0.016ZM0.344,-0.112C0.261,-0.112 0.207,-0.195 0.207,-0.363C0.207,-0.528 0.261,-0.611 0.344,-0.611C0.427,-0.611 0.481,-0.528 0.481,-0.363C0.481,-0.195 0.427,-0.112 0.344,-0.112Z" style="fill:white;fill-rule:nonzero;"/>
        </g>
        <g transform="matrix(14.9917,0,0,14.9917,64.8558,96.4205)">
            <path d="M0.344,0.016C0.527,0.016 0.637,-0.123 0.638,-0.363C0.638,-0.601 0.526,-0.737 0.344,-0.737C0.162,-0.737 0.051,-0.601 0.05,-0.363C0.05,-0.124 0.161,0.016 0.344,0.016ZM0.344,-0.112C0.261,-0.112 0.207,-0.195 0.207,-0.363C0.207,-0.528 0.261,-0.611 0.344,-0.611C0.427,-0.611 0.481,-0.528 0.481,-0.363C0.481,-0.195 0.427,-0.112 0.344,-0.112Z" style="fill:white;fill-rule:nonzero;"/>
        </g>
        <g transform="matrix(14.9917,0,0,14.9917,75.1733,96.4205)">
            <path d="M0.315,-0.364C0.315,-0.54 0.269,-0.687 0.172,-0.813L0.027,-0.813C0.102,-0.719 0.158,-0.532 0.158,-0.364C0.158,-0.196 0.102,-0.008 0.027,0.086L0.172,0.086C0.269,-0.041 0.315,-0.187 0.315,-0.364Z" style="fill:white;fill-rule:nonzero;"/>
        </g>
    </g>
    <g transform="matrix(0.374485,0,0,0.289893,429.964,-2.883)">
        <path d="M462.936,125.28C462.936,106.242 450.971,90.785 436.233,90.785L151.199,90.785C136.461,90.785 124.495,106.242 124.495,125.28L124.495,169.103C124.495,188.142 136.461,203.598 151.199,203.598L436.233,203.598C450.971,203.598 462.936,188.142 462.936,169.103L462.936,125.28Z" style="fill:rgb(244,29,255);fill-opacity:0.79;"/>
    </g>
    <g transform="matrix(0.374485,0,0,0.289893,581.964,-2.883)">
        <path d="M462.936,125.28C462.936,106.242 450.971,90.785 436.233,90.785L151.199,90.785C136.461,90.785 124.495,106.242 124.495,125.28L124.495,169.103C124.495,188.142 136.461,203.598 151.199,203.598L436.233,203.598C450.971,203.598 462.936,188.142 462.936,169.103L462.936,125.28Z" style="fill:rgb(0,206,55);fill-opacity:0.8;"/>
    </g>
    <g transform="matrix(2.17987,0,0,2.17987,178.726,-162.104)">
        <g transform="matrix(12,0,0,12,24.5497,96.4205)">
            <path d="M0.242,0.01C0.178,0.01 0.128,-0.013 0.092,-0.06C0.056,-0.106 0.039,-0.172 0.039,-0.258C0.039,-0.344 0.056,-0.41 0.092,-0.457C0.128,-0.504 0.178,-0.527 0.243,-0.527C0.28,-0.527 0.309,-0.519 0.329,-0.502C0.349,-0.485 0.361,-0.459 0.367,-0.424L0.38,-0.424L0.38,-0.732L0.512,-0.732L0.512,-0L0.399,0.005L0.38,-0.094L0.369,-0.094C0.364,-0.059 0.35,-0.033 0.329,-0.016C0.307,0.001 0.278,0.01 0.242,0.01ZM0.38,-0.258C0.38,-0.308 0.372,-0.345 0.355,-0.368C0.338,-0.391 0.313,-0.403 0.279,-0.403C0.247,-0.403 0.222,-0.39 0.204,-0.365C0.187,-0.34 0.178,-0.304 0.178,-0.258C0.178,-0.163 0.211,-0.115 0.279,-0.115C0.317,-0.115 0.343,-0.126 0.358,-0.149C0.372,-0.172 0.38,-0.208 0.38,-0.258Z" style="fill:white;fill-rule:nonzero;"/>
        </g>
        <g transform="matrix(12,0,0,12,31.581,96.4205)">
            <path d="M0.272,-0.223L0.272,-0.113L0.393,-0.113L0.393,-0L0.031,-0L0.031,-0.113L0.14,-0.113L0.14,-0.404L0.05,-0.404L0.05,-0.518L0.252,-0.518L0.268,-0.401L0.286,-0.401C0.291,-0.485 0.335,-0.527 0.418,-0.527C0.468,-0.527 0.505,-0.509 0.531,-0.473C0.558,-0.437 0.571,-0.385 0.571,-0.317L0.439,-0.317C0.439,-0.347 0.434,-0.369 0.423,-0.383C0.411,-0.396 0.393,-0.403 0.368,-0.403C0.336,-0.403 0.312,-0.387 0.296,-0.356C0.28,-0.325 0.272,-0.28 0.272,-0.223Z" style="fill:white;fill-rule:nonzero;"/>
        </g>
        <g transform="matrix(12,0,0,12,38.6122,96.4205)">
            <path d="M0.388,0.005L0.38,-0.109L0.368,-0.109C0.363,-0.07 0.347,-0.04 0.321,-0.02C0.294,-0 0.258,0.01 0.213,0.01C0.158,0.01 0.115,-0.004 0.084,-0.031C0.054,-0.058 0.039,-0.096 0.039,-0.146C0.039,-0.204 0.059,-0.248 0.099,-0.279C0.139,-0.31 0.195,-0.326 0.269,-0.326C0.291,-0.326 0.31,-0.325 0.326,-0.323C0.343,-0.322 0.359,-0.319 0.375,-0.315L0.375,-0.317C0.375,-0.345 0.363,-0.365 0.34,-0.378C0.316,-0.391 0.281,-0.398 0.234,-0.399L0.102,-0.402L0.112,-0.522L0.225,-0.521C0.318,-0.52 0.388,-0.501 0.434,-0.466C0.479,-0.43 0.502,-0.378 0.502,-0.31L0.502,-0.118L0.574,-0.107L0.574,-0L0.388,0.005ZM0.375,-0.207C0.356,-0.21 0.339,-0.213 0.324,-0.213C0.308,-0.214 0.292,-0.214 0.275,-0.214C0.207,-0.214 0.173,-0.195 0.173,-0.156C0.173,-0.12 0.197,-0.102 0.246,-0.102C0.274,-0.102 0.297,-0.107 0.316,-0.117C0.335,-0.127 0.35,-0.14 0.359,-0.156C0.369,-0.173 0.374,-0.189 0.375,-0.207Z" style="fill:white;fill-rule:nonzero;"/>
        </g>
        <g transform="matrix(12,0,0,12,45.6435,96.4205)">
            <path d="M0.343,-0L0.291,-0.39L0.285,-0.39L0.233,-0L0.06,-0L0.026,-0.518L0.154,-0.518L0.173,-0.123L0.182,-0.123L0.241,-0.518L0.335,-0.518L0.395,-0.123L0.403,-0.123L0.435,-0.518L0.56,-0.518L0.511,-0L0.343,-0Z" style="fill:white;fill-rule:nonzero;"/>
        </g>
        <g transform="matrix(12,0,0,12,52.6747,96.4205)">
            <path d="M0.293,0.01C0.268,0.01 0.247,0.001 0.23,-0.016C0.213,-0.034 0.204,-0.055 0.204,-0.079C0.204,-0.104 0.213,-0.125 0.23,-0.142C0.247,-0.159 0.268,-0.168 0.293,-0.168C0.318,-0.168 0.339,-0.159 0.356,-0.142C0.373,-0.125 0.382,-0.104 0.382,-0.079C0.382,-0.055 0.373,-0.034 0.356,-0.016C0.339,0.001 0.318,0.01 0.293,0.01Z" style="fill:white;fill-rule:nonzero;"/>
        </g>
        <g transform="matrix(12,0,0,12,59.706,96.4205)">
            <path d="M0.272,-0.223L0.272,-0.113L0.393,-0.113L0.393,-0L0.031,-0L0.031,-0.113L0.14,-0.113L0.14,-0.404L0.05,-0.404L0.05,-0.518L0.252,-0.518L0.268,-0.401L0.286,-0.401C0.291,-0.485 0.335,-0.527 0.418,-0.527C0.468,-0.527 0.505,-0.509 0.531,-0.473C0.558,-0.437 0.571,-0.385 0.571,-0.317L0.439,-0.317C0.439,-0.347 0.434,-0.369 0.423,-0.383C0.411,-0.396 0.393,-0.403 0.368,-0.403C0.336,-0.403 0.312,-0.387 0.296,-0.356C0.28,-0.325 0.272,-0.28 0.272,-0.223Z" style="fill:white;fill-rule:nonzero;"/>
        </g>
        <g transform="matrix(12,0,0,12,66.7372,96.4205)">
            <path d="M0.339,0.01C0.249,0.01 0.18,-0.013 0.131,-0.06C0.083,-0.106 0.058,-0.173 0.058,-0.26C0.058,-0.344 0.079,-0.41 0.12,-0.457C0.162,-0.504 0.22,-0.527 0.296,-0.527C0.37,-0.527 0.427,-0.506 0.467,-0.462C0.508,-0.419 0.528,-0.356 0.528,-0.273C0.528,-0.25 0.527,-0.228 0.525,-0.207L0.196,-0.207C0.216,-0.146 0.268,-0.115 0.351,-0.115C0.374,-0.115 0.397,-0.116 0.42,-0.119C0.443,-0.121 0.466,-0.125 0.49,-0.129L0.502,-0.004C0.469,0.002 0.439,0.006 0.412,0.007C0.384,0.009 0.36,0.01 0.339,0.01ZM0.19,-0.298L0.398,-0.298C0.398,-0.333 0.389,-0.36 0.371,-0.378C0.354,-0.397 0.329,-0.406 0.297,-0.406C0.267,-0.406 0.243,-0.397 0.224,-0.378C0.206,-0.359 0.194,-0.333 0.19,-0.298Z" style="fill:white;fill-rule:nonzero;"/>
        </g>
        <g transform="matrix(12,0,0,12,73.7685,96.4205)">
            <path d="M0.354,0.01C0.259,0.01 0.187,-0.013 0.135,-0.06C0.084,-0.106 0.058,-0.173 0.058,-0.26C0.058,-0.344 0.082,-0.41 0.128,-0.457C0.175,-0.504 0.242,-0.527 0.329,-0.527C0.382,-0.527 0.428,-0.517 0.467,-0.496C0.505,-0.475 0.532,-0.446 0.548,-0.408L0.452,-0.332C0.422,-0.378 0.38,-0.402 0.325,-0.402C0.285,-0.402 0.254,-0.39 0.232,-0.366C0.209,-0.342 0.198,-0.309 0.198,-0.265C0.198,-0.216 0.213,-0.179 0.242,-0.154C0.271,-0.128 0.312,-0.116 0.365,-0.116C0.389,-0.116 0.412,-0.117 0.435,-0.119C0.459,-0.121 0.481,-0.125 0.503,-0.128L0.517,-0.005C0.491,0.001 0.464,0.005 0.436,0.007C0.408,0.009 0.38,0.01 0.354,0.01Z" style="fill:white;fill-rule:nonzero;"/>
        </g>
        <g transform="matrix(12,0,0,12,80.7997,96.4205)">
            <path d="M0.403,0.01C0.314,0.01 0.249,-0.008 0.209,-0.044C0.17,-0.08 0.15,-0.137 0.15,-0.216L0.15,-0.396L0.026,-0.396L0.026,-0.518L0.15,-0.518L0.15,-0.674L0.282,-0.674L0.282,-0.518L0.511,-0.518L0.511,-0.396L0.282,-0.396L0.282,-0.229C0.282,-0.189 0.292,-0.16 0.312,-0.143C0.333,-0.125 0.366,-0.116 0.413,-0.116C0.428,-0.116 0.444,-0.117 0.461,-0.118C0.478,-0.12 0.497,-0.123 0.519,-0.125L0.531,-0.002C0.509,0.002 0.488,0.005 0.468,0.007C0.448,0.009 0.426,0.01 0.403,0.01Z" style="fill:white;fill-rule:nonzero;"/>
        </g>
        <g transform="matrix(12,0,0,12,87.831,96.4205)">
            <path d="M0.388,0.005L0.38,-0.109L0.368,-0.109C0.363,-0.07 0.347,-0.04 0.321,-0.02C0.294,-0 0.258,0.01 0.213,0.01C0.158,0.01 0.115,-0.004 0.084,-0.031C0.054,-0.058 0.039,-0.096 0.039,-0.146C0.039,-0.204 0.059,-0.248 0.099,-0.279C0.139,-0.31 0.195,-0.326 0.269,-0.326C0.291,-0.326 0.31,-0.325 0.326,-0.323C0.343,-0.322 0.359,-0.319 0.375,-0.315L0.375,-0.317C0.375,-0.345 0.363,-0.365 0.34,-0.378C0.316,-0.391 0.281,-0.398 0.234,-0.399L0.102,-0.402L0.112,-0.522L0.225,-0.521C0.318,-0.52 0.388,-0.501 0.434,-0.466C0.479,-0.43 0.502,-0.378 0.502,-0.31L0.502,-0.118L0.574,-0.107L0.574,-0L0.388,0.005ZM0.375,-0.207C0.356,-0.21 0.339,-0.213 0.324,-0.213C0.308,-0.214 0.292,-0.214 0.275,-0.214C0.207,-0.214 0.173,-0.195 0.173,-0.156C0.173,-0.12 0.197,-0.102 0.246,-0.102C0.274,-0.102 0.297,-0.107 0.316,-0.117C0.335,-0.127 0.35,-0.14 0.359,-0.156C0.369,-0.173 0.374,-0.189 0.375,-0.207Z" style="fill:white;fill-rule:nonzero;"/>
        </g>
        <g transform="matrix(12,0,0,12,94.8622,96.4205)">
            <path d="M0.38,-0L0.38,-0.304C0.38,-0.335 0.373,-0.36 0.361,-0.376C0.348,-0.393 0.329,-0.402 0.306,-0.402C0.239,-0.402 0.206,-0.354 0.206,-0.258L0.206,-0L0.074,-0L0.074,-0.518L0.192,-0.518L0.204,-0.424L0.219,-0.424C0.224,-0.459 0.236,-0.485 0.254,-0.502C0.273,-0.519 0.302,-0.527 0.34,-0.527C0.395,-0.527 0.437,-0.511 0.467,-0.478C0.497,-0.444 0.512,-0.397 0.512,-0.337L0.512,-0L0.38,-0Z" style="fill:white;fill-rule:nonzero;"/>
        </g>
        <g transform="matrix(12,0,0,12,101.893,96.4205)">
            <path d="M0.089,0.233L0.084,0.118L0.25,0.113C0.296,0.112 0.329,0.099 0.349,0.075C0.37,0.052 0.38,0.016 0.38,-0.03L0.38,-0.094L0.369,-0.094C0.364,-0.059 0.35,-0.033 0.329,-0.016C0.307,0.001 0.278,0.01 0.242,0.01C0.178,0.01 0.128,-0.013 0.092,-0.06C0.056,-0.106 0.039,-0.172 0.039,-0.258C0.039,-0.344 0.056,-0.41 0.092,-0.457C0.128,-0.504 0.178,-0.527 0.243,-0.527C0.282,-0.527 0.312,-0.519 0.332,-0.502C0.353,-0.485 0.366,-0.459 0.372,-0.424L0.381,-0.424L0.39,-0.518L0.512,-0.518L0.512,-0.046C0.512,0.046 0.491,0.114 0.447,0.158C0.404,0.202 0.335,0.225 0.24,0.229L0.089,0.233ZM0.38,-0.258C0.38,-0.308 0.372,-0.345 0.355,-0.368C0.338,-0.391 0.313,-0.403 0.279,-0.403C0.247,-0.403 0.222,-0.39 0.204,-0.365C0.187,-0.34 0.178,-0.304 0.178,-0.258C0.178,-0.163 0.211,-0.115 0.279,-0.115C0.317,-0.115 0.343,-0.126 0.358,-0.149C0.372,-0.172 0.38,-0.208 0.38,-0.258Z" style="fill:white;fill-rule:nonzero;"/>
        </g>
        <g transform="matrix(12,0,0,12,108.925,96.4205)">
            <path d="M0.37,0.01C0.305,0.01 0.258,-0.008 0.229,-0.044C0.2,-0.08 0.186,-0.137 0.186,-0.216L0.186,-0.611L0.04,-0.611L0.04,-0.732L0.318,-0.732L0.318,-0.221C0.318,-0.188 0.323,-0.165 0.335,-0.15C0.346,-0.135 0.371,-0.128 0.409,-0.128C0.438,-0.128 0.474,-0.134 0.518,-0.146L0.533,-0.011C0.505,-0.004 0.478,0.002 0.453,0.005C0.427,0.008 0.399,0.01 0.37,0.01Z" style="fill:white;fill-rule:nonzero;"/>
        </g>
        <g transform="matrix(12,0,0,12,115.956,96.4205)">
            <path d="M0.339,0.01C0.249,0.01 0.18,-0.013 0.131,-0.06C0.083,-0.106 0.058,-0.173 0.058,-0.26C0.058,-0.344 0.079,-0.41 0.12,-0.457C0.162,-0.504 0.22,-0.527 0.296,-0.527C0.37,-0.527 0.427,-0.506 0.467,-0.462C0.508,-0.419 0.528,-0.356 0.528,-0.273C0.528,-0.25 0.527,-0.228 0.525,-0.207L0.196,-0.207C0.216,-0.146 0.268,-0.115 0.351,-0.115C0.374,-0.115 0.397,-0.116 0.42,-0.119C0.443,-0.121 0.466,-0.125 0.49,-0.129L0.502,-0.004C0.469,0.002 0.439,0.006 0.412,0.007C0.384,0.009 0.36,0.01 0.339,0.01ZM0.19,-0.298L0.398,-0.298C0.398,-0.333 0.389,-0.36 0.371,-0.378C0.354,-0.397 0.329,-0.406 0.297,-0.406C0.267,-0.406 0.243,-0.397 0.224,-0.378C0.206,-0.359 0.194,-0.333 0.19,-0.298Z" style="fill:white;fill-rule:nonzero;"/>
        </g>
        <g transform="matrix(12,0,0,12,122.987,96.4205)">
            <path d="M0.474,0.098C0.362,0.098 0.275,0.059 0.214,-0.019C0.152,-0.097 0.122,-0.207 0.122,-0.35C0.122,-0.49 0.152,-0.599 0.214,-0.676C0.275,-0.753 0.362,-0.791 0.474,-0.791L0.495,-0.791L0.495,-0.668L0.474,-0.668C0.404,-0.668 0.351,-0.641 0.313,-0.585C0.276,-0.529 0.257,-0.451 0.257,-0.35C0.257,-0.247 0.276,-0.167 0.313,-0.11C0.351,-0.053 0.404,-0.025 0.474,-0.025L0.495,-0.025L0.495,0.098L0.474,0.098Z" style="fill:white;fill-rule:nonzero;"/>
        </g>
        <g transform="matrix(12,0,0,12,130.018,96.4205)">
            <path d="M0.474,0.098C0.362,0.098 0.275,0.059 0.214,-0.019C0.152,-0.097 0.122,-0.207 0.122,-0.35C0.122,-0.49 0.152,-0.599 0.214,-0.676C0.275,-0.753 0.362,-0.791 0.474,-0.791L0.495,-0.791L0.495,-0.668L0.474,-0.668C0.404,-0.668 0.351,-0.641 0.313,-0.585C0.276,-0.529 0.257,-0.451 0.257,-0.35C0.257,-0.247 0.276,-0.167 0.313,-0.11C0.351,-0.053 0.404,-0.025 0.474,-0.025L0.495,-0.025L0.495,0.098L0.474,0.098Z" style="fill:white;fill-rule:nonzero;"/>
        </g>
        <g transform="matrix(12,0,0,12,137.05,96.4205)">
            <path d="M0.075,-0L0.075,-0.114L0.242,-0.114L0.242,-0.568L0.084,-0.512L0.084,-0.635L0.242,-0.693L0.374,-0.693L0.374,-0.114L0.522,-0.114L0.522,-0L0.075,-0Z" style="fill:white;fill-rule:nonzero;"/>
        </g>
        <g transform="matrix(12,0,0,12,144.081,96.4205)">
            <path d="M0.293,0.01C0.13,0.01 0.048,-0.107 0.048,-0.342C0.048,-0.583 0.13,-0.703 0.293,-0.703C0.456,-0.703 0.538,-0.583 0.538,-0.342C0.538,-0.107 0.456,0.01 0.293,0.01ZM0.293,-0.107C0.367,-0.107 0.404,-0.185 0.404,-0.342C0.404,-0.505 0.367,-0.586 0.293,-0.586C0.217,-0.586 0.18,-0.505 0.18,-0.342C0.18,-0.185 0.217,-0.107 0.293,-0.107ZM0.292,-0.252C0.272,-0.252 0.257,-0.261 0.245,-0.277C0.233,-0.293 0.227,-0.315 0.227,-0.342C0.227,-0.369 0.233,-0.39 0.245,-0.407C0.257,-0.423 0.272,-0.431 0.292,-0.431C0.312,-0.431 0.327,-0.423 0.339,-0.407C0.351,-0.39 0.357,-0.369 0.357,-0.342C0.357,-0.315 0.351,-0.293 0.339,-0.277C0.327,-0.261 0.312,-0.252 0.292,-0.252Z" style="fill:white;fill-rule:nonzero;"/>
        </g>
        <g transform="matrix(12,0,0,12,151.112,96.4205)">
            <path d="M0.293,0.01C0.13,0.01 0.048,-0.107 0.048,-0.342C0.048,-0.583 0.13,-0.703 0.293,-0.703C0.456,-0.703 0.538,-0.583 0.538,-0.342C0.538,-0.107 0.456,0.01 0.293,0.01ZM0.293,-0.107C0.367,-0.107 0.404,-0.185 0.404,-0.342C0.404,-0.505 0.367,-0.586 0.293,-0.586C0.217,-0.586 0.18,-0.505 0.18,-0.342C0.18,-0.185 0.217,-0.107 0.293,-0.107ZM0.292,-0.252C0.272,-0.252 0.257,-0.261 0.245,-0.277C0.233,-0.293 0.227,-0.315 0.227,-0.342C0.227,-0.369 0.233,-0.39 0.245,-0.407C0.257,-0.423 0.272,-0.431 0.292,-0.431C0.312,-0.431 0.327,-0.423 0.339,-0.407C0.351,-0.39 0.357,-0.369 0.357,-0.342C0.357,-0.315 0.351,-0.293 0.339,-0.277C0.327,-0.261 0.312,-0.252 0.292,-0.252Z" style="fill:white;fill-rule:nonzero;"/>
        </g>
        <g transform="matrix(12,0,0,12,158.143,96.4205)">
            <path d="M0.185,0.213L0.224,-0.124L0.37,-0.124L0.311,0.213L0.185,0.213Z" style="fill:white;fill-rule:nonzero;"/>
        </g>
        <g transform="matrix(12,0,0,12,172.206,96.4205)">
            <path d="M0.075,-0L0.075,-0.114L0.242,-0.114L0.242,-0.568L0.084,-0.512L0.084,-0.635L0.242,-0.693L0.374,-0.693L0.374,-0.114L0.522,-0.114L0.522,-0L0.075,-0Z" style="fill:white;fill-rule:nonzero;"/>
        </g>
        <g transform="matrix(12,0,0,12,179.237,96.4205)">
            <path d="M0.293,0.01C0.13,0.01 0.048,-0.107 0.048,-0.342C0.048,-0.583 0.13,-0.703 0.293,-0.703C0.456,-0.703 0.538,-0.583 0.538,-0.342C0.538,-0.107 0.456,0.01 0.293,0.01ZM0.293,-0.107C0.367,-0.107 0.404,-0.185 0.404,-0.342C0.404,-0.505 0.367,-0.586 0.293,-0.586C0.217,-0.586 0.18,-0.505 0.18,-0.342C0.18,-0.185 0.217,-0.107 0.293,-0.107ZM0.292,-0.252C0.272,-0.252 0.257,-0.261 0.245,-0.277C0.233,-0.293 0.227,-0.315 0.227,-0.342C0.227,-0.369 0.233,-0.39 0.245,-0.407C0.257,-0.423 0.272,-0.431 0.292,-0.431C0.312,-0.431 0.327,-0.423 0.339,-0.407C0.351,-0.39 0.357,-0.369 0.357,-0.342C0.357,-0.315 0.351,-0.293 0.339,-0.277C0.327,-0.261 0.312,-0.252 0.292,-0.252Z" style="fill:white;fill-rule:nonzero;"/>
        </g>
        <g transform="matrix(12,0,0,12,186.268,96.4205)">
            <path d="M0.293,0.01C0.13,0.01 0.048,-0.107 0.048,-0.342C0.048,-0.583 0.13,-0.703 0.293,-0.703C0.456,-0.703 0.538,-0.583 0.538,-0.342C0.538,-0.107 0.456,0.01 0.293,0.01ZM0.293,-0.107C0.367,-0.107 0.404,-0.185 0.404,-0.342C0.404,-0.505 0.367,-0.586 0.293,-0.586C0.217,-0.586 0.18,-0.505 0.18,-0.342C0.18,-0.185 0.217,-0.107 0.293,-0.107ZM0.292,-0.252C0.272,-0.252 0.257,-0.261 0.245,-0.277C0.233,-0.293 0.227,-0.315 0.227,-0.342C0.227,-0.369 0.233,-0.39 0.245,-0.407C0.257,-0.423 0.272,-0.431 0.292,-0.431C0.312,-0.431 0.327,-0.423 0.339,-0.407C0.351,-0.39 0.357,-0.369 0.357,-0.342C0.357,-0.315 0.351,-0.293 0.339,-0.277C0.327,-0.261 0.312,-0.252 0.292,-0.252Z" style="fill:white;fill-rule:nonzero;"/>
        </g>
        <g transform="matrix(12,0,0,12,193.3,96.4205)">
            <path d="M0.185,0.213L0.224,-0.124L0.37,-0.124L0.311,0.213L0.185,0.213Z" style="fill:white;fill-rule:nonzero;"/>
        </g>
        <g transform="matrix(12,0,0,12,207.362,96.4205)">
            <path d="M0.075,-0L0.075,-0.114L0.242,-0.114L0.242,-0.568L0.084,-0.512L0.084,-0.635L0.242,-0.693L0.374,-0.693L0.374,-0.114L0.522,-0.114L0.522,-0L0.075,-0Z" style="fill:white;fill-rule:nonzero;"/>
        </g>
        <g transform="matrix(12,0,0,12,214.393,96.4205)">
            <path d="M0.292,0.01C0.217,0.01 0.159,-0.01 0.118,-0.048C0.077,-0.087 0.056,-0.141 0.056,-0.21L0.192,-0.21C0.192,-0.18 0.201,-0.156 0.219,-0.139C0.237,-0.122 0.263,-0.113 0.297,-0.113C0.33,-0.113 0.357,-0.124 0.377,-0.145C0.397,-0.165 0.407,-0.193 0.407,-0.228C0.407,-0.259 0.397,-0.284 0.377,-0.302C0.358,-0.32 0.331,-0.33 0.297,-0.33C0.258,-0.33 0.22,-0.32 0.186,-0.302L0.098,-0.302L0.108,-0.693L0.499,-0.693L0.499,-0.575L0.231,-0.575L0.223,-0.429C0.24,-0.437 0.258,-0.442 0.279,-0.446C0.3,-0.45 0.32,-0.452 0.339,-0.452C0.401,-0.452 0.451,-0.432 0.487,-0.391C0.524,-0.35 0.542,-0.296 0.542,-0.228C0.542,-0.18 0.532,-0.138 0.511,-0.102C0.491,-0.067 0.462,-0.039 0.424,-0.02C0.386,-0 0.342,0.01 0.292,0.01Z" style="fill:white;fill-rule:nonzero;"/>
        </g>
        <g transform="matrix(12,0,0,12,221.425,96.4205)">
            <path d="M0.293,0.01C0.13,0.01 0.048,-0.107 0.048,-0.342C0.048,-0.583 0.13,-0.703 0.293,-0.703C0.456,-0.703 0.538,-0.583 0.538,-0.342C0.538,-0.107 0.456,0.01 0.293,0.01ZM0.293,-0.107C0.367,-0.107 0.404,-0.185 0.404,-0.342C0.404,-0.505 0.367,-0.586 0.293,-0.586C0.217,-0.586 0.18,-0.505 0.18,-0.342C0.18,-0.185 0.217,-0.107 0.293,-0.107ZM0.292,-0.252C0.272,-0.252 0.257,-0.261 0.245,-0.277C0.233,-0.293 0.227,-0.315 0.227,-0.342C0.227,-0.369 0.233,-0.39 0.245,-0.407C0.257,-0.423 0.272,-0.431 0.292,-0.431C0.312,-0.431 0.327,-0.423 0.339,-0.407C0.351,-0.39 0.357,-0.369 0.357,-0.342C0.357,-0.315 0.351,-0.293 0.339,-0.277C0.327,-0.261 0.312,-0.252 0.292,-0.252Z" style="fill:white;fill-rule:nonzero;"/>
        </g>
        <g transform="matrix(12,0,0,12,228.456,96.4205)">
            <path d="M0.185,0.213L0.224,-0.124L0.37,-0.124L0.311,0.213L0.185,0.213Z" style="fill:white;fill-rule:nonzero;"/>
        </g>
        <g transform="matrix(12,0,0,12,242.518,96.4205)">
            <path d="M0.075,-0L0.075,-0.114L0.242,-0.114L0.242,-0.568L0.084,-0.512L0.084,-0.635L0.242,-0.693L0.374,-0.693L0.374,-0.114L0.522,-0.114L0.522,-0L0.075,-0Z" style="fill:white;fill-rule:nonzero;"/>
        </g>
        <g transform="matrix(12,0,0,12,249.55,96.4205)">
            <path d="M0.238,-0.247C0.177,-0.247 0.131,-0.266 0.098,-0.305C0.065,-0.343 0.048,-0.397 0.048,-0.468C0.048,-0.54 0.07,-0.596 0.112,-0.636C0.155,-0.676 0.215,-0.696 0.293,-0.696C0.37,-0.696 0.43,-0.675 0.472,-0.631C0.515,-0.588 0.537,-0.527 0.537,-0.449L0.537,-0.403C0.537,-0.272 0.502,-0.172 0.432,-0.103C0.362,-0.035 0.255,0.003 0.112,0.01L0.102,-0.113C0.3,-0.121 0.399,-0.204 0.399,-0.36L0.387,-0.36C0.378,-0.324 0.36,-0.296 0.334,-0.277C0.308,-0.257 0.276,-0.247 0.238,-0.247ZM0.29,-0.37C0.325,-0.37 0.352,-0.379 0.372,-0.397C0.391,-0.415 0.4,-0.441 0.4,-0.474C0.4,-0.505 0.391,-0.53 0.372,-0.547C0.353,-0.565 0.326,-0.573 0.292,-0.573C0.258,-0.573 0.231,-0.564 0.213,-0.546C0.194,-0.528 0.185,-0.502 0.185,-0.468C0.185,-0.436 0.194,-0.412 0.212,-0.395C0.23,-0.378 0.256,-0.37 0.29,-0.37Z" style="fill:white;fill-rule:nonzero;"/>
        </g>
        <g transform="matrix(12,0,0,12,256.581,96.4205)">
            <path d="M0.293,0.01C0.13,0.01 0.048,-0.107 0.048,-0.342C0.048,-0.583 0.13,-0.703 0.293,-0.703C0.456,-0.703 0.538,-0.583 0.538,-0.342C0.538,-0.107 0.456,0.01 0.293,0.01ZM0.293,-0.107C0.367,-0.107 0.404,-0.185 0.404,-0.342C0.404,-0.505 0.367,-0.586 0.293,-0.586C0.217,-0.586 0.18,-0.505 0.18,-0.342C0.18,-0.185 0.217,-0.107 0.293,-0.107ZM0.292,-0.252C0.272,-0.252 0.257,-0.261 0.245,-0.277C0.233,-0.293 0.227,-0.315 0.227,-0.342C0.227,-0.369 0.233,-0.39 0.245,-0.407C0.257,-0.423 0.272,-0.431 0.292,-0.431C0.312,-0.431 0.327,-0.423 0.339,-0.407C0.351,-0.39 0.357,-0.369 0.357,-0.342C0.357,-0.315 0.351,-0.293 0.339,-0.277C0.327,-0.261 0.312,-0.252 0.292,-0.252Z" style="fill:white;fill-rule:nonzero;"/>
        </g>
        <g transform="matrix(12,0,0,12,263.612,96.4205)">
            <path d="M0.091,0.098L0.091,-0.025L0.112,-0.025C0.181,-0.025 0.235,-0.053 0.272,-0.11C0.31,-0.167 0.329,-0.247 0.329,-0.35C0.329,-0.451 0.31,-0.529 0.272,-0.585C0.235,-0.641 0.181,-0.668 0.112,-0.668L0.091,-0.668L0.091,-0.791L0.112,-0.791C0.224,-0.791 0.31,-0.753 0.372,-0.676C0.433,-0.599 0.464,-0.49 0.464,-0.35C0.464,-0.207 0.433,-0.097 0.372,-0.019C0.31,0.059 0.224,0.098 0.112,0.098L0.091,0.098Z" style="fill:white;fill-rule:nonzero;"/>
        </g>
        <g transform="matrix(12,0,0,12,270.643,96.4205)">
            <path d="M0.091,0.098L0.091,-0.025L0.112,-0.025C0.181,-0.025 0.235,-0.053 0.272,-0.11C0.31,-0.167 0.329,-0.247 0.329,-0.35C0.329,-0.451 0.31,-0.529 0.272,-0.585C0.235,-0.641 0.181,-0.668 0.112,-0.668L0.091,-0.668L0.091,-0.791L0.112,-0.791C0.224,-0.791 0.31,-0.753 0.372,-0.676C0.433,-0.599 0.464,-0.49 0.464,-0.35C0.464,-0.207 0.433,-0.097 0.372,-0.019C0.31,0.059 0.224,0.098 0.112,0.098L0.091,0.098Z" style="fill:white;fill-rule:nonzero;"/>
        </g>
    </g>
    <g transform="matrix(2.17987,0,0,2.17987,179.351,-111.358)">
        <g transform="matrix(12,0,0,12,130.018,96.4205)">
            <path d="M0.474,0.098C0.362,0.098 0.275,0.059 0.214,-0.019C0.152,-0.097 0.122,-0.207 0.122,-0.35C0.122,-0.49 0.152,-0.599 0.214,-0.676C0.275,-0.753 0.362,-0.791 0.474,-0.791L0.495,-0.791L0.495,-0.668L0.474,-0.668C0.404,-0.668 0.351,-0.641 0.313,-0.585C0.276,-0.529 0.257,-0.451 0.257,-0.35C0.257,-0.247 0.276,-0.167 0.313,-0.11C0.351,-0.053 0.404,-0.025 0.474,-0.025L0.495,-0.025L0.495,0.098L0.474,0.098Z" style="fill:white;fill-rule:nonzero;"/>
        </g>
        <g transform="matrix(12,0,0,12,137.05,96.4205)">
            <path d="M0.04,-0L0.229,-0.256L0.04,-0.518L0.197,-0.518L0.293,-0.355L0.389,-0.518L0.546,-0.518L0.354,-0.26L0.546,-0L0.389,-0L0.291,-0.162L0.197,-0L0.04,-0Z" style="fill:rgb(33,250,255);fill-rule:nonzero;"/>
        </g>
        <g transform="matrix(12,0,0,12,144.081,96.4205)">
            <path d="M0.185,0.213L0.224,-0.124L0.37,-0.124L0.311,0.213L0.185,0.213Z" style="fill:white;fill-rule:nonzero;"/>
        </g>
        <g transform="matrix(12,0,0,12,151.112,96.4205)">
            <path d="M0.028,0.234L0.023,0.12L0.113,0.11C0.149,0.106 0.178,0.096 0.202,0.079C0.226,0.062 0.246,0.035 0.262,-0L0.192,-0L0.019,-0.518L0.159,-0.518L0.287,-0.112L0.299,-0.112L0.413,-0.518L0.553,-0.518L0.407,-0.046C0.388,0.016 0.365,0.066 0.34,0.104C0.314,0.142 0.284,0.17 0.25,0.189C0.215,0.208 0.173,0.22 0.125,0.225L0.028,0.234Z" style="fill:rgb(255,200,33);fill-rule:nonzero;"/>
        </g>
        <g transform="matrix(12,0,0,12,158.143,96.4205)">
            <path d="M0.091,0.098L0.091,-0.025L0.112,-0.025C0.181,-0.025 0.235,-0.053 0.272,-0.11C0.31,-0.167 0.329,-0.247 0.329,-0.35C0.329,-0.451 0.31,-0.529 0.272,-0.585C0.235,-0.641 0.181,-0.668 0.112,-0.668L0.091,-0.668L0.091,-0.791L0.112,-0.791C0.224,-0.791 0.31,-0.753 0.372,-0.676C0.433,-0.599 0.464,-0.49 0.464,-0.35C0.464,-0.207 0.433,-0.097 0.372,-0.019C0.31,0.059 0.224,0.098 0.112,0.098L0.091,0.098Z" style="fill:white;fill-rule:nonzero;"/>
        </g>
    </g>
    <g transform="matrix(0.947487,0,0,0.947487,213.477,39.7044)">
        <g transform="matrix(1.05542,-0,-0,1.05542,-225.309,-41.905)">
            <path d="M654.128,118.492L672.128,127.492L654.128,136.492L654.128,118.492Z" style="fill:rgb(33,250,255);"/>
            <path d="M315.616,127.492L657.728,127.492" style="fill:none;stroke:rgb(33,250,255);stroke-width:6px;"/>
        </g>
    </g>
    <g transform="matrix(2.52789e-17,0.412836,-0.412836,2.52789e-17,276.383,139.702)">
        <g transform="matrix(1.48321e-16,-2.42227,2.42227,1.48321e-16,-338.395,669.475)">
            <path d="M247.133,321.544L238.133,339.544L229.133,321.544L247.133,321.544Z" style="fill:rgb(255,200,33);"/>
            <path d="M238.133,184.205L238.133,325.144" style="fill:none;stroke:rgb(255,200,33);stroke-width:6px;"/>
        </g>
    </g>
    <g transform="matrix(1.60089,0,0,1.60089,251.24,81.9813)">
        <g transform="matrix(14.9917,0,0,14.9917,24.5497,96.4205)">
            <path d="M0.094,-0.364C0.094,-0.187 0.14,-0.04 0.237,0.086L0.382,0.086C0.308,-0.008 0.251,-0.195 0.251,-0.364C0.251,-0.532 0.308,-0.719 0.382,-0.813L0.237,-0.813C0.14,-0.686 0.094,-0.54 0.094,-0.364Z" style="fill:rgb(244,29,255);fill-rule:nonzero;"/>
        </g>
        <g transform="matrix(14.9917,0,0,14.9917,30.6827,96.4205)">
            <path d="M0.375,-0.727L0.231,-0.727L0.051,-0.613L0.051,-0.477L0.217,-0.581L0.222,-0.581L0.222,-0L0.375,-0L0.375,-0.727Z" style="fill:rgb(244,29,255);fill-rule:nonzero;"/>
        </g>
        <g transform="matrix(14.9917,0,0,14.9917,38.0188,96.4205)">
            <path d="M0.344,0.016C0.527,0.016 0.637,-0.123 0.638,-0.363C0.638,-0.601 0.526,-0.737 0.344,-0.737C0.162,-0.737 0.051,-0.601 0.05,-0.363C0.05,-0.124 0.161,0.016 0.344,0.016ZM0.344,-0.112C0.261,-0.112 0.207,-0.195 0.207,-0.363C0.207,-0.528 0.261,-0.611 0.344,-0.611C0.427,-0.611 0.481,-0.528 0.481,-0.363C0.481,-0.195 0.427,-0.112 0.344,-0.112Z" style="fill:rgb(244,29,255);fill-rule:nonzero;"/>
        </g>
        <g transform="matrix(14.9917,0,0,14.9917,48.3362,96.4205)">
            <path d="M0.344,0.016C0.527,0.016 0.637,-0.123 0.638,-0.363C0.638,-0.601 0.526,-0.737 0.344,-0.737C0.162,-0.737 0.051,-0.601 0.05,-0.363C0.05,-0.124 0.161,0.016 0.344,0.016ZM0.344,-0.112C0.261,-0.112 0.207,-0.195 0.207,-0.363C0.207,-0.528 0.261,-0.611 0.344,-0.611C0.427,-0.611 0.481,-0.528 0.481,-0.363C0.481,-0.195 0.427,-0.112 0.344,-0.112Z" style="fill:rgb(244,29,255);fill-rule:nonzero;"/>
        </g>
        <g transform="matrix(14.9917,0,0,14.9917,58.2065,96.4205)">
            <path d="M0.225,-0.099L0.1,-0.099L0.098,-0.06C0.094,0.037 0.066,0.136 0.056,0.178L0.154,0.178C0.171,0.135 0.211,0.034 0.221,-0.06L0.225,-0.099Z" style="fill:rgb(244,29,255);fill-rule:nonzero;"/>
        </g>
        <g transform="matrix(14.9917,0,0,14.9917,61.3847,96.4205)">
            <path d="M0.375,-0.727L0.231,-0.727L0.051,-0.613L0.051,-0.477L0.217,-0.581L0.222,-0.581L0.222,-0L0.375,-0L0.375,-0.727Z" style="fill:rgb(244,29,255);fill-rule:nonzero;"/>
        </g>
        <g transform="matrix(14.9917,0,0,14.9917,68.7209,96.4205)">
            <path d="M0.344,0.016C0.527,0.016 0.637,-0.123 0.638,-0.363C0.638,-0.601 0.526,-0.737 0.344,-0.737C0.162,-0.737 0.051,-0.601 0.05,-0.363C0.05,-0.124 0.161,0.016 0.344,0.016ZM0.344,-0.112C0.261,-0.112 0.207,-0.195 0.207,-0.363C0.207,-0.528 0.261,-0.611 0.344,-0.611C0.427,-0.611 0.481,-0.528 0.481,-0.363C0.481,-0.195 0.427,-0.112 0.344,-0.112Z" style="fill:rgb(244,29,255);fill-rule:nonzero;"/>
        </g>
        <g transform="matrix(14.9917,0,0,14.9917,79.0383,96.4205)">
            <path d="M0.344,0.016C0.527,0.016 0.637,-0.123 0.638,-0.363C0.638,-0.601 0.526,-0.737 0.344,-0.737C0.162,-0.737 0.051,-0.601 0.05,-0.363C0.05,-0.124 0.161,0.016 0.344,0.016ZM0.344,-0.112C0.261,-0.112 0.207,-0.195 0.207,-0.363C0.207,-0.528 0.261,-0.611 0.344,-0.611C0.427,-0.611 0.481,-0.528 0.481,-0.363C0.481,-0.195 0.427,-0.112 0.344,-0.112Z" style="fill:rgb(244,29,255);fill-rule:nonzero;"/>
        </g>
        <g transform="matrix(14.9917,0,0,14.9917,89.3557,96.4205)">
            <path d="M0.315,-0.364C0.315,-0.54 0.269,-0.687 0.172,-0.813L0.027,-0.813C0.102,-0.719 0.158,-0.532 0.158,-0.364C0.158,-0.196 0.102,-0.008 0.027,0.086L0.172,0.086C0.269,-0.041 0.315,-0.187 0.315,-0.364Z" style="fill:rgb(244,29,255);fill-rule:nonzero;"/>
        </g>
    </g>
    <g transform="matrix(1.60089,0,0,1.60089,448.744,176.015)">
        <g transform="matrix(14.9917,0,0,14.9917,24.5497,96.4205)">
            <path d="M0.094,-0.364C0.094,-0.187 0.14,-0.04 0.237,0.086L0.382,0.086C0.308,-0.008 0.251,-0.195 0.251,-0.364C0.251,-0.532 0.308,-0.719 0.382,-0.813L0.237,-0.813C0.14,-0.686 0.094,-0.54 0.094,-0.364Z" style="fill:rgb(0,206,55);fill-rule:nonzero;"/>
        </g>
        <g transform="matrix(14.9917,0,0,14.9917,30.6827,96.4205)">
            <path d="M0.375,-0.727L0.231,-0.727L0.051,-0.613L0.051,-0.477L0.217,-0.581L0.222,-0.581L0.222,-0L0.375,-0L0.375,-0.727Z" style="fill:rgb(0,206,55);fill-rule:nonzero;"/>
        </g>
        <g transform="matrix(14.9917,0,0,14.9917,38.0188,96.4205)">
            <path d="M0.325,0.01C0.486,0.01 0.597,-0.096 0.596,-0.243C0.597,-0.382 0.499,-0.482 0.368,-0.482C0.304,-0.482 0.249,-0.455 0.224,-0.419L0.219,-0.419L0.238,-0.602L0.556,-0.602L0.556,-0.727L0.112,-0.727L0.077,-0.344L0.214,-0.319C0.236,-0.349 0.279,-0.368 0.322,-0.368C0.396,-0.368 0.448,-0.315 0.448,-0.239C0.448,-0.163 0.397,-0.111 0.325,-0.111C0.263,-0.111 0.214,-0.149 0.211,-0.206L0.061,-0.206C0.064,-0.08 0.174,0.01 0.325,0.01Z" style="fill:rgb(0,206,55);fill-rule:nonzero;"/>
        </g>
        <g transform="matrix(14.9917,0,0,14.9917,47.6814,96.4205)">
            <path d="M0.344,0.016C0.527,0.016 0.637,-0.123 0.638,-0.363C0.638,-0.601 0.526,-0.737 0.344,-0.737C0.162,-0.737 0.051,-0.601 0.05,-0.363C0.05,-0.124 0.161,0.016 0.344,0.016ZM0.344,-0.112C0.261,-0.112 0.207,-0.195 0.207,-0.363C0.207,-0.528 0.261,-0.611 0.344,-0.611C0.427,-0.611 0.481,-0.528 0.481,-0.363C0.481,-0.195 0.427,-0.112 0.344,-0.112Z" style="fill:rgb(0,206,55);fill-rule:nonzero;"/>
        </g>
        <g transform="matrix(14.9917,0,0,14.9917,57.5516,96.4205)">
            <path d="M0.225,-0.099L0.1,-0.099L0.098,-0.06C0.094,0.037 0.066,0.136 0.056,0.178L0.154,0.178C0.171,0.135 0.211,0.034 0.221,-0.06L0.225,-0.099Z" style="fill:rgb(0,206,55);fill-rule:nonzero;"/>
        </g>
        <g transform="matrix(14.9917,0,0,14.9917,60.7299,96.4205)">
            <path d="M0.375,-0.727L0.231,-0.727L0.051,-0.613L0.051,-0.477L0.217,-0.581L0.222,-0.581L0.222,-0L0.375,-0L0.375,-0.727Z" style="fill:rgb(0,206,55);fill-rule:nonzero;"/>
        </g>
        <g transform="matrix(14.9917,0,0,14.9917,68.066,96.4205)">
            <path d="M0.322,-0.737C0.159,-0.738 0.05,-0.631 0.05,-0.485C0.051,-0.349 0.145,-0.251 0.274,-0.251C0.354,-0.251 0.425,-0.29 0.457,-0.354L0.462,-0.354C0.462,-0.21 0.412,-0.122 0.317,-0.122C0.261,-0.122 0.221,-0.152 0.209,-0.205L0.058,-0.205C0.072,-0.083 0.171,0.01 0.317,0.01C0.497,0.01 0.613,-0.136 0.613,-0.382C0.612,-0.646 0.472,-0.736 0.322,-0.737ZM0.323,-0.616C0.394,-0.616 0.446,-0.559 0.447,-0.49C0.447,-0.42 0.392,-0.363 0.322,-0.363C0.251,-0.363 0.2,-0.418 0.2,-0.489C0.199,-0.56 0.252,-0.616 0.323,-0.616Z" style="fill:rgb(0,206,55);fill-rule:nonzero;"/>
        </g>
        <g transform="matrix(14.9917,0,0,14.9917,77.9629,96.4205)">
            <path d="M0.344,0.016C0.527,0.016 0.637,-0.123 0.638,-0.363C0.638,-0.601 0.526,-0.737 0.344,-0.737C0.162,-0.737 0.051,-0.601 0.05,-0.363C0.05,-0.124 0.161,0.016 0.344,0.016ZM0.344,-0.112C0.261,-0.112 0.207,-0.195 0.207,-0.363C0.207,-0.528 0.261,-0.611 0.344,-0.611C0.427,-0.611 0.481,-0.528 0.481,-0.363C0.481,-0.195 0.427,-0.112 0.344,-0.112Z" style="fill:rgb(0,206,55);fill-rule:nonzero;"/>
        </g>
        <g transform="matrix(14.9917,0,0,14.9917,88.2803,96.4205)">
            <path d="M0.315,-0.364C0.315,-0.54 0.269,-0.687 0.172,-0.813L0.027,-0.813C0.102,-0.719 0.158,-0.532 0.158,-0.364C0.158,-0.196 0.102,-0.008 0.027,0.086L0.172,0.086C0.269,-0.041 0.315,-0.187 0.315,-0.364Z" style="fill:rgb(0,206,55);fill-rule:nonzero;"/>
        </g>
    </g>
    <g transform="matrix(0.581543,0,0,0.581543,253.407,117.729)">
        <path d="M219.745,212.434C219.917,211.758 220.526,211.286 221.223,211.286C221.92,211.286 222.528,211.758 222.701,212.434L225.049,221.625L234.24,223.973C234.916,224.146 235.388,224.754 235.388,225.451C235.388,226.148 234.916,226.757 234.24,226.929L225.049,229.277L222.701,238.469C222.528,239.144 221.92,239.617 221.223,239.617C220.526,239.617 219.917,239.144 219.745,238.469L217.397,229.277L208.205,226.929C207.53,226.757 207.057,226.148 207.057,225.451C207.057,224.754 207.53,224.146 208.205,223.973L217.397,221.625L219.745,212.434Z" style="fill:rgb(244,29,255);"/>
        <path d="M217.245,211.795L215.276,219.505C215.276,219.505 207.567,221.474 207.567,221.474C205.749,221.938 204.478,223.576 204.478,225.451C204.478,227.327 205.749,228.964 207.567,229.429C207.567,229.429 215.276,231.398 215.276,231.398C215.276,231.398 217.245,239.107 217.245,239.107C217.71,240.925 219.347,242.196 221.223,242.196C223.099,242.196 224.736,240.925 225.2,239.107C225.2,239.107 227.169,231.398 227.169,231.398C227.169,231.398 234.879,229.429 234.879,229.429C236.696,228.964 237.968,227.327 237.968,225.451C237.968,223.576 236.696,221.938 234.879,221.474C234.879,221.474 227.169,219.505 227.169,219.505C227.169,219.505 225.2,211.795 225.2,211.795C224.736,209.978 223.099,208.706 221.223,208.706C219.347,208.706 217.71,209.978 217.245,211.795ZM219.745,212.434C219.917,211.758 220.526,211.286 221.223,211.286C221.92,211.286 222.528,211.758 222.701,212.434L225.049,221.625L234.24,223.973C234.916,224.146 235.388,224.754 235.388,225.451C235.388,226.148 234.916,226.757 234.24,226.929L225.049,229.277L222.701,238.469C222.528,239.144 221.92,239.617 221.223,239.617C220.526,239.617 219.917,239.144 219.745,238.469L217.397,229.277L208.205,226.929C207.53,226.757 207.057,226.148 207.057,225.451C207.057,224.754 207.53,224.146 208.205,223.973L217.397,221.625L219.745,212.434Z" style="fill:white;"/>
    </g>
    <g transform="matrix(0.581543,0,0,0.581543,353.407,207.729)">
        <path d="M219.745,212.434C219.917,211.758 220.526,211.286 221.223,211.286C221.92,211.286 222.528,211.758 222.701,212.434L225.049,221.625L234.24,223.973C234.916,224.146 235.388,224.754 235.388,225.451C235.388,226.148 234.916,226.757 234.24,226.929L225.049,229.277L222.701,238.469C222.528,239.144 221.92,239.617 221.223,239.617C220.526,239.617 219.917,239.144 219.745,238.469L217.397,229.277L208.205,226.929C207.53,226.757 207.057,226.148 207.057,225.451C207.057,224.754 207.53,224.146 208.205,223.973L217.397,221.625L219.745,212.434Z" style="fill:rgb(0,206,55);"/>
        <path d="M217.223,211.79L215.257,219.486C215.257,219.486 207.561,221.452 207.561,221.452C205.734,221.919 204.455,223.565 204.455,225.451C204.455,227.338 205.734,228.984 207.561,229.451C207.561,229.451 215.257,231.417 215.257,231.417C215.257,231.417 217.223,239.113 217.223,239.113C217.69,240.941 219.336,242.219 221.223,242.219C223.109,242.219 224.755,240.941 225.222,239.113C225.222,239.113 227.188,231.417 227.188,231.417C227.188,231.417 234.884,229.451 234.884,229.451C236.712,228.984 237.991,227.338 237.991,225.451C237.991,223.565 236.712,221.919 234.884,221.452C234.884,221.452 227.188,219.486 227.188,219.486C227.188,219.486 225.222,211.79 225.222,211.79C224.755,209.962 223.109,208.684 221.223,208.684C219.336,208.684 217.69,209.962 217.223,211.79ZM219.745,212.434C219.917,211.758 220.526,211.286 221.223,211.286C221.92,211.286 222.528,211.758 222.701,212.434L225.049,221.625L234.24,223.973C234.916,224.146 235.388,224.754 235.388,225.451C235.388,226.148 234.916,226.757 234.24,226.929L225.049,229.277L222.701,238.469C222.528,239.144 221.92,239.617 221.223,239.617C220.526,239.617 219.917,239.144 219.745,238.469L217.397,229.277L208.205,226.929C207.53,226.757 207.057,226.148 207.057,225.451C207.057,224.754 207.53,224.146 208.205,223.973L217.397,221.625L219.745,212.434Z" style="fill:white;"/>
    </g>
</svg>
