<?xml version="1.0" encoding="UTF-8" standalone="no"?>
<!DOCTYPE svg PUBLIC "-//W3C//DTD SVG 1.1//EN" "http://www.w3.org/Graphics/SVG/1.1/DTD/svg11.dtd">
<svg width="100%" height="100%" viewBox="0 0 1000 320" version="1.1" xmlns="http://www.w3.org/2000/svg" xmlns:xlink="http://www.w3.org/1999/xlink" xml:space="preserve" xmlns:serif="http://www.serif.com/" style="fill-rule:evenodd;clip-rule:evenodd;stroke-linejoin:round;stroke-miterlimit:2;">
    <g id="IDE-back" serif:id="IDE back" transform="matrix(1.53548,0,0,0.624782,106.917,0.111514)">
        <rect x="0" y="0" width="512" height="512" style="fill:rgb(41,46,53);"/>
    </g>
    <g transform="matrix(0.878433,0,0,2.09951,193.33,-118.576)">
        <path d="M462.936,95.548C462.936,92.919 457.835,90.785 451.552,90.785L135.879,90.785C129.596,90.785 124.495,92.919 124.495,95.548L124.495,198.835C124.495,201.464 129.596,203.598 135.879,203.598L451.552,203.598C457.835,203.598 462.936,201.464 462.936,198.835L462.936,95.548Z" style="fill:rgb(0,182,186);fill-opacity:0.14;"/>
    </g>
    <g transform="matrix(1.60089,0,0,1.60089,572.54,-50.0531)">
        <g transform="matrix(16.241,0,0,16.241,24.5497,96.4205)">
            <path d="M0.321,-0C0.543,-0 0.677,-0.137 0.677,-0.364C0.677,-0.591 0.543,-0.727 0.323,-0.727L0.063,-0.727L0.063,-0L0.321,-0ZM0.217,-0.132L0.217,-0.596L0.315,-0.596C0.451,-0.596 0.523,-0.526 0.523,-0.364C0.523,-0.202 0.451,-0.132 0.315,-0.132L0.217,-0.132Z" style="fill:rgb(33,250,255);fill-rule:nonzero;"/>
        </g>
        <g transform="matrix(16.241,0,0,16.241,36.3613,96.4205)">
            <path d="M0.307,0.011C0.472,0.011 0.575,-0.103 0.575,-0.271C0.575,-0.44 0.472,-0.553 0.307,-0.553C0.141,-0.553 0.038,-0.44 0.038,-0.271C0.038,-0.103 0.141,0.011 0.307,0.011ZM0.308,-0.107C0.231,-0.107 0.192,-0.176 0.192,-0.272C0.192,-0.367 0.231,-0.437 0.308,-0.437C0.382,-0.437 0.422,-0.367 0.422,-0.272C0.422,-0.176 0.382,-0.107 0.308,-0.107Z" style="fill:rgb(33,250,255);fill-rule:nonzero;"/>
        </g>
        <g transform="matrix(16.241,0,0,16.241,46.3274,96.4205)">
            <path d="M0.514,-0.39C0.501,-0.49 0.42,-0.553 0.282,-0.553C0.142,-0.553 0.05,-0.488 0.051,-0.383C0.05,-0.301 0.102,-0.248 0.208,-0.227L0.303,-0.208C0.35,-0.199 0.372,-0.181 0.373,-0.154C0.372,-0.121 0.337,-0.098 0.284,-0.098C0.23,-0.098 0.194,-0.121 0.185,-0.166L0.036,-0.158C0.05,-0.054 0.139,0.011 0.284,0.011C0.425,0.011 0.526,-0.061 0.527,-0.169C0.526,-0.248 0.475,-0.295 0.369,-0.317L0.27,-0.337C0.219,-0.348 0.201,-0.365 0.201,-0.391C0.201,-0.424 0.238,-0.445 0.284,-0.445C0.337,-0.445 0.368,-0.417 0.376,-0.381L0.514,-0.39Z" style="fill:rgb(33,250,255);fill-rule:nonzero;"/>
        </g>
        <g transform="matrix(16.241,0,0,16.241,55.4514,96.4205)">
            <path d="M0.514,-0.39C0.501,-0.49 0.42,-0.553 0.282,-0.553C0.142,-0.553 0.05,-0.488 0.051,-0.383C0.05,-0.301 0.102,-0.248 0.208,-0.227L0.303,-0.208C0.35,-0.199 0.372,-0.181 0.373,-0.154C0.372,-0.121 0.337,-0.098 0.284,-0.098C0.23,-0.098 0.194,-0.121 0.185,-0.166L0.036,-0.158C0.05,-0.054 0.139,0.011 0.284,0.011C0.425,0.011 0.526,-0.061 0.527,-0.169C0.526,-0.248 0.475,-0.295 0.369,-0.317L0.27,-0.337C0.219,-0.348 0.201,-0.365 0.201,-0.391C0.201,-0.424 0.238,-0.445 0.284,-0.445C0.337,-0.445 0.368,-0.417 0.376,-0.381L0.514,-0.39Z" style="fill:rgb(33,250,255);fill-rule:nonzero;"/>
        </g>
        <g transform="matrix(16.241,0,0,16.241,64.5754,96.4205)">
            <path d="M0.06,-0L0.212,-0L0.212,-0.545L0.06,-0.545L0.06,-0ZM0.136,-0.616C0.181,-0.616 0.218,-0.65 0.218,-0.692C0.218,-0.734 0.181,-0.769 0.136,-0.769C0.092,-0.769 0.055,-0.734 0.055,-0.692C0.055,-0.65 0.092,-0.616 0.136,-0.616Z" style="fill:rgb(33,250,255);fill-rule:nonzero;"/>
        </g>
        <g transform="matrix(16.241,0,0,16.241,68.9933,96.4205)">
            <path d="M0.309,0.011C0.444,0.011 0.535,-0.055 0.556,-0.156L0.416,-0.165C0.401,-0.124 0.362,-0.102 0.311,-0.102C0.236,-0.102 0.188,-0.152 0.188,-0.234L0.188,-0.234L0.559,-0.234L0.559,-0.276C0.559,-0.461 0.447,-0.553 0.303,-0.553C0.142,-0.553 0.038,-0.439 0.038,-0.27C0.038,-0.097 0.141,0.011 0.309,0.011ZM0.188,-0.328C0.191,-0.39 0.238,-0.44 0.305,-0.44C0.371,-0.44 0.417,-0.393 0.417,-0.328L0.188,-0.328Z" style="fill:rgb(33,250,255);fill-rule:nonzero;"/>
        </g>
        <g transform="matrix(16.241,0,0,16.241,78.6998,96.4205)">
            <path d="M0.06,-0L0.212,-0L0.212,-0.309C0.212,-0.376 0.261,-0.422 0.327,-0.422C0.348,-0.422 0.377,-0.418 0.391,-0.414L0.391,-0.548C0.378,-0.551 0.359,-0.553 0.344,-0.553C0.283,-0.553 0.233,-0.518 0.213,-0.45L0.207,-0.45L0.207,-0.545L0.06,-0.545L0.06,-0Z" style="fill:rgb(33,250,255);fill-rule:nonzero;"/>
        </g>
        <g transform="matrix(16.241,0,0,16.241,89.1042,96.4205)">
            <path d="M0.307,0.011C0.452,0.011 0.543,-0.075 0.55,-0.2L0.408,-0.2C0.399,-0.142 0.36,-0.109 0.309,-0.109C0.238,-0.109 0.192,-0.168 0.192,-0.273C0.192,-0.376 0.238,-0.435 0.309,-0.435C0.364,-0.435 0.399,-0.398 0.408,-0.344L0.55,-0.344C0.544,-0.47 0.449,-0.553 0.306,-0.553C0.141,-0.553 0.038,-0.438 0.038,-0.271C0.038,-0.105 0.139,0.011 0.307,0.011Z" style="fill:rgb(33,250,255);fill-rule:nonzero;"/>
        </g>
        <g transform="matrix(16.241,0,0,16.241,98.6434,96.4205)">
            <path d="M0.06,-0L0.212,-0L0.212,-0.309C0.212,-0.376 0.261,-0.422 0.327,-0.422C0.348,-0.422 0.377,-0.418 0.391,-0.414L0.391,-0.548C0.378,-0.551 0.359,-0.553 0.344,-0.553C0.283,-0.553 0.233,-0.518 0.213,-0.45L0.207,-0.45L0.207,-0.545L0.06,-0.545L0.06,-0Z" style="fill:rgb(33,250,255);fill-rule:nonzero;"/>
        </g>
        <g transform="matrix(16.241,0,0,16.241,104.866,96.4205)">
            <path d="M0.309,0.011C0.444,0.011 0.535,-0.055 0.556,-0.156L0.416,-0.165C0.401,-0.124 0.362,-0.102 0.311,-0.102C0.236,-0.102 0.188,-0.152 0.188,-0.234L0.188,-0.234L0.559,-0.234L0.559,-0.276C0.559,-0.461 0.447,-0.553 0.303,-0.553C0.142,-0.553 0.038,-0.439 0.038,-0.27C0.038,-0.097 0.141,0.011 0.309,0.011ZM0.188,-0.328C0.191,-0.39 0.238,-0.44 0.305,-0.44C0.371,-0.44 0.417,-0.393 0.417,-0.328L0.188,-0.328ZM0.245,-0.616L0.352,-0.616L0.46,-0.777L0.32,-0.777L0.245,-0.616Z" style="fill:rgb(33,250,255);fill-rule:nonzero;"/>
        </g>
        <g transform="matrix(16.241,0,0,16.241,114.573,96.4205)">
            <path d="M0.309,0.011C0.444,0.011 0.535,-0.055 0.556,-0.156L0.416,-0.165C0.401,-0.124 0.362,-0.102 0.311,-0.102C0.236,-0.102 0.188,-0.152 0.188,-0.234L0.188,-0.234L0.559,-0.234L0.559,-0.276C0.559,-0.461 0.447,-0.553 0.303,-0.553C0.142,-0.553 0.038,-0.439 0.038,-0.27C0.038,-0.097 0.141,0.011 0.309,0.011ZM0.188,-0.328C0.191,-0.39 0.238,-0.44 0.305,-0.44C0.371,-0.44 0.417,-0.393 0.417,-0.328L0.188,-0.328ZM0.245,-0.616L0.352,-0.616L0.46,-0.777L0.32,-0.777L0.245,-0.616Z" style="fill:rgb(33,250,255);fill-rule:nonzero;"/>
        </g>
        <g transform="matrix(16.241,0,0,16.241,24.5497,112.661)">
            <path d="M0.06,0.205L0.212,0.205L0.212,-0.087L0.216,-0.087C0.237,-0.042 0.283,0.009 0.371,0.009C0.495,0.009 0.592,-0.089 0.592,-0.272C0.592,-0.46 0.491,-0.553 0.371,-0.553C0.28,-0.553 0.237,-0.498 0.216,-0.454L0.21,-0.454L0.21,-0.545L0.06,-0.545L0.06,0.205ZM0.208,-0.273C0.208,-0.37 0.25,-0.432 0.323,-0.432C0.398,-0.432 0.438,-0.367 0.438,-0.273C0.438,-0.178 0.397,-0.112 0.323,-0.112C0.25,-0.112 0.208,-0.175 0.208,-0.273Z" style="fill:rgb(33,250,255);fill-rule:nonzero;"/>
        </g>
        <g transform="matrix(16.241,0,0,16.241,34.8214,112.661)">
            <path d="M0.216,0.01C0.297,0.01 0.349,-0.025 0.375,-0.076L0.38,-0.076L0.38,-0L0.523,-0L0.523,-0.368C0.523,-0.498 0.413,-0.553 0.292,-0.553C0.161,-0.553 0.075,-0.49 0.054,-0.391L0.194,-0.379C0.204,-0.415 0.237,-0.442 0.291,-0.442C0.342,-0.442 0.372,-0.416 0.372,-0.371L0.372,-0.369C0.372,-0.334 0.335,-0.33 0.24,-0.32C0.132,-0.31 0.035,-0.274 0.035,-0.152C0.035,-0.044 0.112,0.01 0.216,0.01ZM0.259,-0.094C0.213,-0.094 0.179,-0.116 0.179,-0.157C0.179,-0.2 0.214,-0.221 0.268,-0.228C0.301,-0.233 0.355,-0.241 0.373,-0.253L0.373,-0.195C0.373,-0.138 0.326,-0.094 0.259,-0.094Z" style="fill:rgb(33,250,255);fill-rule:nonzero;"/>
        </g>
        <g transform="matrix(16.241,0,0,16.241,44.2454,112.661)">
            <path d="M0.06,-0L0.212,-0L0.212,-0.309C0.212,-0.376 0.261,-0.422 0.327,-0.422C0.348,-0.422 0.377,-0.418 0.391,-0.414L0.391,-0.548C0.378,-0.551 0.359,-0.553 0.344,-0.553C0.283,-0.553 0.233,-0.518 0.213,-0.45L0.207,-0.45L0.207,-0.545L0.06,-0.545L0.06,-0Z" style="fill:rgb(33,250,255);fill-rule:nonzero;"/>
        </g>
        <g transform="matrix(16.241,0,0,16.241,54.6497,112.661)">
            <path d="M0.569,-0.545L0.409,-0.545L0.296,-0.155L0.29,-0.155L0.177,-0.545L0.017,-0.545L0.208,-0L0.378,-0L0.569,-0.545Z" style="fill:rgb(33,250,255);fill-rule:nonzero;"/>
        </g>
        <g transform="matrix(16.241,0,0,16.241,63.8718,112.661)">
            <path d="M0.309,0.011C0.444,0.011 0.535,-0.055 0.556,-0.156L0.416,-0.165C0.401,-0.124 0.362,-0.102 0.311,-0.102C0.236,-0.102 0.188,-0.152 0.188,-0.234L0.188,-0.234L0.559,-0.234L0.559,-0.276C0.559,-0.461 0.447,-0.553 0.303,-0.553C0.142,-0.553 0.038,-0.439 0.038,-0.27C0.038,-0.097 0.141,0.011 0.309,0.011ZM0.188,-0.328C0.191,-0.39 0.238,-0.44 0.305,-0.44C0.371,-0.44 0.417,-0.393 0.417,-0.328L0.188,-0.328Z" style="fill:rgb(33,250,255);fill-rule:nonzero;"/>
        </g>
        <g transform="matrix(16.241,0,0,16.241,73.5783,112.661)">
            <path d="M0.212,-0.315C0.212,-0.386 0.254,-0.427 0.315,-0.427C0.376,-0.427 0.412,-0.387 0.412,-0.32L0.412,-0L0.563,-0L0.563,-0.347C0.563,-0.474 0.489,-0.553 0.375,-0.553C0.294,-0.553 0.235,-0.513 0.211,-0.449L0.205,-0.449L0.205,-0.545L0.06,-0.545L0.06,-0L0.212,-0L0.212,-0.315Z" style="fill:rgb(33,250,255);fill-rule:nonzero;"/>
        </g>
        <g transform="matrix(16.241,0,0,16.241,83.3541,112.661)">
            <path d="M0.569,-0.545L0.409,-0.545L0.296,-0.155L0.29,-0.155L0.177,-0.545L0.017,-0.545L0.208,-0L0.378,-0L0.569,-0.545Z" style="fill:rgb(33,250,255);fill-rule:nonzero;"/>
        </g>
    </g>
    <g transform="matrix(2.78226,0,0,2.78226,233.685,7.64084)">
        <path d="M20,6L12,6L10,4L4,4C2.9,4 2.01,4.9 2.01,6L2,18C2,19.1 2.9,20 4,20L20,20C21.1,20 22,19.1 22,18L22,8C22,6.9 21.1,6 20,6ZM20,18L4,18L4,8L20,8L20,18Z" style="fill:white;fill-rule:nonzero;"/>
    </g>
    <g transform="matrix(2.78226,0,0,2.78226,307.798,70.3548)">
        <path d="M20,6L12,6L10,4L4,4C2.9,4 2.01,4.9 2.01,6L2,18C2,19.1 2.9,20 4,20L20,20C21.1,20 22,19.1 22,18L22,8C22,6.9 21.1,6 20,6ZM20,18L4,18L4,8L20,8L20,18Z" style="fill:white;fill-rule:nonzero;"/>
    </g>
    <g transform="matrix(2.78226,0,0,2.78226,381.196,128.871)">
        <path d="M20,6L12,6L10,4L4,4C2.9,4 2.01,4.9 2.01,6L2,18C2,19.1 2.9,20 4,20L20,20C21.1,20 22,19.1 22,18L22,8C22,6.9 21.1,6 20,6ZM20,18L4,18L4,8L20,8L20,18Z" style="fill:white;fill-rule:nonzero;"/>
    </g>
    <g transform="matrix(2.78226,0,0,2.78226,381.196,185.871)">
        <path d="M20,6L12,6L10,4L4,4C2.9,4 2.01,4.9 2.01,6L2,18C2,19.1 2.9,20 4,20L20,20C21.1,20 22,19.1 22,18L22,8C22,6.9 21.1,6 20,6ZM20,18L4,18L4,8L20,8L20,18Z" style="fill:white;fill-rule:nonzero;"/>
    </g>
    <g transform="matrix(2.78226,0,0,2.78226,381.196,244.613)">
        <path d="M20,6L12,6L10,4L4,4C2.9,4 2.01,4.9 2.01,6L2,18C2,19.1 2.9,20 4,20L20,20C21.1,20 22,19.1 22,18L22,8C22,6.9 21.1,6 20,6ZM20,18L4,18L4,8L20,8L20,18Z" style="fill:white;fill-rule:nonzero;"/>
    </g>
    <g transform="matrix(2.17987,0,0,2.17987,257.919,-158.577)">
        <g transform="matrix(12,0,0,12,24.5497,96.4205)">
            <path d="M0.074,0.225L0.074,-0.518L0.196,-0.518L0.205,-0.424L0.214,-0.424C0.22,-0.459 0.233,-0.485 0.254,-0.502C0.274,-0.519 0.304,-0.527 0.343,-0.527C0.408,-0.527 0.458,-0.504 0.494,-0.457C0.53,-0.41 0.547,-0.344 0.547,-0.258C0.547,-0.172 0.53,-0.106 0.494,-0.06C0.458,-0.013 0.408,0.01 0.344,0.01C0.308,0.01 0.279,0.001 0.257,-0.016C0.236,-0.033 0.222,-0.059 0.217,-0.094L0.206,-0.094L0.206,0.225L0.074,0.225ZM0.206,-0.258C0.206,-0.208 0.214,-0.172 0.229,-0.149C0.243,-0.126 0.27,-0.115 0.307,-0.115C0.375,-0.115 0.408,-0.163 0.408,-0.258C0.408,-0.304 0.399,-0.34 0.382,-0.365C0.364,-0.39 0.339,-0.403 0.307,-0.403C0.274,-0.403 0.248,-0.391 0.231,-0.368C0.215,-0.345 0.206,-0.308 0.206,-0.258Z" style="fill:white;fill-rule:nonzero;"/>
        </g>
        <g transform="matrix(12,0,0,12,31.581,96.4205)">
            <path d="M0.272,-0.223L0.272,-0.113L0.393,-0.113L0.393,-0L0.031,-0L0.031,-0.113L0.14,-0.113L0.14,-0.404L0.05,-0.404L0.05,-0.518L0.252,-0.518L0.268,-0.401L0.286,-0.401C0.291,-0.485 0.335,-0.527 0.418,-0.527C0.468,-0.527 0.505,-0.509 0.531,-0.473C0.558,-0.437 0.571,-0.385 0.571,-0.317L0.439,-0.317C0.439,-0.347 0.434,-0.369 0.423,-0.383C0.411,-0.396 0.393,-0.403 0.368,-0.403C0.336,-0.403 0.312,-0.387 0.296,-0.356C0.28,-0.325 0.272,-0.28 0.272,-0.223Z" style="fill:white;fill-rule:nonzero;"/>
        </g>
        <g transform="matrix(12,0,0,12,38.6122,96.4205)">
            <path d="M0.293,0.01C0.218,0.01 0.161,-0.014 0.12,-0.061C0.079,-0.107 0.058,-0.174 0.058,-0.259C0.058,-0.344 0.079,-0.411 0.12,-0.457C0.161,-0.504 0.218,-0.527 0.293,-0.527C0.368,-0.527 0.425,-0.504 0.466,-0.457C0.507,-0.411 0.528,-0.344 0.528,-0.259C0.528,-0.174 0.507,-0.107 0.466,-0.061C0.425,-0.014 0.368,0.01 0.293,0.01ZM0.293,-0.116C0.323,-0.116 0.347,-0.128 0.363,-0.153C0.379,-0.178 0.388,-0.213 0.388,-0.259C0.388,-0.305 0.379,-0.34 0.363,-0.365C0.347,-0.389 0.323,-0.402 0.293,-0.402C0.263,-0.402 0.24,-0.389 0.223,-0.365C0.207,-0.34 0.198,-0.305 0.198,-0.259C0.198,-0.213 0.207,-0.178 0.223,-0.153C0.24,-0.128 0.263,-0.116 0.293,-0.116Z" style="fill:white;fill-rule:nonzero;"/>
        </g>
        <g transform="matrix(12,0,0,12,45.6435,96.4205)">
            <path d="M0.088,0.234L0.083,0.107L0.181,0.101C0.226,0.098 0.259,0.086 0.279,0.065C0.299,0.044 0.31,0.012 0.31,-0.03L0.31,-0.396L0.129,-0.396L0.129,-0.518L0.442,-0.518L0.442,-0.046C0.442,0.046 0.42,0.113 0.377,0.156C0.334,0.198 0.266,0.222 0.171,0.229L0.088,0.234ZM0.367,-0.587C0.342,-0.587 0.322,-0.595 0.306,-0.611C0.291,-0.626 0.283,-0.647 0.283,-0.672C0.283,-0.697 0.291,-0.717 0.306,-0.733C0.322,-0.749 0.342,-0.756 0.367,-0.756C0.392,-0.756 0.413,-0.749 0.428,-0.733C0.444,-0.717 0.452,-0.697 0.452,-0.672C0.452,-0.647 0.444,-0.626 0.428,-0.611C0.413,-0.595 0.392,-0.587 0.367,-0.587Z" style="fill:white;fill-rule:nonzero;"/>
        </g>
        <g transform="matrix(12,0,0,12,52.6747,96.4205)">
            <path d="M0.339,0.01C0.249,0.01 0.18,-0.013 0.131,-0.06C0.083,-0.106 0.058,-0.173 0.058,-0.26C0.058,-0.344 0.079,-0.41 0.12,-0.457C0.162,-0.504 0.22,-0.527 0.296,-0.527C0.37,-0.527 0.427,-0.506 0.467,-0.462C0.508,-0.419 0.528,-0.356 0.528,-0.273C0.528,-0.25 0.527,-0.228 0.525,-0.207L0.196,-0.207C0.216,-0.146 0.268,-0.115 0.351,-0.115C0.374,-0.115 0.397,-0.116 0.42,-0.119C0.443,-0.121 0.466,-0.125 0.49,-0.129L0.502,-0.004C0.469,0.002 0.439,0.006 0.412,0.007C0.384,0.009 0.36,0.01 0.339,0.01ZM0.19,-0.298L0.398,-0.298C0.398,-0.333 0.389,-0.36 0.371,-0.378C0.354,-0.397 0.329,-0.406 0.297,-0.406C0.267,-0.406 0.243,-0.397 0.224,-0.378C0.206,-0.359 0.194,-0.333 0.19,-0.298Z" style="fill:white;fill-rule:nonzero;"/>
        </g>
        <g transform="matrix(12,0,0,12,59.706,96.4205)">
            <path d="M0.403,0.01C0.314,0.01 0.249,-0.008 0.209,-0.044C0.17,-0.08 0.15,-0.137 0.15,-0.216L0.15,-0.396L0.026,-0.396L0.026,-0.518L0.15,-0.518L0.15,-0.674L0.282,-0.674L0.282,-0.518L0.511,-0.518L0.511,-0.396L0.282,-0.396L0.282,-0.229C0.282,-0.189 0.292,-0.16 0.312,-0.143C0.333,-0.125 0.366,-0.116 0.413,-0.116C0.428,-0.116 0.444,-0.117 0.461,-0.118C0.478,-0.12 0.497,-0.123 0.519,-0.125L0.531,-0.002C0.509,0.002 0.488,0.005 0.468,0.007C0.448,0.009 0.426,0.01 0.403,0.01Z" style="fill:white;fill-rule:nonzero;"/>
        </g>
        <g transform="matrix(12,0,0,12,66.7372,96.4205)">
            <rect x="0.049" y="-0" width="0.488" height="0.118" style="fill:white;fill-rule:nonzero;"/>
        </g>
        <g transform="matrix(12,0,0,12,73.7685,96.4205)">
            <path d="M0.074,0.225L0.074,-0.518L0.196,-0.518L0.205,-0.424L0.214,-0.424C0.22,-0.459 0.233,-0.485 0.254,-0.502C0.274,-0.519 0.304,-0.527 0.343,-0.527C0.408,-0.527 0.458,-0.504 0.494,-0.457C0.53,-0.41 0.547,-0.344 0.547,-0.258C0.547,-0.172 0.53,-0.106 0.494,-0.06C0.458,-0.013 0.408,0.01 0.344,0.01C0.308,0.01 0.279,0.001 0.257,-0.016C0.236,-0.033 0.222,-0.059 0.217,-0.094L0.206,-0.094L0.206,0.225L0.074,0.225ZM0.206,-0.258C0.206,-0.208 0.214,-0.172 0.229,-0.149C0.243,-0.126 0.27,-0.115 0.307,-0.115C0.375,-0.115 0.408,-0.163 0.408,-0.258C0.408,-0.304 0.399,-0.34 0.382,-0.365C0.364,-0.39 0.339,-0.403 0.307,-0.403C0.274,-0.403 0.248,-0.391 0.231,-0.368C0.215,-0.345 0.206,-0.308 0.206,-0.258Z" style="fill:white;fill-rule:nonzero;"/>
        </g>
        <g transform="matrix(12,0,0,12,80.7997,96.4205)">
            <path d="M0.028,0.234L0.023,0.12L0.113,0.11C0.149,0.106 0.178,0.096 0.202,0.079C0.226,0.062 0.246,0.035 0.262,-0L0.192,-0L0.019,-0.518L0.159,-0.518L0.287,-0.112L0.299,-0.112L0.413,-0.518L0.553,-0.518L0.407,-0.046C0.388,0.016 0.365,0.066 0.34,0.104C0.314,0.142 0.284,0.17 0.25,0.189C0.215,0.208 0.173,0.22 0.125,0.225L0.028,0.234Z" style="fill:white;fill-rule:nonzero;"/>
        </g>
        <g transform="matrix(12,0,0,12,87.831,96.4205)">
            <path d="M0.403,0.01C0.314,0.01 0.249,-0.008 0.209,-0.044C0.17,-0.08 0.15,-0.137 0.15,-0.216L0.15,-0.396L0.026,-0.396L0.026,-0.518L0.15,-0.518L0.15,-0.674L0.282,-0.674L0.282,-0.518L0.511,-0.518L0.511,-0.396L0.282,-0.396L0.282,-0.229C0.282,-0.189 0.292,-0.16 0.312,-0.143C0.333,-0.125 0.366,-0.116 0.413,-0.116C0.428,-0.116 0.444,-0.117 0.461,-0.118C0.478,-0.12 0.497,-0.123 0.519,-0.125L0.531,-0.002C0.509,0.002 0.488,0.005 0.468,0.007C0.448,0.009 0.426,0.01 0.403,0.01Z" style="fill:white;fill-rule:nonzero;"/>
        </g>
        <g transform="matrix(12,0,0,12,94.8622,96.4205)">
            <path d="M0.38,-0L0.38,-0.313C0.38,-0.341 0.373,-0.364 0.361,-0.379C0.348,-0.395 0.329,-0.403 0.306,-0.403C0.239,-0.403 0.206,-0.357 0.206,-0.267L0.206,-0L0.074,-0L0.074,-0.732L0.206,-0.732L0.206,-0.424L0.219,-0.424C0.224,-0.459 0.236,-0.485 0.254,-0.502C0.273,-0.519 0.302,-0.527 0.34,-0.527C0.395,-0.527 0.437,-0.511 0.467,-0.478C0.497,-0.444 0.512,-0.397 0.512,-0.337L0.512,-0L0.38,-0Z" style="fill:white;fill-rule:nonzero;"/>
        </g>
        <g transform="matrix(12,0,0,12,101.893,96.4205)">
            <path d="M0.293,0.01C0.218,0.01 0.161,-0.014 0.12,-0.061C0.079,-0.107 0.058,-0.174 0.058,-0.259C0.058,-0.344 0.079,-0.411 0.12,-0.457C0.161,-0.504 0.218,-0.527 0.293,-0.527C0.368,-0.527 0.425,-0.504 0.466,-0.457C0.507,-0.411 0.528,-0.344 0.528,-0.259C0.528,-0.174 0.507,-0.107 0.466,-0.061C0.425,-0.014 0.368,0.01 0.293,0.01ZM0.293,-0.116C0.323,-0.116 0.347,-0.128 0.363,-0.153C0.379,-0.178 0.388,-0.213 0.388,-0.259C0.388,-0.305 0.379,-0.34 0.363,-0.365C0.347,-0.389 0.323,-0.402 0.293,-0.402C0.263,-0.402 0.24,-0.389 0.223,-0.365C0.207,-0.34 0.198,-0.305 0.198,-0.259C0.198,-0.213 0.207,-0.178 0.223,-0.153C0.24,-0.128 0.263,-0.116 0.293,-0.116Z" style="fill:white;fill-rule:nonzero;"/>
        </g>
        <g transform="matrix(12,0,0,12,108.925,96.4205)">
            <path d="M0.38,-0L0.38,-0.304C0.38,-0.335 0.373,-0.36 0.361,-0.376C0.348,-0.393 0.329,-0.402 0.306,-0.402C0.239,-0.402 0.206,-0.354 0.206,-0.258L0.206,-0L0.074,-0L0.074,-0.518L0.192,-0.518L0.204,-0.424L0.219,-0.424C0.224,-0.459 0.236,-0.485 0.254,-0.502C0.273,-0.519 0.302,-0.527 0.34,-0.527C0.395,-0.527 0.437,-0.511 0.467,-0.478C0.497,-0.444 0.512,-0.397 0.512,-0.337L0.512,-0L0.38,-0Z" style="fill:white;fill-rule:nonzero;"/>
        </g>
    </g>
    <g transform="matrix(2.17987,0,0,2.17987,332.032,-95.8627)">
        <g transform="matrix(12,0,0,12,24.5497,96.4205)">
            <path d="M0.41,-0L0.41,-0.351C0.41,-0.386 0.399,-0.404 0.378,-0.404C0.355,-0.404 0.343,-0.385 0.343,-0.346L0.343,-0L0.245,-0L0.245,-0.36C0.245,-0.39 0.235,-0.404 0.214,-0.404C0.189,-0.404 0.177,-0.385 0.177,-0.346L0.177,-0L0.046,-0L0.046,-0.518L0.165,-0.518L0.172,-0.453L0.184,-0.453C0.191,-0.503 0.217,-0.527 0.262,-0.527C0.305,-0.527 0.331,-0.503 0.34,-0.453L0.352,-0.453C0.355,-0.476 0.364,-0.494 0.379,-0.508C0.394,-0.521 0.414,-0.527 0.439,-0.527C0.474,-0.527 0.499,-0.518 0.515,-0.499C0.531,-0.479 0.54,-0.448 0.54,-0.405L0.54,-0L0.41,-0Z" style="fill:white;fill-rule:nonzero;"/>
        </g>
        <g transform="matrix(12,0,0,12,31.581,96.4205)">
            <path d="M0.293,0.01C0.218,0.01 0.161,-0.014 0.12,-0.061C0.079,-0.107 0.058,-0.174 0.058,-0.259C0.058,-0.344 0.079,-0.411 0.12,-0.457C0.161,-0.504 0.218,-0.527 0.293,-0.527C0.368,-0.527 0.425,-0.504 0.466,-0.457C0.507,-0.411 0.528,-0.344 0.528,-0.259C0.528,-0.174 0.507,-0.107 0.466,-0.061C0.425,-0.014 0.368,0.01 0.293,0.01ZM0.293,-0.116C0.323,-0.116 0.347,-0.128 0.363,-0.153C0.379,-0.178 0.388,-0.213 0.388,-0.259C0.388,-0.305 0.379,-0.34 0.363,-0.365C0.347,-0.389 0.323,-0.402 0.293,-0.402C0.263,-0.402 0.24,-0.389 0.223,-0.365C0.207,-0.34 0.198,-0.305 0.198,-0.259C0.198,-0.213 0.207,-0.178 0.223,-0.153C0.24,-0.128 0.263,-0.116 0.293,-0.116Z" style="fill:white;fill-rule:nonzero;"/>
        </g>
        <g transform="matrix(12,0,0,12,38.6122,96.4205)">
            <path d="M0.38,-0L0.38,-0.304C0.38,-0.335 0.373,-0.36 0.361,-0.376C0.348,-0.393 0.329,-0.402 0.306,-0.402C0.239,-0.402 0.206,-0.354 0.206,-0.258L0.206,-0L0.074,-0L0.074,-0.518L0.192,-0.518L0.204,-0.424L0.219,-0.424C0.224,-0.459 0.236,-0.485 0.254,-0.502C0.273,-0.519 0.302,-0.527 0.34,-0.527C0.395,-0.527 0.437,-0.511 0.467,-0.478C0.497,-0.444 0.512,-0.397 0.512,-0.337L0.512,-0L0.38,-0Z" style="fill:white;fill-rule:nonzero;"/>
        </g>
        <g transform="matrix(12,0,0,12,45.6435,96.4205)">
            <path d="M0.339,0.01C0.249,0.01 0.18,-0.013 0.131,-0.06C0.083,-0.106 0.058,-0.173 0.058,-0.26C0.058,-0.344 0.079,-0.41 0.12,-0.457C0.162,-0.504 0.22,-0.527 0.296,-0.527C0.37,-0.527 0.427,-0.506 0.467,-0.462C0.508,-0.419 0.528,-0.356 0.528,-0.273C0.528,-0.25 0.527,-0.228 0.525,-0.207L0.196,-0.207C0.216,-0.146 0.268,-0.115 0.351,-0.115C0.374,-0.115 0.397,-0.116 0.42,-0.119C0.443,-0.121 0.466,-0.125 0.49,-0.129L0.502,-0.004C0.469,0.002 0.439,0.006 0.412,0.007C0.384,0.009 0.36,0.01 0.339,0.01ZM0.19,-0.298L0.398,-0.298C0.398,-0.333 0.389,-0.36 0.371,-0.378C0.354,-0.397 0.329,-0.406 0.297,-0.406C0.267,-0.406 0.243,-0.397 0.224,-0.378C0.206,-0.359 0.194,-0.333 0.19,-0.298Z" style="fill:white;fill-rule:nonzero;"/>
        </g>
        <g transform="matrix(12,0,0,12,52.6747,96.4205)">
            <path d="M0.38,-0L0.38,-0.304C0.38,-0.335 0.373,-0.36 0.361,-0.376C0.348,-0.393 0.329,-0.402 0.306,-0.402C0.239,-0.402 0.206,-0.354 0.206,-0.258L0.206,-0L0.074,-0L0.074,-0.518L0.192,-0.518L0.204,-0.424L0.219,-0.424C0.224,-0.459 0.236,-0.485 0.254,-0.502C0.273,-0.519 0.302,-0.527 0.34,-0.527C0.395,-0.527 0.437,-0.511 0.467,-0.478C0.497,-0.444 0.512,-0.397 0.512,-0.337L0.512,-0L0.38,-0Z" style="fill:white;fill-rule:nonzero;"/>
        </g>
        <g transform="matrix(12,0,0,12,59.706,96.4205)">
            <path d="M0.208,-0L0.031,-0.518L0.166,-0.518L0.289,-0.116L0.297,-0.116L0.42,-0.518L0.555,-0.518L0.378,-0L0.208,-0Z" style="fill:white;fill-rule:nonzero;"/>
        </g>
    </g>
    <g transform="matrix(2.17987,0,0,2.17987,405.43,-37.3465)">
        <g transform="matrix(12,0,0,12,24.5497,96.4205)">
            <path d="M0.074,-0L0.074,-0.116L0.228,-0.116L0.228,-0.578L0.074,-0.578L0.074,-0.693L0.512,-0.693L0.512,-0.578L0.357,-0.578L0.357,-0.116L0.512,-0.116L0.512,-0L0.074,-0Z" style="fill:white;fill-rule:nonzero;"/>
        </g>
        <g transform="matrix(12,0,0,12,31.581,96.4205)">
            <path d="M0.38,-0L0.38,-0.304C0.38,-0.335 0.373,-0.36 0.361,-0.376C0.348,-0.393 0.329,-0.402 0.306,-0.402C0.239,-0.402 0.206,-0.354 0.206,-0.258L0.206,-0L0.074,-0L0.074,-0.518L0.192,-0.518L0.204,-0.424L0.219,-0.424C0.224,-0.459 0.236,-0.485 0.254,-0.502C0.273,-0.519 0.302,-0.527 0.34,-0.527C0.395,-0.527 0.437,-0.511 0.467,-0.478C0.497,-0.444 0.512,-0.397 0.512,-0.337L0.512,-0L0.38,-0Z" style="fill:white;fill-rule:nonzero;"/>
        </g>
        <g transform="matrix(12,0,0,12,38.6122,96.4205)">
            <path d="M0.354,0.01C0.259,0.01 0.187,-0.013 0.135,-0.06C0.084,-0.106 0.058,-0.173 0.058,-0.26C0.058,-0.344 0.082,-0.41 0.128,-0.457C0.175,-0.504 0.242,-0.527 0.329,-0.527C0.382,-0.527 0.428,-0.517 0.467,-0.496C0.505,-0.475 0.532,-0.446 0.548,-0.408L0.452,-0.332C0.422,-0.378 0.38,-0.402 0.325,-0.402C0.285,-0.402 0.254,-0.39 0.232,-0.366C0.209,-0.342 0.198,-0.309 0.198,-0.265C0.198,-0.216 0.213,-0.179 0.242,-0.154C0.271,-0.128 0.312,-0.116 0.365,-0.116C0.389,-0.116 0.412,-0.117 0.435,-0.119C0.459,-0.121 0.481,-0.125 0.503,-0.128L0.517,-0.005C0.491,0.001 0.464,0.005 0.436,0.007C0.408,0.009 0.38,0.01 0.354,0.01Z" style="fill:white;fill-rule:nonzero;"/>
        </g>
        <g transform="matrix(12,0,0,12,45.6435,96.4205)">
            <path d="M0.37,0.01C0.305,0.01 0.258,-0.008 0.229,-0.044C0.2,-0.08 0.186,-0.137 0.186,-0.216L0.186,-0.611L0.04,-0.611L0.04,-0.732L0.318,-0.732L0.318,-0.221C0.318,-0.188 0.323,-0.165 0.335,-0.15C0.346,-0.135 0.371,-0.128 0.409,-0.128C0.438,-0.128 0.474,-0.134 0.518,-0.146L0.533,-0.011C0.505,-0.004 0.478,0.002 0.453,0.005C0.427,0.008 0.399,0.01 0.37,0.01Z" style="fill:white;fill-rule:nonzero;"/>
        </g>
        <g transform="matrix(12,0,0,12,52.6747,96.4205)">
            <path d="M0.218,0.01C0.169,0.01 0.131,-0.006 0.104,-0.039C0.076,-0.071 0.063,-0.117 0.063,-0.176L0.063,-0.518L0.195,-0.518L0.195,-0.208C0.195,-0.179 0.202,-0.156 0.216,-0.14C0.229,-0.124 0.248,-0.116 0.271,-0.116C0.302,-0.116 0.326,-0.128 0.342,-0.152C0.357,-0.176 0.365,-0.216 0.365,-0.272L0.365,-0.518L0.498,-0.518L0.498,-0.118L0.569,-0.107L0.569,-0L0.374,0.005L0.367,-0.1L0.352,-0.1C0.343,-0.064 0.328,-0.037 0.304,-0.019C0.281,0 0.252,0.01 0.218,0.01Z" style="fill:white;fill-rule:nonzero;"/>
        </g>
        <g transform="matrix(12,0,0,12,59.706,96.4205)">
            <path d="M0.242,0.01C0.178,0.01 0.128,-0.013 0.092,-0.06C0.056,-0.106 0.039,-0.172 0.039,-0.258C0.039,-0.344 0.056,-0.41 0.092,-0.457C0.128,-0.504 0.178,-0.527 0.243,-0.527C0.28,-0.527 0.309,-0.519 0.329,-0.502C0.349,-0.485 0.361,-0.459 0.367,-0.424L0.38,-0.424L0.38,-0.732L0.512,-0.732L0.512,-0L0.399,0.005L0.38,-0.094L0.369,-0.094C0.364,-0.059 0.35,-0.033 0.329,-0.016C0.307,0.001 0.278,0.01 0.242,0.01ZM0.38,-0.258C0.38,-0.308 0.372,-0.345 0.355,-0.368C0.338,-0.391 0.313,-0.403 0.279,-0.403C0.247,-0.403 0.222,-0.39 0.204,-0.365C0.187,-0.34 0.178,-0.304 0.178,-0.258C0.178,-0.163 0.211,-0.115 0.279,-0.115C0.317,-0.115 0.343,-0.126 0.358,-0.149C0.372,-0.172 0.38,-0.208 0.38,-0.258Z" style="fill:white;fill-rule:nonzero;"/>
        </g>
        <g transform="matrix(12,0,0,12,66.7372,96.4205)">
            <path d="M0.339,0.01C0.249,0.01 0.18,-0.013 0.131,-0.06C0.083,-0.106 0.058,-0.173 0.058,-0.26C0.058,-0.344 0.079,-0.41 0.12,-0.457C0.162,-0.504 0.22,-0.527 0.296,-0.527C0.37,-0.527 0.427,-0.506 0.467,-0.462C0.508,-0.419 0.528,-0.356 0.528,-0.273C0.528,-0.25 0.527,-0.228 0.525,-0.207L0.196,-0.207C0.216,-0.146 0.268,-0.115 0.351,-0.115C0.374,-0.115 0.397,-0.116 0.42,-0.119C0.443,-0.121 0.466,-0.125 0.49,-0.129L0.502,-0.004C0.469,0.002 0.439,0.006 0.412,0.007C0.384,0.009 0.36,0.01 0.339,0.01ZM0.19,-0.298L0.398,-0.298C0.398,-0.333 0.389,-0.36 0.371,-0.378C0.354,-0.397 0.329,-0.406 0.297,-0.406C0.267,-0.406 0.243,-0.397 0.224,-0.378C0.206,-0.359 0.194,-0.333 0.19,-0.298Z" style="fill:white;fill-rule:nonzero;"/>
        </g>
    </g>
    <g transform="matrix(2.17987,0,0,2.17987,405.43,19.6535)">
        <g transform="matrix(12,0,0,12,24.5497,96.4205)">
            <path d="M0.07,-0L0.07,-0.693L0.199,-0.693L0.199,-0.119L0.545,-0.119L0.545,-0L0.07,-0Z" style="fill:white;fill-rule:nonzero;"/>
        </g>
        <g transform="matrix(12,0,0,12,31.581,96.4205)">
            <path d="M0.07,-0L0.07,-0.122L0.261,-0.122L0.261,-0.396L0.099,-0.396L0.099,-0.518L0.393,-0.518L0.393,-0.122L0.546,-0.122L0.546,-0L0.07,-0ZM0.321,-0.587C0.296,-0.587 0.276,-0.595 0.26,-0.611C0.245,-0.626 0.237,-0.647 0.237,-0.672C0.237,-0.697 0.245,-0.717 0.26,-0.733C0.276,-0.749 0.296,-0.756 0.321,-0.756C0.346,-0.756 0.367,-0.749 0.382,-0.733C0.398,-0.717 0.406,-0.697 0.406,-0.672C0.406,-0.647 0.398,-0.626 0.382,-0.611C0.367,-0.595 0.346,-0.587 0.321,-0.587Z" style="fill:white;fill-rule:nonzero;"/>
        </g>
        <g transform="matrix(12,0,0,12,38.6122,96.4205)">
            <path d="M0.218,0.01C0.194,0.01 0.169,0.009 0.145,0.007C0.121,0.005 0.096,0.003 0.071,-0L0.071,-0.732L0.204,-0.732L0.204,-0.424L0.217,-0.424C0.226,-0.493 0.267,-0.527 0.34,-0.527C0.405,-0.527 0.456,-0.507 0.491,-0.466C0.527,-0.426 0.545,-0.368 0.545,-0.293C0.545,-0.197 0.517,-0.122 0.46,-0.07C0.403,-0.017 0.322,0.01 0.218,0.01ZM0.204,-0.291L0.204,-0.115C0.209,-0.115 0.215,-0.115 0.221,-0.115L0.239,-0.115C0.292,-0.115 0.333,-0.13 0.362,-0.161C0.391,-0.192 0.406,-0.236 0.406,-0.293C0.406,-0.328 0.398,-0.355 0.382,-0.374C0.366,-0.393 0.344,-0.403 0.315,-0.403C0.241,-0.403 0.204,-0.366 0.204,-0.291Z" style="fill:white;fill-rule:nonzero;"/>
        </g>
    </g>
    <g transform="matrix(2.17987,0,0,2.17987,405.43,78.3954)">
        <g transform="matrix(12,0,0,12,24.5497,96.4205)">
            <path d="M0.269,0.01C0.23,0.01 0.191,0.006 0.154,-0C0.117,-0.007 0.084,-0.016 0.055,-0.028L0.072,-0.16C0.146,-0.129 0.214,-0.113 0.277,-0.113C0.312,-0.113 0.338,-0.119 0.357,-0.132C0.375,-0.144 0.385,-0.162 0.385,-0.185C0.385,-0.215 0.366,-0.239 0.328,-0.257L0.228,-0.306C0.179,-0.33 0.141,-0.36 0.114,-0.395C0.087,-0.431 0.073,-0.47 0.073,-0.513C0.073,-0.573 0.093,-0.62 0.133,-0.653C0.173,-0.687 0.23,-0.703 0.303,-0.703C0.391,-0.703 0.465,-0.674 0.526,-0.616L0.438,-0.514C0.391,-0.558 0.346,-0.581 0.304,-0.581C0.275,-0.581 0.253,-0.574 0.237,-0.562C0.221,-0.55 0.213,-0.532 0.213,-0.509C0.213,-0.478 0.235,-0.451 0.278,-0.429L0.372,-0.38C0.42,-0.355 0.458,-0.325 0.485,-0.292C0.511,-0.258 0.524,-0.221 0.524,-0.183C0.524,-0.121 0.502,-0.074 0.458,-0.04C0.414,-0.007 0.351,0.01 0.269,0.01Z" style="fill:white;fill-rule:nonzero;"/>
        </g>
        <g transform="matrix(12,0,0,12,31.581,96.4205)">
            <path d="M0.354,0.01C0.259,0.01 0.187,-0.013 0.135,-0.06C0.084,-0.106 0.058,-0.173 0.058,-0.26C0.058,-0.344 0.082,-0.41 0.128,-0.457C0.175,-0.504 0.242,-0.527 0.329,-0.527C0.382,-0.527 0.428,-0.517 0.467,-0.496C0.505,-0.475 0.532,-0.446 0.548,-0.408L0.452,-0.332C0.422,-0.378 0.38,-0.402 0.325,-0.402C0.285,-0.402 0.254,-0.39 0.232,-0.366C0.209,-0.342 0.198,-0.309 0.198,-0.265C0.198,-0.216 0.213,-0.179 0.242,-0.154C0.271,-0.128 0.312,-0.116 0.365,-0.116C0.389,-0.116 0.412,-0.117 0.435,-0.119C0.459,-0.121 0.481,-0.125 0.503,-0.128L0.517,-0.005C0.491,0.001 0.464,0.005 0.436,0.007C0.408,0.009 0.38,0.01 0.354,0.01Z" style="fill:white;fill-rule:nonzero;"/>
        </g>
        <g transform="matrix(12,0,0,12,38.6122,96.4205)">
            <path d="M0.272,-0.223L0.272,-0.113L0.393,-0.113L0.393,-0L0.031,-0L0.031,-0.113L0.14,-0.113L0.14,-0.404L0.05,-0.404L0.05,-0.518L0.252,-0.518L0.268,-0.401L0.286,-0.401C0.291,-0.485 0.335,-0.527 0.418,-0.527C0.468,-0.527 0.505,-0.509 0.531,-0.473C0.558,-0.437 0.571,-0.385 0.571,-0.317L0.439,-0.317C0.439,-0.347 0.434,-0.369 0.423,-0.383C0.411,-0.396 0.393,-0.403 0.368,-0.403C0.336,-0.403 0.312,-0.387 0.296,-0.356C0.28,-0.325 0.272,-0.28 0.272,-0.223Z" style="fill:white;fill-rule:nonzero;"/>
        </g>
        <g transform="matrix(12,0,0,12,45.6435,96.4205)">
            <path d="M0.07,-0L0.07,-0.122L0.261,-0.122L0.261,-0.396L0.099,-0.396L0.099,-0.518L0.393,-0.518L0.393,-0.122L0.546,-0.122L0.546,-0L0.07,-0ZM0.321,-0.587C0.296,-0.587 0.276,-0.595 0.26,-0.611C0.245,-0.626 0.237,-0.647 0.237,-0.672C0.237,-0.697 0.245,-0.717 0.26,-0.733C0.276,-0.749 0.296,-0.756 0.321,-0.756C0.346,-0.756 0.367,-0.749 0.382,-0.733C0.398,-0.717 0.406,-0.697 0.406,-0.672C0.406,-0.647 0.398,-0.626 0.382,-0.611C0.367,-0.595 0.346,-0.587 0.321,-0.587Z" style="fill:white;fill-rule:nonzero;"/>
        </g>
        <g transform="matrix(12,0,0,12,52.6747,96.4205)">
            <path d="M0.074,0.225L0.074,-0.518L0.196,-0.518L0.205,-0.424L0.214,-0.424C0.22,-0.459 0.233,-0.485 0.254,-0.502C0.274,-0.519 0.304,-0.527 0.343,-0.527C0.408,-0.527 0.458,-0.504 0.494,-0.457C0.53,-0.41 0.547,-0.344 0.547,-0.258C0.547,-0.172 0.53,-0.106 0.494,-0.06C0.458,-0.013 0.408,0.01 0.344,0.01C0.308,0.01 0.279,0.001 0.257,-0.016C0.236,-0.033 0.222,-0.059 0.217,-0.094L0.206,-0.094L0.206,0.225L0.074,0.225ZM0.206,-0.258C0.206,-0.208 0.214,-0.172 0.229,-0.149C0.243,-0.126 0.27,-0.115 0.307,-0.115C0.375,-0.115 0.408,-0.163 0.408,-0.258C0.408,-0.304 0.399,-0.34 0.382,-0.365C0.364,-0.39 0.339,-0.403 0.307,-0.403C0.274,-0.403 0.248,-0.391 0.231,-0.368C0.215,-0.345 0.206,-0.308 0.206,-0.258Z" style="fill:white;fill-rule:nonzero;"/>
        </g>
        <g transform="matrix(12,0,0,12,59.706,96.4205)">
            <path d="M0.403,0.01C0.314,0.01 0.249,-0.008 0.209,-0.044C0.17,-0.08 0.15,-0.137 0.15,-0.216L0.15,-0.396L0.026,-0.396L0.026,-0.518L0.15,-0.518L0.15,-0.674L0.282,-0.674L0.282,-0.518L0.511,-0.518L0.511,-0.396L0.282,-0.396L0.282,-0.229C0.282,-0.189 0.292,-0.16 0.312,-0.143C0.333,-0.125 0.366,-0.116 0.413,-0.116C0.428,-0.116 0.444,-0.117 0.461,-0.118C0.478,-0.12 0.497,-0.123 0.519,-0.125L0.531,-0.002C0.509,0.002 0.488,0.005 0.468,0.007C0.448,0.009 0.426,0.01 0.403,0.01Z" style="fill:white;fill-rule:nonzero;"/>
        </g>
        <g transform="matrix(12,0,0,12,66.7372,96.4205)">
            <path d="M0.253,0.01C0.175,0.01 0.114,0.005 0.068,-0.005L0.083,-0.131C0.125,-0.126 0.159,-0.122 0.187,-0.12C0.215,-0.117 0.237,-0.116 0.253,-0.116C0.296,-0.116 0.326,-0.119 0.345,-0.125C0.365,-0.131 0.374,-0.14 0.374,-0.154C0.374,-0.168 0.364,-0.178 0.343,-0.184L0.18,-0.233C0.145,-0.243 0.119,-0.259 0.102,-0.279C0.084,-0.3 0.076,-0.327 0.076,-0.362C0.076,-0.472 0.17,-0.527 0.359,-0.527C0.382,-0.527 0.405,-0.527 0.428,-0.525C0.452,-0.523 0.478,-0.521 0.504,-0.518L0.49,-0.395C0.461,-0.398 0.435,-0.399 0.413,-0.4C0.39,-0.401 0.372,-0.402 0.356,-0.402C0.307,-0.402 0.272,-0.399 0.249,-0.393C0.227,-0.388 0.216,-0.378 0.216,-0.365C0.216,-0.351 0.226,-0.341 0.245,-0.335L0.385,-0.295C0.43,-0.283 0.463,-0.265 0.485,-0.242C0.507,-0.22 0.518,-0.19 0.518,-0.153C0.518,-0.045 0.43,0.01 0.253,0.01Z" style="fill:white;fill-rule:nonzero;"/>
        </g>
    </g>
</svg>
