<?xml version="1.0" encoding="UTF-8" standalone="no"?>
<!DOCTYPE svg PUBLIC "-//W3C//DTD SVG 1.1//EN" "http://www.w3.org/Graphics/SVG/1.1/DTD/svg11.dtd">
<svg width="100%" height="100%" viewBox="0 0 256 256" version="1.1" xmlns="http://www.w3.org/2000/svg" xmlns:xlink="http://www.w3.org/1999/xlink" xml:space="preserve" xmlns:serif="http://www.serif.com/" style="fill-rule:evenodd;clip-rule:evenodd;stroke-linejoin:round;stroke-miterlimit:2;">
    <path d="M256,23.04C256,10.324 245.676,0 232.96,0L23.04,0C10.324,0 -0,10.324 -0,23.04L-0,232.96C-0,245.676 10.324,256 23.04,256L232.96,256C245.676,256 256,245.676 256,232.96L256,23.04Z" style="fill:url(#_Linear1);"/>
    <g transform="matrix(1.17233,0,0,1.17233,-22.0584,-6.92832)">
        <path d="M141.256,36.002C132.48,34.531 123.52,34.531 114.744,36.002L107.655,58.757C103.811,60.145 100.12,61.922 96.639,64.062L74.428,55.417C67.807,61.362 62.221,68.367 57.899,76.145L71.269,95.875C69.958,99.745 69.046,103.739 68.548,107.795L47.942,119.77C48.46,128.653 50.454,137.388 53.841,145.617L77.602,147.465C79.811,150.903 82.365,154.107 85.226,157.025L81.74,180.602C89.009,185.735 97.081,189.622 105.626,192.105L121.887,174.68C125.952,175.097 130.048,175.097 134.113,174.68L150.374,192.105C158.919,189.622 166.991,185.735 174.26,180.602L170.774,157.025C173.635,154.107 176.189,150.903 178.398,147.465L202.159,145.617C205.546,137.388 207.54,128.653 208.058,119.77L187.452,107.795C186.954,103.739 186.042,99.745 184.731,95.875L198.101,76.145C193.779,68.367 188.193,61.362 181.572,55.417L159.361,64.062C155.88,61.922 152.189,60.145 148.345,58.757L141.256,36.002ZM128,88.204C142.841,88.204 154.89,100.253 154.89,115.094C154.89,129.935 142.841,141.984 128,141.984C113.159,141.984 101.11,129.935 101.11,115.094C101.11,100.253 113.159,88.204 128,88.204Z"/>
    </g>
    <defs>
        <linearGradient id="_Linear1" x1="0" y1="0" x2="1" y2="0" gradientUnits="userSpaceOnUse" gradientTransform="matrix(208.605,-225.961,225.961,208.605,23.1969,245.68)"><stop offset="0" style="stop-color:rgb(253,252,71);stop-opacity:1"/><stop offset="1" style="stop-color:rgb(36,254,65);stop-opacity:1"/></linearGradient>
    </defs>
</svg>
