<?xml version="1.0" encoding="UTF-8" standalone="no"?>
<!DOCTYPE svg PUBLIC "-//W3C//DTD SVG 1.1//EN" "http://www.w3.org/Graphics/SVG/1.1/DTD/svg11.dtd">
<svg width="100%" height="100%" viewBox="0 0 750 64" version="1.1" xmlns="http://www.w3.org/2000/svg" xmlns:xlink="http://www.w3.org/1999/xlink" xml:space="preserve" xmlns:serif="http://www.serif.com/" style="fill-rule:evenodd;clip-rule:evenodd;stroke-linejoin:round;stroke-miterlimit:2;">
    <rect id="Back" x="0" y="0" width="750" height="64" style="fill:white;"/>
    <g id="Icon" transform="matrix(0.125,0,0,0.125,0,0)">
        <rect id="Basic" x="0" y="0" width="512" height="512" style="fill:url(#_Linear1);"/>
        <g transform="matrix(0.978358,0,0,0.988688,2.92794,-3.99101)">
            <rect x="35.046" y="41.678" width="447.249" height="442.576" style="fill:url(#_Linear2);"/>
        </g>
        <g transform="matrix(34.3667,0,0,34.3667,-4284.05,-9082.62)">
            <g transform="matrix(12,0,0,12,127.928,275.983)">
                <path d="M0.443,-0.193C0.443,-0.131 0.424,-0.083 0.387,-0.05C0.35,-0.017 0.301,-0 0.242,-0L0.053,-0C0.05,-0 0.047,-0.001 0.045,-0.004C0.042,-0.006 0.041,-0.009 0.041,-0.012L0.041,-0.688C0.041,-0.691 0.042,-0.694 0.045,-0.697C0.047,-0.699 0.05,-0.7 0.053,-0.7L0.22,-0.7C0.287,-0.7 0.339,-0.684 0.377,-0.652C0.414,-0.62 0.433,-0.572 0.433,-0.509C0.433,-0.443 0.41,-0.395 0.365,-0.365C0.362,-0.363 0.362,-0.361 0.364,-0.359C0.417,-0.322 0.443,-0.266 0.443,-0.193ZM0.187,-0.579C0.184,-0.579 0.182,-0.577 0.182,-0.574L0.182,-0.417C0.182,-0.414 0.184,-0.412 0.187,-0.412L0.222,-0.412C0.245,-0.412 0.263,-0.419 0.276,-0.434C0.289,-0.448 0.295,-0.468 0.295,-0.494C0.295,-0.521 0.289,-0.542 0.276,-0.557C0.263,-0.572 0.245,-0.579 0.222,-0.579L0.187,-0.579ZM0.231,-0.122C0.253,-0.122 0.27,-0.13 0.283,-0.146C0.296,-0.162 0.302,-0.185 0.302,-0.214C0.302,-0.243 0.296,-0.267 0.283,-0.284C0.27,-0.301 0.253,-0.31 0.232,-0.31L0.187,-0.31C0.184,-0.31 0.182,-0.308 0.182,-0.305L0.182,-0.127C0.182,-0.124 0.184,-0.122 0.187,-0.122L0.231,-0.122Z" style="fill:white;fill-rule:nonzero;"/>
            </g>
            <g transform="matrix(12,0,0,12,133.46,275.983)">
                <path d="M0.132,-0.697C0.136,-0.699 0.14,-0.7 0.145,-0.7L0.181,-0.7C0.188,-0.7 0.191,-0.697 0.191,-0.69L0.191,-0.01C0.191,-0.003 0.188,-0 0.181,-0L0.148,-0C0.141,-0 0.138,-0.003 0.138,-0.01L0.138,-0.633C0.138,-0.634 0.138,-0.635 0.137,-0.636C0.136,-0.637 0.134,-0.637 0.133,-0.636L0.036,-0.597L0.032,-0.596C0.028,-0.596 0.025,-0.599 0.024,-0.604L0.019,-0.627L0.019,-0.629C0.019,-0.634 0.021,-0.638 0.025,-0.64L0.132,-0.697Z" style="fill:white;fill-rule:nonzero;"/>
            </g>
        </g>
    </g>
    <g transform="matrix(4.67711,0,0,4.67711,-462.664,-122.093)">
        <g transform="matrix(12,0,0,12,116.119,37.2782)">
            <path d="M0.48,-0.365C0.476,-0.363 0.476,-0.361 0.48,-0.359C0.544,-0.326 0.576,-0.272 0.576,-0.196C0.576,-0.131 0.554,-0.083 0.51,-0.05C0.466,-0.017 0.408,-0 0.337,-0L0.078,-0C0.075,-0 0.072,-0.001 0.07,-0.004C0.067,-0.006 0.066,-0.009 0.066,-0.012L0.066,-0.688C0.066,-0.691 0.067,-0.694 0.07,-0.697C0.072,-0.699 0.075,-0.7 0.078,-0.7L0.328,-0.7C0.487,-0.7 0.566,-0.636 0.566,-0.508C0.566,-0.441 0.537,-0.394 0.48,-0.365ZM0.212,-0.579C0.209,-0.579 0.207,-0.577 0.207,-0.574L0.207,-0.418C0.207,-0.415 0.209,-0.413 0.212,-0.413L0.328,-0.413C0.359,-0.413 0.384,-0.42 0.402,-0.435C0.419,-0.45 0.428,-0.47 0.428,-0.495C0.428,-0.521 0.419,-0.542 0.402,-0.557C0.384,-0.572 0.359,-0.579 0.328,-0.579L0.212,-0.579ZM0.337,-0.122C0.368,-0.122 0.392,-0.13 0.409,-0.146C0.426,-0.161 0.435,-0.183 0.435,-0.21C0.435,-0.237 0.426,-0.259 0.408,-0.275C0.391,-0.29 0.367,-0.298 0.336,-0.298L0.212,-0.298C0.209,-0.298 0.207,-0.296 0.207,-0.293L0.207,-0.127C0.207,-0.124 0.209,-0.122 0.212,-0.122L0.337,-0.122Z" style="fill-rule:nonzero;"/>
        </g>
        <g transform="matrix(12,0,0,12,123.427,37.2782)">
            <path d="M0.26,-0.522C0.303,-0.522 0.342,-0.515 0.376,-0.5C0.41,-0.485 0.437,-0.464 0.456,-0.438C0.474,-0.412 0.484,-0.383 0.484,-0.351L0.484,-0.012C0.484,-0.009 0.483,-0.006 0.481,-0.004C0.478,-0.001 0.475,-0 0.472,-0L0.355,-0C0.352,-0 0.349,-0.001 0.346,-0.004C0.344,-0.006 0.343,-0.009 0.343,-0.012L0.343,-0.045C0.343,-0.047 0.342,-0.048 0.341,-0.049C0.34,-0.05 0.338,-0.049 0.337,-0.047C0.308,-0.01 0.263,0.008 0.201,0.008C0.15,0.008 0.108,-0.005 0.076,-0.03C0.044,-0.055 0.028,-0.093 0.028,-0.142C0.028,-0.193 0.046,-0.233 0.082,-0.262C0.118,-0.29 0.169,-0.304 0.236,-0.304L0.338,-0.304C0.341,-0.304 0.343,-0.306 0.343,-0.309L0.343,-0.331C0.343,-0.353 0.336,-0.37 0.323,-0.383C0.309,-0.395 0.289,-0.401 0.263,-0.401C0.242,-0.401 0.225,-0.397 0.212,-0.39C0.198,-0.383 0.189,-0.372 0.185,-0.359C0.183,-0.352 0.179,-0.348 0.172,-0.349L0.051,-0.365C0.043,-0.366 0.039,-0.369 0.04,-0.374C0.043,-0.402 0.054,-0.427 0.074,-0.45C0.093,-0.473 0.119,-0.49 0.152,-0.503C0.184,-0.516 0.22,-0.522 0.26,-0.522ZM0.24,-0.097C0.269,-0.097 0.293,-0.105 0.313,-0.12C0.333,-0.135 0.343,-0.155 0.343,-0.179L0.343,-0.215C0.343,-0.218 0.341,-0.22 0.338,-0.22L0.266,-0.22C0.236,-0.22 0.213,-0.214 0.196,-0.203C0.179,-0.192 0.17,-0.176 0.17,-0.155C0.17,-0.137 0.176,-0.123 0.189,-0.113C0.202,-0.102 0.219,-0.097 0.24,-0.097Z" style="fill-rule:nonzero;"/>
        </g>
        <g transform="matrix(12,0,0,12,129.811,37.2782)">
            <path d="M0.247,0.007C0.202,0.007 0.163,0.001 0.13,-0.012C0.097,-0.025 0.071,-0.042 0.053,-0.065C0.035,-0.088 0.026,-0.113 0.026,-0.142L0.026,-0.152C0.026,-0.155 0.027,-0.158 0.029,-0.161C0.032,-0.163 0.035,-0.164 0.038,-0.164L0.149,-0.164C0.152,-0.164 0.155,-0.163 0.158,-0.161C0.16,-0.158 0.161,-0.155 0.161,-0.152L0.161,-0.151C0.161,-0.136 0.169,-0.124 0.185,-0.114C0.201,-0.103 0.221,-0.098 0.246,-0.098C0.269,-0.098 0.287,-0.102 0.301,-0.111C0.315,-0.12 0.322,-0.131 0.322,-0.145C0.322,-0.157 0.316,-0.166 0.304,-0.172C0.292,-0.178 0.272,-0.184 0.245,-0.191C0.214,-0.199 0.189,-0.207 0.171,-0.214C0.128,-0.229 0.094,-0.247 0.069,-0.268C0.044,-0.289 0.031,-0.32 0.031,-0.36C0.031,-0.409 0.05,-0.449 0.089,-0.477C0.128,-0.506 0.178,-0.521 0.241,-0.521C0.284,-0.521 0.321,-0.514 0.354,-0.5C0.386,-0.487 0.411,-0.468 0.429,-0.443C0.446,-0.418 0.455,-0.39 0.455,-0.359C0.455,-0.356 0.454,-0.353 0.452,-0.35C0.449,-0.348 0.446,-0.347 0.443,-0.347L0.335,-0.347C0.332,-0.347 0.329,-0.348 0.327,-0.35C0.324,-0.353 0.323,-0.356 0.323,-0.359C0.323,-0.374 0.316,-0.386 0.301,-0.396C0.286,-0.406 0.267,-0.411 0.242,-0.411C0.219,-0.411 0.201,-0.407 0.187,-0.399C0.173,-0.391 0.166,-0.38 0.166,-0.366C0.166,-0.353 0.173,-0.343 0.187,-0.336C0.2,-0.329 0.223,-0.322 0.254,-0.315C0.273,-0.311 0.292,-0.306 0.31,-0.3C0.357,-0.286 0.395,-0.268 0.422,-0.246C0.449,-0.224 0.463,-0.192 0.463,-0.15C0.463,-0.101 0.444,-0.062 0.405,-0.035C0.366,-0.007 0.313,0.007 0.247,0.007Z" style="fill-rule:nonzero;"/>
        </g>
        <g transform="matrix(12,0,0,12,135.739,37.2782)">
            <path d="M0.132,-0.572C0.109,-0.572 0.091,-0.58 0.076,-0.595C0.061,-0.61 0.054,-0.628 0.054,-0.651C0.054,-0.674 0.061,-0.693 0.076,-0.708C0.091,-0.723 0.109,-0.73 0.132,-0.73C0.155,-0.73 0.174,-0.723 0.189,-0.708C0.204,-0.693 0.211,-0.674 0.211,-0.651C0.211,-0.628 0.203,-0.61 0.189,-0.595C0.173,-0.58 0.155,-0.572 0.132,-0.572ZM0.06,-0.503C0.06,-0.506 0.061,-0.509 0.064,-0.511C0.066,-0.514 0.069,-0.515 0.072,-0.515L0.189,-0.515C0.192,-0.515 0.195,-0.514 0.198,-0.511C0.2,-0.509 0.201,-0.506 0.201,-0.503L0.201,-0.012C0.201,-0.009 0.2,-0.006 0.198,-0.004C0.195,-0.001 0.192,-0 0.189,-0L0.072,-0C0.069,-0 0.066,-0.001 0.064,-0.004C0.061,-0.006 0.06,-0.009 0.06,-0.012L0.06,-0.503Z" style="fill-rule:nonzero;"/>
        </g>
        <g transform="matrix(12,0,0,12,138.871,37.2782)">
            <path d="M0.273,0.008C0.22,0.008 0.173,-0.005 0.135,-0.032C0.096,-0.059 0.068,-0.095 0.051,-0.142C0.04,-0.175 0.034,-0.215 0.034,-0.26C0.034,-0.305 0.04,-0.343 0.051,-0.376C0.067,-0.421 0.095,-0.457 0.135,-0.483C0.174,-0.509 0.22,-0.522 0.273,-0.522C0.326,-0.522 0.373,-0.509 0.413,-0.482C0.454,-0.455 0.481,-0.422 0.494,-0.381C0.499,-0.365 0.502,-0.353 0.502,-0.345L0.502,-0.343C0.502,-0.337 0.499,-0.333 0.492,-0.332L0.377,-0.315L0.375,-0.315C0.369,-0.315 0.365,-0.318 0.363,-0.325L0.36,-0.341C0.355,-0.358 0.345,-0.373 0.329,-0.384C0.313,-0.395 0.294,-0.401 0.272,-0.401C0.251,-0.401 0.233,-0.396 0.218,-0.385C0.203,-0.374 0.193,-0.36 0.187,-0.341C0.18,-0.321 0.176,-0.294 0.176,-0.259C0.176,-0.224 0.179,-0.197 0.186,-0.177C0.192,-0.157 0.203,-0.141 0.218,-0.13C0.233,-0.119 0.251,-0.113 0.272,-0.113C0.293,-0.113 0.312,-0.118 0.327,-0.13C0.342,-0.141 0.353,-0.156 0.359,-0.175C0.36,-0.176 0.36,-0.178 0.36,-0.181C0.361,-0.182 0.361,-0.183 0.361,-0.184C0.362,-0.192 0.366,-0.195 0.375,-0.194L0.49,-0.176C0.497,-0.175 0.5,-0.171 0.5,-0.165C0.5,-0.16 0.498,-0.15 0.494,-0.135C0.48,-0.09 0.453,-0.055 0.412,-0.03C0.372,-0.005 0.326,0.008 0.273,0.008Z" style="fill-rule:nonzero;"/>
        </g>
        <g transform="matrix(12,0,0,12,147.583,37.2782)">
            <path d="M0.146,-0.697C0.15,-0.699 0.154,-0.7 0.159,-0.7L0.238,-0.7C0.245,-0.7 0.248,-0.697 0.248,-0.69L0.248,-0.01C0.248,-0.003 0.245,-0 0.238,-0L0.162,-0C0.155,-0 0.152,-0.003 0.152,-0.01L0.152,-0.597C0.152,-0.598 0.152,-0.599 0.151,-0.6C0.15,-0.601 0.148,-0.601 0.147,-0.6L0.042,-0.564C0.041,-0.563 0.039,-0.563 0.037,-0.563C0.033,-0.563 0.031,-0.566 0.03,-0.571L0.026,-0.628C0.026,-0.635 0.028,-0.639 0.032,-0.64L0.146,-0.697Z" style="fill-rule:nonzero;"/>
        </g>
    </g>
    <g id="Basic1" serif:id="Basic" transform="matrix(0.484412,0,0,0.723243,380.471,8.85622)">
        <rect x="-229.223" y="26.188" width="967.158" height="11.624" style="fill:url(#_Linear3);"/>
    </g>
    <defs>
        <linearGradient id="_Linear1" x1="0" y1="0" x2="1" y2="0" gradientUnits="userSpaceOnUse" gradientTransform="matrix(512,-512,512,512,0,512)"><stop offset="0" style="stop-color:rgb(0,219,222);stop-opacity:1"/><stop offset="1" style="stop-color:rgb(252,0,255);stop-opacity:1"/></linearGradient>
        <linearGradient id="_Linear2" x1="0" y1="0" x2="1" y2="0" gradientUnits="userSpaceOnUse" gradientTransform="matrix(2.73861e-14,-442.576,447.249,2.71e-14,258.67,484.254)"><stop offset="0" style="stop-color:black;stop-opacity:0.7"/><stop offset="0.5" style="stop-color:black;stop-opacity:0.53"/><stop offset="1" style="stop-color:black;stop-opacity:0"/></linearGradient>
        <linearGradient id="_Linear3" x1="0" y1="0" x2="1" y2="0" gradientUnits="userSpaceOnUse" gradientTransform="matrix(967.158,7.10543e-15,-1.43553e-14,478.713,-229.223,32)"><stop offset="0" style="stop-color:rgb(0,219,222);stop-opacity:1"/><stop offset="1" style="stop-color:rgb(252,0,255);stop-opacity:1"/></linearGradient>
    </defs>
</svg>
