<?xml version="1.0" encoding="UTF-8" standalone="no"?>
<!DOCTYPE svg PUBLIC "-//W3C//DTD SVG 1.1//EN" "http://www.w3.org/Graphics/SVG/1.1/DTD/svg11.dtd">
<svg width="100%" height="100%" viewBox="0 0 1000 570" version="1.1" xmlns="http://www.w3.org/2000/svg" xmlns:xlink="http://www.w3.org/1999/xlink" xml:space="preserve" xmlns:serif="http://www.serif.com/" style="fill-rule:evenodd;clip-rule:evenodd;stroke-linecap:round;stroke-linejoin:round;">
    <g transform="matrix(1.17188,0,0,1.11328,200,0)">
        <rect x="0" y="0" width="512" height="512" style="fill:rgb(41,46,53);"/>
    </g>
    <g transform="matrix(1.6831,0,0,4.89043,5.63717,-435.536)">
        <path d="M462.936,92.83C462.936,91.701 460.274,90.785 456.995,90.785L130.437,90.785C127.158,90.785 124.495,91.701 124.495,92.83L124.495,201.554C124.495,202.682 127.158,203.598 130.437,203.598L456.995,203.598C460.274,203.598 462.936,202.682 462.936,201.554L462.936,92.83Z" style="fill:rgb(0,182,186);fill-opacity:0.14;"/>
    </g>
    <g transform="matrix(1.60089,0,0,1.60089,651.505,-112.562)">
        <g transform="matrix(12.4931,0,0,12.4931,22.5697,96.4205)">
            <path d="M0.047,-0L0.244,-0L0.244,-0.216L0.354,-0.216C0.52,-0.216 0.631,-0.314 0.631,-0.47C0.631,-0.625 0.522,-0.727 0.361,-0.727L0.047,-0.727L0.047,-0ZM0.244,-0.369L0.244,-0.57L0.314,-0.57C0.383,-0.57 0.425,-0.533 0.425,-0.47C0.425,-0.408 0.383,-0.369 0.314,-0.369L0.244,-0.369Z" style="fill:rgb(33,250,255);fill-rule:nonzero;"/>
        </g>
        <g transform="matrix(12.4931,0,0,12.4931,30.7683,96.4205)">
            <path d="M0.047,-0L0.244,-0L0.244,-0.24L0.312,-0.24L0.44,-0L0.655,-0L0.507,-0.271C0.585,-0.309 0.631,-0.379 0.631,-0.48C0.631,-0.635 0.522,-0.727 0.361,-0.727L0.047,-0.727L0.047,-0ZM0.244,-0.393L0.244,-0.57L0.314,-0.57C0.383,-0.57 0.425,-0.543 0.425,-0.48C0.425,-0.418 0.383,-0.393 0.314,-0.393L0.244,-0.393Z" style="fill:rgb(33,250,255);fill-rule:nonzero;"/>
        </g>
        <g transform="matrix(12.4931,0,0,12.4931,39.1089,96.4205)">
            <path d="M0.751,-0.364C0.751,-0.607 0.595,-0.737 0.398,-0.737C0.199,-0.737 0.044,-0.607 0.044,-0.364C0.044,-0.122 0.199,0.01 0.398,0.01C0.595,0.01 0.751,-0.121 0.751,-0.364ZM0.548,-0.364C0.548,-0.233 0.496,-0.162 0.398,-0.162C0.3,-0.162 0.247,-0.233 0.247,-0.364C0.247,-0.494 0.3,-0.565 0.398,-0.565C0.496,-0.565 0.548,-0.494 0.548,-0.364Z" style="fill:rgb(33,250,255);fill-rule:nonzero;"/>
        </g>
        <g transform="matrix(12.4931,0,0,12.4931,49.0465,96.4205)">
            <path d="M0.347,-0.727L0.347,-0.229C0.346,-0.173 0.322,-0.143 0.278,-0.143C0.235,-0.143 0.211,-0.172 0.209,-0.227L0.011,-0.227C0.011,-0.06 0.126,0.01 0.266,0.01C0.427,0.01 0.54,-0.087 0.541,-0.229L0.541,-0.727L0.347,-0.727Z" style="fill:rgb(33,250,255);fill-rule:nonzero;"/>
        </g>
        <g transform="matrix(12.4931,0,0,12.4931,56.3933,96.4205)">
            <path d="M0.047,-0L0.57,-0L0.57,-0.159L0.244,-0.159L0.244,-0.284L0.544,-0.284L0.544,-0.443L0.244,-0.443L0.244,-0.568L0.571,-0.568L0.571,-0.727L0.047,-0.727L0.047,-0Z" style="fill:rgb(33,250,255);fill-rule:nonzero;"/>
        </g>
        <g transform="matrix(12.4931,0,0,12.4931,64.166,96.4205)">
            <path d="M0.027,-0.568L0.246,-0.568L0.246,-0L0.44,-0L0.44,-0.568L0.659,-0.568L0.659,-0.727L0.027,-0.727L0.027,-0.568Z" style="fill:rgb(33,250,255);fill-rule:nonzero;"/>
        </g>
        <g transform="matrix(12.4931,0,0,12.4931,19.8014,108.914)">
            <path d="M0.315,-0C0.537,-0 0.665,-0.137 0.665,-0.365C0.665,-0.591 0.537,-0.727 0.323,-0.727L0.08,-0.727L0.08,-0L0.315,-0ZM0.19,-0.096L0.19,-0.631L0.316,-0.631C0.475,-0.631 0.557,-0.536 0.557,-0.365C0.557,-0.192 0.475,-0.096 0.309,-0.096L0.19,-0.096Z" style="fill:rgb(33,250,255);fill-rule:nonzero;"/>
        </g>
        <g transform="matrix(12.4931,0,0,12.4931,28.8163,108.914)">
            <path d="M0.363,-0.727L0.363,-0.212C0.362,-0.128 0.323,-0.083 0.254,-0.083C0.189,-0.083 0.145,-0.121 0.144,-0.182L0.035,-0.182C0.035,-0.059 0.127,0.01 0.251,0.01C0.384,0.01 0.472,-0.072 0.472,-0.212L0.472,-0.727L0.363,-0.727Z" style="fill:rgb(33,250,255);fill-rule:nonzero;"/>
        </g>
        <g transform="matrix(12.4931,0,0,12.4931,35.7105,108.914)">
            <path d="M0.141,-0L0.208,-0.192L0.492,-0.192L0.559,-0L0.675,-0L0.413,-0.727L0.287,-0.727L0.025,-0L0.141,-0ZM0.24,-0.285L0.347,-0.595L0.353,-0.595L0.46,-0.285L0.24,-0.285Z" style="fill:rgb(33,250,255);fill-rule:nonzero;"/>
        </g>
        <g transform="matrix(12.4931,0,0,12.4931,44.4548,108.914)">
            <path d="M0.667,-0.727L0.558,-0.727L0.558,-0.193L0.551,-0.193L0.181,-0.727L0.08,-0.727L0.08,-0L0.19,-0L0.19,-0.533L0.196,-0.533L0.566,-0L0.667,-0L0.667,-0.727Z" style="fill:rgb(33,250,255);fill-rule:nonzero;"/>
        </g>
        <g transform="matrix(12.4931,0,0,12.4931,53.7847,108.914)">
            <path d="M0.572,-0.498L0.685,-0.498C0.66,-0.639 0.539,-0.737 0.382,-0.737C0.194,-0.737 0.056,-0.596 0.056,-0.363C0.056,-0.133 0.19,0.01 0.387,0.01C0.564,0.01 0.69,-0.106 0.69,-0.289L0.69,-0.372L0.404,-0.372L0.404,-0.282L0.583,-0.282C0.581,-0.164 0.504,-0.09 0.387,-0.09C0.259,-0.09 0.165,-0.187 0.165,-0.364C0.165,-0.54 0.26,-0.637 0.383,-0.637C0.479,-0.637 0.545,-0.584 0.572,-0.498Z" style="fill:rgb(33,250,255);fill-rule:nonzero;"/>
        </g>
        <g transform="matrix(12.4931,0,0,12.4931,63.1412,108.914)">
            <path d="M0.712,-0.364C0.712,-0.596 0.572,-0.737 0.384,-0.737C0.195,-0.737 0.056,-0.596 0.056,-0.364C0.056,-0.131 0.195,0.01 0.384,0.01C0.572,0.01 0.712,-0.131 0.712,-0.364ZM0.603,-0.364C0.603,-0.186 0.509,-0.09 0.384,-0.09C0.259,-0.09 0.165,-0.186 0.165,-0.364C0.165,-0.541 0.259,-0.637 0.384,-0.637C0.509,-0.637 0.603,-0.541 0.603,-0.364Z" style="fill:rgb(33,250,255);fill-rule:nonzero;"/>
        </g>
    </g>
    <g transform="matrix(1.43344,0,0,3.95191,103.839,-255.418)">
        <path d="M462.936,93.315C462.936,91.919 459.81,90.785 455.96,90.785L131.472,90.785C127.621,90.785 124.495,91.919 124.495,93.315L124.495,201.068C124.495,202.465 127.621,203.598 131.472,203.598L455.96,203.598C459.81,203.598 462.936,202.465 462.936,201.068L462.936,93.315Z" style="fill:rgb(255,192,0);fill-opacity:0.14;"/>
    </g>
    <g transform="matrix(1.22873,0,0,1.96327,184.465,57.3834)">
        <path d="M462.936,95.878C462.936,93.067 459.289,90.785 454.798,90.785L132.634,90.785C128.142,90.785 124.495,93.067 124.495,95.878L124.495,198.505C124.495,201.316 128.142,203.598 132.634,203.598L454.798,203.598C459.289,203.598 462.936,201.316 462.936,198.505L462.936,95.878Z" style="fill:rgb(255,0,0);fill-opacity:0.14;"/>
    </g>
    <g transform="matrix(1.60089,0,0,1.60089,502.244,106.588)">
        <g transform="matrix(12.4931,0,0,12.4931,94.2562,96.4205)">
            <path d="M0.047,-0.727L0.047,-0L0.24,-0L0.24,-0.423L0.246,-0.423L0.408,-0.006L0.524,-0.006L0.686,-0.42L0.692,-0.42L0.692,-0L0.885,-0L0.885,-0.727L0.639,-0.727L0.47,-0.315L0.462,-0.315L0.293,-0.727L0.047,-0.727Z" style="fill:rgb(255,93,33);fill-rule:nonzero;"/>
        </g>
        <g transform="matrix(12.4931,0,0,12.4931,105.897,96.4205)">
            <path d="M0.751,-0.364C0.751,-0.607 0.595,-0.737 0.398,-0.737C0.199,-0.737 0.044,-0.607 0.044,-0.364C0.044,-0.122 0.199,0.01 0.398,0.01C0.595,0.01 0.751,-0.121 0.751,-0.364ZM0.548,-0.364C0.548,-0.233 0.496,-0.162 0.398,-0.162C0.3,-0.162 0.247,-0.233 0.247,-0.364C0.247,-0.494 0.3,-0.565 0.398,-0.565C0.496,-0.565 0.548,-0.494 0.548,-0.364Z" style="fill:rgb(255,93,33);fill-rule:nonzero;"/>
        </g>
        <g transform="matrix(12.4931,0,0,12.4931,115.835,96.4205)">
            <path d="M0.327,-0C0.548,-0 0.689,-0.136 0.689,-0.364C0.689,-0.591 0.548,-0.727 0.324,-0.727L0.047,-0.727L0.047,-0L0.327,-0ZM0.244,-0.168L0.244,-0.56L0.314,-0.56C0.428,-0.56 0.49,-0.516 0.49,-0.364C0.49,-0.212 0.428,-0.168 0.32,-0.168L0.244,-0.168Z" style="fill:rgb(255,93,33);fill-rule:nonzero;"/>
        </g>
        <g transform="matrix(12.4931,0,0,12.4931,124.992,96.4205)">
            <path d="M0.477,-0.727L0.477,-0.278C0.477,-0.211 0.429,-0.162 0.361,-0.162C0.293,-0.162 0.244,-0.211 0.244,-0.278L0.244,-0.727L0.047,-0.727L0.047,-0.261C0.047,-0.095 0.173,0.009 0.361,0.009C0.548,0.009 0.675,-0.095 0.675,-0.261L0.675,-0.727L0.477,-0.727Z" style="fill:rgb(255,93,33);fill-rule:nonzero;"/>
        </g>
        <g transform="matrix(12.4931,0,0,12.4931,134.007,96.4205)">
            <path d="M0.047,-0L0.538,-0L0.538,-0.159L0.244,-0.159L0.244,-0.727L0.047,-0.727L0.047,-0Z" style="fill:rgb(255,93,33);fill-rule:nonzero;"/>
        </g>
        <g transform="matrix(12.4931,0,0,12.4931,141.141,96.4205)">
            <path d="M0.047,-0L0.57,-0L0.57,-0.159L0.244,-0.159L0.244,-0.284L0.544,-0.284L0.544,-0.443L0.244,-0.443L0.244,-0.568L0.571,-0.568L0.571,-0.727L0.047,-0.727L0.047,-0Z" style="fill:rgb(255,93,33);fill-rule:nonzero;"/>
        </g>
        <g transform="matrix(12.4931,0,0,12.4931,76.9939,108.914)">
            <path d="M0.152,-0.727L0.064,-0.727L0.064,-0.468L0.152,-0.468L0.152,-0.727ZM0.335,-0.727L0.246,-0.727L0.246,-0.468L0.335,-0.468L0.335,-0.727Z" style="fill:rgb(255,93,33);fill-rule:nonzero;"/>
        </g>
        <g transform="matrix(12.4931,0,0,12.4931,81.9894,108.914)">
            <path d="M0.477,-0.536L0.582,-0.536C0.579,-0.653 0.476,-0.737 0.328,-0.737C0.183,-0.737 0.071,-0.654 0.071,-0.528C0.071,-0.427 0.143,-0.368 0.26,-0.336L0.346,-0.313C0.424,-0.292 0.484,-0.267 0.484,-0.202C0.484,-0.131 0.416,-0.084 0.322,-0.084C0.238,-0.084 0.168,-0.122 0.161,-0.201L0.051,-0.201C0.058,-0.069 0.16,0.012 0.323,0.012C0.494,0.012 0.592,-0.078 0.592,-0.201C0.592,-0.332 0.475,-0.383 0.383,-0.406L0.312,-0.424C0.255,-0.439 0.18,-0.465 0.18,-0.535C0.18,-0.597 0.237,-0.642 0.326,-0.642C0.409,-0.642 0.469,-0.603 0.477,-0.536Z" style="fill:rgb(255,93,33);fill-rule:nonzero;"/>
        </g>
        <g transform="matrix(12.4931,0,0,12.4931,90.0282,108.914)">
            <path d="M0.08,-0L0.54,-0L0.54,-0.094L0.19,-0.094L0.19,-0.317L0.512,-0.317L0.512,-0.411L0.19,-0.411L0.19,-0.633L0.536,-0.633L0.536,-0.727L0.08,-0.727L0.08,-0Z" style="fill:rgb(255,93,33);fill-rule:nonzero;"/>
        </g>
        <g transform="matrix(12.4931,0,0,12.4931,97.5613,108.914)">
            <path d="M0.044,-0.633L0.271,-0.633L0.271,-0L0.38,-0L0.38,-0.633L0.607,-0.633L0.607,-0.727L0.044,-0.727L0.044,-0.633Z" style="fill:rgb(255,93,33);fill-rule:nonzero;"/>
        </g>
        <g transform="matrix(12.4931,0,0,12.4931,105.693,108.914)">
            <path d="M0.044,-0.633L0.271,-0.633L0.271,-0L0.38,-0L0.38,-0.633L0.607,-0.633L0.607,-0.727L0.044,-0.727L0.044,-0.633Z" style="fill:rgb(255,93,33);fill-rule:nonzero;"/>
        </g>
        <g transform="matrix(12.4931,0,0,12.4931,113.825,108.914)">
            <rect x="0.08" y="-0.727" width="0.11" height="0.727" style="fill:rgb(255,93,33);fill-rule:nonzero;"/>
        </g>
        <g transform="matrix(12.4931,0,0,12.4931,117.193,108.914)">
            <path d="M0.667,-0.727L0.558,-0.727L0.558,-0.193L0.551,-0.193L0.181,-0.727L0.08,-0.727L0.08,-0L0.19,-0L0.19,-0.533L0.196,-0.533L0.566,-0L0.667,-0L0.667,-0.727Z" style="fill:rgb(255,93,33);fill-rule:nonzero;"/>
        </g>
        <g transform="matrix(12.4931,0,0,12.4931,126.523,108.914)">
            <path d="M0.572,-0.498L0.685,-0.498C0.66,-0.639 0.539,-0.737 0.382,-0.737C0.194,-0.737 0.056,-0.596 0.056,-0.363C0.056,-0.133 0.19,0.01 0.387,0.01C0.564,0.01 0.69,-0.106 0.69,-0.289L0.69,-0.372L0.404,-0.372L0.404,-0.282L0.583,-0.282C0.581,-0.164 0.504,-0.09 0.387,-0.09C0.259,-0.09 0.165,-0.187 0.165,-0.364C0.165,-0.54 0.26,-0.637 0.383,-0.637C0.479,-0.637 0.545,-0.584 0.572,-0.498Z" style="fill:rgb(255,93,33);fill-rule:nonzero;"/>
        </g>
        <g transform="matrix(12.4931,0,0,12.4931,135.879,108.914)">
            <path d="M0.477,-0.536L0.582,-0.536C0.579,-0.653 0.476,-0.737 0.328,-0.737C0.183,-0.737 0.071,-0.654 0.071,-0.528C0.071,-0.427 0.143,-0.368 0.26,-0.336L0.346,-0.313C0.424,-0.292 0.484,-0.267 0.484,-0.202C0.484,-0.131 0.416,-0.084 0.322,-0.084C0.238,-0.084 0.168,-0.122 0.161,-0.201L0.051,-0.201C0.058,-0.069 0.16,0.012 0.323,0.012C0.494,0.012 0.592,-0.078 0.592,-0.201C0.592,-0.332 0.475,-0.383 0.383,-0.406L0.312,-0.424C0.255,-0.439 0.18,-0.465 0.18,-0.535C0.18,-0.597 0.237,-0.642 0.326,-0.642C0.409,-0.642 0.469,-0.603 0.477,-0.536Z" style="fill:rgb(255,93,33);fill-rule:nonzero;"/>
        </g>
        <g transform="matrix(12.4931,0,0,12.4931,143.918,108.914)">
            <path d="M0.152,-0.727L0.064,-0.727L0.064,-0.468L0.152,-0.468L0.152,-0.727ZM0.335,-0.727L0.246,-0.727L0.246,-0.468L0.335,-0.468L0.335,-0.727Z" style="fill:rgb(255,93,33);fill-rule:nonzero;"/>
        </g>
    </g>
    <g transform="matrix(1.87951,0,0,1.87951,226.813,16.4443)">
        <path d="M5,19C3.903,19 3,18.097 3,17L3,7C3,5.903 3.903,5 5,5L9,5L11,7L15,7C16.097,7 17,7.903 17,9L17,10M5,19L19,19C20.097,19 21,18.097 21,17L21,12C21,10.903 20.097,10 19,10L9,10C7.903,10 7,10.903 7,12L7,17C7,18.097 6.097,19 5,19Z" style="fill:none;fill-rule:nonzero;stroke:white;stroke-width:2px;"/>
    </g>
    <g transform="matrix(1.87951,0,0,1.87951,290.369,105.68)">
        <path d="M5,19C3.903,19 3,18.097 3,17L3,7C3,5.903 3.903,5 5,5L9,5L11,7L15,7C16.097,7 17,7.903 17,9L17,10M5,19L19,19C20.097,19 21,18.097 21,17L21,12C21,10.903 20.097,10 19,10L9,10C7.903,10 7,10.903 7,12L7,17C7,18.097 6.097,19 5,19Z" style="fill:none;fill-rule:nonzero;stroke:white;stroke-width:2px;"/>
    </g>
    <g transform="matrix(1.87951,0,0,1.87951,351.389,235.428)">
        <path d="M5,19C3.903,19 3,18.097 3,17L3,7C3,5.903 3.903,5 5,5L9,5L11,7L15,7C16.097,7 17,7.903 17,9L17,10M5,19L19,19C20.097,19 21,18.097 21,17L21,12C21,10.903 20.097,10 19,10L9,10C7.903,10 7,10.903 7,12L7,17C7,18.097 6.097,19 5,19Z" style="fill:none;fill-rule:nonzero;stroke:white;stroke-width:2px;"/>
    </g>
    <g transform="matrix(1.87951,0,0,1.87951,351.389,456.428)">
        <path d="M5,19C3.903,19 3,18.097 3,17L3,7C3,5.903 3.903,5 5,5L9,5L11,7L15,7C16.097,7 17,7.903 17,9L17,10M5,19L19,19C20.097,19 21,18.097 21,17L21,12C21,10.903 20.097,10 19,10L9,10C7.903,10 7,10.903 7,12L7,17C7,18.097 6.097,19 5,19Z" style="fill:none;fill-rule:nonzero;stroke:white;stroke-width:2px;"/>
    </g>
    <g transform="matrix(1.87951,0,0,1.87951,351.389,500.657)">
        <path d="M5,19C3.903,19 3,18.097 3,17L3,7C3,5.903 3.903,5 5,5L9,5L11,7L15,7C16.097,7 17,7.903 17,9L17,10M5,19L19,19C20.097,19 21,18.097 21,17L21,12C21,10.903 20.097,10 19,10L9,10C7.903,10 7,10.903 7,12L7,17C7,18.097 6.097,19 5,19Z" style="fill:none;fill-rule:nonzero;stroke:white;stroke-width:2px;"/>
    </g>
    <g transform="matrix(1.24962,0,0,1.24962,292.929,63.4978)">
        <path d="M12,16L20,16M12,21.333L20,21.333M22.667,28L9.333,28C7.87,28 6.667,26.796 6.667,25.333L6.667,6.667C6.667,5.204 7.87,4 9.333,4L16.781,4C17.135,4 17.474,4.141 17.724,4.391L24.943,11.609C25.193,11.859 25.333,12.199 25.333,12.552L25.333,25.333C25.333,26.796 24.13,28 22.667,28Z" style="fill:none;fill-rule:nonzero;stroke:white;stroke-width:2.67px;"/>
    </g>
    <g transform="matrix(1.24962,0,0,1.24962,353.95,152.534)">
        <path d="M12,16L20,16M12,21.333L20,21.333M22.667,28L9.333,28C7.87,28 6.667,26.796 6.667,25.333L6.667,6.667C6.667,5.204 7.87,4 9.333,4L16.781,4C17.135,4 17.474,4.141 17.724,4.391L24.943,11.609C25.193,11.859 25.333,12.199 25.333,12.552L25.333,25.333C25.333,26.796 24.13,28 22.667,28Z" style="fill:none;fill-rule:nonzero;stroke:white;stroke-width:2.67px;"/>
    </g>
    <g transform="matrix(1.24962,0,0,1.24962,417.503,284.048)">
        <path d="M12,16L20,16M12,21.333L20,21.333M22.667,28L9.333,28C7.87,28 6.667,26.796 6.667,25.333L6.667,6.667C6.667,5.204 7.87,4 9.333,4L16.781,4C17.135,4 17.474,4.141 17.724,4.391L24.943,11.609C25.193,11.859 25.333,12.199 25.333,12.552L25.333,25.333C25.333,26.796 24.13,28 22.667,28Z" style="fill:none;fill-rule:nonzero;stroke:white;stroke-width:2.67px;"/>
    </g>
    <g transform="matrix(1.24962,0,0,1.24962,417.503,328.513)">
        <path d="M12,16L20,16M12,21.333L20,21.333M22.667,28L9.333,28C7.87,28 6.667,26.796 6.667,25.333L6.667,6.667C6.667,5.204 7.87,4 9.333,4L16.781,4C17.135,4 17.474,4.141 17.724,4.391L24.943,11.609C25.193,11.859 25.333,12.199 25.333,12.552L25.333,25.333C25.333,26.796 24.13,28 22.667,28Z" style="fill:none;fill-rule:nonzero;stroke:white;stroke-width:2.67px;"/>
    </g>
    <g transform="matrix(1.24962,0,0,1.24962,417.503,371.319)">
        <path d="M12,16L20,16M12,21.333L20,21.333M22.667,28L9.333,28C7.87,28 6.667,26.796 6.667,25.333L6.667,6.667C6.667,5.204 7.87,4 9.333,4L16.781,4C17.135,4 17.474,4.141 17.724,4.391L24.943,11.609C25.193,11.859 25.333,12.199 25.333,12.552L25.333,25.333C25.333,26.796 24.13,28 22.667,28Z" style="fill:none;fill-rule:nonzero;stroke:white;stroke-width:2.67px;"/>
    </g>
    <g transform="matrix(1.24962,0,0,1.24962,417.503,414.124)">
        <path d="M12,16L20,16M12,21.333L20,21.333M22.667,28L9.333,28C7.87,28 6.667,26.796 6.667,25.333L6.667,6.667C6.667,5.204 7.87,4 9.333,4L16.781,4C17.135,4 17.474,4.141 17.724,4.391L24.943,11.609C25.193,11.859 25.333,12.199 25.333,12.552L25.333,25.333C25.333,26.796 24.13,28 22.667,28Z" style="fill:none;fill-rule:nonzero;stroke:white;stroke-width:2.67px;"/>
    </g>
    <g transform="matrix(1.24962,0,0,1.24962,353.95,194.388)">
        <path d="M12,16L20,16M12,21.333L20,21.333M22.667,28L9.333,28C7.87,28 6.667,26.796 6.667,25.333L6.667,6.667C6.667,5.204 7.87,4 9.333,4L16.781,4C17.135,4 17.474,4.141 17.724,4.391L24.943,11.609C25.193,11.859 25.333,12.199 25.333,12.552L25.333,25.333C25.333,26.796 24.13,28 22.667,28Z" style="fill:none;fill-rule:nonzero;stroke:white;stroke-width:2.67px;"/>
    </g>
    <g transform="matrix(1.60089,0,0,1.60089,515.339,-26.1391)">
        <g transform="matrix(12.4931,0,0,12.4931,62.5266,96.4205)">
            <path d="M0.236,-0L0.278,-0.139L0.518,-0.139L0.56,-0L0.773,-0L0.533,-0.727L0.263,-0.727L0.023,-0L0.236,-0ZM0.322,-0.287L0.395,-0.527L0.401,-0.527L0.473,-0.287L0.322,-0.287Z" style="fill:rgb(255,200,33);fill-rule:nonzero;"/>
        </g>
        <g transform="matrix(12.4931,0,0,12.4931,72.4643,96.4205)">
            <path d="M0.047,-0L0.244,-0L0.244,-0.216L0.354,-0.216C0.52,-0.216 0.631,-0.314 0.631,-0.47C0.631,-0.625 0.522,-0.727 0.361,-0.727L0.047,-0.727L0.047,-0ZM0.244,-0.369L0.244,-0.57L0.314,-0.57C0.383,-0.57 0.425,-0.533 0.425,-0.47C0.425,-0.408 0.383,-0.369 0.314,-0.369L0.244,-0.369Z" style="fill:rgb(255,200,33);fill-rule:nonzero;"/>
        </g>
        <g transform="matrix(12.4931,0,0,12.4931,80.6629,96.4205)">
            <path d="M0.047,-0L0.244,-0L0.244,-0.216L0.354,-0.216C0.52,-0.216 0.631,-0.314 0.631,-0.47C0.631,-0.625 0.522,-0.727 0.361,-0.727L0.047,-0.727L0.047,-0ZM0.244,-0.369L0.244,-0.57L0.314,-0.57C0.383,-0.57 0.425,-0.533 0.425,-0.47C0.425,-0.408 0.383,-0.369 0.314,-0.369L0.244,-0.369Z" style="fill:rgb(255,200,33);fill-rule:nonzero;"/>
        </g>
        <g transform="matrix(12.4931,0,0,12.4931,88.8614,96.4205)">
            <path d="M0.047,-0L0.538,-0L0.538,-0.159L0.244,-0.159L0.244,-0.727L0.047,-0.727L0.047,-0Z" style="fill:rgb(255,200,33);fill-rule:nonzero;"/>
        </g>
        <g transform="matrix(12.4931,0,0,12.4931,95.9953,96.4205)">
            <rect x="0.047" y="-0.727" width="0.197" height="0.727" style="fill:rgb(255,200,33);fill-rule:nonzero;"/>
        </g>
        <g transform="matrix(12.4931,0,0,12.4931,99.6332,96.4205)">
            <path d="M0.726,-0.455C0.71,-0.635 0.578,-0.737 0.395,-0.737C0.199,-0.737 0.044,-0.607 0.044,-0.364C0.044,-0.122 0.195,0.01 0.395,0.01C0.608,0.01 0.716,-0.138 0.726,-0.261L0.526,-0.263C0.516,-0.201 0.472,-0.162 0.399,-0.162C0.303,-0.162 0.247,-0.23 0.247,-0.364C0.247,-0.49 0.301,-0.565 0.401,-0.565C0.477,-0.565 0.52,-0.521 0.526,-0.455L0.726,-0.455Z" style="fill:rgb(255,200,33);fill-rule:nonzero;"/>
        </g>
        <g transform="matrix(12.4931,0,0,12.4931,108.95,96.4205)">
            <path d="M0.236,-0L0.278,-0.139L0.518,-0.139L0.56,-0L0.773,-0L0.533,-0.727L0.263,-0.727L0.023,-0L0.236,-0ZM0.322,-0.287L0.395,-0.527L0.401,-0.527L0.473,-0.287L0.322,-0.287Z" style="fill:rgb(255,200,33);fill-rule:nonzero;"/>
        </g>
        <g transform="matrix(12.4931,0,0,12.4931,117.734,96.4205)">
            <path d="M0.027,-0.568L0.246,-0.568L0.246,-0L0.44,-0L0.44,-0.568L0.659,-0.568L0.659,-0.727L0.027,-0.727L0.027,-0.568Z" style="fill:rgb(255,200,33);fill-rule:nonzero;"/>
        </g>
        <g transform="matrix(12.4931,0,0,12.4931,126.305,96.4205)">
            <rect x="0.047" y="-0.727" width="0.197" height="0.727" style="fill:rgb(255,200,33);fill-rule:nonzero;"/>
        </g>
        <g transform="matrix(12.4931,0,0,12.4931,129.943,96.4205)">
            <path d="M0.751,-0.364C0.751,-0.607 0.595,-0.737 0.398,-0.737C0.199,-0.737 0.044,-0.607 0.044,-0.364C0.044,-0.122 0.199,0.01 0.398,0.01C0.595,0.01 0.751,-0.121 0.751,-0.364ZM0.548,-0.364C0.548,-0.233 0.496,-0.162 0.398,-0.162C0.3,-0.162 0.247,-0.233 0.247,-0.364C0.247,-0.494 0.3,-0.565 0.398,-0.565C0.496,-0.565 0.548,-0.494 0.548,-0.364Z" style="fill:rgb(255,200,33);fill-rule:nonzero;"/>
        </g>
        <g transform="matrix(12.4931,0,0,12.4931,139.881,96.4205)">
            <path d="M0.676,-0.727L0.479,-0.727L0.479,-0.347L0.473,-0.347L0.214,-0.727L0.047,-0.727L0.047,-0L0.244,-0L0.244,-0.382L0.249,-0.382L0.511,-0L0.676,-0L0.676,-0.727Z" style="fill:rgb(255,200,33);fill-rule:nonzero;"/>
        </g>
        <g transform="matrix(12.4931,0,0,12.4931,68.223,108.914)">
            <path d="M0.152,-0.727L0.064,-0.727L0.064,-0.468L0.152,-0.468L0.152,-0.727ZM0.335,-0.727L0.246,-0.727L0.246,-0.468L0.335,-0.468L0.335,-0.727Z" style="fill:rgb(255,200,33);fill-rule:nonzero;"/>
        </g>
        <g transform="matrix(12.4931,0,0,12.4931,73.2185,108.914)">
            <path d="M0.08,-0L0.19,-0L0.19,-0.256L0.339,-0.256C0.507,-0.256 0.591,-0.358 0.591,-0.492C0.591,-0.626 0.508,-0.727 0.339,-0.727L0.08,-0.727L0.08,-0ZM0.19,-0.349L0.19,-0.633L0.327,-0.633C0.436,-0.633 0.48,-0.574 0.48,-0.492C0.48,-0.409 0.436,-0.349 0.329,-0.349L0.19,-0.349Z" style="fill:rgb(255,200,33);fill-rule:nonzero;"/>
        </g>
        <g transform="matrix(12.4931,0,0,12.4931,81.2041,108.914)">
            <path d="M0.712,-0.364C0.712,-0.596 0.572,-0.737 0.384,-0.737C0.195,-0.737 0.056,-0.596 0.056,-0.364C0.056,-0.131 0.195,0.01 0.384,0.01C0.572,0.01 0.712,-0.131 0.712,-0.364ZM0.603,-0.364C0.603,-0.186 0.509,-0.09 0.384,-0.09C0.259,-0.09 0.165,-0.186 0.165,-0.364C0.165,-0.541 0.259,-0.637 0.384,-0.637C0.509,-0.637 0.603,-0.541 0.603,-0.364Z" style="fill:rgb(255,200,33);fill-rule:nonzero;"/>
        </g>
        <g transform="matrix(12.4931,0,0,12.4931,90.8002,108.914)">
            <path d="M0.08,-0L0.19,-0L0.19,-0.275L0.346,-0.275L0.494,-0L0.619,-0L0.457,-0.294C0.547,-0.327 0.591,-0.402 0.591,-0.499C0.591,-0.633 0.508,-0.727 0.339,-0.727L0.08,-0.727L0.08,-0ZM0.19,-0.37L0.19,-0.633L0.327,-0.633C0.436,-0.633 0.48,-0.582 0.48,-0.499C0.48,-0.417 0.436,-0.37 0.329,-0.37L0.19,-0.37Z" style="fill:rgb(255,200,33);fill-rule:nonzero;"/>
        </g>
        <g transform="matrix(12.4931,0,0,12.4931,98.8568,108.914)">
            <path d="M0.044,-0.633L0.271,-0.633L0.271,-0L0.38,-0L0.38,-0.633L0.607,-0.633L0.607,-0.727L0.044,-0.727L0.044,-0.633Z" style="fill:rgb(255,200,33);fill-rule:nonzero;"/>
        </g>
        <g transform="matrix(12.4931,0,0,12.4931,106.989,108.914)">
            <path d="M0.08,-0L0.19,-0L0.19,-0.317L0.499,-0.317L0.499,-0.411L0.19,-0.411L0.19,-0.633L0.531,-0.633L0.531,-0.727L0.08,-0.727L0.08,-0Z" style="fill:rgb(255,200,33);fill-rule:nonzero;"/>
        </g>
        <g transform="matrix(12.4931,0,0,12.4931,114.309,108.914)">
            <path d="M0.712,-0.364C0.712,-0.596 0.572,-0.737 0.384,-0.737C0.195,-0.737 0.056,-0.596 0.056,-0.364C0.056,-0.131 0.195,0.01 0.384,0.01C0.572,0.01 0.712,-0.131 0.712,-0.364ZM0.603,-0.364C0.603,-0.186 0.509,-0.09 0.384,-0.09C0.259,-0.09 0.165,-0.186 0.165,-0.364C0.165,-0.541 0.259,-0.637 0.384,-0.637C0.509,-0.637 0.603,-0.541 0.603,-0.364Z" style="fill:rgb(255,200,33);fill-rule:nonzero;"/>
        </g>
        <g transform="matrix(12.4931,0,0,12.4931,123.905,108.914)">
            <path d="M0.08,-0L0.519,-0L0.519,-0.094L0.19,-0.094L0.19,-0.727L0.08,-0.727L0.08,-0Z" style="fill:rgb(255,200,33);fill-rule:nonzero;"/>
        </g>
        <g transform="matrix(12.4931,0,0,12.4931,130.955,108.914)">
            <rect x="0.08" y="-0.727" width="0.11" height="0.727" style="fill:rgb(255,200,33);fill-rule:nonzero;"/>
        </g>
        <g transform="matrix(12.4931,0,0,12.4931,134.322,108.914)">
            <path d="M0.712,-0.364C0.712,-0.596 0.572,-0.737 0.384,-0.737C0.195,-0.737 0.056,-0.596 0.056,-0.364C0.056,-0.131 0.195,0.01 0.384,0.01C0.572,0.01 0.712,-0.131 0.712,-0.364ZM0.603,-0.364C0.603,-0.186 0.509,-0.09 0.384,-0.09C0.259,-0.09 0.165,-0.186 0.165,-0.364C0.165,-0.541 0.259,-0.637 0.384,-0.637C0.509,-0.637 0.603,-0.541 0.603,-0.364Z" style="fill:rgb(255,200,33);fill-rule:nonzero;"/>
        </g>
        <g transform="matrix(12.4931,0,0,12.4931,143.918,108.914)">
            <path d="M0.152,-0.727L0.064,-0.727L0.064,-0.468L0.152,-0.468L0.152,-0.727ZM0.335,-0.727L0.246,-0.727L0.246,-0.468L0.335,-0.468L0.335,-0.727Z" style="fill:rgb(255,200,33);fill-rule:nonzero;"/>
        </g>
    </g>
    <g transform="matrix(2.17987,0,0,2.17987,226.852,-161.986)">
        <g transform="matrix(12,0,0,12,24.5497,96.4205)">
            <path d="M0.074,0.225L0.074,-0.518L0.196,-0.518L0.205,-0.424L0.214,-0.424C0.22,-0.459 0.233,-0.485 0.254,-0.502C0.274,-0.519 0.304,-0.527 0.343,-0.527C0.408,-0.527 0.458,-0.504 0.494,-0.457C0.53,-0.41 0.547,-0.344 0.547,-0.258C0.547,-0.172 0.53,-0.106 0.494,-0.06C0.458,-0.013 0.408,0.01 0.344,0.01C0.308,0.01 0.279,0.001 0.257,-0.016C0.236,-0.033 0.222,-0.059 0.217,-0.094L0.206,-0.094L0.206,0.225L0.074,0.225ZM0.206,-0.258C0.206,-0.208 0.214,-0.172 0.229,-0.149C0.243,-0.126 0.27,-0.115 0.307,-0.115C0.375,-0.115 0.408,-0.163 0.408,-0.258C0.408,-0.304 0.399,-0.34 0.382,-0.365C0.364,-0.39 0.339,-0.403 0.307,-0.403C0.274,-0.403 0.248,-0.391 0.231,-0.368C0.215,-0.345 0.206,-0.308 0.206,-0.258Z" style="fill:white;fill-rule:nonzero;"/>
        </g>
        <g transform="matrix(12,0,0,12,31.581,96.4205)">
            <path d="M0.293,0.01C0.218,0.01 0.161,-0.014 0.12,-0.061C0.079,-0.107 0.058,-0.174 0.058,-0.259C0.058,-0.344 0.079,-0.411 0.12,-0.457C0.161,-0.504 0.218,-0.527 0.293,-0.527C0.368,-0.527 0.425,-0.504 0.466,-0.457C0.507,-0.411 0.528,-0.344 0.528,-0.259C0.528,-0.174 0.507,-0.107 0.466,-0.061C0.425,-0.014 0.368,0.01 0.293,0.01ZM0.293,-0.116C0.323,-0.116 0.347,-0.128 0.363,-0.153C0.379,-0.178 0.388,-0.213 0.388,-0.259C0.388,-0.305 0.379,-0.34 0.363,-0.365C0.347,-0.389 0.323,-0.402 0.293,-0.402C0.263,-0.402 0.24,-0.389 0.223,-0.365C0.207,-0.34 0.198,-0.305 0.198,-0.259C0.198,-0.213 0.207,-0.178 0.223,-0.153C0.24,-0.128 0.263,-0.116 0.293,-0.116Z" style="fill:white;fill-rule:nonzero;"/>
        </g>
        <g transform="matrix(12,0,0,12,38.6122,96.4205)">
            <path d="M0.272,-0.223L0.272,-0.113L0.393,-0.113L0.393,-0L0.031,-0L0.031,-0.113L0.14,-0.113L0.14,-0.404L0.05,-0.404L0.05,-0.518L0.252,-0.518L0.268,-0.401L0.286,-0.401C0.291,-0.485 0.335,-0.527 0.418,-0.527C0.468,-0.527 0.505,-0.509 0.531,-0.473C0.558,-0.437 0.571,-0.385 0.571,-0.317L0.439,-0.317C0.439,-0.347 0.434,-0.369 0.423,-0.383C0.411,-0.396 0.393,-0.403 0.368,-0.403C0.336,-0.403 0.312,-0.387 0.296,-0.356C0.28,-0.325 0.272,-0.28 0.272,-0.223Z" style="fill:white;fill-rule:nonzero;"/>
        </g>
        <g transform="matrix(12,0,0,12,45.6435,96.4205)">
            <path d="M0.403,0.01C0.314,0.01 0.249,-0.008 0.209,-0.044C0.17,-0.08 0.15,-0.137 0.15,-0.216L0.15,-0.396L0.026,-0.396L0.026,-0.518L0.15,-0.518L0.15,-0.674L0.282,-0.674L0.282,-0.518L0.511,-0.518L0.511,-0.396L0.282,-0.396L0.282,-0.229C0.282,-0.189 0.292,-0.16 0.312,-0.143C0.333,-0.125 0.366,-0.116 0.413,-0.116C0.428,-0.116 0.444,-0.117 0.461,-0.118C0.478,-0.12 0.497,-0.123 0.519,-0.125L0.531,-0.002C0.509,0.002 0.488,0.005 0.468,0.007C0.448,0.009 0.426,0.01 0.403,0.01Z" style="fill:white;fill-rule:nonzero;"/>
        </g>
        <g transform="matrix(12,0,0,12,52.6747,96.4205)">
            <path d="M0.182,-0L0.182,-0.301L0.025,-0.301L0.025,-0.415L0.182,-0.415L0.182,-0.474C0.182,-0.653 0.269,-0.742 0.441,-0.742C0.481,-0.742 0.52,-0.739 0.557,-0.732L0.544,-0.61C0.523,-0.612 0.503,-0.614 0.487,-0.615C0.47,-0.616 0.454,-0.617 0.438,-0.617C0.355,-0.617 0.314,-0.571 0.314,-0.479L0.314,-0.415L0.52,-0.415L0.52,-0.301L0.314,-0.301L0.314,-0L0.182,-0Z" style="fill:white;fill-rule:nonzero;"/>
        </g>
        <g transform="matrix(12,0,0,12,59.706,96.4205)">
            <path d="M0.293,0.01C0.218,0.01 0.161,-0.014 0.12,-0.061C0.079,-0.107 0.058,-0.174 0.058,-0.259C0.058,-0.344 0.079,-0.411 0.12,-0.457C0.161,-0.504 0.218,-0.527 0.293,-0.527C0.368,-0.527 0.425,-0.504 0.466,-0.457C0.507,-0.411 0.528,-0.344 0.528,-0.259C0.528,-0.174 0.507,-0.107 0.466,-0.061C0.425,-0.014 0.368,0.01 0.293,0.01ZM0.293,-0.116C0.323,-0.116 0.347,-0.128 0.363,-0.153C0.379,-0.178 0.388,-0.213 0.388,-0.259C0.388,-0.305 0.379,-0.34 0.363,-0.365C0.347,-0.389 0.323,-0.402 0.293,-0.402C0.263,-0.402 0.24,-0.389 0.223,-0.365C0.207,-0.34 0.198,-0.305 0.198,-0.259C0.198,-0.213 0.207,-0.178 0.223,-0.153C0.24,-0.128 0.263,-0.116 0.293,-0.116Z" style="fill:white;fill-rule:nonzero;"/>
        </g>
        <g transform="matrix(12,0,0,12,66.7372,96.4205)">
            <path d="M0.37,0.01C0.305,0.01 0.258,-0.008 0.229,-0.044C0.2,-0.08 0.186,-0.137 0.186,-0.216L0.186,-0.611L0.04,-0.611L0.04,-0.732L0.318,-0.732L0.318,-0.221C0.318,-0.188 0.323,-0.165 0.335,-0.15C0.346,-0.135 0.371,-0.128 0.409,-0.128C0.438,-0.128 0.474,-0.134 0.518,-0.146L0.533,-0.011C0.505,-0.004 0.478,0.002 0.453,0.005C0.427,0.008 0.399,0.01 0.37,0.01Z" style="fill:white;fill-rule:nonzero;"/>
        </g>
        <g transform="matrix(12,0,0,12,73.7685,96.4205)">
            <path d="M0.07,-0L0.07,-0.122L0.261,-0.122L0.261,-0.396L0.099,-0.396L0.099,-0.518L0.393,-0.518L0.393,-0.122L0.546,-0.122L0.546,-0L0.07,-0ZM0.321,-0.587C0.296,-0.587 0.276,-0.595 0.26,-0.611C0.245,-0.626 0.237,-0.647 0.237,-0.672C0.237,-0.697 0.245,-0.717 0.26,-0.733C0.276,-0.749 0.296,-0.756 0.321,-0.756C0.346,-0.756 0.367,-0.749 0.382,-0.733C0.398,-0.717 0.406,-0.697 0.406,-0.672C0.406,-0.647 0.398,-0.626 0.382,-0.611C0.367,-0.595 0.346,-0.587 0.321,-0.587Z" style="fill:white;fill-rule:nonzero;"/>
        </g>
        <g transform="matrix(12,0,0,12,80.7997,96.4205)">
            <path d="M0.293,0.01C0.218,0.01 0.161,-0.014 0.12,-0.061C0.079,-0.107 0.058,-0.174 0.058,-0.259C0.058,-0.344 0.079,-0.411 0.12,-0.457C0.161,-0.504 0.218,-0.527 0.293,-0.527C0.368,-0.527 0.425,-0.504 0.466,-0.457C0.507,-0.411 0.528,-0.344 0.528,-0.259C0.528,-0.174 0.507,-0.107 0.466,-0.061C0.425,-0.014 0.368,0.01 0.293,0.01ZM0.293,-0.116C0.323,-0.116 0.347,-0.128 0.363,-0.153C0.379,-0.178 0.388,-0.213 0.388,-0.259C0.388,-0.305 0.379,-0.34 0.363,-0.365C0.347,-0.389 0.323,-0.402 0.293,-0.402C0.263,-0.402 0.24,-0.389 0.223,-0.365C0.207,-0.34 0.198,-0.305 0.198,-0.259C0.198,-0.213 0.207,-0.178 0.223,-0.153C0.24,-0.128 0.263,-0.116 0.293,-0.116Z" style="fill:white;fill-rule:nonzero;"/>
        </g>
        <g transform="matrix(12,0,0,12,87.831,96.4205)">
            <path d="M0.039,0.093L0.417,-0.786L0.552,-0.786L0.173,0.093L0.039,0.093Z" style="fill:white;fill-rule:nonzero;"/>
        </g>
        <g transform="matrix(12,0,0,12,52.6747,116.678)">
            <path d="M0.41,-0L0.41,-0.351C0.41,-0.386 0.399,-0.404 0.378,-0.404C0.355,-0.404 0.343,-0.385 0.343,-0.346L0.343,-0L0.245,-0L0.245,-0.36C0.245,-0.39 0.235,-0.404 0.214,-0.404C0.189,-0.404 0.177,-0.385 0.177,-0.346L0.177,-0L0.046,-0L0.046,-0.518L0.165,-0.518L0.172,-0.453L0.184,-0.453C0.191,-0.503 0.217,-0.527 0.262,-0.527C0.305,-0.527 0.331,-0.503 0.34,-0.453L0.352,-0.453C0.355,-0.476 0.364,-0.494 0.379,-0.508C0.394,-0.521 0.414,-0.527 0.439,-0.527C0.474,-0.527 0.499,-0.518 0.515,-0.499C0.531,-0.479 0.54,-0.448 0.54,-0.405L0.54,-0L0.41,-0Z" style="fill:white;fill-rule:nonzero;"/>
        </g>
        <g transform="matrix(12,0,0,12,59.706,116.678)">
            <path d="M0.388,0.005L0.38,-0.109L0.368,-0.109C0.363,-0.07 0.347,-0.04 0.321,-0.02C0.294,-0 0.258,0.01 0.213,0.01C0.158,0.01 0.115,-0.004 0.084,-0.031C0.054,-0.058 0.039,-0.096 0.039,-0.146C0.039,-0.204 0.059,-0.248 0.099,-0.279C0.139,-0.31 0.195,-0.326 0.269,-0.326C0.291,-0.326 0.31,-0.325 0.326,-0.323C0.343,-0.322 0.359,-0.319 0.375,-0.315L0.375,-0.317C0.375,-0.345 0.363,-0.365 0.34,-0.378C0.316,-0.391 0.281,-0.398 0.234,-0.399L0.102,-0.402L0.112,-0.522L0.225,-0.521C0.318,-0.52 0.388,-0.501 0.434,-0.466C0.479,-0.43 0.502,-0.378 0.502,-0.31L0.502,-0.118L0.574,-0.107L0.574,-0L0.388,0.005ZM0.375,-0.207C0.356,-0.21 0.339,-0.213 0.324,-0.213C0.308,-0.214 0.292,-0.214 0.275,-0.214C0.207,-0.214 0.173,-0.195 0.173,-0.156C0.173,-0.12 0.197,-0.102 0.246,-0.102C0.274,-0.102 0.297,-0.107 0.316,-0.117C0.335,-0.127 0.35,-0.14 0.359,-0.156C0.369,-0.173 0.374,-0.189 0.375,-0.207Z" style="fill:white;fill-rule:nonzero;"/>
        </g>
        <g transform="matrix(12,0,0,12,66.7372,116.678)">
            <path d="M0.38,-0L0.38,-0.304C0.38,-0.335 0.373,-0.36 0.361,-0.376C0.348,-0.393 0.329,-0.402 0.306,-0.402C0.239,-0.402 0.206,-0.354 0.206,-0.258L0.206,-0L0.074,-0L0.074,-0.518L0.192,-0.518L0.204,-0.424L0.219,-0.424C0.224,-0.459 0.236,-0.485 0.254,-0.502C0.273,-0.519 0.302,-0.527 0.34,-0.527C0.395,-0.527 0.437,-0.511 0.467,-0.478C0.497,-0.444 0.512,-0.397 0.512,-0.337L0.512,-0L0.38,-0Z" style="fill:white;fill-rule:nonzero;"/>
        </g>
        <g transform="matrix(12,0,0,12,73.7685,116.678)">
            <path d="M0.388,0.005L0.38,-0.109L0.368,-0.109C0.363,-0.07 0.347,-0.04 0.321,-0.02C0.294,-0 0.258,0.01 0.213,0.01C0.158,0.01 0.115,-0.004 0.084,-0.031C0.054,-0.058 0.039,-0.096 0.039,-0.146C0.039,-0.204 0.059,-0.248 0.099,-0.279C0.139,-0.31 0.195,-0.326 0.269,-0.326C0.291,-0.326 0.31,-0.325 0.326,-0.323C0.343,-0.322 0.359,-0.319 0.375,-0.315L0.375,-0.317C0.375,-0.345 0.363,-0.365 0.34,-0.378C0.316,-0.391 0.281,-0.398 0.234,-0.399L0.102,-0.402L0.112,-0.522L0.225,-0.521C0.318,-0.52 0.388,-0.501 0.434,-0.466C0.479,-0.43 0.502,-0.378 0.502,-0.31L0.502,-0.118L0.574,-0.107L0.574,-0L0.388,0.005ZM0.375,-0.207C0.356,-0.21 0.339,-0.213 0.324,-0.213C0.308,-0.214 0.292,-0.214 0.275,-0.214C0.207,-0.214 0.173,-0.195 0.173,-0.156C0.173,-0.12 0.197,-0.102 0.246,-0.102C0.274,-0.102 0.297,-0.107 0.316,-0.117C0.335,-0.127 0.35,-0.14 0.359,-0.156C0.369,-0.173 0.374,-0.189 0.375,-0.207Z" style="fill:white;fill-rule:nonzero;"/>
        </g>
        <g transform="matrix(12,0,0,12,80.7997,116.678)">
            <path d="M0.089,0.233L0.084,0.118L0.25,0.113C0.296,0.112 0.329,0.099 0.349,0.075C0.37,0.052 0.38,0.016 0.38,-0.03L0.38,-0.094L0.369,-0.094C0.364,-0.059 0.35,-0.033 0.329,-0.016C0.307,0.001 0.278,0.01 0.242,0.01C0.178,0.01 0.128,-0.013 0.092,-0.06C0.056,-0.106 0.039,-0.172 0.039,-0.258C0.039,-0.344 0.056,-0.41 0.092,-0.457C0.128,-0.504 0.178,-0.527 0.243,-0.527C0.282,-0.527 0.312,-0.519 0.332,-0.502C0.353,-0.485 0.366,-0.459 0.372,-0.424L0.381,-0.424L0.39,-0.518L0.512,-0.518L0.512,-0.046C0.512,0.046 0.491,0.114 0.447,0.158C0.404,0.202 0.335,0.225 0.24,0.229L0.089,0.233ZM0.38,-0.258C0.38,-0.308 0.372,-0.345 0.355,-0.368C0.338,-0.391 0.313,-0.403 0.279,-0.403C0.247,-0.403 0.222,-0.39 0.204,-0.365C0.187,-0.34 0.178,-0.304 0.178,-0.258C0.178,-0.163 0.211,-0.115 0.279,-0.115C0.317,-0.115 0.343,-0.126 0.358,-0.149C0.372,-0.172 0.38,-0.208 0.38,-0.258Z" style="fill:white;fill-rule:nonzero;"/>
        </g>
        <g transform="matrix(12,0,0,12,87.831,116.678)">
            <path d="M0.339,0.01C0.249,0.01 0.18,-0.013 0.131,-0.06C0.083,-0.106 0.058,-0.173 0.058,-0.26C0.058,-0.344 0.079,-0.41 0.12,-0.457C0.162,-0.504 0.22,-0.527 0.296,-0.527C0.37,-0.527 0.427,-0.506 0.467,-0.462C0.508,-0.419 0.528,-0.356 0.528,-0.273C0.528,-0.25 0.527,-0.228 0.525,-0.207L0.196,-0.207C0.216,-0.146 0.268,-0.115 0.351,-0.115C0.374,-0.115 0.397,-0.116 0.42,-0.119C0.443,-0.121 0.466,-0.125 0.49,-0.129L0.502,-0.004C0.469,0.002 0.439,0.006 0.412,0.007C0.384,0.009 0.36,0.01 0.339,0.01ZM0.19,-0.298L0.398,-0.298C0.398,-0.333 0.389,-0.36 0.371,-0.378C0.354,-0.397 0.329,-0.406 0.297,-0.406C0.267,-0.406 0.243,-0.397 0.224,-0.378C0.206,-0.359 0.194,-0.333 0.19,-0.298Z" style="fill:white;fill-rule:nonzero;"/>
        </g>
        <g transform="matrix(12,0,0,12,94.8622,116.678)">
            <path d="M0.293,0.01C0.268,0.01 0.247,0.001 0.23,-0.016C0.213,-0.034 0.204,-0.055 0.204,-0.079C0.204,-0.104 0.213,-0.125 0.23,-0.142C0.247,-0.159 0.268,-0.168 0.293,-0.168C0.318,-0.168 0.339,-0.159 0.356,-0.142C0.373,-0.125 0.382,-0.104 0.382,-0.079C0.382,-0.055 0.373,-0.034 0.356,-0.016C0.339,0.001 0.318,0.01 0.293,0.01Z" style="fill:white;fill-rule:nonzero;"/>
        </g>
        <g transform="matrix(12,0,0,12,101.893,116.678)">
            <path d="M0.074,0.225L0.074,-0.518L0.196,-0.518L0.205,-0.424L0.214,-0.424C0.22,-0.459 0.233,-0.485 0.254,-0.502C0.274,-0.519 0.304,-0.527 0.343,-0.527C0.408,-0.527 0.458,-0.504 0.494,-0.457C0.53,-0.41 0.547,-0.344 0.547,-0.258C0.547,-0.172 0.53,-0.106 0.494,-0.06C0.458,-0.013 0.408,0.01 0.344,0.01C0.308,0.01 0.279,0.001 0.257,-0.016C0.236,-0.033 0.222,-0.059 0.217,-0.094L0.206,-0.094L0.206,0.225L0.074,0.225ZM0.206,-0.258C0.206,-0.208 0.214,-0.172 0.229,-0.149C0.243,-0.126 0.27,-0.115 0.307,-0.115C0.375,-0.115 0.408,-0.163 0.408,-0.258C0.408,-0.304 0.399,-0.34 0.382,-0.365C0.364,-0.39 0.339,-0.403 0.307,-0.403C0.274,-0.403 0.248,-0.391 0.231,-0.368C0.215,-0.345 0.206,-0.308 0.206,-0.258Z" style="fill:white;fill-rule:nonzero;"/>
        </g>
        <g transform="matrix(12,0,0,12,108.925,116.678)">
            <path d="M0.028,0.234L0.023,0.12L0.113,0.11C0.149,0.106 0.178,0.096 0.202,0.079C0.226,0.062 0.246,0.035 0.262,-0L0.192,-0L0.019,-0.518L0.159,-0.518L0.287,-0.112L0.299,-0.112L0.413,-0.518L0.553,-0.518L0.407,-0.046C0.388,0.016 0.365,0.066 0.34,0.104C0.314,0.142 0.284,0.17 0.25,0.189C0.215,0.208 0.173,0.22 0.125,0.225L0.028,0.234Z" style="fill:white;fill-rule:nonzero;"/>
        </g>
        <g transform="matrix(12,0,0,12,52.6747,136.935)">
            <path d="M0.074,0.225L0.074,-0.518L0.196,-0.518L0.205,-0.424L0.214,-0.424C0.22,-0.459 0.233,-0.485 0.254,-0.502C0.274,-0.519 0.304,-0.527 0.343,-0.527C0.408,-0.527 0.458,-0.504 0.494,-0.457C0.53,-0.41 0.547,-0.344 0.547,-0.258C0.547,-0.172 0.53,-0.106 0.494,-0.06C0.458,-0.013 0.408,0.01 0.344,0.01C0.308,0.01 0.279,0.001 0.257,-0.016C0.236,-0.033 0.222,-0.059 0.217,-0.094L0.206,-0.094L0.206,0.225L0.074,0.225ZM0.206,-0.258C0.206,-0.208 0.214,-0.172 0.229,-0.149C0.243,-0.126 0.27,-0.115 0.307,-0.115C0.375,-0.115 0.408,-0.163 0.408,-0.258C0.408,-0.304 0.399,-0.34 0.382,-0.365C0.364,-0.39 0.339,-0.403 0.307,-0.403C0.274,-0.403 0.248,-0.391 0.231,-0.368C0.215,-0.345 0.206,-0.308 0.206,-0.258Z" style="fill:white;fill-rule:nonzero;"/>
        </g>
        <g transform="matrix(12,0,0,12,59.706,136.935)">
            <path d="M0.293,0.01C0.218,0.01 0.161,-0.014 0.12,-0.061C0.079,-0.107 0.058,-0.174 0.058,-0.259C0.058,-0.344 0.079,-0.411 0.12,-0.457C0.161,-0.504 0.218,-0.527 0.293,-0.527C0.368,-0.527 0.425,-0.504 0.466,-0.457C0.507,-0.411 0.528,-0.344 0.528,-0.259C0.528,-0.174 0.507,-0.107 0.466,-0.061C0.425,-0.014 0.368,0.01 0.293,0.01ZM0.293,-0.116C0.323,-0.116 0.347,-0.128 0.363,-0.153C0.379,-0.178 0.388,-0.213 0.388,-0.259C0.388,-0.305 0.379,-0.34 0.363,-0.365C0.347,-0.389 0.323,-0.402 0.293,-0.402C0.263,-0.402 0.24,-0.389 0.223,-0.365C0.207,-0.34 0.198,-0.305 0.198,-0.259C0.198,-0.213 0.207,-0.178 0.223,-0.153C0.24,-0.128 0.263,-0.116 0.293,-0.116Z" style="fill:white;fill-rule:nonzero;"/>
        </g>
        <g transform="matrix(12,0,0,12,66.7372,136.935)">
            <path d="M0.272,-0.223L0.272,-0.113L0.393,-0.113L0.393,-0L0.031,-0L0.031,-0.113L0.14,-0.113L0.14,-0.404L0.05,-0.404L0.05,-0.518L0.252,-0.518L0.268,-0.401L0.286,-0.401C0.291,-0.485 0.335,-0.527 0.418,-0.527C0.468,-0.527 0.505,-0.509 0.531,-0.473C0.558,-0.437 0.571,-0.385 0.571,-0.317L0.439,-0.317C0.439,-0.347 0.434,-0.369 0.423,-0.383C0.411,-0.396 0.393,-0.403 0.368,-0.403C0.336,-0.403 0.312,-0.387 0.296,-0.356C0.28,-0.325 0.272,-0.28 0.272,-0.223Z" style="fill:white;fill-rule:nonzero;"/>
        </g>
        <g transform="matrix(12,0,0,12,73.7685,136.935)">
            <path d="M0.403,0.01C0.314,0.01 0.249,-0.008 0.209,-0.044C0.17,-0.08 0.15,-0.137 0.15,-0.216L0.15,-0.396L0.026,-0.396L0.026,-0.518L0.15,-0.518L0.15,-0.674L0.282,-0.674L0.282,-0.518L0.511,-0.518L0.511,-0.396L0.282,-0.396L0.282,-0.229C0.282,-0.189 0.292,-0.16 0.312,-0.143C0.333,-0.125 0.366,-0.116 0.413,-0.116C0.428,-0.116 0.444,-0.117 0.461,-0.118C0.478,-0.12 0.497,-0.123 0.519,-0.125L0.531,-0.002C0.509,0.002 0.488,0.005 0.468,0.007C0.448,0.009 0.426,0.01 0.403,0.01Z" style="fill:white;fill-rule:nonzero;"/>
        </g>
        <g transform="matrix(12,0,0,12,80.7997,136.935)">
            <path d="M0.182,-0L0.182,-0.301L0.025,-0.301L0.025,-0.415L0.182,-0.415L0.182,-0.474C0.182,-0.653 0.269,-0.742 0.441,-0.742C0.481,-0.742 0.52,-0.739 0.557,-0.732L0.544,-0.61C0.523,-0.612 0.503,-0.614 0.487,-0.615C0.47,-0.616 0.454,-0.617 0.438,-0.617C0.355,-0.617 0.314,-0.571 0.314,-0.479L0.314,-0.415L0.52,-0.415L0.52,-0.301L0.314,-0.301L0.314,-0L0.182,-0Z" style="fill:white;fill-rule:nonzero;"/>
        </g>
        <g transform="matrix(12,0,0,12,87.831,136.935)">
            <path d="M0.293,0.01C0.218,0.01 0.161,-0.014 0.12,-0.061C0.079,-0.107 0.058,-0.174 0.058,-0.259C0.058,-0.344 0.079,-0.411 0.12,-0.457C0.161,-0.504 0.218,-0.527 0.293,-0.527C0.368,-0.527 0.425,-0.504 0.466,-0.457C0.507,-0.411 0.528,-0.344 0.528,-0.259C0.528,-0.174 0.507,-0.107 0.466,-0.061C0.425,-0.014 0.368,0.01 0.293,0.01ZM0.293,-0.116C0.323,-0.116 0.347,-0.128 0.363,-0.153C0.379,-0.178 0.388,-0.213 0.388,-0.259C0.388,-0.305 0.379,-0.34 0.363,-0.365C0.347,-0.389 0.323,-0.402 0.293,-0.402C0.263,-0.402 0.24,-0.389 0.223,-0.365C0.207,-0.34 0.198,-0.305 0.198,-0.259C0.198,-0.213 0.207,-0.178 0.223,-0.153C0.24,-0.128 0.263,-0.116 0.293,-0.116Z" style="fill:white;fill-rule:nonzero;"/>
        </g>
        <g transform="matrix(12,0,0,12,94.8622,136.935)">
            <path d="M0.37,0.01C0.305,0.01 0.258,-0.008 0.229,-0.044C0.2,-0.08 0.186,-0.137 0.186,-0.216L0.186,-0.611L0.04,-0.611L0.04,-0.732L0.318,-0.732L0.318,-0.221C0.318,-0.188 0.323,-0.165 0.335,-0.15C0.346,-0.135 0.371,-0.128 0.409,-0.128C0.438,-0.128 0.474,-0.134 0.518,-0.146L0.533,-0.011C0.505,-0.004 0.478,0.002 0.453,0.005C0.427,0.008 0.399,0.01 0.37,0.01Z" style="fill:white;fill-rule:nonzero;"/>
        </g>
        <g transform="matrix(12,0,0,12,101.893,136.935)">
            <path d="M0.07,-0L0.07,-0.122L0.261,-0.122L0.261,-0.396L0.099,-0.396L0.099,-0.518L0.393,-0.518L0.393,-0.122L0.546,-0.122L0.546,-0L0.07,-0ZM0.321,-0.587C0.296,-0.587 0.276,-0.595 0.26,-0.611C0.245,-0.626 0.237,-0.647 0.237,-0.672C0.237,-0.697 0.245,-0.717 0.26,-0.733C0.276,-0.749 0.296,-0.756 0.321,-0.756C0.346,-0.756 0.367,-0.749 0.382,-0.733C0.398,-0.717 0.406,-0.697 0.406,-0.672C0.406,-0.647 0.398,-0.626 0.382,-0.611C0.367,-0.595 0.346,-0.587 0.321,-0.587Z" style="fill:white;fill-rule:nonzero;"/>
        </g>
        <g transform="matrix(12,0,0,12,108.925,136.935)">
            <path d="M0.293,0.01C0.218,0.01 0.161,-0.014 0.12,-0.061C0.079,-0.107 0.058,-0.174 0.058,-0.259C0.058,-0.344 0.079,-0.411 0.12,-0.457C0.161,-0.504 0.218,-0.527 0.293,-0.527C0.368,-0.527 0.425,-0.504 0.466,-0.457C0.507,-0.411 0.528,-0.344 0.528,-0.259C0.528,-0.174 0.507,-0.107 0.466,-0.061C0.425,-0.014 0.368,0.01 0.293,0.01ZM0.293,-0.116C0.323,-0.116 0.347,-0.128 0.363,-0.153C0.379,-0.178 0.388,-0.213 0.388,-0.259C0.388,-0.305 0.379,-0.34 0.363,-0.365C0.347,-0.389 0.323,-0.402 0.293,-0.402C0.263,-0.402 0.24,-0.389 0.223,-0.365C0.207,-0.34 0.198,-0.305 0.198,-0.259C0.198,-0.213 0.207,-0.178 0.223,-0.153C0.24,-0.128 0.263,-0.116 0.293,-0.116Z" style="fill:white;fill-rule:nonzero;"/>
        </g>
        <g transform="matrix(12,0,0,12,115.956,136.935)">
            <path d="M0.039,0.093L0.417,-0.786L0.552,-0.786L0.173,0.093L0.039,0.093Z" style="fill:white;fill-rule:nonzero;"/>
        </g>
        <g transform="matrix(12,0,0,12,80.7997,157.193)">
            <rect x="0.049" y="-0" width="0.547" height="0.122" style="fill:white;fill-rule:nonzero;"/>
        </g>
        <g transform="matrix(12,0,0,12,87.831,157.193)">
            <rect x="-0.01" y="-0" width="0.547" height="0.122" style="fill:white;fill-rule:nonzero;"/>
        </g>
        <g transform="matrix(12,0,0,12,94.8622,157.193)">
            <path d="M0.07,-0L0.07,-0.122L0.261,-0.122L0.261,-0.396L0.099,-0.396L0.099,-0.518L0.393,-0.518L0.393,-0.122L0.546,-0.122L0.546,-0L0.07,-0ZM0.321,-0.587C0.296,-0.587 0.276,-0.595 0.26,-0.611C0.245,-0.626 0.237,-0.647 0.237,-0.672C0.237,-0.697 0.245,-0.717 0.26,-0.733C0.276,-0.749 0.296,-0.756 0.321,-0.756C0.346,-0.756 0.367,-0.749 0.382,-0.733C0.398,-0.717 0.406,-0.697 0.406,-0.672C0.406,-0.647 0.398,-0.626 0.382,-0.611C0.367,-0.595 0.346,-0.587 0.321,-0.587Z" style="fill:white;fill-rule:nonzero;"/>
        </g>
        <g transform="matrix(12,0,0,12,101.893,157.193)">
            <path d="M0.38,-0L0.38,-0.304C0.38,-0.335 0.373,-0.36 0.361,-0.376C0.348,-0.393 0.329,-0.402 0.306,-0.402C0.239,-0.402 0.206,-0.354 0.206,-0.258L0.206,-0L0.074,-0L0.074,-0.518L0.192,-0.518L0.204,-0.424L0.219,-0.424C0.224,-0.459 0.236,-0.485 0.254,-0.502C0.273,-0.519 0.302,-0.527 0.34,-0.527C0.395,-0.527 0.437,-0.511 0.467,-0.478C0.497,-0.444 0.512,-0.397 0.512,-0.337L0.512,-0L0.38,-0Z" style="fill:white;fill-rule:nonzero;"/>
        </g>
        <g transform="matrix(12,0,0,12,108.925,157.193)">
            <path d="M0.07,-0L0.07,-0.122L0.261,-0.122L0.261,-0.396L0.099,-0.396L0.099,-0.518L0.393,-0.518L0.393,-0.122L0.546,-0.122L0.546,-0L0.07,-0ZM0.321,-0.587C0.296,-0.587 0.276,-0.595 0.26,-0.611C0.245,-0.626 0.237,-0.647 0.237,-0.672C0.237,-0.697 0.245,-0.717 0.26,-0.733C0.276,-0.749 0.296,-0.756 0.321,-0.756C0.346,-0.756 0.367,-0.749 0.382,-0.733C0.398,-0.717 0.406,-0.697 0.406,-0.672C0.406,-0.647 0.398,-0.626 0.382,-0.611C0.367,-0.595 0.346,-0.587 0.321,-0.587Z" style="fill:white;fill-rule:nonzero;"/>
        </g>
        <g transform="matrix(12,0,0,12,115.956,157.193)">
            <path d="M0.403,0.01C0.314,0.01 0.249,-0.008 0.209,-0.044C0.17,-0.08 0.15,-0.137 0.15,-0.216L0.15,-0.396L0.026,-0.396L0.026,-0.518L0.15,-0.518L0.15,-0.674L0.282,-0.674L0.282,-0.518L0.511,-0.518L0.511,-0.396L0.282,-0.396L0.282,-0.229C0.282,-0.189 0.292,-0.16 0.312,-0.143C0.333,-0.125 0.366,-0.116 0.413,-0.116C0.428,-0.116 0.444,-0.117 0.461,-0.118C0.478,-0.12 0.497,-0.123 0.519,-0.125L0.531,-0.002C0.509,0.002 0.488,0.005 0.468,0.007C0.448,0.009 0.426,0.01 0.403,0.01Z" style="fill:white;fill-rule:nonzero;"/>
        </g>
        <g transform="matrix(12,0,0,12,122.987,157.193)">
            <rect x="0.049" y="-0" width="0.547" height="0.122" style="fill:white;fill-rule:nonzero;"/>
        </g>
        <g transform="matrix(12,0,0,12,130.018,157.193)">
            <rect x="-0.01" y="-0" width="0.547" height="0.122" style="fill:white;fill-rule:nonzero;"/>
        </g>
        <g transform="matrix(12,0,0,12,137.05,157.193)">
            <path d="M0.293,0.01C0.268,0.01 0.247,0.001 0.23,-0.016C0.213,-0.034 0.204,-0.055 0.204,-0.079C0.204,-0.104 0.213,-0.125 0.23,-0.142C0.247,-0.159 0.268,-0.168 0.293,-0.168C0.318,-0.168 0.339,-0.159 0.356,-0.142C0.373,-0.125 0.382,-0.104 0.382,-0.079C0.382,-0.055 0.373,-0.034 0.356,-0.016C0.339,0.001 0.318,0.01 0.293,0.01Z" style="fill:white;fill-rule:nonzero;"/>
        </g>
        <g transform="matrix(12,0,0,12,144.081,157.193)">
            <path d="M0.074,0.225L0.074,-0.518L0.196,-0.518L0.205,-0.424L0.214,-0.424C0.22,-0.459 0.233,-0.485 0.254,-0.502C0.274,-0.519 0.304,-0.527 0.343,-0.527C0.408,-0.527 0.458,-0.504 0.494,-0.457C0.53,-0.41 0.547,-0.344 0.547,-0.258C0.547,-0.172 0.53,-0.106 0.494,-0.06C0.458,-0.013 0.408,0.01 0.344,0.01C0.308,0.01 0.279,0.001 0.257,-0.016C0.236,-0.033 0.222,-0.059 0.217,-0.094L0.206,-0.094L0.206,0.225L0.074,0.225ZM0.206,-0.258C0.206,-0.208 0.214,-0.172 0.229,-0.149C0.243,-0.126 0.27,-0.115 0.307,-0.115C0.375,-0.115 0.408,-0.163 0.408,-0.258C0.408,-0.304 0.399,-0.34 0.382,-0.365C0.364,-0.39 0.339,-0.403 0.307,-0.403C0.274,-0.403 0.248,-0.391 0.231,-0.368C0.215,-0.345 0.206,-0.308 0.206,-0.258Z" style="fill:white;fill-rule:nonzero;"/>
        </g>
        <g transform="matrix(12,0,0,12,151.112,157.193)">
            <path d="M0.028,0.234L0.023,0.12L0.113,0.11C0.149,0.106 0.178,0.096 0.202,0.079C0.226,0.062 0.246,0.035 0.262,-0L0.192,-0L0.019,-0.518L0.159,-0.518L0.287,-0.112L0.299,-0.112L0.413,-0.518L0.553,-0.518L0.407,-0.046C0.388,0.016 0.365,0.066 0.34,0.104C0.314,0.142 0.284,0.17 0.25,0.189C0.215,0.208 0.173,0.22 0.125,0.225L0.028,0.234Z" style="fill:white;fill-rule:nonzero;"/>
        </g>
        <g transform="matrix(12,0,0,12,80.7997,177.45)">
            <path d="M0.218,0.01C0.169,0.01 0.131,-0.006 0.104,-0.039C0.076,-0.071 0.063,-0.117 0.063,-0.176L0.063,-0.518L0.195,-0.518L0.195,-0.208C0.195,-0.179 0.202,-0.156 0.216,-0.14C0.229,-0.124 0.248,-0.116 0.271,-0.116C0.302,-0.116 0.326,-0.128 0.342,-0.152C0.357,-0.176 0.365,-0.216 0.365,-0.272L0.365,-0.518L0.498,-0.518L0.498,-0.118L0.569,-0.107L0.569,-0L0.374,0.005L0.367,-0.1L0.352,-0.1C0.343,-0.064 0.328,-0.037 0.304,-0.019C0.281,0 0.252,0.01 0.218,0.01Z" style="fill:white;fill-rule:nonzero;"/>
        </g>
        <g transform="matrix(12,0,0,12,87.831,177.45)">
            <path d="M0.272,-0.223L0.272,-0.113L0.393,-0.113L0.393,-0L0.031,-0L0.031,-0.113L0.14,-0.113L0.14,-0.404L0.05,-0.404L0.05,-0.518L0.252,-0.518L0.268,-0.401L0.286,-0.401C0.291,-0.485 0.335,-0.527 0.418,-0.527C0.468,-0.527 0.505,-0.509 0.531,-0.473C0.558,-0.437 0.571,-0.385 0.571,-0.317L0.439,-0.317C0.439,-0.347 0.434,-0.369 0.423,-0.383C0.411,-0.396 0.393,-0.403 0.368,-0.403C0.336,-0.403 0.312,-0.387 0.296,-0.356C0.28,-0.325 0.272,-0.28 0.272,-0.223Z" style="fill:white;fill-rule:nonzero;"/>
        </g>
        <g transform="matrix(12,0,0,12,94.8622,177.45)">
            <path d="M0.37,0.01C0.305,0.01 0.258,-0.008 0.229,-0.044C0.2,-0.08 0.186,-0.137 0.186,-0.216L0.186,-0.611L0.04,-0.611L0.04,-0.732L0.318,-0.732L0.318,-0.221C0.318,-0.188 0.323,-0.165 0.335,-0.15C0.346,-0.135 0.371,-0.128 0.409,-0.128C0.438,-0.128 0.474,-0.134 0.518,-0.146L0.533,-0.011C0.505,-0.004 0.478,0.002 0.453,0.005C0.427,0.008 0.399,0.01 0.37,0.01Z" style="fill:white;fill-rule:nonzero;"/>
        </g>
        <g transform="matrix(12,0,0,12,101.893,177.45)">
            <path d="M0.253,0.01C0.175,0.01 0.114,0.005 0.068,-0.005L0.083,-0.131C0.125,-0.126 0.159,-0.122 0.187,-0.12C0.215,-0.117 0.237,-0.116 0.253,-0.116C0.296,-0.116 0.326,-0.119 0.345,-0.125C0.365,-0.131 0.374,-0.14 0.374,-0.154C0.374,-0.168 0.364,-0.178 0.343,-0.184L0.18,-0.233C0.145,-0.243 0.119,-0.259 0.102,-0.279C0.084,-0.3 0.076,-0.327 0.076,-0.362C0.076,-0.472 0.17,-0.527 0.359,-0.527C0.382,-0.527 0.405,-0.527 0.428,-0.525C0.452,-0.523 0.478,-0.521 0.504,-0.518L0.49,-0.395C0.461,-0.398 0.435,-0.399 0.413,-0.4C0.39,-0.401 0.372,-0.402 0.356,-0.402C0.307,-0.402 0.272,-0.399 0.249,-0.393C0.227,-0.388 0.216,-0.378 0.216,-0.365C0.216,-0.351 0.226,-0.341 0.245,-0.335L0.385,-0.295C0.43,-0.283 0.463,-0.265 0.485,-0.242C0.507,-0.22 0.518,-0.19 0.518,-0.153C0.518,-0.045 0.43,0.01 0.253,0.01Z" style="fill:white;fill-rule:nonzero;"/>
        </g>
        <g transform="matrix(12,0,0,12,108.925,177.45)">
            <path d="M0.293,0.01C0.268,0.01 0.247,0.001 0.23,-0.016C0.213,-0.034 0.204,-0.055 0.204,-0.079C0.204,-0.104 0.213,-0.125 0.23,-0.142C0.247,-0.159 0.268,-0.168 0.293,-0.168C0.318,-0.168 0.339,-0.159 0.356,-0.142C0.373,-0.125 0.382,-0.104 0.382,-0.079C0.382,-0.055 0.373,-0.034 0.356,-0.016C0.339,0.001 0.318,0.01 0.293,0.01Z" style="fill:white;fill-rule:nonzero;"/>
        </g>
        <g transform="matrix(12,0,0,12,115.956,177.45)">
            <path d="M0.074,0.225L0.074,-0.518L0.196,-0.518L0.205,-0.424L0.214,-0.424C0.22,-0.459 0.233,-0.485 0.254,-0.502C0.274,-0.519 0.304,-0.527 0.343,-0.527C0.408,-0.527 0.458,-0.504 0.494,-0.457C0.53,-0.41 0.547,-0.344 0.547,-0.258C0.547,-0.172 0.53,-0.106 0.494,-0.06C0.458,-0.013 0.408,0.01 0.344,0.01C0.308,0.01 0.279,0.001 0.257,-0.016C0.236,-0.033 0.222,-0.059 0.217,-0.094L0.206,-0.094L0.206,0.225L0.074,0.225ZM0.206,-0.258C0.206,-0.208 0.214,-0.172 0.229,-0.149C0.243,-0.126 0.27,-0.115 0.307,-0.115C0.375,-0.115 0.408,-0.163 0.408,-0.258C0.408,-0.304 0.399,-0.34 0.382,-0.365C0.364,-0.39 0.339,-0.403 0.307,-0.403C0.274,-0.403 0.248,-0.391 0.231,-0.368C0.215,-0.345 0.206,-0.308 0.206,-0.258Z" style="fill:white;fill-rule:nonzero;"/>
        </g>
        <g transform="matrix(12,0,0,12,122.987,177.45)">
            <path d="M0.028,0.234L0.023,0.12L0.113,0.11C0.149,0.106 0.178,0.096 0.202,0.079C0.226,0.062 0.246,0.035 0.262,-0L0.192,-0L0.019,-0.518L0.159,-0.518L0.287,-0.112L0.299,-0.112L0.413,-0.518L0.553,-0.518L0.407,-0.046C0.388,0.016 0.365,0.066 0.34,0.104C0.314,0.142 0.284,0.17 0.25,0.189C0.215,0.208 0.173,0.22 0.125,0.225L0.028,0.234Z" style="fill:white;fill-rule:nonzero;"/>
        </g>
        <g transform="matrix(12,0,0,12,80.7997,197.707)">
            <path d="M0.253,0.01C0.175,0.01 0.114,0.005 0.068,-0.005L0.083,-0.131C0.125,-0.126 0.159,-0.122 0.187,-0.12C0.215,-0.117 0.237,-0.116 0.253,-0.116C0.296,-0.116 0.326,-0.119 0.345,-0.125C0.365,-0.131 0.374,-0.14 0.374,-0.154C0.374,-0.168 0.364,-0.178 0.343,-0.184L0.18,-0.233C0.145,-0.243 0.119,-0.259 0.102,-0.279C0.084,-0.3 0.076,-0.327 0.076,-0.362C0.076,-0.472 0.17,-0.527 0.359,-0.527C0.382,-0.527 0.405,-0.527 0.428,-0.525C0.452,-0.523 0.478,-0.521 0.504,-0.518L0.49,-0.395C0.461,-0.398 0.435,-0.399 0.413,-0.4C0.39,-0.401 0.372,-0.402 0.356,-0.402C0.307,-0.402 0.272,-0.399 0.249,-0.393C0.227,-0.388 0.216,-0.378 0.216,-0.365C0.216,-0.351 0.226,-0.341 0.245,-0.335L0.385,-0.295C0.43,-0.283 0.463,-0.265 0.485,-0.242C0.507,-0.22 0.518,-0.19 0.518,-0.153C0.518,-0.045 0.43,0.01 0.253,0.01Z" style="fill:white;fill-rule:nonzero;"/>
        </g>
        <g transform="matrix(12,0,0,12,87.831,197.707)">
            <path d="M0.339,0.01C0.249,0.01 0.18,-0.013 0.131,-0.06C0.083,-0.106 0.058,-0.173 0.058,-0.26C0.058,-0.344 0.079,-0.41 0.12,-0.457C0.162,-0.504 0.22,-0.527 0.296,-0.527C0.37,-0.527 0.427,-0.506 0.467,-0.462C0.508,-0.419 0.528,-0.356 0.528,-0.273C0.528,-0.25 0.527,-0.228 0.525,-0.207L0.196,-0.207C0.216,-0.146 0.268,-0.115 0.351,-0.115C0.374,-0.115 0.397,-0.116 0.42,-0.119C0.443,-0.121 0.466,-0.125 0.49,-0.129L0.502,-0.004C0.469,0.002 0.439,0.006 0.412,0.007C0.384,0.009 0.36,0.01 0.339,0.01ZM0.19,-0.298L0.398,-0.298C0.398,-0.333 0.389,-0.36 0.371,-0.378C0.354,-0.397 0.329,-0.406 0.297,-0.406C0.267,-0.406 0.243,-0.397 0.224,-0.378C0.206,-0.359 0.194,-0.333 0.19,-0.298Z" style="fill:white;fill-rule:nonzero;"/>
        </g>
        <g transform="matrix(12,0,0,12,94.8622,197.707)">
            <path d="M0.403,0.01C0.314,0.01 0.249,-0.008 0.209,-0.044C0.17,-0.08 0.15,-0.137 0.15,-0.216L0.15,-0.396L0.026,-0.396L0.026,-0.518L0.15,-0.518L0.15,-0.674L0.282,-0.674L0.282,-0.518L0.511,-0.518L0.511,-0.396L0.282,-0.396L0.282,-0.229C0.282,-0.189 0.292,-0.16 0.312,-0.143C0.333,-0.125 0.366,-0.116 0.413,-0.116C0.428,-0.116 0.444,-0.117 0.461,-0.118C0.478,-0.12 0.497,-0.123 0.519,-0.125L0.531,-0.002C0.509,0.002 0.488,0.005 0.468,0.007C0.448,0.009 0.426,0.01 0.403,0.01Z" style="fill:white;fill-rule:nonzero;"/>
        </g>
        <g transform="matrix(12,0,0,12,101.893,197.707)">
            <path d="M0.403,0.01C0.314,0.01 0.249,-0.008 0.209,-0.044C0.17,-0.08 0.15,-0.137 0.15,-0.216L0.15,-0.396L0.026,-0.396L0.026,-0.518L0.15,-0.518L0.15,-0.674L0.282,-0.674L0.282,-0.518L0.511,-0.518L0.511,-0.396L0.282,-0.396L0.282,-0.229C0.282,-0.189 0.292,-0.16 0.312,-0.143C0.333,-0.125 0.366,-0.116 0.413,-0.116C0.428,-0.116 0.444,-0.117 0.461,-0.118C0.478,-0.12 0.497,-0.123 0.519,-0.125L0.531,-0.002C0.509,0.002 0.488,0.005 0.468,0.007C0.448,0.009 0.426,0.01 0.403,0.01Z" style="fill:white;fill-rule:nonzero;"/>
        </g>
        <g transform="matrix(12,0,0,12,108.925,197.707)">
            <path d="M0.07,-0L0.07,-0.122L0.261,-0.122L0.261,-0.396L0.099,-0.396L0.099,-0.518L0.393,-0.518L0.393,-0.122L0.546,-0.122L0.546,-0L0.07,-0ZM0.321,-0.587C0.296,-0.587 0.276,-0.595 0.26,-0.611C0.245,-0.626 0.237,-0.647 0.237,-0.672C0.237,-0.697 0.245,-0.717 0.26,-0.733C0.276,-0.749 0.296,-0.756 0.321,-0.756C0.346,-0.756 0.367,-0.749 0.382,-0.733C0.398,-0.717 0.406,-0.697 0.406,-0.672C0.406,-0.647 0.398,-0.626 0.382,-0.611C0.367,-0.595 0.346,-0.587 0.321,-0.587Z" style="fill:white;fill-rule:nonzero;"/>
        </g>
        <g transform="matrix(12,0,0,12,115.956,197.707)">
            <path d="M0.38,-0L0.38,-0.304C0.38,-0.335 0.373,-0.36 0.361,-0.376C0.348,-0.393 0.329,-0.402 0.306,-0.402C0.239,-0.402 0.206,-0.354 0.206,-0.258L0.206,-0L0.074,-0L0.074,-0.518L0.192,-0.518L0.204,-0.424L0.219,-0.424C0.224,-0.459 0.236,-0.485 0.254,-0.502C0.273,-0.519 0.302,-0.527 0.34,-0.527C0.395,-0.527 0.437,-0.511 0.467,-0.478C0.497,-0.444 0.512,-0.397 0.512,-0.337L0.512,-0L0.38,-0Z" style="fill:white;fill-rule:nonzero;"/>
        </g>
        <g transform="matrix(12,0,0,12,122.987,197.707)">
            <path d="M0.089,0.233L0.084,0.118L0.25,0.113C0.296,0.112 0.329,0.099 0.349,0.075C0.37,0.052 0.38,0.016 0.38,-0.03L0.38,-0.094L0.369,-0.094C0.364,-0.059 0.35,-0.033 0.329,-0.016C0.307,0.001 0.278,0.01 0.242,0.01C0.178,0.01 0.128,-0.013 0.092,-0.06C0.056,-0.106 0.039,-0.172 0.039,-0.258C0.039,-0.344 0.056,-0.41 0.092,-0.457C0.128,-0.504 0.178,-0.527 0.243,-0.527C0.282,-0.527 0.312,-0.519 0.332,-0.502C0.353,-0.485 0.366,-0.459 0.372,-0.424L0.381,-0.424L0.39,-0.518L0.512,-0.518L0.512,-0.046C0.512,0.046 0.491,0.114 0.447,0.158C0.404,0.202 0.335,0.225 0.24,0.229L0.089,0.233ZM0.38,-0.258C0.38,-0.308 0.372,-0.345 0.355,-0.368C0.338,-0.391 0.313,-0.403 0.279,-0.403C0.247,-0.403 0.222,-0.39 0.204,-0.365C0.187,-0.34 0.178,-0.304 0.178,-0.258C0.178,-0.163 0.211,-0.115 0.279,-0.115C0.317,-0.115 0.343,-0.126 0.358,-0.149C0.372,-0.172 0.38,-0.208 0.38,-0.258Z" style="fill:white;fill-rule:nonzero;"/>
        </g>
        <g transform="matrix(12,0,0,12,130.018,197.707)">
            <path d="M0.253,0.01C0.175,0.01 0.114,0.005 0.068,-0.005L0.083,-0.131C0.125,-0.126 0.159,-0.122 0.187,-0.12C0.215,-0.117 0.237,-0.116 0.253,-0.116C0.296,-0.116 0.326,-0.119 0.345,-0.125C0.365,-0.131 0.374,-0.14 0.374,-0.154C0.374,-0.168 0.364,-0.178 0.343,-0.184L0.18,-0.233C0.145,-0.243 0.119,-0.259 0.102,-0.279C0.084,-0.3 0.076,-0.327 0.076,-0.362C0.076,-0.472 0.17,-0.527 0.359,-0.527C0.382,-0.527 0.405,-0.527 0.428,-0.525C0.452,-0.523 0.478,-0.521 0.504,-0.518L0.49,-0.395C0.461,-0.398 0.435,-0.399 0.413,-0.4C0.39,-0.401 0.372,-0.402 0.356,-0.402C0.307,-0.402 0.272,-0.399 0.249,-0.393C0.227,-0.388 0.216,-0.378 0.216,-0.365C0.216,-0.351 0.226,-0.341 0.245,-0.335L0.385,-0.295C0.43,-0.283 0.463,-0.265 0.485,-0.242C0.507,-0.22 0.518,-0.19 0.518,-0.153C0.518,-0.045 0.43,0.01 0.253,0.01Z" style="fill:white;fill-rule:nonzero;"/>
        </g>
        <g transform="matrix(12,0,0,12,137.05,197.707)">
            <path d="M0.039,0.093L0.417,-0.786L0.552,-0.786L0.173,0.093L0.039,0.093Z" style="fill:white;fill-rule:nonzero;"/>
        </g>
        <g transform="matrix(12,0,0,12,108.925,217.965)">
            <rect x="0.049" y="-0" width="0.547" height="0.122" style="fill:white;fill-rule:nonzero;"/>
        </g>
        <g transform="matrix(12,0,0,12,115.956,217.965)">
            <rect x="-0.01" y="-0" width="0.547" height="0.122" style="fill:white;fill-rule:nonzero;"/>
        </g>
        <g transform="matrix(12,0,0,12,122.987,217.965)">
            <path d="M0.07,-0L0.07,-0.122L0.261,-0.122L0.261,-0.396L0.099,-0.396L0.099,-0.518L0.393,-0.518L0.393,-0.122L0.546,-0.122L0.546,-0L0.07,-0ZM0.321,-0.587C0.296,-0.587 0.276,-0.595 0.26,-0.611C0.245,-0.626 0.237,-0.647 0.237,-0.672C0.237,-0.697 0.245,-0.717 0.26,-0.733C0.276,-0.749 0.296,-0.756 0.321,-0.756C0.346,-0.756 0.367,-0.749 0.382,-0.733C0.398,-0.717 0.406,-0.697 0.406,-0.672C0.406,-0.647 0.398,-0.626 0.382,-0.611C0.367,-0.595 0.346,-0.587 0.321,-0.587Z" style="fill:white;fill-rule:nonzero;"/>
        </g>
        <g transform="matrix(12,0,0,12,130.018,217.965)">
            <path d="M0.38,-0L0.38,-0.304C0.38,-0.335 0.373,-0.36 0.361,-0.376C0.348,-0.393 0.329,-0.402 0.306,-0.402C0.239,-0.402 0.206,-0.354 0.206,-0.258L0.206,-0L0.074,-0L0.074,-0.518L0.192,-0.518L0.204,-0.424L0.219,-0.424C0.224,-0.459 0.236,-0.485 0.254,-0.502C0.273,-0.519 0.302,-0.527 0.34,-0.527C0.395,-0.527 0.437,-0.511 0.467,-0.478C0.497,-0.444 0.512,-0.397 0.512,-0.337L0.512,-0L0.38,-0Z" style="fill:white;fill-rule:nonzero;"/>
        </g>
        <g transform="matrix(12,0,0,12,137.05,217.965)">
            <path d="M0.07,-0L0.07,-0.122L0.261,-0.122L0.261,-0.396L0.099,-0.396L0.099,-0.518L0.393,-0.518L0.393,-0.122L0.546,-0.122L0.546,-0L0.07,-0ZM0.321,-0.587C0.296,-0.587 0.276,-0.595 0.26,-0.611C0.245,-0.626 0.237,-0.647 0.237,-0.672C0.237,-0.697 0.245,-0.717 0.26,-0.733C0.276,-0.749 0.296,-0.756 0.321,-0.756C0.346,-0.756 0.367,-0.749 0.382,-0.733C0.398,-0.717 0.406,-0.697 0.406,-0.672C0.406,-0.647 0.398,-0.626 0.382,-0.611C0.367,-0.595 0.346,-0.587 0.321,-0.587Z" style="fill:white;fill-rule:nonzero;"/>
        </g>
        <g transform="matrix(12,0,0,12,144.081,217.965)">
            <path d="M0.403,0.01C0.314,0.01 0.249,-0.008 0.209,-0.044C0.17,-0.08 0.15,-0.137 0.15,-0.216L0.15,-0.396L0.026,-0.396L0.026,-0.518L0.15,-0.518L0.15,-0.674L0.282,-0.674L0.282,-0.518L0.511,-0.518L0.511,-0.396L0.282,-0.396L0.282,-0.229C0.282,-0.189 0.292,-0.16 0.312,-0.143C0.333,-0.125 0.366,-0.116 0.413,-0.116C0.428,-0.116 0.444,-0.117 0.461,-0.118C0.478,-0.12 0.497,-0.123 0.519,-0.125L0.531,-0.002C0.509,0.002 0.488,0.005 0.468,0.007C0.448,0.009 0.426,0.01 0.403,0.01Z" style="fill:white;fill-rule:nonzero;"/>
        </g>
        <g transform="matrix(12,0,0,12,151.112,217.965)">
            <rect x="0.049" y="-0" width="0.547" height="0.122" style="fill:white;fill-rule:nonzero;"/>
        </g>
        <g transform="matrix(12,0,0,12,158.143,217.965)">
            <rect x="-0.01" y="-0" width="0.547" height="0.122" style="fill:white;fill-rule:nonzero;"/>
        </g>
        <g transform="matrix(12,0,0,12,165.175,217.965)">
            <path d="M0.293,0.01C0.268,0.01 0.247,0.001 0.23,-0.016C0.213,-0.034 0.204,-0.055 0.204,-0.079C0.204,-0.104 0.213,-0.125 0.23,-0.142C0.247,-0.159 0.268,-0.168 0.293,-0.168C0.318,-0.168 0.339,-0.159 0.356,-0.142C0.373,-0.125 0.382,-0.104 0.382,-0.079C0.382,-0.055 0.373,-0.034 0.356,-0.016C0.339,0.001 0.318,0.01 0.293,0.01Z" style="fill:white;fill-rule:nonzero;"/>
        </g>
        <g transform="matrix(12,0,0,12,172.206,217.965)">
            <path d="M0.074,0.225L0.074,-0.518L0.196,-0.518L0.205,-0.424L0.214,-0.424C0.22,-0.459 0.233,-0.485 0.254,-0.502C0.274,-0.519 0.304,-0.527 0.343,-0.527C0.408,-0.527 0.458,-0.504 0.494,-0.457C0.53,-0.41 0.547,-0.344 0.547,-0.258C0.547,-0.172 0.53,-0.106 0.494,-0.06C0.458,-0.013 0.408,0.01 0.344,0.01C0.308,0.01 0.279,0.001 0.257,-0.016C0.236,-0.033 0.222,-0.059 0.217,-0.094L0.206,-0.094L0.206,0.225L0.074,0.225ZM0.206,-0.258C0.206,-0.208 0.214,-0.172 0.229,-0.149C0.243,-0.126 0.27,-0.115 0.307,-0.115C0.375,-0.115 0.408,-0.163 0.408,-0.258C0.408,-0.304 0.399,-0.34 0.382,-0.365C0.364,-0.39 0.339,-0.403 0.307,-0.403C0.274,-0.403 0.248,-0.391 0.231,-0.368C0.215,-0.345 0.206,-0.308 0.206,-0.258Z" style="fill:white;fill-rule:nonzero;"/>
        </g>
        <g transform="matrix(12,0,0,12,179.237,217.965)">
            <path d="M0.028,0.234L0.023,0.12L0.113,0.11C0.149,0.106 0.178,0.096 0.202,0.079C0.226,0.062 0.246,0.035 0.262,-0L0.192,-0L0.019,-0.518L0.159,-0.518L0.287,-0.112L0.299,-0.112L0.413,-0.518L0.553,-0.518L0.407,-0.046C0.388,0.016 0.365,0.066 0.34,0.104C0.314,0.142 0.284,0.17 0.25,0.189C0.215,0.208 0.173,0.22 0.125,0.225L0.028,0.234Z" style="fill:white;fill-rule:nonzero;"/>
        </g>
        <g transform="matrix(12,0,0,12,108.925,238.222)">
            <path d="M0.218,0.01C0.194,0.01 0.169,0.009 0.145,0.007C0.121,0.005 0.096,0.003 0.071,-0L0.071,-0.732L0.204,-0.732L0.204,-0.424L0.217,-0.424C0.226,-0.493 0.267,-0.527 0.34,-0.527C0.405,-0.527 0.456,-0.507 0.491,-0.466C0.527,-0.426 0.545,-0.368 0.545,-0.293C0.545,-0.197 0.517,-0.122 0.46,-0.07C0.403,-0.017 0.322,0.01 0.218,0.01ZM0.204,-0.291L0.204,-0.115C0.209,-0.115 0.215,-0.115 0.221,-0.115L0.239,-0.115C0.292,-0.115 0.333,-0.13 0.362,-0.161C0.391,-0.192 0.406,-0.236 0.406,-0.293C0.406,-0.328 0.398,-0.355 0.382,-0.374C0.366,-0.393 0.344,-0.403 0.315,-0.403C0.241,-0.403 0.204,-0.366 0.204,-0.291Z" style="fill:white;fill-rule:nonzero;"/>
        </g>
        <g transform="matrix(12,0,0,12,115.956,238.222)">
            <path d="M0.388,0.005L0.38,-0.109L0.368,-0.109C0.363,-0.07 0.347,-0.04 0.321,-0.02C0.294,-0 0.258,0.01 0.213,0.01C0.158,0.01 0.115,-0.004 0.084,-0.031C0.054,-0.058 0.039,-0.096 0.039,-0.146C0.039,-0.204 0.059,-0.248 0.099,-0.279C0.139,-0.31 0.195,-0.326 0.269,-0.326C0.291,-0.326 0.31,-0.325 0.326,-0.323C0.343,-0.322 0.359,-0.319 0.375,-0.315L0.375,-0.317C0.375,-0.345 0.363,-0.365 0.34,-0.378C0.316,-0.391 0.281,-0.398 0.234,-0.399L0.102,-0.402L0.112,-0.522L0.225,-0.521C0.318,-0.52 0.388,-0.501 0.434,-0.466C0.479,-0.43 0.502,-0.378 0.502,-0.31L0.502,-0.118L0.574,-0.107L0.574,-0L0.388,0.005ZM0.375,-0.207C0.356,-0.21 0.339,-0.213 0.324,-0.213C0.308,-0.214 0.292,-0.214 0.275,-0.214C0.207,-0.214 0.173,-0.195 0.173,-0.156C0.173,-0.12 0.197,-0.102 0.246,-0.102C0.274,-0.102 0.297,-0.107 0.316,-0.117C0.335,-0.127 0.35,-0.14 0.359,-0.156C0.369,-0.173 0.374,-0.189 0.375,-0.207Z" style="fill:white;fill-rule:nonzero;"/>
        </g>
        <g transform="matrix(12,0,0,12,122.987,238.222)">
            <path d="M0.253,0.01C0.175,0.01 0.114,0.005 0.068,-0.005L0.083,-0.131C0.125,-0.126 0.159,-0.122 0.187,-0.12C0.215,-0.117 0.237,-0.116 0.253,-0.116C0.296,-0.116 0.326,-0.119 0.345,-0.125C0.365,-0.131 0.374,-0.14 0.374,-0.154C0.374,-0.168 0.364,-0.178 0.343,-0.184L0.18,-0.233C0.145,-0.243 0.119,-0.259 0.102,-0.279C0.084,-0.3 0.076,-0.327 0.076,-0.362C0.076,-0.472 0.17,-0.527 0.359,-0.527C0.382,-0.527 0.405,-0.527 0.428,-0.525C0.452,-0.523 0.478,-0.521 0.504,-0.518L0.49,-0.395C0.461,-0.398 0.435,-0.399 0.413,-0.4C0.39,-0.401 0.372,-0.402 0.356,-0.402C0.307,-0.402 0.272,-0.399 0.249,-0.393C0.227,-0.388 0.216,-0.378 0.216,-0.365C0.216,-0.351 0.226,-0.341 0.245,-0.335L0.385,-0.295C0.43,-0.283 0.463,-0.265 0.485,-0.242C0.507,-0.22 0.518,-0.19 0.518,-0.153C0.518,-0.045 0.43,0.01 0.253,0.01Z" style="fill:white;fill-rule:nonzero;"/>
        </g>
        <g transform="matrix(12,0,0,12,130.018,238.222)">
            <path d="M0.339,0.01C0.249,0.01 0.18,-0.013 0.131,-0.06C0.083,-0.106 0.058,-0.173 0.058,-0.26C0.058,-0.344 0.079,-0.41 0.12,-0.457C0.162,-0.504 0.22,-0.527 0.296,-0.527C0.37,-0.527 0.427,-0.506 0.467,-0.462C0.508,-0.419 0.528,-0.356 0.528,-0.273C0.528,-0.25 0.527,-0.228 0.525,-0.207L0.196,-0.207C0.216,-0.146 0.268,-0.115 0.351,-0.115C0.374,-0.115 0.397,-0.116 0.42,-0.119C0.443,-0.121 0.466,-0.125 0.49,-0.129L0.502,-0.004C0.469,0.002 0.439,0.006 0.412,0.007C0.384,0.009 0.36,0.01 0.339,0.01ZM0.19,-0.298L0.398,-0.298C0.398,-0.333 0.389,-0.36 0.371,-0.378C0.354,-0.397 0.329,-0.406 0.297,-0.406C0.267,-0.406 0.243,-0.397 0.224,-0.378C0.206,-0.359 0.194,-0.333 0.19,-0.298Z" style="fill:white;fill-rule:nonzero;"/>
        </g>
        <g transform="matrix(12,0,0,12,137.05,238.222)">
            <path d="M0.293,0.01C0.268,0.01 0.247,0.001 0.23,-0.016C0.213,-0.034 0.204,-0.055 0.204,-0.079C0.204,-0.104 0.213,-0.125 0.23,-0.142C0.247,-0.159 0.268,-0.168 0.293,-0.168C0.318,-0.168 0.339,-0.159 0.356,-0.142C0.373,-0.125 0.382,-0.104 0.382,-0.079C0.382,-0.055 0.373,-0.034 0.356,-0.016C0.339,0.001 0.318,0.01 0.293,0.01Z" style="fill:white;fill-rule:nonzero;"/>
        </g>
        <g transform="matrix(12,0,0,12,144.081,238.222)">
            <path d="M0.074,0.225L0.074,-0.518L0.196,-0.518L0.205,-0.424L0.214,-0.424C0.22,-0.459 0.233,-0.485 0.254,-0.502C0.274,-0.519 0.304,-0.527 0.343,-0.527C0.408,-0.527 0.458,-0.504 0.494,-0.457C0.53,-0.41 0.547,-0.344 0.547,-0.258C0.547,-0.172 0.53,-0.106 0.494,-0.06C0.458,-0.013 0.408,0.01 0.344,0.01C0.308,0.01 0.279,0.001 0.257,-0.016C0.236,-0.033 0.222,-0.059 0.217,-0.094L0.206,-0.094L0.206,0.225L0.074,0.225ZM0.206,-0.258C0.206,-0.208 0.214,-0.172 0.229,-0.149C0.243,-0.126 0.27,-0.115 0.307,-0.115C0.375,-0.115 0.408,-0.163 0.408,-0.258C0.408,-0.304 0.399,-0.34 0.382,-0.365C0.364,-0.39 0.339,-0.403 0.307,-0.403C0.274,-0.403 0.248,-0.391 0.231,-0.368C0.215,-0.345 0.206,-0.308 0.206,-0.258Z" style="fill:white;fill-rule:nonzero;"/>
        </g>
        <g transform="matrix(12,0,0,12,151.112,238.222)">
            <path d="M0.028,0.234L0.023,0.12L0.113,0.11C0.149,0.106 0.178,0.096 0.202,0.079C0.226,0.062 0.246,0.035 0.262,-0L0.192,-0L0.019,-0.518L0.159,-0.518L0.287,-0.112L0.299,-0.112L0.413,-0.518L0.553,-0.518L0.407,-0.046C0.388,0.016 0.365,0.066 0.34,0.104C0.314,0.142 0.284,0.17 0.25,0.189C0.215,0.208 0.173,0.22 0.125,0.225L0.028,0.234Z" style="fill:white;fill-rule:nonzero;"/>
        </g>
        <g transform="matrix(12,0,0,12,108.925,258.479)">
            <path d="M0.242,0.01C0.178,0.01 0.128,-0.013 0.092,-0.06C0.056,-0.106 0.039,-0.172 0.039,-0.258C0.039,-0.344 0.056,-0.41 0.092,-0.457C0.128,-0.504 0.178,-0.527 0.243,-0.527C0.28,-0.527 0.309,-0.519 0.329,-0.502C0.349,-0.485 0.361,-0.459 0.367,-0.424L0.38,-0.424L0.38,-0.732L0.512,-0.732L0.512,-0L0.399,0.005L0.38,-0.094L0.369,-0.094C0.364,-0.059 0.35,-0.033 0.329,-0.016C0.307,0.001 0.278,0.01 0.242,0.01ZM0.38,-0.258C0.38,-0.308 0.372,-0.345 0.355,-0.368C0.338,-0.391 0.313,-0.403 0.279,-0.403C0.247,-0.403 0.222,-0.39 0.204,-0.365C0.187,-0.34 0.178,-0.304 0.178,-0.258C0.178,-0.163 0.211,-0.115 0.279,-0.115C0.317,-0.115 0.343,-0.126 0.358,-0.149C0.372,-0.172 0.38,-0.208 0.38,-0.258Z" style="fill:white;fill-rule:nonzero;"/>
        </g>
        <g transform="matrix(12,0,0,12,115.956,258.479)">
            <path d="M0.339,0.01C0.249,0.01 0.18,-0.013 0.131,-0.06C0.083,-0.106 0.058,-0.173 0.058,-0.26C0.058,-0.344 0.079,-0.41 0.12,-0.457C0.162,-0.504 0.22,-0.527 0.296,-0.527C0.37,-0.527 0.427,-0.506 0.467,-0.462C0.508,-0.419 0.528,-0.356 0.528,-0.273C0.528,-0.25 0.527,-0.228 0.525,-0.207L0.196,-0.207C0.216,-0.146 0.268,-0.115 0.351,-0.115C0.374,-0.115 0.397,-0.116 0.42,-0.119C0.443,-0.121 0.466,-0.125 0.49,-0.129L0.502,-0.004C0.469,0.002 0.439,0.006 0.412,0.007C0.384,0.009 0.36,0.01 0.339,0.01ZM0.19,-0.298L0.398,-0.298C0.398,-0.333 0.389,-0.36 0.371,-0.378C0.354,-0.397 0.329,-0.406 0.297,-0.406C0.267,-0.406 0.243,-0.397 0.224,-0.378C0.206,-0.359 0.194,-0.333 0.19,-0.298Z" style="fill:white;fill-rule:nonzero;"/>
        </g>
        <g transform="matrix(12,0,0,12,122.987,258.479)">
            <path d="M0.218,0.01C0.194,0.01 0.169,0.009 0.145,0.007C0.121,0.005 0.096,0.003 0.071,-0L0.071,-0.732L0.204,-0.732L0.204,-0.424L0.217,-0.424C0.226,-0.493 0.267,-0.527 0.34,-0.527C0.405,-0.527 0.456,-0.507 0.491,-0.466C0.527,-0.426 0.545,-0.368 0.545,-0.293C0.545,-0.197 0.517,-0.122 0.46,-0.07C0.403,-0.017 0.322,0.01 0.218,0.01ZM0.204,-0.291L0.204,-0.115C0.209,-0.115 0.215,-0.115 0.221,-0.115L0.239,-0.115C0.292,-0.115 0.333,-0.13 0.362,-0.161C0.391,-0.192 0.406,-0.236 0.406,-0.293C0.406,-0.328 0.398,-0.355 0.382,-0.374C0.366,-0.393 0.344,-0.403 0.315,-0.403C0.241,-0.403 0.204,-0.366 0.204,-0.291Z" style="fill:white;fill-rule:nonzero;"/>
        </g>
        <g transform="matrix(12,0,0,12,130.018,258.479)">
            <path d="M0.218,0.01C0.169,0.01 0.131,-0.006 0.104,-0.039C0.076,-0.071 0.063,-0.117 0.063,-0.176L0.063,-0.518L0.195,-0.518L0.195,-0.208C0.195,-0.179 0.202,-0.156 0.216,-0.14C0.229,-0.124 0.248,-0.116 0.271,-0.116C0.302,-0.116 0.326,-0.128 0.342,-0.152C0.357,-0.176 0.365,-0.216 0.365,-0.272L0.365,-0.518L0.498,-0.518L0.498,-0.118L0.569,-0.107L0.569,-0L0.374,0.005L0.367,-0.1L0.352,-0.1C0.343,-0.064 0.328,-0.037 0.304,-0.019C0.281,0 0.252,0.01 0.218,0.01Z" style="fill:white;fill-rule:nonzero;"/>
        </g>
        <g transform="matrix(12,0,0,12,137.05,258.479)">
            <path d="M0.089,0.233L0.084,0.118L0.25,0.113C0.296,0.112 0.329,0.099 0.349,0.075C0.37,0.052 0.38,0.016 0.38,-0.03L0.38,-0.094L0.369,-0.094C0.364,-0.059 0.35,-0.033 0.329,-0.016C0.307,0.001 0.278,0.01 0.242,0.01C0.178,0.01 0.128,-0.013 0.092,-0.06C0.056,-0.106 0.039,-0.172 0.039,-0.258C0.039,-0.344 0.056,-0.41 0.092,-0.457C0.128,-0.504 0.178,-0.527 0.243,-0.527C0.282,-0.527 0.312,-0.519 0.332,-0.502C0.353,-0.485 0.366,-0.459 0.372,-0.424L0.381,-0.424L0.39,-0.518L0.512,-0.518L0.512,-0.046C0.512,0.046 0.491,0.114 0.447,0.158C0.404,0.202 0.335,0.225 0.24,0.229L0.089,0.233ZM0.38,-0.258C0.38,-0.308 0.372,-0.345 0.355,-0.368C0.338,-0.391 0.313,-0.403 0.279,-0.403C0.247,-0.403 0.222,-0.39 0.204,-0.365C0.187,-0.34 0.178,-0.304 0.178,-0.258C0.178,-0.163 0.211,-0.115 0.279,-0.115C0.317,-0.115 0.343,-0.126 0.358,-0.149C0.372,-0.172 0.38,-0.208 0.38,-0.258Z" style="fill:white;fill-rule:nonzero;"/>
        </g>
        <g transform="matrix(12,0,0,12,144.081,258.479)">
            <path d="M0.293,0.01C0.268,0.01 0.247,0.001 0.23,-0.016C0.213,-0.034 0.204,-0.055 0.204,-0.079C0.204,-0.104 0.213,-0.125 0.23,-0.142C0.247,-0.159 0.268,-0.168 0.293,-0.168C0.318,-0.168 0.339,-0.159 0.356,-0.142C0.373,-0.125 0.382,-0.104 0.382,-0.079C0.382,-0.055 0.373,-0.034 0.356,-0.016C0.339,0.001 0.318,0.01 0.293,0.01Z" style="fill:white;fill-rule:nonzero;"/>
        </g>
        <g transform="matrix(12,0,0,12,151.112,258.479)">
            <path d="M0.074,0.225L0.074,-0.518L0.196,-0.518L0.205,-0.424L0.214,-0.424C0.22,-0.459 0.233,-0.485 0.254,-0.502C0.274,-0.519 0.304,-0.527 0.343,-0.527C0.408,-0.527 0.458,-0.504 0.494,-0.457C0.53,-0.41 0.547,-0.344 0.547,-0.258C0.547,-0.172 0.53,-0.106 0.494,-0.06C0.458,-0.013 0.408,0.01 0.344,0.01C0.308,0.01 0.279,0.001 0.257,-0.016C0.236,-0.033 0.222,-0.059 0.217,-0.094L0.206,-0.094L0.206,0.225L0.074,0.225ZM0.206,-0.258C0.206,-0.208 0.214,-0.172 0.229,-0.149C0.243,-0.126 0.27,-0.115 0.307,-0.115C0.375,-0.115 0.408,-0.163 0.408,-0.258C0.408,-0.304 0.399,-0.34 0.382,-0.365C0.364,-0.39 0.339,-0.403 0.307,-0.403C0.274,-0.403 0.248,-0.391 0.231,-0.368C0.215,-0.345 0.206,-0.308 0.206,-0.258Z" style="fill:white;fill-rule:nonzero;"/>
        </g>
        <g transform="matrix(12,0,0,12,158.143,258.479)">
            <path d="M0.028,0.234L0.023,0.12L0.113,0.11C0.149,0.106 0.178,0.096 0.202,0.079C0.226,0.062 0.246,0.035 0.262,-0L0.192,-0L0.019,-0.518L0.159,-0.518L0.287,-0.112L0.299,-0.112L0.413,-0.518L0.553,-0.518L0.407,-0.046C0.388,0.016 0.365,0.066 0.34,0.104C0.314,0.142 0.284,0.17 0.25,0.189C0.215,0.208 0.173,0.22 0.125,0.225L0.028,0.234Z" style="fill:white;fill-rule:nonzero;"/>
        </g>
        <g transform="matrix(12,0,0,12,108.925,278.737)">
            <path d="M0.074,0.225L0.074,-0.518L0.196,-0.518L0.205,-0.424L0.214,-0.424C0.22,-0.459 0.233,-0.485 0.254,-0.502C0.274,-0.519 0.304,-0.527 0.343,-0.527C0.408,-0.527 0.458,-0.504 0.494,-0.457C0.53,-0.41 0.547,-0.344 0.547,-0.258C0.547,-0.172 0.53,-0.106 0.494,-0.06C0.458,-0.013 0.408,0.01 0.344,0.01C0.308,0.01 0.279,0.001 0.257,-0.016C0.236,-0.033 0.222,-0.059 0.217,-0.094L0.206,-0.094L0.206,0.225L0.074,0.225ZM0.206,-0.258C0.206,-0.208 0.214,-0.172 0.229,-0.149C0.243,-0.126 0.27,-0.115 0.307,-0.115C0.375,-0.115 0.408,-0.163 0.408,-0.258C0.408,-0.304 0.399,-0.34 0.382,-0.365C0.364,-0.39 0.339,-0.403 0.307,-0.403C0.274,-0.403 0.248,-0.391 0.231,-0.368C0.215,-0.345 0.206,-0.308 0.206,-0.258Z" style="fill:white;fill-rule:nonzero;"/>
        </g>
        <g transform="matrix(12,0,0,12,115.956,278.737)">
            <path d="M0.272,-0.223L0.272,-0.113L0.393,-0.113L0.393,-0L0.031,-0L0.031,-0.113L0.14,-0.113L0.14,-0.404L0.05,-0.404L0.05,-0.518L0.252,-0.518L0.268,-0.401L0.286,-0.401C0.291,-0.485 0.335,-0.527 0.418,-0.527C0.468,-0.527 0.505,-0.509 0.531,-0.473C0.558,-0.437 0.571,-0.385 0.571,-0.317L0.439,-0.317C0.439,-0.347 0.434,-0.369 0.423,-0.383C0.411,-0.396 0.393,-0.403 0.368,-0.403C0.336,-0.403 0.312,-0.387 0.296,-0.356C0.28,-0.325 0.272,-0.28 0.272,-0.223Z" style="fill:white;fill-rule:nonzero;"/>
        </g>
        <g transform="matrix(12,0,0,12,122.987,278.737)">
            <path d="M0.293,0.01C0.218,0.01 0.161,-0.014 0.12,-0.061C0.079,-0.107 0.058,-0.174 0.058,-0.259C0.058,-0.344 0.079,-0.411 0.12,-0.457C0.161,-0.504 0.218,-0.527 0.293,-0.527C0.368,-0.527 0.425,-0.504 0.466,-0.457C0.507,-0.411 0.528,-0.344 0.528,-0.259C0.528,-0.174 0.507,-0.107 0.466,-0.061C0.425,-0.014 0.368,0.01 0.293,0.01ZM0.293,-0.116C0.323,-0.116 0.347,-0.128 0.363,-0.153C0.379,-0.178 0.388,-0.213 0.388,-0.259C0.388,-0.305 0.379,-0.34 0.363,-0.365C0.347,-0.389 0.323,-0.402 0.293,-0.402C0.263,-0.402 0.24,-0.389 0.223,-0.365C0.207,-0.34 0.198,-0.305 0.198,-0.259C0.198,-0.213 0.207,-0.178 0.223,-0.153C0.24,-0.128 0.263,-0.116 0.293,-0.116Z" style="fill:white;fill-rule:nonzero;"/>
        </g>
        <g transform="matrix(12,0,0,12,130.018,278.737)">
            <path d="M0.242,0.01C0.178,0.01 0.128,-0.013 0.092,-0.06C0.056,-0.106 0.039,-0.172 0.039,-0.258C0.039,-0.344 0.056,-0.41 0.092,-0.457C0.128,-0.504 0.178,-0.527 0.243,-0.527C0.28,-0.527 0.309,-0.519 0.329,-0.502C0.349,-0.485 0.361,-0.459 0.367,-0.424L0.38,-0.424L0.38,-0.732L0.512,-0.732L0.512,-0L0.399,0.005L0.38,-0.094L0.369,-0.094C0.364,-0.059 0.35,-0.033 0.329,-0.016C0.307,0.001 0.278,0.01 0.242,0.01ZM0.38,-0.258C0.38,-0.308 0.372,-0.345 0.355,-0.368C0.338,-0.391 0.313,-0.403 0.279,-0.403C0.247,-0.403 0.222,-0.39 0.204,-0.365C0.187,-0.34 0.178,-0.304 0.178,-0.258C0.178,-0.163 0.211,-0.115 0.279,-0.115C0.317,-0.115 0.343,-0.126 0.358,-0.149C0.372,-0.172 0.38,-0.208 0.38,-0.258Z" style="fill:white;fill-rule:nonzero;"/>
        </g>
        <g transform="matrix(12,0,0,12,137.05,278.737)">
            <path d="M0.293,0.01C0.268,0.01 0.247,0.001 0.23,-0.016C0.213,-0.034 0.204,-0.055 0.204,-0.079C0.204,-0.104 0.213,-0.125 0.23,-0.142C0.247,-0.159 0.268,-0.168 0.293,-0.168C0.318,-0.168 0.339,-0.159 0.356,-0.142C0.373,-0.125 0.382,-0.104 0.382,-0.079C0.382,-0.055 0.373,-0.034 0.356,-0.016C0.339,0.001 0.318,0.01 0.293,0.01Z" style="fill:white;fill-rule:nonzero;"/>
        </g>
        <g transform="matrix(12,0,0,12,144.081,278.737)">
            <path d="M0.074,0.225L0.074,-0.518L0.196,-0.518L0.205,-0.424L0.214,-0.424C0.22,-0.459 0.233,-0.485 0.254,-0.502C0.274,-0.519 0.304,-0.527 0.343,-0.527C0.408,-0.527 0.458,-0.504 0.494,-0.457C0.53,-0.41 0.547,-0.344 0.547,-0.258C0.547,-0.172 0.53,-0.106 0.494,-0.06C0.458,-0.013 0.408,0.01 0.344,0.01C0.308,0.01 0.279,0.001 0.257,-0.016C0.236,-0.033 0.222,-0.059 0.217,-0.094L0.206,-0.094L0.206,0.225L0.074,0.225ZM0.206,-0.258C0.206,-0.208 0.214,-0.172 0.229,-0.149C0.243,-0.126 0.27,-0.115 0.307,-0.115C0.375,-0.115 0.408,-0.163 0.408,-0.258C0.408,-0.304 0.399,-0.34 0.382,-0.365C0.364,-0.39 0.339,-0.403 0.307,-0.403C0.274,-0.403 0.248,-0.391 0.231,-0.368C0.215,-0.345 0.206,-0.308 0.206,-0.258Z" style="fill:white;fill-rule:nonzero;"/>
        </g>
        <g transform="matrix(12,0,0,12,151.112,278.737)">
            <path d="M0.028,0.234L0.023,0.12L0.113,0.11C0.149,0.106 0.178,0.096 0.202,0.079C0.226,0.062 0.246,0.035 0.262,-0L0.192,-0L0.019,-0.518L0.159,-0.518L0.287,-0.112L0.299,-0.112L0.413,-0.518L0.553,-0.518L0.407,-0.046C0.388,0.016 0.365,0.066 0.34,0.104C0.314,0.142 0.284,0.17 0.25,0.189C0.215,0.208 0.173,0.22 0.125,0.225L0.028,0.234Z" style="fill:white;fill-rule:nonzero;"/>
        </g>
        <g transform="matrix(12,0,0,12,80.7997,298.994)">
            <path d="M0.403,0.01C0.314,0.01 0.249,-0.008 0.209,-0.044C0.17,-0.08 0.15,-0.137 0.15,-0.216L0.15,-0.396L0.026,-0.396L0.026,-0.518L0.15,-0.518L0.15,-0.674L0.282,-0.674L0.282,-0.518L0.511,-0.518L0.511,-0.396L0.282,-0.396L0.282,-0.229C0.282,-0.189 0.292,-0.16 0.312,-0.143C0.333,-0.125 0.366,-0.116 0.413,-0.116C0.428,-0.116 0.444,-0.117 0.461,-0.118C0.478,-0.12 0.497,-0.123 0.519,-0.125L0.531,-0.002C0.509,0.002 0.488,0.005 0.468,0.007C0.448,0.009 0.426,0.01 0.403,0.01Z" style="fill:white;fill-rule:nonzero;"/>
        </g>
        <g transform="matrix(12,0,0,12,87.831,298.994)">
            <path d="M0.339,0.01C0.249,0.01 0.18,-0.013 0.131,-0.06C0.083,-0.106 0.058,-0.173 0.058,-0.26C0.058,-0.344 0.079,-0.41 0.12,-0.457C0.162,-0.504 0.22,-0.527 0.296,-0.527C0.37,-0.527 0.427,-0.506 0.467,-0.462C0.508,-0.419 0.528,-0.356 0.528,-0.273C0.528,-0.25 0.527,-0.228 0.525,-0.207L0.196,-0.207C0.216,-0.146 0.268,-0.115 0.351,-0.115C0.374,-0.115 0.397,-0.116 0.42,-0.119C0.443,-0.121 0.466,-0.125 0.49,-0.129L0.502,-0.004C0.469,0.002 0.439,0.006 0.412,0.007C0.384,0.009 0.36,0.01 0.339,0.01ZM0.19,-0.298L0.398,-0.298C0.398,-0.333 0.389,-0.36 0.371,-0.378C0.354,-0.397 0.329,-0.406 0.297,-0.406C0.267,-0.406 0.243,-0.397 0.224,-0.378C0.206,-0.359 0.194,-0.333 0.19,-0.298Z" style="fill:white;fill-rule:nonzero;"/>
        </g>
        <g transform="matrix(12,0,0,12,94.8622,298.994)">
            <path d="M0.41,-0L0.41,-0.351C0.41,-0.386 0.399,-0.404 0.378,-0.404C0.355,-0.404 0.343,-0.385 0.343,-0.346L0.343,-0L0.245,-0L0.245,-0.36C0.245,-0.39 0.235,-0.404 0.214,-0.404C0.189,-0.404 0.177,-0.385 0.177,-0.346L0.177,-0L0.046,-0L0.046,-0.518L0.165,-0.518L0.172,-0.453L0.184,-0.453C0.191,-0.503 0.217,-0.527 0.262,-0.527C0.305,-0.527 0.331,-0.503 0.34,-0.453L0.352,-0.453C0.355,-0.476 0.364,-0.494 0.379,-0.508C0.394,-0.521 0.414,-0.527 0.439,-0.527C0.474,-0.527 0.499,-0.518 0.515,-0.499C0.531,-0.479 0.54,-0.448 0.54,-0.405L0.54,-0L0.41,-0Z" style="fill:white;fill-rule:nonzero;"/>
        </g>
        <g transform="matrix(12,0,0,12,101.893,298.994)">
            <path d="M0.074,0.225L0.074,-0.518L0.196,-0.518L0.205,-0.424L0.214,-0.424C0.22,-0.459 0.233,-0.485 0.254,-0.502C0.274,-0.519 0.304,-0.527 0.343,-0.527C0.408,-0.527 0.458,-0.504 0.494,-0.457C0.53,-0.41 0.547,-0.344 0.547,-0.258C0.547,-0.172 0.53,-0.106 0.494,-0.06C0.458,-0.013 0.408,0.01 0.344,0.01C0.308,0.01 0.279,0.001 0.257,-0.016C0.236,-0.033 0.222,-0.059 0.217,-0.094L0.206,-0.094L0.206,0.225L0.074,0.225ZM0.206,-0.258C0.206,-0.208 0.214,-0.172 0.229,-0.149C0.243,-0.126 0.27,-0.115 0.307,-0.115C0.375,-0.115 0.408,-0.163 0.408,-0.258C0.408,-0.304 0.399,-0.34 0.382,-0.365C0.364,-0.39 0.339,-0.403 0.307,-0.403C0.274,-0.403 0.248,-0.391 0.231,-0.368C0.215,-0.345 0.206,-0.308 0.206,-0.258Z" style="fill:white;fill-rule:nonzero;"/>
        </g>
        <g transform="matrix(12,0,0,12,108.925,298.994)">
            <path d="M0.37,0.01C0.305,0.01 0.258,-0.008 0.229,-0.044C0.2,-0.08 0.186,-0.137 0.186,-0.216L0.186,-0.611L0.04,-0.611L0.04,-0.732L0.318,-0.732L0.318,-0.221C0.318,-0.188 0.323,-0.165 0.335,-0.15C0.346,-0.135 0.371,-0.128 0.409,-0.128C0.438,-0.128 0.474,-0.134 0.518,-0.146L0.533,-0.011C0.505,-0.004 0.478,0.002 0.453,0.005C0.427,0.008 0.399,0.01 0.37,0.01Z" style="fill:white;fill-rule:nonzero;"/>
        </g>
        <g transform="matrix(12,0,0,12,115.956,298.994)">
            <path d="M0.388,0.005L0.38,-0.109L0.368,-0.109C0.363,-0.07 0.347,-0.04 0.321,-0.02C0.294,-0 0.258,0.01 0.213,0.01C0.158,0.01 0.115,-0.004 0.084,-0.031C0.054,-0.058 0.039,-0.096 0.039,-0.146C0.039,-0.204 0.059,-0.248 0.099,-0.279C0.139,-0.31 0.195,-0.326 0.269,-0.326C0.291,-0.326 0.31,-0.325 0.326,-0.323C0.343,-0.322 0.359,-0.319 0.375,-0.315L0.375,-0.317C0.375,-0.345 0.363,-0.365 0.34,-0.378C0.316,-0.391 0.281,-0.398 0.234,-0.399L0.102,-0.402L0.112,-0.522L0.225,-0.521C0.318,-0.52 0.388,-0.501 0.434,-0.466C0.479,-0.43 0.502,-0.378 0.502,-0.31L0.502,-0.118L0.574,-0.107L0.574,-0L0.388,0.005ZM0.375,-0.207C0.356,-0.21 0.339,-0.213 0.324,-0.213C0.308,-0.214 0.292,-0.214 0.275,-0.214C0.207,-0.214 0.173,-0.195 0.173,-0.156C0.173,-0.12 0.197,-0.102 0.246,-0.102C0.274,-0.102 0.297,-0.107 0.316,-0.117C0.335,-0.127 0.35,-0.14 0.359,-0.156C0.369,-0.173 0.374,-0.189 0.375,-0.207Z" style="fill:white;fill-rule:nonzero;"/>
        </g>
        <g transform="matrix(12,0,0,12,122.987,298.994)">
            <path d="M0.403,0.01C0.314,0.01 0.249,-0.008 0.209,-0.044C0.17,-0.08 0.15,-0.137 0.15,-0.216L0.15,-0.396L0.026,-0.396L0.026,-0.518L0.15,-0.518L0.15,-0.674L0.282,-0.674L0.282,-0.518L0.511,-0.518L0.511,-0.396L0.282,-0.396L0.282,-0.229C0.282,-0.189 0.292,-0.16 0.312,-0.143C0.333,-0.125 0.366,-0.116 0.413,-0.116C0.428,-0.116 0.444,-0.117 0.461,-0.118C0.478,-0.12 0.497,-0.123 0.519,-0.125L0.531,-0.002C0.509,0.002 0.488,0.005 0.468,0.007C0.448,0.009 0.426,0.01 0.403,0.01Z" style="fill:white;fill-rule:nonzero;"/>
        </g>
        <g transform="matrix(12,0,0,12,130.018,298.994)">
            <path d="M0.339,0.01C0.249,0.01 0.18,-0.013 0.131,-0.06C0.083,-0.106 0.058,-0.173 0.058,-0.26C0.058,-0.344 0.079,-0.41 0.12,-0.457C0.162,-0.504 0.22,-0.527 0.296,-0.527C0.37,-0.527 0.427,-0.506 0.467,-0.462C0.508,-0.419 0.528,-0.356 0.528,-0.273C0.528,-0.25 0.527,-0.228 0.525,-0.207L0.196,-0.207C0.216,-0.146 0.268,-0.115 0.351,-0.115C0.374,-0.115 0.397,-0.116 0.42,-0.119C0.443,-0.121 0.466,-0.125 0.49,-0.129L0.502,-0.004C0.469,0.002 0.439,0.006 0.412,0.007C0.384,0.009 0.36,0.01 0.339,0.01ZM0.19,-0.298L0.398,-0.298C0.398,-0.333 0.389,-0.36 0.371,-0.378C0.354,-0.397 0.329,-0.406 0.297,-0.406C0.267,-0.406 0.243,-0.397 0.224,-0.378C0.206,-0.359 0.194,-0.333 0.19,-0.298Z" style="fill:white;fill-rule:nonzero;"/>
        </g>
        <g transform="matrix(12,0,0,12,137.05,298.994)">
            <path d="M0.253,0.01C0.175,0.01 0.114,0.005 0.068,-0.005L0.083,-0.131C0.125,-0.126 0.159,-0.122 0.187,-0.12C0.215,-0.117 0.237,-0.116 0.253,-0.116C0.296,-0.116 0.326,-0.119 0.345,-0.125C0.365,-0.131 0.374,-0.14 0.374,-0.154C0.374,-0.168 0.364,-0.178 0.343,-0.184L0.18,-0.233C0.145,-0.243 0.119,-0.259 0.102,-0.279C0.084,-0.3 0.076,-0.327 0.076,-0.362C0.076,-0.472 0.17,-0.527 0.359,-0.527C0.382,-0.527 0.405,-0.527 0.428,-0.525C0.452,-0.523 0.478,-0.521 0.504,-0.518L0.49,-0.395C0.461,-0.398 0.435,-0.399 0.413,-0.4C0.39,-0.401 0.372,-0.402 0.356,-0.402C0.307,-0.402 0.272,-0.399 0.249,-0.393C0.227,-0.388 0.216,-0.378 0.216,-0.365C0.216,-0.351 0.226,-0.341 0.245,-0.335L0.385,-0.295C0.43,-0.283 0.463,-0.265 0.485,-0.242C0.507,-0.22 0.518,-0.19 0.518,-0.153C0.518,-0.045 0.43,0.01 0.253,0.01Z" style="fill:white;fill-rule:nonzero;"/>
        </g>
        <g transform="matrix(12,0,0,12,144.081,298.994)">
            <path d="M0.039,0.093L0.417,-0.786L0.552,-0.786L0.173,0.093L0.039,0.093Z" style="fill:white;fill-rule:nonzero;"/>
        </g>
        <g transform="matrix(12,0,0,12,80.7997,319.252)">
            <path d="M0.253,0.01C0.175,0.01 0.114,0.005 0.068,-0.005L0.083,-0.131C0.125,-0.126 0.159,-0.122 0.187,-0.12C0.215,-0.117 0.237,-0.116 0.253,-0.116C0.296,-0.116 0.326,-0.119 0.345,-0.125C0.365,-0.131 0.374,-0.14 0.374,-0.154C0.374,-0.168 0.364,-0.178 0.343,-0.184L0.18,-0.233C0.145,-0.243 0.119,-0.259 0.102,-0.279C0.084,-0.3 0.076,-0.327 0.076,-0.362C0.076,-0.472 0.17,-0.527 0.359,-0.527C0.382,-0.527 0.405,-0.527 0.428,-0.525C0.452,-0.523 0.478,-0.521 0.504,-0.518L0.49,-0.395C0.461,-0.398 0.435,-0.399 0.413,-0.4C0.39,-0.401 0.372,-0.402 0.356,-0.402C0.307,-0.402 0.272,-0.399 0.249,-0.393C0.227,-0.388 0.216,-0.378 0.216,-0.365C0.216,-0.351 0.226,-0.341 0.245,-0.335L0.385,-0.295C0.43,-0.283 0.463,-0.265 0.485,-0.242C0.507,-0.22 0.518,-0.19 0.518,-0.153C0.518,-0.045 0.43,0.01 0.253,0.01Z" style="fill:white;fill-rule:nonzero;"/>
        </g>
        <g transform="matrix(12,0,0,12,87.831,319.252)">
            <path d="M0.403,0.01C0.314,0.01 0.249,-0.008 0.209,-0.044C0.17,-0.08 0.15,-0.137 0.15,-0.216L0.15,-0.396L0.026,-0.396L0.026,-0.518L0.15,-0.518L0.15,-0.674L0.282,-0.674L0.282,-0.518L0.511,-0.518L0.511,-0.396L0.282,-0.396L0.282,-0.229C0.282,-0.189 0.292,-0.16 0.312,-0.143C0.333,-0.125 0.366,-0.116 0.413,-0.116C0.428,-0.116 0.444,-0.117 0.461,-0.118C0.478,-0.12 0.497,-0.123 0.519,-0.125L0.531,-0.002C0.509,0.002 0.488,0.005 0.468,0.007C0.448,0.009 0.426,0.01 0.403,0.01Z" style="fill:white;fill-rule:nonzero;"/>
        </g>
        <g transform="matrix(12,0,0,12,94.8622,319.252)">
            <path d="M0.388,0.005L0.38,-0.109L0.368,-0.109C0.363,-0.07 0.347,-0.04 0.321,-0.02C0.294,-0 0.258,0.01 0.213,0.01C0.158,0.01 0.115,-0.004 0.084,-0.031C0.054,-0.058 0.039,-0.096 0.039,-0.146C0.039,-0.204 0.059,-0.248 0.099,-0.279C0.139,-0.31 0.195,-0.326 0.269,-0.326C0.291,-0.326 0.31,-0.325 0.326,-0.323C0.343,-0.322 0.359,-0.319 0.375,-0.315L0.375,-0.317C0.375,-0.345 0.363,-0.365 0.34,-0.378C0.316,-0.391 0.281,-0.398 0.234,-0.399L0.102,-0.402L0.112,-0.522L0.225,-0.521C0.318,-0.52 0.388,-0.501 0.434,-0.466C0.479,-0.43 0.502,-0.378 0.502,-0.31L0.502,-0.118L0.574,-0.107L0.574,-0L0.388,0.005ZM0.375,-0.207C0.356,-0.21 0.339,-0.213 0.324,-0.213C0.308,-0.214 0.292,-0.214 0.275,-0.214C0.207,-0.214 0.173,-0.195 0.173,-0.156C0.173,-0.12 0.197,-0.102 0.246,-0.102C0.274,-0.102 0.297,-0.107 0.316,-0.117C0.335,-0.127 0.35,-0.14 0.359,-0.156C0.369,-0.173 0.374,-0.189 0.375,-0.207Z" style="fill:white;fill-rule:nonzero;"/>
        </g>
        <g transform="matrix(12,0,0,12,101.893,319.252)">
            <path d="M0.403,0.01C0.314,0.01 0.249,-0.008 0.209,-0.044C0.17,-0.08 0.15,-0.137 0.15,-0.216L0.15,-0.396L0.026,-0.396L0.026,-0.518L0.15,-0.518L0.15,-0.674L0.282,-0.674L0.282,-0.518L0.511,-0.518L0.511,-0.396L0.282,-0.396L0.282,-0.229C0.282,-0.189 0.292,-0.16 0.312,-0.143C0.333,-0.125 0.366,-0.116 0.413,-0.116C0.428,-0.116 0.444,-0.117 0.461,-0.118C0.478,-0.12 0.497,-0.123 0.519,-0.125L0.531,-0.002C0.509,0.002 0.488,0.005 0.468,0.007C0.448,0.009 0.426,0.01 0.403,0.01Z" style="fill:white;fill-rule:nonzero;"/>
        </g>
        <g transform="matrix(12,0,0,12,108.925,319.252)">
            <path d="M0.07,-0L0.07,-0.122L0.261,-0.122L0.261,-0.396L0.099,-0.396L0.099,-0.518L0.393,-0.518L0.393,-0.122L0.546,-0.122L0.546,-0L0.07,-0ZM0.321,-0.587C0.296,-0.587 0.276,-0.595 0.26,-0.611C0.245,-0.626 0.237,-0.647 0.237,-0.672C0.237,-0.697 0.245,-0.717 0.26,-0.733C0.276,-0.749 0.296,-0.756 0.321,-0.756C0.346,-0.756 0.367,-0.749 0.382,-0.733C0.398,-0.717 0.406,-0.697 0.406,-0.672C0.406,-0.647 0.398,-0.626 0.382,-0.611C0.367,-0.595 0.346,-0.587 0.321,-0.587Z" style="fill:white;fill-rule:nonzero;"/>
        </g>
        <g transform="matrix(12,0,0,12,115.956,319.252)">
            <path d="M0.354,0.01C0.259,0.01 0.187,-0.013 0.135,-0.06C0.084,-0.106 0.058,-0.173 0.058,-0.26C0.058,-0.344 0.082,-0.41 0.128,-0.457C0.175,-0.504 0.242,-0.527 0.329,-0.527C0.382,-0.527 0.428,-0.517 0.467,-0.496C0.505,-0.475 0.532,-0.446 0.548,-0.408L0.452,-0.332C0.422,-0.378 0.38,-0.402 0.325,-0.402C0.285,-0.402 0.254,-0.39 0.232,-0.366C0.209,-0.342 0.198,-0.309 0.198,-0.265C0.198,-0.216 0.213,-0.179 0.242,-0.154C0.271,-0.128 0.312,-0.116 0.365,-0.116C0.389,-0.116 0.412,-0.117 0.435,-0.119C0.459,-0.121 0.481,-0.125 0.503,-0.128L0.517,-0.005C0.491,0.001 0.464,0.005 0.436,0.007C0.408,0.009 0.38,0.01 0.354,0.01Z" style="fill:white;fill-rule:nonzero;"/>
        </g>
        <g transform="matrix(12,0,0,12,122.987,319.252)">
            <path d="M0.039,0.093L0.417,-0.786L0.552,-0.786L0.173,0.093L0.039,0.093Z" style="fill:white;fill-rule:nonzero;"/>
        </g>
    </g>
</svg>
