<?xml version="1.0" encoding="UTF-8" standalone="no"?>
<!DOCTYPE svg PUBLIC "-//W3C//DTD SVG 1.1//EN" "http://www.w3.org/Graphics/SVG/1.1/DTD/svg11.dtd">
<svg width="100%" height="100%" viewBox="0 0 1000 600" version="1.1" xmlns="http://www.w3.org/2000/svg" xmlns:xlink="http://www.w3.org/1999/xlink" xml:space="preserve" xmlns:serif="http://www.serif.com/" style="fill-rule:evenodd;clip-rule:evenodd;stroke-linecap:round;stroke-linejoin:round;">
    <g id="IDE-back" serif:id="IDE back" transform="matrix(1.39017,0,0,1.17188,144.115,5.68434e-14)">
        <rect x="0" y="0" width="512" height="512" style="fill:rgb(41,46,53);"/>
    </g>
    <g transform="matrix(1.60089,0,0,1.60089,120.383,13.7001)">
        <g transform="matrix(13.7424,0,0,13.7424,32.6904,96.4205)">
            <path d="M0.08,-0L0.19,-0L0.19,-0.275L0.346,-0.275L0.494,-0L0.619,-0L0.457,-0.294C0.547,-0.327 0.591,-0.402 0.591,-0.499C0.591,-0.633 0.508,-0.727 0.339,-0.727L0.08,-0.727L0.08,-0ZM0.19,-0.37L0.19,-0.633L0.327,-0.633C0.436,-0.633 0.48,-0.582 0.48,-0.499C0.48,-0.417 0.436,-0.37 0.329,-0.37L0.19,-0.37Z" style="fill:rgb(18,194,233);fill-rule:nonzero;"/>
        </g>
        <g transform="matrix(13.7424,0,0,13.7424,41.4599,96.4205)">
            <path d="M0.306,0.011C0.425,0.011 0.51,-0.048 0.534,-0.136L0.433,-0.154C0.414,-0.103 0.368,-0.077 0.308,-0.077C0.217,-0.077 0.156,-0.136 0.153,-0.241L0.54,-0.241L0.54,-0.278C0.54,-0.475 0.423,-0.553 0.299,-0.553C0.147,-0.553 0.047,-0.437 0.047,-0.269C0.047,-0.1 0.146,0.011 0.306,0.011ZM0.153,-0.32C0.157,-0.398 0.213,-0.465 0.3,-0.465C0.382,-0.465 0.436,-0.404 0.436,-0.32L0.153,-0.32Z" style="fill:rgb(18,194,233);fill-rule:nonzero;"/>
        </g>
        <g transform="matrix(13.7424,0,0,13.7424,49.5316,96.4205)">
            <path d="M0.44,0.205L0.546,0.205L0.546,-0.545L0.442,-0.545L0.442,-0.457L0.433,-0.457C0.414,-0.491 0.378,-0.553 0.276,-0.553C0.145,-0.553 0.048,-0.449 0.048,-0.272C0.048,-0.095 0.143,0.011 0.276,0.011C0.375,0.011 0.414,-0.05 0.433,-0.085L0.44,-0.085L0.44,0.205ZM0.299,-0.08C0.204,-0.08 0.155,-0.163 0.155,-0.273C0.155,-0.381 0.203,-0.462 0.299,-0.462C0.392,-0.462 0.441,-0.387 0.441,-0.273C0.441,-0.158 0.391,-0.08 0.299,-0.08Z" style="fill:rgb(18,194,233);fill-rule:nonzero;"/>
        </g>
        <g transform="matrix(13.7424,0,0,13.7424,58.0133,96.4205)">
            <path d="M0.417,-0.226C0.417,-0.134 0.348,-0.089 0.289,-0.089C0.223,-0.089 0.178,-0.137 0.178,-0.211L0.178,-0.545L0.071,-0.545L0.071,-0.199C0.071,-0.063 0.146,0.007 0.25,0.007C0.332,0.007 0.388,-0.036 0.413,-0.094L0.419,-0.094L0.419,-0L0.523,-0L0.523,-0.545L0.417,-0.545L0.417,-0.226Z" style="fill:rgb(18,194,233);fill-rule:nonzero;"/>
        </g>
        <g transform="matrix(13.7424,0,0,13.7424,66.1825,96.4205)">
            <path d="M0.306,0.011C0.425,0.011 0.51,-0.048 0.534,-0.136L0.433,-0.154C0.414,-0.103 0.368,-0.077 0.308,-0.077C0.217,-0.077 0.156,-0.136 0.153,-0.241L0.54,-0.241L0.54,-0.278C0.54,-0.475 0.423,-0.553 0.299,-0.553C0.147,-0.553 0.047,-0.437 0.047,-0.269C0.047,-0.1 0.146,0.011 0.306,0.011ZM0.153,-0.32C0.157,-0.398 0.213,-0.465 0.3,-0.465C0.382,-0.465 0.436,-0.404 0.436,-0.32L0.153,-0.32ZM0.368,-0.611L0.464,-0.611L0.464,-0.616L0.339,-0.767L0.251,-0.767L0.126,-0.616L0.126,-0.611L0.222,-0.611L0.295,-0.706L0.368,-0.611Z" style="fill:rgb(18,194,233);fill-rule:nonzero;"/>
        </g>
        <g transform="matrix(13.7424,0,0,13.7424,74.2542,96.4205)">
            <path d="M0.326,-0.545L0.214,-0.545L0.214,-0.676L0.108,-0.676L0.108,-0.545L0.028,-0.545L0.028,-0.46L0.108,-0.46L0.108,-0.138C0.108,-0.039 0.183,0.009 0.267,0.007C0.301,0.007 0.324,0 0.336,-0.004L0.317,-0.092C0.31,-0.091 0.297,-0.087 0.279,-0.087C0.245,-0.087 0.214,-0.099 0.214,-0.16L0.214,-0.46L0.326,-0.46L0.326,-0.545Z" style="fill:rgb(18,194,233);fill-rule:nonzero;"/>
        </g>
        <g transform="matrix(13.7424,0,0,13.7424,79.2856,96.4205)">
            <path d="M0.306,0.011C0.425,0.011 0.51,-0.048 0.534,-0.136L0.433,-0.154C0.414,-0.103 0.368,-0.077 0.308,-0.077C0.217,-0.077 0.156,-0.136 0.153,-0.241L0.54,-0.241L0.54,-0.278C0.54,-0.475 0.423,-0.553 0.299,-0.553C0.147,-0.553 0.047,-0.437 0.047,-0.269C0.047,-0.1 0.146,0.011 0.306,0.011ZM0.153,-0.32C0.157,-0.398 0.213,-0.465 0.3,-0.465C0.382,-0.465 0.436,-0.404 0.436,-0.32L0.153,-0.32Z" style="fill:rgb(18,194,233);fill-rule:nonzero;"/>
        </g>
        <g transform="matrix(13.7424,0,0,13.7424,40.9329,110.163)">
            <path d="M0.047,-0L0.244,-0L0.244,-0.284L0.506,-0.284L0.506,-0L0.703,-0L0.703,-0.727L0.506,-0.727L0.506,-0.443L0.244,-0.443L0.244,-0.727L0.047,-0.727L0.047,-0Z" style="fill:rgb(18,194,233);fill-rule:nonzero;"/>
        </g>
        <g transform="matrix(13.7424,0,0,13.7424,51.2397,110.163)">
            <path d="M0.027,-0.568L0.246,-0.568L0.246,-0L0.44,-0L0.44,-0.568L0.659,-0.568L0.659,-0.727L0.027,-0.727L0.027,-0.568Z" style="fill:rgb(18,194,233);fill-rule:nonzero;"/>
        </g>
        <g transform="matrix(13.7424,0,0,13.7424,60.668,110.163)">
            <path d="M0.027,-0.568L0.246,-0.568L0.246,-0L0.44,-0L0.44,-0.568L0.659,-0.568L0.659,-0.727L0.027,-0.727L0.027,-0.568Z" style="fill:rgb(18,194,233);fill-rule:nonzero;"/>
        </g>
        <g transform="matrix(13.7424,0,0,13.7424,70.0964,110.163)">
            <path d="M0.047,-0L0.244,-0L0.244,-0.216L0.354,-0.216C0.52,-0.216 0.631,-0.314 0.631,-0.47C0.631,-0.625 0.522,-0.727 0.361,-0.727L0.047,-0.727L0.047,-0ZM0.244,-0.369L0.244,-0.57L0.314,-0.57C0.383,-0.57 0.425,-0.533 0.425,-0.47C0.425,-0.408 0.383,-0.369 0.314,-0.369L0.244,-0.369Z" style="fill:rgb(18,194,233);fill-rule:nonzero;"/>
        </g>
    </g>
    <g transform="matrix(1.60089,0,0,1.60089,103.15,116.877)">
        <g transform="matrix(13.7424,0,0,13.7424,28.9571,96.4205)">
            <path d="M0.477,-0.727L0.477,-0.278C0.477,-0.211 0.429,-0.162 0.361,-0.162C0.293,-0.162 0.244,-0.211 0.244,-0.278L0.244,-0.727L0.047,-0.727L0.047,-0.261C0.047,-0.095 0.173,0.009 0.361,0.009C0.548,0.009 0.675,-0.095 0.675,-0.261L0.675,-0.727L0.477,-0.727Z" style="fill:rgb(18,194,233);fill-rule:nonzero;"/>
        </g>
        <g transform="matrix(13.7424,0,0,13.7424,38.8735,96.4205)">
            <path d="M0.047,-0L0.244,-0L0.244,-0.24L0.312,-0.24L0.44,-0L0.655,-0L0.507,-0.271C0.585,-0.309 0.631,-0.379 0.631,-0.48C0.631,-0.635 0.522,-0.727 0.361,-0.727L0.047,-0.727L0.047,-0ZM0.244,-0.393L0.244,-0.57L0.314,-0.57C0.383,-0.57 0.425,-0.543 0.425,-0.48C0.425,-0.418 0.383,-0.393 0.314,-0.393L0.244,-0.393Z" style="fill:rgb(18,194,233);fill-rule:nonzero;"/>
        </g>
        <g transform="matrix(13.7424,0,0,13.7424,48.0481,96.4205)">
            <path d="M0.047,-0L0.538,-0L0.538,-0.159L0.244,-0.159L0.244,-0.727L0.047,-0.727L0.047,-0Z" style="fill:rgb(18,194,233);fill-rule:nonzero;"/>
        </g>
        <g transform="matrix(13.7424,0,0,13.7424,59.5358,96.4205)">
            <path d="M0.276,0.011C0.375,0.011 0.414,-0.05 0.433,-0.085L0.442,-0.085L0.442,-0L0.546,-0L0.546,-0.727L0.44,-0.727L0.44,-0.457L0.433,-0.457C0.414,-0.491 0.378,-0.553 0.276,-0.553C0.145,-0.553 0.048,-0.449 0.048,-0.272C0.048,-0.095 0.143,0.011 0.276,0.011ZM0.299,-0.08C0.204,-0.08 0.155,-0.163 0.155,-0.273C0.155,-0.381 0.203,-0.462 0.299,-0.462C0.392,-0.462 0.441,-0.387 0.441,-0.273C0.441,-0.158 0.391,-0.08 0.299,-0.08Z" style="fill:rgb(18,194,233);fill-rule:nonzero;"/>
        </g>
        <g transform="matrix(13.7424,0,0,13.7424,68.1346,96.4205)">
            <path d="M0.306,0.011C0.425,0.011 0.51,-0.048 0.534,-0.136L0.433,-0.154C0.414,-0.103 0.368,-0.077 0.308,-0.077C0.217,-0.077 0.156,-0.136 0.153,-0.241L0.54,-0.241L0.54,-0.278C0.54,-0.475 0.423,-0.553 0.299,-0.553C0.147,-0.553 0.047,-0.437 0.047,-0.269C0.047,-0.1 0.146,0.011 0.306,0.011ZM0.153,-0.32C0.157,-0.398 0.213,-0.465 0.3,-0.465C0.382,-0.465 0.436,-0.404 0.436,-0.32L0.153,-0.32Z" style="fill:rgb(18,194,233);fill-rule:nonzero;"/>
        </g>
        <g transform="matrix(13.7424,0,0,13.7424,79.8468,96.4205)">
            <rect x="0.071" y="-0.727" width="0.106" height="0.727" style="fill:rgb(18,194,233);fill-rule:nonzero;"/>
        </g>
        <g transform="matrix(13.7424,0,0,13.7424,83.2678,96.4205)">
            <path d="M0.23,0.012C0.32,0.012 0.371,-0.034 0.391,-0.075L0.396,-0.075L0.396,-0L0.499,-0L0.499,-0.362C0.499,-0.521 0.374,-0.553 0.288,-0.553C0.189,-0.553 0.098,-0.513 0.062,-0.413L0.162,-0.391C0.178,-0.429 0.218,-0.467 0.289,-0.467C0.358,-0.467 0.393,-0.431 0.393,-0.369L0.393,-0.366C0.393,-0.328 0.353,-0.328 0.255,-0.317C0.152,-0.305 0.046,-0.278 0.046,-0.154C0.046,-0.047 0.126,0.012 0.23,0.012ZM0.253,-0.073C0.193,-0.073 0.15,-0.1 0.15,-0.153C0.15,-0.21 0.2,-0.23 0.262,-0.238C0.296,-0.243 0.378,-0.252 0.393,-0.267L0.393,-0.197C0.393,-0.132 0.342,-0.073 0.253,-0.073Z" style="fill:rgb(18,194,233);fill-rule:nonzero;"/>
        </g>
        <g transform="matrix(13.7424,0,0,13.7424,34.5717,108.914)">
            <path d="M0.071,-0L0.178,-0L0.178,-0.333C0.178,-0.404 0.233,-0.456 0.308,-0.456C0.33,-0.456 0.355,-0.452 0.363,-0.45L0.363,-0.551C0.353,-0.553 0.332,-0.554 0.318,-0.554C0.254,-0.554 0.2,-0.517 0.18,-0.459L0.174,-0.459L0.174,-0.545L0.071,-0.545L0.071,-0Z" style="fill:rgb(18,194,233);fill-rule:nonzero;"/>
        </g>
        <g transform="matrix(13.7424,0,0,13.7424,39.5787,108.914)">
            <path d="M0.306,0.011C0.425,0.011 0.51,-0.048 0.534,-0.136L0.433,-0.154C0.414,-0.103 0.368,-0.077 0.308,-0.077C0.217,-0.077 0.156,-0.136 0.153,-0.241L0.54,-0.241L0.54,-0.278C0.54,-0.475 0.423,-0.553 0.299,-0.553C0.147,-0.553 0.047,-0.437 0.047,-0.269C0.047,-0.1 0.146,0.011 0.306,0.011ZM0.153,-0.32C0.157,-0.398 0.213,-0.465 0.3,-0.465C0.382,-0.465 0.436,-0.404 0.436,-0.32L0.153,-0.32Z" style="fill:rgb(18,194,233);fill-rule:nonzero;"/>
        </g>
        <g transform="matrix(13.7424,0,0,13.7424,47.6503,108.914)">
            <path d="M0.44,0.205L0.546,0.205L0.546,-0.545L0.442,-0.545L0.442,-0.457L0.433,-0.457C0.414,-0.491 0.378,-0.553 0.276,-0.553C0.145,-0.553 0.048,-0.449 0.048,-0.272C0.048,-0.095 0.143,0.011 0.276,0.011C0.375,0.011 0.414,-0.05 0.433,-0.085L0.44,-0.085L0.44,0.205ZM0.299,-0.08C0.204,-0.08 0.155,-0.163 0.155,-0.273C0.155,-0.381 0.203,-0.462 0.299,-0.462C0.392,-0.462 0.441,-0.387 0.441,-0.273C0.441,-0.158 0.391,-0.08 0.299,-0.08Z" style="fill:rgb(18,194,233);fill-rule:nonzero;"/>
        </g>
        <g transform="matrix(13.7424,0,0,13.7424,56.132,108.914)">
            <path d="M0.417,-0.226C0.417,-0.134 0.348,-0.089 0.289,-0.089C0.223,-0.089 0.178,-0.137 0.178,-0.211L0.178,-0.545L0.071,-0.545L0.071,-0.199C0.071,-0.063 0.146,0.007 0.25,0.007C0.332,0.007 0.388,-0.036 0.413,-0.094L0.419,-0.094L0.419,-0L0.523,-0L0.523,-0.545L0.417,-0.545L0.417,-0.226Z" style="fill:rgb(18,194,233);fill-rule:nonzero;"/>
        </g>
        <g transform="matrix(13.7424,0,0,13.7424,64.3013,108.914)">
            <path d="M0.306,0.011C0.425,0.011 0.51,-0.048 0.534,-0.136L0.433,-0.154C0.414,-0.103 0.368,-0.077 0.308,-0.077C0.217,-0.077 0.156,-0.136 0.153,-0.241L0.54,-0.241L0.54,-0.278C0.54,-0.475 0.423,-0.553 0.299,-0.553C0.147,-0.553 0.047,-0.437 0.047,-0.269C0.047,-0.1 0.146,0.011 0.306,0.011ZM0.153,-0.32C0.157,-0.398 0.213,-0.465 0.3,-0.465C0.382,-0.465 0.436,-0.404 0.436,-0.32L0.153,-0.32ZM0.368,-0.611L0.464,-0.611L0.464,-0.616L0.339,-0.767L0.251,-0.767L0.126,-0.616L0.126,-0.611L0.222,-0.611L0.295,-0.706L0.368,-0.611Z" style="fill:rgb(18,194,233);fill-rule:nonzero;"/>
        </g>
        <g transform="matrix(13.7424,0,0,13.7424,72.373,108.914)">
            <path d="M0.326,-0.545L0.214,-0.545L0.214,-0.676L0.108,-0.676L0.108,-0.545L0.028,-0.545L0.028,-0.46L0.108,-0.46L0.108,-0.138C0.108,-0.039 0.183,0.009 0.267,0.007C0.301,0.007 0.324,0 0.336,-0.004L0.317,-0.092C0.31,-0.091 0.297,-0.087 0.279,-0.087C0.245,-0.087 0.214,-0.099 0.214,-0.16L0.214,-0.46L0.326,-0.46L0.326,-0.545Z" style="fill:rgb(18,194,233);fill-rule:nonzero;"/>
        </g>
        <g transform="matrix(13.7424,0,0,13.7424,77.4043,108.914)">
            <path d="M0.306,0.011C0.425,0.011 0.51,-0.048 0.534,-0.136L0.433,-0.154C0.414,-0.103 0.368,-0.077 0.308,-0.077C0.217,-0.077 0.156,-0.136 0.153,-0.241L0.54,-0.241L0.54,-0.278C0.54,-0.475 0.423,-0.553 0.299,-0.553C0.147,-0.553 0.047,-0.437 0.047,-0.269C0.047,-0.1 0.146,0.011 0.306,0.011ZM0.153,-0.32C0.157,-0.398 0.213,-0.465 0.3,-0.465C0.382,-0.465 0.436,-0.404 0.436,-0.32L0.153,-0.32Z" style="fill:rgb(18,194,233);fill-rule:nonzero;"/>
        </g>
    </g>
    <g transform="matrix(1.60089,0,0,1.60089,684.971,13.7001)">
        <g transform="matrix(13.7424,0,0,13.7424,31.402,96.4205)">
            <path d="M0.08,-0L0.19,-0L0.19,-0.275L0.346,-0.275L0.494,-0L0.619,-0L0.457,-0.294C0.547,-0.327 0.591,-0.402 0.591,-0.499C0.591,-0.633 0.508,-0.727 0.339,-0.727L0.08,-0.727L0.08,-0ZM0.19,-0.37L0.19,-0.633L0.327,-0.633C0.436,-0.633 0.48,-0.582 0.48,-0.499C0.48,-0.417 0.436,-0.37 0.329,-0.37L0.19,-0.37Z" style="fill:rgb(140,235,53);fill-rule:nonzero;"/>
        </g>
        <g transform="matrix(13.7424,0,0,13.7424,40.1716,96.4205)">
            <path d="M0.306,0.011C0.425,0.011 0.51,-0.048 0.534,-0.136L0.433,-0.154C0.414,-0.103 0.368,-0.077 0.308,-0.077C0.217,-0.077 0.156,-0.136 0.153,-0.241L0.54,-0.241L0.54,-0.278C0.54,-0.475 0.423,-0.553 0.299,-0.553C0.147,-0.553 0.047,-0.437 0.047,-0.269C0.047,-0.1 0.146,0.011 0.306,0.011ZM0.153,-0.32C0.157,-0.398 0.213,-0.465 0.3,-0.465C0.382,-0.465 0.436,-0.404 0.436,-0.32L0.153,-0.32ZM0.251,-0.618L0.336,-0.618L0.446,-0.782L0.334,-0.782L0.251,-0.618Z" style="fill:rgb(140,235,53);fill-rule:nonzero;"/>
        </g>
        <g transform="matrix(13.7424,0,0,13.7424,48.2433,96.4205)">
            <path d="M0.071,0.205L0.178,0.205L0.178,-0.085L0.184,-0.085C0.203,-0.05 0.242,0.011 0.342,0.011C0.474,0.011 0.57,-0.095 0.57,-0.272C0.57,-0.449 0.472,-0.553 0.341,-0.553C0.239,-0.553 0.203,-0.491 0.184,-0.457L0.175,-0.457L0.175,-0.545L0.071,-0.545L0.071,0.205ZM0.175,-0.273C0.175,-0.387 0.225,-0.462 0.318,-0.462C0.414,-0.462 0.462,-0.381 0.462,-0.273C0.462,-0.163 0.413,-0.08 0.318,-0.08C0.227,-0.08 0.175,-0.158 0.175,-0.273Z" style="fill:rgb(140,235,53);fill-rule:nonzero;"/>
        </g>
        <g transform="matrix(13.7424,0,0,13.7424,56.7249,96.4205)">
            <path d="M0.301,0.011C0.455,0.011 0.555,-0.102 0.555,-0.27C0.555,-0.44 0.455,-0.553 0.301,-0.553C0.147,-0.553 0.047,-0.44 0.047,-0.27C0.047,-0.102 0.147,0.011 0.301,0.011ZM0.301,-0.078C0.201,-0.078 0.154,-0.166 0.154,-0.271C0.154,-0.375 0.201,-0.464 0.301,-0.464C0.401,-0.464 0.448,-0.375 0.448,-0.271C0.448,-0.166 0.401,-0.078 0.301,-0.078Z" style="fill:rgb(140,235,53);fill-rule:nonzero;"/>
        </g>
        <g transform="matrix(13.7424,0,0,13.7424,65.0016,96.4205)">
            <path d="M0.178,-0.324C0.178,-0.411 0.231,-0.461 0.305,-0.461C0.377,-0.461 0.42,-0.413 0.42,-0.334L0.42,-0L0.527,-0L0.527,-0.347C0.527,-0.482 0.452,-0.553 0.341,-0.553C0.259,-0.553 0.205,-0.515 0.18,-0.457L0.173,-0.457L0.173,-0.545L0.071,-0.545L0.071,-0L0.178,-0L0.178,-0.324Z" style="fill:rgb(140,235,53);fill-rule:nonzero;"/>
        </g>
        <g transform="matrix(13.7424,0,0,13.7424,73.2099,96.4205)">
            <path d="M0.48,-0.412C0.458,-0.497 0.392,-0.553 0.274,-0.553C0.151,-0.553 0.063,-0.488 0.063,-0.391C0.063,-0.314 0.11,-0.262 0.212,-0.239L0.305,-0.219C0.357,-0.207 0.382,-0.184 0.382,-0.15C0.382,-0.108 0.337,-0.075 0.267,-0.075C0.203,-0.075 0.163,-0.102 0.15,-0.156L0.047,-0.14C0.065,-0.043 0.145,0.011 0.268,0.011C0.399,0.011 0.491,-0.059 0.491,-0.158C0.491,-0.235 0.442,-0.282 0.342,-0.305L0.255,-0.325C0.195,-0.339 0.169,-0.36 0.169,-0.397C0.169,-0.439 0.214,-0.468 0.275,-0.468C0.341,-0.468 0.371,-0.432 0.384,-0.395L0.48,-0.412Z" style="fill:rgb(140,235,53);fill-rule:nonzero;"/>
        </g>
        <g transform="matrix(13.7424,0,0,13.7424,80.574,96.4205)">
            <path d="M0.306,0.011C0.425,0.011 0.51,-0.048 0.534,-0.136L0.433,-0.154C0.414,-0.103 0.368,-0.077 0.308,-0.077C0.217,-0.077 0.156,-0.136 0.153,-0.241L0.54,-0.241L0.54,-0.278C0.54,-0.475 0.423,-0.553 0.299,-0.553C0.147,-0.553 0.047,-0.437 0.047,-0.269C0.047,-0.1 0.146,0.011 0.306,0.011ZM0.153,-0.32C0.157,-0.398 0.213,-0.465 0.3,-0.465C0.382,-0.465 0.436,-0.404 0.436,-0.32L0.153,-0.32Z" style="fill:rgb(140,235,53);fill-rule:nonzero;"/>
        </g>
        <g transform="matrix(13.7424,0,0,13.7424,40.9329,110.163)">
            <path d="M0.047,-0L0.244,-0L0.244,-0.284L0.506,-0.284L0.506,-0L0.703,-0L0.703,-0.727L0.506,-0.727L0.506,-0.443L0.244,-0.443L0.244,-0.727L0.047,-0.727L0.047,-0Z" style="fill:rgb(140,235,53);fill-rule:nonzero;"/>
        </g>
        <g transform="matrix(13.7424,0,0,13.7424,51.2397,110.163)">
            <path d="M0.027,-0.568L0.246,-0.568L0.246,-0L0.44,-0L0.44,-0.568L0.659,-0.568L0.659,-0.727L0.027,-0.727L0.027,-0.568Z" style="fill:rgb(140,235,53);fill-rule:nonzero;"/>
        </g>
        <g transform="matrix(13.7424,0,0,13.7424,60.668,110.163)">
            <path d="M0.027,-0.568L0.246,-0.568L0.246,-0L0.44,-0L0.44,-0.568L0.659,-0.568L0.659,-0.727L0.027,-0.727L0.027,-0.568Z" style="fill:rgb(140,235,53);fill-rule:nonzero;"/>
        </g>
        <g transform="matrix(13.7424,0,0,13.7424,70.0964,110.163)">
            <path d="M0.047,-0L0.244,-0L0.244,-0.216L0.354,-0.216C0.52,-0.216 0.631,-0.314 0.631,-0.47C0.631,-0.625 0.522,-0.727 0.361,-0.727L0.047,-0.727L0.047,-0ZM0.244,-0.369L0.244,-0.57L0.314,-0.57C0.383,-0.57 0.425,-0.533 0.425,-0.47C0.425,-0.408 0.383,-0.369 0.314,-0.369L0.244,-0.369Z" style="fill:rgb(140,235,53);fill-rule:nonzero;"/>
        </g>
    </g>
    <g transform="matrix(1.60089,0,0,1.60089,215.371,-46.619)">
        <g transform="matrix(11.2438,0,0,11.2438,41.5176,96.4205)">
            <path d="M0.676,-0.727L0.479,-0.727L0.479,-0.347L0.473,-0.347L0.214,-0.727L0.047,-0.727L0.047,-0L0.244,-0L0.244,-0.382L0.249,-0.382L0.511,-0L0.676,-0L0.676,-0.727Z" style="fill:white;fill-rule:nonzero;"/>
        </g>
        <g transform="matrix(11.2438,0,0,11.2438,49.7747,96.4205)">
            <path d="M0.236,-0L0.278,-0.139L0.518,-0.139L0.56,-0L0.773,-0L0.533,-0.727L0.263,-0.727L0.023,-0L0.236,-0ZM0.322,-0.287L0.395,-0.527L0.401,-0.527L0.473,-0.287L0.322,-0.287Z" style="fill:white;fill-rule:nonzero;"/>
        </g>
        <g transform="matrix(11.2438,0,0,11.2438,57.6645,96.4205)">
            <path d="M0.246,-0.727L0.023,-0.727L0.263,-0L0.533,-0L0.773,-0.727L0.55,-0.727L0.401,-0.214L0.395,-0.214L0.246,-0.727Z" style="fill:white;fill-rule:nonzero;"/>
        </g>
        <g transform="matrix(11.2438,0,0,11.2438,66.7362,96.4205)">
            <rect x="0.047" y="-0.727" width="0.197" height="0.727" style="fill:white;fill-rule:nonzero;"/>
        </g>
        <g transform="matrix(11.2438,0,0,11.2438,70.1381,96.4205)">
            <path d="M0.519,-0.487L0.719,-0.487C0.703,-0.633 0.571,-0.737 0.399,-0.737C0.203,-0.737 0.044,-0.602 0.044,-0.362C0.044,-0.132 0.188,0.01 0.401,0.01C0.591,0.01 0.727,-0.107 0.727,-0.305L0.727,-0.406L0.405,-0.406L0.405,-0.266L0.537,-0.266C0.535,-0.202 0.49,-0.162 0.402,-0.162C0.3,-0.162 0.247,-0.237 0.247,-0.365C0.247,-0.491 0.304,-0.565 0.403,-0.565C0.465,-0.565 0.507,-0.537 0.519,-0.487Z" style="fill:white;fill-rule:nonzero;"/>
        </g>
        <g transform="matrix(11.2438,0,0,11.2438,78.6987,96.4205)">
            <path d="M0.236,-0L0.278,-0.139L0.518,-0.139L0.56,-0L0.773,-0L0.533,-0.727L0.263,-0.727L0.023,-0L0.236,-0ZM0.322,-0.287L0.395,-0.527L0.401,-0.527L0.473,-0.287L0.322,-0.287Z" style="fill:white;fill-rule:nonzero;"/>
        </g>
        <g transform="matrix(11.2438,0,0,11.2438,86.7322,96.4205)">
            <path d="M0.027,-0.568L0.246,-0.568L0.246,-0L0.44,-0L0.44,-0.568L0.659,-0.568L0.659,-0.727L0.027,-0.727L0.027,-0.568Z" style="fill:white;fill-rule:nonzero;"/>
        </g>
        <g transform="matrix(11.2438,0,0,11.2438,94.5741,96.4205)">
            <path d="M0.047,-0L0.57,-0L0.57,-0.159L0.244,-0.159L0.244,-0.284L0.544,-0.284L0.544,-0.443L0.244,-0.443L0.244,-0.568L0.571,-0.568L0.571,-0.727L0.047,-0.727L0.047,-0Z" style="fill:white;fill-rule:nonzero;"/>
        </g>
        <g transform="matrix(11.2438,0,0,11.2438,101.697,96.4205)">
            <path d="M0.477,-0.727L0.477,-0.278C0.477,-0.211 0.429,-0.162 0.361,-0.162C0.293,-0.162 0.244,-0.211 0.244,-0.278L0.244,-0.727L0.047,-0.727L0.047,-0.261C0.047,-0.095 0.173,0.009 0.361,0.009C0.548,0.009 0.675,-0.095 0.675,-0.261L0.675,-0.727L0.477,-0.727Z" style="fill:white;fill-rule:nonzero;"/>
        </g>
        <g transform="matrix(11.2438,0,0,11.2438,109.938,96.4205)">
            <path d="M0.047,-0L0.244,-0L0.244,-0.24L0.312,-0.24L0.44,-0L0.655,-0L0.507,-0.271C0.585,-0.309 0.631,-0.379 0.631,-0.48C0.631,-0.635 0.522,-0.727 0.361,-0.727L0.047,-0.727L0.047,-0ZM0.244,-0.393L0.244,-0.57L0.314,-0.57C0.383,-0.57 0.425,-0.543 0.425,-0.48C0.425,-0.418 0.383,-0.393 0.314,-0.393L0.244,-0.393Z" style="fill:white;fill-rule:nonzero;"/>
        </g>
    </g>
    <g transform="matrix(1.60089,0,0,1.60089,379.665,-46.619)">
        <g transform="matrix(11.2438,0,0,11.2438,39.9684,96.4205)">
            <path d="M0.236,-0L0.278,-0.139L0.518,-0.139L0.56,-0L0.773,-0L0.533,-0.727L0.263,-0.727L0.023,-0L0.236,-0ZM0.322,-0.287L0.395,-0.527L0.401,-0.527L0.473,-0.287L0.322,-0.287Z" style="fill:white;fill-rule:nonzero;"/>
        </g>
        <g transform="matrix(11.2438,0,0,11.2438,49.0401,96.4205)">
            <path d="M0.047,-0L0.244,-0L0.244,-0.216L0.354,-0.216C0.52,-0.216 0.631,-0.314 0.631,-0.47C0.631,-0.625 0.522,-0.727 0.361,-0.727L0.047,-0.727L0.047,-0ZM0.244,-0.369L0.244,-0.57L0.314,-0.57C0.383,-0.57 0.425,-0.533 0.425,-0.47C0.425,-0.408 0.383,-0.369 0.314,-0.369L0.244,-0.369Z" style="fill:white;fill-rule:nonzero;"/>
        </g>
        <g transform="matrix(11.2438,0,0,11.2438,56.5466,96.4205)">
            <path d="M0.047,-0L0.244,-0L0.244,-0.216L0.354,-0.216C0.52,-0.216 0.631,-0.314 0.631,-0.47C0.631,-0.625 0.522,-0.727 0.361,-0.727L0.047,-0.727L0.047,-0ZM0.244,-0.369L0.244,-0.57L0.314,-0.57C0.383,-0.57 0.425,-0.533 0.425,-0.47C0.425,-0.408 0.383,-0.369 0.314,-0.369L0.244,-0.369Z" style="fill:white;fill-rule:nonzero;"/>
        </g>
        <g transform="matrix(11.2438,0,0,11.2438,64.053,96.4205)">
            <path d="M0.047,-0L0.538,-0L0.538,-0.159L0.244,-0.159L0.244,-0.727L0.047,-0.727L0.047,-0Z" style="fill:white;fill-rule:nonzero;"/>
        </g>
        <g transform="matrix(11.2438,0,0,11.2438,70.6013,96.4205)">
            <rect x="0.047" y="-0.727" width="0.197" height="0.727" style="fill:white;fill-rule:nonzero;"/>
        </g>
        <g transform="matrix(11.2438,0,0,11.2438,74.0031,96.4205)">
            <path d="M0.726,-0.455C0.71,-0.635 0.578,-0.737 0.395,-0.737C0.199,-0.737 0.044,-0.607 0.044,-0.364C0.044,-0.122 0.195,0.01 0.395,0.01C0.608,0.01 0.716,-0.138 0.726,-0.261L0.526,-0.263C0.516,-0.201 0.472,-0.162 0.399,-0.162C0.303,-0.162 0.247,-0.23 0.247,-0.364C0.247,-0.49 0.301,-0.565 0.401,-0.565C0.477,-0.565 0.52,-0.521 0.526,-0.455L0.726,-0.455Z" style="fill:white;fill-rule:nonzero;"/>
        </g>
        <g transform="matrix(11.2438,0,0,11.2438,82.5158,96.4205)">
            <path d="M0.236,-0L0.278,-0.139L0.518,-0.139L0.56,-0L0.773,-0L0.533,-0.727L0.263,-0.727L0.023,-0L0.236,-0ZM0.322,-0.287L0.395,-0.527L0.401,-0.527L0.473,-0.287L0.322,-0.287Z" style="fill:white;fill-rule:nonzero;"/>
        </g>
        <g transform="matrix(11.2438,0,0,11.2438,90.5493,96.4205)">
            <path d="M0.027,-0.568L0.246,-0.568L0.246,-0L0.44,-0L0.44,-0.568L0.659,-0.568L0.659,-0.727L0.027,-0.727L0.027,-0.568Z" style="fill:white;fill-rule:nonzero;"/>
        </g>
        <g transform="matrix(11.2438,0,0,11.2438,98.3912,96.4205)">
            <rect x="0.047" y="-0.727" width="0.197" height="0.727" style="fill:white;fill-rule:nonzero;"/>
        </g>
        <g transform="matrix(11.2438,0,0,11.2438,101.793,96.4205)">
            <path d="M0.751,-0.364C0.751,-0.607 0.595,-0.737 0.398,-0.737C0.199,-0.737 0.044,-0.607 0.044,-0.364C0.044,-0.122 0.199,0.01 0.398,0.01C0.595,0.01 0.751,-0.121 0.751,-0.364ZM0.548,-0.364C0.548,-0.233 0.496,-0.162 0.398,-0.162C0.3,-0.162 0.247,-0.233 0.247,-0.364C0.247,-0.494 0.3,-0.565 0.398,-0.565C0.496,-0.565 0.548,-0.494 0.548,-0.364Z" style="fill:white;fill-rule:nonzero;"/>
        </g>
        <g transform="matrix(11.2438,0,0,11.2438,110.865,96.4205)">
            <path d="M0.676,-0.727L0.479,-0.727L0.479,-0.347L0.473,-0.347L0.214,-0.727L0.047,-0.727L0.047,-0L0.244,-0L0.244,-0.382L0.249,-0.382L0.511,-0L0.676,-0L0.676,-0.727Z" style="fill:white;fill-rule:nonzero;"/>
        </g>
    </g>
    <g transform="matrix(1.60089,0,0,1.60089,534.585,-46.619)">
        <g transform="matrix(11.2438,0,0,11.2438,52.4499,96.4205)">
            <path d="M0.439,-0.5L0.628,-0.5C0.627,-0.643 0.517,-0.737 0.341,-0.737C0.168,-0.737 0.046,-0.644 0.047,-0.506C0.047,-0.392 0.125,-0.329 0.254,-0.301L0.327,-0.286C0.408,-0.268 0.435,-0.248 0.436,-0.214C0.435,-0.179 0.403,-0.153 0.339,-0.153C0.264,-0.153 0.219,-0.189 0.216,-0.256L0.028,-0.256C0.029,-0.073 0.153,0.009 0.342,0.009C0.527,0.009 0.637,-0.071 0.638,-0.214C0.637,-0.325 0.571,-0.403 0.411,-0.437L0.351,-0.45C0.282,-0.465 0.251,-0.485 0.253,-0.52C0.253,-0.552 0.28,-0.575 0.341,-0.575C0.405,-0.575 0.435,-0.547 0.439,-0.5Z" style="fill:white;fill-rule:nonzero;"/>
        </g>
        <g transform="matrix(11.2438,0,0,11.2438,60.0682,96.4205)">
            <path d="M0.047,-0L0.57,-0L0.57,-0.159L0.244,-0.159L0.244,-0.284L0.544,-0.284L0.544,-0.443L0.244,-0.443L0.244,-0.568L0.571,-0.568L0.571,-0.727L0.047,-0.727L0.047,-0Z" style="fill:white;fill-rule:nonzero;"/>
        </g>
        <g transform="matrix(11.2438,0,0,11.2438,67.1914,96.4205)">
            <path d="M0.047,-0L0.244,-0L0.244,-0.24L0.312,-0.24L0.44,-0L0.655,-0L0.507,-0.271C0.585,-0.309 0.631,-0.379 0.631,-0.48C0.631,-0.635 0.522,-0.727 0.361,-0.727L0.047,-0.727L0.047,-0ZM0.244,-0.393L0.244,-0.57L0.314,-0.57C0.383,-0.57 0.425,-0.543 0.425,-0.48C0.425,-0.418 0.383,-0.393 0.314,-0.393L0.244,-0.393Z" style="fill:white;fill-rule:nonzero;"/>
        </g>
        <g transform="matrix(11.2438,0,0,11.2438,74.5701,96.4205)">
            <path d="M0.246,-0.727L0.023,-0.727L0.263,-0L0.533,-0L0.773,-0.727L0.55,-0.727L0.401,-0.214L0.395,-0.214L0.246,-0.727Z" style="fill:white;fill-rule:nonzero;"/>
        </g>
        <g transform="matrix(11.2438,0,0,11.2438,83.6418,96.4205)">
            <path d="M0.047,-0L0.57,-0L0.57,-0.159L0.244,-0.159L0.244,-0.284L0.544,-0.284L0.544,-0.443L0.244,-0.443L0.244,-0.568L0.571,-0.568L0.571,-0.727L0.047,-0.727L0.047,-0Z" style="fill:white;fill-rule:nonzero;"/>
        </g>
        <g transform="matrix(11.2438,0,0,11.2438,90.765,96.4205)">
            <path d="M0.477,-0.727L0.477,-0.278C0.477,-0.211 0.429,-0.162 0.361,-0.162C0.293,-0.162 0.244,-0.211 0.244,-0.278L0.244,-0.727L0.047,-0.727L0.047,-0.261C0.047,-0.095 0.173,0.009 0.361,0.009C0.548,0.009 0.675,-0.095 0.675,-0.261L0.675,-0.727L0.477,-0.727Z" style="fill:white;fill-rule:nonzero;"/>
        </g>
        <g transform="matrix(11.2438,0,0,11.2438,99.0061,96.4205)">
            <path d="M0.047,-0L0.244,-0L0.244,-0.24L0.312,-0.24L0.44,-0L0.655,-0L0.507,-0.271C0.585,-0.309 0.631,-0.379 0.631,-0.48C0.631,-0.635 0.522,-0.727 0.361,-0.727L0.047,-0.727L0.047,-0ZM0.244,-0.393L0.244,-0.57L0.314,-0.57C0.383,-0.57 0.425,-0.543 0.425,-0.48C0.425,-0.418 0.383,-0.393 0.314,-0.393L0.244,-0.393Z" style="fill:white;fill-rule:nonzero;"/>
        </g>
    </g>
    <g transform="matrix(1,0,0,1,235.102,0.329309)">
        <g transform="matrix(3.04247,0,0,3.04247,389.777,17.1274)">
            <path d="M10.75,6.5C10.339,6.5 10,6.839 10,7.25C10,7.661 10.339,8 10.75,8L17.25,8C17.661,8 18,7.661 18,7.25C18,6.839 17.661,6.5 17.25,6.5L10.75,6.5ZM6,7.25C6,6.839 6.339,6.5 6.75,6.5L7.25,6.5C7.661,6.5 8,6.839 8,7.25C8,7.661 7.661,8 7.25,8L6.75,8C6.339,8 6,7.661 6,7.25ZM10,16.25C10,15.839 10.339,15.5 10.75,15.5L17.25,15.5C17.661,15.5 18,15.839 18,16.25C18,16.661 17.661,17 17.25,17L10.75,17C10.339,17 10,16.661 10,16.25ZM6.75,15.5C6.339,15.5 6,15.839 6,16.25C6,16.661 6.339,17 6.75,17L7.25,17C7.661,17 8,16.661 8,16.25C8,15.839 7.661,15.5 7.25,15.5L6.75,15.5Z" style="fill:white;fill-rule:nonzero;"/>
        </g>
        <g transform="matrix(3.04247,0,0,3.04247,389.777,17.1274)">
            <path d="M3.25,2C2.29,2 1.5,2.79 1.5,3.75L1.5,10.75C1.5,11.122 1.616,11.466 1.814,11.75C1.609,12.043 1.5,12.392 1.5,12.75L1.5,19.75C1.5,20.716 2.284,21.5 3.25,21.5L20.75,21.5C21.71,21.5 22.5,20.71 22.5,19.75L22.5,12.75C22.5,12.378 22.384,12.034 22.186,11.75C22.384,11.466 22.5,11.122 22.5,10.75L22.5,3.75C22.5,2.79 21.71,2 20.75,2L3.25,2ZM3.25,11L20.75,11C20.887,11 21,10.887 21,10.75L21,3.75C21,3.613 20.887,3.5 20.75,3.5L3.25,3.5C3.113,3.5 3,3.613 3,3.75L3,10.75C3,10.888 3.112,11 3.25,11ZM3.25,12.5C3.113,12.5 3,12.613 3,12.75L3,19.75C3,19.888 3.112,20 3.25,20L20.75,20C20.887,20 21,19.887 21,19.75L21,12.75C21,12.613 20.887,12.5 20.75,12.5L3.25,12.5Z" style="fill:white;"/>
        </g>
    </g>
    <g transform="matrix(3.09539,0,0,3.09539,467.855,16.061)">
        <path d="M12,18L12.01,18M8,21L16,21C17.097,21 18,20.097 18,19L18,5C18,3.903 17.097,3 16,3L8,3C6.903,3 6,3.903 6,5L6,19C6,20.097 6.903,21 8,21Z" style="fill:none;fill-rule:nonzero;stroke:white;stroke-width:1.5px;"/>
    </g>
    <g transform="matrix(3.29601,0,0,3.29601,303.539,13.6536)">
        <path d="M9,4.5L10.5,4.5L10.5,6L9,6L9,4.5ZM6,4.5L7.5,4.5L7.5,6L6,6L6,4.5ZM3,4.5L4.5,4.5L4.5,6L3,6L3,4.5ZM21,19.5L3,19.5L3,7.5L21,7.5L21,19.5ZM21,6L12,6L12,4.5L21,4.5L21,6ZM22.5,4.5C22.5,3.675 21.825,3 21,3L3,3C2.175,3 1.5,3.675 1.5,4.5L1.5,19.5C1.5,20.325 2.175,21 3,21L21,21C21.825,21 22.5,20.325 22.5,19.5L22.5,4.5Z" style="fill:white;"/>
    </g>
    <g transform="matrix(1,0,0,2.38417,5,-90.4218)">
        <rect x="251.201" y="129.603" width="472.837" height="67.367" style="fill:white;stroke:white;stroke-width:4.87px;stroke-linecap:square;stroke-linejoin:miter;stroke-miterlimit:1.5;"/>
    </g>
    <g transform="matrix(7.24379e-17,-1.183,1,6.12323e-17,558.534,635.25)">
        <path d="M177.532,151.025L177.532,138.995L407.269,138.995L397.826,127.824L412.354,127.824L426.882,145.01L412.354,162.197L397.826,162.197L407.269,151.025L177.532,151.025Z" style="fill:rgb(140,235,53);"/>
    </g>
    <g transform="matrix(1,0,0,2.10138,5,156.728)">
        <rect x="251.201" y="129.603" width="472.837" height="67.367" style="fill:white;stroke:white;stroke-width:5.42px;stroke-linecap:square;stroke-linejoin:miter;stroke-miterlimit:1.5;"/>
    </g>
    <g transform="matrix(0.376687,0,0,0.90098,454.302,392.593)">
        <rect x="251.201" y="129.603" width="472.837" height="67.367"/>
    </g>
    <g transform="matrix(1,0,0,1,-0.735593,34.4027)">
        <g transform="matrix(1.70221,0,0,1.70221,556.478,484.882)">
            <path d="M11.914,1.575C6.589,1.575 6.925,3.878 6.925,3.878L6.925,6.27L11.99,6.27L11.99,7.02L4.909,7.02C4.909,7.02 1.5,6.6 1.5,12.004C1.5,17.408 4.51,17.188 4.51,17.188L6.248,17.188L6.248,14.667C6.248,14.667 6.15,11.657 9.173,11.657L14.244,11.657C14.244,11.657 17.073,11.702 17.073,8.918L17.073,4.35C17.073,4.35 17.502,1.566 11.942,1.566L11.914,1.575ZM9.115,3.178C9.122,3.178 9.13,3.177 9.138,3.177C9.637,3.177 10.048,3.588 10.048,4.088C10.048,4.587 9.637,4.998 9.138,4.998C8.647,4.998 8.24,4.601 8.227,4.111L8.227,4.096C8.227,3.596 8.639,3.185 9.138,3.185L9.115,3.178Z" style="fill:url(#_Linear1);fill-rule:nonzero;"/>
        </g>
        <g transform="matrix(1.70221,0,0,1.70221,556.478,484.882)">
            <path d="M12.064,22.433C17.389,22.433 17.052,20.123 17.052,20.123L17.052,17.737L11.989,17.737L11.989,16.987L19.091,16.987C19.091,16.987 22.5,17.369 22.5,11.996C22.5,6.624 19.49,6.812 19.49,6.812L17.73,6.812L17.73,9.3C17.73,9.3 17.828,12.31 14.805,12.31L9.731,12.31C9.731,12.31 6.9,12.267 6.9,15.051L6.9,19.65C6.9,19.65 6.471,22.434 12.031,22.434L12.061,22.434L12.064,22.433ZM14.863,20.822C14.855,20.822 14.847,20.823 14.84,20.823C14.34,20.823 13.929,20.412 13.929,19.912C13.929,19.413 14.34,19.002 14.84,19.002C15.331,19.002 15.738,19.399 15.75,19.889L15.75,19.912C15.75,20.411 15.339,20.822 14.84,20.822L14.863,20.822Z" style="fill:url(#_Linear2);fill-rule:nonzero;"/>
        </g>
    </g>
    <g transform="matrix(3.23267e-17,0.527936,-1,6.12323e-17,460.264,35.8635)">
        <path d="M177.532,151.025L177.532,138.995L382.934,138.995L361.774,127.824L394.328,127.824L426.882,145.01L394.328,162.197L361.774,162.197L382.934,151.025L177.532,151.025Z" style="fill:rgb(18,194,233);"/>
    </g>
    <g transform="matrix(3.23267e-17,0.527936,-1,6.12323e-17,751.119,35.8635)">
        <path d="M177.532,151.025L177.532,138.995L382.934,138.995L361.774,127.824L394.328,127.824L426.882,145.01L394.328,162.197L361.774,162.197L382.934,151.025L177.532,151.025Z" style="fill:rgb(18,194,233);"/>
    </g>
    <g transform="matrix(3.35631e-17,0.548127,-1,6.12323e-17,751.119,190.754)">
        <path d="M177.532,151.025L177.532,138.995L384.553,138.995L364.172,127.824L395.527,127.824L426.882,145.01L395.527,162.197L364.172,162.197L384.553,151.025L177.532,151.025Z" style="fill:rgb(18,194,233);"/>
    </g>
    <g transform="matrix(2.07808e-17,0.339376,-1,6.12323e-17,751.119,364.489)">
        <path d="M177.532,151.025L177.532,138.995L358.516,138.995L325.599,127.824L376.241,127.824L426.882,145.01L376.241,162.197L325.599,162.197L358.516,151.025L177.532,151.025Z" style="fill:rgb(226,54,239);"/>
    </g>
    <g transform="matrix(2.06604e-17,-0.33741,1,6.12323e-17,558.534,569.264)">
        <path d="M177.532,151.025L177.532,138.995L358.118,138.995L325.009,127.824L375.945,127.824L426.882,145.01L375.945,162.197L325.009,162.197L358.118,151.025L177.532,151.025Z" style="fill:rgb(226,54,239);"/>
    </g>
    <g transform="matrix(1,0,0,1,4.7285,-10.5971)">
        <g transform="matrix(22,0,0,22,418.469,252.068)">
            <path d="M0.439,-0.5L0.628,-0.5C0.627,-0.643 0.517,-0.737 0.341,-0.737C0.168,-0.737 0.046,-0.644 0.047,-0.506C0.047,-0.392 0.125,-0.329 0.254,-0.301L0.327,-0.286C0.408,-0.268 0.435,-0.248 0.436,-0.214C0.435,-0.179 0.403,-0.153 0.339,-0.153C0.264,-0.153 0.219,-0.189 0.216,-0.256L0.028,-0.256C0.029,-0.073 0.153,0.009 0.342,0.009C0.527,0.009 0.637,-0.071 0.638,-0.214C0.637,-0.325 0.571,-0.403 0.411,-0.437L0.351,-0.45C0.282,-0.465 0.251,-0.485 0.253,-0.52C0.253,-0.552 0.28,-0.575 0.341,-0.575C0.405,-0.575 0.435,-0.547 0.439,-0.5Z" style="fill-rule:nonzero;"/>
        </g>
        <g transform="matrix(22,0,0,22,433.125,252.068)">
            <path d="M0.311,0.01C0.462,0.01 0.56,-0.062 0.578,-0.176L0.399,-0.176C0.388,-0.145 0.355,-0.128 0.315,-0.128C0.257,-0.128 0.223,-0.166 0.223,-0.219L0.223,-0.227L0.578,-0.227L0.578,-0.273C0.578,-0.446 0.472,-0.553 0.307,-0.553C0.138,-0.553 0.03,-0.44 0.03,-0.271C0.03,-0.095 0.136,0.01 0.311,0.01ZM0.223,-0.335C0.224,-0.382 0.263,-0.415 0.311,-0.415C0.36,-0.415 0.397,-0.382 0.398,-0.335L0.223,-0.335Z" style="fill-rule:nonzero;"/>
        </g>
        <g transform="matrix(22,0,0,22,446.5,252.068)">
            <path d="M0.05,-0L0.246,-0L0.246,-0.284C0.246,-0.347 0.289,-0.388 0.347,-0.388C0.367,-0.388 0.399,-0.385 0.419,-0.378L0.419,-0.545C0.403,-0.55 0.386,-0.553 0.369,-0.553C0.311,-0.553 0.266,-0.518 0.246,-0.442L0.24,-0.442L0.24,-0.545L0.05,-0.545L0.05,-0Z" style="fill-rule:nonzero;"/>
        </g>
        <g transform="matrix(22,0,0,22,456.406,252.068)">
            <path d="M0.599,-0.545L0.393,-0.545L0.305,-0.185L0.3,-0.185L0.212,-0.545L0.006,-0.545L0.189,-0L0.416,-0L0.599,-0.545Z" style="fill-rule:nonzero;"/>
        </g>
        <g transform="matrix(22,0,0,22,469.344,252.068)">
            <path d="M0.311,0.01C0.462,0.01 0.56,-0.062 0.578,-0.176L0.399,-0.176C0.388,-0.145 0.355,-0.128 0.315,-0.128C0.257,-0.128 0.223,-0.166 0.223,-0.219L0.223,-0.227L0.578,-0.227L0.578,-0.273C0.578,-0.446 0.472,-0.553 0.307,-0.553C0.138,-0.553 0.03,-0.44 0.03,-0.271C0.03,-0.095 0.136,0.01 0.311,0.01ZM0.223,-0.335C0.224,-0.382 0.263,-0.415 0.311,-0.415C0.36,-0.415 0.397,-0.382 0.398,-0.335L0.223,-0.335Z" style="fill-rule:nonzero;"/>
        </g>
        <g transform="matrix(22,0,0,22,482.719,252.068)">
            <path d="M0.403,-0.239C0.404,-0.185 0.373,-0.152 0.324,-0.152C0.274,-0.152 0.246,-0.185 0.246,-0.239L0.246,-0.545L0.05,-0.545L0.05,-0.197C0.05,-0.078 0.125,0.007 0.24,0.007C0.321,0.007 0.384,-0.034 0.408,-0.104L0.413,-0.104L0.413,-0L0.599,-0L0.599,-0.545L0.403,-0.545L0.403,-0.239Z" style="fill-rule:nonzero;"/>
        </g>
        <g transform="matrix(22,0,0,22,497,252.068)">
            <path d="M0.05,-0L0.246,-0L0.246,-0.284C0.246,-0.347 0.289,-0.388 0.347,-0.388C0.367,-0.388 0.399,-0.385 0.419,-0.378L0.419,-0.545C0.403,-0.55 0.386,-0.553 0.369,-0.553C0.311,-0.553 0.266,-0.518 0.246,-0.442L0.24,-0.442L0.24,-0.545L0.05,-0.545L0.05,-0Z" style="fill-rule:nonzero;"/>
        </g>
        <g transform="matrix(22,0,0,22,510.906,252.068)">
            <path d="M0.146,-0L0.358,-0L0.435,-0.293L0.44,-0.293L0.517,-0L0.729,-0L0.865,-0.545L0.669,-0.545L0.609,-0.216L0.605,-0.216L0.533,-0.545L0.342,-0.545L0.273,-0.213L0.268,-0.213L0.206,-0.545L0.01,-0.545L0.146,-0Z" style="fill-rule:nonzero;"/>
        </g>
        <g transform="matrix(22,0,0,22,529.937,252.068)">
            <path d="M0.311,0.01C0.462,0.01 0.56,-0.062 0.578,-0.176L0.399,-0.176C0.388,-0.145 0.355,-0.128 0.315,-0.128C0.257,-0.128 0.223,-0.166 0.223,-0.219L0.223,-0.227L0.578,-0.227L0.578,-0.273C0.578,-0.446 0.472,-0.553 0.307,-0.553C0.138,-0.553 0.03,-0.44 0.03,-0.271C0.03,-0.095 0.136,0.01 0.311,0.01ZM0.223,-0.335C0.224,-0.382 0.263,-0.415 0.311,-0.415C0.36,-0.415 0.397,-0.382 0.398,-0.335L0.223,-0.335Z" style="fill-rule:nonzero;"/>
        </g>
        <g transform="matrix(22,0,0,22,543.312,252.068)">
            <path d="M0.047,-0L0.241,-0L0.241,-0.089L0.246,-0.089C0.268,-0.034 0.321,0.007 0.398,0.007C0.514,0.007 0.612,-0.084 0.612,-0.273C0.612,-0.47 0.507,-0.553 0.399,-0.553C0.318,-0.553 0.267,-0.506 0.246,-0.45L0.243,-0.45L0.243,-0.727L0.047,-0.727L0.047,-0ZM0.239,-0.273C0.239,-0.354 0.271,-0.402 0.325,-0.402C0.379,-0.402 0.411,-0.354 0.411,-0.273C0.411,-0.192 0.379,-0.143 0.325,-0.143C0.271,-0.143 0.239,-0.193 0.239,-0.273Z" style="fill-rule:nonzero;"/>
        </g>
        <g transform="matrix(22,0,0,22,448.078,274.068)">
            <path d="M0.163,-0.727L0.036,-0.727L0.036,-0.433L0.163,-0.433L0.163,-0.727ZM0.348,-0.727L0.22,-0.727L0.22,-0.433L0.348,-0.433L0.348,-0.727Z" style="fill-rule:nonzero;"/>
        </g>
        <g transform="matrix(22,0,0,22,456.547,274.068)">
            <path d="M0.05,0.205L0.246,0.205L0.246,-0.089L0.249,-0.089C0.271,-0.034 0.324,0.007 0.401,0.007C0.517,0.007 0.615,-0.084 0.615,-0.273C0.615,-0.47 0.51,-0.553 0.402,-0.553C0.321,-0.553 0.27,-0.506 0.249,-0.45L0.244,-0.45L0.244,-0.545L0.05,-0.545L0.05,0.205ZM0.241,-0.273C0.241,-0.354 0.274,-0.402 0.328,-0.402C0.382,-0.402 0.413,-0.354 0.413,-0.273C0.413,-0.192 0.382,-0.143 0.328,-0.143C0.274,-0.143 0.241,-0.193 0.241,-0.273Z" style="fill-rule:nonzero;"/>
        </g>
        <g transform="matrix(22,0,0,22,470.797,274.068)">
            <path d="M0.05,-0L0.246,-0L0.246,-0.284C0.246,-0.347 0.289,-0.388 0.347,-0.388C0.367,-0.388 0.399,-0.385 0.419,-0.378L0.419,-0.545C0.403,-0.55 0.386,-0.553 0.369,-0.553C0.311,-0.553 0.266,-0.518 0.246,-0.442L0.24,-0.442L0.24,-0.545L0.05,-0.545L0.05,-0Z" style="fill-rule:nonzero;"/>
        </g>
        <g transform="matrix(22,0,0,22,479.641,274.068)">
            <path d="M0.312,0.01C0.49,0.01 0.595,-0.104 0.595,-0.271C0.595,-0.439 0.49,-0.553 0.312,-0.553C0.135,-0.553 0.03,-0.439 0.03,-0.271C0.03,-0.104 0.135,0.01 0.312,0.01ZM0.314,-0.135C0.261,-0.135 0.23,-0.187 0.23,-0.273C0.23,-0.358 0.261,-0.411 0.314,-0.411C0.364,-0.411 0.395,-0.358 0.395,-0.273C0.395,-0.187 0.364,-0.135 0.314,-0.135Z" style="fill-rule:nonzero;"/>
        </g>
        <g transform="matrix(22,0,0,22,492.984,274.068)">
            <path d="M0.219,-0.545L0.023,-0.545L0.168,-0.273L0.013,-0L0.209,-0L0.298,-0.173L0.391,-0L0.584,-0L0.43,-0.273L0.577,-0.545L0.382,-0.545L0.298,-0.376L0.219,-0.545Z" style="fill-rule:nonzero;"/>
        </g>
        <g transform="matrix(22,0,0,22,506.109,274.068)">
            <path d="M0.169,0.205C0.306,0.205 0.37,0.136 0.401,0.045L0.599,-0.545L0.393,-0.545L0.304,-0.168L0.298,-0.168L0.21,-0.545L0.006,-0.545L0.197,0.024L0.193,0.034C0.18,0.064 0.142,0.063 0.094,0.046L0.051,0.185C0.082,0.197 0.124,0.205 0.169,0.205Z" style="fill-rule:nonzero;"/>
        </g>
        <g transform="matrix(22,0,0,22,519.422,274.068)">
            <path d="M0.163,-0.727L0.036,-0.727L0.036,-0.433L0.163,-0.433L0.163,-0.727ZM0.348,-0.727L0.22,-0.727L0.22,-0.433L0.348,-0.433L0.348,-0.727Z" style="fill-rule:nonzero;"/>
        </g>
    </g>
    <g transform="matrix(1,0,0,1,4.7285,199.902)">
        <g transform="matrix(22,0,0,22,418.469,252.068)">
            <path d="M0.439,-0.5L0.628,-0.5C0.627,-0.643 0.517,-0.737 0.341,-0.737C0.168,-0.737 0.046,-0.644 0.047,-0.506C0.047,-0.392 0.125,-0.329 0.254,-0.301L0.327,-0.286C0.408,-0.268 0.435,-0.248 0.436,-0.214C0.435,-0.179 0.403,-0.153 0.339,-0.153C0.264,-0.153 0.219,-0.189 0.216,-0.256L0.028,-0.256C0.029,-0.073 0.153,0.009 0.342,0.009C0.527,0.009 0.637,-0.071 0.638,-0.214C0.637,-0.325 0.571,-0.403 0.411,-0.437L0.351,-0.45C0.282,-0.465 0.251,-0.485 0.253,-0.52C0.253,-0.552 0.28,-0.575 0.341,-0.575C0.405,-0.575 0.435,-0.547 0.439,-0.5Z" style="fill-rule:nonzero;"/>
        </g>
        <g transform="matrix(22,0,0,22,433.125,252.068)">
            <path d="M0.311,0.01C0.462,0.01 0.56,-0.062 0.578,-0.176L0.399,-0.176C0.388,-0.145 0.355,-0.128 0.315,-0.128C0.257,-0.128 0.223,-0.166 0.223,-0.219L0.223,-0.227L0.578,-0.227L0.578,-0.273C0.578,-0.446 0.472,-0.553 0.307,-0.553C0.138,-0.553 0.03,-0.44 0.03,-0.271C0.03,-0.095 0.136,0.01 0.311,0.01ZM0.223,-0.335C0.224,-0.382 0.263,-0.415 0.311,-0.415C0.36,-0.415 0.397,-0.382 0.398,-0.335L0.223,-0.335Z" style="fill-rule:nonzero;"/>
        </g>
        <g transform="matrix(22,0,0,22,446.5,252.068)">
            <path d="M0.05,-0L0.246,-0L0.246,-0.284C0.246,-0.347 0.289,-0.388 0.347,-0.388C0.367,-0.388 0.399,-0.385 0.419,-0.378L0.419,-0.545C0.403,-0.55 0.386,-0.553 0.369,-0.553C0.311,-0.553 0.266,-0.518 0.246,-0.442L0.24,-0.442L0.24,-0.545L0.05,-0.545L0.05,-0Z" style="fill-rule:nonzero;"/>
        </g>
        <g transform="matrix(22,0,0,22,456.406,252.068)">
            <path d="M0.599,-0.545L0.393,-0.545L0.305,-0.185L0.3,-0.185L0.212,-0.545L0.006,-0.545L0.189,-0L0.416,-0L0.599,-0.545Z" style="fill-rule:nonzero;"/>
        </g>
        <g transform="matrix(22,0,0,22,469.344,252.068)">
            <path d="M0.311,0.01C0.462,0.01 0.56,-0.062 0.578,-0.176L0.399,-0.176C0.388,-0.145 0.355,-0.128 0.315,-0.128C0.257,-0.128 0.223,-0.166 0.223,-0.219L0.223,-0.227L0.578,-0.227L0.578,-0.273C0.578,-0.446 0.472,-0.553 0.307,-0.553C0.138,-0.553 0.03,-0.44 0.03,-0.271C0.03,-0.095 0.136,0.01 0.311,0.01ZM0.223,-0.335C0.224,-0.382 0.263,-0.415 0.311,-0.415C0.36,-0.415 0.397,-0.382 0.398,-0.335L0.223,-0.335Z" style="fill-rule:nonzero;"/>
        </g>
        <g transform="matrix(22,0,0,22,482.719,252.068)">
            <path d="M0.403,-0.239C0.404,-0.185 0.373,-0.152 0.324,-0.152C0.274,-0.152 0.246,-0.185 0.246,-0.239L0.246,-0.545L0.05,-0.545L0.05,-0.197C0.05,-0.078 0.125,0.007 0.24,0.007C0.321,0.007 0.384,-0.034 0.408,-0.104L0.413,-0.104L0.413,-0L0.599,-0L0.599,-0.545L0.403,-0.545L0.403,-0.239Z" style="fill-rule:nonzero;"/>
        </g>
        <g transform="matrix(22,0,0,22,497,252.068)">
            <path d="M0.05,-0L0.246,-0L0.246,-0.284C0.246,-0.347 0.289,-0.388 0.347,-0.388C0.367,-0.388 0.399,-0.385 0.419,-0.378L0.419,-0.545C0.403,-0.55 0.386,-0.553 0.369,-0.553C0.311,-0.553 0.266,-0.518 0.246,-0.442L0.24,-0.442L0.24,-0.545L0.05,-0.545L0.05,-0Z" style="fill-rule:nonzero;"/>
        </g>
        <g transform="matrix(22,0,0,22,510.906,252.068)">
            <path d="M0.146,-0L0.358,-0L0.435,-0.293L0.44,-0.293L0.517,-0L0.729,-0L0.865,-0.545L0.669,-0.545L0.609,-0.216L0.605,-0.216L0.533,-0.545L0.342,-0.545L0.273,-0.213L0.268,-0.213L0.206,-0.545L0.01,-0.545L0.146,-0Z" style="fill-rule:nonzero;"/>
        </g>
        <g transform="matrix(22,0,0,22,529.937,252.068)">
            <path d="M0.311,0.01C0.462,0.01 0.56,-0.062 0.578,-0.176L0.399,-0.176C0.388,-0.145 0.355,-0.128 0.315,-0.128C0.257,-0.128 0.223,-0.166 0.223,-0.219L0.223,-0.227L0.578,-0.227L0.578,-0.273C0.578,-0.446 0.472,-0.553 0.307,-0.553C0.138,-0.553 0.03,-0.44 0.03,-0.271C0.03,-0.095 0.136,0.01 0.311,0.01ZM0.223,-0.335C0.224,-0.382 0.263,-0.415 0.311,-0.415C0.36,-0.415 0.397,-0.382 0.398,-0.335L0.223,-0.335Z" style="fill-rule:nonzero;"/>
        </g>
        <g transform="matrix(22,0,0,22,543.312,252.068)">
            <path d="M0.047,-0L0.241,-0L0.241,-0.089L0.246,-0.089C0.268,-0.034 0.321,0.007 0.398,0.007C0.514,0.007 0.612,-0.084 0.612,-0.273C0.612,-0.47 0.507,-0.553 0.399,-0.553C0.318,-0.553 0.267,-0.506 0.246,-0.45L0.243,-0.45L0.243,-0.727L0.047,-0.727L0.047,-0ZM0.239,-0.273C0.239,-0.354 0.271,-0.402 0.325,-0.402C0.379,-0.402 0.411,-0.354 0.411,-0.273C0.411,-0.192 0.379,-0.143 0.325,-0.143C0.271,-0.143 0.239,-0.193 0.239,-0.273Z" style="fill-rule:nonzero;"/>
        </g>
        <g transform="matrix(22,0,0,22,457.047,274.068)">
            <path d="M0.232,-0L0.42,-0L0.544,-0.406L0.55,-0.406L0.673,-0L0.862,-0L1.077,-0.727L0.857,-0.727L0.757,-0.278L0.751,-0.278L0.634,-0.727L0.46,-0.727L0.342,-0.28L0.337,-0.28L0.237,-0.727L0.017,-0.727L0.232,-0Z" style="fill-rule:nonzero;"/>
        </g>
        <g transform="matrix(22,0,0,22,480.859,274.068)">
            <path d="M0.439,-0.5L0.628,-0.5C0.627,-0.643 0.517,-0.737 0.341,-0.737C0.168,-0.737 0.046,-0.644 0.047,-0.506C0.047,-0.392 0.125,-0.329 0.254,-0.301L0.327,-0.286C0.408,-0.268 0.435,-0.248 0.436,-0.214C0.435,-0.179 0.403,-0.153 0.339,-0.153C0.264,-0.153 0.219,-0.189 0.216,-0.256L0.028,-0.256C0.029,-0.073 0.153,0.009 0.342,0.009C0.527,0.009 0.637,-0.071 0.638,-0.214C0.637,-0.325 0.571,-0.403 0.411,-0.437L0.351,-0.45C0.282,-0.465 0.251,-0.485 0.253,-0.52C0.253,-0.552 0.28,-0.575 0.341,-0.575C0.405,-0.575 0.435,-0.547 0.439,-0.5Z" style="fill-rule:nonzero;"/>
        </g>
        <g transform="matrix(22,0,0,22,495.516,274.068)">
            <path d="M0.519,-0.487L0.719,-0.487C0.703,-0.633 0.571,-0.737 0.399,-0.737C0.203,-0.737 0.044,-0.602 0.044,-0.362C0.044,-0.132 0.188,0.01 0.401,0.01C0.591,0.01 0.727,-0.107 0.727,-0.305L0.727,-0.406L0.405,-0.406L0.405,-0.266L0.537,-0.266C0.535,-0.202 0.49,-0.162 0.402,-0.162C0.3,-0.162 0.247,-0.237 0.247,-0.365C0.247,-0.491 0.304,-0.565 0.403,-0.565C0.465,-0.565 0.507,-0.537 0.519,-0.487Z" style="fill-rule:nonzero;"/>
        </g>
        <g transform="matrix(22,0,0,22,512.516,274.068)">
            <rect x="0.047" y="-0.727" width="0.197" height="0.727" style="fill-rule:nonzero;"/>
        </g>
    </g>
    <g transform="matrix(3.94079e-17,-0.643579,1,6.12323e-17,247.679,404.981)">
        <path d="M177.532,151.025L177.532,138.995L390.831,138.995L373.473,127.824L400.177,127.824L426.882,145.01L400.177,162.197L373.473,162.197L390.831,151.025L177.532,151.025Z" style="fill:rgb(140,235,53);"/>
    </g>
    <g transform="matrix(1,0,0,1,5,10)">
        <path d="M251.201,115.684L724.038,115.684" style="fill:none;stroke:white;stroke-width:8.91px;stroke-linecap:square;stroke-miterlimit:1.5;"/>
    </g>
    <g transform="matrix(1,0,0,1,-155.597,61.0123)">
        <g transform="matrix(20,0,0,20,428.613,252.068)">
            <path d="M0.08,-0L0.519,-0L0.519,-0.094L0.19,-0.094L0.19,-0.727L0.08,-0.727L0.08,-0Z" style="fill-rule:nonzero;"/>
        </g>
        <g transform="matrix(20,0,0,20,439.898,252.068)">
            <path d="M0.306,0.011C0.425,0.011 0.51,-0.048 0.534,-0.136L0.433,-0.154C0.414,-0.103 0.368,-0.077 0.308,-0.077C0.217,-0.077 0.156,-0.136 0.153,-0.241L0.54,-0.241L0.54,-0.278C0.54,-0.475 0.423,-0.553 0.299,-0.553C0.147,-0.553 0.047,-0.437 0.047,-0.269C0.047,-0.1 0.146,0.011 0.306,0.011ZM0.153,-0.32C0.157,-0.398 0.213,-0.465 0.3,-0.465C0.382,-0.465 0.436,-0.404 0.436,-0.32L0.153,-0.32Z" style="fill-rule:nonzero;"/>
        </g>
        <g transform="matrix(20,0,0,20,451.646,252.068)">
            <path d="M0.301,0.011C0.43,0.011 0.513,-0.066 0.525,-0.173L0.422,-0.173C0.408,-0.114 0.363,-0.079 0.302,-0.079C0.212,-0.079 0.154,-0.154 0.154,-0.273C0.154,-0.39 0.213,-0.463 0.302,-0.463C0.369,-0.463 0.411,-0.42 0.422,-0.369L0.525,-0.369C0.514,-0.479 0.424,-0.553 0.3,-0.553C0.146,-0.553 0.047,-0.437 0.047,-0.27C0.047,-0.106 0.143,0.011 0.301,0.011Z" style="fill-rule:nonzero;"/>
        </g>
        <g transform="matrix(20,0,0,20,463.002,252.068)">
            <path d="M0.326,-0.545L0.214,-0.545L0.214,-0.676L0.108,-0.676L0.108,-0.545L0.028,-0.545L0.028,-0.46L0.108,-0.46L0.108,-0.138C0.108,-0.039 0.183,0.009 0.267,0.007C0.301,0.007 0.324,0 0.336,-0.004L0.317,-0.092C0.31,-0.091 0.297,-0.087 0.279,-0.087C0.245,-0.087 0.214,-0.099 0.214,-0.16L0.214,-0.46L0.326,-0.46L0.326,-0.545Z" style="fill-rule:nonzero;"/>
        </g>
        <g transform="matrix(20,0,0,20,470.438,252.068)">
            <path d="M0.417,-0.226C0.417,-0.134 0.348,-0.089 0.289,-0.089C0.223,-0.089 0.178,-0.137 0.178,-0.211L0.178,-0.545L0.071,-0.545L0.071,-0.199C0.071,-0.063 0.146,0.007 0.25,0.007C0.332,0.007 0.388,-0.036 0.413,-0.094L0.419,-0.094L0.419,-0L0.523,-0L0.523,-0.545L0.417,-0.545L0.417,-0.226Z" style="fill-rule:nonzero;"/>
        </g>
        <g transform="matrix(20,0,0,20,482.327,252.068)">
            <path d="M0.071,-0L0.178,-0L0.178,-0.333C0.178,-0.404 0.233,-0.456 0.308,-0.456C0.33,-0.456 0.355,-0.452 0.363,-0.45L0.363,-0.551C0.353,-0.553 0.332,-0.554 0.318,-0.554C0.254,-0.554 0.2,-0.517 0.18,-0.459L0.174,-0.459L0.174,-0.545L0.071,-0.545L0.071,-0Z" style="fill-rule:nonzero;"/>
        </g>
        <g transform="matrix(20,0,0,20,489.614,252.068)">
            <path d="M0.306,0.011C0.425,0.011 0.51,-0.048 0.534,-0.136L0.433,-0.154C0.414,-0.103 0.368,-0.077 0.308,-0.077C0.217,-0.077 0.156,-0.136 0.153,-0.241L0.54,-0.241L0.54,-0.278C0.54,-0.475 0.423,-0.553 0.299,-0.553C0.147,-0.553 0.047,-0.437 0.047,-0.269C0.047,-0.1 0.146,0.011 0.306,0.011ZM0.153,-0.32C0.157,-0.398 0.213,-0.465 0.3,-0.465C0.382,-0.465 0.436,-0.404 0.436,-0.32L0.153,-0.32Z" style="fill-rule:nonzero;"/>
        </g>
        <g transform="matrix(20,0,0,20,506.66,252.068)">
            <path d="M0.276,0.011C0.375,0.011 0.414,-0.05 0.433,-0.085L0.442,-0.085L0.442,-0L0.546,-0L0.546,-0.727L0.44,-0.727L0.44,-0.457L0.433,-0.457C0.414,-0.491 0.378,-0.553 0.276,-0.553C0.145,-0.553 0.048,-0.449 0.048,-0.272C0.048,-0.095 0.143,0.011 0.276,0.011ZM0.299,-0.08C0.204,-0.08 0.155,-0.163 0.155,-0.273C0.155,-0.381 0.203,-0.462 0.299,-0.462C0.392,-0.462 0.441,-0.387 0.441,-0.273C0.441,-0.158 0.391,-0.08 0.299,-0.08Z" style="fill-rule:nonzero;"/>
        </g>
        <g transform="matrix(20,0,0,20,519.174,252.068)">
            <rect x="0.064" y="-0.727" width="0.088" height="0.259" style="fill-rule:nonzero;"/>
        </g>
        <g transform="matrix(20,0,0,20,523.521,252.068)">
            <path d="M0.417,-0.226C0.417,-0.134 0.348,-0.089 0.289,-0.089C0.223,-0.089 0.178,-0.137 0.178,-0.211L0.178,-0.545L0.071,-0.545L0.071,-0.199C0.071,-0.063 0.146,0.007 0.25,0.007C0.332,0.007 0.388,-0.036 0.413,-0.094L0.419,-0.094L0.419,-0L0.523,-0L0.523,-0.545L0.417,-0.545L0.417,-0.226Z" style="fill-rule:nonzero;"/>
        </g>
        <g transform="matrix(20,0,0,20,535.41,252.068)">
            <path d="M0.178,-0.324C0.178,-0.411 0.231,-0.461 0.305,-0.461C0.377,-0.461 0.42,-0.413 0.42,-0.334L0.42,-0L0.527,-0L0.527,-0.347C0.527,-0.482 0.452,-0.553 0.341,-0.553C0.259,-0.553 0.205,-0.515 0.18,-0.457L0.173,-0.457L0.173,-0.545L0.071,-0.545L0.071,-0L0.178,-0L0.178,-0.324Z" style="fill-rule:nonzero;"/>
        </g>
        <g transform="matrix(20,0,0,20,416.287,272.068)">
            <path d="M0.331,-0.545L0.213,-0.545L0.213,-0.594C0.213,-0.643 0.233,-0.669 0.285,-0.669C0.307,-0.669 0.323,-0.664 0.333,-0.661L0.358,-0.747C0.343,-0.752 0.312,-0.761 0.269,-0.761C0.183,-0.761 0.107,-0.711 0.107,-0.609L0.107,-0.545L0.023,-0.545L0.023,-0.46L0.107,-0.46L0.107,-0L0.213,-0L0.213,-0.46L0.331,-0.46L0.331,-0.545Z" style="fill-rule:nonzero;"/>
        </g>
        <g transform="matrix(20,0,0,20,423.666,272.068)">
            <path d="M0.071,-0L0.178,-0L0.178,-0.545L0.071,-0.545L0.071,-0ZM0.125,-0.63C0.162,-0.63 0.192,-0.658 0.192,-0.693C0.192,-0.728 0.162,-0.756 0.125,-0.756C0.088,-0.756 0.058,-0.728 0.058,-0.693C0.058,-0.658 0.088,-0.63 0.125,-0.63Z" style="fill-rule:nonzero;"/>
        </g>
        <g transform="matrix(20,0,0,20,428.645,272.068)">
            <path d="M0.301,0.011C0.43,0.011 0.513,-0.066 0.525,-0.173L0.422,-0.173C0.408,-0.114 0.363,-0.079 0.302,-0.079C0.212,-0.079 0.154,-0.154 0.154,-0.273C0.154,-0.39 0.213,-0.463 0.302,-0.463C0.369,-0.463 0.411,-0.42 0.422,-0.369L0.525,-0.369C0.514,-0.479 0.424,-0.553 0.3,-0.553C0.146,-0.553 0.047,-0.437 0.047,-0.27C0.047,-0.106 0.143,0.011 0.301,0.011Z" style="fill-rule:nonzero;"/>
        </g>
        <g transform="matrix(20,0,0,20,440.001,272.068)">
            <path d="M0.178,-0.324C0.178,-0.411 0.233,-0.461 0.308,-0.461C0.381,-0.461 0.425,-0.414 0.425,-0.334L0.425,-0L0.531,-0L0.531,-0.347C0.531,-0.483 0.457,-0.553 0.344,-0.553C0.26,-0.553 0.208,-0.516 0.183,-0.457L0.176,-0.457L0.176,-0.727L0.071,-0.727L0.071,-0L0.178,-0L0.178,-0.324Z" style="fill-rule:nonzero;"/>
        </g>
        <g transform="matrix(20,0,0,20,452.04,272.068)">
            <path d="M0.071,-0L0.178,-0L0.178,-0.545L0.071,-0.545L0.071,-0ZM0.125,-0.63C0.162,-0.63 0.192,-0.658 0.192,-0.693C0.192,-0.728 0.162,-0.756 0.125,-0.756C0.088,-0.756 0.058,-0.728 0.058,-0.693C0.058,-0.658 0.088,-0.63 0.125,-0.63Z" style="fill-rule:nonzero;"/>
        </g>
        <g transform="matrix(20,0,0,20,457.018,272.068)">
            <path d="M0.306,0.011C0.425,0.011 0.51,-0.048 0.534,-0.136L0.433,-0.154C0.414,-0.103 0.368,-0.077 0.308,-0.077C0.217,-0.077 0.156,-0.136 0.153,-0.241L0.54,-0.241L0.54,-0.278C0.54,-0.475 0.423,-0.553 0.299,-0.553C0.147,-0.553 0.047,-0.437 0.047,-0.269C0.047,-0.1 0.146,0.011 0.306,0.011ZM0.153,-0.32C0.157,-0.398 0.213,-0.465 0.3,-0.465C0.382,-0.465 0.436,-0.404 0.436,-0.32L0.153,-0.32Z" style="fill-rule:nonzero;"/>
        </g>
        <g transform="matrix(20,0,0,20,468.766,272.068)">
            <path d="M0.071,-0L0.178,-0L0.178,-0.333C0.178,-0.404 0.233,-0.456 0.308,-0.456C0.33,-0.456 0.355,-0.452 0.363,-0.45L0.363,-0.551C0.353,-0.553 0.332,-0.554 0.318,-0.554C0.254,-0.554 0.2,-0.517 0.18,-0.459L0.174,-0.459L0.174,-0.545L0.071,-0.545L0.071,-0Z" style="fill-rule:nonzero;"/>
        </g>
        <g transform="matrix(20,0,0,20,481.749,272.068)">
            <path d="M0.48,-0.412C0.458,-0.497 0.392,-0.553 0.274,-0.553C0.151,-0.553 0.063,-0.488 0.063,-0.391C0.063,-0.314 0.11,-0.262 0.212,-0.239L0.305,-0.219C0.357,-0.207 0.382,-0.184 0.382,-0.15C0.382,-0.108 0.337,-0.075 0.267,-0.075C0.203,-0.075 0.163,-0.102 0.15,-0.156L0.047,-0.14C0.065,-0.043 0.145,0.011 0.268,0.011C0.399,0.011 0.491,-0.059 0.491,-0.158C0.491,-0.235 0.442,-0.282 0.342,-0.305L0.255,-0.325C0.195,-0.339 0.169,-0.36 0.169,-0.397C0.169,-0.439 0.214,-0.468 0.275,-0.468C0.341,-0.468 0.371,-0.432 0.384,-0.395L0.48,-0.412Z" style="fill-rule:nonzero;"/>
        </g>
        <g transform="matrix(20,0,0,20,492.466,272.068)">
            <path d="M0.326,-0.545L0.214,-0.545L0.214,-0.676L0.108,-0.676L0.108,-0.545L0.028,-0.545L0.028,-0.46L0.108,-0.46L0.108,-0.138C0.108,-0.039 0.183,0.009 0.267,0.007C0.301,0.007 0.324,0 0.336,-0.004L0.317,-0.092C0.31,-0.091 0.297,-0.087 0.279,-0.087C0.245,-0.087 0.214,-0.099 0.214,-0.16L0.214,-0.46L0.326,-0.46L0.326,-0.545Z" style="fill-rule:nonzero;"/>
        </g>
        <g transform="matrix(20,0,0,20,499.902,272.068)">
            <path d="M0.23,0.012C0.32,0.012 0.371,-0.034 0.391,-0.075L0.396,-0.075L0.396,-0L0.499,-0L0.499,-0.362C0.499,-0.521 0.374,-0.553 0.288,-0.553C0.189,-0.553 0.098,-0.513 0.062,-0.413L0.162,-0.391C0.178,-0.429 0.218,-0.467 0.289,-0.467C0.358,-0.467 0.393,-0.431 0.393,-0.369L0.393,-0.366C0.393,-0.328 0.353,-0.328 0.255,-0.317C0.152,-0.305 0.046,-0.278 0.046,-0.154C0.046,-0.047 0.126,0.012 0.23,0.012ZM0.253,-0.073C0.193,-0.073 0.15,-0.1 0.15,-0.153C0.15,-0.21 0.2,-0.23 0.262,-0.238C0.296,-0.243 0.378,-0.252 0.393,-0.267L0.393,-0.197C0.393,-0.132 0.342,-0.073 0.253,-0.073Z" style="fill-rule:nonzero;"/>
        </g>
        <g transform="matrix(20,0,0,20,511.287,272.068)">
            <path d="M0.326,-0.545L0.214,-0.545L0.214,-0.676L0.108,-0.676L0.108,-0.545L0.028,-0.545L0.028,-0.46L0.108,-0.46L0.108,-0.138C0.108,-0.039 0.183,0.009 0.267,0.007C0.301,0.007 0.324,0 0.336,-0.004L0.317,-0.092C0.31,-0.091 0.297,-0.087 0.279,-0.087C0.245,-0.087 0.214,-0.099 0.214,-0.16L0.214,-0.46L0.326,-0.46L0.326,-0.545Z" style="fill-rule:nonzero;"/>
        </g>
        <g transform="matrix(20,0,0,20,518.723,272.068)">
            <path d="M0.071,-0L0.178,-0L0.178,-0.545L0.071,-0.545L0.071,-0ZM0.125,-0.63C0.162,-0.63 0.192,-0.658 0.192,-0.693C0.192,-0.728 0.162,-0.756 0.125,-0.756C0.088,-0.756 0.058,-0.728 0.058,-0.693C0.058,-0.658 0.088,-0.63 0.125,-0.63Z" style="fill-rule:nonzero;"/>
        </g>
        <g transform="matrix(20,0,0,20,523.702,272.068)">
            <path d="M0.44,0.205L0.546,0.205L0.546,-0.545L0.442,-0.545L0.442,-0.457L0.433,-0.457C0.414,-0.491 0.378,-0.553 0.276,-0.553C0.145,-0.553 0.048,-0.449 0.048,-0.272C0.048,-0.095 0.143,0.011 0.276,0.011C0.375,0.011 0.414,-0.05 0.433,-0.085L0.44,-0.085L0.44,0.205ZM0.299,-0.08C0.204,-0.08 0.155,-0.163 0.155,-0.273C0.155,-0.381 0.203,-0.462 0.299,-0.462C0.392,-0.462 0.441,-0.387 0.441,-0.273C0.441,-0.158 0.391,-0.08 0.299,-0.08Z" style="fill-rule:nonzero;"/>
        </g>
        <g transform="matrix(20,0,0,20,536.045,272.068)">
            <path d="M0.417,-0.226C0.417,-0.134 0.348,-0.089 0.289,-0.089C0.223,-0.089 0.178,-0.137 0.178,-0.211L0.178,-0.545L0.071,-0.545L0.071,-0.199C0.071,-0.063 0.146,0.007 0.25,0.007C0.332,0.007 0.388,-0.036 0.413,-0.094L0.419,-0.094L0.419,-0L0.523,-0L0.523,-0.545L0.417,-0.545L0.417,-0.226Z" style="fill-rule:nonzero;"/>
        </g>
        <g transform="matrix(20,0,0,20,547.935,272.068)">
            <path d="M0.306,0.011C0.425,0.011 0.51,-0.048 0.534,-0.136L0.433,-0.154C0.414,-0.103 0.368,-0.077 0.308,-0.077C0.217,-0.077 0.156,-0.136 0.153,-0.241L0.54,-0.241L0.54,-0.278C0.54,-0.475 0.423,-0.553 0.299,-0.553C0.147,-0.553 0.047,-0.437 0.047,-0.269C0.047,-0.1 0.146,0.011 0.306,0.011ZM0.153,-0.32C0.157,-0.398 0.213,-0.465 0.3,-0.465C0.382,-0.465 0.436,-0.404 0.436,-0.32L0.153,-0.32Z" style="fill-rule:nonzero;"/>
        </g>
    </g>
    <g transform="matrix(1,0,0,1,174.817,283.161)">
        <g transform="matrix(20,0,0,20,434.089,252.068)">
            <path d="M0.141,-0L0.208,-0.192L0.492,-0.192L0.559,-0L0.675,-0L0.413,-0.727L0.287,-0.727L0.025,-0L0.141,-0ZM0.24,-0.285L0.347,-0.595L0.353,-0.595L0.46,-0.285L0.24,-0.285Z" style="fill:white;fill-rule:nonzero;"/>
        </g>
        <g transform="matrix(20,0,0,20,448.087,252.068)">
            <path d="M0.071,0.205L0.178,0.205L0.178,-0.085L0.184,-0.085C0.203,-0.05 0.242,0.011 0.342,0.011C0.474,0.011 0.57,-0.095 0.57,-0.272C0.57,-0.449 0.472,-0.553 0.341,-0.553C0.239,-0.553 0.203,-0.491 0.184,-0.457L0.175,-0.457L0.175,-0.545L0.071,-0.545L0.071,0.205ZM0.175,-0.273C0.175,-0.387 0.225,-0.462 0.318,-0.462C0.414,-0.462 0.462,-0.381 0.462,-0.273C0.462,-0.163 0.413,-0.08 0.318,-0.08C0.227,-0.08 0.175,-0.158 0.175,-0.273Z" style="fill:white;fill-rule:nonzero;"/>
        </g>
        <g transform="matrix(20,0,0,20,460.431,252.068)">
            <path d="M0.071,0.205L0.178,0.205L0.178,-0.085L0.184,-0.085C0.203,-0.05 0.242,0.011 0.342,0.011C0.474,0.011 0.57,-0.095 0.57,-0.272C0.57,-0.449 0.472,-0.553 0.341,-0.553C0.239,-0.553 0.203,-0.491 0.184,-0.457L0.175,-0.457L0.175,-0.545L0.071,-0.545L0.071,0.205ZM0.175,-0.273C0.175,-0.387 0.225,-0.462 0.318,-0.462C0.414,-0.462 0.462,-0.381 0.462,-0.273C0.462,-0.163 0.413,-0.08 0.318,-0.08C0.227,-0.08 0.175,-0.158 0.175,-0.273Z" style="fill:white;fill-rule:nonzero;"/>
        </g>
        <g transform="matrix(20,0,0,20,472.775,252.068)">
            <rect x="0.071" y="-0.727" width="0.106" height="0.727" style="fill:white;fill-rule:nonzero;"/>
        </g>
        <g transform="matrix(20,0,0,20,477.754,252.068)">
            <path d="M0.071,-0L0.178,-0L0.178,-0.545L0.071,-0.545L0.071,-0ZM0.125,-0.63C0.162,-0.63 0.192,-0.658 0.192,-0.693C0.192,-0.728 0.162,-0.756 0.125,-0.756C0.088,-0.756 0.058,-0.728 0.058,-0.693C0.058,-0.658 0.088,-0.63 0.125,-0.63Z" style="fill:white;fill-rule:nonzero;"/>
        </g>
        <g transform="matrix(20,0,0,20,482.732,252.068)">
            <path d="M0.301,0.011C0.43,0.011 0.513,-0.066 0.525,-0.173L0.422,-0.173C0.408,-0.114 0.363,-0.079 0.302,-0.079C0.212,-0.079 0.154,-0.154 0.154,-0.273C0.154,-0.39 0.213,-0.463 0.302,-0.463C0.369,-0.463 0.411,-0.42 0.422,-0.369L0.525,-0.369C0.514,-0.479 0.424,-0.553 0.3,-0.553C0.146,-0.553 0.047,-0.437 0.047,-0.27C0.047,-0.106 0.143,0.011 0.301,0.011Z" style="fill:white;fill-rule:nonzero;"/>
        </g>
        <g transform="matrix(20,0,0,20,494.089,252.068)">
            <path d="M0.23,0.012C0.32,0.012 0.371,-0.034 0.391,-0.075L0.396,-0.075L0.396,-0L0.499,-0L0.499,-0.362C0.499,-0.521 0.374,-0.553 0.288,-0.553C0.189,-0.553 0.098,-0.513 0.062,-0.413L0.162,-0.391C0.178,-0.429 0.218,-0.467 0.289,-0.467C0.358,-0.467 0.393,-0.431 0.393,-0.369L0.393,-0.366C0.393,-0.328 0.353,-0.328 0.255,-0.317C0.152,-0.305 0.046,-0.278 0.046,-0.154C0.046,-0.047 0.126,0.012 0.23,0.012ZM0.253,-0.073C0.193,-0.073 0.15,-0.1 0.15,-0.153C0.15,-0.21 0.2,-0.23 0.262,-0.238C0.296,-0.243 0.378,-0.252 0.393,-0.267L0.393,-0.197C0.393,-0.132 0.342,-0.073 0.253,-0.073Z" style="fill:white;fill-rule:nonzero;"/>
        </g>
        <g transform="matrix(20,0,0,20,505.474,252.068)">
            <path d="M0.326,-0.545L0.214,-0.545L0.214,-0.676L0.108,-0.676L0.108,-0.545L0.028,-0.545L0.028,-0.46L0.108,-0.46L0.108,-0.138C0.108,-0.039 0.183,0.009 0.267,0.007C0.301,0.007 0.324,0 0.336,-0.004L0.317,-0.092C0.31,-0.091 0.297,-0.087 0.279,-0.087C0.245,-0.087 0.214,-0.099 0.214,-0.16L0.214,-0.46L0.326,-0.46L0.326,-0.545Z" style="fill:white;fill-rule:nonzero;"/>
        </g>
        <g transform="matrix(20,0,0,20,512.91,252.068)">
            <path d="M0.071,-0L0.178,-0L0.178,-0.545L0.071,-0.545L0.071,-0ZM0.125,-0.63C0.162,-0.63 0.192,-0.658 0.192,-0.693C0.192,-0.728 0.162,-0.756 0.125,-0.756C0.088,-0.756 0.058,-0.728 0.058,-0.693C0.058,-0.658 0.088,-0.63 0.125,-0.63Z" style="fill:white;fill-rule:nonzero;"/>
        </g>
        <g transform="matrix(20,0,0,20,517.888,252.068)">
            <path d="M0.301,0.011C0.455,0.011 0.555,-0.102 0.555,-0.27C0.555,-0.44 0.455,-0.553 0.301,-0.553C0.147,-0.553 0.047,-0.44 0.047,-0.27C0.047,-0.102 0.147,0.011 0.301,0.011ZM0.301,-0.078C0.201,-0.078 0.154,-0.166 0.154,-0.271C0.154,-0.375 0.201,-0.464 0.301,-0.464C0.401,-0.464 0.448,-0.375 0.448,-0.271C0.448,-0.166 0.401,-0.078 0.301,-0.078Z" style="fill:white;fill-rule:nonzero;"/>
        </g>
        <g transform="matrix(20,0,0,20,529.934,252.068)">
            <path d="M0.178,-0.324C0.178,-0.411 0.231,-0.461 0.305,-0.461C0.377,-0.461 0.42,-0.413 0.42,-0.334L0.42,-0L0.527,-0L0.527,-0.347C0.527,-0.482 0.452,-0.553 0.341,-0.553C0.259,-0.553 0.205,-0.515 0.18,-0.457L0.173,-0.457L0.173,-0.545L0.071,-0.545L0.071,-0L0.178,-0L0.178,-0.324Z" style="fill:white;fill-rule:nonzero;"/>
        </g>
        <g transform="matrix(20,0,0,20,454.082,272.068)">
            <path d="M0.08,-0L0.19,-0L0.19,-0.256L0.339,-0.256C0.507,-0.256 0.591,-0.358 0.591,-0.492C0.591,-0.626 0.508,-0.727 0.339,-0.727L0.08,-0.727L0.08,-0ZM0.19,-0.349L0.19,-0.633L0.327,-0.633C0.436,-0.633 0.48,-0.574 0.48,-0.492C0.48,-0.409 0.436,-0.349 0.329,-0.349L0.19,-0.349Z" style="fill:white;fill-rule:nonzero;"/>
        </g>
        <g transform="matrix(20,0,0,20,466.866,272.068)">
            <path d="M0.138,0.205C0.226,0.205 0.282,0.159 0.313,0.073L0.538,-0.545L0.424,-0.545L0.286,-0.122L0.28,-0.122L0.142,-0.545L0.028,-0.545L0.228,0.007L0.215,0.043C0.188,0.116 0.15,0.122 0.092,0.106L0.066,0.193C0.079,0.199 0.107,0.205 0.138,0.205Z" style="fill:white;fill-rule:nonzero;"/>
        </g>
        <g transform="matrix(20,0,0,20,478.194,272.068)">
            <path d="M0.326,-0.545L0.214,-0.545L0.214,-0.676L0.108,-0.676L0.108,-0.545L0.028,-0.545L0.028,-0.46L0.108,-0.46L0.108,-0.138C0.108,-0.039 0.183,0.009 0.267,0.007C0.301,0.007 0.324,0 0.336,-0.004L0.317,-0.092C0.31,-0.091 0.297,-0.087 0.279,-0.087C0.245,-0.087 0.214,-0.099 0.214,-0.16L0.214,-0.46L0.326,-0.46L0.326,-0.545Z" style="fill:white;fill-rule:nonzero;"/>
        </g>
        <g transform="matrix(20,0,0,20,485.857,272.068)">
            <path d="M0.178,-0.324C0.178,-0.411 0.233,-0.461 0.308,-0.461C0.381,-0.461 0.425,-0.414 0.425,-0.334L0.425,-0L0.531,-0L0.531,-0.347C0.531,-0.483 0.457,-0.553 0.344,-0.553C0.26,-0.553 0.208,-0.516 0.183,-0.457L0.176,-0.457L0.176,-0.727L0.071,-0.727L0.071,-0L0.178,-0L0.178,-0.324Z" style="fill:white;fill-rule:nonzero;"/>
        </g>
        <g transform="matrix(20,0,0,20,497.896,272.068)">
            <path d="M0.301,0.011C0.455,0.011 0.555,-0.102 0.555,-0.27C0.555,-0.44 0.455,-0.553 0.301,-0.553C0.147,-0.553 0.047,-0.44 0.047,-0.27C0.047,-0.102 0.147,0.011 0.301,0.011ZM0.301,-0.078C0.201,-0.078 0.154,-0.166 0.154,-0.271C0.154,-0.375 0.201,-0.464 0.301,-0.464C0.401,-0.464 0.448,-0.375 0.448,-0.271C0.448,-0.166 0.401,-0.078 0.301,-0.078Z" style="fill:white;fill-rule:nonzero;"/>
        </g>
        <g transform="matrix(20,0,0,20,509.941,272.068)">
            <path d="M0.178,-0.324C0.178,-0.411 0.231,-0.461 0.305,-0.461C0.377,-0.461 0.42,-0.413 0.42,-0.334L0.42,-0L0.527,-0L0.527,-0.347C0.527,-0.482 0.452,-0.553 0.341,-0.553C0.259,-0.553 0.205,-0.515 0.18,-0.457L0.173,-0.457L0.173,-0.545L0.071,-0.545L0.071,-0L0.178,-0L0.178,-0.324Z" style="fill:white;fill-rule:nonzero;"/>
        </g>
    </g>
    <g transform="matrix(0.24361,0,0,0.423239,197.95,206.376)">
        <rect x="251.201" y="129.603" width="472.837" height="67.367" style="fill:rgb(18,194,233);"/>
    </g>
    <g transform="matrix(0.201882,0,0,0.423239,507.386,206.376)">
        <rect x="251.201" y="129.603" width="472.837" height="67.367" style="fill:rgb(18,194,233);"/>
    </g>
    <g transform="matrix(1.60089,0,0,1.60089,212.643,126.502)">
        <g transform="matrix(9.99445,0,0,9.99445,32.6904,96.4205)">
            <path d="M0.406,-0.761L0.24,-0.761L0.006,0.109L0.172,0.109L0.406,-0.761Z" style="fill-rule:nonzero;"/>
        </g>
        <g transform="matrix(9.99445,0,0,9.99445,36.8074,96.4205)">
            <path d="M0.548,-0.368C0.543,-0.483 0.447,-0.553 0.29,-0.553C0.134,-0.553 0.038,-0.489 0.038,-0.375C0.038,-0.289 0.093,-0.234 0.205,-0.214L0.301,-0.197C0.344,-0.19 0.363,-0.178 0.364,-0.158C0.363,-0.135 0.337,-0.122 0.301,-0.122C0.257,-0.122 0.225,-0.141 0.22,-0.176L0.026,-0.176C0.036,-0.064 0.133,0.01 0.3,0.01C0.451,0.01 0.562,-0.064 0.562,-0.18C0.562,-0.261 0.508,-0.308 0.396,-0.328L0.286,-0.348C0.244,-0.355 0.232,-0.37 0.233,-0.386C0.232,-0.409 0.26,-0.422 0.294,-0.422C0.333,-0.422 0.365,-0.401 0.368,-0.368L0.548,-0.368Z" style="fill-rule:nonzero;"/>
        </g>
        <g transform="matrix(9.99445,0,0,9.99445,42.6848,96.4205)">
            <path d="M0.375,-0.545L0.281,-0.545L0.281,-0.676L0.085,-0.676L0.085,-0.545L0.016,-0.545L0.016,-0.403L0.085,-0.403L0.085,-0.157C0.084,-0.043 0.154,0.015 0.29,0.008C0.334,0.005 0.367,-0.004 0.385,-0.009L0.357,-0.147C0.349,-0.145 0.33,-0.141 0.318,-0.141C0.293,-0.141 0.281,-0.153 0.281,-0.175L0.281,-0.403L0.375,-0.403L0.375,-0.545Z" style="fill-rule:nonzero;"/>
        </g>
        <g transform="matrix(9.99445,0,0,9.99445,46.7309,96.4205)">
            <path d="M0.202,0.009C0.273,0.009 0.326,-0.016 0.359,-0.077L0.364,-0.077L0.364,-0L0.547,-0L0.547,-0.374C0.547,-0.474 0.451,-0.553 0.295,-0.553C0.132,-0.553 0.052,-0.467 0.045,-0.368L0.226,-0.368C0.23,-0.402 0.255,-0.418 0.293,-0.418C0.327,-0.418 0.351,-0.402 0.351,-0.374L0.351,-0.372C0.351,-0.341 0.316,-0.331 0.224,-0.324C0.112,-0.316 0.024,-0.27 0.024,-0.151C0.024,-0.042 0.097,0.009 0.202,0.009ZM0.266,-0.115C0.232,-0.115 0.209,-0.131 0.209,-0.162C0.209,-0.19 0.229,-0.212 0.274,-0.219C0.305,-0.224 0.332,-0.23 0.352,-0.239L0.352,-0.193C0.352,-0.143 0.31,-0.115 0.266,-0.115Z" style="fill-rule:nonzero;"/>
        </g>
        <g transform="matrix(9.99445,0,0,9.99445,52.6367,96.4205)">
            <path d="M0.375,-0.545L0.281,-0.545L0.281,-0.676L0.085,-0.676L0.085,-0.545L0.016,-0.545L0.016,-0.403L0.085,-0.403L0.085,-0.157C0.084,-0.043 0.154,0.015 0.29,0.008C0.334,0.005 0.367,-0.004 0.385,-0.009L0.357,-0.147C0.349,-0.145 0.33,-0.141 0.318,-0.141C0.293,-0.141 0.281,-0.153 0.281,-0.175L0.281,-0.403L0.375,-0.403L0.375,-0.545Z" style="fill-rule:nonzero;"/>
        </g>
        <g transform="matrix(9.99445,0,0,9.99445,56.6828,96.4205)">
            <path d="M0.05,-0L0.246,-0L0.246,-0.545L0.05,-0.545L0.05,-0ZM0.148,-0.602C0.201,-0.602 0.244,-0.642 0.244,-0.692C0.244,-0.741 0.201,-0.781 0.148,-0.781C0.094,-0.781 0.051,-0.741 0.051,-0.692C0.051,-0.642 0.094,-0.602 0.148,-0.602Z" style="fill-rule:nonzero;"/>
        </g>
        <g transform="matrix(9.99445,0,0,9.99445,59.6357,96.4205)">
            <path d="M0.312,0.01C0.474,0.01 0.573,-0.083 0.575,-0.227L0.393,-0.227C0.389,-0.17 0.358,-0.139 0.315,-0.139C0.264,-0.139 0.23,-0.183 0.23,-0.273C0.23,-0.362 0.264,-0.406 0.315,-0.406C0.359,-0.406 0.388,-0.375 0.393,-0.318L0.575,-0.318C0.574,-0.46 0.473,-0.553 0.312,-0.553C0.135,-0.553 0.03,-0.439 0.03,-0.271C0.03,-0.104 0.135,0.01 0.312,0.01Z" style="fill-rule:nonzero;"/>
        </g>
        <g transform="matrix(9.99445,0,0,9.99445,65.6976,96.4205)">
            <path d="M0.406,-0.761L0.24,-0.761L0.006,0.109L0.172,0.109L0.406,-0.761Z" style="fill-rule:nonzero;"/>
        </g>
        <g transform="matrix(9.99445,0,0,9.99445,69.8147,96.4205)">
            <path d="M0.202,0.009C0.273,0.009 0.326,-0.016 0.359,-0.077L0.364,-0.077L0.364,-0L0.547,-0L0.547,-0.374C0.547,-0.474 0.451,-0.553 0.295,-0.553C0.132,-0.553 0.052,-0.467 0.045,-0.368L0.226,-0.368C0.23,-0.402 0.255,-0.418 0.293,-0.418C0.327,-0.418 0.351,-0.402 0.351,-0.374L0.351,-0.372C0.351,-0.341 0.316,-0.331 0.224,-0.324C0.112,-0.316 0.024,-0.27 0.024,-0.151C0.024,-0.042 0.097,0.009 0.202,0.009ZM0.266,-0.115C0.232,-0.115 0.209,-0.131 0.209,-0.162C0.209,-0.19 0.229,-0.212 0.274,-0.219C0.305,-0.224 0.332,-0.23 0.352,-0.239L0.352,-0.193C0.352,-0.143 0.31,-0.115 0.266,-0.115Z" style="fill-rule:nonzero;"/>
        </g>
        <g transform="matrix(9.99445,0,0,9.99445,75.7205,96.4205)">
            <path d="M0.156,0.011C0.208,0.011 0.255,-0.033 0.256,-0.088C0.255,-0.142 0.208,-0.186 0.156,-0.186C0.101,-0.186 0.056,-0.142 0.057,-0.088C0.056,-0.033 0.101,0.011 0.156,0.011Z" style="fill-rule:nonzero;"/>
        </g>
        <g transform="matrix(9.99445,0,0,9.99445,78.8438,96.4205)">
            <path d="M0.312,0.01C0.474,0.01 0.573,-0.083 0.575,-0.227L0.393,-0.227C0.389,-0.17 0.358,-0.139 0.315,-0.139C0.264,-0.139 0.23,-0.183 0.23,-0.273C0.23,-0.362 0.264,-0.406 0.315,-0.406C0.359,-0.406 0.388,-0.375 0.393,-0.318L0.575,-0.318C0.574,-0.46 0.473,-0.553 0.312,-0.553C0.135,-0.553 0.03,-0.439 0.03,-0.271C0.03,-0.104 0.135,0.01 0.312,0.01Z" style="fill-rule:nonzero;"/>
        </g>
        <g transform="matrix(9.99445,0,0,9.99445,84.9057,96.4205)">
            <path d="M0.548,-0.368C0.543,-0.483 0.447,-0.553 0.29,-0.553C0.134,-0.553 0.038,-0.489 0.038,-0.375C0.038,-0.289 0.093,-0.234 0.205,-0.214L0.301,-0.197C0.344,-0.19 0.363,-0.178 0.364,-0.158C0.363,-0.135 0.337,-0.122 0.301,-0.122C0.257,-0.122 0.225,-0.141 0.22,-0.176L0.026,-0.176C0.036,-0.064 0.133,0.01 0.3,0.01C0.451,0.01 0.562,-0.064 0.562,-0.18C0.562,-0.261 0.508,-0.308 0.396,-0.328L0.286,-0.348C0.244,-0.355 0.232,-0.37 0.233,-0.386C0.232,-0.409 0.26,-0.422 0.294,-0.422C0.333,-0.422 0.365,-0.401 0.368,-0.368L0.548,-0.368Z" style="fill-rule:nonzero;"/>
        </g>
        <g transform="matrix(9.99445,0,0,9.99445,90.7832,96.4205)">
            <path d="M0.548,-0.368C0.543,-0.483 0.447,-0.553 0.29,-0.553C0.134,-0.553 0.038,-0.489 0.038,-0.375C0.038,-0.289 0.093,-0.234 0.205,-0.214L0.301,-0.197C0.344,-0.19 0.363,-0.178 0.364,-0.158C0.363,-0.135 0.337,-0.122 0.301,-0.122C0.257,-0.122 0.225,-0.141 0.22,-0.176L0.026,-0.176C0.036,-0.064 0.133,0.01 0.3,0.01C0.451,0.01 0.562,-0.064 0.562,-0.18C0.562,-0.261 0.508,-0.308 0.396,-0.328L0.286,-0.348C0.244,-0.355 0.232,-0.37 0.233,-0.386C0.232,-0.409 0.26,-0.422 0.294,-0.422C0.333,-0.422 0.365,-0.401 0.368,-0.368L0.548,-0.368Z" style="fill-rule:nonzero;"/>
        </g>
    </g>
    <g transform="matrix(1.60089,0,0,1.60089,511.585,126.696)">
        <g transform="matrix(9.99445,0,0,9.99445,32.6904,96.4205)">
            <path d="M0.406,-0.761L0.24,-0.761L0.006,0.109L0.172,0.109L0.406,-0.761Z" style="fill-rule:nonzero;"/>
        </g>
        <g transform="matrix(9.99445,0,0,9.99445,36.8074,96.4205)">
            <path d="M0.05,0.205L0.246,0.205L0.246,-0.089L0.249,-0.089C0.271,-0.034 0.324,0.007 0.401,0.007C0.517,0.007 0.615,-0.084 0.615,-0.273C0.615,-0.47 0.51,-0.553 0.402,-0.553C0.321,-0.553 0.27,-0.506 0.249,-0.45L0.244,-0.45L0.244,-0.545L0.05,-0.545L0.05,0.205ZM0.241,-0.273C0.241,-0.354 0.274,-0.402 0.328,-0.402C0.382,-0.402 0.413,-0.354 0.413,-0.273C0.413,-0.192 0.382,-0.143 0.328,-0.143C0.274,-0.143 0.241,-0.193 0.241,-0.273Z" style="fill-rule:nonzero;"/>
        </g>
        <g transform="matrix(9.99445,0,0,9.99445,43.2811,96.4205)">
            <path d="M0.05,-0L0.246,-0L0.246,-0.284C0.246,-0.347 0.289,-0.388 0.347,-0.388C0.367,-0.388 0.399,-0.385 0.419,-0.378L0.419,-0.545C0.403,-0.55 0.386,-0.553 0.369,-0.553C0.311,-0.553 0.266,-0.518 0.246,-0.442L0.24,-0.442L0.24,-0.545L0.05,-0.545L0.05,-0Z" style="fill-rule:nonzero;"/>
        </g>
        <g transform="matrix(9.99445,0,0,9.99445,47.2988,96.4205)">
            <path d="M0.312,0.01C0.49,0.01 0.595,-0.104 0.595,-0.271C0.595,-0.439 0.49,-0.553 0.312,-0.553C0.135,-0.553 0.03,-0.439 0.03,-0.271C0.03,-0.104 0.135,0.01 0.312,0.01ZM0.314,-0.135C0.261,-0.135 0.23,-0.187 0.23,-0.273C0.23,-0.358 0.261,-0.411 0.314,-0.411C0.364,-0.411 0.395,-0.358 0.395,-0.273C0.395,-0.187 0.364,-0.135 0.314,-0.135Z" style="fill-rule:nonzero;"/>
        </g>
        <g transform="matrix(9.99445,0,0,9.99445,53.5453,96.4205)">
            <path d="M0.376,-0.545L0.277,-0.545L0.277,-0.57C0.277,-0.595 0.287,-0.612 0.324,-0.612C0.338,-0.612 0.359,-0.609 0.374,-0.605L0.402,-0.746C0.379,-0.751 0.327,-0.761 0.277,-0.761C0.158,-0.761 0.081,-0.696 0.081,-0.561L0.081,-0.545L0.011,-0.545L0.011,-0.403L0.081,-0.403L0.081,-0L0.277,-0L0.277,-0.403L0.376,-0.403L0.376,-0.545Z" style="fill-rule:nonzero;"/>
        </g>
        <g transform="matrix(9.99445,0,0,9.99445,57.563,96.4205)">
            <path d="M0.05,-0L0.246,-0L0.246,-0.545L0.05,-0.545L0.05,-0ZM0.148,-0.602C0.201,-0.602 0.244,-0.642 0.244,-0.692C0.244,-0.741 0.201,-0.781 0.148,-0.781C0.094,-0.781 0.051,-0.741 0.051,-0.692C0.051,-0.642 0.094,-0.602 0.148,-0.602Z" style="fill-rule:nonzero;"/>
        </g>
        <g transform="matrix(9.99445,0,0,9.99445,60.5159,96.4205)">
            <rect x="0.05" y="-0.727" width="0.196" height="0.727" style="fill-rule:nonzero;"/>
        </g>
        <g transform="matrix(9.99445,0,0,9.99445,63.4688,96.4205)">
            <path d="M0.311,0.01C0.462,0.01 0.56,-0.062 0.578,-0.176L0.399,-0.176C0.388,-0.145 0.355,-0.128 0.315,-0.128C0.257,-0.128 0.223,-0.166 0.223,-0.219L0.223,-0.227L0.578,-0.227L0.578,-0.273C0.578,-0.446 0.472,-0.553 0.307,-0.553C0.138,-0.553 0.03,-0.44 0.03,-0.271C0.03,-0.095 0.136,0.01 0.311,0.01ZM0.223,-0.335C0.224,-0.382 0.263,-0.415 0.311,-0.415C0.36,-0.415 0.397,-0.382 0.398,-0.335L0.223,-0.335Z" style="fill-rule:nonzero;"/>
        </g>
        <g transform="matrix(9.99445,0,0,9.99445,69.5449,96.4205)">
            <path d="M0.406,-0.761L0.24,-0.761L0.006,0.109L0.172,0.109L0.406,-0.761Z" style="fill-rule:nonzero;"/>
        </g>
        <g transform="matrix(9.99445,0,0,9.99445,73.662,96.4205)">
            <path d="M0.339,0.01C0.517,0.01 0.632,-0.098 0.632,-0.25C0.632,-0.388 0.536,-0.486 0.406,-0.486C0.332,-0.486 0.273,-0.453 0.25,-0.409L0.246,-0.409L0.26,-0.57L0.587,-0.57L0.587,-0.727L0.098,-0.727L0.07,-0.327L0.243,-0.293C0.26,-0.328 0.298,-0.349 0.339,-0.349C0.4,-0.349 0.442,-0.308 0.442,-0.244C0.442,-0.181 0.4,-0.139 0.339,-0.139C0.287,-0.139 0.244,-0.171 0.243,-0.222L0.051,-0.222C0.052,-0.086 0.172,0.01 0.339,0.01Z" style="fill-rule:nonzero;"/>
        </g>
        <g transform="matrix(9.99445,0,0,9.99445,80.3486,96.4205)">
            <path d="M0.406,-0.761L0.24,-0.761L0.006,0.109L0.172,0.109L0.406,-0.761Z" style="fill-rule:nonzero;"/>
        </g>
    </g>
    <g transform="matrix(1.54105,0,0,1.54105,313.653,340.304)">
        <path d="M5,2.5C4.726,2.5 4.5,2.726 4.5,3L4.5,21C4.5,21.274 4.726,21.5 5,21.5L19,21.5C19.274,21.5 19.5,21.274 19.5,21L19.5,8.5L15.5,8.5C14.403,8.5 13.5,7.597 13.5,6.5L13.5,2.5L5,2.5ZM15,2.5L15,6.5C15,6.774 15.226,7 15.5,7L19.5,7C19.496,6.874 19.443,6.753 19.354,6.664L15.336,2.646C15.247,2.557 15.126,2.504 15,2.5ZM3,3C3,1.903 3.903,1 5,1L14.982,1C15.512,1 16.021,1.211 16.396,1.586L20.414,5.604C20.789,5.979 21,6.488 21,7.018L21,21C21,22.097 20.097,23 19,23L5,23C3.903,23 3,22.097 3,21L3,3Z"/>
    </g>
    <g transform="matrix(1.60089,0,0,1.60089,557.36,319.693)">
        <g transform="matrix(13.7424,0,0,13.7424,40.6986,96.4205)">
            <path d="M0.232,-0L0.42,-0L0.544,-0.406L0.55,-0.406L0.673,-0L0.862,-0L1.077,-0.727L0.857,-0.727L0.757,-0.278L0.751,-0.278L0.634,-0.727L0.46,-0.727L0.342,-0.28L0.337,-0.28L0.237,-0.727L0.017,-0.727L0.232,-0Z" style="fill:rgb(226,54,239);fill-rule:nonzero;"/>
        </g>
        <g transform="matrix(13.7424,0,0,13.7424,55.5732,96.4205)">
            <path d="M0.439,-0.5L0.628,-0.5C0.627,-0.643 0.517,-0.737 0.341,-0.737C0.168,-0.737 0.046,-0.644 0.047,-0.506C0.047,-0.392 0.125,-0.329 0.254,-0.301L0.327,-0.286C0.408,-0.268 0.435,-0.248 0.436,-0.214C0.435,-0.179 0.403,-0.153 0.339,-0.153C0.264,-0.153 0.219,-0.189 0.216,-0.256L0.028,-0.256C0.029,-0.073 0.153,0.009 0.342,0.009C0.527,0.009 0.637,-0.071 0.638,-0.214C0.637,-0.325 0.571,-0.403 0.411,-0.437L0.351,-0.45C0.282,-0.465 0.251,-0.485 0.253,-0.52C0.253,-0.552 0.28,-0.575 0.341,-0.575C0.405,-0.575 0.435,-0.547 0.439,-0.5Z" style="fill:rgb(226,54,239);fill-rule:nonzero;"/>
        </g>
        <g transform="matrix(13.7424,0,0,13.7424,64.7283,96.4205)">
            <path d="M0.519,-0.487L0.719,-0.487C0.703,-0.633 0.571,-0.737 0.399,-0.737C0.203,-0.737 0.044,-0.602 0.044,-0.362C0.044,-0.132 0.188,0.01 0.401,0.01C0.591,0.01 0.727,-0.107 0.727,-0.305L0.727,-0.406L0.405,-0.406L0.405,-0.266L0.537,-0.266C0.535,-0.202 0.49,-0.162 0.402,-0.162C0.3,-0.162 0.247,-0.237 0.247,-0.365C0.247,-0.491 0.304,-0.565 0.403,-0.565C0.465,-0.565 0.507,-0.537 0.519,-0.487Z" style="fill:rgb(226,54,239);fill-rule:nonzero;"/>
        </g>
        <g transform="matrix(13.7424,0,0,13.7424,75.3474,96.4205)">
            <rect x="0.047" y="-0.727" width="0.197" height="0.727" style="fill:rgb(226,54,239);fill-rule:nonzero;"/>
        </g>
    </g>
    <defs>
        <linearGradient id="_Linear1" x1="0" y1="0" x2="1" y2="0" gradientUnits="userSpaceOnUse" gradientTransform="matrix(9.94245,9.96503,-9.96503,9.94245,3.57537,3.61717)"><stop offset="0" style="stop-color:rgb(56,126,184);stop-opacity:1"/><stop offset="1" style="stop-color:rgb(54,105,148);stop-opacity:1"/></linearGradient>
        <linearGradient id="_Linear2" x1="0" y1="0" x2="1" y2="0" gradientUnits="userSpaceOnUse" gradientTransform="matrix(11.3628,9.96503,-9.96503,11.3628,9.47063,10.0939)"><stop offset="0" style="stop-color:rgb(255,224,82);stop-opacity:1"/><stop offset="1" style="stop-color:rgb(255,195,49);stop-opacity:1"/></linearGradient>
    </defs>
</svg>
