<?xml version="1.0" encoding="UTF-8" standalone="no"?>
<!DOCTYPE svg PUBLIC "-//W3C//DTD SVG 1.1//EN" "http://www.w3.org/Graphics/SVG/1.1/DTD/svg11.dtd">
<svg width="100%" height="100%" viewBox="0 0 750 64" version="1.1" xmlns="http://www.w3.org/2000/svg" xmlns:xlink="http://www.w3.org/1999/xlink" xml:space="preserve" xmlns:serif="http://www.serif.com/" style="fill-rule:evenodd;clip-rule:evenodd;stroke-linejoin:round;stroke-miterlimit:2;">
    <rect id="Back" x="0" y="0" width="750" height="64" style="fill:white;"/>
    <g id="Icon" transform="matrix(0.125,0,0,0.125,0,0)">
        <rect id="Advanced" x="0" y="0" width="512" height="512" style="fill:url(#_Linear1);"/>
        <g transform="matrix(0.978358,0,0,0.988688,2.92794,-3.99101)">
            <rect x="35.046" y="41.678" width="447.249" height="442.576" style="fill:url(#_Linear2);"/>
        </g>
        <g transform="matrix(34.3667,0,0,34.3667,-4284.05,-9082.62)">
            <g transform="matrix(12,0,0,12,127.166,275.983)">
                <path d="M0.332,-0C0.324,-0 0.32,-0.004 0.319,-0.011L0.303,-0.107C0.303,-0.11 0.301,-0.112 0.297,-0.112L0.17,-0.112C0.166,-0.112 0.164,-0.11 0.164,-0.107L0.148,-0.011C0.147,-0.004 0.143,-0 0.135,-0L0.018,-0C0.009,-0 0.006,-0.004 0.008,-0.013L0.154,-0.689C0.155,-0.696 0.16,-0.7 0.167,-0.7L0.302,-0.7C0.309,-0.7 0.314,-0.696 0.315,-0.689L0.462,-0.013L0.463,-0.009C0.463,-0.003 0.459,-0 0.452,-0L0.332,-0ZM0.184,-0.226C0.184,-0.223 0.185,-0.221 0.188,-0.221L0.278,-0.221C0.281,-0.221 0.283,-0.223 0.282,-0.226L0.235,-0.502C0.234,-0.504 0.233,-0.505 0.232,-0.505C0.231,-0.505 0.23,-0.504 0.229,-0.502L0.184,-0.226Z" style="fill:white;fill-rule:nonzero;"/>
            </g>
            <g transform="matrix(12,0,0,12,132.806,275.983)">
                <path d="M0.093,-0.052C0.092,-0.051 0.092,-0.05 0.093,-0.049C0.094,-0.048 0.095,-0.047 0.096,-0.047L0.336,-0.047C0.343,-0.047 0.346,-0.044 0.346,-0.037L0.346,-0.01C0.346,-0.003 0.343,-0 0.336,-0L0.038,-0C0.031,-0 0.028,-0.003 0.028,-0.01L0.028,-0.04C0.028,-0.045 0.029,-0.049 0.031,-0.053C0.112,-0.188 0.17,-0.285 0.204,-0.344C0.249,-0.422 0.271,-0.486 0.271,-0.537C0.271,-0.574 0.262,-0.604 0.245,-0.627C0.227,-0.65 0.203,-0.661 0.174,-0.661C0.145,-0.661 0.123,-0.65 0.106,-0.627C0.089,-0.605 0.08,-0.575 0.081,-0.538L0.081,-0.502C0.081,-0.495 0.078,-0.492 0.071,-0.492L0.037,-0.492C0.03,-0.492 0.027,-0.495 0.027,-0.502L0.027,-0.54C0.028,-0.59 0.042,-0.63 0.069,-0.662C0.096,-0.693 0.132,-0.708 0.176,-0.708C0.221,-0.708 0.257,-0.692 0.283,-0.661C0.311,-0.63 0.324,-0.588 0.324,-0.537C0.324,-0.475 0.3,-0.403 0.253,-0.321C0.218,-0.262 0.192,-0.218 0.174,-0.189C0.163,-0.17 0.15,-0.149 0.137,-0.126C0.123,-0.103 0.108,-0.079 0.093,-0.052Z" style="fill:white;fill-rule:nonzero;"/>
            </g>
        </g>
    </g>
    <g transform="matrix(4.67711,0,0,4.67711,-462.664,-122.093)">
        <g transform="matrix(12,0,0,12,116.119,37.2782)">
            <path d="M0.492,-0C0.485,-0 0.481,-0.003 0.479,-0.01L0.449,-0.108C0.448,-0.111 0.446,-0.112 0.444,-0.112L0.198,-0.112C0.196,-0.112 0.194,-0.111 0.193,-0.108L0.164,-0.01C0.162,-0.003 0.158,-0 0.151,-0L0.024,-0C0.02,-0 0.017,-0.001 0.015,-0.004C0.013,-0.006 0.013,-0.009 0.014,-0.014L0.23,-0.69C0.232,-0.697 0.236,-0.7 0.243,-0.7L0.4,-0.7C0.407,-0.7 0.411,-0.697 0.413,-0.69L0.629,-0.014C0.63,-0.013 0.63,-0.011 0.63,-0.009C0.63,-0.003 0.626,-0 0.619,-0L0.492,-0ZM0.229,-0.227C0.228,-0.223 0.23,-0.221 0.233,-0.221L0.409,-0.221C0.413,-0.221 0.414,-0.223 0.413,-0.227L0.323,-0.524C0.322,-0.527 0.321,-0.528 0.32,-0.528C0.319,-0.527 0.318,-0.526 0.317,-0.524L0.229,-0.227Z" style="fill-rule:nonzero;"/>
        </g>
        <g transform="matrix(12,0,0,12,123.835,37.2782)">
            <path d="M0.369,-0.688C0.369,-0.691 0.37,-0.694 0.373,-0.697C0.375,-0.699 0.378,-0.7 0.381,-0.7L0.498,-0.7C0.501,-0.7 0.504,-0.699 0.506,-0.697C0.509,-0.694 0.51,-0.691 0.51,-0.688L0.51,-0.012C0.51,-0.009 0.509,-0.006 0.506,-0.004C0.504,-0.001 0.501,-0 0.498,-0L0.381,-0C0.378,-0 0.375,-0.001 0.373,-0.004C0.37,-0.006 0.369,-0.009 0.369,-0.012L0.369,-0.046C0.369,-0.048 0.368,-0.049 0.367,-0.05C0.366,-0.05 0.364,-0.049 0.363,-0.048C0.335,-0.011 0.296,0.008 0.247,0.008C0.2,0.008 0.16,-0.005 0.127,-0.031C0.093,-0.057 0.069,-0.093 0.054,-0.138C0.043,-0.173 0.037,-0.213 0.037,-0.259C0.037,-0.306 0.043,-0.348 0.055,-0.383C0.07,-0.426 0.095,-0.46 0.128,-0.485C0.161,-0.509 0.201,-0.522 0.25,-0.522C0.299,-0.522 0.337,-0.505 0.363,-0.47C0.364,-0.469 0.366,-0.468 0.367,-0.469C0.368,-0.469 0.369,-0.47 0.369,-0.472L0.369,-0.688ZM0.347,-0.156C0.36,-0.181 0.367,-0.214 0.367,-0.257C0.367,-0.302 0.36,-0.337 0.345,-0.362C0.33,-0.388 0.307,-0.401 0.278,-0.401C0.247,-0.401 0.223,-0.388 0.207,-0.362C0.19,-0.336 0.182,-0.301 0.182,-0.256C0.182,-0.216 0.189,-0.183 0.203,-0.156C0.22,-0.127 0.244,-0.113 0.277,-0.113C0.307,-0.113 0.33,-0.127 0.347,-0.156Z" style="fill-rule:nonzero;"/>
        </g>
        <g transform="matrix(12,0,0,12,130.627,37.2782)">
            <path d="M0.022,-0.501C0.021,-0.502 0.021,-0.504 0.021,-0.506C0.021,-0.512 0.025,-0.515 0.032,-0.515L0.161,-0.515C0.168,-0.515 0.173,-0.512 0.175,-0.505L0.257,-0.202C0.258,-0.2 0.259,-0.199 0.26,-0.199C0.261,-0.199 0.262,-0.2 0.263,-0.202L0.345,-0.505C0.347,-0.512 0.352,-0.515 0.359,-0.515L0.488,-0.513C0.492,-0.513 0.495,-0.512 0.497,-0.509C0.499,-0.507 0.499,-0.504 0.498,-0.499L0.339,-0.01C0.337,-0.003 0.333,-0 0.326,-0L0.195,-0C0.188,-0 0.184,-0.003 0.182,-0.01L0.022,-0.501Z" style="fill-rule:nonzero;"/>
        </g>
        <g transform="matrix(12,0,0,12,136.651,37.2782)">
            <path d="M0.26,-0.522C0.303,-0.522 0.342,-0.515 0.376,-0.5C0.41,-0.485 0.437,-0.464 0.456,-0.438C0.474,-0.412 0.484,-0.383 0.484,-0.351L0.484,-0.012C0.484,-0.009 0.483,-0.006 0.481,-0.004C0.478,-0.001 0.475,-0 0.472,-0L0.355,-0C0.352,-0 0.349,-0.001 0.346,-0.004C0.344,-0.006 0.343,-0.009 0.343,-0.012L0.343,-0.045C0.343,-0.047 0.342,-0.048 0.341,-0.049C0.34,-0.05 0.338,-0.049 0.337,-0.047C0.308,-0.01 0.263,0.008 0.201,0.008C0.15,0.008 0.108,-0.005 0.076,-0.03C0.044,-0.055 0.028,-0.093 0.028,-0.142C0.028,-0.193 0.046,-0.233 0.082,-0.262C0.118,-0.29 0.169,-0.304 0.236,-0.304L0.338,-0.304C0.341,-0.304 0.343,-0.306 0.343,-0.309L0.343,-0.331C0.343,-0.353 0.336,-0.37 0.323,-0.383C0.309,-0.395 0.289,-0.401 0.263,-0.401C0.242,-0.401 0.225,-0.397 0.212,-0.39C0.198,-0.383 0.189,-0.372 0.185,-0.359C0.183,-0.352 0.179,-0.348 0.172,-0.349L0.051,-0.365C0.043,-0.366 0.039,-0.369 0.04,-0.374C0.043,-0.402 0.054,-0.427 0.074,-0.45C0.093,-0.473 0.119,-0.49 0.152,-0.503C0.184,-0.516 0.22,-0.522 0.26,-0.522ZM0.24,-0.097C0.269,-0.097 0.293,-0.105 0.313,-0.12C0.333,-0.135 0.343,-0.155 0.343,-0.179L0.343,-0.215C0.343,-0.218 0.341,-0.22 0.338,-0.22L0.266,-0.22C0.236,-0.22 0.213,-0.214 0.196,-0.203C0.179,-0.192 0.17,-0.176 0.17,-0.155C0.17,-0.137 0.176,-0.123 0.189,-0.113C0.202,-0.102 0.219,-0.097 0.24,-0.097Z" style="fill-rule:nonzero;"/>
        </g>
        <g transform="matrix(12,0,0,12,143.071,37.2782)">
            <path d="M0.324,-0.522C0.377,-0.522 0.42,-0.506 0.453,-0.473C0.486,-0.44 0.502,-0.396 0.502,-0.34L0.502,-0.012C0.502,-0.009 0.501,-0.006 0.499,-0.004C0.496,-0.001 0.493,-0 0.49,-0L0.373,-0C0.37,-0 0.367,-0.001 0.365,-0.004C0.362,-0.006 0.361,-0.009 0.361,-0.012L0.361,-0.311C0.361,-0.338 0.354,-0.359 0.339,-0.376C0.324,-0.393 0.305,-0.401 0.28,-0.401C0.255,-0.401 0.235,-0.393 0.22,-0.376C0.205,-0.359 0.197,-0.338 0.197,-0.311L0.197,-0.012C0.197,-0.009 0.196,-0.006 0.194,-0.004C0.191,-0.001 0.188,-0 0.185,-0L0.068,-0C0.065,-0 0.062,-0.001 0.059,-0.004C0.057,-0.006 0.056,-0.009 0.056,-0.012L0.056,-0.502C0.056,-0.505 0.057,-0.508 0.059,-0.51C0.062,-0.513 0.065,-0.514 0.068,-0.514L0.185,-0.514C0.188,-0.514 0.191,-0.513 0.194,-0.51C0.196,-0.508 0.197,-0.505 0.197,-0.502L0.197,-0.467C0.197,-0.465 0.198,-0.464 0.199,-0.463C0.2,-0.462 0.201,-0.463 0.202,-0.464C0.229,-0.503 0.27,-0.522 0.324,-0.522Z" style="fill-rule:nonzero;"/>
        </g>
        <g transform="matrix(12,0,0,12,149.743,37.2782)">
            <path d="M0.273,0.008C0.22,0.008 0.173,-0.005 0.135,-0.032C0.096,-0.059 0.068,-0.095 0.051,-0.142C0.04,-0.175 0.034,-0.215 0.034,-0.26C0.034,-0.305 0.04,-0.343 0.051,-0.376C0.067,-0.421 0.095,-0.457 0.135,-0.483C0.174,-0.509 0.22,-0.522 0.273,-0.522C0.326,-0.522 0.373,-0.509 0.413,-0.482C0.454,-0.455 0.481,-0.422 0.494,-0.381C0.499,-0.365 0.502,-0.353 0.502,-0.345L0.502,-0.343C0.502,-0.337 0.499,-0.333 0.492,-0.332L0.377,-0.315L0.375,-0.315C0.369,-0.315 0.365,-0.318 0.363,-0.325L0.36,-0.341C0.355,-0.358 0.345,-0.373 0.329,-0.384C0.313,-0.395 0.294,-0.401 0.272,-0.401C0.251,-0.401 0.233,-0.396 0.218,-0.385C0.203,-0.374 0.193,-0.36 0.187,-0.341C0.18,-0.321 0.176,-0.294 0.176,-0.259C0.176,-0.224 0.179,-0.197 0.186,-0.177C0.192,-0.157 0.203,-0.141 0.218,-0.13C0.233,-0.119 0.251,-0.113 0.272,-0.113C0.293,-0.113 0.312,-0.118 0.327,-0.13C0.342,-0.141 0.353,-0.156 0.359,-0.175C0.36,-0.176 0.36,-0.178 0.36,-0.181C0.361,-0.182 0.361,-0.183 0.361,-0.184C0.362,-0.192 0.366,-0.195 0.375,-0.194L0.49,-0.176C0.497,-0.175 0.5,-0.171 0.5,-0.165C0.5,-0.16 0.498,-0.15 0.494,-0.135C0.48,-0.09 0.453,-0.055 0.412,-0.03C0.372,-0.005 0.326,0.008 0.273,0.008Z" style="fill-rule:nonzero;"/>
        </g>
        <g transform="matrix(12,0,0,12,156.055,37.2782)">
            <path d="M0.5,-0.31C0.504,-0.285 0.505,-0.256 0.504,-0.225C0.503,-0.217 0.499,-0.213 0.491,-0.213L0.182,-0.213C0.181,-0.213 0.179,-0.213 0.178,-0.212C0.177,-0.211 0.176,-0.209 0.177,-0.208C0.18,-0.193 0.184,-0.18 0.189,-0.168C0.206,-0.131 0.242,-0.112 0.295,-0.112C0.337,-0.113 0.37,-0.13 0.395,-0.164C0.398,-0.168 0.401,-0.17 0.404,-0.17C0.407,-0.17 0.409,-0.169 0.412,-0.166L0.483,-0.095C0.486,-0.092 0.487,-0.089 0.487,-0.086C0.487,-0.084 0.486,-0.081 0.484,-0.078C0.463,-0.051 0.435,-0.029 0.4,-0.015C0.365,0 0.327,0.008 0.286,0.008C0.229,0.008 0.18,-0.005 0.141,-0.031C0.101,-0.057 0.072,-0.093 0.055,-0.14C0.041,-0.173 0.034,-0.217 0.034,-0.272C0.034,-0.307 0.039,-0.339 0.048,-0.368C0.064,-0.415 0.091,-0.453 0.13,-0.481C0.168,-0.509 0.213,-0.523 0.266,-0.523C0.333,-0.523 0.386,-0.504 0.426,-0.465C0.466,-0.426 0.491,-0.375 0.5,-0.31ZM0.266,-0.401C0.225,-0.401 0.197,-0.381 0.184,-0.342C0.181,-0.334 0.179,-0.323 0.177,-0.31C0.177,-0.307 0.179,-0.305 0.182,-0.305L0.355,-0.305C0.359,-0.305 0.36,-0.307 0.359,-0.31C0.356,-0.329 0.354,-0.339 0.354,-0.338C0.348,-0.358 0.338,-0.374 0.323,-0.385C0.308,-0.396 0.289,-0.401 0.266,-0.401Z" style="fill-rule:nonzero;"/>
        </g>
        <g transform="matrix(12,0,0,12,162.451,37.2782)">
            <path d="M0.369,-0.688C0.369,-0.691 0.37,-0.694 0.373,-0.697C0.375,-0.699 0.378,-0.7 0.381,-0.7L0.498,-0.7C0.501,-0.7 0.504,-0.699 0.506,-0.697C0.509,-0.694 0.51,-0.691 0.51,-0.688L0.51,-0.012C0.51,-0.009 0.509,-0.006 0.506,-0.004C0.504,-0.001 0.501,-0 0.498,-0L0.381,-0C0.378,-0 0.375,-0.001 0.373,-0.004C0.37,-0.006 0.369,-0.009 0.369,-0.012L0.369,-0.046C0.369,-0.048 0.368,-0.049 0.367,-0.05C0.366,-0.05 0.364,-0.049 0.363,-0.048C0.335,-0.011 0.296,0.008 0.247,0.008C0.2,0.008 0.16,-0.005 0.127,-0.031C0.093,-0.057 0.069,-0.093 0.054,-0.138C0.043,-0.173 0.037,-0.213 0.037,-0.259C0.037,-0.306 0.043,-0.348 0.055,-0.383C0.07,-0.426 0.095,-0.46 0.128,-0.485C0.161,-0.509 0.201,-0.522 0.25,-0.522C0.299,-0.522 0.337,-0.505 0.363,-0.47C0.364,-0.469 0.366,-0.468 0.367,-0.469C0.368,-0.469 0.369,-0.47 0.369,-0.472L0.369,-0.688ZM0.347,-0.156C0.36,-0.181 0.367,-0.214 0.367,-0.257C0.367,-0.302 0.36,-0.337 0.345,-0.362C0.33,-0.388 0.307,-0.401 0.278,-0.401C0.247,-0.401 0.223,-0.388 0.207,-0.362C0.19,-0.336 0.182,-0.301 0.182,-0.256C0.182,-0.216 0.189,-0.183 0.203,-0.156C0.22,-0.127 0.244,-0.113 0.277,-0.113C0.307,-0.113 0.33,-0.127 0.347,-0.156Z" style="fill-rule:nonzero;"/>
        </g>
        <g transform="matrix(12,0,0,12,171.643,37.2782)">
            <path d="M0.167,-0.088C0.166,-0.087 0.166,-0.086 0.167,-0.085C0.168,-0.084 0.169,-0.083 0.17,-0.083L0.47,-0.083C0.477,-0.083 0.48,-0.08 0.48,-0.073L0.48,-0.01C0.48,-0.003 0.477,-0 0.47,-0L0.052,-0C0.045,-0 0.042,-0.003 0.042,-0.01L0.042,-0.071C0.042,-0.076 0.044,-0.08 0.047,-0.083C0.088,-0.131 0.137,-0.188 0.193,-0.255C0.228,-0.298 0.254,-0.329 0.271,-0.349C0.334,-0.424 0.365,-0.481 0.365,-0.521C0.365,-0.552 0.354,-0.577 0.333,-0.596C0.312,-0.615 0.284,-0.625 0.249,-0.625C0.215,-0.625 0.188,-0.615 0.167,-0.596C0.146,-0.577 0.135,-0.551 0.136,-0.52L0.136,-0.49C0.136,-0.483 0.133,-0.48 0.126,-0.48L0.049,-0.48C0.042,-0.48 0.039,-0.483 0.039,-0.49L0.039,-0.533C0.04,-0.568 0.05,-0.598 0.069,-0.625C0.087,-0.652 0.112,-0.672 0.143,-0.687C0.174,-0.701 0.21,-0.708 0.249,-0.708C0.292,-0.708 0.329,-0.7 0.362,-0.684C0.394,-0.668 0.419,-0.646 0.436,-0.618C0.453,-0.59 0.462,-0.558 0.462,-0.523C0.462,-0.468 0.432,-0.402 0.372,-0.327C0.345,-0.293 0.314,-0.255 0.277,-0.213C0.24,-0.17 0.204,-0.129 0.167,-0.088Z" style="fill-rule:nonzero;"/>
        </g>
    </g>
    <g id="Advanced1" serif:id="Advanced" transform="matrix(0.366327,0,0,0.723243,467.61,8.85622)">
        <rect x="-229.223" y="26.188" width="967.158" height="11.624" style="fill:url(#_Linear3);"/>
    </g>
    <defs>
        <linearGradient id="_Linear1" x1="0" y1="0" x2="1" y2="0" gradientUnits="userSpaceOnUse" gradientTransform="matrix(512,-512,512,512,0,512)"><stop offset="0" style="stop-color:rgb(252,0,255);stop-opacity:1"/><stop offset="1" style="stop-color:rgb(220,36,48);stop-opacity:1"/></linearGradient>
        <linearGradient id="_Linear2" x1="0" y1="0" x2="1" y2="0" gradientUnits="userSpaceOnUse" gradientTransform="matrix(2.73861e-14,-442.576,447.249,2.71e-14,258.67,484.254)"><stop offset="0" style="stop-color:black;stop-opacity:0.7"/><stop offset="0.5" style="stop-color:black;stop-opacity:0.53"/><stop offset="1" style="stop-color:black;stop-opacity:0"/></linearGradient>
        <linearGradient id="_Linear3" x1="0" y1="0" x2="1" y2="0" gradientUnits="userSpaceOnUse" gradientTransform="matrix(967.158,0,0,489.871,-229.223,26.1878)"><stop offset="0" style="stop-color:rgb(252,0,255);stop-opacity:1"/><stop offset="1" style="stop-color:rgb(220,36,48);stop-opacity:1"/></linearGradient>
    </defs>
</svg>
