<?xml version="1.0" encoding="UTF-8" standalone="no"?>
<!DOCTYPE svg PUBLIC "-//W3C//DTD SVG 1.1//EN" "http://www.w3.org/Graphics/SVG/1.1/DTD/svg11.dtd">
<svg width="100%" height="100%" viewBox="0 0 750 64" version="1.1" xmlns="http://www.w3.org/2000/svg" xmlns:xlink="http://www.w3.org/1999/xlink" xml:space="preserve" xmlns:serif="http://www.serif.com/" style="fill-rule:evenodd;clip-rule:evenodd;stroke-linejoin:round;stroke-miterlimit:2;">
    <rect id="Back" x="0" y="0" width="750" height="64" style="fill:white;"/>
    <g id="Icon" transform="matrix(0.125,0,0,0.125,0,0)">
        <rect id="Master" x="0" y="0" width="512" height="512" style="fill:url(#_Linear1);"/>
        <g transform="matrix(0.978358,0,0,0.988688,2.92794,-3.99101)">
            <rect x="35.046" y="41.678" width="447.249" height="442.576" style="fill:url(#_Linear2);"/>
        </g>
        <g transform="matrix(34.3667,0,0,34.3667,-4284.05,-9082.62)">
            <g transform="matrix(12,0,0,12,127.406,275.983)">
                <path d="M0.365,-0.692C0.368,-0.697 0.373,-0.7 0.38,-0.7L0.496,-0.7C0.499,-0.7 0.502,-0.699 0.504,-0.697C0.507,-0.694 0.508,-0.691 0.508,-0.688L0.508,-0.012C0.508,-0.009 0.507,-0.006 0.504,-0.004C0.502,-0.001 0.499,-0 0.496,-0L0.379,-0C0.376,-0 0.373,-0.001 0.371,-0.004C0.368,-0.006 0.367,-0.009 0.367,-0.012L0.367,-0.463C0.367,-0.466 0.366,-0.467 0.365,-0.467C0.364,-0.467 0.362,-0.466 0.361,-0.464L0.282,-0.324C0.279,-0.319 0.276,-0.316 0.274,-0.316C0.272,-0.316 0.269,-0.319 0.266,-0.324L0.188,-0.463C0.187,-0.465 0.185,-0.466 0.184,-0.466C0.183,-0.466 0.182,-0.465 0.182,-0.462L0.182,-0.012C0.182,-0.009 0.181,-0.006 0.179,-0.004C0.176,-0.001 0.173,-0 0.17,-0L0.053,-0C0.05,-0 0.047,-0.001 0.045,-0.004C0.042,-0.006 0.041,-0.009 0.041,-0.012L0.041,-0.688C0.041,-0.691 0.042,-0.694 0.045,-0.697C0.047,-0.699 0.05,-0.7 0.053,-0.7L0.169,-0.7C0.176,-0.7 0.181,-0.697 0.184,-0.692L0.272,-0.533C0.274,-0.53 0.276,-0.53 0.278,-0.533L0.365,-0.692Z" style="fill:white;fill-rule:nonzero;"/>
            </g>
            <g transform="matrix(12,0,0,12,133.982,275.983)">
                <path d="M0.132,-0.697C0.136,-0.699 0.14,-0.7 0.145,-0.7L0.181,-0.7C0.188,-0.7 0.191,-0.697 0.191,-0.69L0.191,-0.01C0.191,-0.003 0.188,-0 0.181,-0L0.148,-0C0.141,-0 0.138,-0.003 0.138,-0.01L0.138,-0.633C0.138,-0.634 0.138,-0.635 0.137,-0.636C0.136,-0.637 0.134,-0.637 0.133,-0.636L0.036,-0.597L0.032,-0.596C0.028,-0.596 0.025,-0.599 0.024,-0.604L0.019,-0.627L0.019,-0.629C0.019,-0.634 0.021,-0.638 0.025,-0.64L0.132,-0.697Z" style="fill:white;fill-rule:nonzero;"/>
            </g>
        </g>
    </g>
    <g transform="matrix(4.67711,0,0,4.67711,-462.664,-122.093)">
        <g transform="matrix(12,0,0,12,116.119,37.2782)">
            <path d="M0.515,-0.692C0.518,-0.697 0.522,-0.7 0.529,-0.7L0.646,-0.7C0.649,-0.7 0.652,-0.699 0.655,-0.697C0.657,-0.694 0.658,-0.691 0.658,-0.688L0.658,-0.012C0.658,-0.009 0.657,-0.006 0.655,-0.004C0.652,-0.001 0.649,-0 0.646,-0L0.529,-0C0.526,-0 0.523,-0.001 0.521,-0.004C0.518,-0.006 0.517,-0.009 0.517,-0.012L0.517,-0.451C0.517,-0.454 0.516,-0.455 0.515,-0.456C0.514,-0.456 0.512,-0.455 0.511,-0.453L0.405,-0.279C0.402,-0.274 0.398,-0.271 0.391,-0.271L0.333,-0.271C0.326,-0.271 0.322,-0.274 0.319,-0.279L0.212,-0.452C0.211,-0.454 0.209,-0.455 0.208,-0.455C0.207,-0.454 0.206,-0.453 0.206,-0.45L0.206,-0.012C0.206,-0.009 0.205,-0.006 0.203,-0.004C0.2,-0.001 0.197,-0 0.194,-0L0.077,-0C0.074,-0 0.071,-0.001 0.069,-0.004C0.066,-0.006 0.065,-0.009 0.065,-0.012L0.065,-0.688C0.065,-0.691 0.066,-0.694 0.069,-0.697C0.071,-0.699 0.074,-0.7 0.077,-0.7L0.194,-0.7C0.201,-0.7 0.205,-0.697 0.208,-0.692L0.359,-0.454C0.361,-0.45 0.363,-0.45 0.365,-0.454L0.515,-0.692Z" style="fill-rule:nonzero;"/>
        </g>
        <g transform="matrix(12,0,0,12,124.795,37.2782)">
            <path d="M0.26,-0.522C0.303,-0.522 0.342,-0.515 0.376,-0.5C0.41,-0.485 0.437,-0.464 0.456,-0.438C0.474,-0.412 0.484,-0.383 0.484,-0.351L0.484,-0.012C0.484,-0.009 0.483,-0.006 0.481,-0.004C0.478,-0.001 0.475,-0 0.472,-0L0.355,-0C0.352,-0 0.349,-0.001 0.346,-0.004C0.344,-0.006 0.343,-0.009 0.343,-0.012L0.343,-0.045C0.343,-0.047 0.342,-0.048 0.341,-0.049C0.34,-0.05 0.338,-0.049 0.337,-0.047C0.308,-0.01 0.263,0.008 0.201,0.008C0.15,0.008 0.108,-0.005 0.076,-0.03C0.044,-0.055 0.028,-0.093 0.028,-0.142C0.028,-0.193 0.046,-0.233 0.082,-0.262C0.118,-0.29 0.169,-0.304 0.236,-0.304L0.338,-0.304C0.341,-0.304 0.343,-0.306 0.343,-0.309L0.343,-0.331C0.343,-0.353 0.336,-0.37 0.323,-0.383C0.309,-0.395 0.289,-0.401 0.263,-0.401C0.242,-0.401 0.225,-0.397 0.212,-0.39C0.198,-0.383 0.189,-0.372 0.185,-0.359C0.183,-0.352 0.179,-0.348 0.172,-0.349L0.051,-0.365C0.043,-0.366 0.039,-0.369 0.04,-0.374C0.043,-0.402 0.054,-0.427 0.074,-0.45C0.093,-0.473 0.119,-0.49 0.152,-0.503C0.184,-0.516 0.22,-0.522 0.26,-0.522ZM0.24,-0.097C0.269,-0.097 0.293,-0.105 0.313,-0.12C0.333,-0.135 0.343,-0.155 0.343,-0.179L0.343,-0.215C0.343,-0.218 0.341,-0.22 0.338,-0.22L0.266,-0.22C0.236,-0.22 0.213,-0.214 0.196,-0.203C0.179,-0.192 0.17,-0.176 0.17,-0.155C0.17,-0.137 0.176,-0.123 0.189,-0.113C0.202,-0.102 0.219,-0.097 0.24,-0.097Z" style="fill-rule:nonzero;"/>
        </g>
        <g transform="matrix(12,0,0,12,131.179,37.2782)">
            <path d="M0.247,0.007C0.202,0.007 0.163,0.001 0.13,-0.012C0.097,-0.025 0.071,-0.042 0.053,-0.065C0.035,-0.088 0.026,-0.113 0.026,-0.142L0.026,-0.152C0.026,-0.155 0.027,-0.158 0.029,-0.161C0.032,-0.163 0.035,-0.164 0.038,-0.164L0.149,-0.164C0.152,-0.164 0.155,-0.163 0.158,-0.161C0.16,-0.158 0.161,-0.155 0.161,-0.152L0.161,-0.151C0.161,-0.136 0.169,-0.124 0.185,-0.114C0.201,-0.103 0.221,-0.098 0.246,-0.098C0.269,-0.098 0.287,-0.102 0.301,-0.111C0.315,-0.12 0.322,-0.131 0.322,-0.145C0.322,-0.157 0.316,-0.166 0.304,-0.172C0.292,-0.178 0.272,-0.184 0.245,-0.191C0.214,-0.199 0.189,-0.207 0.171,-0.214C0.128,-0.229 0.094,-0.247 0.069,-0.268C0.044,-0.289 0.031,-0.32 0.031,-0.36C0.031,-0.409 0.05,-0.449 0.089,-0.477C0.128,-0.506 0.178,-0.521 0.241,-0.521C0.284,-0.521 0.321,-0.514 0.354,-0.5C0.386,-0.487 0.411,-0.468 0.429,-0.443C0.446,-0.418 0.455,-0.39 0.455,-0.359C0.455,-0.356 0.454,-0.353 0.452,-0.35C0.449,-0.348 0.446,-0.347 0.443,-0.347L0.335,-0.347C0.332,-0.347 0.329,-0.348 0.327,-0.35C0.324,-0.353 0.323,-0.356 0.323,-0.359C0.323,-0.374 0.316,-0.386 0.301,-0.396C0.286,-0.406 0.267,-0.411 0.242,-0.411C0.219,-0.411 0.201,-0.407 0.187,-0.399C0.173,-0.391 0.166,-0.38 0.166,-0.366C0.166,-0.353 0.173,-0.343 0.187,-0.336C0.2,-0.329 0.223,-0.322 0.254,-0.315C0.273,-0.311 0.292,-0.306 0.31,-0.3C0.357,-0.286 0.395,-0.268 0.422,-0.246C0.449,-0.224 0.463,-0.192 0.463,-0.15C0.463,-0.101 0.444,-0.062 0.405,-0.035C0.366,-0.007 0.313,0.007 0.247,0.007Z" style="fill-rule:nonzero;"/>
        </g>
        <g transform="matrix(12,0,0,12,137.083,37.2782)">
            <path d="M0.344,-0.413C0.344,-0.41 0.343,-0.407 0.341,-0.405C0.338,-0.402 0.335,-0.401 0.332,-0.401L0.236,-0.401C0.233,-0.401 0.231,-0.399 0.231,-0.396L0.231,-0.184C0.231,-0.162 0.235,-0.146 0.245,-0.135C0.254,-0.124 0.268,-0.119 0.288,-0.119L0.322,-0.119C0.325,-0.119 0.328,-0.118 0.331,-0.116C0.333,-0.113 0.334,-0.11 0.334,-0.107L0.334,-0.012C0.334,-0.005 0.33,-0 0.322,0.001C0.294,0.002 0.274,0.003 0.261,0.003C0.206,0.003 0.164,-0.006 0.137,-0.025C0.11,-0.043 0.096,-0.077 0.096,-0.128L0.096,-0.396C0.096,-0.399 0.094,-0.401 0.091,-0.401L0.033,-0.401C0.03,-0.401 0.027,-0.402 0.025,-0.405C0.022,-0.407 0.021,-0.41 0.021,-0.413L0.021,-0.502C0.021,-0.505 0.022,-0.508 0.025,-0.51C0.027,-0.513 0.03,-0.514 0.033,-0.514L0.091,-0.514C0.094,-0.514 0.096,-0.516 0.096,-0.519L0.096,-0.638C0.096,-0.641 0.097,-0.644 0.1,-0.647C0.102,-0.649 0.105,-0.65 0.108,-0.65L0.219,-0.65C0.222,-0.65 0.225,-0.649 0.228,-0.647C0.23,-0.644 0.231,-0.641 0.231,-0.638L0.231,-0.519C0.231,-0.516 0.233,-0.514 0.236,-0.514L0.332,-0.514C0.335,-0.514 0.338,-0.513 0.341,-0.51C0.343,-0.508 0.344,-0.505 0.344,-0.502L0.344,-0.413Z" style="fill-rule:nonzero;"/>
        </g>
        <g transform="matrix(12,0,0,12,141.499,37.2782)">
            <path d="M0.5,-0.31C0.504,-0.285 0.505,-0.256 0.504,-0.225C0.503,-0.217 0.499,-0.213 0.491,-0.213L0.182,-0.213C0.181,-0.213 0.179,-0.213 0.178,-0.212C0.177,-0.211 0.176,-0.209 0.177,-0.208C0.18,-0.193 0.184,-0.18 0.189,-0.168C0.206,-0.131 0.242,-0.112 0.295,-0.112C0.337,-0.113 0.37,-0.13 0.395,-0.164C0.398,-0.168 0.401,-0.17 0.404,-0.17C0.407,-0.17 0.409,-0.169 0.412,-0.166L0.483,-0.095C0.486,-0.092 0.487,-0.089 0.487,-0.086C0.487,-0.084 0.486,-0.081 0.484,-0.078C0.463,-0.051 0.435,-0.029 0.4,-0.015C0.365,0 0.327,0.008 0.286,0.008C0.229,0.008 0.18,-0.005 0.141,-0.031C0.101,-0.057 0.072,-0.093 0.055,-0.14C0.041,-0.173 0.034,-0.217 0.034,-0.272C0.034,-0.307 0.039,-0.339 0.048,-0.368C0.064,-0.415 0.091,-0.453 0.13,-0.481C0.168,-0.509 0.213,-0.523 0.266,-0.523C0.333,-0.523 0.386,-0.504 0.426,-0.465C0.466,-0.426 0.491,-0.375 0.5,-0.31ZM0.266,-0.401C0.225,-0.401 0.197,-0.381 0.184,-0.342C0.181,-0.334 0.179,-0.323 0.177,-0.31C0.177,-0.307 0.179,-0.305 0.182,-0.305L0.355,-0.305C0.359,-0.305 0.36,-0.307 0.359,-0.31C0.356,-0.329 0.354,-0.339 0.354,-0.338C0.348,-0.358 0.338,-0.374 0.323,-0.385C0.308,-0.396 0.289,-0.401 0.266,-0.401Z" style="fill-rule:nonzero;"/>
        </g>
        <g transform="matrix(12,0,0,12,147.895,37.2782)">
            <path d="M0.313,-0.521C0.336,-0.521 0.355,-0.516 0.369,-0.507C0.374,-0.504 0.376,-0.499 0.375,-0.492L0.355,-0.378C0.354,-0.37 0.35,-0.368 0.341,-0.371C0.331,-0.374 0.319,-0.376 0.305,-0.376C0.301,-0.376 0.294,-0.375 0.283,-0.374C0.259,-0.372 0.239,-0.363 0.222,-0.347C0.205,-0.332 0.197,-0.311 0.197,-0.285L0.197,-0.012C0.197,-0.009 0.196,-0.006 0.194,-0.004C0.191,-0.001 0.188,-0 0.185,-0L0.068,-0C0.065,-0 0.062,-0.001 0.059,-0.004C0.057,-0.006 0.056,-0.009 0.056,-0.012L0.056,-0.502C0.056,-0.505 0.057,-0.508 0.059,-0.51C0.062,-0.513 0.065,-0.514 0.068,-0.514L0.185,-0.514C0.188,-0.514 0.191,-0.513 0.194,-0.51C0.196,-0.508 0.197,-0.505 0.197,-0.502L0.197,-0.464C0.197,-0.462 0.198,-0.461 0.199,-0.46C0.2,-0.459 0.201,-0.46 0.202,-0.461C0.229,-0.501 0.266,-0.521 0.313,-0.521Z" style="fill-rule:nonzero;"/>
        </g>
        <g transform="matrix(12,0,0,12,154.915,37.2782)">
            <path d="M0.146,-0.697C0.15,-0.699 0.154,-0.7 0.159,-0.7L0.238,-0.7C0.245,-0.7 0.248,-0.697 0.248,-0.69L0.248,-0.01C0.248,-0.003 0.245,-0 0.238,-0L0.162,-0C0.155,-0 0.152,-0.003 0.152,-0.01L0.152,-0.597C0.152,-0.598 0.152,-0.599 0.151,-0.6C0.15,-0.601 0.148,-0.601 0.147,-0.6L0.042,-0.564C0.041,-0.563 0.039,-0.563 0.037,-0.563C0.033,-0.563 0.031,-0.566 0.03,-0.571L0.026,-0.628C0.026,-0.635 0.028,-0.639 0.032,-0.64L0.146,-0.697Z" style="fill-rule:nonzero;"/>
        </g>
    </g>
    <g id="Master1" serif:id="Master" transform="matrix(0.448837,0,0,0.723243,406.723,8.85622)">
        <rect x="-229.223" y="26.188" width="967.158" height="11.624" style="fill:url(#_Linear3);"/>
    </g>
    <defs>
        <linearGradient id="_Linear1" x1="0" y1="0" x2="1" y2="0" gradientUnits="userSpaceOnUse" gradientTransform="matrix(512,-512,512,512,0,512)"><stop offset="0" style="stop-color:rgb(220,36,48);stop-opacity:1"/><stop offset="1" style="stop-color:rgb(242,113,33);stop-opacity:1"/></linearGradient>
        <linearGradient id="_Linear2" x1="0" y1="0" x2="1" y2="0" gradientUnits="userSpaceOnUse" gradientTransform="matrix(2.73861e-14,-442.576,447.249,2.71e-14,258.67,484.254)"><stop offset="0" style="stop-color:black;stop-opacity:0.7"/><stop offset="0.5" style="stop-color:black;stop-opacity:0.53"/><stop offset="1" style="stop-color:black;stop-opacity:0"/></linearGradient>
        <linearGradient id="_Linear3" x1="0" y1="0" x2="1" y2="0" gradientUnits="userSpaceOnUse" gradientTransform="matrix(967.158,0,0,489.871,-229.223,26.1878)"><stop offset="0" style="stop-color:rgb(220,36,48);stop-opacity:1"/><stop offset="1" style="stop-color:rgb(242,113,33);stop-opacity:1"/></linearGradient>
    </defs>
</svg>
