<?xml version="1.0" encoding="UTF-8" standalone="no"?>
<!DOCTYPE svg PUBLIC "-//W3C//DTD SVG 1.1//EN" "http://www.w3.org/Graphics/SVG/1.1/DTD/svg11.dtd">
<svg width="100%" height="100%" viewBox="0 0 1000 300" version="1.1" xmlns="http://www.w3.org/2000/svg" xmlns:xlink="http://www.w3.org/1999/xlink" xml:space="preserve" xmlns:serif="http://www.serif.com/" style="fill-rule:evenodd;clip-rule:evenodd;stroke-linecap:square;stroke-linejoin:round;stroke-miterlimit:1.5;">
    <g transform="matrix(1.12305,0,0,0.585938,212.5,0)">
        <rect x="0" y="0" width="512" height="512" style="fill:rgb(59,59,59);"/>
    </g>
    <g transform="matrix(-1,-8.54419e-17,1.22465e-16,-0.697686,1175.95,159.212)">
        <g transform="matrix(-1,1.22465e-16,-1.7553e-16,-1.43331,1175.95,228.2)">
            <path d="M496.998,92.404L514.998,116.404L532.998,92.404L496.998,92.404Z" style="fill:rgb(255,192,0);"/>
            <path d="M514.998,97.204L514.998,64.796" style="fill:none;stroke:rgb(255,192,0);stroke-width:8px;"/>
        </g>
    </g>
    <g transform="matrix(-1,-2.82125e-16,1.22465e-16,-2.30372,1019.98,376.554)">
        <g transform="matrix(-1,1.22465e-16,-5.31595e-17,-0.43408,1019.98,163.455)">
            <path d="M341.031,211.204L359.031,235.204L377.031,211.204L341.031,211.204Z" style="fill:rgb(255,192,0);"/>
            <path d="M359.031,216.004L359.031,64.796" style="fill:none;stroke:rgb(255,192,0);stroke-width:8px;"/>
        </g>
    </g>
    <g transform="matrix(0.907466,0,0,0.39645,222.808,-15.9209)">
        <path d="M462.936,116.009C462.936,102.087 457.998,90.785 451.916,90.785L135.515,90.785C129.433,90.785 124.495,102.087 124.495,116.009L124.495,178.375C124.495,192.296 129.433,203.598 135.515,203.598L451.916,203.598C457.998,203.598 462.936,192.296 462.936,178.375L462.936,116.009Z" style="fill:rgb(255,192,0);"/>
    </g>
    <g transform="matrix(0.163011,0,0,0.39645,311.152,199.213)">
        <path d="M462.936,116.009C462.936,102.087 435.448,90.785 401.591,90.785L185.841,90.785C151.983,90.785 124.495,102.087 124.495,116.009L124.495,178.375C124.495,192.296 151.983,203.598 185.841,203.598L401.591,203.598C435.448,203.598 462.936,192.296 462.936,178.375L462.936,116.009Z" style="fill:rgb(255,192,0);"/>
    </g>
    <g transform="matrix(0.491715,0,0,0.811046,415.274,42.7734)">
        <path d="M462.936,103.115C462.936,96.31 453.823,90.785 442.599,90.785L144.832,90.785C133.608,90.785 124.495,96.31 124.495,103.115L124.495,191.269C124.495,198.074 133.608,203.598 144.832,203.598L442.599,203.598C453.823,203.598 462.936,198.074 462.936,191.269L462.936,103.115Z" style="fill:rgb(255,192,0);fill-opacity:0.14;"/>
    </g>
    <g transform="matrix(2.17987,0,0,2.17987,191.352,-158.986)">
        <g transform="matrix(12,0,0,12,24.5497,96.4205)">
            <path d="M0.343,-0L0.291,-0.39L0.285,-0.39L0.233,-0L0.06,-0L0.026,-0.518L0.154,-0.518L0.173,-0.123L0.182,-0.123L0.241,-0.518L0.335,-0.518L0.395,-0.123L0.403,-0.123L0.435,-0.518L0.56,-0.518L0.511,-0L0.343,-0Z" style="fill:white;fill-rule:nonzero;"/>
        </g>
        <g transform="matrix(12,0,0,12,31.581,96.4205)">
            <path d="M0.38,-0L0.38,-0.313C0.38,-0.341 0.373,-0.364 0.361,-0.379C0.348,-0.395 0.329,-0.403 0.306,-0.403C0.239,-0.403 0.206,-0.357 0.206,-0.267L0.206,-0L0.074,-0L0.074,-0.732L0.206,-0.732L0.206,-0.424L0.219,-0.424C0.224,-0.459 0.236,-0.485 0.254,-0.502C0.273,-0.519 0.302,-0.527 0.34,-0.527C0.395,-0.527 0.437,-0.511 0.467,-0.478C0.497,-0.444 0.512,-0.397 0.512,-0.337L0.512,-0L0.38,-0Z" style="fill:white;fill-rule:nonzero;"/>
        </g>
        <g transform="matrix(12,0,0,12,38.6122,96.4205)">
            <path d="M0.07,-0L0.07,-0.122L0.261,-0.122L0.261,-0.396L0.099,-0.396L0.099,-0.518L0.393,-0.518L0.393,-0.122L0.546,-0.122L0.546,-0L0.07,-0ZM0.321,-0.587C0.296,-0.587 0.276,-0.595 0.26,-0.611C0.245,-0.626 0.237,-0.647 0.237,-0.672C0.237,-0.697 0.245,-0.717 0.26,-0.733C0.276,-0.749 0.296,-0.756 0.321,-0.756C0.346,-0.756 0.367,-0.749 0.382,-0.733C0.398,-0.717 0.406,-0.697 0.406,-0.672C0.406,-0.647 0.398,-0.626 0.382,-0.611C0.367,-0.595 0.346,-0.587 0.321,-0.587Z" style="fill:white;fill-rule:nonzero;"/>
        </g>
        <g transform="matrix(12,0,0,12,45.6435,96.4205)">
            <path d="M0.37,0.01C0.305,0.01 0.258,-0.008 0.229,-0.044C0.2,-0.08 0.186,-0.137 0.186,-0.216L0.186,-0.611L0.04,-0.611L0.04,-0.732L0.318,-0.732L0.318,-0.221C0.318,-0.188 0.323,-0.165 0.335,-0.15C0.346,-0.135 0.371,-0.128 0.409,-0.128C0.438,-0.128 0.474,-0.134 0.518,-0.146L0.533,-0.011C0.505,-0.004 0.478,0.002 0.453,0.005C0.427,0.008 0.399,0.01 0.37,0.01Z" style="fill:white;fill-rule:nonzero;"/>
        </g>
        <g transform="matrix(12,0,0,12,52.6747,96.4205)">
            <path d="M0.339,0.01C0.249,0.01 0.18,-0.013 0.131,-0.06C0.083,-0.106 0.058,-0.173 0.058,-0.26C0.058,-0.344 0.079,-0.41 0.12,-0.457C0.162,-0.504 0.22,-0.527 0.296,-0.527C0.37,-0.527 0.427,-0.506 0.467,-0.462C0.508,-0.419 0.528,-0.356 0.528,-0.273C0.528,-0.25 0.527,-0.228 0.525,-0.207L0.196,-0.207C0.216,-0.146 0.268,-0.115 0.351,-0.115C0.374,-0.115 0.397,-0.116 0.42,-0.119C0.443,-0.121 0.466,-0.125 0.49,-0.129L0.502,-0.004C0.469,0.002 0.439,0.006 0.412,0.007C0.384,0.009 0.36,0.01 0.339,0.01ZM0.19,-0.298L0.398,-0.298C0.398,-0.333 0.389,-0.36 0.371,-0.378C0.354,-0.397 0.329,-0.406 0.297,-0.406C0.267,-0.406 0.243,-0.397 0.224,-0.378C0.206,-0.359 0.194,-0.333 0.19,-0.298Z" style="fill:white;fill-rule:nonzero;"/>
        </g>
    </g>
    <g transform="matrix(2.17987,0,0,2.17987,433.934,-51.7378)">
        <g transform="matrix(12,0,0,12,24.5497,96.4205)">
            <rect x="0.06" y="-0.727" width="0.151" height="0.727" style="fill:white;fill-rule:nonzero;"/>
        </g>
        <g transform="matrix(12,0,0,12,27.8139,96.4205)">
            <path d="M0.06,-0L0.212,-0L0.212,-0.545L0.06,-0.545L0.06,-0ZM0.136,-0.616C0.181,-0.616 0.218,-0.65 0.218,-0.692C0.218,-0.734 0.181,-0.769 0.136,-0.769C0.092,-0.769 0.055,-0.734 0.055,-0.692C0.055,-0.65 0.092,-0.616 0.136,-0.616Z" style="fill:white;fill-rule:nonzero;"/>
        </g>
        <g transform="matrix(12,0,0,12,31.0781,96.4205)">
            <path d="M0.306,0.216C0.462,0.216 0.573,0.145 0.573,0.005L0.573,-0.545L0.423,-0.545L0.423,-0.454L0.417,-0.454C0.397,-0.498 0.352,-0.553 0.261,-0.553C0.141,-0.553 0.04,-0.46 0.04,-0.274C0.04,-0.092 0.138,-0.008 0.261,-0.008C0.348,-0.008 0.397,-0.051 0.417,-0.097L0.423,-0.097L0.423,0.003C0.423,0.078 0.375,0.107 0.31,0.107C0.243,0.107 0.209,0.078 0.197,0.045L0.057,0.064C0.075,0.15 0.159,0.216 0.306,0.216ZM0.309,-0.121C0.235,-0.121 0.195,-0.18 0.195,-0.274C0.195,-0.367 0.234,-0.432 0.309,-0.432C0.383,-0.432 0.424,-0.37 0.424,-0.274C0.424,-0.178 0.382,-0.121 0.309,-0.121Z" style="fill:white;fill-rule:nonzero;"/>
        </g>
        <g transform="matrix(12,0,0,12,38.6761,96.4205)">
            <path d="M0.212,-0.315C0.212,-0.386 0.254,-0.427 0.315,-0.427C0.376,-0.427 0.412,-0.387 0.412,-0.32L0.412,-0L0.563,-0L0.563,-0.347C0.563,-0.474 0.489,-0.553 0.375,-0.553C0.294,-0.553 0.235,-0.513 0.211,-0.449L0.205,-0.449L0.205,-0.545L0.06,-0.545L0.06,-0L0.212,-0L0.212,-0.315Z" style="fill:white;fill-rule:nonzero;"/>
        </g>
        <g transform="matrix(12,0,0,12,46.1378,96.4205)">
            <path d="M0.309,0.011C0.444,0.011 0.535,-0.055 0.556,-0.156L0.416,-0.165C0.401,-0.124 0.362,-0.102 0.311,-0.102C0.236,-0.102 0.188,-0.152 0.188,-0.234L0.188,-0.234L0.559,-0.234L0.559,-0.276C0.559,-0.461 0.447,-0.553 0.303,-0.553C0.142,-0.553 0.038,-0.439 0.038,-0.27C0.038,-0.097 0.141,0.011 0.309,0.011ZM0.188,-0.328C0.191,-0.39 0.238,-0.44 0.305,-0.44C0.371,-0.44 0.417,-0.393 0.417,-0.328L0.188,-0.328Z" style="fill:white;fill-rule:nonzero;"/>
        </g>
        <g transform="matrix(12,0,0,12,53.3097,96.4205)">
            <path d="M0.514,-0.39C0.501,-0.49 0.42,-0.553 0.282,-0.553C0.142,-0.553 0.05,-0.488 0.051,-0.383C0.05,-0.301 0.102,-0.248 0.208,-0.227L0.303,-0.208C0.35,-0.199 0.372,-0.181 0.373,-0.154C0.372,-0.121 0.337,-0.098 0.284,-0.098C0.23,-0.098 0.194,-0.121 0.185,-0.166L0.036,-0.158C0.05,-0.054 0.139,0.011 0.284,0.011C0.425,0.011 0.526,-0.061 0.527,-0.169C0.526,-0.248 0.475,-0.295 0.369,-0.317L0.27,-0.337C0.219,-0.348 0.201,-0.365 0.201,-0.391C0.201,-0.424 0.238,-0.445 0.284,-0.445C0.337,-0.445 0.368,-0.417 0.376,-0.381L0.514,-0.39Z" style="fill:white;fill-rule:nonzero;"/>
        </g>
        <g transform="matrix(12,0,0,12,62.8338,96.4205)">
            <path d="M0.261,0.009C0.349,0.009 0.395,-0.042 0.416,-0.087L0.423,-0.087L0.423,-0L0.572,-0L0.572,-0.727L0.421,-0.727L0.421,-0.454L0.416,-0.454C0.396,-0.498 0.352,-0.553 0.261,-0.553C0.141,-0.553 0.04,-0.46 0.04,-0.272C0.04,-0.089 0.137,0.009 0.261,0.009ZM0.309,-0.112C0.235,-0.112 0.195,-0.178 0.195,-0.273C0.195,-0.367 0.234,-0.432 0.309,-0.432C0.383,-0.432 0.424,-0.37 0.424,-0.273C0.424,-0.175 0.382,-0.112 0.309,-0.112Z" style="fill:white;fill-rule:nonzero;"/>
        </g>
        <g transform="matrix(12,0,0,12,70.4574,96.4205)">
            <path d="M0.309,0.011C0.444,0.011 0.535,-0.055 0.556,-0.156L0.416,-0.165C0.401,-0.124 0.362,-0.102 0.311,-0.102C0.236,-0.102 0.188,-0.152 0.188,-0.234L0.188,-0.234L0.559,-0.234L0.559,-0.276C0.559,-0.461 0.447,-0.553 0.303,-0.553C0.142,-0.553 0.038,-0.439 0.038,-0.27C0.038,-0.097 0.141,0.011 0.309,0.011ZM0.188,-0.328C0.191,-0.39 0.238,-0.44 0.305,-0.44C0.371,-0.44 0.417,-0.393 0.417,-0.328L0.188,-0.328Z" style="fill:white;fill-rule:nonzero;"/>
        </g>
        <g transform="matrix(12,0,0,12,24.5497,108.42)">
            <path d="M0.307,0.011C0.452,0.011 0.543,-0.075 0.55,-0.2L0.408,-0.2C0.399,-0.142 0.36,-0.109 0.309,-0.109C0.238,-0.109 0.192,-0.168 0.192,-0.273C0.192,-0.376 0.238,-0.435 0.309,-0.435C0.364,-0.435 0.399,-0.398 0.408,-0.344L0.55,-0.344C0.544,-0.47 0.449,-0.553 0.306,-0.553C0.141,-0.553 0.038,-0.438 0.038,-0.271C0.038,-0.105 0.139,0.011 0.307,0.011Z" style="fill:white;fill-rule:nonzero;"/>
        </g>
        <g transform="matrix(12,0,0,12,31.598,108.42)">
            <path d="M0.307,0.011C0.472,0.011 0.575,-0.103 0.575,-0.271C0.575,-0.44 0.472,-0.553 0.307,-0.553C0.141,-0.553 0.038,-0.44 0.038,-0.271C0.038,-0.103 0.141,0.011 0.307,0.011ZM0.308,-0.107C0.231,-0.107 0.192,-0.176 0.192,-0.272C0.192,-0.367 0.231,-0.437 0.308,-0.437C0.382,-0.437 0.422,-0.367 0.422,-0.272C0.422,-0.176 0.382,-0.107 0.308,-0.107Z" style="fill:white;fill-rule:nonzero;"/>
        </g>
        <g transform="matrix(12,0,0,12,38.9616,108.42)">
            <path d="M0.261,0.009C0.349,0.009 0.395,-0.042 0.416,-0.087L0.423,-0.087L0.423,-0L0.572,-0L0.572,-0.727L0.421,-0.727L0.421,-0.454L0.416,-0.454C0.396,-0.498 0.352,-0.553 0.261,-0.553C0.141,-0.553 0.04,-0.46 0.04,-0.272C0.04,-0.089 0.137,0.009 0.261,0.009ZM0.309,-0.112C0.235,-0.112 0.195,-0.178 0.195,-0.273C0.195,-0.367 0.234,-0.432 0.309,-0.432C0.383,-0.432 0.424,-0.37 0.424,-0.273C0.424,-0.175 0.382,-0.112 0.309,-0.112Z" style="fill:white;fill-rule:nonzero;"/>
        </g>
        <g transform="matrix(12,0,0,12,46.5852,108.42)">
            <path d="M0.309,0.011C0.444,0.011 0.535,-0.055 0.556,-0.156L0.416,-0.165C0.401,-0.124 0.362,-0.102 0.311,-0.102C0.236,-0.102 0.188,-0.152 0.188,-0.234L0.188,-0.234L0.559,-0.234L0.559,-0.276C0.559,-0.461 0.447,-0.553 0.303,-0.553C0.142,-0.553 0.038,-0.439 0.038,-0.27C0.038,-0.097 0.141,0.011 0.309,0.011ZM0.188,-0.328C0.191,-0.39 0.238,-0.44 0.305,-0.44C0.371,-0.44 0.417,-0.393 0.417,-0.328L0.188,-0.328Z" style="fill:white;fill-rule:nonzero;"/>
        </g>
        <g transform="matrix(12,0,0,12,53.7571,108.42)">
            <path d="M0.149,0.009C0.194,0.009 0.234,-0.029 0.234,-0.076C0.234,-0.123 0.194,-0.161 0.149,-0.161C0.102,-0.161 0.063,-0.123 0.064,-0.076C0.063,-0.029 0.102,0.009 0.149,0.009Z" style="fill:white;fill-rule:nonzero;"/>
        </g>
        <g transform="matrix(12,0,0,12,57.3281,108.42)">
            <path d="M0.149,0.009C0.194,0.009 0.234,-0.029 0.234,-0.076C0.234,-0.123 0.194,-0.161 0.149,-0.161C0.102,-0.161 0.063,-0.123 0.064,-0.076C0.063,-0.029 0.102,0.009 0.149,0.009Z" style="fill:white;fill-rule:nonzero;"/>
        </g>
        <g transform="matrix(12,0,0,12,60.8991,108.42)">
            <path d="M0.149,0.009C0.194,0.009 0.234,-0.029 0.234,-0.076C0.234,-0.123 0.194,-0.161 0.149,-0.161C0.102,-0.161 0.063,-0.123 0.064,-0.076C0.063,-0.029 0.102,0.009 0.149,0.009Z" style="fill:white;fill-rule:nonzero;"/>
        </g>
    </g>
    <g transform="matrix(2.17987,0,0,2.17987,293.556,-159.259)">
        <g transform="matrix(12,0,0,12,24.5497,96.4205)">
            <path d="M0.309,0.011C0.444,0.011 0.535,-0.055 0.556,-0.156L0.416,-0.165C0.401,-0.124 0.362,-0.102 0.311,-0.102C0.236,-0.102 0.188,-0.152 0.188,-0.234L0.188,-0.234L0.559,-0.234L0.559,-0.276C0.559,-0.461 0.447,-0.553 0.303,-0.553C0.142,-0.553 0.038,-0.439 0.038,-0.27C0.038,-0.097 0.141,0.011 0.309,0.011ZM0.188,-0.328C0.191,-0.39 0.238,-0.44 0.305,-0.44C0.371,-0.44 0.417,-0.393 0.417,-0.328L0.188,-0.328Z" style="fill-rule:nonzero;"/>
        </g>
        <g transform="matrix(12,0,0,12,31.6108,96.4205)">
            <path d="M0.187,-0.545L0.031,-0.545L0.187,-0.273L0.025,-0L0.181,-0L0.287,-0.189L0.395,-0L0.549,-0L0.387,-0.273L0.545,-0.545L0.39,-0.545L0.287,-0.355L0.187,-0.545Z" style="fill-rule:nonzero;"/>
        </g>
        <g transform="matrix(12,0,0,12,38.4972,96.4205)">
            <path d="M0.06,0.205L0.212,0.205L0.212,-0.087L0.216,-0.087C0.237,-0.042 0.283,0.009 0.371,0.009C0.495,0.009 0.592,-0.089 0.592,-0.272C0.592,-0.46 0.491,-0.553 0.371,-0.553C0.28,-0.553 0.237,-0.498 0.216,-0.454L0.21,-0.454L0.21,-0.545L0.06,-0.545L0.06,0.205ZM0.208,-0.273C0.208,-0.37 0.25,-0.432 0.323,-0.432C0.398,-0.432 0.438,-0.367 0.438,-0.273C0.438,-0.178 0.397,-0.112 0.323,-0.112C0.25,-0.112 0.208,-0.175 0.208,-0.273Z" style="fill-rule:nonzero;"/>
        </g>
        <g transform="matrix(12,0,0,12,46.0866,96.4205)">
            <path d="M0.06,-0L0.212,-0L0.212,-0.309C0.212,-0.376 0.261,-0.422 0.327,-0.422C0.348,-0.422 0.377,-0.418 0.391,-0.414L0.391,-0.548C0.378,-0.551 0.359,-0.553 0.344,-0.553C0.283,-0.553 0.233,-0.518 0.213,-0.45L0.207,-0.45L0.207,-0.545L0.06,-0.545L0.06,-0Z" style="fill-rule:nonzero;"/>
        </g>
        <g transform="matrix(12,0,0,12,50.6847,96.4205)">
            <path d="M0.309,0.011C0.444,0.011 0.535,-0.055 0.556,-0.156L0.416,-0.165C0.401,-0.124 0.362,-0.102 0.311,-0.102C0.236,-0.102 0.188,-0.152 0.188,-0.234L0.188,-0.234L0.559,-0.234L0.559,-0.276C0.559,-0.461 0.447,-0.553 0.303,-0.553C0.142,-0.553 0.038,-0.439 0.038,-0.27C0.038,-0.097 0.141,0.011 0.309,0.011ZM0.188,-0.328C0.191,-0.39 0.238,-0.44 0.305,-0.44C0.371,-0.44 0.417,-0.393 0.417,-0.328L0.188,-0.328Z" style="fill-rule:nonzero;"/>
        </g>
        <g transform="matrix(12,0,0,12,57.8565,96.4205)">
            <path d="M0.514,-0.39C0.501,-0.49 0.42,-0.553 0.282,-0.553C0.142,-0.553 0.05,-0.488 0.051,-0.383C0.05,-0.301 0.102,-0.248 0.208,-0.227L0.303,-0.208C0.35,-0.199 0.372,-0.181 0.373,-0.154C0.372,-0.121 0.337,-0.098 0.284,-0.098C0.23,-0.098 0.194,-0.121 0.185,-0.166L0.036,-0.158C0.05,-0.054 0.139,0.011 0.284,0.011C0.425,0.011 0.526,-0.061 0.527,-0.169C0.526,-0.248 0.475,-0.295 0.369,-0.317L0.27,-0.337C0.219,-0.348 0.201,-0.365 0.201,-0.391C0.201,-0.424 0.238,-0.445 0.284,-0.445C0.337,-0.445 0.368,-0.417 0.376,-0.381L0.514,-0.39Z" style="fill-rule:nonzero;"/>
        </g>
        <g transform="matrix(12,0,0,12,64.598,96.4205)">
            <path d="M0.514,-0.39C0.501,-0.49 0.42,-0.553 0.282,-0.553C0.142,-0.553 0.05,-0.488 0.051,-0.383C0.05,-0.301 0.102,-0.248 0.208,-0.227L0.303,-0.208C0.35,-0.199 0.372,-0.181 0.373,-0.154C0.372,-0.121 0.337,-0.098 0.284,-0.098C0.23,-0.098 0.194,-0.121 0.185,-0.166L0.036,-0.158C0.05,-0.054 0.139,0.011 0.284,0.011C0.425,0.011 0.526,-0.061 0.527,-0.169C0.526,-0.248 0.475,-0.295 0.369,-0.317L0.27,-0.337C0.219,-0.348 0.201,-0.365 0.201,-0.391C0.201,-0.424 0.238,-0.445 0.284,-0.445C0.337,-0.445 0.368,-0.417 0.376,-0.381L0.514,-0.39Z" style="fill-rule:nonzero;"/>
        </g>
        <g transform="matrix(12,0,0,12,71.3395,96.4205)">
            <path d="M0.06,-0L0.212,-0L0.212,-0.545L0.06,-0.545L0.06,-0ZM0.136,-0.616C0.181,-0.616 0.218,-0.65 0.218,-0.692C0.218,-0.734 0.181,-0.769 0.136,-0.769C0.092,-0.769 0.055,-0.734 0.055,-0.692C0.055,-0.65 0.092,-0.616 0.136,-0.616Z" style="fill-rule:nonzero;"/>
        </g>
        <g transform="matrix(12,0,0,12,74.6037,96.4205)">
            <path d="M0.307,0.011C0.472,0.011 0.575,-0.103 0.575,-0.271C0.575,-0.44 0.472,-0.553 0.307,-0.553C0.141,-0.553 0.038,-0.44 0.038,-0.271C0.038,-0.103 0.141,0.011 0.307,0.011ZM0.308,-0.107C0.231,-0.107 0.192,-0.176 0.192,-0.272C0.192,-0.367 0.231,-0.437 0.308,-0.437C0.382,-0.437 0.422,-0.367 0.422,-0.272C0.422,-0.176 0.382,-0.107 0.308,-0.107Z" style="fill-rule:nonzero;"/>
        </g>
        <g transform="matrix(12,0,0,12,81.9673,96.4205)">
            <path d="M0.212,-0.315C0.212,-0.386 0.254,-0.427 0.315,-0.427C0.376,-0.427 0.412,-0.387 0.412,-0.32L0.412,-0L0.563,-0L0.563,-0.347C0.563,-0.474 0.489,-0.553 0.375,-0.553C0.294,-0.553 0.235,-0.513 0.211,-0.449L0.205,-0.449L0.205,-0.545L0.06,-0.545L0.06,-0L0.212,-0L0.212,-0.315Z" style="fill-rule:nonzero;"/>
        </g>
        <g transform="matrix(12,0,0,12,92.2116,96.4205)">
            <path d="M0.063,-0L0.212,-0L0.212,-0.087L0.219,-0.087C0.24,-0.042 0.286,0.009 0.374,0.009C0.498,0.009 0.595,-0.089 0.595,-0.272C0.595,-0.46 0.494,-0.553 0.374,-0.553C0.283,-0.553 0.239,-0.498 0.219,-0.454L0.214,-0.454L0.214,-0.727L0.063,-0.727L0.063,-0ZM0.211,-0.273C0.211,-0.37 0.252,-0.432 0.326,-0.432C0.401,-0.432 0.441,-0.367 0.441,-0.273C0.441,-0.178 0.4,-0.112 0.326,-0.112C0.253,-0.112 0.211,-0.175 0.211,-0.273Z" style="fill-rule:nonzero;"/>
        </g>
        <g transform="matrix(12,0,0,12,99.8352,96.4205)">
            <path d="M0.307,0.011C0.472,0.011 0.575,-0.103 0.575,-0.271C0.575,-0.44 0.472,-0.553 0.307,-0.553C0.141,-0.553 0.038,-0.44 0.038,-0.271C0.038,-0.103 0.141,0.011 0.307,0.011ZM0.308,-0.107C0.231,-0.107 0.192,-0.176 0.192,-0.272C0.192,-0.367 0.231,-0.437 0.308,-0.437C0.382,-0.437 0.422,-0.367 0.422,-0.272C0.422,-0.176 0.382,-0.107 0.308,-0.107Z" style="fill-rule:nonzero;"/>
        </g>
        <g transform="matrix(12,0,0,12,107.199,96.4205)">
            <path d="M0.307,0.011C0.472,0.011 0.575,-0.103 0.575,-0.271C0.575,-0.44 0.472,-0.553 0.307,-0.553C0.141,-0.553 0.038,-0.44 0.038,-0.271C0.038,-0.103 0.141,0.011 0.307,0.011ZM0.308,-0.107C0.231,-0.107 0.192,-0.176 0.192,-0.272C0.192,-0.367 0.231,-0.437 0.308,-0.437C0.382,-0.437 0.422,-0.367 0.422,-0.272C0.422,-0.176 0.382,-0.107 0.308,-0.107Z" style="fill-rule:nonzero;"/>
        </g>
        <g transform="matrix(12,0,0,12,114.562,96.4205)">
            <rect x="0.06" y="-0.727" width="0.151" height="0.727" style="fill-rule:nonzero;"/>
        </g>
        <g transform="matrix(12,0,0,12,117.827,96.4205)">
            <path d="M0.309,0.011C0.444,0.011 0.535,-0.055 0.556,-0.156L0.416,-0.165C0.401,-0.124 0.362,-0.102 0.311,-0.102C0.236,-0.102 0.188,-0.152 0.188,-0.234L0.188,-0.234L0.559,-0.234L0.559,-0.276C0.559,-0.461 0.447,-0.553 0.303,-0.553C0.142,-0.553 0.038,-0.439 0.038,-0.27C0.038,-0.097 0.141,0.011 0.309,0.011ZM0.188,-0.328C0.191,-0.39 0.238,-0.44 0.305,-0.44C0.371,-0.44 0.417,-0.393 0.417,-0.328L0.188,-0.328ZM0.245,-0.616L0.352,-0.616L0.46,-0.777L0.32,-0.777L0.245,-0.616Z" style="fill-rule:nonzero;"/>
        </g>
        <g transform="matrix(12,0,0,12,124.999,96.4205)">
            <path d="M0.309,0.011C0.444,0.011 0.535,-0.055 0.556,-0.156L0.416,-0.165C0.401,-0.124 0.362,-0.102 0.311,-0.102C0.236,-0.102 0.188,-0.152 0.188,-0.234L0.188,-0.234L0.559,-0.234L0.559,-0.276C0.559,-0.461 0.447,-0.553 0.303,-0.553C0.142,-0.553 0.038,-0.439 0.038,-0.27C0.038,-0.097 0.141,0.011 0.309,0.011ZM0.188,-0.328C0.191,-0.39 0.238,-0.44 0.305,-0.44C0.371,-0.44 0.417,-0.393 0.417,-0.328L0.188,-0.328Z" style="fill-rule:nonzero;"/>
        </g>
        <g transform="matrix(12,0,0,12,132.17,96.4205)">
            <path d="M0.212,-0.315C0.212,-0.386 0.254,-0.427 0.315,-0.427C0.376,-0.427 0.412,-0.387 0.412,-0.32L0.412,-0L0.563,-0L0.563,-0.347C0.563,-0.474 0.489,-0.553 0.375,-0.553C0.294,-0.553 0.235,-0.513 0.211,-0.449L0.205,-0.449L0.205,-0.545L0.06,-0.545L0.06,-0L0.212,-0L0.212,-0.315Z" style="fill-rule:nonzero;"/>
        </g>
        <g transform="matrix(12,0,0,12,139.632,96.4205)">
            <path d="M0.212,-0.315C0.212,-0.386 0.254,-0.427 0.315,-0.427C0.376,-0.427 0.412,-0.387 0.412,-0.32L0.412,-0L0.563,-0L0.563,-0.347C0.563,-0.474 0.489,-0.553 0.375,-0.553C0.294,-0.553 0.235,-0.513 0.211,-0.449L0.205,-0.449L0.205,-0.545L0.06,-0.545L0.06,-0L0.212,-0L0.212,-0.315Z" style="fill-rule:nonzero;"/>
        </g>
        <g transform="matrix(12,0,0,12,147.094,96.4205)">
            <path d="M0.309,0.011C0.444,0.011 0.535,-0.055 0.556,-0.156L0.416,-0.165C0.401,-0.124 0.362,-0.102 0.311,-0.102C0.236,-0.102 0.188,-0.152 0.188,-0.234L0.188,-0.234L0.559,-0.234L0.559,-0.276C0.559,-0.461 0.447,-0.553 0.303,-0.553C0.142,-0.553 0.038,-0.439 0.038,-0.27C0.038,-0.097 0.141,0.011 0.309,0.011ZM0.188,-0.328C0.191,-0.39 0.238,-0.44 0.305,-0.44C0.371,-0.44 0.417,-0.393 0.417,-0.328L0.188,-0.328Z" style="fill-rule:nonzero;"/>
        </g>
    </g>
    <g transform="matrix(2.17987,0,0,2.17987,289.219,56.8745)">
        <g transform="matrix(12,0,0,12,24.5497,96.4205)">
            <path d="M0.354,-0.545L0.245,-0.545L0.245,-0.582C0.245,-0.619 0.26,-0.641 0.305,-0.641C0.323,-0.641 0.341,-0.637 0.353,-0.633L0.38,-0.746C0.361,-0.752 0.32,-0.761 0.273,-0.761C0.17,-0.761 0.094,-0.703 0.094,-0.585L0.094,-0.545L0.017,-0.545L0.017,-0.432L0.094,-0.432L0.094,-0L0.245,-0L0.245,-0.432L0.354,-0.432L0.354,-0.545Z" style="fill-rule:nonzero;"/>
        </g>
        <g transform="matrix(12,0,0,12,29.1776,96.4205)">
            <path d="M0.06,-0L0.212,-0L0.212,-0.545L0.06,-0.545L0.06,-0ZM0.136,-0.616C0.181,-0.616 0.218,-0.65 0.218,-0.692C0.218,-0.734 0.181,-0.769 0.136,-0.769C0.092,-0.769 0.055,-0.734 0.055,-0.692C0.055,-0.65 0.092,-0.616 0.136,-0.616Z" style="fill-rule:nonzero;"/>
        </g>
        <g transform="matrix(12,0,0,12,32.4418,96.4205)">
            <path d="M0.212,-0.315C0.212,-0.386 0.254,-0.427 0.315,-0.427C0.376,-0.427 0.412,-0.387 0.412,-0.32L0.412,-0L0.563,-0L0.563,-0.347C0.563,-0.474 0.489,-0.553 0.375,-0.553C0.294,-0.553 0.235,-0.513 0.211,-0.449L0.205,-0.449L0.205,-0.545L0.06,-0.545L0.06,-0L0.212,-0L0.212,-0.315Z" style="fill-rule:nonzero;"/>
        </g>
    </g>
    <g transform="matrix(2.17987,0,0,2.17987,486.109,-110.211)">
        <g transform="matrix(12,0,0,12,24.5497,96.4205)">
            <path d="M0.229,-0L0.229,-0.575L0.031,-0.575L0.031,-0.693L0.555,-0.693L0.555,-0.575L0.357,-0.575L0.357,-0L0.229,-0Z" style="fill:white;fill-rule:nonzero;"/>
        </g>
        <g transform="matrix(12,0,0,12,31.581,96.4205)">
            <path d="M0.272,-0.223L0.272,-0.113L0.393,-0.113L0.393,-0L0.031,-0L0.031,-0.113L0.14,-0.113L0.14,-0.404L0.05,-0.404L0.05,-0.518L0.252,-0.518L0.268,-0.401L0.286,-0.401C0.291,-0.485 0.335,-0.527 0.418,-0.527C0.468,-0.527 0.505,-0.509 0.531,-0.473C0.558,-0.437 0.571,-0.385 0.571,-0.317L0.439,-0.317C0.439,-0.347 0.434,-0.369 0.423,-0.383C0.411,-0.396 0.393,-0.403 0.368,-0.403C0.336,-0.403 0.312,-0.387 0.296,-0.356C0.28,-0.325 0.272,-0.28 0.272,-0.223Z" style="fill:white;fill-rule:nonzero;"/>
        </g>
        <g transform="matrix(12,0,0,12,38.6122,96.4205)">
            <path d="M0.218,0.01C0.169,0.01 0.131,-0.006 0.104,-0.039C0.076,-0.071 0.063,-0.117 0.063,-0.176L0.063,-0.518L0.195,-0.518L0.195,-0.208C0.195,-0.179 0.202,-0.156 0.216,-0.14C0.229,-0.124 0.248,-0.116 0.271,-0.116C0.302,-0.116 0.326,-0.128 0.342,-0.152C0.357,-0.176 0.365,-0.216 0.365,-0.272L0.365,-0.518L0.498,-0.518L0.498,-0.118L0.569,-0.107L0.569,-0L0.374,0.005L0.367,-0.1L0.352,-0.1C0.343,-0.064 0.328,-0.037 0.304,-0.019C0.281,0 0.252,0.01 0.218,0.01Z" style="fill:white;fill-rule:nonzero;"/>
        </g>
        <g transform="matrix(12,0,0,12,45.6435,96.4205)">
            <path d="M0.339,0.01C0.249,0.01 0.18,-0.013 0.131,-0.06C0.083,-0.106 0.058,-0.173 0.058,-0.26C0.058,-0.344 0.079,-0.41 0.12,-0.457C0.162,-0.504 0.22,-0.527 0.296,-0.527C0.37,-0.527 0.427,-0.506 0.467,-0.462C0.508,-0.419 0.528,-0.356 0.528,-0.273C0.528,-0.25 0.527,-0.228 0.525,-0.207L0.196,-0.207C0.216,-0.146 0.268,-0.115 0.351,-0.115C0.374,-0.115 0.397,-0.116 0.42,-0.119C0.443,-0.121 0.466,-0.125 0.49,-0.129L0.502,-0.004C0.469,0.002 0.439,0.006 0.412,0.007C0.384,0.009 0.36,0.01 0.339,0.01ZM0.19,-0.298L0.398,-0.298C0.398,-0.333 0.389,-0.36 0.371,-0.378C0.354,-0.397 0.329,-0.406 0.297,-0.406C0.267,-0.406 0.243,-0.397 0.224,-0.378C0.206,-0.359 0.194,-0.333 0.19,-0.298Z" style="fill:white;fill-rule:nonzero;"/>
        </g>
    </g>
    <g transform="matrix(2.17987,0,0,2.17987,318.143,-110.211)">
        <g transform="matrix(12,0,0,12,24.5497,96.4205)">
            <path d="M0.08,-0L0.08,-0.693L0.555,-0.693L0.555,-0.575L0.208,-0.575L0.208,-0.378L0.459,-0.378L0.459,-0.258L0.208,-0.258L0.208,-0L0.08,-0Z" style="fill:white;fill-rule:nonzero;"/>
        </g>
        <g transform="matrix(12,0,0,12,31.581,96.4205)">
            <path d="M0.388,0.005L0.38,-0.109L0.368,-0.109C0.363,-0.07 0.347,-0.04 0.321,-0.02C0.294,-0 0.258,0.01 0.213,0.01C0.158,0.01 0.115,-0.004 0.084,-0.031C0.054,-0.058 0.039,-0.096 0.039,-0.146C0.039,-0.204 0.059,-0.248 0.099,-0.279C0.139,-0.31 0.195,-0.326 0.269,-0.326C0.291,-0.326 0.31,-0.325 0.326,-0.323C0.343,-0.322 0.359,-0.319 0.375,-0.315L0.375,-0.317C0.375,-0.345 0.363,-0.365 0.34,-0.378C0.316,-0.391 0.281,-0.398 0.234,-0.399L0.102,-0.402L0.112,-0.522L0.225,-0.521C0.318,-0.52 0.388,-0.501 0.434,-0.466C0.479,-0.43 0.502,-0.378 0.502,-0.31L0.502,-0.118L0.574,-0.107L0.574,-0L0.388,0.005ZM0.375,-0.207C0.356,-0.21 0.339,-0.213 0.324,-0.213C0.308,-0.214 0.292,-0.214 0.275,-0.214C0.207,-0.214 0.173,-0.195 0.173,-0.156C0.173,-0.12 0.197,-0.102 0.246,-0.102C0.274,-0.102 0.297,-0.107 0.316,-0.117C0.335,-0.127 0.35,-0.14 0.359,-0.156C0.369,-0.173 0.374,-0.189 0.375,-0.207Z" style="fill:white;fill-rule:nonzero;"/>
        </g>
        <g transform="matrix(12,0,0,12,38.6122,96.4205)">
            <path d="M0.37,0.01C0.305,0.01 0.258,-0.008 0.229,-0.044C0.2,-0.08 0.186,-0.137 0.186,-0.216L0.186,-0.611L0.04,-0.611L0.04,-0.732L0.318,-0.732L0.318,-0.221C0.318,-0.188 0.323,-0.165 0.335,-0.15C0.346,-0.135 0.371,-0.128 0.409,-0.128C0.438,-0.128 0.474,-0.134 0.518,-0.146L0.533,-0.011C0.505,-0.004 0.478,0.002 0.453,0.005C0.427,0.008 0.399,0.01 0.37,0.01Z" style="fill:white;fill-rule:nonzero;"/>
        </g>
        <g transform="matrix(12,0,0,12,45.6435,96.4205)">
            <path d="M0.253,0.01C0.175,0.01 0.114,0.005 0.068,-0.005L0.083,-0.131C0.125,-0.126 0.159,-0.122 0.187,-0.12C0.215,-0.117 0.237,-0.116 0.253,-0.116C0.296,-0.116 0.326,-0.119 0.345,-0.125C0.365,-0.131 0.374,-0.14 0.374,-0.154C0.374,-0.168 0.364,-0.178 0.343,-0.184L0.18,-0.233C0.145,-0.243 0.119,-0.259 0.102,-0.279C0.084,-0.3 0.076,-0.327 0.076,-0.362C0.076,-0.472 0.17,-0.527 0.359,-0.527C0.382,-0.527 0.405,-0.527 0.428,-0.525C0.452,-0.523 0.478,-0.521 0.504,-0.518L0.49,-0.395C0.461,-0.398 0.435,-0.399 0.413,-0.4C0.39,-0.401 0.372,-0.402 0.356,-0.402C0.307,-0.402 0.272,-0.399 0.249,-0.393C0.227,-0.388 0.216,-0.378 0.216,-0.365C0.216,-0.351 0.226,-0.341 0.245,-0.335L0.385,-0.295C0.43,-0.283 0.463,-0.265 0.485,-0.242C0.507,-0.22 0.518,-0.19 0.518,-0.153C0.518,-0.045 0.43,0.01 0.253,0.01Z" style="fill:white;fill-rule:nonzero;"/>
        </g>
        <g transform="matrix(12,0,0,12,52.6747,96.4205)">
            <path d="M0.339,0.01C0.249,0.01 0.18,-0.013 0.131,-0.06C0.083,-0.106 0.058,-0.173 0.058,-0.26C0.058,-0.344 0.079,-0.41 0.12,-0.457C0.162,-0.504 0.22,-0.527 0.296,-0.527C0.37,-0.527 0.427,-0.506 0.467,-0.462C0.508,-0.419 0.528,-0.356 0.528,-0.273C0.528,-0.25 0.527,-0.228 0.525,-0.207L0.196,-0.207C0.216,-0.146 0.268,-0.115 0.351,-0.115C0.374,-0.115 0.397,-0.116 0.42,-0.119C0.443,-0.121 0.466,-0.125 0.49,-0.129L0.502,-0.004C0.469,0.002 0.439,0.006 0.412,0.007C0.384,0.009 0.36,0.01 0.339,0.01ZM0.19,-0.298L0.398,-0.298C0.398,-0.333 0.389,-0.36 0.371,-0.378C0.354,-0.397 0.329,-0.406 0.297,-0.406C0.267,-0.406 0.243,-0.397 0.224,-0.378C0.206,-0.359 0.194,-0.333 0.19,-0.298Z" style="fill:white;fill-rule:nonzero;"/>
        </g>
    </g>
    <g transform="matrix(1,0,0,1,201.609,-18.9241)">
        <g transform="matrix(1,-0,-0,1,-201.609,18.9241)">
            <path d="M668.236,26.367L642.906,42.442L665.431,62.257L668.236,26.367Z" style="fill:rgb(255,192,0);"/>
            <path d="M662.048,43.938C711.264,52.377 748.766,95.296 748.766,146.904C748.766,204.563 701.955,251.374 644.296,251.374C612.209,251.374 583.481,236.877 564.309,214.078" style="fill:none;stroke:rgb(255,192,0);stroke-width:8px;"/>
        </g>
    </g>
</svg>
